<svg xmlns="http://www.w3.org/2000/svg" width="1800" height="1010" fill="none"><g clip-path="url(#a)"><path fill="#fff" d="M0 0h1800v1010H0z"/><path fill="#609AFF" d="M1070.35 83.079s-176.587-81.733-345.456-7.28c-168.869 74.452-250.05 253.8-320.091 396.749-70.04 142.949-22.832 303.104 110.19 389.8 133.022 86.806 219.166-6.287 402.816 11.471 183.651 17.648 233.831 49.084 383.511-32.428 149.68-81.512 170.42-315.127 45.11-505.505-125.3-190.267-276.08-252.807-276.08-252.807z"/><path fill="#fff" d="M1070.35 83.079s-176.587-81.733-345.456-7.28c-168.869 74.452-250.05 253.8-320.091 396.749-70.04 142.949-22.832 303.104 110.19 389.8 133.022 86.806 219.166-6.287 402.816 11.471 183.651 17.648 233.831 49.084 383.511-32.428 149.68-81.512 170.42-315.127 45.11-505.505-125.3-190.267-276.08-252.807-276.08-252.807z" opacity=".7"/><path stroke="#263238" stroke-linecap="round" stroke-linejoin="round" stroke-width="2.206" d="M386.281 967.139H1435.23"/><path fill="#263238" stroke="#263238" stroke-linecap="round" stroke-linejoin="round" stroke-width="2.206" d="M929.841 925.223c0 6.177-4.963 11.03-11.03 11.03-6.177 0-11.03-4.853-11.03-11.03 0-6.066 4.853-11.03 11.03-11.03 6.067 0 11.03 4.964 11.03 11.03z"/><path stroke="#263238" stroke-linecap="round" stroke-linejoin="round" stroke-width="2.206" d="M729.86 625.971h-3.309"/><path stroke="#263238" stroke-dasharray="6.77 6.77" stroke-linecap="round" stroke-linejoin="round" stroke-width="2.206" d="M719.827 625.971H709.68"/><path stroke="#263238" stroke-linecap="round" stroke-linejoin="round" stroke-width="2.206" d="M706.258 625.973h-3.309v-3.309"/><path stroke="#263238" stroke-dasharray="6.51 6.51" stroke-linecap="round" stroke-linejoin="round" stroke-width="2.206" d="M702.949 616.155V371.951"/><path stroke="#263238" stroke-linecap="round" stroke-linejoin="round" stroke-width="2.206" d="M702.949 368.645v-3.309h3.309"/><path stroke="#263238" stroke-dasharray="6.29 6.29" stroke-linecap="round" stroke-linejoin="round" stroke-width="2.206" d="M712.543 365.336h110.19"/><path stroke="#263238" stroke-linecap="round" stroke-linejoin="round" stroke-width="2.206" d="M825.82 365.334h3.309v-3.309"/><path stroke="#263238" stroke-dasharray="6.57 6.57" stroke-linecap="round" stroke-linejoin="round" stroke-width="2.206" d="M829.129 355.518v-75.555"/><path stroke="#263238" stroke-linecap="round" stroke-linejoin="round" stroke-width="2.206" d="M829.129 276.653v-3.309"/><path fill="#263238" d="m840.161 276.541-11.03-19.082-10.92 19.082h21.95z"/><path stroke="#263238" stroke-linecap="round" stroke-linejoin="round" stroke-width="2.206" d="M1115.7 653.326h3.3"/><path stroke="#263238" stroke-dasharray="3.85 3.85" stroke-linecap="round" stroke-linejoin="round" stroke-width="2.206" d="M1122.87 653.326h5.73"/><path stroke="#263238" stroke-linecap="round" stroke-linejoin="round" stroke-width="2.206" d="M1130.59 653.327h3.3v-3.309"/><path stroke="#263238" stroke-dasharray="6.54 6.54" stroke-linecap="round" stroke-linejoin="round" stroke-width="2.206" d="M1133.89 643.508V371.949"/><path stroke="#263238" stroke-linecap="round" stroke-linejoin="round" stroke-width="2.206" d="M1133.89 368.641v-3.309h-3.3"/><path stroke="#263238" stroke-dasharray="6.42 6.42" stroke-linecap="round" stroke-linejoin="round" stroke-width="2.206" d="M1124.08 365.332H998.996"/><path stroke="#263238" stroke-linecap="round" stroke-linejoin="round" stroke-width="2.206" d="M995.688 365.332h-3.309v-3.309"/><path stroke="#263238" stroke-dasharray="6.48 6.48" stroke-linecap="round" stroke-linejoin="round" stroke-width="2.206" d="M992.379 355.517v-74.453"/><path stroke="#263238" stroke-linecap="round" stroke-linejoin="round" stroke-width="2.206" d="M992.379 277.756v-3.309"/><path fill="#263238" d="m1003.41 277.643-11.029-18.971-10.92 18.971h21.949z"/><path stroke="#263238" stroke-linecap="round" stroke-linejoin="round" stroke-width="2.206" d="M915.609 528.911v-3.309"/><path stroke="#263238" stroke-dasharray="6.58 6.58" stroke-linecap="round" stroke-linejoin="round" stroke-width="2.206" d="M915.609 519.097v-220.49"/><path stroke="#263238" stroke-linecap="round" stroke-linejoin="round" stroke-width="2.206" d="M915.609 295.297v-3.309"/><path fill="#263238" d="m926.634 295.297-11.03-19.082-11.03 19.082h22.06z"/><path stroke="#263238" stroke-dasharray="6.62 6.62" stroke-linecap="round" stroke-linejoin="round" stroke-width="2.206" d="M1054.37 748.514v48.642h63.42v98.498h36.18M787.332 742.783v50.959h-69.048v104.123h-54.378"/><path fill="#263238" stroke="#263238" stroke-linecap="round" stroke-linejoin="round" stroke-width="2.206" d="M1135.88 198.895c0-30.112-24.48-54.599-54.59-54.599-8.61 0-16.66 1.985-23.83 5.405-11.69-24.156-36.51-40.811-65.186-40.811a69.04 69.04 0 0 0-13.567 1.323c-3.861-44.01-40.701-78.533-85.703-78.533-46.216 0-83.939 36.399-86.034 82.063-8.052-3.089-16.876-4.853-26.031-4.853-40.039 0-72.357 32.428-72.357 72.357 0 36.619 27.354 66.952 62.65 71.695v.551H1083.6c29.12-1.213 52.28-25.259 52.28-54.598z"/><path fill="#609AFF" stroke="#263238" stroke-linecap="round" stroke-linejoin="round" stroke-width="2.206" d="M1134.45 187.975c0-30.223-24.38-54.709-54.6-54.709-8.49 0-16.65 1.985-23.82 5.515-11.69-24.156-36.4-40.811-65.08-40.811-4.632 0-9.155.441-13.567 1.213-3.86-44.01-40.811-78.423-85.703-78.423-46.215 0-83.938 36.399-86.034 82.063-8.162-3.199-16.876-4.853-26.141-4.853-39.928 0-72.357 32.318-72.357 72.246 0 36.73 27.355 66.952 62.761 71.695v.662h312.371v-.11c29.01-1.214 52.17-25.149 52.17-54.488z"/><path fill="#263238" stroke="#263238" stroke-linecap="round" stroke-linejoin="round" stroke-width="2.206" d="M1157.06 128.414c0-18.972-15.44-34.414-34.41-34.414-5.4 0-10.48 1.324-15 3.53-7.39-15.222-22.94-25.7-40.92-25.7-2.94 0-5.81.257-8.6.772-2.43-27.685-25.59-49.415-53.94-49.415-29.12 0-52.835 22.943-54.158 51.62-5.074-1.984-10.7-2.977-16.435-2.977-25.149 0-45.554 20.295-45.554 45.443 0 23.163 17.207 42.245 39.487 45.113v.441h196.67c18.31-.772 32.86-15.883 32.86-34.413z"/><path fill="#fff" stroke="#263238" stroke-linecap="round" stroke-linejoin="round" stroke-width="2.206" d="M1156.18 121.575a34.315 34.315 0 0 0-34.41-34.414c-5.3 0-10.37 1.213-15 3.42-7.28-15.222-22.94-25.7-40.92-25.7-2.95 0-5.81.257-8.61.772-2.42-27.686-25.59-49.415-53.93-49.415-29.123 0-52.838 22.943-54.161 51.731a44.899 44.899 0 0 0-16.435-3.088c-25.148 0-45.554 20.405-45.554 45.553 0 23.053 17.207 42.135 39.488 45.113v.441h196.662v-.11c18.31-.772 32.87-15.883 32.87-34.303z"/><path fill="#263238" stroke="#263238" stroke-linecap="round" stroke-linejoin="round" stroke-width="2.206" d="M906.67 190.072h-13.236v12.685h13.236v-12.685zm-18.305 0h-13.236v12.685h13.236v-12.685zm36.617 0h-13.236v12.685h13.236v-12.685zm-54.93 0h-13.236v12.685h13.236v-12.685zm-18.414 0h-13.236v12.685h13.236v-12.685zm-31.548 12.685h13.236v-12.685H820.09v12.685zm123.201-12.685h-13.236v12.685h13.236v-12.685zm18.308 0h-13.236v12.685h13.236v-12.685zm-146.585 0h-12.795v12.685h12.795v-12.685z"/><path fill="#fff" stroke="#263238" stroke-linecap="round" stroke-linejoin="round" stroke-width="2.206" d="M1034.95 190.072h-13.23v12.685h13.23v-12.685zm5.08 0v12.685h11.25v-12.685h-11.25zm-60.005 0h-13.236v12.685h13.236v-12.685zm18.309 0h-13.236v12.685h13.236v-12.685zm18.306 0h-13.23v12.685h13.23v-12.685zM737.255 514.795h-68.607v-87.468l14.119-11.251h54.488v98.719z"/><path stroke="#263238" stroke-linecap="round" stroke-linejoin="round" stroke-width="2.206" d="M682.102 441.777h41.362m-41.362 14.448h41.362m-41.362 14.451h41.362m-41.362 14.447h41.362"/><path fill="#fff" stroke="#263238" stroke-linecap="round" stroke-linejoin="round" stroke-width="2.206" d="M668.648 427.327h13.678v-11.251l-13.678 11.251zm193.025-19.633h-68.607v-87.468l14.008-11.361h54.599v98.829z"/><path stroke="#263238" stroke-linecap="round" stroke-linejoin="round" stroke-width="2.206" d="M806.414 334.678h41.363m-41.363 14.447h41.363m-41.363 14.449h41.363m-41.363 14.447h41.363"/><path fill="#fff" stroke="#263238" stroke-linecap="round" stroke-linejoin="round" stroke-width="2.206" d="M793.066 320.226h13.678v-11.361l-13.678 11.361zm155.197 174.713h-68.607v-87.357l14.008-11.361h54.599v98.718z"/><path stroke="#263238" stroke-linecap="round" stroke-linejoin="round" stroke-width="2.206" d="M893.004 421.922h41.362m-41.362 14.447h41.362m-41.362 14.451h41.362m-41.362 14.448h41.362"/><path fill="#fff" stroke="#263238" stroke-linecap="round" stroke-linejoin="round" stroke-width="2.206" d="M879.656 407.582h13.677v-11.361l-13.677 11.361zm288.434 111.072h-68.6v-87.358l14.01-11.36h54.59v98.718z"/><path stroke="#263238" stroke-linecap="round" stroke-linejoin="round" stroke-width="2.206" d="M1112.84 445.748h41.36m-41.36 14.336h41.36m-41.36 14.451h41.36m-41.36 14.447h41.36"/><path fill="#fff" stroke="#263238" stroke-linecap="round" stroke-linejoin="round" stroke-width="2.206" d="M1099.49 431.296h13.57v-11.36l-13.57 11.36zm-23.72-19.522h-68.61v-87.468l14.01-11.361h54.6v98.829z"/><path stroke="#263238" stroke-linecap="round" stroke-linejoin="round" stroke-width="2.206" d="M1020.51 338.758h41.36m-41.36 14.447h41.36m-41.36 14.449h41.36m-41.36 14.448h41.36"/><path fill="#fff" stroke="#263238" stroke-linecap="round" stroke-linejoin="round" stroke-width="2.206" d="M1007.16 324.306h13.68v-11.361l-13.68 11.361z"/><path fill="#263238" stroke="#263238" stroke-linecap="round" stroke-linejoin="round" stroke-width="2.206" d="M851.852 738.48H733.941V541.705h117.911V738.48z"/><path fill="#609AFF" stroke="#263238" stroke-linecap="round" stroke-linejoin="round" stroke-width="2.206" d="M843.246 567.184H742.652v-11.25h100.594v11.25z"/><path fill="#fff" d="M821.078 550.09c0 1.213-.993 2.316-2.316 2.316-1.214 0-2.317-1.103-2.317-2.316 0-1.324 1.103-2.317 2.317-2.317 1.323 0 2.316.993 2.316 2.317zm9.816 0c0 1.213-.992 2.316-2.316 2.316-1.324 0-2.316-1.103-2.316-2.316 0-1.324.992-2.317 2.316-2.317 1.324 0 2.316.993 2.316 2.317zm9.817 0c0 1.213-1.103 2.316-2.317 2.316-1.323 0-2.316-1.103-2.316-2.316 0-1.324.993-2.317 2.316-2.317 1.214 0 2.317.993 2.317 2.317zm-90.117 25.476c0 1.324-1.103 2.317-2.317 2.317-1.323 0-2.316-.993-2.316-2.317 0-1.323.993-2.316 2.316-2.316 1.214 0 2.317.993 2.317 2.316zm9.707 0c0 1.324-.993 2.317-2.317 2.317-1.213 0-2.316-.993-2.316-2.317 0-1.323 1.103-2.316 2.316-2.316 1.324 0 2.317.993 2.317 2.316zm9.816 0c0 1.324-.993 2.317-2.316 2.317-1.214 0-2.317-.993-2.317-2.317 0-1.323 1.103-2.316 2.317-2.316 1.323 0 2.316.993 2.316 2.316z"/><path fill="#609AFF" stroke="#263238" stroke-linecap="round" stroke-linejoin="round" stroke-width="2.206" d="M843.246 592.663H742.652v-11.251h100.594v11.251z"/><path fill="#fff" d="M821.078 575.566c0 1.324-.993 2.317-2.316 2.317-1.214 0-2.317-.993-2.317-2.317 0-1.323 1.103-2.316 2.317-2.316 1.323 0 2.316.993 2.316 2.316zm9.816 0c0 1.324-.992 2.317-2.316 2.317-1.324 0-2.316-.993-2.316-2.317 0-1.323.992-2.316 2.316-2.316 1.324 0 2.316.993 2.316 2.316zm9.817 0c0 1.324-1.103 2.317-2.317 2.317-1.323 0-2.316-.993-2.316-2.317 0-1.323.993-2.316 2.316-2.316 1.214 0 2.317.993 2.317 2.316zm-90.117 25.481c0 1.323-1.103 2.316-2.317 2.316-1.323 0-2.316-.993-2.316-2.316 0-1.324.993-2.317 2.316-2.317 1.214 0 2.317.993 2.317 2.317zm9.707 0c0 1.323-.993 2.316-2.317 2.316-1.213 0-2.316-.993-2.316-2.316 0-1.324 1.103-2.317 2.316-2.317 1.324 0 2.317.993 2.317 2.317zm9.816 0c0 1.323-.993 2.316-2.316 2.316-1.214 0-2.317-.993-2.317-2.316 0-1.324 1.103-2.317 2.317-2.317 1.323 0 2.316.993 2.316 2.317z"/><path fill="#609AFF" stroke="#263238" stroke-linecap="round" stroke-linejoin="round" stroke-width="2.206" d="M843.246 618.143H742.652v-11.25h100.594v11.25z"/><path fill="#fff" d="M821.078 601.047c0 1.323-.993 2.316-2.316 2.316-1.214 0-2.317-.993-2.317-2.316 0-1.324 1.103-2.317 2.317-2.317 1.323 0 2.316.993 2.316 2.317zm9.816 0c0 1.323-.992 2.316-2.316 2.316-1.324 0-2.316-.993-2.316-2.316 0-1.324.992-2.317 2.316-2.317 1.324 0 2.316.993 2.316 2.317zm9.817 0c0 1.323-1.103 2.316-2.317 2.316-1.323 0-2.316-.993-2.316-2.316 0-1.324.993-2.317 2.316-2.317 1.214 0 2.317.993 2.317 2.317zm-90.117 25.48c0 1.324-1.103 2.316-2.317 2.316-1.323 0-2.316-.992-2.316-2.316 0-1.213.993-2.316 2.316-2.316 1.214 0 2.317 1.103 2.317 2.316zm9.707 0c0 1.324-.993 2.316-2.317 2.316-1.213 0-2.316-.992-2.316-2.316 0-1.213 1.103-2.316 2.316-2.316 1.324 0 2.317 1.103 2.317 2.316zm9.816 0c0 1.324-.993 2.316-2.316 2.316-1.214 0-2.317-.992-2.317-2.316 0-1.213 1.103-2.316 2.317-2.316 1.323 0 2.316 1.103 2.316 2.316z"/><path fill="#609AFF" stroke="#263238" stroke-linecap="round" stroke-linejoin="round" stroke-width="2.206" d="M843.246 643.622H742.652v-11.251h100.594v11.251z"/><path fill="#fff" d="M821.078 626.527c0 1.324-.993 2.316-2.316 2.316-1.214 0-2.317-.992-2.317-2.316 0-1.213 1.103-2.316 2.317-2.316 1.323 0 2.316 1.103 2.316 2.316zm9.816 0c0 1.324-.992 2.316-2.316 2.316-1.324 0-2.316-.992-2.316-2.316 0-1.213.992-2.316 2.316-2.316 1.324 0 2.316 1.103 2.316 2.316zm9.817 0c0 1.324-1.103 2.316-2.317 2.316-1.323 0-2.316-.992-2.316-2.316 0-1.213.993-2.316 2.316-2.316 1.214 0 2.317 1.103 2.317 2.316zm-90.117 25.477c0 1.323-1.103 2.316-2.317 2.316-1.323 0-2.316-.993-2.316-2.316 0-1.214.993-2.316 2.316-2.316 1.214 0 2.317 1.102 2.317 2.316zm9.707 0c0 1.323-.993 2.316-2.317 2.316-1.213 0-2.316-.993-2.316-2.316 0-1.214 1.103-2.316 2.316-2.316 1.324 0 2.317 1.102 2.317 2.316zm9.816 0c0 1.323-.993 2.316-2.316 2.316-1.214 0-2.317-.993-2.317-2.316 0-1.214 1.103-2.316 2.317-2.316 1.323 0 2.316 1.102 2.316 2.316z"/><path fill="#609AFF" stroke="#263238" stroke-linecap="round" stroke-linejoin="round" stroke-width="2.206" d="M843.246 669.102H742.652v-11.25h100.594v11.25z"/><path fill="#fff" d="M821.078 652.004c0 1.323-.993 2.316-2.316 2.316-1.214 0-2.317-.993-2.317-2.316 0-1.214 1.103-2.316 2.317-2.316 1.323 0 2.316 1.102 2.316 2.316zm9.816 0c0 1.323-.992 2.316-2.316 2.316-1.324 0-2.316-.993-2.316-2.316 0-1.214.992-2.316 2.316-2.316 1.324 0 2.316 1.102 2.316 2.316zm9.817 0c0 1.323-1.103 2.316-2.317 2.316-1.323 0-2.316-.993-2.316-2.316 0-1.214.993-2.316 2.316-2.316 1.214 0 2.317 1.102 2.317 2.316zm-90.117 25.478c0 1.324-1.103 2.317-2.317 2.317-1.323 0-2.316-.993-2.316-2.317 0-1.213.993-2.316 2.316-2.316 1.214 0 2.317 1.103 2.317 2.316zm9.707 0c0 1.324-.993 2.317-2.317 2.317-1.213 0-2.316-.993-2.316-2.317 0-1.213 1.103-2.316 2.316-2.316 1.324 0 2.317 1.103 2.317 2.316zm9.816 0c0 1.324-.993 2.317-2.316 2.317-1.214 0-2.317-.993-2.317-2.317 0-1.213 1.103-2.316 2.317-2.316 1.323 0 2.316 1.103 2.316 2.316z"/><path fill="#609AFF" stroke="#263238" stroke-linecap="round" stroke-linejoin="round" stroke-width="2.206" d="M843.246 694.581H742.652V683.33h100.594v11.251z"/><path fill="#fff" d="M821.078 677.482c0 1.324-.993 2.317-2.316 2.317-1.214 0-2.317-.993-2.317-2.317 0-1.213 1.103-2.316 2.317-2.316 1.323 0 2.316 1.103 2.316 2.316zm9.816 0c0 1.324-.992 2.317-2.316 2.317-1.324 0-2.316-.993-2.316-2.317 0-1.213.992-2.316 2.316-2.316 1.324 0 2.316 1.103 2.316 2.316zm9.817 0c0 1.324-1.103 2.317-2.317 2.317-1.323 0-2.316-.993-2.316-2.317 0-1.213.993-2.316 2.316-2.316 1.214 0 2.317 1.103 2.317 2.316zm-90.117 25.481c0 1.323-1.103 2.316-2.317 2.316-1.323 0-2.316-.993-2.316-2.316 0-1.214.993-2.317 2.316-2.317 1.214 0 2.317 1.103 2.317 2.317zm9.707 0c0 1.323-.993 2.316-2.317 2.316-1.213 0-2.316-.993-2.316-2.316 0-1.214 1.103-2.317 2.316-2.317 1.324 0 2.317 1.103 2.317 2.317zm9.816 0c0 1.323-.993 2.316-2.316 2.316-1.214 0-2.317-.993-2.317-2.316 0-1.214 1.103-2.317 2.317-2.317 1.323 0 2.316 1.103 2.316 2.317z"/><path fill="#609AFF" stroke="#263238" stroke-linecap="round" stroke-linejoin="round" stroke-width="2.206" d="M843.246 720.061H742.652v-11.25h100.594v11.25z"/><path fill="#fff" d="M821.078 702.963c0 1.323-.993 2.316-2.316 2.316-1.214 0-2.317-.993-2.317-2.316 0-1.214 1.103-2.317 2.317-2.317 1.323 0 2.316 1.103 2.316 2.317zm9.816 0c0 1.323-.992 2.316-2.316 2.316-1.324 0-2.316-.993-2.316-2.316 0-1.214.992-2.317 2.316-2.317 1.324 0 2.316 1.103 2.316 2.317zm9.817 0c0 1.323-1.103 2.316-2.317 2.316-1.323 0-2.316-.993-2.316-2.316 0-1.214.993-2.317 2.316-2.317 1.214 0 2.317 1.103 2.317 2.317z"/><path stroke="#263238" stroke-linecap="round" stroke-linejoin="round" stroke-width="2.206" d="M750.594 728.443c0 1.324-1.103 2.317-2.317 2.317-1.323 0-2.316-.993-2.316-2.317 0-1.213.993-2.316 2.316-2.316 1.214 0 2.317 1.103 2.317 2.316zm9.707 0c0 1.324-.993 2.317-2.317 2.317-1.213 0-2.316-.993-2.316-2.317 0-1.213 1.103-2.316 2.316-2.316 1.324 0 2.317 1.103 2.317 2.316zm9.816 0c0 1.324-.993 2.317-2.316 2.317-1.214 0-2.317-.993-2.317-2.317 0-1.213 1.103-2.316 2.317-2.316 1.323 0 2.316 1.103 2.316 2.316z"/><path fill="#263238" stroke="#263238" stroke-linecap="round" stroke-linejoin="round" stroke-width="2.206" d="M979.801 738.48h-117.91V541.705h117.91V738.48z"/><path fill="#609AFF" stroke="#263238" stroke-linecap="round" stroke-linejoin="round" stroke-width="2.206" d="M971.195 567.184H870.602v-11.25h100.593v11.25z"/><path fill="#fff" d="M949.023 550.09c0 1.213-.992 2.316-2.316 2.316-1.324 0-2.316-1.103-2.316-2.316 0-1.324.992-2.317 2.316-2.317 1.324 0 2.316.993 2.316 2.317zm9.817 0c0 1.213-1.103 2.316-2.317 2.316-1.323 0-2.316-1.103-2.316-2.316 0-1.324.993-2.317 2.316-2.317 1.214 0 2.317.993 2.317 2.317zm9.707 0c0 1.213-.993 2.316-2.317 2.316-1.213 0-2.316-1.103-2.316-2.316 0-1.324 1.103-2.317 2.316-2.317 1.324 0 2.317.993 2.317 2.317zm-90.106 25.476c0 1.324-.992 2.317-2.316 2.317-1.213 0-2.316-.993-2.316-2.317 0-1.323 1.103-2.316 2.316-2.316 1.324 0 2.316.993 2.316 2.316zm9.817 0c0 1.324-.993 2.317-2.317 2.317-1.323 0-2.316-.993-2.316-2.317 0-1.323.993-2.316 2.316-2.316 1.324 0 2.317.993 2.317 2.316zm9.816 0c0 1.324-1.103 2.317-2.316 2.317-1.324 0-2.317-.993-2.317-2.317 0-1.323.993-2.316 2.317-2.316 1.213 0 2.316.993 2.316 2.316z"/><path fill="#609AFF" stroke="#263238" stroke-linecap="round" stroke-linejoin="round" stroke-width="2.206" d="M971.195 592.663H870.602v-11.251h100.593v11.251z"/><path fill="#fff" d="M949.023 575.566c0 1.324-.992 2.317-2.316 2.317-1.324 0-2.316-.993-2.316-2.317 0-1.323.992-2.316 2.316-2.316 1.324 0 2.316.993 2.316 2.316zm9.817 0c0 1.324-1.103 2.317-2.317 2.317-1.323 0-2.316-.993-2.316-2.317 0-1.323.993-2.316 2.316-2.316 1.214 0 2.317.993 2.317 2.316zm9.707 0c0 1.324-.993 2.317-2.317 2.317-1.213 0-2.316-.993-2.316-2.317 0-1.323 1.103-2.316 2.316-2.316 1.324 0 2.317.993 2.317 2.316zm-90.106 25.481c0 1.323-.992 2.316-2.316 2.316-1.213 0-2.316-.993-2.316-2.316 0-1.324 1.103-2.317 2.316-2.317 1.324 0 2.316.993 2.316 2.317zm9.817 0c0 1.323-.993 2.316-2.317 2.316-1.323 0-2.316-.993-2.316-2.316 0-1.324.993-2.317 2.316-2.317 1.324 0 2.317.993 2.317 2.317zm9.816 0c0 1.323-1.103 2.316-2.316 2.316-1.324 0-2.317-.993-2.317-2.316 0-1.324.993-2.317 2.317-2.317 1.213 0 2.316.993 2.316 2.317z"/><path fill="#609AFF" stroke="#263238" stroke-linecap="round" stroke-linejoin="round" stroke-width="2.206" d="M971.195 618.143H870.602v-11.25h100.593v11.25z"/><path fill="#fff" d="M949.023 601.047c0 1.323-.992 2.316-2.316 2.316-1.324 0-2.316-.993-2.316-2.316 0-1.324.992-2.317 2.316-2.317 1.324 0 2.316.993 2.316 2.317zm9.817 0c0 1.323-1.103 2.316-2.317 2.316-1.323 0-2.316-.993-2.316-2.316 0-1.324.993-2.317 2.316-2.317 1.214 0 2.317.993 2.317 2.317zm9.707 0c0 1.323-.993 2.316-2.317 2.316-1.213 0-2.316-.993-2.316-2.316 0-1.324 1.103-2.317 2.316-2.317 1.324 0 2.317.993 2.317 2.317zm-90.106 25.48c0 1.324-.992 2.316-2.316 2.316-1.213 0-2.316-.992-2.316-2.316 0-1.213 1.103-2.316 2.316-2.316 1.324 0 2.316 1.103 2.316 2.316zm9.817 0c0 1.324-.993 2.316-2.317 2.316-1.323 0-2.316-.992-2.316-2.316 0-1.213.993-2.316 2.316-2.316 1.324 0 2.317 1.103 2.317 2.316zm9.816 0c0 1.324-1.103 2.316-2.316 2.316-1.324 0-2.317-.992-2.317-2.316 0-1.213.993-2.316 2.317-2.316 1.213 0 2.316 1.103 2.316 2.316z"/><path fill="#609AFF" stroke="#263238" stroke-linecap="round" stroke-linejoin="round" stroke-width="2.206" d="M971.195 643.622H870.602v-11.251h100.593v11.251z"/><path fill="#fff" d="M949.023 626.527c0 1.324-.992 2.316-2.316 2.316-1.324 0-2.316-.992-2.316-2.316 0-1.213.992-2.316 2.316-2.316 1.324 0 2.316 1.103 2.316 2.316zm9.817 0c0 1.324-1.103 2.316-2.317 2.316-1.323 0-2.316-.992-2.316-2.316 0-1.213.993-2.316 2.316-2.316 1.214 0 2.317 1.103 2.317 2.316zm9.707 0c0 1.324-.993 2.316-2.317 2.316-1.213 0-2.316-.992-2.316-2.316 0-1.213 1.103-2.316 2.316-2.316 1.324 0 2.317 1.103 2.317 2.316zm-90.106 25.477c0 1.323-.992 2.316-2.316 2.316-1.213 0-2.316-.993-2.316-2.316 0-1.214 1.103-2.316 2.316-2.316 1.324 0 2.316 1.102 2.316 2.316zm9.817 0c0 1.323-.993 2.316-2.317 2.316-1.323 0-2.316-.993-2.316-2.316 0-1.214.993-2.316 2.316-2.316 1.324 0 2.317 1.102 2.317 2.316zm9.816 0c0 1.323-1.103 2.316-2.316 2.316-1.324 0-2.317-.993-2.317-2.316 0-1.214.993-2.316 2.317-2.316 1.213 0 2.316 1.102 2.316 2.316z"/><path fill="#609AFF" stroke="#263238" stroke-linecap="round" stroke-linejoin="round" stroke-width="2.206" d="M971.195 669.102H870.602v-11.25h100.593v11.25z"/><path fill="#fff" d="M949.023 652.004c0 1.323-.992 2.316-2.316 2.316-1.324 0-2.316-.993-2.316-2.316 0-1.214.992-2.316 2.316-2.316 1.324 0 2.316 1.102 2.316 2.316zm9.817 0c0 1.323-1.103 2.316-2.317 2.316-1.323 0-2.316-.993-2.316-2.316 0-1.214.993-2.316 2.316-2.316 1.214 0 2.317 1.102 2.317 2.316zm9.707 0c0 1.323-.993 2.316-2.317 2.316-1.213 0-2.316-.993-2.316-2.316 0-1.214 1.103-2.316 2.316-2.316 1.324 0 2.317 1.102 2.317 2.316zm-90.106 25.478c0 1.324-.992 2.317-2.316 2.317-1.213 0-2.316-.993-2.316-2.317 0-1.213 1.103-2.316 2.316-2.316 1.324 0 2.316 1.103 2.316 2.316zm9.817 0c0 1.324-.993 2.317-2.317 2.317-1.323 0-2.316-.993-2.316-2.317 0-1.213.993-2.316 2.316-2.316 1.324 0 2.317 1.103 2.317 2.316zm9.816 0c0 1.324-1.103 2.317-2.316 2.317-1.324 0-2.317-.993-2.317-2.317 0-1.213.993-2.316 2.317-2.316 1.213 0 2.316 1.103 2.316 2.316z"/><path fill="#609AFF" stroke="#263238" stroke-linecap="round" stroke-linejoin="round" stroke-width="2.206" d="M971.195 694.581H870.602V683.33h100.593v11.251z"/><path fill="#fff" d="M949.023 677.482c0 1.324-.992 2.317-2.316 2.317-1.324 0-2.316-.993-2.316-2.317 0-1.213.992-2.316 2.316-2.316 1.324 0 2.316 1.103 2.316 2.316zm9.817 0c0 1.324-1.103 2.317-2.317 2.317-1.323 0-2.316-.993-2.316-2.317 0-1.213.993-2.316 2.316-2.316 1.214 0 2.317 1.103 2.317 2.316zm9.707 0c0 1.324-.993 2.317-2.317 2.317-1.213 0-2.316-.993-2.316-2.317 0-1.213 1.103-2.316 2.316-2.316 1.324 0 2.317 1.103 2.317 2.316zm-90.106 25.481c0 1.323-.992 2.316-2.316 2.316-1.213 0-2.316-.993-2.316-2.316 0-1.214 1.103-2.317 2.316-2.317 1.324 0 2.316 1.103 2.316 2.317zm9.817 0c0 1.323-.993 2.316-2.317 2.316-1.323 0-2.316-.993-2.316-2.316 0-1.214.993-2.317 2.316-2.317 1.324 0 2.317 1.103 2.317 2.317zm9.816 0c0 1.323-1.103 2.316-2.316 2.316-1.324 0-2.317-.993-2.317-2.316 0-1.214.993-2.317 2.317-2.317 1.213 0 2.316 1.103 2.316 2.317z"/><path fill="#609AFF" stroke="#263238" stroke-linecap="round" stroke-linejoin="round" stroke-width="2.206" d="M971.195 720.061H870.602v-11.25h100.593v11.25z"/><path fill="#fff" d="M949.023 702.963c0 1.323-.992 2.316-2.316 2.316-1.324 0-2.316-.993-2.316-2.316 0-1.214.992-2.317 2.316-2.317 1.324 0 2.316 1.103 2.316 2.317zm9.817 0c0 1.323-1.103 2.316-2.317 2.316-1.323 0-2.316-.993-2.316-2.316 0-1.214.993-2.317 2.316-2.317 1.214 0 2.317 1.103 2.317 2.317zm9.707 0c0 1.323-.993 2.316-2.317 2.316-1.213 0-2.316-.993-2.316-2.316 0-1.214 1.103-2.317 2.316-2.317 1.324 0 2.317 1.103 2.317 2.317z"/><path stroke="#263238" stroke-linecap="round" stroke-linejoin="round" stroke-width="2.206" d="M878.441 728.443c0 1.324-.992 2.317-2.316 2.317-1.213 0-2.316-.993-2.316-2.317 0-1.213 1.103-2.316 2.316-2.316 1.324 0 2.316 1.103 2.316 2.316zm9.817 0c0 1.324-.993 2.317-2.317 2.317-1.323 0-2.316-.993-2.316-2.317 0-1.213.993-2.316 2.316-2.316 1.324 0 2.317 1.103 2.317 2.316zm9.816 0c0 1.324-1.103 2.317-2.316 2.317-1.324 0-2.317-.993-2.317-2.317 0-1.213.993-2.316 2.317-2.316 1.213 0 2.316 1.103 2.316 2.316z"/><path fill="#263238" stroke="#263238" stroke-linecap="round" stroke-linejoin="round" stroke-width="2.206" d="M1107.75 738.48H989.84V541.705h117.91V738.48z"/><path fill="#609AFF" stroke="#263238" stroke-linecap="round" stroke-linejoin="round" stroke-width="2.206" d="M1099.15 567.184H998.445v-11.25h100.705v11.25z"/><path fill="#fff" d="M1076.98 550.09c0 1.213-1.1 2.316-2.32 2.316-1.32 0-2.31-1.103-2.31-2.316 0-1.324.99-2.317 2.31-2.317 1.22 0 2.32.993 2.32 2.317zm9.71 0c0 1.213-1 2.316-2.32 2.316-1.21 0-2.32-1.103-2.32-2.316 0-1.324 1.11-2.317 2.32-2.317 1.32 0 2.32.993 2.32 2.317zm9.81 0c0 1.213-.99 2.316-2.31 2.316-1.33 0-2.32-1.103-2.32-2.316 0-1.324.99-2.317 2.32-2.317 1.32 0 2.31.993 2.31 2.317zm-90.12 25.474c0 1.324-.99 2.317-2.31 2.317-1.33 0-2.32-.993-2.32-2.317 0-1.323.99-2.316 2.32-2.316 1.32 0 2.31.993 2.31 2.316zm9.82 0c0 1.324-1.1 2.317-2.32 2.317-1.32 0-2.31-.993-2.31-2.317 0-1.323.99-2.316 2.31-2.316 1.22 0 2.32.993 2.32 2.316zm9.71 0c0 1.324-1 2.317-2.32 2.317-1.21 0-2.32-.993-2.32-2.317 0-1.323 1.11-2.316 2.32-2.316 1.32 0 2.32.993 2.32 2.316z"/><path fill="#609AFF" stroke="#263238" stroke-linecap="round" stroke-linejoin="round" stroke-width="2.206" d="M1099.15 592.663H998.445v-11.251h100.705v11.251z"/><path fill="#fff" d="M1076.98 575.566c0 1.324-1.1 2.317-2.32 2.317-1.32 0-2.31-.993-2.31-2.317 0-1.323.99-2.316 2.31-2.316 1.22 0 2.32.993 2.32 2.316zm9.71 0c0 1.324-1 2.317-2.32 2.317-1.21 0-2.32-.993-2.32-2.317 0-1.323 1.11-2.316 2.32-2.316 1.32 0 2.32.993 2.32 2.316zm9.81 0c0 1.324-.99 2.317-2.31 2.317-1.33 0-2.32-.993-2.32-2.317 0-1.323.99-2.316 2.32-2.316 1.32 0 2.31.993 2.31 2.316zm-90.12 25.481c0 1.323-.99 2.316-2.31 2.316-1.33 0-2.32-.993-2.32-2.316 0-1.324.99-2.317 2.32-2.317 1.32 0 2.31.993 2.31 2.317zm9.82 0c0 1.323-1.1 2.316-2.32 2.316-1.32 0-2.31-.993-2.31-2.316 0-1.324.99-2.317 2.31-2.317 1.22 0 2.32.993 2.32 2.317zm9.71 0c0 1.323-1 2.316-2.32 2.316-1.21 0-2.32-.993-2.32-2.316 0-1.324 1.11-2.317 2.32-2.317 1.32 0 2.32.993 2.32 2.317z"/><path fill="#609AFF" stroke="#263238" stroke-linecap="round" stroke-linejoin="round" stroke-width="2.206" d="M1099.15 618.143H998.445v-11.25h100.705v11.25z"/><path fill="#fff" d="M1076.98 601.047c0 1.323-1.1 2.316-2.32 2.316-1.32 0-2.31-.993-2.31-2.316 0-1.324.99-2.317 2.31-2.317 1.22 0 2.32.993 2.32 2.317zm9.71 0c0 1.323-1 2.316-2.32 2.316-1.21 0-2.32-.993-2.32-2.316 0-1.324 1.11-2.317 2.32-2.317 1.32 0 2.32.993 2.32 2.317zm9.81 0c0 1.323-.99 2.316-2.31 2.316-1.33 0-2.32-.993-2.32-2.316 0-1.324.99-2.317 2.32-2.317 1.32 0 2.31.993 2.31 2.317zm-90.12 25.48c0 1.324-.99 2.316-2.31 2.316-1.33 0-2.32-.992-2.32-2.316 0-1.213.99-2.316 2.32-2.316 1.32 0 2.31 1.103 2.31 2.316zm9.82 0c0 1.324-1.1 2.316-2.32 2.316-1.32 0-2.31-.992-2.31-2.316 0-1.213.99-2.316 2.31-2.316 1.22 0 2.32 1.103 2.32 2.316zm9.71 0c0 1.324-1 2.316-2.32 2.316-1.21 0-2.32-.992-2.32-2.316 0-1.213 1.11-2.316 2.32-2.316 1.32 0 2.32 1.103 2.32 2.316z"/><path fill="#609AFF" stroke="#263238" stroke-linecap="round" stroke-linejoin="round" stroke-width="2.206" d="M1099.15 643.622H998.445v-11.251h100.705v11.251z"/><path fill="#fff" d="M1076.98 626.527c0 1.324-1.1 2.316-2.32 2.316-1.32 0-2.31-.992-2.31-2.316 0-1.213.99-2.316 2.31-2.316 1.22 0 2.32 1.103 2.32 2.316zm9.71 0c0 1.324-1 2.316-2.32 2.316-1.21 0-2.32-.992-2.32-2.316 0-1.213 1.11-2.316 2.32-2.316 1.32 0 2.32 1.103 2.32 2.316zm9.81 0c0 1.324-.99 2.316-2.31 2.316-1.33 0-2.32-.992-2.32-2.316 0-1.213.99-2.316 2.32-2.316 1.32 0 2.31 1.103 2.31 2.316zm-90.12 25.477c0 1.323-.99 2.316-2.31 2.316-1.33 0-2.32-.993-2.32-2.316 0-1.214.99-2.316 2.32-2.316 1.32 0 2.31 1.102 2.31 2.316zm9.82 0c0 1.323-1.1 2.316-2.32 2.316-1.32 0-2.31-.993-2.31-2.316 0-1.214.99-2.316 2.31-2.316 1.22 0 2.32 1.102 2.32 2.316zm9.71 0c0 1.323-1 2.316-2.32 2.316-1.21 0-2.32-.993-2.32-2.316 0-1.214 1.11-2.316 2.32-2.316 1.32 0 2.32 1.102 2.32 2.316z"/><path fill="#609AFF" stroke="#263238" stroke-linecap="round" stroke-linejoin="round" stroke-width="2.206" d="M1099.15 669.102H998.445v-11.25h100.705v11.25z"/><path fill="#fff" d="M1076.98 652.004c0 1.323-1.1 2.316-2.32 2.316-1.32 0-2.31-.993-2.31-2.316 0-1.214.99-2.316 2.31-2.316 1.22 0 2.32 1.102 2.32 2.316zm9.71 0c0 1.323-1 2.316-2.32 2.316-1.21 0-2.32-.993-2.32-2.316 0-1.214 1.11-2.316 2.32-2.316 1.32 0 2.32 1.102 2.32 2.316zm9.81 0c0 1.323-.99 2.316-2.31 2.316-1.33 0-2.32-.993-2.32-2.316 0-1.214.99-2.316 2.32-2.316 1.32 0 2.31 1.102 2.31 2.316zm-90.12 25.478c0 1.324-.99 2.317-2.31 2.317-1.33 0-2.32-.993-2.32-2.317 0-1.213.99-2.316 2.32-2.316 1.32 0 2.31 1.103 2.31 2.316zm9.82 0c0 1.324-1.1 2.317-2.32 2.317-1.32 0-2.31-.993-2.31-2.317 0-1.213.99-2.316 2.31-2.316 1.22 0 2.32 1.103 2.32 2.316zm9.71 0c0 1.324-1 2.317-2.32 2.317-1.21 0-2.32-.993-2.32-2.317 0-1.213 1.11-2.316 2.32-2.316 1.32 0 2.32 1.103 2.32 2.316z"/><path fill="#609AFF" stroke="#263238" stroke-linecap="round" stroke-linejoin="round" stroke-width="2.206" d="M1099.15 694.581H998.445V683.33h100.705v11.251z"/><path fill="#fff" d="M1076.98 677.482c0 1.324-1.1 2.317-2.32 2.317-1.32 0-2.31-.993-2.31-2.317 0-1.213.99-2.316 2.31-2.316 1.22 0 2.32 1.103 2.32 2.316zm9.71 0c0 1.324-1 2.317-2.32 2.317-1.21 0-2.32-.993-2.32-2.317 0-1.213 1.11-2.316 2.32-2.316 1.32 0 2.32 1.103 2.32 2.316zm9.81 0c0 1.324-.99 2.317-2.31 2.317-1.33 0-2.32-.993-2.32-2.317 0-1.213.99-2.316 2.32-2.316 1.32 0 2.31 1.103 2.31 2.316zm-90.12 25.481c0 1.323-.99 2.316-2.31 2.316-1.33 0-2.32-.993-2.32-2.316 0-1.214.99-2.317 2.32-2.317 1.32 0 2.31 1.103 2.31 2.317zm9.82 0c0 1.323-1.1 2.316-2.32 2.316-1.32 0-2.31-.993-2.31-2.316 0-1.214.99-2.317 2.31-2.317 1.22 0 2.32 1.103 2.32 2.317zm9.71 0c0 1.323-1 2.316-2.32 2.316-1.21 0-2.32-.993-2.32-2.316 0-1.214 1.11-2.317 2.32-2.317 1.32 0 2.32 1.103 2.32 2.317z"/><path fill="#609AFF" stroke="#263238" stroke-linecap="round" stroke-linejoin="round" stroke-width="2.206" d="M1099.15 720.061H998.445v-11.25h100.705v11.25z"/><path fill="#fff" d="M1076.98 702.963c0 1.323-1.1 2.316-2.32 2.316-1.32 0-2.31-.993-2.31-2.316 0-1.214.99-2.317 2.31-2.317 1.22 0 2.32 1.103 2.32 2.317zm9.71 0c0 1.323-1 2.316-2.32 2.316-1.21 0-2.32-.993-2.32-2.316 0-1.214 1.11-2.317 2.32-2.317 1.32 0 2.32 1.103 2.32 2.317zm9.81 0c0 1.323-.99 2.316-2.31 2.316-1.33 0-2.32-.993-2.32-2.316 0-1.214.99-2.317 2.32-2.317 1.32 0 2.31 1.103 2.31 2.317z"/><path stroke="#263238" stroke-linecap="round" stroke-linejoin="round" stroke-width="2.206" d="M1006.38 728.443c0 1.324-.99 2.317-2.31 2.317-1.33 0-2.32-.993-2.32-2.317 0-1.213.99-2.316 2.32-2.316 1.32 0 2.31 1.103 2.31 2.316zm9.82 0c0 1.324-1.1 2.317-2.32 2.317-1.32 0-2.31-.993-2.31-2.317 0-1.213.99-2.316 2.31-2.316 1.22 0 2.32 1.103 2.32 2.316zm9.71 0c0 1.324-1 2.317-2.32 2.317-1.21 0-2.32-.993-2.32-2.317 0-1.213 1.11-2.316 2.32-2.316 1.32 0 2.32 1.103 2.32 2.316z"/><path fill="#263238" stroke="#263238" stroke-linecap="round" stroke-linejoin="round" stroke-width="2.206" d="M1278.72 817.564h-70.26v-66.732h70.26v66.732z"/><path fill="#609AFF" stroke="#263238" stroke-linecap="round" stroke-linejoin="round" stroke-width="2.206" d="M1366.52 936.247c-1.44-11.582-37.62-110.08-39.82-115.154-2.1-5.073-52.73-24.155-52.73-24.155l-30.88-14.229-28.9 10.148s-53.27 23.163-55.48 28.236c-2.09 5.074-38.27 103.572-39.82 115.154-1.43 11.581 2.98 20.626 15.22 24.596 12.36 3.971 25.04-7.279 28.24-14.118 3.31-6.839 11.58-41.252 11.58-41.252l13.79 50.297-1.76 11.912h113.6l-1.76-11.912 13.68-50.297s8.38 34.413 11.58 41.252c3.31 6.839 15.99 18.089 28.24 14.118 12.35-3.97 16.65-13.015 15.22-24.596z"/><path stroke="#263238" stroke-linecap="round" stroke-linejoin="round" stroke-width="2.206" d="M1205.04 802.672s-2.21 48.863 2.31 74.452c4.42 25.59 18.76 61.879 18.76 61.879"/><path fill="#fff" stroke="#263238" stroke-linecap="round" stroke-linejoin="round" stroke-width="2.206" d="M1270.11 908.451c7.39-29.56-2.64-103.461-4.3-115.264l-22.72-10.478-18.53 6.508-.22.551s-6.73 91.88-.88 124.088c5.84 32.318 11.25 52.944 11.25 52.944h21.95s5.4-26.031 13.45-58.349z"/><path fill="#609AFF" d="M1328.35 931.834c-6.84 2.316-12.24 7.17-14.34 12.023-2.09 5.074 5.52 19.523 13.46 24.927 7.94 5.515 27.46 5.846 34.74-5.735 0 0 6.18-13.015 2.21-19.523"/><path stroke="#263238" stroke-linecap="round" stroke-linejoin="round" stroke-width="2.206" d="M1328.35 931.834c-6.84 2.316-12.24 7.17-14.34 12.023-2.09 5.074 5.52 19.523 13.46 24.927 7.94 5.515 27.46 5.846 34.74-5.735 0 0 6.18-13.015 2.21-19.523m-44.23-11.582s19.52-11.25 37.72-.441m-2.98-7.168s-9.71-3.64-20.63.33"/><path fill="#609AFF" stroke="#263238" stroke-linecap="round" stroke-linejoin="round" stroke-width="2.206" d="M1346.66 957.203s0-11.581-10.48-14.449c-10.59-2.868-22.5-2.868-27.58 3.64-5.07 6.507-.66 19.523 7.61 22.391 8.39 2.978 23.94-.662 27.58-4.633 3.53-3.971 2.87-6.949 2.87-6.949z"/><path fill="#fff" stroke="#263238" stroke-linecap="round" stroke-linejoin="round" stroke-width="2.206" d="M1301.11 948.933s11.25-2.427 11.8-2.537c.55-.221 16.99-.441 19.86 9.265 2.97 9.596-12.25 14.78-17.54 14.78-5.19 0-14.56-7.169-14.56-7.169l.44-14.339zm-14.79 1.874s-9.59 3.64-15.11 2.978c-5.62-.552-10.48-2.317-8.38 2.868 2.1 5.073 11.8 5.073 14.12 4.632 2.31-.441 6.17-1.434 6.17-1.434l3.2-9.044z"/><path fill="#fff" stroke="#263238" stroke-linecap="round" stroke-linejoin="round" stroke-width="2.206" d="M1296.58 944.41s1.76-4.081-2.32-4.853c-4.08-.883-13.68 18.31-15.22 23.053-1.43 4.742.44 5.073 2.98 4.081 2.65-1.103 11.36-14.339 12.9-16.876 1.66-2.978 1.66-5.405 1.66-5.405z"/><path fill="#fff" stroke="#263238" stroke-linecap="round" stroke-linejoin="round" stroke-width="2.206" d="M1297.02 946.395s2.54-3.198 4.96-1.323c2.32 1.875 3.76 6.397.78 10.258-2.98 3.86-12.14 13.456-15.56 13.677-3.41.22-2.53-4.081.23-7.28 2.75-3.199 9.59-15.332 9.59-15.332zm8.16 6.175s5.85.221 5.3 3.199c-.88 5.074-10.04 13.236-13.68 15.111-3.64 1.986-4.85.221-3.64-2.757 1.33-2.978 11.58-14.45 12.02-15.553z"/><path fill="#fff" stroke="#263238" stroke-linecap="round" stroke-linejoin="round" stroke-width="2.206" d="M1310.48 955.77s4.52 1.433 3.64 5.735c-.89 4.302-5.96 8.162-10.26 9.817-4.3 1.765-1.77-4.633-1.77-4.633s6.07-7.721 8.39-10.919z"/><path fill="#609AFF" d="M1123.64 946.504c.22-1.103.62-2.096 1.21-2.978.66-1.214 1.99-2.427 3.75-3.53"/><path stroke="#263238" stroke-linecap="round" stroke-linejoin="round" stroke-width="2.206" d="M1123.64 946.504c.22-1.103.62-2.096 1.21-2.978.66-1.214 1.99-2.427 3.75-3.53"/><path fill="#609AFF" d="M1153.64 931.392c2.53-.331 4.74-.331 6.29.11 7.16 2.206 13.01 7.28 15.22 12.354 2.09 5.074-5.52 19.523-13.46 24.928-7.94 5.515-27.46 5.846-34.74-5.736 0 0-4.53-9.706-3.31-16.545"/><path stroke="#263238" stroke-linecap="round" stroke-linejoin="round" stroke-width="2.206" d="M1153.64 931.392c2.53-.331 4.74-.331 6.29.11 7.16 2.206 13.01 7.28 15.22 12.354 2.09 5.074-5.52 19.523-13.46 24.928-7.94 5.515-27.46 5.846-34.74-5.736 0 0-4.53-9.706-3.31-16.545"/><path fill="#609AFF" stroke="#263238" stroke-linecap="round" stroke-linejoin="round" stroke-width="2.206" d="M1142.5 957.203s0-11.581 10.48-14.449c10.59-2.868 22.5-2.868 27.57 3.64 5.08 6.507.67 19.523-7.61 22.391-8.27 2.978-23.93-.662-27.46-4.633-3.64-3.971-2.98-6.949-2.98-6.949z"/><path fill="#fff" stroke="#263238" stroke-linecap="round" stroke-linejoin="round" stroke-width="2.206" d="M1188.16 948.933s-11.36-2.427-11.91-2.537c-.55-.221-16.99-.441-19.86 9.265-2.86 9.596 12.25 14.78 17.54 14.78 5.3 0 14.56-7.169 14.56-7.169l-.33-14.339zm14.66 1.874s9.6 3.64 15.23 2.978c5.51-.552 10.36-2.317 8.27 2.868-2.1 5.073-11.69 5.073-14.12 4.632-2.32-.441-6.18-1.434-6.18-1.434l-3.2-9.044z"/><path fill="#fff" stroke="#263238" stroke-linecap="round" stroke-linejoin="round" stroke-width="2.206" d="M1192.56 944.41s-1.65-4.081 2.32-4.853c4.08-.883 13.68 18.31 15.22 23.053 1.44 4.742-.44 5.073-2.98 4.081-2.64-1.103-11.36-14.339-12.9-16.876-1.66-2.978-1.66-5.405-1.66-5.405z"/><path fill="#fff" stroke="#263238" stroke-linecap="round" stroke-linejoin="round" stroke-width="2.206" d="M1192.13 946.395s-2.54-3.198-4.85-1.323c-2.43 1.875-3.86 6.397-.89 10.258 2.98 3.86 12.14 13.456 15.56 13.677 3.42.22 2.53-4.081-.22-7.28-2.76-3.199-9.6-15.332-9.6-15.332zm-8.06 6.175s-5.84.221-5.4 3.199c.88 5.074 10.04 13.236 13.68 15.111 3.64 1.986 4.96.221 3.64-2.757-1.33-2.978-11.59-14.45-11.92-15.553z"/><path fill="#fff" stroke="#263238" stroke-linecap="round" stroke-linejoin="round" stroke-width="2.206" d="M1178.67 955.77s-4.52 1.433-3.64 5.735c.88 4.302 5.95 8.162 10.26 9.817 4.3 1.765 1.76-4.633 1.76-4.633s-6.07-7.721-8.38-10.919z"/><path stroke="#263238" stroke-linecap="round" stroke-linejoin="round" stroke-width="2.206" d="M1128.82 927.754s20.96-6.729 32.87 1.875m-12.35-7.611s11.36 1.103 15.99 6.287"/><path fill="#263238" stroke="#263238" stroke-linecap="round" stroke-linejoin="round" stroke-width="2.206" d="M1255.66 673.622s-4.19-8.603-18.09-7.721c-14.01.883-39.82 21.95-44.56 43.679-4.74 21.619.88 27.906.88 27.906s-15.66 84.269-11.25 89.012c4.41 4.743 20.19 7.39 25.48 4.743 5.41-2.647 6.84-5.625 7.17-7.721.33-2.096 2.1-102.689 2.1-102.689l39.15-8.934 14.23 50.848s.33 65.518 1.77 67.283c1.54 1.765 10.14 4.522 15.77 2.426 5.63-2.095 14.56-9.265 15.11-16.655.55-7.39-13.68-72.357-12.13-81.842 1.43-9.597 6.18-21.399-1.55-37.723-7.72-16.324-22.83-28.788-34.08-22.612z"/><path fill="#fff" stroke="#263238" stroke-linecap="round" stroke-linejoin="round" stroke-width="2.206" d="M1224.78 776.091s-1.43 29.34-1.43 32.649c0 3.199 17.76 26.913 24.93 23.053 7.05-3.861 16.87-21.95 17.42-23.715.66-1.764-1.43-32.869-1.43-32.869l-39.49.882z"/><path fill="#fff" stroke="#263238" stroke-linecap="round" stroke-linejoin="round" stroke-width="2.206" d="M1253.57 692.703s-14.23 12.464-30 19.854c-15.67 7.39-16.88 10.037-16.88 10.037s2.65 39.819 5.96 46.326c3.2 6.508 27.24 24.377 32.65 23.163 5.29-1.213 27.24-19.854 28.45-23.493 1.22-3.53 6.84-41.804 6.18-45.996-.55-4.081-26.36-29.891-26.36-29.891z"/><path stroke="#263238" stroke-linecap="round" stroke-linejoin="round" stroke-width="2.206" d="M1237.58 755.906s4.96 5.295 11.25.883m-16.88 9.155s10.59 8.052 21.95-.551"/><path fill="#263238" d="M1229.85 740.572c0 2.537-1.32 4.633-2.97 4.633-1.66 0-2.98-2.096-2.98-4.633s1.32-4.633 2.98-4.633c1.65 0 2.97 2.096 2.97 4.633zm31.77 0c0 2.537-1.33 4.633-2.98 4.633-1.66 0-2.98-2.096-2.98-4.633s1.32-4.633 2.98-4.633c1.65 0 2.98 2.096 2.98 4.633z"/><path stroke="#263238" stroke-linecap="round" stroke-linejoin="round" stroke-width="2.206" d="M1218.27 729.433s6.18-5.626 16.88-2.979m15.99.332s12.24-2.647 19.3 6.177m-63.2.663s-5.95-4.742-6.83 3.861c-.89 8.603 8.05 13.346 8.05 13.346l-1.22-17.207zm71.81 1.435s5.96-5.294 6.84 4.191c.88 9.486-9.49 13.677-9.49 13.677l2.65-17.868zm32.42 170.412 8.83-49.414m6.73 1.324-9.49 27.795m-149.67-37.17 6.06 57.466m-11.91-51.179s2.32 25.038 7.61 37.171m118.68-59.015s.11 36.62-4.74 63.092c-4.96 26.361-19.74 46.546-19.74 46.546m-27.36-6.282 19.75-12.575m3.52-6.619-17.87 10.699"/><path fill="#609AFF" stroke="#263238" stroke-linecap="round" stroke-linejoin="round" stroke-width="2.206" d="M1077.42 935.804c-2.43-14.891-51.62-115.264-53.94-121.22-2.42-5.846-71.691-42.135-71.691-42.135l-31.877 1.655-31.877-1.655s-69.268 36.289-71.695 42.135c-2.316 5.956-51.51 106.329-53.936 121.22-2.317 15 3.971 21.729 9.486 26.472 5.515 4.632 28.347 3.86 34.634 3.529 1.323-.11 2.647-.11 4.081 0l18.42-39.046 9.817-43.238-1.875 83.387h166.993l-1.76-83.387 9.81 43.238 18.42 38.936c.96 0 1.91.037 2.87.11 6.29.331 29.12 1.103 34.63-3.529 5.52-4.743 11.81-11.472 9.49-26.472z"/><path fill="#fff" stroke="#263238" stroke-linecap="round" stroke-linejoin="round" stroke-width="2.206" d="M888.478 764.178s-8.273 12.685-10.258 28.348c-1.985 15.772-10.258 33.862-5.184 35.847 5.184 1.985 15.001-13.015 16.545-11.802 1.654 1.213 11.471 13.346 11.471 13.346l34.634 1.655s4.302-3.971 7.059-7.501c2.758-3.529 4.302-6.287 4.302-6.287s15.442 14.891 16.545 11.802c1.213-3.198-3.088-43.348-9.817-55.922-6.728-12.574-13.346-14.228-13.346-14.228l-51.951 4.742z"/><path fill="#C2C2C2" stroke="#263238" stroke-linecap="round" stroke-linejoin="round" stroke-width="2.206" d="M891.234 767.376s5.405 50.407 12.133 68.827c6.729 18.531 15.773 39.047 18.531 36.289 2.757-2.757 15.773-33.09 18.861-56.694 3.199-23.604 4.743-49.966 4.743-49.966l-54.268 1.544z"/><path fill="#fff" stroke="#263238" stroke-linecap="round" stroke-linejoin="round" stroke-width="2.206" d="M941.2 812.818c-18.089 6.618-34.965 2.868-43.458.111 1.655 9.155 3.64 17.758 5.625 23.273 6.729 18.53 15.773 39.046 18.531 36.289 2.757-2.758 15.773-33.09 18.861-56.695.147-.956.294-1.948.441-2.978z"/><path fill="#C2C2C2" stroke="#263238" stroke-linecap="round" stroke-linejoin="round" stroke-width="2.206" d="M875.68 681.121s1.764 61.878 4.191 72.025c2.427 10.258 21.619 29.561 25.81 32.76 4.192 3.088 17.538 4.301 20.737 2.757 3.198-1.654 27.575-27.244 29.781-35.075 2.206-7.832 2.868-70.482 2.647-77.21-.11-6.618-1.986-11.361-6.287-13.347-4.302-1.985-7.501-.441-7.501-.441s-7.61-7.831-11.471-8.162c-3.971-.441-7.611 1.544-7.611 1.544s-6.838-6.287-12.022-5.184c-5.184 1.213-10.368 5.515-10.368 5.515s-5.846-3.53-10.148-1.875c-4.412 1.544-6.618 7.831-6.618 7.831s-5.074-1.213-7.942 2.317c-2.867 3.529-3.198 16.545-3.198 16.545z"/><path fill="#C2C2C2" stroke="#263238" stroke-linecap="round" stroke-linejoin="round" stroke-width="2.206" d="M876.891 707.925s-4.964-7.06-8.273 0c-3.419 7.059 8.824 18.861 8.824 18.861l-.551-18.861zm81.402 1.212s2.978-8.272 7.5-.441c4.523 7.831-7.279 19.744-7.279 19.744l-.221-19.303z"/><path fill="#263238" stroke="#263238" stroke-linecap="round" stroke-linejoin="round" stroke-width="2.206" d="M958.294 719.726c.552-19.082.662-39.598.552-43.348-.11-6.618-1.985-11.361-6.287-13.347-4.302-1.985-7.501-.441-7.501-.441s-7.61-7.831-11.471-8.162c-3.971-.441-7.611 1.544-7.611 1.544s-6.838-6.287-12.022-5.184c-5.184 1.213-10.368 5.515-10.368 5.515s-5.846-3.53-10.148-1.875c-4.412 1.544-6.618 7.831-6.618 7.831s-5.074-1.213-7.942 2.317c-2.867 3.529-3.198 16.545-3.198 16.545s.441 17.427 1.323 35.406l1.103 3.199s3.089 1.544 3.199-3.53c.221-5.184-2.537-21.288-.441-24.818 2.096-3.529 5.735-5.956 15.001-1.985 9.375 3.971 19.523 7.5 35.737 4.302 16.214-3.089 17.096-7.39 19.413-5.074 2.316 2.316 1.433 20.516 1.654 26.031.221 5.515 4.853 7.059 4.853 7.059l.772-1.985z"/><path fill="#263238" d="M904.023 732.962c0 3.089-1.214 5.625-2.647 5.625-1.434 0-2.537-2.536-2.427-5.625.11-3.199 1.324-5.735 2.758-5.735 1.433 0 2.426 2.536 2.316 5.735zm32.101 0c0 3.089-1.323 5.625-2.647 5.625-1.434 0-2.537-2.536-2.426-5.625.11-3.199 1.323-5.735 2.757-5.735 1.324 0 2.427 2.536 2.316 5.735z"/><path stroke="#263238" stroke-linecap="round" stroke-linejoin="round" stroke-width="2.206" d="M912.074 756.344s6.177 4.302 13.016-.772m-21.508 7.83s8.493 5.515 16.766 5.184c8.272-.441 13.456-3.639 13.456-3.639"/><path stroke="#263238" stroke-linecap="round" stroke-linejoin="round" stroke-width="4.412" d="M889.465 720.497s12.684-2.757 18.53.441m18.087.332s16.214-3.861 19.303.441"/><path stroke="#263238" stroke-linecap="round" stroke-linejoin="round" stroke-width="2.206" d="M912.073 740.241c-.11 6.839-5.846 12.354-12.684 12.354-6.839 0-12.244-5.515-12.023-12.354.11-6.838 5.846-12.464 12.684-12.464 6.839 0 12.244 5.626 12.023 12.464zm37.841 0c-.221 6.839-5.956 12.354-12.795 12.354-6.839 0-12.243-5.515-12.023-12.354.221-6.838 5.957-12.464 12.795-12.464 6.839 0 12.243 5.626 12.023 12.464zm-37.84.002s8.935-5.956 13.016 0m24.933-4.745 8.273-26.361m-70.927 31.105-10.478-32.318"/><path fill="#fff" stroke="#263238" stroke-linecap="round" stroke-linejoin="round" stroke-width="2.206" d="M836.086 929.186s-4.302-9.816-9.486-13.015c-5.074-3.199-34.193-8.273-44.892 0-10.589 8.272-11.03 32.318-6.287 39.377 4.743 7.059 24.045 9.486 31.104 10.258 7.06.772 20.075-7.501 24.818-15.001 4.743-7.5 6.287-15.332 4.743-21.619z"/><path stroke="#263238" stroke-linecap="round" stroke-linejoin="round" stroke-width="2.206" d="M786.891 902.054s25.92-2.758 40.48 10.92m20.516-64.525-17.758 68.938"/><path fill="#C2C2C2" stroke="#263238" stroke-linecap="round" stroke-linejoin="round" stroke-width="2.206" d="m865.2 951.247 7.831.331s2.427 3.97-2.757 6.287c-5.074 2.426-14.119-1.103-18.09-2.758-3.97-1.544-6.618-4.301-6.618-4.301v-10.589l19.634 11.03z"/><path fill="#C2C2C2" stroke="#263238" stroke-linecap="round" stroke-linejoin="round" stroke-width="2.206" d="M829.02 926.76s-14.559-4.632-22.501 0c-7.831 4.743-9.375 18.972-3.971 23.604 5.515 4.743 17.428 6.398 17.428 6.398s9.816 14.118 11.802 16.545c1.875 2.316 3.529 3.088 5.074.772l1.544-2.427s3.198 2.758 5.515 2.758c2.426 0 2.426-5.074 2.426-5.074s5.074 5.846 7.06 3.088c1.985-2.757 0-8.603-1.545-13.346-1.654-4.743-5.515-13.346-5.515-13.346s9.376 11.03 11.361 15.331c1.986 4.302 3.971 12.575 7.059 11.802 3.199-.772 1.214-19.302-2.316-25.148-3.529-5.956-10.258-9.486-17.758-14.67-7.39-5.074-15.663-6.287-15.663-6.287z"/><path fill="#fff" d="M838.392 971.655s-5.846-11.03-7.5-15.773c-1.544-4.633-2.317-5.846-3.861-6.618"/><path stroke="#263238" stroke-linecap="round" stroke-linejoin="round" stroke-width="2.206" d="M838.392 971.655s-5.846-11.03-7.5-15.773c-1.544-4.633-2.317-5.846-3.861-6.618"/><path fill="#fff" d="M846.341 969.335s-4.743-16.544-6.728-19.743c-1.986-3.089-5.515-6.287-5.515-6.287"/><path stroke="#263238" stroke-linecap="round" stroke-linejoin="round" stroke-width="2.206" d="M846.341 969.335s-4.743-16.544-6.728-19.743c-1.986-3.089-5.515-6.287-5.515-6.287"/><path fill="#fff" stroke="#263238" stroke-linecap="round" stroke-linejoin="round" stroke-width="2.206" d="M1005.4 929.186s4.3-9.816 9.37-13.015c5.19-3.199 34.31-8.273 44.89 0 10.7 8.272 11.03 32.318 6.29 39.377-4.63 7.059-23.93 9.486-31.1 10.258-7.06.772-20.08-7.501-24.71-15.001-4.74-7.5-6.4-15.332-4.74-21.619z"/><path stroke="#263238" stroke-linecap="round" stroke-linejoin="round" stroke-width="2.206" d="M1054.59 902.054s-26.03-2.758-40.59 10.92m-20.406-64.525 17.646 68.938"/><path fill="#C2C2C2" stroke="#263238" stroke-linecap="round" stroke-linejoin="round" stroke-width="2.206" d="m976.274 951.247-7.942.331s-2.316 3.97 2.758 6.287c5.184 2.426 14.229-1.103 18.089-2.758 3.971-1.544 6.728-4.301 6.728-4.301v-10.589l-19.633 11.03z"/><path fill="#C2C2C2" stroke="#263238" stroke-linecap="round" stroke-linejoin="round" stroke-width="2.206" d="M1012.45 926.76s14.56-4.632 22.39 0c7.94 4.743 9.49 18.972 3.97 23.604-5.51 4.743-17.32 6.398-17.32 6.398s-9.81 14.118-11.8 16.545c-1.98 2.316-3.53 3.088-5.07.772l-1.66-2.427s-3.084 2.758-5.511 2.758c-2.316 0-2.316-5.074-2.316-5.074s-5.074 5.846-7.059 3.088c-1.985-2.757 0-8.603 1.544-13.346s5.515-13.346 5.515-13.346-9.486 11.03-11.471 15.331c-1.875 4.302-3.861 12.575-7.059 11.802-3.089-.772-1.214-19.302 2.426-25.148 3.53-5.956 10.148-9.486 17.648-14.67 7.503-5.074 15.773-6.287 15.773-6.287z"/><path fill="#fff" d="M1002.97 971.655s5.95-11.03 7.5-15.773c1.54-4.633 2.43-5.846 3.97-6.618"/><path stroke="#263238" stroke-linecap="round" stroke-linejoin="round" stroke-width="2.206" d="M1002.97 971.655s5.95-11.03 7.5-15.773c1.54-4.633 2.43-5.846 3.97-6.618"/><path fill="#fff" d="M995.137 969.335s4.743-16.544 6.733-19.743c1.87-3.089 5.51-6.287 5.51-6.287"/><path stroke="#263238" stroke-linecap="round" stroke-linejoin="round" stroke-width="2.206" d="M995.137 969.335s4.743-16.544 6.733-19.743c1.87-3.089 5.51-6.287 5.51-6.287"/><path fill="#609AFF" stroke="#263238" stroke-linecap="round" stroke-linejoin="round" stroke-width="2.206" d="M686.841 936.249c-1.434-11.582-37.612-110.08-39.818-115.154-2.206-5.073-52.834-24.155-52.834-24.155l-30.774-14.229-29.008 10.148s-53.165 23.163-55.371 28.236c-2.206 5.074-38.384 103.572-39.818 115.154-1.434 11.581 2.867 20.626 15.221 24.596 12.243 3.971 24.928-7.279 28.237-14.118 3.199-6.839 11.581-41.252 11.581-41.252l13.788 50.297-1.875 11.912h113.719l-1.875-11.912 13.787-50.297s8.273 34.413 11.582 41.252c3.309 6.839 15.883 18.089 28.237 14.118 12.353-3.97 16.655-13.015 15.221-24.596z"/><path fill="#263238" stroke="#263238" stroke-linecap="round" stroke-linejoin="round" stroke-width="2.206" d="M559.336 671.529s-14.119 0-25.921 13.126c-11.691 13.125-18.64 31.435-20.736 47.318-1.985 15.883-1.324 24.928-6.839 35.186-5.515 10.368-10.368 16.986-6.618 24.266 3.861 7.169 13.126 6.177 7.942 15.552-5.184 9.265-12.795 20.295-4.412 29.009 8.272 8.604 17.869 9.596 13.787 17.869-4.191 8.272-10.037 4.853-10.037 4.853s13.126 9.045 20.406 8.603c7.279-.331 17.537-8.934 21.067-20.626 3.419-11.802-8.714-19.413-10.368-31.766-1.765-12.464 12.464-27.355 14.449-27.685 2.096-.331 23.494.661 23.494.661l18.641 9.045s3.088-3.088 10.037-12.795c6.949-9.706 11.03-33.531 8.934-43.127-1.985-9.707-.992-11.14-5.846-21.84-4.853-10.699-3.419-26.251-19.964-39.708-13.567-11.03-28.016-7.941-28.016-7.941z"/><path fill="#fff" stroke="#263238" stroke-linecap="round" stroke-linejoin="round" stroke-width="2.206" d="m555.914 815.912-7.942-4.523-13.456 8.714s4.081-26.251 9.265-31.104c5.184-4.854 6.618-7.28 9.375-7.28 2.758 0 23.825.992 23.825.992s8.604 7.611 12.023 20.737c3.529 13.126 2.757 18.31 1.103 17.979-1.765-.331-8.714-8.273-10.368-7.942-1.765.331-8.714 4.522-8.714 4.522l-15.111-2.095z"/><path fill="#fff" stroke="#263238" stroke-linecap="round" stroke-linejoin="round" stroke-width="2.206" d="M548.305 780.285s1.323 23.163 3.419 31.436c2.096 8.382 12.795 26.582 12.795 26.582-.111 1.654 7.721-18.641 11.03-31.766 1.654-6.288 1.434-23.825 1.434-23.825l-28.678-2.427z"/><path fill="#fff" stroke="#263238" stroke-linecap="round" stroke-linejoin="round" stroke-width="2.206" d="M562.752 694.031s-5.846 13.457-15.883 25.921c-9.927 12.353-15.553 20.295-15.553 20.295s2.096 27.685 4.192 31.766c2.096 4.192 21.729 21.068 23.825 22.171 2.095.992 6.618.992 8.934 0 2.427-1.103 18.751-14.56 21.508-21.068 2.758-6.618 6.508-40.039 6.177-44.892-.331-4.853-33.2-34.193-33.2-34.193z"/><path fill="#263238" d="M553.158 744.438c0 2.427-1.103 4.523-2.427 4.523-1.323 0-2.426-2.096-2.426-4.523 0-2.537 1.103-4.522 2.426-4.522 1.324 0 2.427 1.985 2.427 4.522zm24.484 0c0 2.427-1.103 4.523-2.426 4.523-1.324 0-2.427-2.096-2.427-4.523 0-2.537 1.103-4.522 2.427-4.522 1.323 0 2.426 1.985 2.426 4.522z"/><path stroke="#263238" stroke-linecap="round" stroke-linejoin="round" stroke-width="2.206" d="M558.348 760.65s7.169 4.192 11.691 0m-16.875 10.039s11.03 7.942 21.067 0m-33.536-36.62s6.508-5.184 14.891-.331m15.883-.331s8.272-4.853 14.78 3.419m9.71-.331s3.751-4.191 5.846.331c2.096 4.522-.331 10.037-3.419 14.89-3.088 4.743-5.515 6.839-5.515 6.839l3.088-22.06zm-101.701 168.98.662-50.627m136.881 50.629-2.867-50.297"/><path fill="#609AFF" stroke="#263238" stroke-linecap="round" stroke-linejoin="round" stroke-width="2.206" d="M682.426 963.052s6.177-13.015 2.206-19.523c-3.97-6.507-27.905-14.118-35.075-12.022-7.28 2.206-13.015 7.28-15.221 12.353-2.206 5.074 5.404 19.523 13.346 24.928 8.052 5.515 27.575 5.846 34.744-5.736z"/><path stroke="#263238" stroke-linecap="round" stroke-linejoin="round" stroke-width="2.206" d="M640.516 931.948s19.523-11.251 37.612-.441m-2.873-7.169s-9.817-3.639-20.626.331"/><path fill="#609AFF" stroke="#263238" stroke-linecap="round" stroke-linejoin="round" stroke-width="2.206" d="M666.876 957.205s0-11.581-10.479-14.449c-10.478-2.868-22.391-2.868-27.465 3.64-5.073 6.507-.772 19.523 7.611 22.39 8.273 2.979 23.825-.661 27.465-4.632 3.64-3.971 2.868-6.949 2.868-6.949z"/><path fill="#fff" stroke="#263238" stroke-linecap="round" stroke-linejoin="round" stroke-width="2.206" d="M621.323 948.935s11.361-2.427 11.912-2.537c.552-.221 16.876-.441 19.854 9.265 2.868 9.596-12.243 14.78-17.537 14.78-5.295 0-14.56-7.169-14.56-7.169l.331-14.339zm-14.664 1.872s-9.596 3.64-15.221 2.978c-5.515-.552-10.479-2.317-8.273 2.868 2.096 5.073 11.692 5.073 14.008 4.632 2.427-.441 6.287-1.434 6.287-1.434l3.199-9.044z"/><path fill="#fff" stroke="#263238" stroke-linecap="round" stroke-linejoin="round" stroke-width="2.206" d="M616.917 944.41s1.654-4.081-2.427-4.853c-3.971-.883-13.677 18.31-15.111 23.053-1.544 4.742.441 5.073 2.978 4.081 2.537-1.103 11.361-14.339 12.795-16.876 1.765-2.978 1.765-5.405 1.765-5.405z"/><path fill="#fff" stroke="#263238" stroke-linecap="round" stroke-linejoin="round" stroke-width="2.206" d="M617.358 946.395s2.537-3.198 4.853-1.323c2.317 1.875 3.861 6.397.883 10.258-2.978 3.86-12.243 13.456-15.663 13.677-3.419.22-2.537-4.081.221-7.28 2.868-3.199 9.706-15.332 9.706-15.332z"/><path fill="#fff" stroke="#263238" stroke-linecap="round" stroke-linejoin="round" stroke-width="2.206" d="M625.41 952.57s5.846.221 5.405 3.199c-.883 5.074-10.037 13.236-13.677 15.111-3.64 1.986-4.964.221-3.64-2.757 1.213-2.978 11.471-14.45 11.912-15.553z"/><path fill="#fff" stroke="#263238" stroke-linecap="round" stroke-linejoin="round" stroke-width="2.206" d="M630.817 955.77s4.412 1.433 3.64 5.735c-.882 4.302-6.066 8.162-10.258 9.817-4.302 1.765-1.765-4.633-1.765-4.633s5.957-7.721 8.383-10.919z"/><path fill="#609AFF" stroke="#263238" stroke-linecap="round" stroke-linejoin="round" stroke-width="2.206" d="M447.272 963.052s-6.177-13.015-2.206-19.523c3.971-6.507 27.906-14.118 35.075-12.022 7.28 2.206 13.126 7.28 15.222 12.353 2.206 5.074-5.405 19.523-13.347 24.928-7.941 5.515-27.575 5.846-34.744-5.736z"/><path fill="#609AFF" stroke="#263238" stroke-linecap="round" stroke-linejoin="round" stroke-width="2.206" d="M462.822 957.205s0-11.581 10.479-14.449c10.478-2.868 22.501-2.868 27.465 3.64 5.073 6.507.772 19.523-7.501 22.39-8.383 2.979-23.935-.661-27.575-4.632-3.64-3.971-2.868-6.949-2.868-6.949z"/><path fill="#fff" stroke="#263238" stroke-linecap="round" stroke-linejoin="round" stroke-width="2.206" d="M508.377 948.935s-11.251-2.427-11.802-2.537c-.552-.221-16.986-.441-19.854 9.265-2.978 9.596 12.133 14.78 17.427 14.78 5.295 0 14.56-7.169 14.56-7.169l-.331-14.339zm14.775 1.872s9.596 3.64 15.111 2.978c5.515-.552 10.479-2.317 8.383 2.868-2.206 5.073-11.802 5.073-14.118 4.632-2.427-.441-6.177-1.434-6.177-1.434l-3.199-9.044z"/><path fill="#fff" stroke="#263238" stroke-linecap="round" stroke-linejoin="round" stroke-width="2.206" d="M512.895 944.41s-1.765-4.081 2.316-4.853c4.082-.883 13.678 18.31 15.112 23.053 1.544 4.742-.331 5.073-2.979 4.081-2.536-1.103-11.25-14.339-12.794-16.876-1.655-2.978-1.655-5.405-1.655-5.405z"/><path fill="#fff" stroke="#263238" stroke-linecap="round" stroke-linejoin="round" stroke-width="2.206" d="M512.45 946.395s-2.647-3.198-4.963-1.323c-2.317 1.875-3.861 6.397-.883 10.258 2.978 3.86 12.244 13.456 15.663 13.677 3.419.22 2.537-4.081-.221-7.28-2.757-3.199-9.596-15.332-9.596-15.332z"/><path fill="#fff" stroke="#263238" stroke-linecap="round" stroke-linejoin="round" stroke-width="2.206" d="M504.292 952.57s-5.846.221-5.294 3.199c.772 5.074 10.037 13.236 13.677 15.111 3.64 1.986 4.853.221 3.64-2.757-1.324-2.978-11.582-14.45-12.023-15.553z"/><path fill="#fff" stroke="#263238" stroke-linecap="round" stroke-linejoin="round" stroke-width="2.206" d="M498.996 955.77s-4.522 1.433-3.64 5.735c.772 4.302 5.957 8.162 10.258 9.817 4.192 1.765 1.655-4.633 1.655-4.633s-5.956-7.721-8.273-10.919z"/><path stroke="#263238" stroke-linecap="round" stroke-linejoin="round" stroke-width="2.206" d="M449.031 927.756s21.068-6.729 32.98 1.875m-12.464-7.61s11.471 1.103 16.104 6.288m78.314-80.409v110.742"/><path fill="#C2C2C2" stroke="#263238" stroke-linecap="round" stroke-linejoin="round" stroke-width="2.206" d="M1346.22 980.259h-177.69l-8.94-114.05h195.57l-8.94 114.05z"/><path fill="#263238" stroke="#263238" stroke-linecap="round" stroke-linejoin="round" stroke-width="2.206" d="M1283.57 918.161c-40.92 43.569-88.02 54.599-115.04 57.136v4.963h177.69l7.28-105.336c-17.54 5.074-44.23 15.993-69.93 43.237z"/><path fill="#878787" stroke="#263238" stroke-linecap="round" stroke-linejoin="round" stroke-width="2.206" d="M1346.33 989.306h-177.8v-9.044h177.8v9.044z"/><path fill="#C2C2C2" stroke="#263238" stroke-linecap="round" stroke-linejoin="round" stroke-width="2.206" d="M1007.6 980.259H829.907l-8.934-114.05h195.447l-8.82 114.05z"/><path fill="#263238" stroke="#263238" stroke-linecap="round" stroke-linejoin="round" stroke-width="2.206" d="M944.949 918.161c-40.921 43.569-88.13 54.599-115.043 57.135v4.964H1007.6l7.94-102.028c-17.426 5.074-45.001 12.685-70.591 39.929z"/><path fill="#878787" stroke="#263238" stroke-linecap="round" stroke-linejoin="round" stroke-width="2.206" d="M1007.71 989.304H829.906v-9.044h177.804v9.044z"/><path fill="#263238" stroke="#263238" stroke-linecap="round" stroke-linejoin="round" stroke-width="2.206" d="M648.138 980.258H470.445l-8.824-115.815h195.452l-8.935 115.815zm.111 9.044H470.445v-9.044h177.804v9.044z"/><path fill="#fff" d="M554.825 910.328c25.7-22.942 56.363-37.171 84.6-45.885H461.621l8.824 90.777c17.869-3.088 43.348-8.272 84.38-44.892z" opacity=".4"/><path stroke="#263238" stroke-linecap="round" stroke-linejoin="round" stroke-width="2.206" d="M648.138 980.258H470.445l-8.824-115.815h195.452l-8.935 115.815z"/></g><defs><clipPath id="a"><path fill="#fff" d="M0 0h1800v1010H0z"/></clipPath></defs></svg>