<svg xmlns="http://www.w3.org/2000/svg" width="2400" height="880" fill="none"><g clip-path="url(#a)"><path fill="#F0F8FF" d="M0 0h2400v880H0z"/><path fill="#D3E2FC" d="M2215.14-82H184.857V965.991H2215.14V-82z"/><path fill="#F0F8FF" d="M2215.14-82H184.86V966h2030.28V-82z"/><path fill="#F0F8FF" d="M2139.53 30.973H260.973v830.644H2139.53V30.973z"/><path fill="#E0F1FF" d="M1865.27 733.953H535.217c-151.46 0-274.244-122.784-274.244-274.245 0-151.46 122.784-274.244 274.244-274.244H1865.28c151.46 0 274.24 122.784 274.24 274.244 0 151.464-122.78 274.245-274.25 274.245z"/><path fill="#7CA9F7" d="M1282.18 46.585c45.22 19.298 83.17 54.976 106.7 98.074 28.56 52.342 9.63 121.055 43.64 167.576 27.99 38.291 81.72 41.016 123.44 53.256 47.05 13.802 90.7 38.145 127.76 70.73 31 27.27 56.32 62.309 66.34 102.366 12.19 48.668-.06 102.818-32 141.511-79.56 96.392-237.7 63.438-324.22-4.735-49.46-38.983-91.56-74.49-157.83-79.042-115.85-7.96-182.1 75.961-255.212 150.532-112.321 114.562-339.238 150.583-441.711 4.171-48.201-68.869-52.936-164.117-16.95-239.362 43.111-90.148 150.603-104.748 241.171-99.95 64.445 3.415 137.181 3.406 182.839-42.201 68.523-68.444 33.847-172.895 79.223-250.137 43.28-73.672 154.04-103.062 231.95-81.496a196.484 196.484 0 0 1 24.86 8.707z"/><path stroke="#1B4E61" stroke-dasharray="5.68 14.19" stroke-linecap="round" stroke-linejoin="round" stroke-width="2.829" d="M1280.54 119.653c33.81 15.926 61.63 44.082 78.28 77.471 20.23 40.552 3.92 92.199 28.44 128.482 20.18 29.864 60.91 33.44 92.25 43.906 35.34 11.803 67.8 31.515 95.03 57.299 22.77 21.579 41.02 48.9 47.51 79.599 7.88 37.302-2.93 78.08-28.28 106.563-63.12 70.968-182.29 41.503-246.08-12.698-36.46-30.994-67.43-59.138-117.63-64.456-87.75-9.295-140.42 52.572-198.04 107.149-88.51 83.845-261.841 104.826-335.547-9.233-34.67-53.652-35.59-126.117-6.152-182.247 35.27-67.249 117.307-75.316 185.952-69.129 48.843 4.401 104.08 6.438 140.037-26.914 53.95-50.052 30.56-130.346 67.18-187.73 34.93-54.729 119.87-73.941 178.42-55.375a149.234 149.234 0 0 1 18.63 7.313z"/><path fill="url(#b)" d="M1596.24 700.318H736.717V246.013H1786.19l-189.95 454.305z"/><path fill="#E27E5A" d="M1806.29 767.084c2.23-.042 4.64-.144 6.36-1.574 1.78-1.48 2.3-3.965 2.7-6.248 1.08-6.147 2.82-12.588 2.96-18.755-8.56-4.037-24.76-5.517-30.55 4.102-2.63 4.371-1.18 16.158-.91 21.088.31 5.532 9.81 1.556 19.44 1.387zm-307.63-11.169c-.94.506-2.02 1.163-2.13 2.229-.04.475.12.94.29 1.386a62.62 62.62 0 0 0 9.78 17.148c1.81 2.258 4.11 4.543 6.99 4.636 2.87.093 5.29-2.014 7.37-3.993 5.45-5.144 10.89-10.279 16.33-15.423 2.31-2.184 4.77-4.676 5.02-7.847.56-7.451-12.03-16.674-18.89-15.752-8.2 1.104-17.13 13.639-24.76 17.616z"/><path fill="#fff" d="m1800.38 282.326 8.11 2.753 5.82 12.328-.06 34.178-20.88 92.49-12.01 5.23L1777 413.5s12.32-132.889 23.38-131.174z"/><path fill="#E27E5A" d="M1807.17 283.601c-5.18-12.957-13.5-24.643-24.05-33.769-2.8-2.424-6.06-5.366-5.62-9.047.27-2.189 1.82-3.96 2.96-5.849a17.164 17.164 0 0 0 2.34-10.798c-.11-.909-.28-1.873.11-2.696.42-.874 1.36-1.358 2.25-1.714 6.3-2.493 13.56-1.46 19.76 1.289 6.2 2.75 11.54 7.078 16.8 11.353 5.17 4.195 10.4 8.478 14.61 13.671 1.56 1.938 5.48 6.159 5.49 8.802.01 3.564-2.31 2.941-5.4 3.869-12.67 3.797-21.62 14.741-29.25 24.889z"/><path fill="#F29D7E" d="M1783.41 212.992c-1.12 3.952.09 8.472 3.01 11.352 1.36 1.338 3.17 2.357 5.08 2.317 2.37-.048 4.69-1.686 6.95-.962 2.36.762 3.22 3.669 3.31 6.156.09 2.487-.15 5.202 1.29 7.228.8 1.12 2.02 1.861 3.2 2.566a737.979 737.979 0 0 0 32.68 18.365c1.3.69 2.72 1.395 4.18 1.154 2.77-.458 3.83-3.844 4.2-6.637.89-6.676 1.17-13.431.85-20.158-.14-2.866-.26-6.108 1.73-8.164.72-.744 1.68-1.265 2.27-2.116 1.35-1.947.23-4.683-1.39-6.405-1.63-1.723-3.75-3.024-4.91-5.089-1.95-3.488-.51-7.791-.39-11.785.27-9.038-7.28-17.352-16.19-18.863-8.92-1.508-18.3 3.258-23.21 10.854-3.82 5.907-5.66 9.417-12.58 11.621-4.59 1.465-8.62 3.418-10.08 8.566z"/><path fill="#000" d="M1778.45 242.012c3.27-2.842 4.54-7.366 4.88-11.683.33-4.316-.09-8.688.56-12.967.65-4.283 2.62-8.682 6.41-10.77 3.79-2.09 9.52-.722 10.84 3.403.57 1.779 1.21 4.487 3.01 3.972 3.38-5.148-1-12.99 2.76-17.867.99-1.282 2.41-2.139 3.82-2.948 4.16-2.401 8.42-4.628 12.77-6.667 2.11-.988 4.31-1.95 6.62-2.026 3.91-.13 7.55 2.322 9.87 5.477 2.31 3.154 3.53 6.953 4.73 10.682 3.48-2.428 6.1-6.255 6.56-10.482.45-4.226-1.5-8.752-5.16-10.905-1.27-.744-2.7-1.205-3.88-2.076-3.98-2.933-3.63-9.05-6.45-13.106-3.6-5.186-11.64-5.46-17.04-2.193-2.55 1.542-4.68 3.681-7.19 5.288-6.48 4.146-14.64 4.322-22.01 6.509-9.84 2.922-18.54 9.796-23.24 18.925-4.71 9.129-5.2 20.421-.9 29.743 1.69 3.654 4.14 7.377 3.46 11.349-.57 3.366-3.54 6.967-.24 9.652 2.63 2.139 7.58.639 9.82-1.31z"/><path fill="#002595" d="M1720.69 542.109c-1.35 8.342-5.25 15.981-8.72 23.663-8.7 19.44-14.91 39.913-24.13 59.107-4.29 8.911-9.14 17.378-14.52 25.522-32.31 48.934-82.58 85.107-131.15 119.321-1.64 1.185-3.59 2.386-5.55 1.904-1.39-.339-2.46-1.43-3.42-2.513-8.61-9.62-17.25-19.28-25.87-28.901-1.37-1.491-2.77-3.174-2.88-5.175-.17-2.873 2.35-5.128 4.66-6.859 11.07-8.416 22.51-16.357 33.32-25.123 14.76-11.873 28.32-25.166 41.84-38.397 14.7-14.35 29.56-29.006 39.22-47.145 8.44-15.865 12.43-33.69 16.3-51.24 2.56-11.44 4.38-23.095 6.2-34.713 2.07-13.587 4.1-27.183 7.16-40.435 4.98-21.675 37.63-3.344 48.97 6.115 13.01 10.86 21.3 28.156 18.57 44.869z"/><path fill="#002595" d="M1720.69 542.115c-1.34 8.342-5.25 15.981-8.72 23.664-8.7 19.44-14.91 39.912-24.13 59.105a215.403 215.403 0 0 1-14.52 25.523c-.93-.623-1.63-1.465-2.02-2.549-.85-2.288-.11-4.803.59-7.137 6.02-20.657 6.39-43.273-1.22-63.395-6.07-16.017-16.98-30.555-24.69-45.76 2.07-13.587 4.11-27.182 7.16-40.436 4.98-21.674 37.63-3.343 48.97 6.116 13.03 10.861 21.32 28.156 18.58 44.869z"/><path fill="#002595" d="M1827.38 755.835a463.8 463.8 0 0 1-40.97-3.152c-3.14-.368-6.7-1.077-8.21-3.825-1.08-1.96-.74-4.364-.37-6.537 5.55-33.865 11.13-67.683 16.68-101.508 2.12-12.832 3.76-27.511-4.66-37.392-3.1-3.61-7.18-6.137-11.24-8.617-22.75-13.927-45.62-27.873-69.74-39.29-7.69-3.616-15.66-7.135-23.24-11.177-9.82-5.247-18.93-11.449-25.85-20.113-9.72-12.145-16.13-36.447-13.61-56.569 1.13-9.169 4.11-17.466 9.51-23.327 7.47-8.125 25.81-7.626 35.96-8.555 17.75-1.592 35.73-.786 53.28 2.478 3.07.577 6.43 1.398 8.3 3.955 1.76 2.388 1.67 5.658 1.78 8.631.07 1.958.28 3.865.64 5.726.18 1.193.45 2.365.71 3.536 3.64 15.259 14.32 28.594 24.52 40.905 20.12 24.156 40.2 48.343 60.29 72.493 3.05 3.638 6.11 7.395 7.94 11.773 2.33 5.523 2.48 11.678 2.44 17.65-.32 51.706-12.29 102.563-24.16 152.915z"/><path fill="#0C3CCC" d="M1756.35 460.095c-10.32 7.177-23.92 9.7-36.05 6.221-5.99-1.689-11.52-4.711-17.32-7.036-14.05-5.595-30.31-6.939-44.13-.868-5.17 2.277-9.27 5.392-12.68 9.236 1.13-9.168 4.1-17.465 9.51-23.327 7.47-8.125 25.8-7.626 35.95-8.554 17.76-1.593 35.74-.787 53.28 2.477 3.07.578 6.43 1.398 8.31 3.955 1.75 2.388 1.66 5.658 1.78 8.632.07 1.957.27 3.864.63 5.725.19 1.197.46 2.368.72 3.539z"/><path fill="#002595" d="M1808.52 308.065c-.59 4.546 0 9.152.15 13.732 1.26 38.555-28.37 74.108-23.27 112.343.17 1.312.4 2.676 1.19 3.748.81 1.112 2.09 1.763 3.34 2.325 10.32 4.631 21.79 5.923 33.03 7.157l49.49 5.429c1.49.164 3.19.263 4.28-.764.78-.73 1.03-1.85 1.24-2.897a215.923 215.923 0 0 0 3.57-27.163c.09-1.335.12-2.825-.77-3.824-.67-.744-1.69-1.027-2.66-1.262a97.01 97.01 0 0 0-32.93-2.167c-7.03.744-14.34 2.227-20.99-.152-7.78-2.787-12.8-10.179-17.28-17.127-1.63-2.528-3.31-5.207-3.51-8.211-.23-3.622 1.73-6.971 3.53-10.12 8.06-14.079 14.4-29.884 13.32-46.068-.29-4.316-1.11-8.602-1.07-12.927.05-5.342 2.98-15.22-.35-19.975-5.08-7.259-9.67 2.93-10.31 7.923z"/><path fill="#fff" d="M1786.35 251.174c8.64 9.499 17.44 19.4 21.67 31.531.26.763.52 1.559.47 2.367-.11 1.726-1.52 3.053-2.84 4.168a149.724 149.724 0 0 1-10.51 8.112c-2.17-7.417-4.43-14.812-6.75-22.181-1.21-3.83-2.45-7.663-4.13-11.313-.81-1.756-1.73-3.484-2.19-5.365-.33-1.375-.4-2.801-.71-4.182-.66-2.995-2.47-5.278-3.79-7.952 2.8-1.64 7.14 3.013 8.78 4.815z"/><path fill="#fff" d="M1811.94 277.192c-.69 3.691.25 7.479 1.32 11.078 1.09 3.595 2.34 7.23 2.28 10.984a32.288 32.288 0 0 1-6.1-2.124c-.13-.062-.28-.13-.38-.24-.14-.148-.19-.352-.24-.549-.5-2.249.07-4.629-.39-6.883-.42-1.958-2.03-4.382-1.12-6.385.97-2.133 2.99-4.255 4.63-5.881z"/><path fill="#FDD17A" d="M1798.29 295.112c-.48.48-1.01 1.123-.79 1.773.11.326.38.563.65.781 1.46 1.205 2.92 2.41 4.38 3.618.56.459 1.17.939 1.89 1.004.8.074 1.55-.393 2.23-.84 1.72-1.131 3.43-2.263 5.14-3.391.36-.235.75-.521.81-.943.02-.217-.05-.435-.11-.642-.66-2.022-2.58-9.666-5.05-9.989-1.48-.192-3.53 3.273-4.49 4.159a161.11 161.11 0 0 0-4.66 4.47z"/><path fill="#FDD17A" d="M1803.93 313.971c-1.27 4.765-4.2 8.88-6.63 13.172-5.18 9.177-8.17 19.425-10.62 29.68-2.48 10.431-4.45 21.005-5.29 31.692-.29 3.717-.43 7.528.62 11.101 1.05 3.575 3.52 6.925 7.04 8.153-.28-4.1.19-8.25 1.38-12.182 2.05-6.715 6.11-12.614 8.98-19.03 2.01-4.531 3.42-9.307 4.83-14.064 2.86-9.678 5.72-19.364 8.04-29.183.84-3.522 1.61-7.115 1.4-10.727-.18-3.039-1.06-5.992-1.42-9.016-.68-5.621.18-12.071-3.66-16.235-.2-.226-.44-.45-.74-.511-.34-.069-.68.084-.98.242-.91.465-3.07 1.364-3.37 2.402-.31 1.087.69 3.35.85 4.501.46 3.324.43 6.747-.43 10.005z"/><path fill="#527480" d="m1949.62 369.351 104.28 47.748-55.68 137.568-107.14-45.7 58.54-139.616z"/><path fill="#76A9B7" d="m1949.62 369.351-15.7 1.742-52.75 126.891 9.91 10.983 58.54-139.616z"/><path fill="#000049" d="M1463.32 756.212a64.483 64.483 0 0 0 4.6 26.48c.44 1.083 1.02 2.259 2.12 2.648.77.279 1.62.085 2.44.051 4.04-.169 7.28 3.68 8.18 7.63.91 3.942.15 8.054.04 12.098-.35 11.521 4.45 22.73 11.28 32.01 6.84 9.289 15.61 16.928 24.31 24.491 2.37-2.462 2.71-6.311 1.91-9.627-.8-3.316-2.57-6.303-3.99-9.416-6.5-14.263-5.28-31.799 3.17-45.013 2.8-4.382 6.49-8.925 5.83-14.077-.3-2.377-1.52-4.525-2.76-6.564-4.28-7.038-13.12-24.45-21.78-26.47-2.41-.56-35.43 7.729-35.35 5.759zm301.11 43.296a64.35 64.35 0 0 0 24.71 10.566c1.14.22 2.44.381 3.37-.33.65-.499.96-1.32 1.37-2.03 2.07-3.477 7.06-4.103 10.86-2.707s6.83 4.255 10.17 6.564c9.46 6.565 21.47 8.637 32.99 7.969 11.5-.677 22.69-3.874 33.77-7.055-.77-3.325-3.81-5.71-7.03-6.844-3.22-1.133-6.69-1.277-10.07-1.785-15.51-2.309-29.54-12.892-36.03-27.172-2.15-4.729-3.95-10.295-8.63-12.554-2.15-1.04-4.62-1.185-7.01-1.255-8.22-.249-27.64-2.317-34.06 3.852-1.77 1.709-12.8 33.915-14.41 32.781z"/><path fill="#F29D7E" d="M1886.29 413.277c2.7-3.677 7.51-5.193 12.07-5.397 4.56-.204 9.09.674 13.65.716 1.89.017 3.87-.088 5.56.755 1.69.843 2.87 3.061 1.88 4.662-1.41 2.257-4.94 1.053-7.43 1.989-2.5.942-3.54 4.014-3.35 6.679.2 2.665 1.27 5.193 1.63 7.841.34 2.651-.27 5.746-2.55 7.127-.47.28-1.02.511-1.25.995-.21.4-.14.872-.16 1.318-.07 2.246-2.29 3.964-4.52 4.216-2.23.251-4.43-.609-6.46-1.568-.67-.316-1.41-.656-2.13-.495-.55.122-.99.509-1.44.846-3.35 2.509-8.42 2.368-11.62-.328.49-6.104-.12-12.046-.13-18.122-.01-4.605 3.51-7.499 6.25-11.234z"/><path fill="#7495B6" d="M1909.75 455.159c-.29 0-.58-.059-.85-.184l-15.11-6.88 14.33-34.614 15.04 6.151a2.048 2.048 0 0 1 1.12 2.675 2.05 2.05 0 0 1-2.67 1.124l-11.26-4.603-11.25 27.177 11.5 5.236a2.053 2.053 0 0 1 1.02 2.716 2.072 2.072 0 0 1-1.87 1.202z"/><path fill="#002595" d="M1754.1 240.908c-8.28-3.344-15.18-10.111-23.97-11.601-11.49-1.949-22.19 5.561-31.82 12.13-52.32 35.675-116.52 54.948-160.08 100.905a284.022 284.022 0 0 0 26.43 30.267c.72.724 1.53 1.477 2.53 1.652 1.64.282 3.07-1.013 4.24-2.195 28.5-28.891 66.41-48.358 106.5-54.694-10.24 21.703-20.57 43.667-25.37 67.175-2.35 11.533-3.36 23.351-6.56 34.681-5.14 18.224-15.94 35.308-15.78 54.241 12.53-14.254 28.47-26.741 47.22-29.709 29.2-4.625 58.71 14.535 87.61 8.32 10.39-2.232 21.25-9.712 21.33-20.343.03-3.298-1-6.495-1.78-9.703-9.44-39.329 20.13-79.451 13.61-119.37-1.37-8.33-4.28-16.316-7.17-24.245-3.1-8.529-5.55-24.323-11.4-31.141-5.34-6.215-17.67-3.185-25.54-6.37z"/><path fill="#F29D7E" d="M1520.58 362.722c-2.16 2.387-4.39 4.757-6.03 7.533-3.23 5.479-3.92 12.045-4.53 18.379-.21 2.221-.11 5.016 1.9 5.966.62.288 1.36.368 1.8.877 1.02 1.154-.52 2.939-.19 4.439.5 2.276 4.52 1.971 5.25 4.186.33 1.004-.19 2.195.31 3.126.61 1.126 2.25 1.095 3.46.656 1.2-.439 2.43-1.14 3.67-.829.72.182 1.34.687 2.09.744 1.45.107 2.37-1.496 2.97-2.837 4.65-10.487 12.3-19.621 21.82-26.031 1.02-.69 2.56-1.29 3.34-.326.34.419.37.996.37 1.531 0 2.427-.53 4.851-1.53 7.061-.87 1.898-2.09 3.691-2.36 5.762-.26 2.07.97 4.552 3.05 4.665 1.71.093 3.07-1.387 4.03-2.812 3.38-5.087 5.09-11.084 6.75-16.967.48-1.707.96-3.475.72-5.228-.26-1.802-1.25-3.401-2.23-4.931a544.145 544.145 0 0 0-5.35-8.209c-1.53-2.312-3.15-4.688-5.53-6.119-1.82-1.098-3.94-1.559-6.02-2.003-3.99-.851-12.71-4.56-16.29-2.442-1.76 1.039-3.55 4.651-4.88 6.241-2.15 2.56-4.35 5.086-6.59 7.568z"/><path fill="url(#c)" d="M1766.78 325.226H969.812v26.008h796.968v-26.008z"/><path fill="url(#d)" d="M1672.67 619.312H784.406v28.289h888.264v-28.289z"/><path fill="url(#e)" d="M1766.78 394.862H903.13v62.886h863.65v-62.886z"/><path fill="url(#f)" d="M1766.78 482.736H754.594v112.666H1766.78V482.736z"/><path fill="#3365BF" d="M778.588 814.406c-.736 1.066-2.071 1.405-3.338 1.667a308.633 308.633 0 0 1-29.381 4.805c-3.004.338-6.277.533-8.746-1.134-2.671-1.802-3.607-5.27-4.34-8.408-3.672-15.693-7.347-31.385-9.884-47.348-4.34-27.844-4.942-56.223-7.813-84.337-5.008-50.082-16.96-99.428-35.458-146.238-1.938-4.873-6.011-10.817-11.018-9.08-3.004 1.134-4.34 4.607-5.341 7.68-13.757 43.87-27.579 87.944-36.124 133.15-9.616 50.549-12.555 102.031-19.099 153.05-.265 2.005-.667 4.272-2.271 5.609-1.403 1.066-3.338 1.201-5.075 1.201-9.816.203-19.564.406-29.316.601-1.669.067-3.607 0-4.74-1.202-1.135-1.133-1.203-2.935-1.203-4.475-.201-102.363 22.17-203.529 26.844-305.762.132-1.801.2-3.671.265-5.541.735-17.963-6.209-63.703 14.09-74.454 3.74-2.002 8.08-2.336 12.221-2.604 36.394-2.538 72.719-5.076 109.11-7.613 3.474-.201 7.279-.402 10.283 1.468 3.74 2.405 5.007 7.211 5.876 11.55.265 1.27.534 2.606.735 3.873 6.611 34.523 9.55 69.712 12.418 104.77l21.837 265.228c.07 1.209.203 2.538-.532 3.544z"/><path fill="#E4F3F7" d="M646.852 225.437c6.64 6.401 14.81 13.303 23.888 11.68 11.335-2.029 16.017-15.514 24.642-23.14 3.955 2.235 7.018 6.005 8.396 10.334.764 2.401 1.027 4.944 1.859 7.323 1.225 3.502 3.612 6.456 5.944 9.345 19.309 23.92 38.271 49.564 44.882 79.589 6.583 29.899.232 60.954-6.113 90.903-.996 4.704-2.269 9.85-6.176 12.654-2.65 1.901-6.039 2.351-9.278 2.736a1556.666 1556.666 0 0 1-122.986 9.623c13.888-39.355 20.204-81.367 18.504-123.067-.642-15.728-2.263-31.938 1.216-47.46 1.69-7.525 5.675-13.482 8.27-20.558 2.498-6.797 3.049-13.575 6.952-19.962z"/><path fill="#E8605C" d="M671.187 258.256c.455.335.959.685 1.522.657.88-.04 1.429-.937 1.821-1.723 2.196-4.398 6.47-10.156 3.913-15.227-1.638-3.248-5.488-4.849-8.996-4.538-4.679.419-7.186 3.909-8.718 8.057-2.289 6.186 6.087 9.561 10.458 12.774z"/><path fill="#E8605C" d="M657.672 276.015c-.953 5.392-1.236 10.877-1.516 16.345l-4.744 92.408c-.176 3.42-.34 6.933.733 10.183.876 2.657 2.529 4.976 4.155 7.251l6.475 9.047c.725 1.012 1.582 2.11 2.812 2.297 1.454.22 2.727-.917 3.76-1.966 5.412-5.511 11.047-11.409 12.849-18.919.715-2.988.783-6.085.826-9.158a794.32 794.32 0 0 0-8.755-129.604c-1.432-9.505-7.019-4.083-9.56 1.009-3.301 6.617-5.748 13.826-7.035 21.107z"/><path fill="#E27E5A" d="M645.592 226.617c5.392 3.329 10.786 6.656 16.181 9.985 1.847 1.141 3.742 2.3 5.864 2.759 6.603 1.428 12.472-4.114 16.962-9.163 3.177-3.573 6.351-7.149 9.527-10.722.688-.775 1.387-1.567 1.794-2.52.52-1.219.515-2.591.501-3.921-.074-6.767-.145-13.534-.218-20.3-10.736 2.023-21.517 4.048-32.43 4.459-5.567.208-16.767-1.305-19.61 4.82-.764 1.638.736 24.172 1.429 24.603z"/><path fill="#F29D7E" d="M630.184 192.698c1.492 3.26 6.173 5.058 8.852 2.682a75.225 75.225 0 0 0 10.213 18.255c3.942 5.188 9.142 10.149 15.629 10.766 5.457.521 10.823-2.24 14.67-6.141 3.85-3.901 6.425-8.857 8.846-13.771 1.307-2.65 2.656-5.403 4.953-7.259 2.439-1.969 6.077-.255 7.848-1.573 3.069-2.285 4.042-8.381 1.838-11.519-.812-1.154-8.472-4.277-8.073-2.854-2.897-10.373 3.276-22.478-2.119-31.8-3.411-5.898-10.424-8.6-17.041-10.237-8.037-1.986-17.035-2.908-24.158 1.31-7.367 4.362-10.818 13.012-13.772 21.049-1.092 2.971-2.206 6.057-2.675 9.197-.34 2.269 1.046 7.853.308 9.496-1.202 2.677-3.446.948-4.795 3.078-1.562 2.467-1.714 6.719-.524 9.321z"/><path fill="#10404F" d="M744.87 440.867c-1.335.201-2.738.334-4.141.534-33.386 4.207-68.713 7.412-96.156 26.977-9.816 7.009-32.386 34.322-52.287 45.807.134-1.801.202-3.671.267-5.541.735-17.963-6.209-63.703 14.09-74.454 3.74-2.002 8.08-2.336 12.221-2.604 36.393-2.538 72.719-5.076 109.11-7.613 3.473-.201 7.278-.402 10.282 1.468 3.74 2.405 5.008 7.211 5.875 11.55.272 1.274.539 2.608.739 3.876z"/><path fill="#F29D7E" d="M483.229 299.805c-.31-1.075.052-4.155-.709-4.978-.83-.897-2-1.466-3.197-1.692-19.485-3.684-36.241-2.869-55.896-2.309-.419.012-.859.034-1.221.249-.983.589-.722 2.079-.198 3.095 4.081 7.904 12.73 1.689 18.941 8.056 1.703 1.746 3.042 3.87 4.996 5.327 6.009 4.484 15.836 1.418 20.996 6.855 1.884 1.985 2.699 4.719 3.853 7.202 3.296 7.098 9.887 12.58 17.468 14.524l3.607-11.438c1.604-5.089-1.743-5.388-3.949-8.854-2.628-4.128-3.327-11.322-4.691-16.037zm337.14-134.756c-3.688-2.77-8.672-2.838-13.286-2.789-4.957.05-9.91.101-14.866.149-4.207.043-6.691-2.181-7.35-6.492-3.041-19.904 22.948-27.763 37.5-21.527 7.425 3.182 13.148 9.66 17.709 16.146 5.702 8.114 14.557 13.548 15.702 24.151.722 6.695-1.168 13.239-1.143 19.917 0-.05-16.628-.237-18.099-.274-4.823-.127-6.65-.155-7.853-4.893-1.945-7.672-1.309-19.132-8.314-24.388z"/><path fill="#000" d="M637.354 176.829a75.654 75.654 0 0 1 3.658-20.869c.566-1.745 1.279-3.581 2.784-4.631 2.396-1.674 5.64-.695 8.475.015 9.202 2.302 18.885 1.038 28.238-.558 2.874-.492 6.02-.968 8.546.49 4.254 2.452 4.132 8.509 3.635 13.391-.591 5.774-.911 11.814 1.315 17.175.651-.052 1.301-.102 1.955-.153 5.442-6.753 5.791-16.224 5.024-24.866-.758-8.563-2.863-17.89-9.763-23.019-3.728-2.769-8.384-3.923-12.936-4.845-6.569-1.33-13.774-2.221-19.649.998-3.313 1.814-5.918 4.807-9.387 6.3-3.388 1.457-7.292 1.341-10.676 2.807-3.787 1.634-6.535 5.114-8.16 8.905-1.627 3.79-2.275 7.917-2.906 11.994-.67 4.328-1.344 8.707-.962 13.073.266 3.049 1.695 10.511 4.931 12.016 4.775 2.223 5.779-5.236 5.878-8.223z"/><path fill="#1B4E61" d="M548.656 838.657c-7.451 6.464-15.27 13.121-24.82 15.591-1.239 1.802.081 4.442 2.059 5.372 1.975.922 4.277.635 6.436.33l36.803-5.228c4.298-.609 8.685-1.244 12.547-3.223 5.592-2.868 9.949-8.451 16.167-9.348 2.571-.381 5.567-.017 7.386-1.869.984-.999 1.36-2.437 1.649-3.816a57.573 57.573 0 0 0 1.174-14.009c-.034-.896-33.219.229-36.595.931-9.428 1.963-15.702 9.111-22.806 15.269zm191.707 3.714c2.643 3.561 8.43.871 12.626 2.292 1.335.449 2.475 1.32 3.637 2.115 13.545 9.263 31.265 8.739 47.65 7.859 2.676-.144 5.952-.71 6.806-3.248.657-1.946-.617-4.095-2.334-5.22s-3.796-1.497-5.773-2.056c-10.849-3.045-19.582-12.621-21.619-23.703-.263-1.43-.444-2.927-1.27-4.111-1.771-2.547-5.485-2.496-8.572-2.183-7.881.821-22.509-.601-28.636 5.482-2.6 2.588-6.028 22.773-2.515 22.773z"/><path fill="#3365BF" d="M863.262 253.029c-.402 2.272-.937 4.541-2.136 6.544-1.469 2.336-3.74 4.005-6.012 5.674-7.878 5.61-15.756 11.284-24.639 15.092-15.157 6.611-32.787 7.412-48.547 2.204-5.542 8.815-2.271 20.368 1.336 30.117 15.29 42.201 32.919 83.601 52.817 123.799.736 1.468 1.469 3.072 1.135 4.674-.334 1.669-1.737 2.871-3.14 4.005-.668.535-1.336 1.001-2.003 1.536-19.299 14.956-40.399 27.511-61.366 39.997-5.409 3.205-12.555 6.411-17.562 2.606-2.804-16.227-8.413-31.986-16.428-46.342-1.335-2.273-2.67-4.609-3.004-7.279-.467-3.672 1.202-7.279 2.739-10.617 10.818-23.438 17.36-48.948 17.562-74.654.065-8.014-.535-16.025-1.738-23.972-2.67-17.561-8.614-34.588-17.895-49.748-8.747-14.156-33.12-33.856-31.986-51.82 1.07-17.095 39.796-9.615 51.55-9.615 4.074 0 8.614.201 11.486 3.072 2.537 2.538 3.14 6.676 6.076 8.747 1.468 1.069 3.406 1.404 5.208 1.737 15.96 2.738 32.051 4.609 48.212 5.409a330.757 330.757 0 0 0-3.406-44.473c12.954-.602 25.975.334 38.731 2.739 1.467.265 3.071.599 3.94 1.802.668.8.8 1.869.933 2.939 2.408 18.565 1.808 37.462-1.863 55.827z"/><path fill="#10404F" d="M832.075 446.679c-19.298 14.956-40.398 27.511-61.366 39.997-5.409 3.205-12.555 6.411-17.562 2.606-2.803-16.227-8.413-31.987-16.427-46.343-1.335-2.272-2.67-4.608-3.004-7.279-.467-3.671 1.202-7.278 2.738-10.617 10.818-23.437 17.361-48.947 17.562-74.653.065-8.014-.535-16.026-1.737-23.972 5.408 11.952 13.021 22.902 20.365 33.655 19.299 28.045 38.597 56.159 57.893 84.204.537.798 1.071 1.534 1.538 2.402z"/><path fill="#3365BF" d="M594.461 269.852c-6.244 1.72-13.044 3.237-17.339 8.083-5.875 6.628-4.789 16.611-4.848 25.468a78.634 78.634 0 0 1-3.91 23.946c-1.579 4.81-3.87 9.763-8.186 12.41-7.729 4.742-17.601.066-25.399-4.568-14.641-8.711-29.284-17.417-43.926-26.128-4.345 10.696-8.69 21.393-13.035 32.085 16.936 9.607 33.873 19.215 50.809 28.824 8.529 4.837 17.29 9.76 26.971 11.321 9.68 1.562 20.627-.919 26.659-8.651 3.44-4.413 4.93-9.98 7.081-15.145.89-2.142 2.63-4.612 4.885-4.08 1.635.385 2.461 2.179 2.99 3.774 16.439 49.596-30.164 103.036-16.201 153.387 4.636.772 7.98-4.201 9.952-8.467 29.211-63.296 43.547-133.398 41.537-203.078-.388-13.415-1.242-27.489 4.585-39.576 3.043-6.315 9.443-15.047 5.148-21.952-7.029 5.032-11.946 14.384-19.853 19.836-8.427 5.805-18.087 9.804-27.92 12.511z"/><path fill="#E4F3F7" d="M860.258 192.462v-25.095l-36.251 14.925 1.734 8.659 34.517 1.511z"/><path fill="#527480" d="M535.949 159.307H341.745v126.761h194.204V159.307z"/><path fill="#FAF9DD" d="M528.737 171.371H348.971v102.64h179.766v-102.64z"/><path fill="#0B3A47" d="M535.915 282.262H341.713v10.124h194.202v-10.124z"/><path fill="#FAF9DD" d="m375.931 171.367-26.954 26.954v28.223l55.177-55.177h-28.223zm72.243 0-99.195 99.194v3.446H436.4l92.346-92.343v-10.297h-80.572zm12.551 102.64h37.579l30.439-30.439v-37.575l-68.018 68.014z"/><path fill="#003FAF" d="M1313.48 395.49c18.79-78.996-30.02-158.267-109.01-177.055-79-18.789-158.27 30.018-177.06 109.014-18.79 78.996 30.02 158.267 109.02 177.055 78.99 18.789 158.27-30.018 177.05-109.014z"/><path fill="#FAF9DD" d="M1220.41 480.208c65.61-27.627 96.39-103.206 68.76-168.81-27.63-65.604-103.2-96.39-168.81-68.763-65.6 27.627-96.39 103.205-68.76 168.809 27.63 65.604 103.21 96.391 168.81 68.764z"/><path fill="#7495B6" d="M1170.4 299.452c-.96 0-1.73-.772-1.73-1.726v-47.655c0-.953.77-1.725 1.73-1.725s1.73.772 1.73 1.725v47.655c0 .954-.77 1.726-1.73 1.726zm-31.88 8.542c-.6 0-1.18-.311-1.49-.863l-23.83-41.267a1.726 1.726 0 1 1 2.99-1.726l23.82 41.268c.49.826.2 1.881-.62 2.359-.28.156-.58.229-.87.229zm-23.34 23.337c-.29 0-.59-.076-.86-.229l-41.26-23.827a1.73 1.73 0 0 1-.64-2.357 1.727 1.727 0 0 1 2.36-.631l41.27 23.825a1.72 1.72 0 0 1 .63 2.359c-.32.549-.9.86-1.5.86zm-8.55 31.886h-47.65a1.725 1.725 0 1 1 0-3.451h47.65a1.724 1.724 0 1 1 0 3.451zm-32.72 55.712c-.6 0-1.18-.312-1.5-.863a1.734 1.734 0 0 1 .64-2.36l41.26-23.827c.83-.464 1.89-.193 2.36.634.48.829.2 1.878-.63 2.359l-41.27 23.827c-.27.153-.57.23-.86.23zm40.78 40.777a1.721 1.721 0 0 1-1.49-2.589l23.83-41.273c.47-.823 1.52-1.1 2.35-.633a1.72 1.72 0 0 1 .63 2.359l-23.82 41.273c-.32.554-.9.863-1.5.863zm55.71 14.933c-.96 0-1.73-.773-1.73-1.726v-47.655c0-.953.77-1.726 1.73-1.726s1.72.773 1.72 1.726v47.655c0 .95-.76 1.726-1.72 1.726zm55.71-14.932c-.6 0-1.18-.311-1.5-.862l-23.82-41.274a1.72 1.72 0 0 1 .63-2.359 1.745 1.745 0 0 1 2.36.634l23.82 41.273c.49.826.2 1.884-.63 2.359-.27.153-.57.229-.86.229zm40.78-40.78c-.3 0-.59-.077-.86-.229l-41.27-23.828a1.712 1.712 0 0 1-.63-2.359 1.746 1.746 0 0 1 2.36-.634l41.26 23.828c.83.481 1.11 1.533.64 2.36-.32.551-.91.862-1.5.862zm14.92-55.71h-47.65a1.725 1.725 0 1 1 0-3.451h47.65a1.724 1.724 0 1 1 0 3.451zm-56.19-31.886c-.6 0-1.17-.311-1.49-.863a1.71 1.71 0 0 1 .63-2.359l41.27-23.825a1.74 1.74 0 0 1 2.36.631c.47.826.19 1.881-.64 2.356l-41.26 23.828c-.27.155-.58.232-.87.232zm-23.34-23.336a1.721 1.721 0 0 1-1.49-2.591l23.82-41.267c.49-.832 1.56-1.104 2.36-.631.83.478 1.12 1.533.63 2.356l-23.82 41.268c-.32.557-.9.865-1.5.865z"/><path fill="#537999" d="M1170.39 370.701c-4.19 0-7.98-2.883-8.96-7.14-1.15-4.954 1.95-9.901 6.9-11.041l79.2-18.244c4.97-1.114 9.89 1.958 11.04 6.905 1.14 4.954-1.96 9.902-6.91 11.042l-79.19 18.243c-.7.159-1.4.235-2.08.235z"/><path fill="#244E6B" d="M1170.39 370.701c-1.56 0-3.14-.396-4.59-1.234-4.41-2.545-5.92-8.177-3.38-12.58l31.89-55.222a9.191 9.191 0 0 1 12.58-3.369c4.4 2.544 5.91 8.173 3.37 12.577l-31.88 55.223a9.219 9.219 0 0 1-7.99 4.605z"/></g><defs><linearGradient id="b" x1="736.717" x2="1705.92" y1="473.165" y2="473.165" gradientUnits="userSpaceOnUse"><stop stop-color="#fff" stop-opacity="0"/><stop offset=".293" stop-color="#F9D4D3" stop-opacity=".293"/><stop offset=".953" stop-color="#002595"/><stop offset="1" stop-color="#002595"/></linearGradient><linearGradient id="c" x1="969.813" x2="1705.83" y1="338.229" y2="338.229" gradientUnits="userSpaceOnUse"><stop stop-color="#fff" stop-opacity="0"/><stop offset=".324" stop-color="#F9D4D3" stop-opacity=".336"/><stop offset=".999" stop-color="#002595" stop-opacity=".17"/></linearGradient><linearGradient id="d" x1="784.407" x2="1604.74" y1="633.458" y2="633.458" gradientUnits="userSpaceOnUse"><stop stop-color="#fff" stop-opacity="0"/><stop offset=".335" stop-color="#F9D4D3" stop-opacity=".336"/><stop offset=".999" stop-color="#002595"/></linearGradient><linearGradient id="e" x1="903.131" x2="1700.73" y1="426.306" y2="426.306" gradientUnits="userSpaceOnUse"><stop stop-color="#fff" stop-opacity="0"/><stop offset=".814" stop-color="#5567B3" stop-opacity=".07"/><stop offset="1" stop-color="#fff" stop-opacity="0"/></linearGradient><linearGradient id="f" x1="754.593" x2="1689.37" y1="539.07" y2="539.07" gradientUnits="userSpaceOnUse"><stop stop-color="#fff" stop-opacity="0"/><stop offset=".297" stop-color="#FEF0D3" stop-opacity=".177"/><stop offset=".839" stop-color="#002595" stop-opacity=".13"/><stop offset="1" stop-color="#fff" stop-opacity="0"/></linearGradient><clipPath id="a"><path fill="#fff" d="M0 0h2400v880H0z"/></clipPath></defs></svg>