<svg xmlns="http://www.w3.org/2000/svg" width="154" height="59" fill="none"><path fill="#fff" d="M76.317 24.224a4.21 4.21 0 0 1-1.048 1.533 4.634 4.634 0 0 1-1.635.97 6.982 6.982 0 0 1-4.216 0 4.418 4.418 0 0 1-1.635-.97 4.209 4.209 0 0 1-1.047-1.533 4.956 4.956 0 0 1-.358-2.018v-8.662h1.405v8.534a3.836 3.836 0 0 0 .97 2.734 4.567 4.567 0 0 0 5.648 0 3.71 3.71 0 0 0 .996-2.734v-8.534h1.405v8.662c.026.69-.127 1.38-.383 2.018m12.162 2.58-5.953-6.361v6.362h-1.406V13.544h1.406v6.387l5.774-6.387h1.635l-5.953 6.566 6.234 6.695h-1.737ZM67.731 33.5v4.778h5.724v1.2h-5.723v6.082h-1.405V32.324h7.971v1.2h-6.566V33.5Zm10.349-1.201h1.405v13.235H78.08V32.298ZM95.556 45.84l-6.54-7.487c-.563-.638-1.15-1.303-1.713-1.967l-1.532-1.84V45.61h-1.355V32.324h.971l6.132 7.026 1.533 1.763c.563.664 1.048 1.252 1.533 1.788V32.298h1.355V45.84h-.384Zm14.027-.281-1.533-3.705h-5.621l-1.533 3.705h-1.354l5.493-13.517h.435l5.493 13.517h-1.38Zm-3.602-8.943a10.74 10.74 0 0 1-.358-.971c-.102-.332-.255-.715-.358-1.048-.102.358-.204.716-.357 1.048-.128.358-.256.664-.358.97l-1.533 4.063h4.599l-1.635-4.062Zm19.827 9.224-6.541-7.487c-.588-.638-1.15-1.303-1.712-1.967l-1.533-1.84V45.61h-1.354V32.324h.971l6.132 7.026 1.533 1.763c.562.664 1.048 1.252 1.533 1.788V32.298h1.354V45.84h-.383Zm15.024-11.651a5.75 5.75 0 0 0-1.533-.64 7.327 7.327 0 0 0-1.968-.28c-.741 0-1.456.128-2.172.383a5.78 5.78 0 0 0-1.865 1.124 5.585 5.585 0 0 0-1.277 1.789 5.772 5.772 0 0 0-.486 2.35c-.025.818.153 1.61.46 2.351a5.882 5.882 0 0 0 1.278 1.789 5.651 5.651 0 0 0 1.839 1.124 6.42 6.42 0 0 0 2.198.383 6.833 6.833 0 0 0 3.807-.894l-.333 1.405a4.99 4.99 0 0 1-1.456.537c-.69.127-1.405.178-2.095.178a7.328 7.328 0 0 1-2.581-.46 6.699 6.699 0 0 1-2.248-1.354 6.845 6.845 0 0 1-1.533-2.171 6.796 6.796 0 0 1 1.533-7.921 7.683 7.683 0 0 1 2.197-1.303 7.328 7.328 0 0 1 2.581-.46 8.511 8.511 0 0 1 2.274.256c.587.127 1.124.357 1.661.638l-.281 1.176Zm4.318 11.37V32.324h8.252v1.2h-6.873v4.778h5.136v1.201h-5.136v4.88h6.873v1.201h-8.252v-.025ZM45.4 48.931l13.057-13.03-4.037-4.012V13.493h-5.672L35.666.386l-4.011 4.011H13.156v5.698L.1 23.125l4.037 4.012v18.396h5.698L22.89 58.615l4.011-4.011H45.4V48.93Zm-8.763-4.088 7.384-7.358v14.742l-7.384-7.384Zm-22.1-38.095 7.383 7.435-7.384 7.358V6.748Zm3.73 25.704 3.934-3.935V43.31l-7.384-7.358 3.45-3.5Zm22.152-6.005-4.063 4.037V15.716l7.384 7.359-3.321 3.372Zm-5.443-7.052v5.8l-7.793-7.767-2.555-2.632h10.425l-.077 4.6Zm-8.814-.97 4.036 4.036H15.507l7.384-7.358 3.27 3.321Zm5.416 5.39 3.322 3.322v4.727l-3.322 3.321h-4.676l-3.321-3.321v-4.727l3.347-3.322h4.65ZM23.581 39.35v-5.544l7.844 7.844 2.58 2.58H23.581v-4.88Zm8.84 1.329-4.113-4.114h14.717L35.64 43.95l-3.22-3.27Zm6.976-5.468h-5.8l7.792-7.767 2.632-2.632V35.21h-4.624ZM45.4 24.786l2.734 2.734 7.665 7.665H45.375l.026-10.399Zm-8.074-9.99h14.742l-7.384 7.384-7.358-7.384Zm-2.35-1.354H24.627l2.709-2.708 7.665-7.665-.026 10.373ZM19.16 23.815h5.825L17.32 31.48l-2.76 2.734V23.815h4.6ZM13.156 34.24 10.5 31.557l-7.767-7.742h10.424V34.24Zm8.074 9.99H6.488l7.41-7.358 7.332 7.358Zm2.35 1.38h10.425l-2.631 2.632-7.793 7.767v-10.4Zm21.82-4.344v-4.675h10.425L45.401 46.99v-5.724Zm3.757-14.717-3.424-3.423 7.333-7.41v14.717l-3.91-3.884ZM41.21 13.442h-4.855V3.043l10.45 10.399H41.21Zm-14.922-3.68-3.398 3.399-7.384-7.359H30.25l-3.96 3.96Zm-13.133 8.075v4.599H2.732l10.424-10.4v5.8ZM9.528 32.579l3.347 3.347-7.384 7.384V28.593l4.037 3.986Zm7.946 13.082h4.727V56.06L11.777 45.61l5.697.051Zm14.82 3.526 3.321-3.322 7.41 7.359H28.282l4.012-4.037Z"/></svg>