<svg xmlns="http://www.w3.org/2000/svg" width="1920" height="810" fill="none"><g clip-path="url(#a)"><path fill="#F5F8FF" d="M0 0h1920v810H0z"/><g clip-path="url(#b)"><path fill="#F5F8FF" d="M1675-50.998H245v953.333h1430V-50.998z"/><path fill="#fff" d="M1628.99 724.522c-419.45 88.484-852.944 88.183-1300.357 0l305.732-98.272h688.895l305.73 98.272z"/><path fill="#E8E9EB" d="M1662.37 723.211h-135.5l-106.38-45.047h186.19v-1.907h-190.69l-47.07-19.932h110.01v-1.907h-114.51l-51.46-21.791-.75 1.754 47.32 20.037h-99.76l-36.66-21.732-.97 1.638 33.9 20.094h-100.85l-21.85-21.591-1.34 1.356 20.48 20.235h-101.7l-7.16-21.219-1.81.61 6.95 20.609H946.71l6.952-20.609-1.806-.61-7.157 21.219H842.993l20.482-20.235-1.341-1.356-21.852 21.591H739.44l33.895-20.094-.972-1.638-36.66 21.732h-99.756l47.317-20.037-.743-1.754-51.459 21.791H492.891v1.907h133.667l-47.072 19.932H365.131v1.907h209.852l-106.381 45.047H309.441v1.906h154.66l-129.188 54.705.743 1.754 133.33-56.459h147.459l-92.374 54.764.972 1.638 95.139-56.402h148.545l-55.568 54.905 1.34 1.355 56.939-56.26h149.407l-18.65 55.277 1.806.61 18.855-55.887h149.754l18.86 55.887 1.8-.61-18.65-55.277h149.41l56.94 56.26 1.34-1.355-55.57-54.905h148.55l95.14 56.402.97-1.638-92.37-54.764h147.45l133.33 56.459.75-1.754-129.19-54.705h131v-1.906zm-298.34-66.886 47.07 19.932h-114.49l-33.62-19.932h101.04zm-104.78 0 33.63 19.932H1177.3l-20.18-19.932h102.13zm-104.84 0 20.17 19.932h-116.44l-6.72-19.932h102.99zm-105 0 6.72 19.932H939.343l6.725-19.932h103.342zm-105.356 0-6.724 19.932H820.889l20.175-19.932h102.99zm-105.703 0-20.173 19.932H702.6l33.622-19.932h102.129zm-206.908 0h101.044l-33.622 19.932H584.373l47.07-19.932zm-157.954 66.886 106.381-45.047h115.778l-75.986 45.047H473.489zm149.91 0 75.984-45.047h116.866l-45.593 45.047H623.399zm149.971 0 45.59-45.047h117.727l-15.198 45.047H773.37zm150.132 0 15.197-45.047h118.071l15.2 45.047H923.502zm150.478 0-15.19-45.047h117.72l45.6 45.047h-148.13zm150.84 0-45.59-45.047h116.86l75.99 45.047h-147.26zm150.99 0-75.98-45.047h115.77l106.38 45.047h-146.17z"/><path fill="#BAD4EF" d="M1569.41 519.329c-1.45-38.914-22.37-79.813-60.12-93.921-17.86-6.675-38.13-7.011-54.85-16.012-36.21-19.488-39.13-67.267-41.42-107.099-3.16-55.034-13.96-110.503-40.16-159.525-26.21-49.023-69.07-91.257-122.96-110.046-53.9-18.788-118.87-11.218-161.63 25.496-24.91 21.393-50.19 54.218-82.53 46.165-16.634-4.144-27.971-18.379-39.348-30.764-26.663-29.028-64.632-53.208-104.588-48.306-40.397 4.956-70.922 38.078-89.682 72.83-18.76 34.754-29.933 73.364-52.904 105.695-17.2 24.207-50.352 45.463-76.519 30.415-17.526-10.078-22.857-31.54-28.779-50.33-5.922-18.792-17.562-39.741-37.864-41.859-24.663-2.572-45.33 24.89-69.739 20.634-13.386-2.334-22.864-13.57-34.686-20.045-24.262-13.287-56.599-4.362-76.604 14.363-20.005 18.725-30.097 45.03-37.618 70.882-5.28 18.146-9.557 36.555-12.893 55.122v338.695H1546.79c12.51-33.173 23.93-67.285 22.62-102.39z"/><path fill="#E8E9EB" d="M1398.11 155.117v-1.906h-20.88V82.094h-1.91v71.117h-65.25V82.094h-1.91v71.117h-65.25V82.094h-1.9v71.117h-65.25V82.094h-1.91v71.117h-65.25V82.094h-1.9v71.117h-65.25V82.094h-1.91v71.117h-65.248V82.094h-1.907v71.117h-65.248V82.094h-1.907v71.117h-5.781v1.906h5.781v65.795h-5.781v1.907h5.781v65.793h-5.781v1.907h5.781v65.795h-5.781v1.907h5.781v65.793h-5.781v1.907h5.781v21.978h1.907v-21.978h65.248v21.978h1.907v-21.978h65.248v21.978h1.91v-21.978h65.25v21.978h1.9v-21.978h65.25v21.978h1.91v-21.978h65.25v21.978h1.9v-21.978h65.25v21.978h1.91v-21.978h65.25v21.978h1.91v-21.978h20.88v-1.907h-20.88v-65.793h20.88v-1.907h-20.88v-65.795h20.88v-1.907h-20.88v-65.793h20.88v-1.907h-20.88v-65.795h20.88zm-89.94 0v65.795h-65.25v-65.795h65.25zm-134.32 133.495h-65.25v-65.793h65.25v65.793zm1.91-65.795h65.25v65.794h-65.25v-65.794zm-69.06 65.795h-65.25v-65.793h65.25v65.793zm-67.15 0h-65.255v-65.793h65.255v65.793zm0 1.907v65.795h-65.255v-65.795h65.255zm1.9 0h65.25v65.795h-65.25v-65.795zm67.15 0h65.25v65.795h-65.25v-65.795zm67.16 0h65.25v65.795h-65.25v-65.795zm67.16 0h65.25v65.795h-65.25v-65.795zm0-1.907v-65.793h65.25v65.793h-65.25zm-1.91-133.495v65.795h-65.25v-65.795h65.25zm-67.16 0v65.795h-65.25v-65.795h65.25zm-67.15 0v65.795h-65.25v-65.795h65.25zm-67.15 0v65.795h-65.255v-65.795h65.255zm-132.409 0h65.248v65.795h-65.248v-65.795zm0 67.7h65.248v65.794h-65.248v-65.794zm0 67.702h65.248v65.795h-65.248v-65.795zm0 133.495v-65.793h65.248v65.793h-65.248zm67.154 0v-65.793h65.255v65.793h-65.255zm67.155 0v-65.793h65.25v65.793h-65.25zm67.15 0v-65.793h65.25v65.793h-65.25zm67.16 0v-65.793h65.25v65.793h-65.25zm67.16 0v-65.793h65.25v65.793h-65.25zm132.4 0h-65.25v-65.793h65.25v65.793zm0-67.7h-65.25v-65.795h65.25v65.795zm0-67.702h-65.25v-65.793h65.25v65.793zm0-67.701h-65.25v-65.794h65.25v65.794z"/><path fill="#fff" d="M1101.82 91.629h-13.95v4.349h13.95v-4.35zm6.72 11.598h-20.67v4.349h20.67v-4.349zm12.94 0h-10.19v4.349h10.19v-4.349zm7.33 0h-6.52v4.349h6.52v-4.349zm-31.06 11.591h-9.88v4.349h9.88v-4.349zm28.01 0h-25.37v4.349h25.37v-4.349zm3.05 11.598h-11.61v4.349h11.61v-4.349zm-12.73 0h-28.21v4.349h28.21v-4.349zm-10.39 11.598h-17.82v4.349h17.82v-4.349zm10.39 0h-7.64v4.349h7.64v-4.349zm5.55 0h-4.43v4.349h4.43v-4.349z"/><path fill="#E8E9EB" d="M1204.41 152.01h-44.86v7.363h44.86v-7.363zm.11 13.633h-45.06v1.43h45.06v-1.43zm0 8.492h-45.06v1.43h45.06v-1.43zm84.99-22.196h-44.86v7.364h44.86v-7.364zm.11 13.633h-45.06v1.43h45.06v-1.43zm0 8.494h-45.05v1.43h45.05v-1.43zm86.16-22.197h-46.03v7.364h46.03v-7.364zm.11 13.635h-46.23v1.43h46.23v-1.43zm.01 8.492h-46.24v1.43h46.24v-1.43z"/><path fill="#fff" d="m1081.51 185.309-.5-.307-65.73-40.232-29.438 18.016-.498-.305-79.115-48.424-112.562 68.9-.995-1.627 113.557-69.507 79.613 48.728 29.438-18.018.49.305 65.74 40.235 137.14-83.945.5.305 52.35 32.044 97.18-59.479.99 1.624-98.17 60.091-.49-.305-52.36-32.043-137.14 83.944z"/><path fill="#fff" d="M911.642 113.211a6.551 6.551 0 1 1-13.103.001 6.551 6.551 0 0 1 13.103-.001zm111.928 32.213a6.55 6.55 0 0 1-6.55 6.552 6.55 6.55 0 0 1-6.55-6.552 6.548 6.548 0 0 1 6.55-6.551c3.62 0 6.55 2.932 6.55 6.551zm193.82-37.671c3.62 0 6.55-2.933 6.55-6.551a6.55 6.55 0 0 0-6.55-6.552 6.55 6.55 0 0 0-6.55 6.552 6.549 6.549 0 0 0 6.55 6.551z"/><path fill="#E8E9EB" d="M1062.88 680.486c41.61 0 75.35-5.622 75.35-12.558 0-6.935-33.74-12.557-75.35-12.557-41.61 0-75.341 5.622-75.341 12.557 0 6.936 33.731 12.558 75.341 12.558zm284.45 38.219c47.95 0 86.81-5.866 86.81-13.102 0-7.237-38.86-13.103-86.81-13.103-47.94 0-86.81 5.866-86.81 13.103 0 7.236 38.87 13.102 86.81 13.102z"/><path fill="#D9D9D9" d="M631.013 718.703c31.657 0 120.66 16.394 84.2 25.999-12.383 5.978-51.289 7.852-84.2 7.852-44.326 0-80.259-7.577-80.259-16.925 0-9.349 35.933-16.926 80.259-16.926z"/><path fill="#7C99A5" d="m743.363 542.15-410.09 85.196V145.607l410.09 141.107V542.15z"/><path fill="#6A8993" d="m480.691 596.718 262.669-54.569V286.713l-54.699-18.82-207.97 328.825z"/><path fill="#ECECEC" d="m685.21 466.804-324.437 23.09V225.758l324.437 79.374v161.672z"/><path fill="#CCD5E2" d="m463.461 451.91-39.688 1.165V304.408l39.688 6.464V451.91z"/><path fill="#F9B775" d="M456.329 421.256c0-4.788-5.409-8.8-12.193-8.962-6.908-.166-12.601 3.709-12.601 8.656 0 3.945 3.632 7.297 8.614 8.493v23.385l7.932-.234v-23.142c4.816-1.157 8.248-4.381 8.248-8.196z"/><path fill="#CCD5E2" d="m506.856 450.634-35.02 1.027V312.234l35.02 5.703v132.697z"/><path fill="#F9B775" d="M500.551 360.748c0-4.502-4.782-8.685-10.771-9.354-6.092-.681-11.108 2.524-11.108 7.167 0 3.701 3.199 7.127 7.592 8.635v84.262l7-.208v-83.432c4.253-.715 7.287-3.482 7.287-7.07z"/><path fill="#CCD5E2" d="m545 449.515-31.168.913V319.076L545 324.152v125.363z"/><path fill="#F9B775" d="M539.375 388.644c0-4.252-4.261-8.017-9.594-8.418-5.421-.408-9.879 2.807-9.879 7.183 0 3.489 2.843 6.599 6.75 7.857v54.994l6.231-.185v-54.483c3.788-.833 6.492-3.558 6.492-6.948z"/><path fill="#CCD5E2" d="m579.512 448.498-27.887.82V325.229l27.887 4.543v118.726z"/><path fill="#F9B775" d="M574.47 375.845c0-4.025-3.817-7.667-8.591-8.14-4.847-.48-8.832 2.477-8.832 6.615 0 3.298 2.541 6.29 6.033 7.554v67.307l5.575-.166v-66.716c3.392-.719 5.815-3.247 5.815-6.454z"/><path fill="#CCD5E2" d="m610.558 447.59-25.097.738V330.744l25.097 4.088V447.59z"/><path fill="#F9B775" d="M606.012 410.584c0-3.821-3.439-7.074-7.737-7.268-4.36-.197-7.943 2.82-7.943 6.742 0 3.127 2.284 5.828 5.425 6.845v31.309l5.016-.149v-31.048c3.054-.858 5.239-3.384 5.239-6.431z"/><path fill="#CCD5E2" d="m638.626 446.763-22.704.667V335.701l22.704 3.699v107.363z"/><path fill="#F9B775" d="M634.504 384.613c0-3.636-3.116-6.874-7.005-7.236-3.945-.368-7.183 2.355-7.183 6.082 0 2.973 2.065 5.638 4.904 6.735v57.141l4.54-.136v-56.687c2.765-.688 4.744-3.001 4.744-5.899z"/><path fill="#CCD5E2" d="m664.145 446.013-20.641.607V340.189l20.641 3.364v102.46z"/><path fill="#F9B775" d="M660.389 356.595c0-3.468-2.835-6.704-6.372-7.232-3.585-.536-6.525 1.906-6.525 5.459 0 2.831 1.874 5.47 4.454 6.652v85.068l4.126-.122v-84.426c2.517-.522 4.317-2.635 4.317-5.399z"/><path fill="#CCD5E2" d="m463.461 302.855-39.688-6.897v-9.413l39.688 7.381v8.929zm-53.887 18.652-26.445-3.655v-5.844l26.445 3.846v5.653zm0 27.159-26.445-2.744v-5.844l26.445 2.934v5.654zm0 27.153-26.445-1.831v-5.843l26.445 2.021v5.653zm0 27.165-26.445-.921v-5.842l26.445 1.109v5.654zm0 27.159-26.445-.01v-5.842l26.445.198v5.654zm0 27.153-26.445.904v-5.842l26.445-.715v5.653zm97.278-146.9-35.02-6.086v-8.828l35.02 6.514v8.4zM545 317.031l-31.168-5.419v-8.315L545 309.093v7.938zm34.508 5.995-27.887-4.846v-7.858l27.887 5.186v7.518zm31.047 5.391-25.098-4.36v-7.446l25.098 4.668v7.138zm28.068 4.883-22.705-3.947v-7.072l22.705 4.222v6.797zm25.515 4.435-20.642-3.587v-6.738l20.642 3.838v6.487z"/><path fill="#fff" d="m436.036 509.724-82.769 8.675-.013-9.554 82.772-7.74.01 8.619z"/><path fill="#E8E9EB" d="m436.12 517.179-83.128 9.606.164 1.419 83.128-9.607-.164-1.418zm-.025 9.924-83.122 10.686.182 1.418 83.122-10.685-.182-1.419z"/><path fill="#F9B775" d="m555.44 497.212-57.85 6.065-.008-7.923 57.852-5.409.006 7.267z"/><path fill="#E8E9EB" d="m555.499 503.37-58.101 6.708.164 1.419 58.101-6.709-.164-1.418zm-.008 8.363-58.096 7.474.182 1.418 58.096-7.474-.182-1.418z"/><path fill="#fff" d="m643.487 487.98-43.739 4.586-.006-6.763 43.739-4.09.006 6.267z"/><path fill="#E8E9EB" d="m643.506 493.203-43.928 5.072.164 1.419 43.927-5.072-.163-1.419zm-.003 7.204-43.925 5.652.183 1.418 43.924-5.651-.182-1.419z"/><path fill="#F9B775" d="m444.505 545.336-87.978 13.438v3.838l87.978-13.838v-3.438zm15.653 6.582-103.631 17.091v3.838l103.631-17.564v-3.365zm-.013 8.977-60.75 10.759v3.644l60.75-11.036v-3.367zM389.6 573.393l-33.073 5.857v3.838l33.073-6.008v-3.687zm70.558-3.52-103.631 19.614v3.84l103.631-20.089v-3.365zm0 8.973-103.631 20.876v3.84l103.631-21.351v-3.365z"/><path fill="#E8E9EB" d="M388.841 202.068c0 5.999-7.407 8.866-16.735 6.357-9.543-2.566-17.442-9.76-17.442-16.01 0-6.252 7.899-8.98 17.442-6.159 9.328 2.761 16.735 9.816 16.735 15.812z"/><path fill="#F9B775" d="M523.724 240.171 398.957 204.93v-8.711l124.767 36.602v7.35z"/><path fill="#ACACAC" d="M1438.11 187.01H942.203v305.888h495.907V187.01z"/><path fill="#9D9E9E" d="M1437.63 187.488h-63.32l-115.29 305.889h178.61V187.488z"/><path fill="#fff" d="M1259.44 216H987.547v196.553h271.893V216z"/><path fill="#E8E9EB" d="M1044.41 233.873h-22.88v169.76h22.88v-169.76zm29.29 0h-22.88v169.76h22.88v-169.76zm29.28 0h-22.88v169.76h22.88v-169.76zm29.28 0h-22.88v169.76h22.88v-169.76zm29.29 0h-22.88v169.76h22.88v-169.76zm29.28 0h-22.88v169.76h22.88v-169.76zm29.29 0h-22.89v169.76h22.89v-169.76z"/><path fill="#F9B775" d="M1041.69 403.635h-17.44V301.188c0-4.731 3.87-8.565 8.63-8.565h.18c4.76 0 8.63 3.834 8.63 8.565v102.447zm29.28-.002h-17.43V281.088c0-4.73 3.86-8.565 8.62-8.565h.18c4.76 0 8.63 3.835 8.63 8.565v122.545zm29.28.001h-17.43v-71.77c0-4.731 3.87-8.565 8.63-8.565h.17c4.77 0 8.63 3.834 8.63 8.565v71.77zm29.29-.001h-17.43V268.655c0-4.731 3.86-8.565 8.63-8.565h.17c4.77 0 8.63 3.834 8.63 8.565v134.978zm29.29.002h-17.44V301.188c0-4.731 3.86-8.565 8.63-8.565h.18c4.76 0 8.63 3.834 8.63 8.565v102.447zm29.29-.004h-17.44v-75.51c0-4.73 3.87-8.562 8.63-8.562h.18c4.76 0 8.63 3.834 8.63 8.562v75.51zm29.27.004h-17.43V301.188c0-4.731 3.86-8.565 8.63-8.565h.17c4.77 0 8.63 3.834 8.63 8.565v102.447z"/><path fill="#fff" d="M1341.34 258.221h-63.63v7.363h63.63v-7.363z"/><path fill="#E8E9EB" d="M1341.48 271.855h-63.89v1.43h63.89v-1.43zm0 8.493h-63.89v1.43h63.89v-1.43z"/><path fill="#fff" d="M1341.34 296.166h-63.63v7.364h63.63v-7.364z"/><path fill="#E8E9EB" d="M1341.48 309.799h-63.89v1.43h63.89v-1.43zm0 8.494h-63.89v1.43h63.89v-1.43z"/><path fill="#fff" d="M1341.34 334.107h-63.63v7.364h63.63v-7.364z"/><path fill="#E8E9EB" d="M1341.48 347.742h-63.89v1.43h63.89v-1.43zm0 8.494h-63.89v1.43h63.89v-1.43z"/><path fill="#DE7A51" d="M1315.49 216.438h-36.61v2.246h36.61v-2.246z"/><path fill="#E8E9EB" d="M1333.13 222.426h-54.25v2.246h54.25v-2.246zm-44.89 5.986h-9.36v2.246h9.36v-2.246zm19.24 0h-13.63v2.246h13.63v-2.246zm29.88 0h-24.54v2.246h24.54v-2.246zm-36.3 5.99h-22.18v2.246h22.18v-2.246zm36.29 0h-32.82v2.246h32.82v-2.246zm-23.19 5.987h-35.28v2.246h35.28v-2.246zm23.19 0h-12.24v2.246h12.24v-2.246z"/><path fill="#DE7A51" d="M1238.08 432.643h-36.61v2.246h36.61v-2.246z"/><path fill="#E8E9EB" d="M1255.72 438.633h-54.25v2.246h54.25v-2.246zm-44.9 5.984h-9.35v2.246h9.35v-2.246zm19.24 0h-13.63v2.246h13.63v-2.246zm29.88 0h-24.53v2.246h24.53v-2.246zm-36.29 5.99h-22.18v2.246h22.18v-2.246zm36.29 0h-32.82v2.246h32.82v-2.246zm-23.19 5.991h-35.28v2.246h35.28v-2.246zm23.19 0h-12.24v2.246h12.24v-2.246zm-156-257.707H989.07v13.112h114.87v-13.112zm320.81-1.061h-50.37v13.112h50.37V197.83z"/><path fill="#F9B775" d="M1174.27 437.275h-36.07v5.312h36.07v-5.312zm-17.48 11.737h-18.59v2.162h18.59v-2.162zm14.9 0h-11.87v2.162h11.87v-2.162zm-6.72 5.769v1.442h-1.21v-1.442h-19.19v2.162h28.59v-2.162h-8.19zm-21.92 0h-4.85v2.162h4.85v-2.162zm35.76 0h-4.55v2.162h4.55v-2.162z"/><path fill="#7C99A5" d="m892.783 617.343-199.99 42.229V154.883l199.99 98.878v363.582z"/><path fill="#6A8993" d="m892.783 253.759-56.193-27.784-117.817 428.109 174.01-36.743V253.759z"/><path fill="#ACACAC" d="M750.946 348.104c-15.579-2.202-28.911 10.837-28.911 29.246s13.332 33.599 28.911 33.912c14.7.296 26.022-12.91 26.022-29.479-.002-16.569-11.324-31.601-26.022-33.679zm0 58.594c-13.27-.384-24.535-13.372-24.535-28.993 0-15.622 11.265-26.793 24.535-25.033 12.626 1.674 22.42 14.546 22.42 28.823 0 14.274-9.794 25.565-22.42 25.203z"/><path fill="#F9B775" d="m766.716 362.122 2.368-3.127c-3.793-5.253-10.155-9.396-17.486-10.776v4.559c5.975.982 11.264 4.465 15.118 9.344z"/><path fill="#fff" d="M759.942 380.409c0 5.729-3.99 10.134-8.999 9.83-5.108-.308-9.322-5.374-9.322-11.31 0-5.935 4.214-10.321 9.322-9.806 5.011.507 8.999 5.556 8.999 11.286z"/><path fill="#ACACAC" d="M805.856 355.865c-12.428-1.756-23.001 10.021-23.001 26.394 0 16.372 10.573 29.856 23.001 30.106 11.798.236 20.933-11.659 20.933-26.56 0-14.902-9.135-28.274-20.933-29.94zm0 52.414c-10.592-.305-19.536-11.837-19.536-25.742 0-13.905 8.946-23.993 19.536-22.588 10.13 1.342 18.023 12.79 18.023 25.62 0 12.83-7.893 23.002-18.023 22.71z"/><path fill="#F9B775" d="M805.852 359.948c7.11.942 13.105 6.852 16.045 14.653l2.486-1.865c-3.441-8.929-10.336-15.713-18.529-16.872-3.885-.549-7.594.232-10.866 2.082l1.642 3.834c2.77-1.584 5.918-2.271 9.222-1.832z"/><path fill="#fff" d="M813.067 384.699c0 5.135-3.204 9.105-7.215 8.863-4.082-.246-7.446-4.746-7.446-10.047 0-5.298 3.364-9.256 7.446-8.843 4.011.406 7.215 4.893 7.215 10.027z"/><path fill="#ACACAC" d="M850.29 362.148c-10.146-1.434-18.735 9.303-18.735 24.043 0 14.74 8.589 26.863 18.735 27.067 9.678.195 17.203-10.63 17.203-24.167s-7.525-25.576-17.203-26.943zm0 47.415c-8.649-.25-15.925-10.616-15.925-23.145s7.276-21.723 15.925-20.575c8.307 1.102 14.805 11.406 14.805 23.056-.002 11.647-6.498 20.904-14.805 20.664z"/><path fill="#F9B775" d="M865.09 388.894c0 5.703-1.541 10.792-4.067 14.489l1.895 2.37c2.843-4.3 4.57-10.14 4.57-16.666 0-13.439-7.415-25.391-16.988-26.905v3.693c8.204 1.251 14.59 11.47 14.59 23.019z"/><path fill="#fff" d="M856.208 388.179c0 4.652-2.628 8.265-5.913 8.067-3.339-.202-6.084-4.248-6.084-9.036 0-4.787 2.745-8.389 6.084-8.054 3.285.332 5.913 4.371 5.913 9.023z"/><path fill="#CCD5E2" d="M766.999 207.565c-32.701-13.875-62.491 6.768-62.491 47.827 0 41.056 29.79 79.172 62.491 84.474 28.949 4.695 50.088-18.553 50.088-51.462 0-32.909-21.139-68.557-50.088-80.839zm0 78.621c-5.857-1.573-10.706-8.576-10.706-15.61 0-7.033 4.849-11.194 10.706-9.331 5.724 1.819 10.269 8.734 10.269 15.482 0 6.746-4.545 10.996-10.269 9.459z"/><path fill="#DE7A51" d="M767.002 207.564c-7.354-3.121-14.574-4.469-21.385-4.206l19.626 57.538c.575.067 1.157.156 1.759.349.488.154.952.396 1.421.621l19.337-40.507c-6.196-5.819-13.194-10.586-20.758-13.795z"/><path fill="#F9B775" d="m765.234 260.893-19.625-57.538c-7.032.271-13.587 2.281-19.328 5.869l32.225 54.422c1.626-2.015 4-3.071 6.728-2.753z"/><path fill="#E8E9EB" d="m787.759 221.357-19.337 40.508c5.03 2.421 8.849 8.681 8.849 14.86 0 1.087-.155 2.076-.374 3.016l40.137 11.517c.035-.942.056-1.894.056-2.856.001-24.68-11.652-50.449-29.331-67.045z"/><path fill="#F9B775" d="m777.271 438.467-49.064 1.662v3.655l49.064-1.992v-3.325zm8.897 8.404-57.961 3.003v3.655l57.961-3.394v-3.264zm0 8.711-34.242 2.387v3.495l34.242-2.618v-3.264zm-39.699 2.768-18.262 1.273v3.655l18.262-1.397v-3.531zm39.699 5.939-57.961 5.081v3.655l57.961-5.472v-3.264zm0 8.705-57.961 6.121v3.655l57.961-6.51v-3.266zm71.386-183.833-23.913-7.653v-9.207l23.913 8.155v8.705zm0 16.903-23.913-6.677v-9.209l23.913 7.18v8.706zm0 16.895-23.913-5.701v-9.209l23.913 6.204v8.706z"/><path fill="#ACACAC" d="m1546.07 537.652-135.96-56.7V251.265l135.96-56.699v343.086z"/><path fill="#F9B775" d="m1530.54 462.75-115.73-39.744V290.655l115.73-39.745v211.84z"/><path fill="#fff" d="m1439.29 395.786-8.4-1.506v-51.739l8.4-.576v53.821zm12.85 2.309-9.39-1.685v-54.68l9.39-.642v57.007zm14.48 2.6-10.59-1.899v-57.972l10.59-.724v60.595zm16.43 2.942-12.02-2.156v-61.687l12.02-.823v64.666zm18.79 3.369-13.77-2.469v-65.912l13.77-.941v69.322zm21.71 3.898-15.94-2.858V337.29l15.94-1.091v74.705z"/><path fill="#DE7A51" d="M1432.71 394.608v-24.604l4.65.29v25.147l-4.65-.833zm12.08 2.166v-37.577l5.19.056v38.453l-5.19-.932zm13.53 2.426v-19.932l5.86.556v20.426l-5.86-1.05zm15.29 2.744v-34.43l6.65.284v35.338l-6.65-1.192zm17.41 3.12v-49.506l7.62-.037v50.908l-7.62-1.365zm20.02 3.592v-59.328l8.81-.228v61.137l-8.81-1.581z"/><path fill="#fff" d="m1421.63 315.424-3.45.715v2.763l3.45-.666v-2.812zm1.7 7.209-5.15.875v2.765l5.15-.803v-2.837zm.7-.119v2.849l2.66-.414v-2.885l-2.66.45zm2.88-.488v2.887l1.74-.271v-2.912l-1.74.296zm-6.3 8.536-2.43.321v2.764l2.43-.286v-2.799zm7.22-.958-6.56.867v2.809l6.56-.776v-2.9zm-2.26 7.947v2.868l3.07-.248v-2.911l-3.07.291zm-.3.029-7.09.671v2.765l7.09-.57v-2.866zm-2.67 7.793-4.42.254v2.764l4.42-.19v-2.828zm.7-.042v2.837l1.97-.084v-2.865l-1.97.112zm3.43-.192-1.16.066v2.868l1.16-.05v-2.884z"/><path fill="#DE7A51" d="m1435.19 316.554-4.95.938c-.43.08-.77-.701-.77-1.748v-.038c0-1.045.34-1.964.77-2.052l4.95-1.029c.45-.094.81.705.81 1.784v.04c0 1.078-.36 2.021-.81 2.105zm10.88-2.06-5.47 1.033c-.46.088-.84-.73-.84-1.826v-.04c0-1.097.38-2.065.84-2.162l5.47-1.135c.49-.103.9.734.9 1.867v.042c0 1.132-.41 2.127-.9 2.221zm12.14-2.293-6.07 1.148c-.52.097-.94-.759-.94-1.915v-.042c0-1.155.42-2.177.94-2.284l6.07-1.26c.55-.114.99.763.99 1.958v.044c0 1.194-.44 2.246-.99 2.351zm13.53-2.557-6.78 1.281c-.58.109-1.04-.791-1.04-2.009v-.044c0-1.219.46-2.304 1.04-2.424l6.78-1.407c.61-.128 1.11.793 1.11 2.057v.046c0 1.266-.5 2.384-1.11 2.5zm15.16-2.864-7.61 1.439c-.65.122-1.17-.825-1.17-2.114v-.048c0-1.291.52-2.444 1.17-2.58l7.61-1.578c.69-.143 1.25.827 1.25 2.168v.049c0 1.341-.56 2.534-1.25 2.664zm17.13-3.241-8.62 1.628c-.73.137-1.32-.862-1.32-2.233v-.049c0-1.371.59-2.605 1.32-2.755l8.62-1.787c.78-.162 1.42.864 1.42 2.292v.051c-.01 1.427-.64 2.706-1.42 2.853zm19.12-3.615-9.8 1.854c-.83.156-1.5-.9-1.5-2.361v-.053c0-1.461.67-2.784 1.5-2.956l9.8-2.034c.89-.185 1.62.902 1.62 2.427v.056c0 1.525-.73 2.898-1.62 3.067z"/><path fill="#fff" d="M1427.92 359.748c0 2.214-.71 3.983-1.59 3.955-.87-.029-1.56-1.819-1.56-3.999 0-2.179.7-3.95 1.56-3.954.88-.006 1.59 1.785 1.59 3.998zm0 17.485c0 2.214-.71 3.922-1.59 3.819-.87-.103-1.56-1.952-1.56-4.131 0-2.18.7-3.89 1.56-3.821.88.068 1.59 1.92 1.59 4.133zm0 17.49c0 2.214-.71 3.861-1.59 3.684-.87-.178-1.56-2.086-1.56-4.266 0-2.179.7-3.83 1.56-3.687.88.143 1.59 2.055 1.59 4.269z"/><path fill="#F27E72" d="M647.002 332.196c.541-.281 1.226-.121 1.719.238.494.358.836.883 1.165 1.394.368.568.748 1.277.448 1.885-.282.572-1.092.853-1.132 1.489-.052.834 1.211 1.08 1.569 1.835.256.537-.034 1.193-.467 1.601-.433.408-.993.652-1.47 1.007-.479.353-.9.888-.847 1.481a5.204 5.204 0 0 1-1.319-3.576 5.204 5.204 0 0 1 1.506-3.505c-1.146-.181-2.053-1.325-1.969-2.482.038-.551.307-1.114.797-1.367z"/><path fill="#FFBDA7" d="M1080 422.474c-4.43-5.581-8.48-9.722-13.91-15.287-4.63-4.744-9.19-10.907-13.19-16.188-.59-.778-1.2-1.567-1.98-2.151-.8-.593-1.75-.944-2.59-1.483-1.39-.892-2.52-2.321-4.15-2.608-.78-.14-1.58.009-2.37-.027-.96-.046-1.1-.105-2.05-.164-1.16-.071-3.35-.023-4.55.274-2.03.504-3.52 1.648-4.82 1.756.39 1.135 1.03 1.377 1.59 1.446 1.48.187 3.13-.561 4.61-.826 1.31-.236 2.94.32 4.21.734 2.08.677 3.61 1.337 3.67 3.52-.85.972-1.19.599-1.95.591-.77-.008-1.56.08-2.29-.141-.84-.25-1.21-.812-1.99-1.19-1.36-.658-3.26-1.304-3.57.706.34 1.157 1.7 2.228 3.39 2.73 1.18.353 1.52.736 2.63 1.291 1 .503 1.7 1.468 2.66 2.053 1.38.839 2.28.652 3.73.496.41-.044.83.034 1.19.229l.03.013c.86.456 1.58 1.14 2.04 1.996 4.13 7.766 5.2 16.218 9.14 24.198 4.17 8.424 9.11 16.866 18.49 17.366 1.61.086 3.38-.116 4.52-1.249.62-.612.99-1.436 1.22-2.275 1.42-5.237-.33-11.554-3.71-15.81z"/><path fill="#F27E72" d="M1045.78 389.442c-3.74-5.615-9.32-3.88-14.94-2.012.35.414.75.563 1.12.609 1.49.187 3.14-.561 4.62-.826 1.31-.236 2.94.32 4.21.734 1.87.612 3.29 1.222 3.6 2.942 1.48.305 2.62 1.007 1.39-1.447z"/><path fill="#FFBDA7" d="M1079.99 422.474c-4.43-5.581-8.48-9.722-13.91-15.287-4.63-4.744-9.19-10.907-13.19-16.188-.59-.778-1.2-1.567-1.98-2.151-.8-.593-1.75-.944-2.59-1.483-1.39-.891-2.52-2.321-4.15-2.608-.78-.14-1.58.009-2.37-.027-.96-.046-1.1-.105-2.06-.164-1.15-.071-3.34-.023-4.54.274-2.03.504-3.52 1.648-4.82 1.756.13.378.29.632.47.837 5.61-1.868 11.19-3.603 14.93 2.012 1.23 2.454.09 1.752-1.39 1.447.03.183.07.368.07.578-.85.972-1.19.599-1.96.591-.76-.008-1.55.08-2.28-.141-.84-.25-1.21-.812-1.99-1.19-1.36-.658-3.26-1.304-3.57.706.34 1.157 1.7 2.228 3.38 2.73 1.19.353 1.53.736 2.64 1.291 1 .503 1.7 1.468 2.66 2.053 1.38.839 2.28.652 3.73.496.41-.044.83.034 1.19.229l.03.013c.86.456 1.58 1.14 2.04 1.996 4.13 7.766 5.2 16.218 9.14 24.198 4.17 8.424 9.11 16.866 18.49 17.366 1.61.086 3.38-.116 4.52-1.249.62-.612.99-1.436 1.22-2.275 1.42-5.237-.33-11.554-3.71-15.81z"/><path fill="#F27E72" d="M1051.5 397.072c-1.45-2.898-5.1.797-8.44.236.1.067.18.143.28.202 1.38.839 2.28.652 3.72.496.42-.044.84.034 1.2.229l.03.013c.85.456 1.58 1.14 2.04 1.996 4.13 7.766 5.2 16.219 9.14 24.198 4.17 8.424 9.11 16.866 18.49 17.366 1.61.086 3.37-.116 4.52-1.249.62-.612.99-1.436 1.22-2.275.08-.289.11-.593.17-.89-14.39-9.575-25.62-23.452-32.37-40.322z"/><path fill="#FFBDA7" d="M1041.3 370.451c-.88-1.134.26-3.775-.92-4.591l-5.25-4.66c-4.21-1.745-9.08-1.863-13.37-.326-1.17.419-2.3.963-3.26 1.754-2.14 1.768-3.15 4.616-3.28 7.388-.12 2.773.55 5.513 1.26 8.193.58 2.145.53 2.155 1.7 4.041 3.04 4.873 7.93 7.95 13.66 7.575 2.08-.138 6.64-.34 7.99-1.928.52-.612 2.54-2.046 2.48-2.847-.46-6.335 2.11-10.559-1.01-14.599z"/><path fill="#F27E72" d="M1019.94 384.616c3.02 3.454 7.25 6.25 11.87 5.205 1.99-.45 6.11-.925 7.66-1.659-6.51-1.686-13.02-5.201-19.53-3.546z"/><path fill="#FFBDA7" d="M1038.25 403.368c-3.93-6.58-5.73-13.987-5.18-21.286h-15.11c.89 6.997.01 14.146-2.64 20.848 7.64.144 15.29.291 22.93.438z"/><path fill="#283474" d="M1034.89 376.687c-1.38 4.063-5.32 6.603-8.99 8.824-1.3.788-2.68 1.596-4.2 1.663-2.12.093-4.08-1.337-5.19-3.146-1.11-1.81-1.85-4.317-2.17-6.416-.51-3.285-1.35-5.657-1.51-8.977-.12-2.253 1.27-5.323 3.65-7.308 1.56-1.3 1.69-3.123 3.66-3.655 1.96-.53 3.45-.688 5.48-.635 4.57.12 9.17 1.085 13.69 1.754.89.132 1.82.296 2.5.887 1.47 1.296.8 3.807-.52 5.253-1.33 1.445-3.18 2.408-4.27 4.038-1.5 2.229-1.27 5.175-2.13 7.718z"/><path fill="#FFBDA7" d="M1036.43 373.555c-.59-.28-.89-.919-1.19-1.495-.3-.577-.71-1.189-1.35-1.321-.57-.118-1.16.21-1.51.675-.35.463-.51 1.041-.65 1.607-.21.897-.39 1.812-.35 2.733.03.921.29 1.857.88 2.568.59.713 1.52 1.169 2.43 1.039.91-.13 1.73-.915 1.77-1.836l-.03-3.97z"/><path fill="#F27E72" d="M1034.38 375.899c-.01.166-.19.253-.35.32-.69.301-1.23.917-1.45 1.642a6.165 6.165 0 0 1-.13-2.832c.06-.278.13-.558.29-.791.16-.232.42-.414.7-.419a1.165 1.165 0 0 1-.8-.959c-.05-.439.19-.895.57-1.11.67.145 1.05.854 1.33 1.485.11.261.23.549.16.828-.07.261-.29.448-.47.656-.17.207-.3.514-.15.741.1.155.31.258.3.439z"/><path fill="#FFBDA7" d="M1013.03 465.579c-9-3.953-15.872-14.02-23.935-21.141-2.425 6.568-7.043 11.413-12.771 14.845 10.655 4.355 21.755 6.856 31.746 13.989 3.07-5.076 1.89-2.62 4.96-7.693z"/><path fill="#F27E72" d="M998.129 463.8c-5.381-1.794-14.129-10.333-7.219-17.688a67.321 67.321 0 0 0-1.815-1.674c-2.425 6.568-7.043 11.413-12.771 14.845 10.655 4.355 21.755 6.856 31.746 13.989 1.38-2.292 1.9-3.045 2.34-3.653a70.286 70.286 0 0 1-12.281-5.819z"/><path fill="#296BB0" d="M990.165 444.751c-1.126-.822-3.365-1.931-4.536-2.684 4.433-6.025 10.565-8.664 15.901-13.911 3.14-3.093 5.45-7.863 7.02-11.982 1.57-4.118.49-13.421-3.46-15.389-2.61-1.302-5.843-.726-8.362.748s-4.469 3.731-6.362 5.951c-8.27 9.693-20.981 26.756-26 40.324a5.764 5.764 0 0 0 2.237 6.833c3.699 2.431 7.924 4.908 11.306 6.29 5.726-3.43 9.831-9.613 12.256-16.18z"/><path fill="#283474" d="M1008.79 407.096c-16.903-1.592-23.796 27.511-36.693 37.83a24.855 24.855 0 0 1-5.398 2.248 12.976 12.976 0 0 0 4.87-.482c.318.148.635.303.952.455-1.884.809-3.89 1.31-5.892 1.766 2.763.633 5.687.404 8.359-.541 3.479 1.798 6.847 3.786 10.031 6.017 2.173-2.883 2.965-3.989 4.231-7.417-1.127-.822-5.349-3.195-6.519-3.949 4.433-6.025 13.486-9.613 18.819-14.86 3.14-3.093 5.45-7.863 7.02-11.982.84-2.19.91-5.844.22-9.085z"/><path fill="#111520" d="M1003.76 650.147a23.892 23.892 0 0 0-1.95 12.971c7.96-.415 15.9-1.073 23.82-1.971-.21-2.162-.53-4.544-2.16-5.976-1.15-1.006-2.75-1.338-4.02-2.19a5.794 5.794 0 0 1-2.48-3.997c-3.4.567-9.9 2.121-13.21 1.163z"/><path fill="#fff" d="M1001.51 664.298c6.88.734 24.42-1.745 24.42-1.745l.25-2.057c-1.55.421-24.47 1.972-24.47 1.972l-.2 1.83z"/><path fill="#296BB0" d="M1009.99 474.898c-.55.311-.92.862-1.25 1.403-6.6 10.939-3.25 24.806-1.78 37.497.88 7.596 1.01 15.257 1 22.904-.01 8.298.34 16.682-.62 25.048-.92 7.928-3.12 15.839-3.58 23.689-1.15 19.535-.16 38.753-1.78 58.254 6.51-.356 13.07.196 19.43 1.636.97-28.714 8.11-53.86 12.92-82.753 3.37-20.247 3.31-42.141 4.15-66.907.26-7.468-.85-14.967-.05-22.399a88.755 88.755 0 0 1-25.99 1.374c-.83-.078-1.73-.156-2.45.254z"/><path fill="#283474" d="M1018.36 489.654c-4.33-.078-8.7-.458-12.98-1.131l-.63-.097-.01.631c-.03 1.659-.06 3.346-.03 5.039l-.08.164c.03.015.06.034.09.05.04 1.603.14 3.211.37 4.803.42 2.928 1.23 5.518 2.41 7.693a2.056 2.056 0 0 0 1.81 1.068c.57 0 1.1-.221 1.51-.622a25.817 25.817 0 0 1 6.6-4.785l.27-.138 1.27-12.664-.6-.011zm-12.53.053c3.94.591 7.94.938 11.91 1.035l-.3 2.986c-3.24.477-5.89 1.468-7.89 2.992a13.817 13.817 0 0 0-3.73-3.062c-.02-1.322-.01-2.645.01-3.951zm4.08 9.423c-.14-.036-.29-.078-.45-.12-.2-.058-.41-.115-.62-.162.17-.189.35-.372.54-.548.19.271.36.548.53.83zm.13 7.342c-.46.448-1.28.349-1.57-.188-1.12-2.061-1.89-4.525-2.29-7.324-.19-1.323-.28-2.665-.33-4.011a12.62 12.62 0 0 1 2.85 2.48c-.52.475-.98.992-1.39 1.55l-.75 1.015 1.25-.138c.4-.046.86.084 1.36.221.49.132.98.269 1.49.269.1 0 .19-.004.29-.015l.78-.086-.35-.701c-.33-.683-.72-1.335-1.16-1.949 1.8-1.361 4.2-2.261 7.11-2.723l-.68 6.754a26.96 26.96 0 0 0-6.61 4.846zm28.39-33.202a88.882 88.882 0 0 1-12.89 1.641c-2.65 21.984-3.32 43.211-.3 65.355 3.3 23.135-3.31 45.171-6.61 69.408-1.1 4.407-2.2 8.815-2.2 13.221-.81 7.234-1.31 14.321-1.32 21.315 2.12.28 4.22.646 6.3 1.117.97-28.714 8.11-53.859 12.92-82.753 3.37-20.247 3.3-42.141 4.15-66.907.25-7.468-.85-14.967-.05-22.397z"/><path fill="#296BB0" d="M999.038 643.366c-.09-.41-.145-.86.057-1.228.259-.473.847-.643 1.375-.753 7.1-1.488 14.72-.332 21.08 3.165.59.328.88 1.018.75 1.685a40.426 40.426 0 0 0-.74 5.692 1.08 1.08 0 0 1-1.28 1.008c-5.99-1.125-12.17-2.103-18.06-.875a1.163 1.163 0 0 1-1.33-1.529c.26-.757.58-1.516.43-2.28-.12-.653-.57-1.19-.94-1.741a9.13 9.13 0 0 1-1.342-3.144z"/><path fill="#283474" d="M1013.81 646.854c-4.03-.347-8.26-.665-11.96.952l-.06-1.949c3.98-.904 8.24-.549 12.02.997z"/><path fill="#111520" d="M1073.96 657.262c2.12.444 4.32.774 6.2 1.851 1.88 1.075 3.4 3.127 3.11 5.276l-32.03.616c-1.17-2.056-.98-4.605-.52-6.927.46-2.323 1.16-4.658.9-7.011l10.86-.305c.4 2.673 3.27 4.151 5.84 4.993a53 53 0 0 0 5.64 1.507z"/><path fill="#fff" d="m1050.12 663.551.17 2.763 33.23-1.011.11-1.575-33.51-.177z"/><path fill="#296BB0" d="M1023.77 474.16c-1.7 9.778-3.61 13.259-2.94 22.999.97 14.046 9.01 21.861 10.65 29.885 4.3 21.036 8.22 33.578 9.55 49.579 2.03 24.458.66 47.188 6.67 71.42 5.93-.227 11.87-.13 17.78.293 1.27-26.97.92-51.348-.21-78.324-.42-9.962-.66-16.407-1.1-29.746-.74-22.401-7.28-46.421-9.97-68.344-8.65 1.867-21.64 3.344-30.43 2.238z"/><path fill="#283474" d="m1049.57 501.464-2.13-11.818-20.29 1.688.04.541c.21 2.891.42 5.879 1.18 8.752.87 3.293 2.33 5.918 4.35 7.798 1.56 1.453 3.44 2.45 5.26 3.415.8.427 1.6.81 2.47.81.13 0 .27-.009.4-.028 1.1-.158 1.93-.975 2.54-1.569l4.54-4.456c.61-.591 1.36-1.329 1.67-2.305.3-.969.12-2.001-.03-2.828zm-3.03-10.635.6 3.338a21.983 21.983 0 0 0-8.65 6.256c-2.91-2.118-6.29-3.575-9.82-4.284a82.09 82.09 0 0 1-.34-3.795l18.21-1.515zm-7.86 11.121c.48.38.94.774 1.38 1.19l-2.57.572c.37-.608.76-1.196 1.19-1.762zm9.87 2.01c-.23.717-.85 1.319-1.39 1.853l-4.54 4.456c-.65.633-1.24 1.165-1.93 1.264-.08.012-.16.019-.24.019-.62 0-1.25-.311-1.96-.682-1.75-.933-3.57-1.896-5.02-3.247-1.86-1.737-3.22-4.186-4.04-7.276-.26-.997-.44-2.018-.59-3.043 3.22.703 6.3 2.047 8.96 3.981-.7.94-1.34 1.935-1.88 2.98l-.55 1.05 6.89-1.538-.69-.708c-.7-.703-1.43-1.365-2.2-1.979 2.14-2.539 4.9-4.54 7.97-5.809l1.15 6.377c.13.746.28 1.591.06 2.302z"/><path fill="#283474" d="M1065.45 570.148c-.42-9.962-.11-16.544-.55-29.885-.74-22.401-7.42-46.383-10.1-68.308-.87.187-6.77.742-7.71.919 15.05 57.658 16.26 116.417 14.34 175.229 1.35.062 3.04.31 4.39.408 1.26-26.97.76-51.387-.37-78.363z"/><path fill="#296BB0" d="M1046.91 654.008c.77-3.011-.69-3.84-.8-5.787a1.54 1.54 0 0 1 1.11-1.554 58.701 58.701 0 0 1 18.81-2.156c.89.042 1.51.848 1.41 1.725-.23 2.13-.26 4.285-.06 6.418.08.923-.7 1.69-1.63 1.63-5.71-.368-11.51-.566-17 .849-.81.21-2.04-.313-1.84-1.125z"/><path fill="#283474" d="M1066.57 647.053c-2.18-1.308-4.93-1.243-7.41-.677-2.48.566-4.84 1.586-7.34 2.082l14.75-1.405zm-3.99 5.469c-4.73.463-9.48.748-14.23.847a39.526 39.526 0 0 1 14.23-.847zm-44.49-1.184c-4.84-.53-9.72-.77-14.59-.722 4.84-.832 9.86-.582 14.59.722z"/><path fill="#DE7A51" d="M1006.69 402.54c.16-1.918.13-3.854-.08-5.766 8.95-3.405 19.29-3.028 27.97 1.024 3.11 1.451 6.15 3.495 7.68 6.57a148.5 148.5 0 0 0-35.63.38l.06-2.208z"/><path fill="#92CBF9" d="M1007.56 397.585c.06.544.11 1.087.17 1.631.67-.02 1.35-.039 2.03-.056l-.19-2.48c-.69.27-1.36.566-2.01.905zm2.62 1.554 1.37-.038v-3.072c-.46.136-.92.269-1.37.433v2.677zm2.45-3.368v3.312l1.61-.044v-3.598c-.54.094-1.08.199-1.61.33zm5.54-.639c-.32-.008-.64 0-.96.013v3.81l.96-.027v-3.796zm-2.71 3.865 1.02-.029v-3.784c-.34.026-.68.053-1.02.091v3.722z"/><path fill="#DE7A51" d="M1003.98 485.126a18.007 18.007 0 0 0-.89 6.393c9.27 1.493 18.57 2.988 27.96 3.263 9.38.274 18.91-.708 27.69-4.035l-.87-8.696c-17.45 4.704-35.84 3.924-53.89 3.075z"/><path fill="#92CBF9" d="M1006.52 488.724c-1.02-.055-2.19-.196-2.76-1.044-.05 1.104-.09 2.208-.13 3.312l3.09.524.06-2.782-.26-.01zm1.17.046.04 2.909c.75.126 1.51.246 2.26.366l.03-3.186c-.77-.032-1.55-.049-2.33-.089zm3.66.14-.14 3.331c1.31.206 2.63.395 3.94.576l.19-3.789c-1.33-.036-2.66-.066-3.99-.118zm8.59.19.1 4.301c.93.097 1.87.179 2.8.256l-.07-4.533c-.94-.007-1.89-.011-2.83-.024zm8.8-.023-.04 4.851c.8.015 1.6.015 2.4.008l-.19-4.889c-.72.009-1.45.023-2.17.03zm3.55-.054.16 4.884c.49-.013.99-.036 1.49-.059l-.19-4.862c-.48.01-.97.027-1.46.037zm3.9-.105c-.54.021-1.08.03-1.62.04l.25 4.826c.51-.031 1.01-.054 1.52-.099-.25-1.575-.3-3.181-.15-4.767zm-11.62.201.06 4.652c.92.059 1.85.103 2.77.133l.03-4.806c-.95.007-1.91.023-2.86.021zm-7.63-.066-.16 3.967c.75.098 1.51.187 2.26.271v-4.206c-.7-.009-1.4-.015-2.1-.032z"/><path fill="#296BB0" d="M1049.84 403.11c-9.16-1.621-18.39-3.047-27.69-3.491-4.78-.229-9.58-.2-14.36.194-3.71.305-7.845.063-10.282 3.299-5.973 7.931-4.57 20.127-2.755 30.665.919 5.335 2.998 10.536 4.775 15.608 1.672 4.774 3.392 9.226 4.832 14.086 1.92 6.479 1.18 12.889-.55 19.305-.27 1.014-.57 2.141-.21 3.114.51 1.371 1.99 1.632 3.22 1.695 14.04.711 34.11 2.15 50.09-2.67 2.61-.787 1.32-3.399 1.82-5.844.64-3.128-.19-5.946-.58-9.028-3.53-28.005.32-57.017-8.31-66.933z"/><path fill="#fff" d="M1058.56 470.036c-3.54-28.004.32-57.015-8.31-66.932-1.04-.183-2.07-.362-3.11-.54 2.22 4.887 3.02 10.302 3.02 14.941 0 23.153 5.01 45.301 3.54 68.364a62.62 62.62 0 0 0 3.62-.961c2.61-.788 1.32-3.4 1.82-5.844.63-3.129-.19-5.947-.58-9.028z"/><path fill="#283474" d="M1005.56 402.98c-3.42.843-6.885 2.377-8.881 5.283-2.151 3.133-2.187 7.217-1.972 11.013.282 4.99.854 9.961 1.705 14.886.852 4.942 2.059 10.046 5.218 13.952 1.21 1.499 2.68 2.784 3.79 4.363 1.31 1.867 2.08 4.345.83 6.431-.4.666-.58 1.463-.45 2.227.34 2.048 2.46 1.013 3.25 2.069.36.473.25 1.132.12 1.71-1.02 4.612-2.03 9.226-3.05 13.839-.35 1.599-.7 3.321-.07 4.833 1.15 2.769 4.74 3.352 7.73 3.531 11.77.708 23.91 1.358 35.13-1.929.8-.235.67-1.411-.17-1.434l-20.95-.605c-.54-.015-2.27-1.645 4.45-1.576l14.84-.448c1.23.028 1.98-.843 1.17-1.766l-.22-.246c-.66-.318-.79-1.235-.21-1.689.19-.149.3-.273.24-.444-.16-.437-.56-.736-.93-1.011-1.41-1.026-3.89-1.281-5.68-2.038-1.82-.774-1.48-3.472.46-3.892 2.98-.644 5.79-2.164 7.93-4.345 2.04-2.843-14.34-.99-21.51-1.485-.48-.033-1-.098-1.5-.218-1.15-.276-1.03-2.116.15-2.061 9.61.441 13.26-.036 19.22-2.74 1.05-.476 2.2-.814 2.83-1.784 1.3-2.004-.12-3.774-1.68-4.767-1.17-.742-2.51-1.247-3.5-2.208-2.46-2.381-2.42-6.519-1.31-9.758 3.64-10.645-.82-14.64-1.32-21.662-.35-5.022.98-9.848-2.82-13.15-3.59-3.121-8.74-3.52-13.49-3.768-6.47-.333-13.05-.661-19.35.887z"/><path fill="#296BB0" d="M1081.34 440.315c2.51-6.208.31-13.344-5.09-17.31-4.65-3.419-7.87-5.617-12.44-8.756-3.43-2.362-5.03-2.421-7.3-5.922-1.39-2.147-5.14-6.484-7.67-6.122-.88.126-1.64.671-2.3 1.274-3.85 3.535-4.96 9.382-3.76 14.467 1.21 5.085 4.13 12.868 8.5 15.721 12.03 7.84 16.83 13.369 24.1 12.807.06-.061 3.53-2.418 3.58-2.479 1.22-1.216 1.52-1.544 2.38-3.68z"/><path fill="#283474" d="M1075.11 442.846c2.2-2.204 3.3-3.304 3.3-6.61-15.42 2.204-17.62-16.525-27.54-22.035-2.75-.916-5.5-1.842-8.25-3.39-.45 2.347-.39 4.825.16 7.148 1.2 5.085 4.12 12.868 8.5 15.72 12.02 7.84 16.83 13.37 24.1 12.807.05-.061 3.53-2.417 3.58-2.478 1.22-1.217 1.52-1.545 2.38-3.682.22-.544.39-1.093.54-1.648-1.67 1.817-3.93 4.168-6.77 4.168z"/><path fill="#FFBDA7" d="M1290.69 357.447c-.89 10.02-2.81 21.269-7.06 30.793 9.66-.454 19.61 1.308 28.5 5.09-3.29-10.86-6.21-22.256-5.34-33.707-4.36-1.596-12.7-2.483-16.1-2.176z"/><path fill="#F27E72" d="M1306.79 359.621c-3.76-1.378-10.5-2.225-14.45-2.232 2.22 11.646 9.19 22.424 13.48 33.662a63.06 63.06 0 0 1 6.31 2.278c-3.29-10.86-6.21-22.256-5.34-33.708z"/><path fill="#283474" d="M1306.79 359.616c-3.33-1.22-8.99-2.023-12.99-2.196 2.41 7.165 7.29 12.163 13.48 15.398-.59-4.374-.83-8.784-.49-13.202z"/><path fill="#FFBDA7" d="M1321.94 347.015c-1.65-1.727-4.36-3.577-5.52-5.569-.85-1.949-.14-5.12-.43-7.184-.59-4.361-4.85-7.486-9.19-8.235-6.56-1.137-14.73.154-18 6.717-4.07 8.141-2.72 20.512 4.64 26.434 5.05 4.061 14 5.838 20.47 6.212 2.29.129 3.43-7.221 3.76-8.662.4-1.722.93-3.783 1.21-5.85 1.05-.328 2.08-.701 3.06-1.273.38-.225.59-1.272.6-1.718.01-.435-.3-.557-.6-.872z"/><path fill="#F27E72" d="M1306.81 326.027c-6.57-1.137-14.74.154-18.01 6.717-3.83 7.678-2.85 19.11 3.45 25.353 1.12-1.358 2.32-2.662 3.56-3.949-2.1-3.649-2.42-8.008-.24-12.37 3.27-1.638 6.55.945 9.83 2.915 3.76-3.749 7.34-7.697 10.04-12.361-1.4-3.335-4.97-5.672-8.63-6.305z"/><path fill="#FFBDA7" d="M1321.95 347.019c-1.65-1.727-4.36-3.577-5.52-5.569-.85-1.949-.14-5.12-.43-7.185-.09-.678-.3-1.315-.56-1.931-5.92 10.243-16.05 17.088-23.18 25.767.38.377.77.741 1.19 1.079 5.05 4.061 13.99 5.838 20.47 6.212 2.29.129 3.43-7.221 3.76-8.662.4-1.722.93-3.783 1.21-5.85 1.05-.328 2.08-.702 3.05-1.274.39-.224.6-1.271.61-1.717.01-.433-.3-.555-.6-.87z"/><path fill="#F27E72" d="M1302.4 345.066c.19.319.33.717.18 1.055-.18.393-.7.599-.76 1.026-.09.68 1.01.955 1.13 1.632.07.36-.19.711-.49.909-.31.199-.67.292-1.01.452-.7.338-1.24.984-1.46 1.733-.48-.535-.97-1.09-1.22-1.769-.25-.677-.2-1.518.32-2.023.41-.404 1.09-.591 1.25-1.142-.64.328-1.5.032-1.86-.587-.36-.62-.22-1.467.27-1.989s1.28-.719 1.98-.559c.7.16 1.3.649 1.67 1.262z"/><path fill="#283474" d="M1276.04 329.204c1.29-1.612.78-4.233-.85-5.509-1.62-1.275-4.02-1.277-5.85-.32-1.83.957-3.13 2.732-3.9 4.652-1.75 4.408-.9 9.389-1.6 14.081-.46 3.075-1.59 6.01-2.27 9.043-.69 3.034-.9 6.332.41 9.15 1.53 3.28 5.03 5.425 8.64 5.715 3.61.289 7.23-1.133 10-3.469 2.76-2.337 4.71-5.529 5.98-8.915-7.23-6.092-10.16-16.811-7.03-25.735l-3.53 1.307z"/><path fill="#283474" d="M1313.3 323.5c-6.63-.671-13.28-1.342-19.94-1.256-4.03.051-8.21.427-11.68 2.469-5.13 3.018-7.74 9.432-7.02 15.341.72 5.909 3.7 12.563 8.68 15.82 4.97 3.249 4.85 4.343 6.97 4.848.53-4.719 4.33-3.863 8.78-7.802-.61-1.016-.99-2.175-1.32-3.319-.43-1.448-.81-2.969-.52-4.449.29-1.479 1.47-2.89 2.98-2.951 1.1-.044 3.19 1.586 4.48 2.703.49-1.05.98-2.196 1.46-3.477 1.11-2.946 4.2-4.618 6.02-7.179 2.19-3.068 2.63-7.3 1.11-10.748z"/><path fill="#F9B775" d="M1274.18 339.851c-.17-3.594.7-7.232 2.48-10.359-1.98.709-3.55 2.464-4.04 4.509-.49 2.048.12 4.323 1.56 5.85z"/><path fill="#283474" d="M1352.53 699.208c-.97-.696-1.98-1.085-3.06-1.59-1.75-.816-4.17-1.93-5.75-2.667-.14.43-.76 1.237-1.09 1.573-9.85 3.146-20.06 5.678-28.8-4.243-.1.425-.78 1.642-.89 2.052-.59 2.143-.68 5.053 1.11 6.366.71.519 4.67 1.848 5.55 1.958 5.29.666 7.54.126 12.84.792 5.37.675 7.1 1.279 12.51 1.397 2.2.048 8.69-.427 9.06-2.593.2-1.172-.52-2.349-1.48-3.045z"/><path fill="#F27E72" d="M1331.99 688.609c-4.83-3.662-3.78-8.265-3.78-8.265.08-1.918-.06-3.798-.17-5.726 5.33-56.254 9.54-111.749 14.93-168.046h-51.1c.02 12.42 2.99 24.756 5.65 36.927 4.27 19.507 6.65 29.78 9.54 49.67.67 4.569-1.29 30.11-.71 34.692 2.71 21.372 8.37 31.382 9.01 52.824-.22 4.378-.78 8.775-1.66 12.529 8.74 9.92 21.37 7.77 29.88 3.516.33-.336.54-.738.68-1.171-4.67-2.198-8.65-4.208-12.27-6.95z"/><path fill="#111520" d="M1331.29 594.784c.22-1.392 1.14-2.623 2.49-3.039.58-.179 1.13-.539 1.69-.98 2.4-27.994 4.8-55.991 7.5-84.189h-51.1c.02 12.42 2.99 24.756 5.65 36.927 4.27 19.507 6.65 29.78 9.54 49.67.67 4.569-1.29 30.11-.71 34.692 2.71 21.372 8.37 31.382 9.01 52.824-.22 4.378-.78 8.775-1.66 12.529 2.32 2.637 4.92 4.401 7.65 5.52-3.52-34.654 4.56-69.304 9.94-103.954z"/><path fill="#283474" d="M1342.54 709.183c-.96-.696-1.97-1.085-3.05-1.59-1.75-.816-4.18-1.93-5.75-2.668-.15.431-.76 1.238-1.09 1.573-9.86 3.146-20.06 5.678-28.81-4.242-.1.427-.77 1.643-.89 2.053-.59 2.143-.67 5.053 1.12 6.367.71.518 4.67 1.847 5.54 1.958 5.3.665 7.55.126 12.84.791 5.38.675 7.11 1.279 12.52 1.398 2.2.049 8.68-.427 9.05-2.593.21-1.175-.51-2.351-1.48-3.047z"/><path fill="#FFBDA7" d="M1322.02 698.586c-4.83-3.663-3.78-8.264-3.78-8.264.08-1.918-.06-3.798-.17-5.725 5.33-56.255 9.53-111.75 14.93-168.046h-51.11c.02 12.42 2.99 24.756 5.66 36.926 4.27 19.507 6.64 29.78 9.54 49.671.66 4.568-1.3 30.11-.71 34.692 2.71 21.371 8.37 31.381 9.01 52.824-.23 4.377-.79 8.774-1.67 12.528 8.75 9.919 21.38 7.77 29.89 3.514.33-.335.53-.737.68-1.17-4.67-2.197-8.65-4.208-12.27-6.95z"/><path fill="#F27E72" d="M1334.29 705.536c-4.67-2.197-8.65-4.206-12.27-6.948-4.83-3.663-3.78-8.266-3.78-8.266.08-1.918-.06-3.798-.17-5.725 5.33-56.255 9.53-111.75 14.93-168.046h-51.11c.02 12.42 2.99 24.756 5.66 36.926 4.01 18.331 6.35 28.511 9.02 46.176 7.44-4.784 16.52-8.925 18.06-4.286 11.67 38.352-10.19 79.622 5.82 114.882 4.73-.172 9.36-1.644 13.16-3.543.33-.337.53-.739.68-1.17z"/><path fill="#111520" d="M1326.31 591.334c2.13-24.861 4.29-49.743 6.69-74.783h-51.11c.02 12.42 2.99 24.756 5.66 36.926 3.71 16.947 5.99 26.93 8.42 42.298 8.91-4.428 19.38-5.961 30.34-4.441z"/><path fill="#DE7A51" d="M1343.88 588.887c.44-16.937 2.13-63.084 1.94-84.115-.09-8.91-2.12-16.239-4.28-23.524-2.07-6.96-3.12-9.423-5.28-16.436-16.36 2.704-32.91 2.252-48.34-2.658-.56 25.746-3.35 21.9-5.7 32.65-1.02 4.685-2.22 5.69-2.85 14.203-1.33 18.126 11.72 48.833 10.25 80.16l54.26-.28z"/><path fill="#283474" d="M1340.48 476.14c-1.38-3.731-1.25-8.174-1.83-12.107a139.67 139.67 0 0 1-50.97-5.713c.27 5.644.26 11.904-1.26 17.345 5.19 4.342 12.83 4.367 19.48 5.585 19.49 3.563 23.42.702 34.58-5.11z"/><path fill="#F9B775" d="M1336.29 464.807c-3.39-11.022-5.8-22.115-3.79-33.287 1.29-7.203 4.42-14.376 3.13-21.579-.86-4.809-3.64-9.28-6.14-13.734a23.553 23.553 0 0 0-20.54-12.023h-19.97l-3.51.375c-2.94.313-6.01.669-8.44 2.174-5.29 3.266-5.27 10.231-3.76 15.81 2.89 10.736 9.08 20.569 12.27 31.239 2.77 9.276-3.14 23.701 2.4 28.369 15.43 4.908 31.98 5.36 48.35 2.656z"/><path fill="#F27E72" d="M1336.26 464.807c-3.38-11.022-5.79-22.115-3.78-33.287 1.29-7.203 4.42-14.376 3.12-21.579-.86-4.809-3.64-9.28-6.14-13.734a23.553 23.553 0 0 0-20.54-12.023h-19.96l-3.51.375c-1.04.111-2.08.246-3.11.414.47 6.957 2.56 14.767 7.51 19.719 7.63 7.626 24.79 11.44 22.88 20.973-2.78 15.774-.81 29.397 4.46 40.772 6.33-.023 12.72-.579 19.07-1.63z"/><path fill="#fff" d="M1296.35 378.569c6.96 8.328 19.15 13.366 23.85 22.752 2.83 5.646 2.47 12.066 1.18 18.098-1.28 6.033-3.44 11.946-4.06 18.053-.62 6.107.48 12.648 5.01 17.436 1.53 1.609 3.49 3.018 5.86 3.518 2.37.499 5.17-.101 6.54-1.804 1.45-1.804.99-4.2.63-6.359-1.69-10.017-.1-20.201-.24-30.319-.15-10.119-2.38-20.819-10.32-28.404-4.94-4.713-11.85-7.989-15.59-13.429-4.2.822-8.59.978-12.86.458z"/><path fill="#283474" d="M1335.35 450.263c-1.69-10.017-.1-20.201-.25-30.319-.14-10.119-2.37-20.819-10.32-28.404-4.93-4.713-11.84-7.989-15.58-13.429-.67.132-1.35.218-2.03.313 5.97 10.285 16.3 18.329 21.83 28.291 7.12 15.669 5.5 33.327 4.01 51.194.67-.32 1.27-.74 1.71-1.289 1.45-1.802.99-4.198.63-6.357z"/><path fill="#283474" d="M1277.88 394.939c1.8 6.466 8.01 11.505 15.09 13.618 7.09 2.112 14.07 7.405 21.24 5.565 7.18-1.839 7.11-10.641 13.73-13.722-19.15 3.619-31.71.62-50.06-5.461z"/><path fill="#283474" d="M1290.04 419.754c1.5 2.79 3.04 5.675 4.38 8.569 4.73 10.264 7.47 22.133 8.16 35.346h1.12c-.69-13.347-3.46-25.344-8.25-35.725-1.34-2.92-2.9-5.818-4.4-8.62-2.66-4.965-5.41-10.102-7.06-15.469-.08-.265-.38-.424-.69-.351-.3.074-.47.347-.39.614 1.68 5.455 4.45 10.631 7.13 15.636z"/><path fill="#fff" d="M1290.94 374.371c3.52-.288 7.05-.566 10.57-.837 2.18-.167 4.46-.318 6.48.504 3.9 1.58 5.58 6.084 6.83 10.103-8.25-.372-19.96 1.817-33.86 1.489.63-2.549 2.74-8.53 4.93-9.975 1.47-.967 3.3-1.141 5.05-1.284z"/><path fill="#F27E72" d="M1414.41 363.689c.15-1.031 1.26-1.84 2.08-2.438.81-.599.66-.446 1.28-1.261.62-.814 1.36-2.23.72-3.039-3.71.791-3.81 3.024-7.69 4.374-1.09.378-1.9 1.276-2.08 2.408-.69 4.243-3.15 6.614-6.75 9.12l-4.86 2.105c.84 2.425 2.22 6.042 3.06 8.467 4.56-1.556 6.31-3.483 10.71-4.679 1.07-.29 4.57-.522 6.05-.69 1.37-.156 2.62-.82 3.63-1.758 1.49-1.386 2.77-2.347 1.64-3.874.86-.879 1.82-1.302 2.13-2.172.32-.869.02-1.293-.62-1.95.64-.378 1.02-1.171.93-1.93-.09-.759-1.27-1.838-1.97-2.053 2.07-1.266 4.72-1.694 6.64-2.614 1.92-.921 3.76-1.043 4.13-3.219-6.37 1.119-12.98 2.873-19.03 5.203z"/><path fill="#F9B775" d="M1406.23 368.674c-27.89 11.93-59.61 15.385-89.88 11.674-7.08-.867-14.22-2.032-21.38-1.552-6.67.448-14.55 2.496-18.63 8.26-.86 1.213-1.48 2.591-1.67 4.075-.8 6.419 5.76 13.625 10.8 15.087 19.15 5.564 39.94 1.19 59.56-2.349 19.63-3.537 34.3-8.868 52.72-16.498 3.47-1.438 9.33-4.451 13.89-7.131-1.73-3.043-3.59-8.582-5.41-11.566z"/><path fill="#fff" d="M1406.32 368.025c-2.63 1.125-5.3 2.155-7.99 3.141 1.93 4.803 2.95 9.773 3.97 14.66 3.18-1.583 6.79-3.522 9.85-5.321-1.86-3.284-3.87-9.259-5.83-12.48z"/><path fill="#283474" d="M1401.1 379.881c-30.43 15.77-66.42 21.608-100.15 15.89l-.89-.153c-2.57-.442-5.25-.901-7.9-.793-3.43.138-6.39 1.272-8.36 3.196a.557.557 0 1 0 .78.799c1.77-1.73 4.48-2.752 7.62-2.877 2.56-.109 5.16.345 7.67.779l.89.151a156.255 156.255 0 0 0 26.13 2.177c25.74 0 51.62-6.221 74.43-17.972-.07-.398-.14-.799-.22-1.197z"/><path fill="#fff" d="m1342.67 469.505-19.51-1.054a2.5 2.5 0 0 1-2.27-3.192l16.87-58.602a2.51 2.51 0 0 1 3.38-1.614l20.47 8.616a2.496 2.496 0 0 1 1.39 3.132l-17.83 51.04a2.512 2.512 0 0 1-2.5 1.674z"/><path fill="#283474" d="m1344.64 470.822-21.79-1.177a1.367 1.367 0 0 1-1.24-1.75l17.62-61.187a1.371 1.371 0 0 1 1.85-.885l22.63 9.522c.66.283 1 1.034.76 1.718L1346 469.907c-.2.573-.75.947-1.36.915z"/><path fill="#FFBDA7" d="M1364.39 439.043c-.16-.596-.34-1.203-.5-1.813a1.45 1.45 0 0 0-.08-.284c-.29-1.085-.54-2.179-.62-3.264.33-1.104.81-2.225.6-3.333-.08-.458-.29-.885-.49-1.306l-2.82-5.932c-1.64.426-2.72 2.328-2.25 3.951.32 1.096 1.2 1.954 1.55 3.041.11.362.15.736.16 1.115-.21 1.148-.58 2.285-1.04 3.412a69.913 69.913 0 0 0-5.36-1.038c-.4-.061-.81-.116-1.19.006-.39.122-.73.48-.69.881.04.48.55.757.99.947 1.64.702 3.28 1.406 4.92 2.107l-.15.467-6.39-1.317c-.87-.179-1.95-.28-2.46.437-.35.482-.27 1.182.06 1.676.34.493.87.816 1.41 1.062-.31-.025-.63-.027-.89.122-.5.278-.62.974-.44 1.512.31.882 1.19 1.407 2.01 1.855l4.26 2.328-.65 2.042c-1.86.915-3.73 1.83-5.6 2.745-.3.147-.63.332-.71.656-.09.351.18.713.52.855.33.141.71.114 1.07.08a33.87 33.87 0 0 0 3.52-.553l-.01.011c.13-.025.25-.061.38-.088.38-.082.75-.167 1.13-.263.15-.04.3-.084.45-.126a34.69 34.69 0 0 0 2.41-.749c.67-.229 1.34-.465 2-.705 1.51-.546 3.09-1.133 4.15-2.336 1.89-2.147 1.51-5.438.75-8.201zm-10.15 1.867c.72.113 1.43.233 2.13.393l-.19.595c-.62-.378-1.27-.708-1.94-.988zM702.563 722.652c-6.416-3.392-6.702-2.972-11.942-8.488-.023-.025-2.961-2.67-2.986-2.694-3.823-4.052-4.902-9.406-5.184-15.441-3.693-78.842 5.958-102.693-.24-109.086-6.107.961-12.376-.236-18.354 2.685-1.51.738-2.873 1.859-4.057 3.182-3.642 4.061-5.573 8.441-6.147 14.117-1.196 11.818 1.39 32.961 4.61 44.244 6.344 22.228 8.041 30.719 11.005 45.884.805 4.117.763 8.803-.114 12.26-.627 2.473-1.6 6.994-1.607 9.566-.012 4.591.982 6.21 4.793 7.241 4.477 1.213 5.836-.024 8.525.708 2.839.772 3.922 1.744 6.543 3.233 6.359 3.612 9.082 1.539 16.15-.125 3.3-.778 5.836-3.675 2.766-5.297l-3.761-1.989z"/><path fill="#F27E72" d="M684.283 598.772c.233-6.278-.179-9.874-2.072-11.829-6.109.961-12.376-.236-18.354 2.685-1.51.738-2.873 1.859-4.057 3.182-3.642 4.061-5.573 8.441-6.147 14.117-1.196 11.818 1.39 32.961 4.61 44.244 6.344 22.228 8.041 30.719 11.005 45.886.805 4.117.763 8.803-.114 12.26-.627 2.473-1.6 6.994-1.607 9.566-.012 4.543.97 6.172 4.684 7.207.963-4.372 1.785-8.611 1.785-12.519 1.806-36.105-16.87-82.458 10.267-114.799z"/><path fill="#111520" d="M678.451 606.388c1.758-1.806 3.668-3.249 5.678-4.456.479-8.273.271-12.729-1.918-14.989-6.107.961-12.376-.236-18.354 2.685-1.51.738-2.873 1.859-4.057 3.182-3.642 4.063-5.573 8.441-6.147 14.117-1.196 11.818 1.39 32.961 4.61 44.244a870.51 870.51 0 0 1 2.509 8.965c3.226-19.331 1.901-40.93 17.679-53.748zm27.853 118.27-3.76-1.986c-1.906-1.009-3.266-1.678-4.379-2.268-1.347 1.947-3.053 3.425-4.576 4.02-11.023-1.617-20.581-1.314-25.643-9.463-.565 1.009-.704 2.631-.708 3.703-.013 4.591.866 6.612 4.679 7.645 4.479 1.213 6.268.178 8.956.91 2.839.772 3.951 1.676 6.572 3.167 6.359 3.611 9.005 1.497 16.073-.168 3.301-.78 5.856-3.937 2.786-5.56z"/><path fill="#FFBDA7" d="M655.005 726.023c.031 0-1.268-10.876-2.295-14.819 1.148-43.92 12.382-113.048 8.496-126.37-10.979.77-19.685 5.423-30.654 4.494-3.754 41.838 7.461 92.508 9.372 124.942-.942 5.977-1.455 9.057-4.378 14.077-.927 1.592-2.103 2.946-2.954 4.603-.793 1.544-.711 3.464-.594 5.237.246 3.747 1.416 7.141 3.226 10.208 1.538 2.607 3.779 2.382 6.263 2.182 3.249-.262 5.991-1.144 8.563-3.612 3.27-3.136 5.766-8.595 5.676-13.623-.042-2.28-.396-5.054-.721-7.319z"/><path fill="#F27E72" d="M635.548 728.348c-.927 1.592-2.103 2.946-2.954 4.603-.793 1.544-.711 3.464-.594 5.238.15 2.299.686 4.452 1.468 6.492 2.335-7.23 3.832-14.659 4.764-22.24-.594 1.867-1.399 3.701-2.684 5.907zm7.939-108.201c1.693-5.077 9.394-10.141 17.77-9.886.91-12.12 1.133-21.37-.051-25.427-10.979.77-19.685 5.423-30.654 4.494-3.506 39.081 6.045 85.857 8.876 118.292 1.258-28.259-2.223-58.152 4.059-87.473z"/><path fill="#111520" d="M661.4 608.448c.795-11.226.94-19.763-.183-23.614-10.978.77-19.684 5.423-30.653 4.494-.519 5.781-.744 11.734-.755 17.78 10.263 2.936 21.141 3.418 31.591 1.34zm-24.754 129.836c-3.1-1.011-2.928-4.782-2.295-8.094-.618.888-1.24 1.769-1.749 2.759-.793 1.544-.711 3.464-.595 5.237.246 3.747 1.417 7.141 3.226 10.209 1.539 2.606 3.779 2.381 6.264 2.181 3.249-.261 5.991-1.144 8.563-3.611 3.27-3.137 5.765-8.595 5.676-13.623-.04-2.281-.397-5.057-.721-7.32.004 0-.021-.236-.065-.622-2.217 11.082-5.619 15.915-18.304 12.884z"/><path fill="#283474" d="M687.952 595.272c2.988-27.839 2.082-54.147 1.483-82.37-23.703 1.055-47.527-1.675-70.609-8.09-4.363 15.862-1.133 33.114 2.801 49.13 3.931 16.016 8.601 32.4 7.005 48.961 23.154 8.132 50.212-4.283 59.32-7.631z"/><path fill="#111520" d="M618.82 504.812c-2.387 8.678-2.492 17.773-1.462 26.852 22.944.746 48.692 1.06 72.38-4.574-.099-4.687-.207-9.408-.308-14.188-23.704 1.055-47.528-1.675-70.61-8.09z"/><path fill="#F9B775" d="m711.622 430.545-9.262-22.14c-4.695-11.223-7.288-18.68-13.778-28.968l-3.272-.345c-4.677.12-9.975 5.905-10.65 10.536-.677 4.629.821 9.27 2.301 13.711l7.036 21.122c1.605 4.82 3.224 9.671 5.67 14.123 2.446 4.452 5.796 8.53 10.191 11.077 2.77 1.606 6.187 2.561 9.177 1.419 3.617-1.382 5.569-5.52 5.586-9.392.016-3.875-1.504-7.57-2.999-11.143z"/><path fill="#111520" d="M682.469 379.807c-3.771 1.691-7.27 6.126-7.809 9.829-.677 4.629.821 9.27 2.301 13.71l7.036 21.122c1.605 4.82 3.058 9.766 5.67 14.123 2.528 4.216 5.977 8.006 10.191 11.078 2.587 1.886 6.187 2.56 9.177 1.418.095-.036.177-.095.271-.135a48.041 48.041 0 0 1-1.951-3.306c-12.822-20.516-2.412-43.573-24.886-67.839z"/><path fill="#F9B775" d="M705.34 450.86c3.989.65 7.972-1.728 10.433-4.933 2.464-3.203 3.728-7.138 5.07-10.95a192.92 192.92 0 0 1 17.166-36.211c-3.165-6.035-9.404-5.341-13.583-7.928-7.49 10.82-13.936 21.805-21.073 32.861-2.942 4.559-5.908 9.412-6.257 14.827-.347 5.414 2.888 11.461 8.244 12.334z"/><path fill="#111520" d="M735.736 398.013c-.147-.534-.602-.916-1.047-1.245a24.255 24.255 0 0 0-10.16-4.411c-.341 4.605 1.294 9.324 4.414 12.729 1.374-.068 2.652-.789 3.651-1.735.999-.945 1.76-2.11 2.509-3.264.406-.627.832-1.356.633-2.074z"/><path fill="#FFBDA7" d="M754.804 382.485c-.234-.324-.682-.435-1.079-.376-.396.059-.755.26-1.104.458l-5.949 3.358c-.097-.096-.186-.199-.286-.29 2.456-1.661 4.883-3.36 7.196-5.211.267-.216.54-.437.715-.732.176-.296.237-.681.069-.98-.183-.326-.593-.467-.967-.435-.372.03-.715.2-1.049.37a89.89 89.89 0 0 0-8.62 5.016c-.099-.059-.194-.124-.295-.181l8.303-6.179c.445-.33.942-.814.775-1.343-.107-.337-.475-.539-.828-.562-.355-.023-.7.099-1.031.225-4.022 1.521-7.65 3.895-11.208 6.322-.084-.019-.168-.03-.252-.047 2.628-2.098 5.656-3.85 8.148-6.063.249-.224-.21-1.217-.424-1.474-.179-.216-.522-.122-.778-.008a40.742 40.742 0 0 0-7.598 4.433c-1.34.99-2.678 2.08-4.152 2.82a8.908 8.908 0 0 1-1.608-.097c-1.132-.191-1.67-.151-2.145-1.196-.417-.917-.474-1.754-.574-2.755-.099-1.001-1.693-4.324-2.697-4.362-1.028-.038-1.444 2.762-1.379 3.788.065 1.026.738 2.765 1.091 3.732.833 2.289.739 3.721.221 6.101-.519 2.381-1.234 4.759-1.163 7.194.068 2.435 1.106 5.018 3.252 6.17.569.305 1.238.499 1.861.335.563-.146 1.009-.56 1.436-.955a80.451 80.451 0 0 1 3.18-2.768 41.356 41.356 0 0 0 11.852-7.65c2.302-1.361 4.538-2.829 6.449-4.688.27-.264.537-.542.69-.885.154-.351.17-.78-.052-1.085z"/><path fill="#F27E72" d="M732.197 383.61c-.112.215.008.473.119.688a8.572 8.572 0 0 1 .616 6.08c-.119.427-.269.855-.273 1.299-.002.444.183.921.578 1.125.431.221.951.053 1.407-.117l7.806-2.919c.411-.656.068-1.536-.435-2.124-.504-.589-1.167-1.058-1.522-1.746-.167-.328-.263-.698-.499-.98-.3-.355-.77-.506-1.215-.639l-1.899-.568c-1.392-.418-2.89-.833-4.269-.378-.164.054-.333.13-.414.279z"/><path fill="#F9B775" d="M619.684 378.666c2.458-3.216 6.445-4.837 10.323-6.002 16.588-4.978 34.881-4.061 50.885 2.553 2.9 1.199 5.888 2.721 7.493 5.417 2.243 3.768 1.122 8.532 1.371 12.91.574 10.096 7.187 19.255 4.184 28.913-2.037 6.543-7.051 10.988-10.493 16.916-2.892 4.982-3.399 11.041-2.719 16.761.681 5.72 2.464 11.24 3.897 16.819 4.153 16.157 8.577 26.785 8.281 47.785-25.362.288-53.497 4.202-79.287 2.4-2.532-19.284 9.267-39.39 12.045-58.641 3.58-24.802-9.465-49.223-9.025-74.278.071-4.052.586-8.332 3.045-11.553z"/><path fill="#296BB0" d="M653.078 371.315a62.32 62.32 0 0 1 7.999 22.533c1.428 9.616.581 19.405-.267 29.088-1.242 14.157-2.481 28.314-3.722 42.471 6.934.157 13.867.315 20.802.471 9.884-31.24 6.391-66.474-9.435-95.165-5.125.198-10.25.4-15.377.602z"/><path fill="#111520" d="M676.703 448.411c-.259-12.592-.526-25.611-2.177-38.299-1.861-14.31-5.236-26.311-10.319-36.685l.856-.419c5.129 10.469 8.534 22.565 10.409 36.98 1.657 12.742 1.925 25.787 2.185 38.404l-.954.019z"/><path fill="#DE7A51" d="M621.966 508.253c17.911-8.267 41.333-2.755 61.999-1.378 0-11.023 2.755-23.422-4.134-33.066-9.644-15.156-28.931-20.666-38.577-35.822-6.889-12.399 5.51-24.8-1.379-37.199-4.755-9.509-12.591-15.934-22.613-19.29-.429 1.952-.576 4.002-.61 5.997-.439 25.055 12.605 49.476 9.024 74.278-2.576 17.838-12.889 36.413-12.372 54.389 1.931-3.489 4.698-6.258 8.662-7.909z"/><path fill="#111520" d="m680.606 505.046-51.512-1.234 14.197-80.41 51.51 1.234-14.195 80.41z"/><path fill="#fff" d="m685.461 499.544-51.322.28-.862-1.836 14.123-80.256 51.779 1.408.603 1.607-14.321 78.797z"/><path fill="#283474" d="m685.61 501.091-51.512-1.234 14.197-80.41 51.512 1.232-14.197 80.412z"/><path fill="#111520" d="M637.926 478.177c12.365 9.384 25.755 16.807 39.798 22.729l7.886.189 3.149-17.845c-16.65-6.486-32.529-15.144-47.119-26.115l-3.714 21.042z"/><path fill="#FFBDA7" d="M670.396 369.146c-1.417-5.642-2.595-13.608-2.612-19.427-5.289.837-10.874.048-16.047-1.34-.564 6.418-2.831 14.618-6.21 20.199 8.826 3.756 17.197 4.483 24.869.568z"/><path fill="#F27E72" d="M651.737 348.379c-.564 6.418-2.831 14.618-6.21 20.199 5.257 2.237 10.35 3.386 15.233 3.135-3.873-6.594-6.029-14.992-7.028-22.835a65.307 65.307 0 0 1-1.995-.499z"/><path fill="#296BB0" d="M643.515 367.448c.393-.551 1.266-.507 1.745-.984.293-.291.383-.724.45-1.132.067-.408.129-.839.389-1.161.257-.323.785-.469 1.087-.187 1.662 1.588 3.967 2.303 6.227 2.732 5.012.95 10.242.717 15.15-.673.429-.122.866-.254 1.31-.233.444.021.909.227 1.114.624.305.595-.073 1.365.207 1.971.183.395.609.639.776 1.04.17.404.029.884-.248 1.226-.274.341-.665.566-1.052.77-4.91 2.58-10.748 2.768-16.245 2.036-2.234-.297-4.473-.743-6.532-1.661a15.128 15.128 0 0 1-3.59-2.246c-.319-.267-.633-.558-.818-.932-.185-.374-.212-.85.03-1.19z"/><path fill="#111520" d="M653.598 348.842c.518 8.774 7.472 13.514 15.774 15.564a71.719 71.719 0 0 1-1.591-14.693c-4.66.738-9.548.214-14.183-.871z"/><path fill="#283474" d="M663.431 318.395c1.012-2.505 3.256-4.374 5.758-5.401 2.69-1.104 5.911-1.284 8.414.196 3.224 1.907 4.481 6.201 3.636 9.85-.845 3.647-3.407 6.685-6.332 9.022-.698.559-1.453 1.1-2.332 1.262-1.512.279-2.98-.619-4.172-1.594-1.965-1.609-3.693-3.576-4.696-5.912-1.003-2.336-1.228-5.066-.276-7.423z"/><path fill="#FFBDA7" d="M666.26 314.675c2.426.276 4.893.816 6.939 2.133 2.109 1.356 3.804 4.66 3.868 7.166.103 3.994-1.083 5.657-.945 7.028.105 1.054.238 1.683.551 2.421 1.47 3.478 1.723 9.144.299 12.641-1.325 3.255-3.293 6.205-4.877 9.339-.494.978-1.461 1.665-2.559 1.659-6.382-.027-12.797-2.01-17.762-5.998-5.432-4.363-8.952-11.206-8.75-18.169.202-6.963 4.37-13.812 10.715-16.687 3.879-1.754 8.292-2.016 12.521-1.533z"/><path fill="#F27E72" d="M672.091 320.809c1.571 1.571 3.141 4.421 4.712 6.448.055-.309.116-.595.156-.953.282-2.542-1.386-7.844-3.487-9.303-2.101-1.459-4.687-2.036-7.228-2.326-4.229-.483-8.643-.221-12.52 1.535-4.785 2.168-8.326 6.595-9.869 11.627 2.264 1.704 4.615 3.353 7.263 4.413 9.533 3.812 15.253-5.721 20.973-11.441z"/><path fill="#283474" d="M649.631 308.54c-4.769 1.418-10.033 3.674-12.145 8.177-7.044 15.015-3.812 20.388-.53 23.836.11 1.033.387 2.042.899 2.961 2.332 4.185 10.058 5.521 13.082 9.237 2.351-2.118-.13-5.542.801-8.568.827-2.692 1.703-7.606 3.523-9.77 4.943-2.387 8.701-5.258 10.88-10.364 1.06-2.485 1.811-5.127 3.258-7.408 1.448-2.282 3.812-4.219 6.514-4.233-.872-8.368-17.521-6.475-26.282-3.868z"/><path fill="#FFBDA7" d="M652.536 334.661c-.923-.599-1.674-1.585-2.271-2.563-.427-.704-.694-1.447-1.596-1.567-1.216-.16-2.349.837-2.942 1.807-.498.812-.865 2.866-.879 3.844-.027 2.021 1.016 3.691 1.611 5.606.347 1.115.538 1.683 1.392 2.402 1.037.873 4.628.198 5.566-.801l-.881-8.728zm15.51 137.532c1.753 1.48 4.268 1.697 6.536 1.35 2.269-.347 4.439-1.182 6.702-1.556 2.264-.374 4.822-.393 7.063.729.375.188.623 1.027.473 1.42-.115.299-1.936.974-2.239 1.075-1.279.431-2.252-.257-3.531.172-.875.296-1.236 1.693-.875 2.543.149.351.509.557.852.723a12.8 12.8 0 0 0 4.115 1.178c1.077.121 3.384-.238 4.13.55.829.877.459 2.942.257 4.133-.408 2.426-.412 4.117-2.153 5.856-2.326 2.324-7.47 2.947-10.654 2.125-5.775-1.491-10.79-5.128-15.023-9.331 1.451-3.655 2.9-7.31 4.347-10.967z"/><path fill="#F9B775" d="M662.441 486.651c-16.371-10.075-33.687-17.597-46.868-31.289-2.189-2.273-4.536-4.705-6.039-7.508-1.454-2.715-1.624-6.462-1.908-9.532-.692-7.462.705-14.408 1.251-21.739.572-7.677 1.092-15.395 2.963-22.89 1.567-6.271 3.22-13.45 7.878-18.209 3.352-3.422 6.389-2.705 9.524.917 3.712 4.288 4.753 10.233 5.241 15.883 1.001 11.64.25 23.429-2.221 34.848-.755 3.491-1.667 7.154-.625 10.569.924 3.035 3.258 5.405 5.559 7.592 11.044 10.492 20.812 17.541 33.846 25.427-3.671 4.563-4.931 11.37-8.601 15.931z"/><path fill="#111520" d="M630.795 436.194a.496.496 0 0 1-.484-.614c3.186-13.288 5.81-27.706 3.438-43.093a.498.498 0 1 1 .986-.15c2.398 15.556-.243 30.089-3.453 43.475a.506.506 0 0 1-.487.382zm39.955 35.015a.494.494 0 0 1-.281-.088 548.653 548.653 0 0 0-7.138-4.776c-11.391-7.539-23.168-15.337-31.096-25.757a.497.497 0 0 1 .095-.698.495.495 0 0 1 .698.095c7.825 10.287 19.53 18.037 30.852 25.53a575.84 575.84 0 0 1 7.152 4.784.498.498 0 0 1-.282.91z"/><path fill="#111520" d="M662.365 487.036a.494.494 0 0 1-.377-.174.495.495 0 0 1 .053-.701c2.179-1.875 3.266-4.658 4.279-7.585l.099-.29c.974-2.82 1.981-5.735 4.09-7.918a.5.5 0 0 1 .717.694c-1.955 2.023-2.925 4.833-3.863 7.552l-.1.29c-1.016 2.94-2.205 5.981-4.57 8.016a.53.53 0 0 1-.328.116zm-5.854-3.304a.498.498 0 0 1-.442-.73 91.005 91.005 0 0 0 5.773-13.526.5.5 0 0 1 .631-.315.497.497 0 0 1 .315.631 92.028 92.028 0 0 1-5.836 13.675.498.498 0 0 1-.441.265z"/><path fill="#F27E72" d="M848.716 454.471c.17-.307.124-.682.073-1.029l-.418-2.872c-.137-.945-.421-2.072-1.335-2.355-.865-.266-1.786.51-1.962 1.398-.175.889.201 1.794.681 2.563.191.303.395.711.166.985-.177.212-.502.191-.772.248-.509.109-.898.551-1.081 1.039-.185.489-.201 1.02-.212 1.543-.019.934-.027 1.886.227 2.786.253.899.804 1.757 1.643 2.169-.021-.728.037-1.605.673-1.962.58-.324 1.457-.074 1.848-.612.604-.835-.959-1.958-.519-2.888.203-.431.759-.595.988-1.013zm43.479-.154c1.659.553 2.912 2.004 3.552 3.63.639 1.627.733 3.421.63 5.166a19.368 19.368 0 0 1 10.862-5.047c-.048-1.152-.099-2.321-.45-3.419-.351-1.098-1.047-2.136-2.08-2.645-1.091-.535-2.429-.432-3.478-1.046-.54-.317-.98-.813-1.575-1.009-1.054-.347-2.162.37-2.909 1.19-.746.823-3.549 2.705-4.552 3.18z"/></g></g><defs><clipPath id="a"><path fill="#fff" d="M0 0h1920v810H0z"/></clipPath><clipPath id="b"><path fill="#fff" d="M245-51h1430v953.333H245z"/></clipPath></defs></svg>