<svg xmlns="http://www.w3.org/2000/svg" width="1800" height="1010" fill="none"><g clip-path="url(#a)"><path fill="#fff" d="M0 0h1800v1010H0z"/><path fill="#EBEBEB" d="M1513 889.641H287v.613h1226v-.613zm-122.85 39.47h-81.22v.613h81.22v-.613zm-291 6.651h-21.32v.613h21.32v-.613zm207.33-29.418h-47.05v.613h47.05v-.613zm-784.934 4.113H415.637v.613h105.909v-.613zm37.35 0h-15.529v.613h15.529v-.613zm280.176 10.359H609.379v.613h229.693v-.613zm29.082-140.527H394.676c-7.717 0-13.996-6.279-13.996-13.996V100.742c0-7.716 6.279-13.996 13.996-13.996h473.478c7.714 0 13.994 6.28 13.994 13.996v665.551c0 7.717-6.28 13.996-13.994 13.996zM394.676 87.361c-7.381 0-13.383 6.003-13.383 13.384v665.551c0 7.38 6.002 13.383 13.383 13.383h473.478c7.379 0 13.381-6.003 13.381-13.383V100.742c0-7.378-6.002-13.383-13.381-13.383l-473.478.003zM1398.52 780.289H925.04c-7.716 0-13.993-6.279-13.993-13.996V100.742c0-7.716 6.279-13.996 13.993-13.996h473.48c7.72 0 13.99 6.28 13.99 13.996v665.551c.01 7.717-6.27 13.996-13.99 13.996zM925.04 87.361c-7.378 0-13.38 6.003-13.38 13.384v665.551c0 7.38 6.002 13.383 13.38 13.383h473.48c7.38 0 13.38-6.003 13.38-13.383V100.742c0-7.378-6-13.383-13.38-13.383l-473.48.003z"/><path fill="#F5F5F5" d="M1173.75 258.6H587.672v483.934h586.078V258.6z"/><path fill="#FAFAFA" d="M1164.35 268.857H587.672v463.821h576.678V268.857z"/><path fill="#F0F0F0" d="M1160.09 600.734V436.86h-17.03v-21.644l-38.3-17.919v-22.154h-6.39v61.717h-6.38v163.874h-8.51v-85.131h-19.16v-44.69h-6.38v129.821h-14.9v-48.949h-10.64v-12.77h-23.41v-44.693h-12.771v-29.794h-14.898v-44.693h-6.385v44.693H960.04v29.794h-12.77v44.693h-23.412v12.77h-10.639v48.949h-12.77v-61.719h-23.412V402.809h-6.382V387.91h-51.078v14.899h-10.642v97.898h-42.564v10.639h-14.898v6.385h14.898v38.311h-44.692V428.346h-8.514v-25.537h-21.281V304.91h-6.385v97.899h-14.898v25.537h-82.929v304.335h576.678V600.734h-4.26z"/><path fill="#F5F5F5" d="M638.018 435.018h-6.03v6.029h6.03v-6.029zm0 10.113h-6.03v6.029h6.03v-6.029zm-.012 40.43h-6.029v6.029h6.029v-6.029zm0 10.115h-6.029v6.029h6.029v-6.029zm0 10.111h-6.029v6.03h6.029v-6.03zm0 30.324h-6.029v6.03h6.029v-6.03zm0 10.106h-6.029v6.029h6.029v-6.029zm9.578-70.764h-6.029v6.03h6.029v-6.03zm0 10.108h-6.029v6.029h6.029v-6.029zm0 10.115h-6.029v6.029h6.029v-6.029zm0 10.111h-6.029v6.03h6.029v-6.03zm0 10.108h-6.029v6.029h6.029v-6.029zm0 20.216h-6.029v6.03h6.029v-6.03zm0 10.106h-6.029v6.029h6.029v-6.029zm9.578-111.194h-6.029v6.03h6.029v-6.03zm0 10.108h-6.029v6.029h6.029v-6.029zm0 10.103h-6.029v6.03h6.029v-6.03zm0 10.114h-6.029v6.029h6.029v-6.029zm0 10.105h-6.029v6.03h6.029v-6.03zm0 10.108h-6.029v6.029h6.029v-6.029zm0 10.115h-6.029v6.029h6.029v-6.029zm0 10.111h-6.029v6.03h6.029v-6.03zm0 10.108h-6.029v6.029h6.029v-6.029zm0 10.105h-6.029v6.029h6.029V526zm0 20.217h-6.029v6.029h6.029v-6.029zm9.578-111.194h-6.029v6.03h6.029v-6.03zm0 10.108h-6.029v6.029h6.029v-6.029zm0 10.103h-6.029v6.03h6.029v-6.03zm0 10.114h-6.029v6.029h6.029v-6.029zm0 10.105h-6.029v6.03h6.029v-6.03zm0 10.108h-6.029v6.029h6.029v-6.029zm0 10.115h-6.029v6.029h6.029v-6.029zm0 90.978h-6.029v6.03h6.029v-6.03zm9.571-151.631h-6.03v6.03h6.03v-6.03zm0 10.108h-6.03v6.029h6.03v-6.029zm0 10.103h-6.03v6.03h6.03v-6.03zm0 10.114h-6.03v6.029h6.03v-6.029zm0 10.105h-6.03v6.03h6.03v-6.03zm0 10.108h-6.03v6.029h6.03v-6.029zm0 10.115h-6.03v6.029h6.03v-6.029zm0 10.111h-6.03v6.03h6.03v-6.03zm0 60.651h-6.03v6.029h6.03v-6.029zm0 10.111h-6.03v6.029h6.03v-6.029zm0 10.105h-6.03v6.03h6.03v-6.03zm0 10.11h-6.03v6.029h6.03v-6.029zm0 40.437h-6.03v6.03h6.03v-6.03zm9.578-202.178h-6.03v6.03h6.03v-6.03zm0 10.108h-6.03v6.029h6.03v-6.029zm0 10.103h-6.03v6.03h6.03v-6.03zm0 10.114h-6.03v6.029h6.03v-6.029zm0 10.105h-6.03v6.03h6.03v-6.03zm0 10.108h-6.03v6.029h6.03v-6.029zm0 10.115h-6.03v6.029h6.03v-6.029zm0 10.111h-6.03v6.03h6.03v-6.03zm0 10.108h-6.03v6.029h6.03v-6.029zm0 10.105h-6.03v6.029h6.03V526zm0 30.324h-6.03v6.03h6.03v-6.03zm0 10.114h-6.03v6.029h6.03v-6.029zm0 10.111h-6.03v6.029h6.03v-6.029zm0 10.105h-6.03v6.03h6.03v-6.03zm0 10.11h-6.03v6.029h6.03v-6.029zm0 40.437h-6.03v6.03h6.03v-6.03zm9.578-202.178h-6.029v6.03h6.029v-6.03zm0 10.108h-6.029v6.029h6.029v-6.029zm0 10.103h-6.029v6.03h6.029v-6.03zm0 10.114h-6.029v6.029h6.029v-6.029zm0 10.105h-6.029v6.03h6.029v-6.03zm0 10.108h-6.029v6.029h6.029v-6.029zm0 10.115h-6.029v6.029h6.029v-6.029zm0 10.111h-6.029v6.03h6.029v-6.03zm0 10.108h-6.029v6.029h6.029v-6.029zm0 10.105h-6.029v6.029h6.029V526zm0 10.111h-6.029v6.03h6.029v-6.03zm0 10.106h-6.029v6.029h6.029v-6.029zm0 10.107h-6.029v6.03h6.029v-6.03zm0 10.114h-6.029v6.029h6.029v-6.029zm0 10.111h-6.029v6.029h6.029v-6.029zm0 10.105h-6.029v6.03h6.029v-6.03zm0 10.11h-6.029v6.029h6.029v-6.029zm0 10.111h-6.029v6.03h6.029v-6.03zm9.578-171.857h-6.029v6.029h6.029v-6.029zm0 10.113h-6.029v6.029h6.029v-6.029zm0 10.103h-6.029v6.03h6.029v-6.03zm0 10.114h-6.029v6.029h6.029v-6.029zm0 10.105h-6.029v6.03h6.029v-6.03zm0 10.108h-6.029v6.029h6.029v-6.029zm0 10.115h-6.029v6.029h6.029v-6.029zm0 10.111h-6.029v6.03h6.029v-6.03zm0 10.108h-6.029v6.029h6.029v-6.029zm0 10.105h-6.029v6.029h6.029V526zm0 30.324h-6.029v6.03h6.029v-6.03zm0 10.114h-6.029v6.029h6.029v-6.029zm0 10.111h-6.029v6.029h6.029v-6.029zm0 10.105h-6.029v6.03h6.029v-6.03zm9.578-151.636h-6.029v6.029h6.029v-6.029zm0 10.113h-6.029v6.029h6.029v-6.029zm0 10.103h-6.029v6.03h6.029v-6.03zm0 10.114h-6.029v6.029h6.029v-6.029zm0 10.105h-6.029v6.03h6.029v-6.03zm0 10.108h-6.029v6.029h6.029v-6.029zm0 10.115h-6.029v6.029h6.029v-6.029zm0 10.111h-6.029v6.03h6.029v-6.03zm0 10.108h-6.029v6.029h6.029v-6.029zm0 10.105h-6.029v6.029h6.029V526zm0 30.324h-6.029v6.03h6.029v-6.03zm0 10.114h-6.029v6.029h6.029v-6.029zm0 10.111h-6.029v6.029h6.029v-6.029zm107.832-167.778h-6.029v6.03h6.029v-6.03zm0 10.106h-6.029v6.029h6.029v-6.029zm0 10.115h-6.029v6.03h6.029v-6.03zm0 10.106h-6.029v6.029h6.029v-6.029zm0 10.105h-6.029v6.03h6.029v-6.03zm0 10.111h-6.029v6.03h6.029v-6.03zm0 10.114h-6.029v6.029h6.029v-6.029zm0 10.107h-6.029v6.03h6.029v-6.03zm0 30.33h-6.029v6.03h6.029v-6.03zm0 10.102h-6.029v6.029h6.029v-6.029zm9.578-111.196h-6.029v6.03h6.029v-6.03zm0 10.106h-6.029v6.029h6.029v-6.029zm0 10.115h-6.029v6.03h6.029v-6.03zm0 10.106h-6.029v6.029h6.029v-6.029zm0 10.105h-6.029v6.03h6.029v-6.03zm0 10.111h-6.029v6.03h6.029v-6.03zm0 10.114h-6.029v6.029h6.029v-6.029zm0 10.107h-6.029v6.03h6.029v-6.03zm0 40.432h-6.029v6.029h6.029v-6.029zm9.578-111.196h-6.029v6.03h6.029v-6.03zm0 10.106h-6.029v6.029h6.029v-6.029zm0 10.115h-6.029v6.03h6.029v-6.03zm0 10.106h-6.029v6.029h6.029v-6.029zm0 10.105h-6.029v6.03h6.029v-6.03zm0 10.111h-6.029v6.03h6.029v-6.03zm0 10.114h-6.029v6.029h6.029v-6.029zm0 10.107h-6.029v6.03h6.029v-6.03zm9.579-70.764h-6.03v6.03h6.03v-6.03zm0 10.106h-6.03v6.029h6.03v-6.029zm0 10.115h-6.03v6.03h6.03v-6.03zm0 10.106h-6.03v6.029h6.03v-6.029zm0 10.105h-6.03v6.03h6.03v-6.03zm0 10.111h-6.03v6.03h6.03v-6.03zm0 20.221h-6.03v6.03h6.03v-6.03zm0 10.106h-6.03v6.029h6.03v-6.029zm0 30.326h-6.03v6.029h6.03v-6.029zm0 10.111h-6.03v6.03h6.03v-6.03zm0 10.113h-6.03v6.03h6.03v-6.03zm0 10.106h-6.03v6.029h6.03v-6.029zm0 10.107h-6.03v6.03h6.03v-6.03zm0 10.114h-6.03v6.029h6.03v-6.029zm0 10.111h-6.03v6.029h6.03v-6.029zm9.562-171.858h-6.029v6.03h6.029v-6.03zm0 10.106h-6.029v6.029h6.029v-6.029zm0 10.115h-6.029v6.03h6.029v-6.03zm0 10.106h-6.029v6.029h6.029v-6.029zm0 10.105h-6.029v6.03h6.029v-6.03zm0 10.111h-6.029v6.03h6.029v-6.03zm0 30.327h-6.029v6.029h6.029v-6.029zm0 10.113h-6.029v6.029h6.029v-6.029zm0 10.111h-6.029v6.03h6.029v-6.03zm0 10.102h-6.029v6.029h6.029v-6.029zm0 10.111h-6.029v6.03h6.029v-6.03zm0 10.113h-6.029v6.03h6.029v-6.03zm0 10.106h-6.029v6.029h6.029v-6.029zm0 10.107h-6.029v6.03h6.029v-6.03zm0 10.114h-6.029v6.029h6.029v-6.029zm0 10.111h-6.029v6.029h6.029v-6.029zm0 10.109h-6.029v6.03h6.029v-6.03zm0 20.217h-6.029v6.03h6.029v-6.03zm9.578-202.184h-6.029v6.03h6.029v-6.03zm0 10.106h-6.029v6.029h6.029v-6.029zm0 10.115h-6.029v6.03h6.029v-6.03zm0 10.106h-6.029v6.029h6.029v-6.029zm0 10.105h-6.029v6.03h6.029v-6.03zm0 10.111h-6.029v6.03h6.029v-6.03zm0 30.327h-6.029v6.029h6.029v-6.029zm0 10.113h-6.029v6.029h6.029v-6.029zm0 10.111h-6.029v6.03h6.029v-6.03zm0 10.102h-6.029v6.029h6.029v-6.029zm0 30.33h-6.029v6.029h6.029v-6.029zm0 10.107h-6.029v6.03h6.029v-6.03zm0 10.114h-6.029v6.029h6.029v-6.029zm0 10.111h-6.029v6.029h6.029v-6.029zm0 10.109h-6.029v6.03h6.029v-6.03zm0 20.217h-6.029v6.03h6.029v-6.03zm0 10.106h-6.029v6.029h6.029v-6.029zm86.907-118.29h-6.03v6.03h6.03v-6.03zm0 10.106h-6.03v6.029h6.03v-6.029zm0 10.111h-6.03v6.03h6.03v-6.03zm0 10.108h-6.03v6.029h6.03v-6.029zm0 10.105h-6.03v6.03h6.03v-6.03zm0 10.113h-6.03v6.03h6.03v-6.03zm0 10.106h-6.03v6.029h6.03v-6.029zm0 30.332h-6.03v6.029h6.03v-6.029zm0 10.105h-6.03v6.03h6.03v-6.03zm0 10.11h-6.03v6.029h6.03v-6.029zm9.578-111.196h-6.03v6.03h6.03v-6.03zm0 10.106h-6.03v6.029h6.03v-6.029zm0 10.111h-6.03v6.03h6.03v-6.03zm0 10.108h-6.03v6.029h6.03v-6.029zm0 10.105h-6.03v6.03h6.03v-6.03zm0 10.113h-6.03v6.03h6.03v-6.03zm0 10.106h-6.03v6.029h6.03v-6.029zm9.578-60.649h-6.03v6.03h6.03v-6.03zm0 10.106h-6.03v6.029h6.03v-6.029zm0 10.105h-6.03v6.03h6.03v-6.03zm0 10.114h-6.03v6.029h6.03v-6.029zm0 10.105h-6.03v6.03h6.03v-6.03zm0 10.113h-6.03v6.03h6.03v-6.03zm0 10.106h-6.03v6.029h6.03v-6.029zm9.578-60.649h-6.03v6.03h6.03v-6.03zm0 10.106h-6.03v6.029h6.03v-6.029zm0 10.105h-6.03v6.03h6.03v-6.03zm0 10.114h-6.03v6.029h6.03v-6.029zm0 10.105h-6.03v6.03h6.03v-6.03zm0 10.113h-6.03v6.03h6.03v-6.03zm0 10.106h-6.03v6.029h6.03v-6.029zm0 10.107h-6.03v6.03h6.03v-6.03zm0 10.112h-6.03v6.029h6.03v-6.029zm0 10.113h-6.03v6.029h6.03v-6.029zm0 10.105h-6.03v6.03h6.03v-6.03zm9.578-101.086h-6.029v6.03h6.029v-6.03zm0 10.106h-6.029v6.029h6.029v-6.029zm0 10.111h-6.029v6.03h6.029v-6.03zm0 10.108h-6.029v6.029h6.029v-6.029zm0 10.105h-6.029v6.03h6.029v-6.03zm0 10.113h-6.029v6.03h6.029v-6.03zm0 10.106h-6.029v6.029h6.029v-6.029zm0 10.107h-6.029v6.03h6.029v-6.03zm0 10.112h-6.029v6.029h6.029v-6.029zm0 10.113h-6.029v6.029h6.029v-6.029zm0 10.105h-6.029v6.03h6.029v-6.03zm0 10.11h-6.029v6.029h6.029v-6.029zm0 30.322h-6.029v6.029h6.029v-6.029zm0 10.113h-6.029v6.03h6.029v-6.03zm9.581-151.631h-6.032v6.03h6.032v-6.03zm0 10.106h-6.032v6.029h6.032v-6.029zm0 10.111h-6.032v6.03h6.032v-6.03zm0 30.326h-6.032v6.03h6.032v-6.03zm0 10.106h-6.032v6.029h6.032v-6.029zm0 10.107h-6.032v6.03h6.032v-6.03zm0 10.112h-6.032v6.029h6.032v-6.029zm0 10.113h-6.032v6.029h6.032v-6.029zm0 10.105h-6.032v6.03h6.032v-6.03zm0 10.11h-6.032v6.029h6.032v-6.029zm0 30.322h-6.032v6.029h6.032v-6.029zm0 10.113h-6.032v6.03h6.032v-6.03zm0 10.114h-6.032v6.029h6.032v-6.029zm100.38-222.403h-6.03v6.03h6.03v-6.03zm0 10.112h-6.03v6.029h6.03v-6.029zm0 10.107h-6.03v6.029h6.03v-6.029zm0 10.106h-6.03v6.029h6.03v-6.029zm0 10.115h-6.03v6.029h6.03v-6.029zm0 10.111h-6.03v6.03h6.03v-6.03zm0 10.107h-6.03v6.03h6.03v-6.03zm0 10.106h-6.03v6.029h6.03v-6.029zm0 10.105h-6.03v6.03h6.03v-6.03zm0 10.114h-6.03v6.029h6.03v-6.029zm0 10.105h-6.03v6.03h6.03v-6.03zm0 10.113h-6.03v6.03h6.03v-6.03zm0 10.106h-6.03v6.029h6.03v-6.029zm0 10.107h-6.03v6.03h6.03v-6.03zm0 10.112h-6.03v6.029h6.03v-6.029zm0 10.113h-6.03v6.029h6.03v-6.029zm0 10.105h-6.03v6.03h6.03v-6.03zm0 10.11h-6.03v6.029h6.03v-6.029zm0 10.111h-6.03v6.03h6.03v-6.03zm0 10.111h-6.03v6.03h6.03v-6.03zm0 10.1h-6.03v6.029h6.03v-6.029zm0 10.113h-6.03v6.03h6.03v-6.03zm0 10.114h-6.03v6.029h6.03v-6.029zm9.58-222.403h-6.03v6.03h6.03v-6.03zm0 10.112h-6.03v6.029h6.03v-6.029zm0 10.107h-6.03v6.029h6.03v-6.029zm0 10.106h-6.03v6.029h6.03v-6.029zm0 10.115h-6.03v6.029h6.03v-6.029zm0 10.111h-6.03v6.03h6.03v-6.03zm0 10.107h-6.03v6.03h6.03v-6.03zm0 10.106h-6.03v6.029h6.03v-6.029zm0 10.111h-6.03v6.03h6.03v-6.03zm0 10.108h-6.03v6.029h6.03v-6.029zm0 10.105h-6.03v6.03h6.03v-6.03zm0 10.113h-6.03v6.03h6.03v-6.03zm0 10.106h-6.03v6.029h6.03v-6.029zm0 10.107h-6.03v6.03h6.03v-6.03zm0 10.112h-6.03v6.029h6.03v-6.029zm0 10.113h-6.03v6.029h6.03v-6.029zm0 10.105h-6.03v6.03h6.03v-6.03zm0 10.11h-6.03v6.029h6.03v-6.029zm0 10.111h-6.03v6.03h6.03v-6.03zm9.58-181.965h-6.03v6.03h6.03v-6.03zm0 10.112h-6.03v6.029h6.03v-6.029zm0 10.107h-6.03v6.029h6.03v-6.029zm0 10.106h-6.03v6.029h6.03v-6.029zm0 10.115h-6.03v6.029h6.03v-6.029zm0 10.111h-6.03v6.03h6.03v-6.03zm0 10.107h-6.03v6.03h6.03v-6.03zm0 10.106h-6.03v6.029h6.03v-6.029zm0 10.111h-6.03v6.03h6.03v-6.03zm0 10.108h-6.03v6.029h6.03v-6.029zm0 10.105h-6.03v6.03h6.03v-6.03zm0 10.113h-6.03v6.03h6.03v-6.03zm0 10.106h-6.03v6.029h6.03v-6.029zm0 10.107h-6.03v6.03h6.03v-6.03zm0 10.112h-6.03v6.029h6.03v-6.029zm0 10.113h-6.03v6.029h6.03v-6.029zm0 10.105h-6.03v6.03h6.03v-6.03zm0 10.11h-6.03v6.029h6.03v-6.029zm0 10.111h-6.03v6.03h6.03v-6.03zm9.57-181.965h-6.03v6.03h6.03v-6.03zm0 10.112h-6.03v6.029h6.03v-6.029zm0 10.107h-6.03v6.029h6.03v-6.029zm0 10.106h-6.03v6.029h6.03v-6.029zm0 10.115h-6.03v6.029h6.03v-6.029zm0 10.111h-6.03v6.03h6.03v-6.03zm0 10.107h-6.03v6.03h6.03v-6.03zm0 10.106h-6.03v6.029h6.03v-6.029zm0 10.111h-6.03v6.03h6.03v-6.03zm0 10.108h-6.03v6.029h6.03v-6.029zm0 10.105h-6.03v6.03h6.03v-6.03zm0 10.113h-6.03v6.03h6.03v-6.03zm0 10.106h-6.03v6.029h6.03v-6.029zm0 10.107h-6.03v6.03h6.03v-6.03zm0 10.112h-6.03v6.029h6.03v-6.029zm9.56-141.526h-6.03v6.03h6.03v-6.03zm0 10.112h-6.03v6.029h6.03v-6.029zm0 10.107h-6.03v6.029h6.03v-6.029zm0 10.106h-6.03v6.029h6.03v-6.029zm0 10.115h-6.03v6.029h6.03v-6.029zm0 10.111h-6.03v6.03h6.03v-6.03zm0 10.107h-6.03v6.03h6.03v-6.03zm0 10.106h-6.03v6.029h6.03v-6.029zm0 10.111h-6.03v6.03h6.03v-6.03zm0 10.108h-6.03v6.029h6.03v-6.029zm0 10.105h-6.03v6.03h6.03v-6.03zm0 10.113h-6.03v6.03h6.03v-6.03zm0 10.106h-6.03v6.029h6.03v-6.029zm9.58-121.307h-6.03v6.03h6.03v-6.03zm0 10.112h-6.03v6.029h6.03v-6.029zm0 10.107h-6.03v6.029h6.03v-6.029zm0 10.106h-6.03v6.029h6.03v-6.029zm0 10.115h-6.03v6.029h6.03v-6.029zm0 10.111h-6.03v6.03h6.03v-6.03zm0 10.107h-6.03v6.03h6.03v-6.03zm0 10.106h-6.03v6.029h6.03v-6.029zm0 10.111h-6.03v6.03h6.03v-6.03zm0 10.108h-6.03v6.029h6.03v-6.029zm0 10.105h-6.03v6.03h6.03v-6.03zm0 10.113h-6.03v6.03h6.03v-6.03zM594.381 439.098h-6.029v6.029h6.029v-6.029zm0 10.105h-6.029v6.03h6.029v-6.03zm0 10.111h-6.029v6.03h6.029v-6.03zm0 10.114h-6.029v6.029h6.029v-6.029zm0 10.107h-6.029v6.03h6.029v-6.03zm0 10.106h-6.029v6.029h6.029v-6.029zm0 10.113h-6.029v6.029h6.029v-6.029zm0 10.111h-6.029v6.03h6.029v-6.03zm0 10.102h-6.029v6.029h6.029v-6.029zm0 10.111h-6.029v6.03h6.029v-6.03zm0 10.113h-6.029v6.03h6.029v-6.03zm0 10.106h-6.029v6.029h6.029v-6.029zm0 10.113h-6.029v6.03h6.029v-6.03zm0 10.108h-6.029v6.029h6.029v-6.029zm0 10.111h-6.029v6.029h6.029v-6.029zm0 10.109h-6.029v6.03h6.029v-6.03zm0 10.104h-6.029v6.029h6.029v-6.029zm0 20.219h-6.029v6.029h6.029v-6.029zm0 10.109h-6.029v6.029h6.029v-6.029zm0 10.109h-6.029v6.03h6.029v-6.03zm0 10.114h-6.029v6.029h6.029v-6.029zm0 10.097h-6.029v6.03h6.029v-6.03zm9.578-222.392h-6.029v6.029h6.029v-6.029zm0 10.105h-6.029v6.03h6.029v-6.03zm0 10.111h-6.029v6.03h6.029v-6.03zm0 10.114h-6.029v6.029h6.029v-6.029zm0 10.107h-6.029v6.03h6.029v-6.03zm0 10.106h-6.029v6.029h6.029v-6.029zm0 10.113h-6.029v6.029h6.029v-6.029zm0 10.111h-6.029v6.03h6.029v-6.03zm0 10.102h-6.029v6.029h6.029v-6.029zm0 10.111h-6.029v6.03h6.029v-6.03zm0 10.113h-6.029v6.03h6.029v-6.03zm0 10.106h-6.029v6.029h6.029v-6.029zm0 10.107h-6.029v6.03h6.029v-6.03zm0 10.114h-6.029v6.029h6.029v-6.029zm0 10.111h-6.029v6.029h6.029v-6.029zm0 10.109h-6.029v6.03h6.029v-6.03zm0 60.655h-6.029v6.029h6.029v-6.029zm0 10.097h-6.029v6.03h6.029v-6.03zm9.578-222.392h-6.029v6.029h6.029v-6.029zm0 10.105h-6.029v6.03h6.029v-6.03zm0 10.111h-6.029v6.03h6.029v-6.03zm0 10.114h-6.029v6.029h6.029v-6.029zm0 10.107h-6.029v6.03h6.029v-6.03zm0 10.106h-6.029v6.029h6.029v-6.029zm0 10.113h-6.029v6.029h6.029v-6.029zm0 10.111h-6.029v6.03h6.029v-6.03zm0 10.102h-6.029v6.029h6.029v-6.029zm0 10.111h-6.029v6.03h6.029v-6.03zm0 10.113h-6.029v6.03h6.029v-6.03zm0 10.106h-6.029v6.029h6.029v-6.029zm0 10.107h-6.029v6.03h6.029v-6.03zm0 10.114h-6.029v6.029h6.029v-6.029zm0 10.111h-6.029v6.029h6.029v-6.029zm0 10.109h-6.029v6.03h6.029v-6.03zm0 20.217h-6.029v6.03h6.029v-6.03zm0 10.106h-6.029v6.029h6.029v-6.029zm0 10.109h-6.029v6.029h6.029v-6.029zm0 10.109h-6.029v6.03h6.029v-6.03zm0 20.211h-6.029v6.03h6.029v-6.03zM780.6 509.865h-6.03v6.03h6.03v-6.03zm0 10.102h-6.03v6.029h6.03v-6.029zm0 10.111h-6.03v6.03h6.03v-6.03zm0 10.113h-6.03v6.03h6.03v-6.03zm0 10.106h-6.03v6.029h6.03v-6.029zm0 10.107h-6.03v6.03h6.03v-6.03zm0 10.114h-6.03v6.029h6.03v-6.029zm0 10.111h-6.03v6.029h6.03v-6.029zm0 10.109h-6.03v6.03h6.03v-6.03zm0 10.104h-6.03v6.029h6.03v-6.029zm0 10.113h-6.03v6.03h6.03v-6.03zm0 10.106h-6.03v6.029h6.03v-6.029zm0 10.109h-6.03v6.029h6.03v-6.029zm0 20.223h-6.03v6.029h6.03v-6.029zm0 10.097h-6.03v6.03h6.03v-6.03zm0 10.115h-6.03v6.03h6.03v-6.03zm0 10.112h-6.03v6.029h6.03v-6.029zm0 20.215h-6.03v6.029h6.03v-6.029zm0 10.111h-6.03v6.029h6.03v-6.029zm0 10.115h-6.03v6.03h6.03v-6.03zm9.578-212.293h-6.03v6.03h6.03v-6.03zm0 10.102h-6.03v6.029h6.03v-6.029zm0 10.111h-6.03v6.03h6.03v-6.03zm0 10.113h-6.03v6.03h6.03v-6.03zm0 10.106h-6.03v6.029h6.03v-6.029zm0 10.107h-6.03v6.03h6.03v-6.03zm0 10.114h-6.03v6.029h6.03v-6.029zm0 10.111h-6.03v6.029h6.03v-6.029zm0 10.109h-6.03v6.03h6.03v-6.03zm0 10.104h-6.03v6.029h6.03v-6.029zm0 10.113h-6.03v6.03h6.03v-6.03zm0 10.106h-6.03v6.029h6.03v-6.029zm0 10.109h-6.03v6.029h6.03v-6.029zm0 30.32h-6.03v6.03h6.03v-6.03zm0 10.115h-6.03v6.03h6.03v-6.03zm0 20.219h-6.03v6.03h6.03v-6.03zm0 10.108h-6.03v6.029h6.03v-6.029zm0 10.111h-6.03v6.029h6.03v-6.029zm0 10.115h-6.03v6.03h6.03v-6.03zm9.578-212.293h-6.029v6.03h6.029v-6.03zm0 10.102h-6.029v6.029h6.029v-6.029zm0 10.111h-6.029v6.03h6.029v-6.03zm0 10.113h-6.029v6.03h6.029v-6.03zm0 10.106h-6.029v6.029h6.029v-6.029zm0 10.107h-6.029v6.03h6.029v-6.03zm0 10.114h-6.029v6.029h6.029v-6.029zm0 10.111h-6.029v6.029h6.029v-6.029zm0 10.109h-6.029v6.03h6.029v-6.03zm0 10.104h-6.029v6.029h6.029v-6.029zm0 10.113h-6.029v6.03h6.029v-6.03zm0 10.106h-6.029v6.029h6.029v-6.029zm0 10.109h-6.029v6.029h6.029v-6.029zm0 10.109h-6.029v6.03h6.029v-6.03zm0 20.211h-6.029v6.03h6.029v-6.03zm0 20.227h-6.029v6.029h6.029v-6.029zm0 10.107h-6.029v6.03h6.029v-6.03zm0 10.108h-6.029v6.029h6.029v-6.029zm0 10.111h-6.029v6.029h6.029v-6.029zm0 10.115h-6.029v6.03h6.029v-6.03zm-58.176-154.66h-6.029v6.03h6.029v-6.03zm0 10.109h-6.029v6.03h6.029v-6.03zm0 10.112h-6.029v6.029h6.029v-6.029zm0 10.113h-6.029v6.029h6.029v-6.029zm0 10.109h-6.029v6.03h6.029v-6.03zm0 10.106h-6.029v6.029h6.029v-6.029zm0 30.324h-6.029v6.03h6.029v-6.03zm0 10.111h-6.029v6.03h6.029v-6.03zm0 10.114h-6.029v6.029h6.029v-6.029zm0 10.107h-6.029v6.03h6.029v-6.03zm0 10.106h-6.029v6.029h6.029v-6.029zm0 10.109h-6.029v6.029h6.029v-6.029zm0 10.109h-6.029v6.03h6.029v-6.03zm9.578-141.529h-6.029v6.03h6.029v-6.03zm0 10.109h-6.029v6.03h6.029v-6.03zm0 10.112h-6.029v6.029h6.029v-6.029zm0 10.113h-6.029v6.029h6.029v-6.029zm0 10.109h-6.029v6.03h6.029v-6.03zm0 10.106h-6.029v6.029h6.029v-6.029zm0 30.324h-6.029v6.03h6.029v-6.03zm0 10.111h-6.029v6.03h6.029v-6.03zm0 10.114h-6.029v6.029h6.029v-6.029zm0 10.107h-6.029v6.03h6.029v-6.03zm0 10.106h-6.029v6.029h6.029v-6.029zm0 10.109h-6.029v6.029h6.029v-6.029zm0 20.215h-6.029v6.029h6.029v-6.029zm318.162-196.145h-6.03v6.03h6.03v-6.03zm0 10.108h-6.03v6.029h6.03v-6.029zm0 10.105h-6.03v6.03h6.03v-6.03zm0 10.113h-6.03v6.03h6.03v-6.03zm0 10.106h-6.03v6.029h6.03v-6.029zm0 10.107h-6.03v6.03h6.03v-6.03zm0 10.112h-6.03v6.029h6.03v-6.029zm0 10.113h-6.03v6.029h6.03v-6.029zm0 10.105h-6.03v6.03h6.03v-6.03zm0 10.11h-6.03v6.029h6.03v-6.029zm0 10.111h-6.03v6.03h6.03v-6.03zm0 20.211h-6.03v6.029h6.03v-6.029zm0 10.113h-6.03v6.03h6.03v-6.03zm0 10.114h-6.03v6.029h6.03v-6.029zm0 10.105h-6.03v6.03h6.03v-6.03zm0 10.109h-6.03v6.03h6.03v-6.03zm0 10.112h-6.03v6.029h6.03v-6.029zm0 10.105h-6.03v6.03h6.03v-6.03zm0 10.108h-6.03v6.029h6.03v-6.029zm9.58-192.067h-6.03v6.03h6.03v-6.03zm0 10.108h-6.03v6.029h6.03v-6.029zm0 10.105h-6.03v6.03h6.03v-6.03zm0 10.113h-6.03v6.03h6.03v-6.03zm0 10.106h-6.03v6.029h6.03v-6.029zm0 10.107h-6.03v6.03h6.03v-6.03zm0 10.112h-6.03v6.029h6.03v-6.029zm0 10.113h-6.03v6.029h6.03v-6.029zm0 10.105h-6.03v6.03h6.03v-6.03zm0 10.11h-6.03v6.029h6.03v-6.029zm0 10.111h-6.03v6.03h6.03v-6.03zm0 10.111h-6.03v6.03h6.03v-6.03zm0 10.1h-6.03v6.029h6.03v-6.029zm0 10.113h-6.03v6.03h6.03v-6.03zm0 10.114h-6.03v6.029h6.03v-6.029zm0 10.105h-6.03v6.03h6.03v-6.03zm0 10.109h-6.03v6.03h6.03v-6.03zm0 10.112h-6.03v6.029h6.03v-6.029zm0 10.105h-6.03v6.03h6.03v-6.03zm0 10.108h-6.03v6.029h6.03v-6.029zm-56.75-152.7h-6.03v6.03h6.03v-6.03zm0 10.116h-6.03v6.029h6.03v-6.029zm0 10.105h-6.03v6.03h6.03v-6.03zm0 10.108h-6.03v6.029h6.03v-6.029zm0 10.111h-6.03v6.029h6.03v-6.029zm0 10.113h-6.03v6.03h6.03v-6.03zm0 10.098h-6.03v6.029h6.03v-6.029zm0 10.115h-6.03v6.03h6.03v-6.03zm0 10.111h-6.03v6.03h6.03v-6.03zm0 10.108h-6.03v6.029h6.03v-6.029zm9.58-90.985h-6.03v6.03h6.03v-6.03zm0 10.116h-6.03v6.029h6.03v-6.029zm0 10.105h-6.03v6.03h6.03v-6.03zm0 10.108h-6.03v6.029h6.03v-6.029zm0 10.111h-6.03v6.029h6.03v-6.029zm0 10.113h-6.03v6.03h6.03v-6.03zm0 10.098h-6.03v6.029h6.03v-6.029zm0 10.115h-6.03v6.03h6.03v-6.03zm0 10.111h-6.03v6.03h6.03v-6.03z"/><path fill="#F5F5F5" d="M978.844 259.723h-10.121v482.811h10.121V259.723zm-190.382 0H778.34v482.811h10.122V259.723zm-190.387 0h-10.122v482.811h10.122V259.723z"/><path fill="#F0F0F0" d="M855.143 680.783h-30.866v-2.055c0-4.033 4.519-7.24 9.894-7.022l12.091.488c4.98.201 8.881 3.285 8.881 7.022v1.567z"/><path fill="#E6E6E6" d="M782.049 624.808a4.002 4.002 0 0 0-3.996-3.81h-27.365a4.002 4.002 0 0 0-3.997 3.81l6.496 57.027h40.843l-11.981-57.027zm74.334-87.673h-10.196l-11.46 107.701h10.195c1.689 0 3.205-1.37 3.384-3.06l10.808-101.584c.182-1.689-1.042-3.057-2.731-3.057z"/><path fill="#EBEBEB" d="M840.605 644.837H687.794c-1.689 0-2.913-1.371-2.734-3.06l10.809-101.584c.179-1.69 1.694-3.06 3.384-3.06h152.811c1.689 0 2.913 1.37 2.734 3.06l-10.809 101.584c-.179 1.689-1.694 3.06-3.384 3.06z"/><path fill="#FAFAFA" d="M837.753 634.892H693.651c-1.474 0-2.543-1.194-2.386-2.67l9.431-88.628c.157-1.474 1.478-2.67 2.952-2.67h144.101c1.474 0 2.543 1.194 2.386 2.67l-9.43 88.628c-.157 1.476-1.479 2.67-2.952 2.67z"/><path fill="#E6E6E6" d="M795.597 677.412h-50.274a2.195 2.195 0 0 0-2.194 2.195v.039c0 1.211.983 2.194 2.194 2.194h50.274a2.195 2.195 0 0 0 2.194-2.194v-.039a2.195 2.195 0 0 0-2.194-2.195z"/><path fill="#E6E6E6" d="M919.291 680.549H794.887v18.767h124.404v-18.767zm-346.66 209.607h-3.104a.72.72 0 0 1-.713-.704l-4.912-190.136h14.352l-4.909 190.136a.718.718 0 0 1-.714.704z"/><path fill="#F0F0F0" d="M461.909 890.159h-7.175l20.249-190.837h14.354l-27.428 190.837z"/><path fill="#E6E6E6" d="M924.149 890.157 896.645 699.32h14.351l20.251 190.837h-7.098z"/><path fill="#F5F5F5" d="M830.367 680.549H466.684v18.767h363.683v-18.767z"/><path fill="#F0F0F0" d="M819.022 890.159h-8.246l-.004-.007-3.053-190.832h14.351l-3.048 190.839z"/><path fill="#F5F5F5" d="M702.836 677.173h-3.811a.728.728 0 0 1-.728-.728v-4.031c0-.402.326-.728.728-.728h2.737c.328 0 .617.22.703.539l1.074 4.031a.728.728 0 0 1-.703.917z"/><path fill="#F5F5F5" d="M708.101 677.173h-3.81a.729.729 0 0 1-.729-.728v-4.031c0-.402.327-.728.729-.728h2.736c.329 0 .618.22.704.539l1.074 4.031a.73.73 0 0 1-.704.917z"/><path fill="#F5F5F5" d="M713.375 677.173h-3.811a.728.728 0 0 1-.728-.728v-4.031c0-.402.326-.728.728-.728h2.737c.328 0 .618.22.703.539l1.074 4.031a.728.728 0 0 1-.703.917z"/><path fill="#F5F5F5" d="M718.636 677.173h-3.81a.728.728 0 0 1-.728-.728v-4.031c0-.402.326-.728.728-.728h2.736c.329 0 .618.22.704.539l1.074 4.031a.73.73 0 0 1-.704.917z"/><path fill="#F5F5F5" d="M723.894 677.173h-3.81a.729.729 0 0 1-.729-.728v-4.031c0-.402.327-.728.729-.728h2.736c.329 0 .618.22.704.539l1.074 4.031a.73.73 0 0 1-.704.917z"/><path fill="#F5F5F5" d="M729.171 677.173h-3.81a.728.728 0 0 1-.728-.728v-4.031c0-.402.326-.728.728-.728h2.736c.329 0 .618.22.704.539l1.074 4.031a.729.729 0 0 1-.704.917z"/><path fill="#F5F5F5" d="M734.429 677.173h-3.81a.728.728 0 0 1-.728-.728v-4.031c0-.402.326-.728.728-.728h2.736c.329 0 .618.22.704.539l1.074 4.031a.73.73 0 0 1-.704.917z"/><path fill="#F5F5F5" d="M739.695 677.173h-3.81a.728.728 0 0 1-.729-.728v-4.031c0-.402.326-.728.729-.728h2.736c.329 0 .618.22.704.539l1.074 4.031a.731.731 0 0 1-.704.917z"/><path fill="#F5F5F5" d="M744.964 677.173h-3.81a.728.728 0 0 1-.728-.728v-4.031c0-.402.326-.728.728-.728h2.736c.329 0 .618.22.704.539l1.074 4.031a.729.729 0 0 1-.704.917z"/><path fill="#F5F5F5" d="M750.23 677.173h-3.81a.729.729 0 0 1-.729-.728v-4.031c0-.402.327-.728.729-.728h2.736c.329 0 .618.22.704.539l1.074 4.031a.73.73 0 0 1-.704.917z"/><path fill="#F5F5F5" d="M755.496 677.173h-3.811a.728.728 0 0 1-.728-.728v-4.031c0-.402.326-.728.728-.728h2.737c.328 0 .618.22.703.539l1.074 4.031a.728.728 0 0 1-.703.917z"/><path fill="#F5F5F5" d="M760.765 677.173h-3.81a.728.728 0 0 1-.728-.728v-4.031c0-.402.326-.728.728-.728h2.736c.329 0 .618.22.704.539l1.074 4.031a.73.73 0 0 1-.704.917z"/><path fill="#F5F5F5" d="M766.031 677.173h-3.811a.728.728 0 0 1-.728-.728v-4.031c0-.402.326-.728.728-.728h2.737a.73.73 0 0 1 .704.539l1.074 4.031a.731.731 0 0 1-.704.917z"/><path fill="#F5F5F5" d="M771.3 677.173h-3.81a.728.728 0 0 1-.728-.728v-4.031c0-.402.326-.728.728-.728h2.736c.329 0 .618.22.704.539l1.074 4.031a.729.729 0 0 1-.704.917z"/><path fill="#F5F5F5" d="M776.57 677.173h-3.811a.728.728 0 0 1-.728-.728v-4.031c0-.402.326-.728.728-.728h2.737a.73.73 0 0 1 .704.539l1.074 4.031a.73.73 0 0 1-.704.917z"/><path fill="#EBEBEB" d="M780.402 674.43h-85.207v6.345h85.207v-6.345z"/><path fill="#E0E0E0" d="M629.887 716.475H498.122c-6.322 0-11.446 5.124-11.446 11.446v8.658h154.657v-8.658c0-6.322-5.124-11.446-11.446-11.446zM491.708 851.043l49.555-4.87v-69.644h19.641v69.625l49.756 4.889a9.65 9.65 0 0 1 8.704 9.602v7.442h-136.36v-7.442a9.648 9.648 0 0 1 8.704-9.602z"/><path fill="#E0E0E0" d="M601.273 877.314c0 7.091 5.75 12.841 12.842 12.841 7.091 0 12.841-5.75 12.841-12.841 0-7.091-5.75-12.841-12.841-12.841-7.092 0-12.842 5.75-12.842 12.841zm-100.188 0c0 7.091-5.75 12.841-12.842 12.841-7.091 0-12.841-5.75-12.841-12.841 0-7.091 5.75-12.841 12.841-12.841 7.094 0 12.842 5.75 12.842 12.841z"/><path fill="#E6E6E6" d="M547.347 791.492h7.481c5.225 0 9.462-4.237 9.462-9.463v-52.568h-26.403v52.568c0 5.228 4.234 9.463 9.46 9.463z"/><path fill="#EBEBEB" d="M577.179 717.772c-6.851-25.913-22.282-92.95-25.531-181.519-.502-13.687-11.791-24.503-25.488-24.503h-45.718c-14.042 0-25.451 11.336-25.513 25.378-.179 41.65 2.732 126.791 26.224 195.996l87.015-3.205c6.206-.23 10.597-6.145 9.011-12.147z"/><path fill="#E6E6E6" d="M564.883 728.484s-23.473-83.513-27.354-189.26c-.464-12.623-10.877-22.603-23.51-22.603h-42.172c-12.954 0-23.478 10.455-23.532 23.409-.164 38.418 2.521 124.621 24.189 188.456h92.379v-.002z"/><path fill="#E6E6E6" d="M546.777 667.771s50.112-10.137 98.492-5.228c48.381 4.909-22.762 68.127-22.762 68.127h-9.987s37.7-40.083 35.599-50.063c-2.099-9.98-97.046 3.175-97.046 3.175l-4.296-16.011z"/><path fill="#E0E0E0" d="M472.5 728.489h82.056s-23.478-83.52-27.364-189.26c-.466-12.623-10.87-22.6-23.512-22.6h-31.834c-12.969 0-23.478 10.458-23.547 23.407-.154 38.408 2.53 124.61 24.201 188.453z"/><path fill="#E0E0E0" d="M642.238 726.529H475.441a4.605 4.605 0 0 0-4.605 4.605v.844a4.606 4.606 0 0 0 4.605 4.605h166.797a4.606 4.606 0 0 0 4.605-4.605v-.844a4.605 4.605 0 0 0-4.605-4.605zm622.472 79.807c.03-.905 3.07-90.825 17.7-105.046 14.22-13.829 30.55-.515 31.24.059l1.46-1.758c-.18-.157-18.61-15.198-34.3.058-15.28 14.862-18.27 102.877-18.39 106.616l2.29.071z"/><path fill="#E0E0E0" d="M1263.44 824.008c.11-1.074 10-107.947-29.03-152.74l-1.73 1.503c38.39 44.05 28.59 149.949 28.49 151.013l2.27.224z"/><path fill="#E0E0E0" d="m1264.89 812.703 2.28-.152c-.08-1.211-7.63-121.499 20.99-147.831l-1.55-1.685c-29.43 27.07-22.05 144.673-21.72 149.668z"/><path fill="#E0E0E0" d="m1261.16 812.637 2.29-.017c-.02-3.313-.94-81.25-23.08-93.936-4.92-2.823-9.74-3.293-14.32-1.398-13.39 5.537-20.03 29.36-20.3 30.371l2.21.603c.06-.238 6.61-23.755 18.96-28.86 3.9-1.606 8.04-1.182 12.31 1.267 21.01 12.042 21.93 91.173 21.93 91.97zm8.63.058 2.28-.13c-.03-.615-3.34-61.587 13.12-83.071 3.98-5.203 8.31-7.685 12.88-7.366 10.79.753 19.83 16.531 19.92 16.691l1.99-1.128c-.39-.694-9.73-17.005-21.74-17.846-5.38-.382-10.39 2.401-14.87 8.259-16.97 22.156-13.73 82.053-13.58 84.591z"/><path fill="#E0E0E0" d="M1266.18 820.989c.45-5.914 10.75-145.136-7.38-169.669l-1.84 1.359c17.63 23.855 7.04 166.696 6.94 168.136l2.28.174z"/><path fill="#EBEBEB" d="M1221.11 731.397s10.88 4.012 7.64 13.481c-3.23 9.47-37.64 25.057-37.64 25.057s-14.41-13.209-1.18-34.691c13.23-21.482 30.88-10.624 31.18-3.847zm47.3-18.03s-11.59-.485-12.25 9.502c-.65 9.987 25.11 37.614 25.11 37.614s18.38-6.645 14.43-31.567c-3.95-24.918-24.41-21.691-27.29-15.549zm9.82-47.802s-7.73-.829-7.11-5.534c.62-4.706 30.03-16.816 47.38 2.768 0 0-11.11 19.084-27.17 19.334-16.06.248-13.1-16.568-13.1-16.568zm-14.41-11.428s7 3.381 8.96-.942c1.96-4.322-16.59-30.154-41.68-22.712 0 0-.66 22.072 12.84 30.779 13.5 8.71 19.88-7.125 19.88-7.125z"/><path fill="#EBEBEB" d="M1300.41 727.59s-5.34-4.306.42-6.407c5.75-2.101 33.98-1.503 34.28 26.462 0 0-32.89 5.465-36.95-5.188-4.08-10.652 2.25-14.867 2.25-14.867zm-67.06-62.722s5.33-4.306-.42-6.407c-5.75-2.102-33.99-1.506-34.28 26.462 0 0 32.88 5.465 36.95-5.189 4.07-10.651-2.25-14.866-2.25-14.866zm17.38 22.529s.47-5.232-3.76-3.183c-4.22 2.05-18.94 17.929-3.68 32.997 0 0 20.53-15.21 16.83-23.132-3.7-7.92-9.39-6.682-9.39-6.682zm54.43 7.456s-3.19-4.176 1.48-4.696c4.67-.517 25.59 5.066 20.71 25.95 0 0-25.48-1.915-26.57-10.59-1.09-8.676 4.38-10.664 4.38-10.664z"/><path fill="#F0F0F0" d="M1219.07 890.156h87.45l9.43-95.736h-106.31l9.43 95.736z"/><path fill="#E6E6E6" d="M1204.97 804.98h115.65v-21.126h-115.65v21.126z"/><path fill="#F5F5F5" d="M899.994 1000.38c262.566 0 475.416-12.435 475.416-27.768 0-15.334-212.85-27.764-475.416-27.764-262.565 0-475.416 12.43-475.416 27.764 0 15.333 212.851 27.768 475.416 27.768z"/><path fill="#407BFF" d="M726.066 172.51c7.045 12.206 2.862 27.811-9.344 34.855-12.206 7.045-27.811 2.862-34.855-9.344-7.045-12.206-2.862-27.811 9.344-34.856 12.206-7.044 27.811-2.861 34.855 9.345z"/><path fill="#fff" d="M726.066 172.51c7.045 12.206 2.862 27.811-9.344 34.855-12.206 7.045-27.811 2.862-34.855-9.344-7.045-12.206-2.862-27.811 9.344-34.856 12.206-7.044 27.811-2.861 34.855 9.345z" opacity=".6"/><path fill="#fff" d="M697.551 183.027c.787 1.366 2.369 1.285 4.298.817l-2.92-5.059c-1.837 1.479-2.099 2.992-1.378 4.242zm8.949 3.506 2.903 5.029c1.896-1.511 2.217-2.985 1.513-4.208-.804-1.39-2.432-1.322-4.416-.821z" opacity=".3"/><path fill="#fff" d="M693.088 166.406c-10.419 6.013-13.989 19.332-7.977 29.75 6.013 10.419 19.334 13.989 29.75 7.977 10.419-6.013 13.989-19.332 7.977-29.75-6.015-10.419-19.334-13.989-29.75-7.977zm18.108 28.257 1.836 3.183-2.329 1.346-1.822-3.153c-2.884 1.436-6.108 2.086-8.325 1.66l-.377-3.61c2.047.334 4.656-.073 6.932-1.12l-3.281-5.684c-3.597 1.054-7.569 1.984-9.85-1.969-1.672-2.898-1.03-6.64 3.158-9.627l-1.853-3.212 2.329-1.346 1.822 3.153c2.167-1.098 4.661-1.704 6.77-1.596l.49 3.543a13.591 13.591 0 0 0-5.49 1.123l3.313 5.741c3.597-1.055 7.608-2.045 9.891 1.907 1.673 2.901.986 6.63-3.214 9.661z" opacity=".3"/><path fill="#407BFF" d="M777.069 215.143c-2.487 8.954-11.76 14.199-20.715 11.713-8.954-2.487-14.199-11.76-11.713-20.715 2.486-8.954 11.76-14.199 20.714-11.713 8.958 2.486 14.2 11.76 11.714 20.715z"/><path fill="#fff" d="M777.069 215.143c-2.487 8.954-11.76 14.199-20.715 11.713-8.954-2.487-14.199-11.76-11.713-20.715 2.486-8.954 11.76-14.199 20.714-11.713 8.958 2.486 14.2 11.76 11.714 20.715z" opacity=".6"/><path fill="#fff" d="M758.94 206.583c-.277 1.001.49 1.709 1.603 2.398l1.03-3.712c-1.547-.179-2.378.397-2.633 1.314zm2.499 5.835-1.025 3.69c1.587.194 2.428-.336 2.678-1.233.284-1.02-.501-1.756-1.653-2.457z" opacity=".3"/><path fill="#fff" d="M764.7 196.806c-7.643-2.121-15.56 2.354-17.681 9.997-2.121 7.643 2.354 15.56 9.997 17.681 7.643 2.121 15.56-2.354 17.681-9.997 2.121-7.645-2.354-15.56-9.997-17.681zm-4.923 21.578-.648 2.334-1.709-.473.643-2.315c-2.008-.694-3.806-1.91-4.627-3.148l1.523-1.847c.789 1.118 2.187 2.158 3.729 2.742l1.157-4.171c-2.157-1.207-4.43-2.646-3.626-5.544.591-2.126 2.648-3.553 5.988-2.962l.654-2.357 1.709.474-.642 2.314c1.52.513 2.957 1.405 3.879 2.447l-1.439 1.869a8.92 8.92 0 0 0-3.065-2.062l-1.17 4.21c2.158 1.206 4.477 2.636 3.673 5.534-.591 2.128-2.663 3.531-6.029 2.955z" opacity=".3"/><path fill="#407BFF" d="M738.442 249.639c2.541 5.796-.1 12.554-5.897 15.094-5.796 2.541-12.554-.1-15.094-5.897-2.541-5.796.1-12.554 5.897-15.094 5.794-2.541 12.554.1 15.094 5.897z"/><path fill="#fff" d="M738.442 249.639c2.541 5.796-.1 12.554-5.897 15.094-5.796 2.541-12.554-.1-15.094-5.897-2.541-5.796.1-12.554 5.897-15.094 5.794-2.541 12.554.1 15.094 5.897z" opacity=".6"/><path fill="#fff" d="M725.185 252.92c.284.648.993.692 1.878.577l-1.052-2.403c-.893.569-1.086 1.233-.826 1.826zm3.819 2.006 1.047 2.388c.919-.581 1.138-1.221.883-1.802-.29-.662-1.02-.711-1.93-.586z" opacity=".3"/><path fill="#fff" d="M724.019 245.282c-4.948 2.167-7.202 7.937-5.034 12.885 2.167 4.948 7.937 7.201 12.885 5.034 4.948-2.168 7.201-7.937 5.034-12.885-2.168-4.949-7.937-7.202-12.885-5.034zm6.684 13.51.662 1.513-1.106.485-.657-1.498c-1.359.498-2.83.628-3.798.329l.009-1.631c.898.25 2.082.199 3.149-.157l-1.182-2.699c-1.658.291-3.477.51-4.298-1.366-.604-1.378-.13-3.016 1.888-4.142l-.67-1.525 1.106-.485.657 1.498c1.023-.383 2.165-.53 3.102-.378l.044 1.606a6.12 6.12 0 0 0-2.506.229l1.194 2.726c1.658-.292 3.499-.534 4.321 1.341.601 1.376.108 3.009-1.915 4.154z" opacity=".3"/><path fill="#407BFF" d="M1174.18 810.001c-4.98 13.182-19.71 19.834-32.89 14.851-13.18-4.98-19.83-19.704-14.85-32.886 4.98-13.182 19.7-19.834 32.88-14.854 13.19 4.982 19.84 19.707 14.86 32.889z"/><path fill="#fff" d="M1174.18 810.001c-4.98 13.182-19.71 19.834-32.89 14.851-13.18-4.98-19.83-19.704-14.85-32.886 4.98-13.182 19.7-19.834 32.88-14.854 13.19 4.982 19.84 19.707 14.86 32.889z" opacity=".6"/><path fill="#fff" d="M1147.97 794.599c-.56 1.474.51 2.646 2.09 3.843l2.07-5.463c-2.31-.488-3.65.269-4.16 1.62zm2.97 9.151-2.05 5.434c2.37.507 3.71-.174 4.21-1.496.57-1.506-.52-2.722-2.16-3.938z" opacity=".3"/><path fill="#fff" d="M1158.01 780.615c-11.25-4.252-23.82 1.424-28.07 12.677-4.25 11.252 1.42 23.821 12.67 28.07 11.26 4.252 23.82-1.424 28.08-12.677 4.25-11.252-1.43-23.821-12.68-28.07zm-10.39 31.913-1.3 3.437-2.52-.951 1.29-3.406c-2.94-1.322-5.48-3.406-6.56-5.389l2.55-2.58c1.04 1.795 3.01 3.556 5.26 4.652l2.32-6.14c-3.09-2.116-6.33-4.603-4.71-8.869 1.18-3.131 4.48-5.005 9.45-3.656l1.31-3.47 2.51.952-1.29 3.406c2.23.98 4.28 2.525 5.53 4.227l-2.43 2.623a13.563 13.563 0 0 0-4.35-3.535l-2.34 6.201c3.09 2.116 6.4 4.592 4.79 8.859-1.18 3.136-4.51 4.968-9.51 3.639z" opacity=".3"/><path fill="#407BFF" d="M1193.88 857.309c-8.51 3.749-18.44-.103-22.19-8.607-3.75-8.503.11-18.436 8.61-22.185 8.5-3.749 18.44.103 22.18 8.606 3.76 8.504-.1 18.437-8.6 22.186z"/><path fill="#fff" d="M1193.88 857.309c-8.51 3.749-18.44-.103-22.19-8.607-3.75-8.503.11-18.436 8.61-22.185 8.5-3.749 18.44.103 22.18 8.606 3.76 8.504-.1 18.437-8.6 22.186z" opacity=".6"/><path fill="#fff" d="M1189.02 837.857c-.95.419-1.01 1.461-.84 2.759l3.52-1.555c-.84-1.307-1.81-1.586-2.68-1.204zm-2.95 5.62-3.5 1.544c.85 1.349 1.79 1.668 2.65 1.29.97-.424 1.04-1.498.85-2.834z" opacity=".3"/><path fill="#fff" d="M1200.23 836.117c-3.2-7.257-11.68-10.546-18.94-7.346-7.25 3.2-10.54 11.679-7.34 18.937 3.2 7.258 11.68 10.546 18.93 7.346 7.26-3.2 10.55-11.679 7.35-18.937zm-19.81 9.862-2.22.979-.72-1.623 2.2-.969c-.74-1.994-.93-4.154-.5-5.576l2.4.01c-.37 1.319-.29 3.058.24 4.624l3.96-1.745c-.44-2.433-.76-5.106 1.99-6.319 2.02-.89 4.43-.204 6.08 2.756l2.24-.986.72 1.623-2.2.969c.57 1.501.78 3.178.56 4.553l-2.35.071a8.86 8.86 0 0 0-.35-3.678l-4 1.763c.43 2.433.8 5.135-1.95 6.349-2.02.885-4.42.169-6.1-2.801z" opacity=".3"/><path fill="#407BFF" d="M684.739 857.198c.492 6.309-4.223 11.823-10.532 12.316-6.309.493-11.823-4.222-12.316-10.531-.493-6.309 4.222-11.824 10.531-12.317 6.309-.493 11.824 4.223 12.317 10.532z"/><path fill="#fff" d="M684.739 857.198c.492 6.309-4.223 11.823-10.532 12.316-6.309.493-11.823-4.222-12.316-10.531-.493-6.309 4.222-11.824 10.531-12.317 6.309-.493 11.824 4.223 12.317 10.532z" opacity=".6"/><path fill="#fff" d="M671.137 855.94c.054.706.711.978 1.584 1.162l-.203-2.614c-1.033.243-1.432.804-1.381 1.452zm2.953 3.156.203 2.599c1.06-.245 1.476-.78 1.427-1.413-.056-.718-.728-1.007-1.63-1.186z" opacity=".3"/><path fill="#fff" d="M672.551 848.341c-5.387.422-9.411 5.127-8.989 10.514a9.779 9.779 0 0 0 10.514 8.989c5.387-.422 9.411-5.127 8.989-10.514-.422-5.387-5.127-9.411-10.514-8.989zm1.871 14.955.127 1.645-1.204.093-.127-1.63c-1.447.024-2.879-.336-3.696-.94l.545-1.535c.765.533 1.9.871 3.026.888l-.231-2.937c-1.662-.27-3.452-.662-3.612-2.705-.117-1.498.868-2.891 3.144-3.291l-.13-1.66 1.204-.093.127 1.631c1.091-.025 2.219.211 3.053.664l-.488 1.53a6.097 6.097 0 0 0-2.442-.608l.23 2.967c1.663.27 3.48.645 3.639 2.688.123 1.498-.878 2.878-3.165 3.293z" opacity=".3"/><path fill="#407BFF" d="M1240.96 361.777v8.778l4.53.427a23.35 23.35 0 0 0 3.37 8.109l-2.91 3.506 6.21 6.209 3.51-2.904a23.45 23.45 0 0 0 8.11 3.372l.42 4.521h8.79l.42-4.521a23.45 23.45 0 0 0 8.11-3.372l3.51 2.904 6.21-6.209-2.91-3.506a23.35 23.35 0 0 0 3.37-8.109l4.53-.427v-8.778l-4.53-.426a23.342 23.342 0 0 0-3.37-8.109l2.91-3.507-6.21-6.208-3.51 2.903a23.487 23.487 0 0 0-8.11-3.371l-.42-4.522h-8.79l-.42 4.522c-2.94.61-5.68 1.777-8.11 3.371l-3.51-2.903-6.21 6.208 2.91 3.507a23.342 23.342 0 0 0-3.37 8.109l-4.53.426zm27.63-7.496c6.57 0 11.89 5.321 11.89 11.885s-5.32 11.885-11.89 11.885c-6.56 0-11.88-5.321-11.88-11.885s5.32-11.885 11.88-11.885zm-19.2 79.281a20.07 20.07 0 0 0 6.94-2.884l3 2.484 5.31-5.311-2.48-3.001a20.07 20.07 0 0 0 2.88-6.937l3.87-.363v-7.51l-3.87-.363a20.102 20.102 0 0 0-2.88-6.937l2.48-3.001-5.31-5.308-3 2.483a20.087 20.087 0 0 0-6.94-2.883l-.36-3.867h-7.51l-.36 3.867c-2.52.522-4.86 1.52-6.94 2.883l-3-2.483-5.31 5.308 2.48 3.001a20.102 20.102 0 0 0-2.88 6.937l-3.87.363v7.51l3.87.363a20.086 20.086 0 0 0 2.88 6.937l-2.48 3.001 5.31 5.311 3-2.484a20.07 20.07 0 0 0 6.94 2.884l.36 3.867h7.51l.36-3.867zm-14.28-19.768c0-5.615 4.55-10.166 10.16-10.166 5.62 0 10.17 4.551 10.17 10.166s-4.55 10.166-10.17 10.166c-5.61 0-10.16-4.551-10.16-10.166zm-7.38-25.786 2.52 2.087 4.46-4.461-2.09-2.52a16.805 16.805 0 0 0 2.42-5.826l3.25-.307v-6.306l-3.25-.307a16.78 16.78 0 0 0-2.42-5.826l2.09-2.52-4.46-4.461-2.52 2.087a16.964 16.964 0 0 0-5.83-2.423l-.31-3.248h-6.3l-.31 3.246a16.964 16.964 0 0 0-5.83 2.423l-2.52-2.087-4.46 4.46 2.09 2.521a16.797 16.797 0 0 0-2.42 5.826l-3.25.306v6.307l3.25.306c.44 2.114 1.27 4.08 2.42 5.826l-2.09 2.521 4.46 4.46 2.52-2.087a16.944 16.944 0 0 0 5.83 2.423l.31 3.249h6.3l.31-3.249a16.9 16.9 0 0 0 5.83-2.42zm-17.83-14.182a8.536 8.536 0 0 1 8.54-8.538c4.72 0 8.54 3.822 8.54 8.538 0 4.715-3.82 8.54-8.54 8.54a8.537 8.537 0 0 1-8.54-8.54z"/><path fill="#fff" d="M1240.96 361.779v8.778l4.52.427a23.542 23.542 0 0 0 3.37 8.109l-2.9 3.506 6.21 6.208 3.51-2.903a23.401 23.401 0 0 0 8.1 3.372l.43 4.521h8.78l.43-4.521a23.45 23.45 0 0 0 8.11-3.372l3.5 2.903 6.21-6.208-2.9-3.506a23.542 23.542 0 0 0 3.37-8.109l4.52-.427v-8.778l-4.52-.427a23.537 23.537 0 0 0-3.37-8.108l2.9-3.507-6.21-6.208-3.5 2.903a23.487 23.487 0 0 0-8.11-3.371l-.43-4.522h-8.78l-.43 4.522c-2.94.61-5.67 1.777-8.1 3.371l-3.51-2.903-6.21 6.208 2.9 3.507a23.537 23.537 0 0 0-3.37 8.108l-4.52.427zm27.63-7.496c6.56 0 11.88 5.321 11.88 11.885s-5.32 11.885-11.88 11.885c-6.57 0-11.89-5.321-11.89-11.885s5.32-11.885 11.89-11.885zm-19.2 79.281a20.07 20.07 0 0 0 6.94-2.884l3 2.484 5.31-5.311-2.49-3.001a20.088 20.088 0 0 0 2.89-6.937l3.86-.363v-7.51l-3.86-.363a20.12 20.12 0 0 0-2.89-6.937l2.49-3.001-5.31-5.309-3 2.484a20.087 20.087 0 0 0-6.94-2.883l-.36-3.867h-7.51l-.37 3.867c-2.52.522-4.86 1.52-6.93 2.883l-3.01-2.484-5.31 5.309 2.49 3.001a20.12 20.12 0 0 0-2.89 6.937l-3.86.363v7.51l3.86.363a20.104 20.104 0 0 0 2.89 6.937l-2.49 3.001 5.31 5.311 3.01-2.484a19.94 19.94 0 0 0 6.93 2.884l.37 3.867h7.51l.36-3.867zm-14.29-19.768c0-5.615 4.55-10.166 10.17-10.166 5.61 0 10.17 4.551 10.17 10.166s-4.56 10.166-10.17 10.166c-5.62 0-10.17-4.551-10.17-10.166zm-7.37-25.786 2.52 2.087 4.46-4.461-2.09-2.52a16.805 16.805 0 0 0 2.42-5.826l3.25-.307v-6.306l-3.25-.307a16.78 16.78 0 0 0-2.42-5.826l2.09-2.52-4.46-4.461-2.52 2.087a16.964 16.964 0 0 0-5.83-2.423l-.31-3.248h-6.3l-.31 3.246a16.944 16.944 0 0 0-5.83 2.423l-2.52-2.087-4.46 4.46 2.09 2.521a16.797 16.797 0 0 0-2.42 5.826l-3.25.306v6.307l3.25.306c.44 2.114 1.27 4.08 2.42 5.826l-2.09 2.521 4.46 4.46 2.52-2.087a16.964 16.964 0 0 0 5.83 2.423l.31 3.249h6.3l.31-3.249a16.92 16.92 0 0 0 5.83-2.42zm-17.83-14.183a8.536 8.536 0 0 1 8.54-8.537c4.72 0 8.54 3.822 8.54 8.537a8.539 8.539 0 0 1-8.54 8.541 8.538 8.538 0 0 1-8.54-8.541z" opacity=".6"/><path fill="#407BFF" d="m540.571 576.796-6.513 5.888 2.717 3.638a23.48 23.48 0 0 0-3.754 7.94l-4.548.199-.442 8.768 4.507.655a23.423 23.423 0 0 0 2.938 8.275l-3.068 3.347 5.887 6.512 3.639-2.716a23.498 23.498 0 0 0 7.94 3.754l.198 4.548 8.769.442.654-4.507a23.513 23.513 0 0 0 8.276-2.938l3.349 3.068 6.513-5.888-2.717-3.638a23.48 23.48 0 0 0 3.754-7.94l4.548-.199.442-8.768-4.507-.655a23.402 23.402 0 0 0-2.94-8.275l3.067-3.347-5.887-6.513-3.639 2.717a23.493 23.493 0 0 0-7.939-3.754l-.199-4.548-8.768-.439-.655 4.507a23.402 23.402 0 0 0-8.275 2.94l-3.347-3.073zm24.091 15.463c4.403 4.869 4.026 12.385-.844 16.786-4.867 4.401-12.385 4.024-16.786-.844-4.404-4.869-4.026-12.385.843-16.786 4.867-4.401 12.383-4.024 16.787.844zm-52.428-7.686.143 3.268 6.299.317.471-3.237a16.831 16.831 0 0 0 5.946-2.111l2.405 2.204 4.678-4.23-1.951-2.613a16.847 16.847 0 0 0 2.697-5.704l3.268-.142.317-6.299-3.237-.469a16.852 16.852 0 0 0-2.111-5.946l2.204-2.405-4.232-4.678-2.614 1.951a16.848 16.848 0 0 0-5.706-2.697l-.142-3.268-6.299-.317-.471 3.237a16.846 16.846 0 0 0-5.946 2.111l-2.405-2.204-4.679 4.229 1.952 2.614a16.877 16.877 0 0 0-2.697 5.706l-3.269.142-.316 6.302 3.239.468a16.838 16.838 0 0 0 2.111 5.946l-2.204 2.406 4.23 4.678 2.614-1.952a16.853 16.853 0 0 0 5.705 2.693zm-1.439-22.733a8.54 8.54 0 0 1 11.456 12.667 8.54 8.54 0 1 1-11.456-12.667z"/><path fill="#fff" d="m540.555 576.796-6.512 5.888 2.716 3.638a23.517 23.517 0 0 0-3.754 7.94l-4.548.199-.441 8.768 4.506.655a23.462 23.462 0 0 0 2.938 8.275l-3.068 3.347 5.888 6.512 3.638-2.716a23.507 23.507 0 0 0 7.94 3.754l.199 4.548 8.768.442.655-4.507a23.516 23.516 0 0 0 8.275-2.938l3.35 3.068 6.512-5.888-2.717-3.638a23.48 23.48 0 0 0 3.754-7.94l4.549-.199.441-8.768-4.507-.655a23.402 23.402 0 0 0-2.94-8.275l3.068-3.347-5.887-6.513-3.639 2.717a23.498 23.498 0 0 0-7.94-3.754l-.198-4.548-8.769-.439-.654 4.507a23.4 23.4 0 0 0-8.276 2.94l-3.347-3.073zm24.091 15.463c4.404 4.869 4.026 12.385-.843 16.786-4.868 4.401-12.386 4.024-16.787-.844-4.404-4.869-4.026-12.385.844-16.786 4.867-4.401 12.382-4.024 16.786.844zm-52.412-7.686.143 3.268 6.299.317.471-3.237a16.831 16.831 0 0 0 5.946-2.111l2.405 2.204 4.678-4.23-1.951-2.613a16.847 16.847 0 0 0 2.697-5.704l3.268-.142.317-6.299-3.237-.469a16.852 16.852 0 0 0-2.111-5.946l2.204-2.405-4.232-4.678-2.614 1.951a16.848 16.848 0 0 0-5.706-2.697l-.142-3.268-6.299-.317-.471 3.237a16.846 16.846 0 0 0-5.946 2.111l-2.405-2.204-4.679 4.229 1.952 2.614a16.877 16.877 0 0 0-2.697 5.706l-3.269.142-.316 6.302 3.239.468a16.838 16.838 0 0 0 2.111 5.946l-2.204 2.406 4.23 4.678 2.614-1.952a16.853 16.853 0 0 0 5.705 2.693zm-1.439-22.733a8.54 8.54 0 0 1 11.456 12.667 8.54 8.54 0 1 1-11.456-12.667z" opacity=".6"/><path fill="#407BFF" d="m900.887 230.241.142 3.268 6.301.316.471-3.236a16.825 16.825 0 0 0 5.946-2.111l2.406 2.204 4.678-4.23-1.952-2.614a16.855 16.855 0 0 0 2.698-5.703l3.268-.142.316-6.299-3.236-.469a16.866 16.866 0 0 0-2.111-5.946l2.204-2.405-4.232-4.679-2.614 1.952a16.848 16.848 0 0 0-5.706-2.697l-.142-3.268-6.302-.317-.47 3.239a16.884 16.884 0 0 0-5.947 2.111l-2.405-2.204-4.678 4.232 1.951 2.614a16.887 16.887 0 0 0-2.697 5.706l-3.268.142-.317 6.302 3.239.468a16.847 16.847 0 0 0 2.112 5.946l-2.205 2.406 4.23 4.678 2.614-1.952a17.101 17.101 0 0 0 5.706 2.688zm-1.437-22.735c3.496-3.163 8.898-2.891 12.061.605a8.542 8.542 0 0 1-.605 12.062 8.541 8.541 0 0 1-12.062-.606c-3.165-3.496-2.893-8.896.606-12.061z"/><path fill="#fff" d="m900.887 230.241.142 3.268 6.301.316.471-3.236a16.825 16.825 0 0 0 5.946-2.111l2.406 2.204 4.678-4.23-1.952-2.614a16.855 16.855 0 0 0 2.698-5.703l3.268-.142.316-6.299-3.236-.469a16.866 16.866 0 0 0-2.111-5.946l2.204-2.405-4.232-4.679-2.614 1.952a16.848 16.848 0 0 0-5.706-2.697l-.142-3.268-6.302-.317-.47 3.239a16.884 16.884 0 0 0-5.947 2.111l-2.405-2.204-4.678 4.232 1.951 2.614a16.887 16.887 0 0 0-2.697 5.706l-3.268.142-.317 6.302 3.239.468a16.847 16.847 0 0 0 2.112 5.946l-2.205 2.406 4.23 4.678 2.614-1.952a17.101 17.101 0 0 0 5.706 2.688zm-1.437-22.735c3.496-3.163 8.898-2.891 12.061.605a8.542 8.542 0 0 1-.605 12.062 8.541 8.541 0 0 1-12.062-.606c-3.165-3.496-2.893-8.896.606-12.061z" opacity=".6"/><path fill="#407BFF" d="m1261.9 657.45-.13.338-17.34 43.916-6.52 16.521-12.22-22.134-24.05 7.817 24-60.775 15.23 6.017 20.11 7.947.92.353z"/><path fill="#fff" d="m1238.07 710.136-10.46-18.937-20.57 6.686 20.76-52.6 31.03 12.25-20.76 52.601zm-10.08-19.906 9.95 18.023 19.85-50.267-29.54-11.659-19.84 50.266 19.58-6.363z" opacity=".2"/><path fill="#000" d="m1261.76 657.785-17.34 43.918c-10.52-23.969-11.33-48.278-11.33-48.278l7.77-4.279 20.11 7.947.79.692z" opacity=".2"/><path fill="#407BFF" d="m1257.82 718.22 12.23-22.132 24.04 7.815-23.99-60.778-36.27 14.317 23.99 60.778z"/><path fill="#fff" d="m1236.88 657.528 31.03-12.251 20.76 52.601-20.57-6.687-10.46 18.937-20.76-52.6zm50.42 39.057-19.84-50.266-29.54 11.66 19.85 50.266 9.95-18.022 19.58 6.362z" opacity=".2"/><path fill="#407BFF" d="m1247.85 571.424 4.29-3.352 3.63 4.066 4.82-2.533 2.84 4.646 5.19-1.63 1.97 5.078 5.4-.677 1.03 5.348 5.43.299.06 5.446 5.29 1.263-.92 5.37 4.99 2.189-1.86 5.115 4.51 3.045-2.74 4.703 3.89 3.803-3.54 4.137 3.16 4.436-4.22 3.437 2.31 4.931-4.77 2.629 1.4 5.262-5.17 1.736.44 5.426-5.39.785-.54 5.419-5.44-.189-1.5 5.235-5.33-1.16-2.41 4.882-5.02-2.089-3.25 4.374-4.57-2.957-3.98 3.725-3.97-3.725-4.58 2.957-3.24-4.374-5.03 2.089-2.41-4.882-5.32 1.16-1.5-5.235-5.44.189-.55-5.419-5.39-.785.44-5.426-5.16-1.736 1.39-5.262-4.77-2.629 2.32-4.931-4.23-3.437 3.16-4.436-3.54-4.137 3.9-3.803-2.75-4.703 4.52-3.045-1.87-5.115 4.99-2.189-.92-5.37 5.3-1.263.05-5.446 5.44-.299 1.02-5.348 5.41.677 1.96-5.078 5.2 1.63 2.84-4.646 4.82 2.533 3.62-4.066 4.29 3.352z"/><path fill="#fff" d="m1247.85 571.424 4.29-3.352 3.63 4.066 4.82-2.533 2.84 4.646 5.19-1.63 1.97 5.078 5.4-.677 1.03 5.348 5.43.299.06 5.446 5.29 1.263-.92 5.37 4.99 2.189-1.86 5.115 4.51 3.045-2.74 4.703 3.89 3.803-3.54 4.137 3.16 4.436-4.22 3.437 2.31 4.931-4.77 2.629 1.4 5.262-5.17 1.736.44 5.426-5.39.785-.54 5.419-5.44-.189-1.5 5.235-5.33-1.16-2.41 4.882-5.02-2.089-3.25 4.374-4.57-2.957-3.98 3.725-3.97-3.725-4.58 2.957-3.24-4.374-5.03 2.089-2.41-4.882-5.32 1.16-1.5-5.235-5.44.189-.55-5.419-5.39-.785.44-5.426-5.16-1.736 1.39-5.262-4.77-2.629 2.32-4.931-4.23-3.437 3.16-4.436-3.54-4.137 3.9-3.803-2.75-4.703 4.52-3.045-1.87-5.115 4.99-2.189-.92-5.37 5.3-1.263.05-5.446 5.44-.299 1.02-5.348 5.41.677 1.96-5.078 5.2 1.63 2.84-4.646 4.82 2.533 3.62-4.066 4.29 3.352z" opacity=".3"/><path fill="#fff" d="M1247.86 657.025c22.74 0 41.18-18.438 41.18-41.182 0-22.743-18.44-41.181-41.18-41.181-22.75 0-41.18 18.438-41.18 41.181 0 22.744 18.43 41.182 41.18 41.182z" opacity=".3"/><path fill="#407BFF" d="M1223.15 615.848s3.31-6.966 7.6-7.385c8.25-.809 16.68 16.652 16.68 16.652s8.87-19.886 27.13-28.777c0 0-10.6 10.185-19.72 37.023-.7 2.067-10.35 5.012-12.61 3.717-2.26-1.292-10.02-19.18-19.08-21.23zM554.263 352.894c-5.598-10.012-16.475-14.585-24.294-10.213-7.82 4.372-9.62 16.034-4.022 26.045 5.598 10.012 16.475 14.585 24.295 10.213 7.819-4.372 9.619-16.031 4.021-26.045zm63.568-35.094-19.251-35.409s-13.447 28.85-32.783 39.661l9.81 17.544 1.545 2.763 9.825 17.571c19.337-10.813 50.95-7.174 50.95-7.174L617.831 317.8z"/><path fill="#fff" d="M554.263 352.894c-5.598-10.012-16.475-14.585-24.294-10.213-7.82 4.372-9.62 16.034-4.022 26.045 5.598 10.012 16.475 14.585 24.295 10.213 7.819-4.372 9.619-16.031 4.021-26.045zm63.568-35.094-19.251-35.409s-13.447 28.85-32.783 39.661l9.81 17.544 1.545 2.763 9.825 17.571c19.337-10.813 50.95-7.174 50.95-7.174L617.831 317.8z" opacity=".8"/><path fill="#407BFF" d="M552.953 373.626s13.92 20.165 26.926 27.526c.914.517 2.071.248 2.731-.571l11.081-13.756c.902-1.121.51-2.783-.807-3.362-5.485-2.408-18.248-8.646-25.619-17.348-9.572-11.303-14.312 7.511-14.312 7.511z"/><path fill="#000" d="M552.953 373.626s13.92 20.165 26.926 27.526c.914.517 2.071.248 2.731-.571l11.081-13.756c.902-1.121.51-2.783-.807-3.362-5.485-2.408-18.248-8.646-25.619-17.348-9.572-11.303-14.312 7.511-14.312 7.511z" opacity=".3"/><path fill="#fff" d="M637.73 353.777c-4.43 2.477-17.004-11.573-28.082-31.386-11.078-19.812-16.465-37.88-12.035-40.359 4.431-2.479 17.005 11.573 28.083 31.385s16.465 37.884 12.034 40.36z"/><path fill="#000" d="M635.934 347.931c-3.315 1.854-13.121-9.2-22.372-25.094a105.591 105.591 0 0 1-1.587-2.775c-.632-1.133-1.25-2.236-1.826-3.33-8.492-16.029-12.675-29.863-9.387-31.702 3.536-1.976 14.286 10.504 24.003 27.879 9.7 17.348 14.705 33.043 11.169 35.022z" opacity=".4"/><path fill="#407BFF" d="M548.449 382.617s-4.761-3.382-13.385-18.805c-9.332-16.69-9.075-21.366-9.075-21.366l43.163-24.135s.517 6.058 9.268 21.712c8.69 15.541 13.192 18.459 13.192 18.459l-43.163 24.135z"/><path fill="#fff" d="M613.569 322.839a104.06 104.06 0 0 1-1.586-2.776c-.633-1.132-1.251-2.236-1.827-3.329l4.468-1.41c1.02-.317 1.937.22 2.447 1.133l.355.635c.51.912.488 1.973-.316 2.677l-3.541 3.07z"/><path fill="#000" d="M613.569 322.839a104.06 104.06 0 0 1-1.586-2.776c-.633-1.132-1.251-2.236-1.827-3.329l4.468-1.41c1.02-.317 1.937.22 2.447 1.133l.355.635c.51.912.488 1.973-.316 2.677l-3.541 3.07z" opacity=".2"/><path fill="#263238" d="M611.16 776.814h-50.598v21.988h50.598v-21.988z"/><path fill="#fff" d="M611.16 776.814h-50.598v21.988h50.598v-21.988z" opacity=".6"/><path fill="#407BFF" d="M554.677 779.044s-12.447-17.424-12.447-26.553c0-9.127 7.469-14.107 12.447-10.787 0 0-2.489-17.571 0-23.72 2.489-6.15 14.935-2.472 14.935-2.472s2.489-5.752 9.543-5.752c7.052 0 9.958 5.752 9.958 5.752s3.734-4.004 10.372-2.388c6.637 1.616 5.799 5.203 5.799 5.203s9.55-.015 11.625 2.969c2.074 2.985 6.223 42.378-2.489 54.835-8.715 12.453-46.468 16.602-59.743 2.913z"/><path fill="#fff" d="M619.558 754.32c-.442 8.81-1.888 17.179-5.127 21.803-8.715 12.459-46.468 16.612-59.746 2.925 0 0-12.458-17.428-12.458-26.552 0-9.124 7.488-14.094 12.458-10.792 0 0-2.486-17.588 0-23.723 2.484-6.135 14.945-2.486 14.945-2.486s2.484-5.725 9.533-5.725c7.048 0 9.943 5.725 9.943 5.725s3.745-3.994 10.382-2.359c6.638 1.604 5.806 5.179 5.806 5.179s9.546-.02 11.623 2.969c1.287 1.888 3.428 18.123 2.641 33.036z" opacity=".7"/><path fill="#000" d="M619.555 754.32c-1.101-.442-6.986-2.676-8.653.598-1.888 3.587-17.432 19.098-23.346 13.182-5.914-5.914-22.968-11.515-22.968-11.515s3.485.177 7.079-1.856c7.172-4.053 5.927-10.276 2.077-9.975-.956.076-19.064-3.052-19.064-3.052s13.277-.378 14.817-2.234c1.574-1.856.314-18.341 1.574-18.027 1.226.284.599 16.801.912 19.601.314 2.8 11.902 2.945 13.445 1.371 1.574-1.543 1.135-22.615 3.369-21.2 2.234 1.446-1.3 21.697.934 22.926 2.234 1.258 7.072 2.44 9.178 1.182 2.109-1.226 4.031-22.774 5.257-21.83 1.258.912-.441 20.287.186 21.83.63 1.574 4.326 1.625 7.158.995 2.8-.63 5.399-25.035 5.399-25.035 1.292 1.891 3.433 18.125 2.646 33.039z" opacity=".1"/><path fill="#407BFF" d="M560.561 792.371s24.952 7.778 50.597 0l3.465 1.729v26.898s-27.379 4.357-57.877 0l1.734-26.761 2.081-1.866zm457.089-529.249h-18.943v-6.231a3.14 3.14 0 0 1 3.143-3.141h12.66c1.74 0 3.14 1.407 3.14 3.141v6.231zm27.99-.005h-18.94v-34.968c0-1.734 1.4-3.141 3.14-3.141h12.66c1.73 0 3.14 1.405 3.14 3.141v34.968zm27.99-.004h-18.95v-28.72a3.144 3.144 0 0 1 3.14-3.141h12.67c1.74 0 3.14 1.407 3.14 3.141v28.72zm27.98.007h-18.94v-60.584c0-1.734 1.4-3.141 3.14-3.141h12.66c1.74 0 3.14 1.407 3.14 3.141v60.584z"/><path fill="#407BFF" d="m1101.69 154.654-4.9 1.704-7.2 2.496 3.5 2.621-34.23 47.25-30.29-13.581-37.636 43.484 7.343 6.01 32.853-37.965 30.88 13.834 38.69-53.409 3.07 2.305.66-15.698-2.74.949z"/><path fill="#fff" d="M1017.65 263.12h-18.943v-6.231a3.14 3.14 0 0 1 3.143-3.141h12.66c1.74 0 3.14 1.407 3.14 3.141v6.231z" opacity=".6"/><path fill="#fff" d="M1045.63 263.113h-18.95v-34.968a3.144 3.144 0 0 1 3.14-3.141h12.67c1.73 0 3.14 1.405 3.14 3.141v34.968z" opacity=".5"/><path fill="#fff" d="M1073.62 263.113h-18.94v-28.72c0-1.734 1.4-3.141 3.14-3.141h12.67c1.73 0 3.14 1.407 3.14 3.141l-.01 28.72z" opacity=".3"/><path fill="#fff" d="M1101.6 263.118h-18.94v-60.584a3.144 3.144 0 0 1 3.14-3.141h12.67c1.73 0 3.14 1.407 3.14 3.141l-.01 60.584z" opacity=".2"/><path fill="#000" d="m1101.69 154.654-4.9 1.704-7.2 2.496 3.5 2.621-34.23 47.25-30.29-13.581-37.636 43.484 7.343 6.01 32.853-37.965 30.88 13.834 38.69-53.409 3.07 2.305.66-15.698-2.74.949z" opacity=".1"/><path fill="#263238" d="M1106.88 268.74H995.047a2.812 2.812 0 1 1 0-5.623h111.833a2.812 2.812 0 0 1 0 5.623z"/><path fill="#fff" d="M1106.88 268.74H995.047a2.812 2.812 0 1 1 0-5.623h111.833a2.812 2.812 0 0 1 0 5.623z" opacity=".3"/><path stroke="#263238" stroke-dasharray="21.98 5.49 45.79 18.31" stroke-linecap="round" stroke-linejoin="round" stroke-width="2.985" d="M494.567 779.813c7.439 47.731 52.161 80.394 99.892 72.954 47.731-7.439 80.394-52.161 72.954-99.891-7.439-47.731-52.161-80.394-99.892-72.955-47.728 7.437-80.391 52.162-72.954 99.892zm815.193-86.475c-32.3 35.925-87.6 38.865-123.52 6.569-35.93-32.295-38.87-87.597-6.57-123.522 32.29-35.924 87.6-38.864 123.52-6.568 35.92 32.295 38.86 87.6 6.57 123.521zm-172.92-442.417c17.08-45.187-5.7-95.669-50.88-112.755-45.19-17.086-95.671 5.693-112.757 50.88-17.086 45.186 5.693 95.668 50.877 112.755 45.19 17.086 95.67-5.694 112.76-50.88zM599.773 427.849c47.186-10.358 77.042-57.006 66.685-104.192-10.357-47.186-57.005-77.043-104.191-66.685-47.187 10.357-77.043 57.005-66.686 104.191s57.005 77.043 104.192 66.686z"/><path stroke="#263238" stroke-dasharray="26.2 6.55 54.59 21.83" stroke-linecap="round" stroke-linejoin="round" stroke-width="2.985" d="M866.336 541.554c-22.789-17.602-26.994-50.349-9.391-73.138 17.603-22.789 50.347-26.994 73.136-9.391 22.789 17.603 26.994 50.347 9.391 73.138-17.603 22.789-50.347 26.994-73.136 9.391z"/><path stroke="#263238" stroke-linecap="round" stroke-linejoin="round" stroke-miterlimit="10" stroke-width="2.985" d="m851.609 476.918-195.64-89.449m268.187 67.605 91.114-157.164m-70.09 225.024 214.64 90.834M856.069 531 647.703 709.77"/><g stroke="#fff" stroke-linecap="round" stroke-linejoin="round" stroke-width="2.985" opacity=".5"><path stroke-dasharray="21.98 5.49 45.79 18.31" d="M494.567 779.805c7.439 47.731 52.161 80.394 99.892 72.955 47.731-7.44 80.394-52.162 72.954-99.892-7.439-47.731-52.161-80.394-99.892-72.955-47.728 7.437-80.391 52.162-72.954 99.892zm815.193-86.474c-32.3 35.924-87.6 38.864-123.52 6.569-35.93-32.296-38.87-87.598-6.57-123.522 32.29-35.925 87.6-38.865 123.52-6.569 35.92 32.295 38.86 87.6 6.57 123.522zM1142.5 220.102c.06-48.308-39.06-87.515-87.37-87.573-48.3-.058-87.51 39.056-87.568 87.363-.058 48.307 39.058 87.514 87.358 87.572 48.31.058 87.52-39.055 87.58-87.362zM599.773 427.854c47.186-10.357 77.042-57.005 66.685-104.191-10.357-47.187-57.005-77.043-104.191-66.686-47.187 10.357-77.043 57.006-66.686 104.192 10.357 47.186 57.005 77.042 104.192 66.685z"/><path stroke-dasharray="26.2 6.55 54.59 21.83" d="M866.336 541.549c-22.789-17.603-26.994-50.35-9.391-73.139 17.603-22.789 50.347-26.994 73.136-9.391 22.789 17.603 26.994 50.347 9.391 73.138-17.603 22.789-50.347 26.994-73.136 9.392z"/><path stroke-miterlimit="10" d="m851.609 476.914-195.64-89.449m268.187 67.607 91.114-157.164M945.18 522.93l214.64 90.834m-303.751-82.768-208.366 178.77"/></g><path fill="#263238" d="M1002.27 447.066c-7.277 1.175-23.707 54.974-30.316 62.002-3.464 3.685-41.279-7.028-41.279-7.028l-4.46 13.891s41.365 17.073 52.627 12.919c18.861-6.956 28.188-45.783 28.188-45.783l-4.76-36.001z"/><path fill="#fff" d="M1007.05 483.077s-1.87 7.772-5.64 16.992c-3.311 8.165-8.142 17.458-14.444 23.49-2.476 2.354-5.173 4.217-8.116 5.296-11.254 4.144-52.62-12.922-52.62-12.922l4.439-13.903s37.834 10.716 41.291 7.038c6.596-7.038 23.049-60.834 30.31-62.011l4.78 36.02z" opacity=".2"/><path fill="#EEC1BB" d="m929.117 502.253-14.349-12.935-7.299 17.066s15.398 9.98 19.412 5.875l2.236-10.006zm-31.53-10.973-1.993 13.182 11.865 1.928 7.302-17.064-17.174 1.954z"/><path fill="#407BFF" d="m935.612 502.094-5.387 17.075-6.885-3.048 4.889-16.023 7.383 1.996z"/><path fill="#fff" d="m935.612 502.094-5.387 17.075-6.885-3.048 4.889-16.023 7.383 1.996z" opacity=".7"/><path fill="#000" d="M1001.4 500.07c-3.311 8.165-8.142 17.458-14.443 23.49-1.545-22.706 12.726-40.728 12.726-40.728 1.447 4.732 1.917 10.838 1.717 17.238z" opacity=".2"/><path fill="#263238" d="M1016.81 396.617c1.7 9.016 0 20.827 0 20.827s41.96 5.821 52.14-1.939c10.19-7.761 14.69-53.89-8-58.323-22.69-4.431-49.47 11.09-44.14 39.435zm-33.095 577.39-3.511-.004-.976-4.336-11.622 5.248h-29.449s-4.683-4.708 9.342-8.46a10.45 10.45 0 0 0 1.986-.76c7.479-3.506 18.121-15.349 18.121-15.349h16.158s.564.809 1.324 2.329c1.766 3.556 4.816 11.017-1.373 21.332z"/><path fill="#FFC2BC" d="M985.08 952.674v.049c-2.134-2.379-11.844 8.067-18.954 11.622-6.351 3.163-13.486 4.561-16.649 1.349 7.478-3.507 19.238-18.817 19.238-18.817h12.993s2.612 4.276 3.372 5.797z"/><path fill="#FFC2BC" d="m967.602 950.34 7.412-63.389 23.242 6.851-16.168 57.075"/><path fill="#263238" d="m1068.22 562.062-63.5-2.982s-16.962 109.313-18.519 179.16c-4.968 46.86-10.848 126.906-16.549 175.902 0 0 4.259 3.067 12.072 4.512 6.532 1.206 10.676.5 10.676.5 14.67-42.057 31.97-111.77 30.79-179.178 44.81-108.942 45.03-177.914 45.03-177.914z"/><path fill="#fff" d="M1068.21 562.055s-.1 38.717-19.01 103.916c-4.97 17.164-11.25 36.167-19.17 56.788a862.565 862.565 0 0 1-6.84 17.213c1.18 67.405-16.11 137.14-30.799 179.192 0 0-4.144.687-10.666-.515-7.822-1.447-12.088-4.512-12.088-4.512 5.713-48.99 11.598-129.024 16.551-175.906 1.569-69.833 18.532-179.143 18.532-179.143l63.49 2.967z" opacity=".4"/><path fill="#000" d="M1049.22 665.967c-4.98 17.164-11.26 36.167-19.18 56.788-5.42-55.685 7.48-87.144 7.48-87.144 5.74 7.136 9.46 17.973 11.7 30.356z" opacity=".2"/><path fill="#263238" d="m1074.48 974.007-3.51-.004-.97-4.336-11.62 5.248h-29.45s-4.69-4.708 9.34-8.46c.64-.171 1.3-.416 1.98-.76 7.48-3.506 18.13-15.349 18.13-15.349h16.15s.57.809 1.33 2.329c1.76 3.556 4.81 11.017-1.38 21.332z"/><path fill="#FFC2BC" d="M1075.87 952.674v.049c-2.13-2.379-11.84 8.067-18.96 11.622-6.35 3.163-13.48 4.561-16.64 1.349 7.47-3.507 19.23-18.817 19.23-18.817h13s2.61 4.276 3.37 5.797z"/><path fill="#FFC2BC" d="m1058.38 950.345-.32-67.857 24.81 1.091-10.76 66.813-13.73-.047z"/><path fill="#263238" d="M1055.82 920.229s6.4 2.177 11.94 2.78c6.53.712 10.01-.392 10.01-.392 11.32-47.748 22.89-124.701 9.91-171.032 24.76-149.721-8.09-189.753-8.09-189.753l-55.71-6.059s17.94 126.715 24.01 188.64c5.22 53.201 9.84 115.293 7.93 175.816z"/><path fill="#fff" d="M1055.82 920.229s6.4 2.177 11.94 2.78c6.53.712 10.01-.392 10.01-.392 11.32-47.748 22.89-124.701 9.91-171.032 24.76-149.721-8.09-189.753-8.09-189.753l-55.71-6.059s17.94 126.715 24.01 188.64c5.22 53.201 9.84 115.293 7.93 175.816z" opacity=".4"/><path fill="#407BFF" d="M1068.75 440.679s-43.37 21.484-39.65 1.851c0 0-15.99-.15-26.5 6.277 0 0-6.253 26.114 0 96.315l-4.463 33.95 25.663 7.756 8.46-24.626 10.24 25.911 44.59-13.928-9-26.155s4.53-60.14 18.11-87.625c0 0-2.16-20.008-27.45-19.726z"/><path fill="#fff" d="M1068.75 440.679s-43.37 21.484-39.65 1.851c0 0-15.99-.15-26.5 6.277 0 0-5.709 28.186 0 96.315l-4.463 33.95 25.663 7.756 8.46-24.626 10.24 25.911 44.59-13.928-9-26.155s4.53-60.14 18.11-87.625c0 0-2.16-20.008-27.45-19.726z" opacity=".7"/><path fill="#EEC1BB" d="M1066.04 403.328c-3 11.073-6.67 31.366.52 38.754 0 0 9.84 7.868-19.39 6.981-2.54 6.086-12.16 19.098-12.16 19.098s-4.46-12.336-2.43-16.771c-18.81-1.623-.44-9.308-.44-9.308 12.57-2.95 12.94-12.11 11.43-20.717l22.47-18.037z"/><path fill="#000" d="m1056.88 410.689-13.3 10.669c.36 2.038.61 4.102.6 6.11 4.77-.681 11.64-5.86 12.51-10.801.43-2.461.5-4.83.19-5.978z" opacity=".2"/><path fill="#EEC1BB" d="M1075.5 381.1c-3.36 17.882-4.4 25.501-14.6 34.078-15.35 12.902-36.44 6.076-38.45-12.155-1.82-16.408 3.98-42.895 22.41-48.799 18.15-5.817 34 8.996 30.64 26.876z"/><path fill="#263238" d="M1060.12 368.184c9.87 12.733-10.4 27.377 9.87 26.528 20.27-.848 12.03-29.468 0-35.973-12.03-6.505-9.87 9.445-9.87 9.445zm-12.94 15.891c-.22 1.513-1.18 2.682-2.15 2.611-.97-.071-1.58-1.356-1.36-2.869.22-1.513 1.18-2.682 2.15-2.609.97.071 1.58 1.354 1.36 2.867zm-18.26-1.07c-.22 1.513-1.18 2.683-2.15 2.609-.97-.071-1.58-1.356-1.36-2.869.22-1.513 1.18-2.682 2.15-2.611.96.073 1.57 1.358 1.36 2.871z"/><path fill="#263238" d="m1027.97 380.253-3.41-1.31s1.42 2.975 3.41 1.31z"/><path fill="#D4827D" d="M1033.64 385.859s-3.45 6.329-6.67 9.266c1.69 2.009 5.14 1.403 5.14 1.403l1.53-10.669z"/><path fill="#263238" d="M1039.83 402.748c-.79.084-1.63.101-2.52.035-.24-.017-.4-.231-.37-.478a.49.49 0 0 1 .5-.412c6.5.483 10.21-3.936 10.25-3.98.16-.196.44-.235.62-.086.18.15.2.429.04.623-.15.177-3.13 3.737-8.52 4.298zm12.44-26.802a.802.802 0 0 1-.62-.267c-2.54-2.837-5.75-2.229-5.79-2.221a.818.818 0 0 1-.98-.699.969.969 0 0 1 .76-1.05c.17-.032 4.21-.799 7.35 2.722.32.351.27.915-.1 1.26-.18.167-.4.25-.62.255zm-27.47-1.634a.812.812 0 0 1-.61-.199c-.35-.311-.37-.87-.03-1.248 3.37-3.791 7.39-3.391 7.57-3.371.48.054.79.49.7.978a.951.951 0 0 1-1.02.785c-.16-.018-3.29-.282-5.97 2.734a.97.97 0 0 1-.64.321zm21.43 7.013-3.41-1.309s1.42 2.974 3.41 1.309z"/><path fill="#263238" d="M1053.21 358.268s3.51 21.078 17.51 24.603c14 3.526 2.63-21.67 2.63-21.67s-2.94-11.422-21.85-11.422c-18.92 0-40.74 19.214-34.68 46.834 0 0-1.04-9.22 3.15-16.483 4.19-7.263 8.51-1.008 33.24-21.862z"/><path fill="#263238" d="M1065.95 352.939c19.99 7.996 27.26 21.093 25.57 35.643-1.7 14.55-19.64 29.948-22.56 30.495l-8.98 1.273s13.82-19.221 11.16-25.736c-2.66-6.515-5.33-7.158-5.33-7.158l.14-34.517z"/><path fill="#EEC1BB" d="M1077.24 398.343c-1.83 3.666-4.84 5.926-7.6 6.659-4.17 1.104-5.97-3.665-4.59-8.432 1.25-4.289 4.92-10.031 8.99-8.994 4 1.02 5.3 6.574 3.2 10.767z"/><path fill="#263238" d="M1075.94 441.494c-13.54 12.569-20.81 78.869-18.87 100.282 1.93 21.413 18.87 78.714 18.87 78.714l26.72-2.189s-6.46-39.752-22.95-71.44c0 0 10.5-78.785 20.2-98.388 0 0-9.2-3.644-12.05-4.473-3.14-.917-11.92-2.506-11.92-2.506z"/><path fill="#fff" d="m1102.66 618.3-26.73 2.182s-5.66-19.15-10.79-39.452c-2.15-8.46-4.19-17.115-5.71-24.643-1.15-5.689-2.01-10.74-2.35-14.614-.22-2.427-.32-5.468-.32-8.925.1-26.874 7.18-80.205 19.17-91.362 0 0 2.09.368 4.59.859 2.65.539 5.74 1.176 7.35 1.642 2.85.834 12.04 4.488 12.04 4.488-1.3 2.648-2.62 6.35-3.94 10.788-.37 1.3-.76 2.673-1.13 4.095-4.27 15.914-8.29 38.717-11.13 56.47-2.46 15.423-4 27.021-4 27.021 1.74 3.359 3.38 6.792 4.88 10.274 12.9 29.399 18.07 61.177 18.07 61.177z" opacity=".2"/><path fill="#263238" d="M1075.95 441.494s10.46 21.541 8.03 43.609l-15.77-12.368 8.98 11.64-20.12 36.861s1.62-65.878 18.88-79.742zm-52.03 1.117s-16.32 27.931-13.41 99.713l-9.7 72.754h-10.669l11.869-72.754s-12.676-54.966.26-95.265c0 0 10.51-4.448 21.65-4.448z"/><path fill="#fff" d="M1023.92 442.611s-16.32 27.931-13.41 99.713l-9.7 72.754h-10.669l11.869-72.754s-12.676-54.966.26-95.265c0 0 10.51-4.448 21.65-4.448z" opacity=".2"/><path fill="#263238" d="M1026.26 442.614s-2.51-1.38-8.16.907c-5.65 2.288-19.229 32.197-19.229 32.197l10.349-5.98-5.82 5.98 7.03 35.881s7.81-64.584 15.83-68.985z"/><path fill="#407BFF" d="M1041.06 437.607s-9.64 6.724-8.49 13.781l-16.45 4.05s9.73-16.661 24.94-17.831zm29.37 20.773-23.03-7.479s12.19-9.832 15.99-15.153l7.6 5.713.03.025c.17.417 2.42 6.007-.59 16.894z"/><path fill="#fff" d="M1041.06 437.607s-9.64 6.724-8.49 13.781l-16.45 4.05s9.73-16.661 24.94-17.831zm29.37 20.773-23.03-7.479s12.19-9.832 15.99-15.153l7.6 5.713.03.025c.17.417 2.42 6.007-.59 16.894z" opacity=".6"/><path fill="#000" d="M1084.6 557.125c-1.08.025-2.21.025-3.36.025-6.62-.025-14.42-.344-21.8-.761-14.24-.809-27.02-1.937-27.02-1.937l1.06-17.777 14.27.197.71-1.325c2.4-.539 5.25-1.495 8.31-2.697 8.31-3.261 18.1-8.263 24.3-11.573.98-.54 1.86-1.03 2.65-1.447-2.45 15.423-4 27.021-4 27.021 1.74 3.359 3.38 6.792 4.88 10.274z" opacity=".2"/><path fill="#263238" d="M1099.91 448.469c8.57 7.557 23.83 75.857 18.87 84.537-4.96 8.68-62.88 18.542-62.88 18.542l-5.57-14.712s45.87-12.652 45.87-17.661c0-4.833-8.02-25.3-8.02-25.3s-1.84-23.324 4.62-34.762c4.27-7.555 7.11-10.644 7.11-10.644z"/><path fill="#fff" d="M1099.91 448.469c8.57 7.557 23.83 75.857 18.87 84.537-4.96 8.68-62.88 18.542-62.88 18.542l-5.57-14.712s45.87-12.652 45.87-17.661c0-4.833-8.02-25.3-8.02-25.3s-1.84-23.324 4.62-34.762c4.27-7.555 7.11-10.644 7.11-10.644z" opacity=".2"/><path fill="#EEC1BB" d="m1051.59 538.143-19.16-2.432 3.74 18.179s18.34-.593 19.3-6.255l-3.88-9.492z"/><path fill="#EEC1BB" d="m1019.44 547.115 5.88 11.963 10.85-5.188-3.75-18.179-12.98 11.404z"/><path fill="#407BFF" d="m1056.83 534.305 5.33 17.1-7.4 1.425-5.13-15.948 7.2-2.577z"/><path fill="#fff" d="m1056.83 534.305 5.33 17.1-7.4 1.425-5.13-15.948 7.2-2.577z" opacity=".7"/><path fill="#FFB573" d="m859.585 572.005 11.568 22.176-23.757 3.626s-7.525-22.536-1.079-26.239l13.268.437zm3.551 43.072-17.171-1.768 1.424-15.499 23.758-3.626-8.011 20.893z"/><path fill="#407BFF" d="m856.618 561.031 5.277 13.628-19.177 4.743-5.488-13.526 19.388-4.845z"/><path fill="#fff" d="m856.618 561.031 5.277 13.628-19.177 4.743-5.488-13.526 19.388-4.845z" opacity=".7"/><path fill="#263238" d="M809.281 397.055c-6.495 6.434-.365 85.592-.169 95.039.196 9.448 27.916 79.479 27.916 79.479l22.375-6.87-22.88-73.013c-3.337-10.647-2.678-37.913-2.928-49.489-.193-8.994-.684-23.135-7.054-31.408-6.37-8.27-17.26-13.738-17.26-13.738z"/><path fill="#000" d="M809.281 397.055c-6.495 6.434-.365 85.592-.169 95.039.196 9.448 27.916 79.479 27.916 79.479l22.375-6.87-22.88-73.013c-3.337-10.647-2.678-37.913-2.928-49.489-.193-8.994-.684-23.135-7.054-31.408-6.37-8.27-17.26-13.738-17.26-13.738z" opacity=".3"/><path fill="#FFB573" d="m867.512 489.239 24.177-6.407-1.687 23.973s-23.639 2.384-25.834-4.72l3.344-12.846z"/><path fill="#FFB573" d="m910.304 495.244-5.503 16.36-14.805-4.799 1.687-23.973 18.621 12.412z"/><path fill="#407BFF" d="m807.79 424.8-2.263-23.603c-3.918-.669-5.968-7.863-10.382-8.273-11.142-.998-29.451-.598-42.091 0-4.176.199-8.393.579-12.358 1.028l-12.512 50.251c1.601 13.814 2.542 27.202 3.062 39.673 1.523 36.645-.525 43.339.174 52.184h99.046c-3.231-58.164-6.24-92.46-8.238-111.257H807.79v-.003z"/><path fill="#fff" d="m807.793 424.8-2.263-23.603c-3.918-.669-5.968-7.863-10.382-8.273-11.141-.998-29.451-.598-42.091 0a178.14 178.14 0 0 0-7.831.559l-16.421 56.538a553.942 553.942 0 0 1 2.444 33.853c1.523 36.645-.524 43.339.174 52.183h99.047c-2.771-57.735-5.88-92.271-8.031-111.257h-14.646z" opacity=".7"/><path fill="#407BFF" d="M791.658 399.106s-2.827 2.901-6.147 7.454l-1.213 11.397s17.264 51.274 18.605 75.117l-6.321 6.054-11.071-9.631s-.162-35.017-4.96-71.417l-4.183-10.125s-10.762-4.656-15.269-9.734c-4.507-5.076 30.559.885 30.559.885z"/><path fill="#FFB573" d="m753.953 350.41 11.267 9.342 15.337 12.738c-.449 2.075-.799 4.174-.973 6.197-.824 8.317 1.956 10.717 10.479 13.898 0 0 .376 5.284-5.151 11.191-.064 1.358-3.676 3.54-3.676 3.54s-1.952-2.165-3.133-2.952c-23.564-.422-26.673-11.338-26.673-11.338 9.168-9.043 5.647-29.051 2.523-42.616z"/><path fill="#000" d="M780.549 372.491c-.449 2.074-.799 4.173-.976 6.196-5.72-1.15-13.363-7.246-14.162-13.091-.3-2.197-.351-4.321-.199-5.846l15.337 12.741z" opacity=".2"/><path fill="#263238" d="M799.83 300.977s10.063 23.916-.724 36.816c-10.786 12.9-22.477-33.401-22.477-33.401l23.201-3.415z"/><path fill="#FFB573" d="M765.78 367.243c8.729 7.589 19.785 7.361 28.129 2.202a25.926 25.926 0 0 0 11.397-15.31c.245-.868.432-1.771.591-2.69 2.658-16.841-1.989-43.947-20.577-49.854-13.226-4.306-27.47 2.932-31.768 16.18-1.248 3.759-1.555 7.768-.954 11.696 2.516 18.268 3.134 29.125 13.182 37.776z"/><path fill="#263238" d="M780.894 332.418c.012 1.491.993 2.644 1.986 2.565.993-.078 1.67-1.363 1.562-2.854-.108-1.491-1.018-2.643-1.986-2.565-.969.076-1.67 1.339-1.562 2.854zm16.933-1.324c.013 1.491 1.018 2.644 1.987 2.565.971-.078 1.669-1.363 1.561-2.854-.107-1.491-1.017-2.643-1.988-2.565-.969.079-1.667 1.435-1.56 2.854z"/><path fill="#ED893E" d="M792.508 332.25a53.354 53.354 0 0 0 8.155 12.245 8.69 8.69 0 0 1-7.089 1.908l-1.066-14.153z"/><path fill="#263238" d="M803.457 323.659a.925.925 0 0 1-.922-.008 7.113 7.113 0 0 0-6.331-.694.876.876 0 1 1-.755-1.581l.002-.003a8.743 8.743 0 0 1 7.992.77.879.879 0 0 1 .326 1.197l-.01.017a1.373 1.373 0 0 1-.302.302zm-26.412 2.292a.857.857 0 0 1-.503-.13.878.878 0 0 1-.032-1.239c.005-.005.01-.009.013-.014a8.736 8.736 0 0 1 7.594-2.68.874.874 0 0 1 .686 1.032.903.903 0 0 1-1.035.689 7.103 7.103 0 0 0-5.98 2.216.905.905 0 0 1-.743.126zm-12.76-20.472 2.033 3.268c-5.792 2.739-3.71 9.6-2.089 12.623 3.462 6.454.944 17.458-3.727 22.313 0 0-.532-2.918-2.923-1.908-2.391 1.011-.064 13.648-.064 13.648s-2.096 3.588-8.261-11.953c-5.701-14.371-7.743-26.693-5.416-32.825l20.447-5.166z"/><path fill="#FFB573" d="M745.754 345.17a17.547 17.547 0 0 0 10.718 8.057c5.968 1.496 8.786-3.888 7.003-9.442-1.631-4.921-6.684-11.799-12.615-10.769-5.929 1.032-7.945 7.208-5.106 12.154z"/><path fill="#263238" d="M792.763 350.086c-1.677 2.386-3.761 7.047-3.761 7.047a27.616 27.616 0 0 1-1.364-.36c-6.154-1.682-8.452-4.495-9.133-7.104-.368-1.429-.236-2.807.017-3.893.277-1.258.762-2.094.762-2.094 2.73 2.839 8.345 4.85 11.39 5.799 1.27.409 2.089.605 2.089.605z"/><path fill="#fff" d="m790.676 349.481-1.163 2.049c-5.791-1.598-9.656-3.501-10.99-5.754.278-1.258.763-2.094.763-2.094 2.729 2.842 8.344 4.85 11.39 5.799z"/><path fill="#DE5753" d="M787.642 356.771c-6.155-1.682-8.453-4.494-9.134-7.103 2.074.655 4.504 1.672 6.461 3.222a7.695 7.695 0 0 1 2.673 3.881z"/><path fill="#263238" d="M796.585 309.305s6.152-6.989 4.801-15.561c0 0-35.284-6.073-51.357 0-16.073 6.071-6.118 32.239-6.118 32.239s16.563-13.667 22.414-17.237c5.85-3.57 24.047 2.859 24.047 2.859l6.213-2.3z"/><path fill="#407BFF" d="M755.479 382.92s4.497 11.882 21.781 20.283l4.646 4.286-7.728-1.967-7.861 9.907-21.84-21.872s7.179-10.502 11.002-10.637zm26.423 24.568 1.248-6.832s1.02-7.608-1.704-12.9c0 0-1.074-.24-1.684-3.151l2.905.739s15.441 6.061 17.669 26.108l-12.255-8.501-6.179 4.537z"/><path fill="#fff" d="m781.902 407.488 1.248-6.832s1.02-7.608-1.704-12.9c0 0-1.074-.24-1.684-3.151l2.905.739s15.441 6.061 17.669 26.108l-12.255-8.501-6.179 4.537zm-26.423-24.568s4.497 11.882 21.781 20.283l4.646 4.286-7.728-1.967-7.861 9.907-21.84-21.872s7.179-10.502 11.002-10.637z" opacity=".6"/><path fill="#9F5B53" d="m821.668 955.776 20.832 2.182 1.055-12.074 2.851-32.856-20.834-2.21-3.161 36.3-.743 8.658zm-104.008-2.648h20.192l.179-4.57.027-.566 1.028-29.287.024-.591.412-11.225h-20.219l-1.643 46.239z"/><path fill="#000" d="m825.563 910.818-3.161 36.3 21.144-1.234 2.852-32.856-20.835-2.21zm-107.758 39.741h.027l20.216-2.569h.027l1.052-28.26h-.024l-20.244 1.619-1.027 28.323-.027.887z" opacity=".2"/><path fill="#263238" d="M740.659 951.915h-24.535a1.772 1.772 0 0 0-1.721 1.388l-3.982 17.983a2.98 2.98 0 0 0 2.954 3.597c7.94-.128 13.719-.616 23.687-.616 6.139 0 24.662.643 33.141.643 8.476 0 9.582-8.374 6.113-9.146-15.568-3.391-27.284-8.092-32.266-12.562a4.863 4.863 0 0 0-3.391-1.287zm104.039-.641h-24.535a1.775 1.775 0 0 0-1.721 1.388l-3.982 17.983a2.982 2.982 0 0 0 2.954 3.597c7.937-.127 13.719-.615 23.687-.615 6.139 0 24.662.642 33.141.642s9.582-8.373 6.115-9.146c-15.568-3.391-27.283-8.091-32.266-12.561a4.872 4.872 0 0 0-3.393-1.288zm-129.616-5.858h29.252s23.54-89.228 32.857-153.446c1.471-9.98 3.016-23.049 4.585-38.3 2.501-24.618 5.027-54.14 7.307-82.584 6.989 18.783 12.309 45.657 16.429 76.11 14.638 109.163 13.167 195.645 13.167 195.645h29.62c19.028-145.256 1.128-292.891-11.279-369.54a1466.523 1466.523 0 0 0-6.547-37.246h-99.036c-.025 2.059.662 17.09 1.545 39.06 1.986 50.021 4.83 136.012 1.839 186.131-2.575 43.548-19.739 184.17-19.739 184.17z"/><path fill="#407BFF" d="M854.925 954.825c-1.626.527-3.536.777-4.899.893a.434.434 0 0 1-.415-.221.434.434 0 0 1 .035-.468c.436-.574 4.315-5.601 6.74-5.454.562.035 1.023.327 1.334.854.513.865.581 1.669.209 2.395-.474.917-1.638 1.557-3.004 2.001zm-3.962-.069c3.354-.394 5.642-1.245 6.201-2.329.23-.449.171-.959-.184-1.562-.165-.277-.368-.414-.64-.429-1.307-.078-3.757 2.356-5.377 4.32z"/><path fill="#407BFF" d="M850.123 955.694a.432.432 0 0 1-.533-.245c-.088-.209-2.125-5.147-.904-7.437.328-.618.853-.998 1.554-1.138.844-.167 1.516.106 1.891.76 1.03 1.79-.405 6.319-1.82 7.932a.4.4 0 0 1-.188.128zm.09-7.92c-.341.11-.593.324-.765.647-.73 1.366.069 4.313.66 5.971 1.111-1.79 1.954-5.152 1.277-6.324-.127-.223-.355-.466-.976-.343a.986.986 0 0 0-.196.049zm-99.335 7.051c-1.626.527-3.536.777-4.899.893a.431.431 0 0 1-.38-.689c.436-.574 4.315-5.601 6.741-5.454.561.035 1.022.327 1.333.854.51.865.582 1.669.209 2.395-.473.917-1.641 1.557-3.004 2.001zm-3.962-.069c3.354-.394 5.642-1.245 6.201-2.329.23-.449.171-.959-.184-1.562-.164-.277-.368-.414-.64-.429-1.307-.078-3.757 2.356-5.377 4.32z"/><path fill="#407BFF" d="M746.075 955.694a.432.432 0 0 1-.532-.245c-.086-.209-2.126-5.147-.905-7.437.329-.618.854-.998 1.555-1.138.844-.167 1.515.106 1.891.76 1.029 1.79-.405 6.319-1.82 7.932a.397.397 0 0 1-.189.128zm.091-7.92c-.341.11-.593.324-.765.647-.731 1.366.069 4.313.66 5.971 1.11-1.79 1.954-5.152 1.277-6.324-.127-.223-.355-.466-.976-.343-.068.01-.135.027-.196.049z"/><path fill="#000" d="M789.074 671.078c6.996 18.802 12.324 45.656 16.431 76.127 9.953-40.752-13.849-116.127-13.849-116.127l-2.582 40z" opacity=".3"/><path fill="#263238" d="m833.196 553.683-1.579-24.954H733.78s-3.048 5.865-2.729 22.725l102.145 2.229z"/><path fill="#000" d="M833.188 531.877h-10.477v7.233h10.477v-7.233zm-13.423 0h-44.203v7.233h44.203v-7.233zm-47.141 0h-38.308v7.233h38.308v-7.233z"/><path fill="#000" d="M731.442 536.055c-.024 2.059.662 17.09 1.545 39.06 18.905 4.88 60.809 3.261 60.809 3.261l3.875-2.967 1.446 2.967 37.908-5.075a1462.02 1462.02 0 0 0-6.547-37.246h-99.036z" opacity=".3"/><path fill="#fff" d="M795.12 539.603h9.288c.741 0 1.339-.601 1.339-1.339v-5.537c0-.74-.601-1.338-1.339-1.338h-9.288c-.74 0-1.339.6-1.339 1.338v5.537c0 .741.599 1.339 1.339 1.339z"/><path fill="#263238" d="M797.914 551.041c-.833 7.552-2.157 14.81-4.144 21.381l-66.915-1.961s1.324-52.694 1.888-74.124c.221-8.116-1.25-24.299-3.138-41.243-1.177-10.69-2.55-21.675-3.776-31.165a20.29 20.29 0 0 1-.196-2.108c-.834-14.222 8.729-27.144 22.852-30.356l49.163 75.963.122.196s.344 1.814.834 5.027c1.03 6.571 2.746 18.954 3.727 33.592.932 13.952 1.226 29.939-.417 44.798z"/><path fill="#263238" d="m747.877 389.061-6.143 2.586 2.742 17.633 11.409 9.793-3.587 12.517 41.48 36.042s-32.918-50.239-45.901-78.571z"/><path fill="#fff" d="m747.877 389.061-6.143 2.586 2.742 17.633 11.409 9.793-3.587 12.517 41.48 36.042s-32.918-50.239-45.901-78.571z" opacity=".1"/><path fill="#263238" d="m839.005 567.571-39.257 2.672-1.839-19.199v-.024l-4.389-46-2.844-29.792c.441-1.103.883-2.182 1.275-3.261.613-1.545 1.177-3.04 1.692-4.536 19.346-54.018-1.545-75.105-1.545-75.105 17.041.613 27.663 12.839 27.663 12.839 7.209 15.913 13.016 42.895 13.629 70.971.343 15.545.147 29.227-.025 36.927a315.09 315.09 0 0 1-.172 6.62l5.812 47.888z"/><path fill="#263238" d="M792.101 392.316s15.534 7.624 21.649 21.5l-3.523 4.59 7.601 12.858-27.156 43.964s11.698-66.692 1.429-82.912z"/><path fill="#fff" d="M792.101 392.316s15.534 7.624 21.649 21.5l-3.523 4.59 7.601 12.858-27.156 43.964s11.698-66.692 1.429-82.912z" opacity=".1"/><path fill="#000" d="M833.374 513.061c-8.729-1.324-22.092-3.58-35.039-6.816a106.973 106.973 0 0 1-4.806-1.226c-7.625-2.036-14.883-4.438-20.695-7.16-16.6-7.822-36.829-30.282-47.225-42.763-1.177-10.691-2.55-21.676-3.776-31.165a20.31 20.31 0 0 1-.196-2.109h25.648s37.809 45.877 44.675 50.144c.221.122.417.22.564.269.417.123 1.128.27 2.084.417 6.89 1.079 26.408 2.599 38.791 3.482.343 15.546.147 29.228-.025 36.927z" opacity=".3"/><path fill="#407BFF" d="m856.616 486.879 14.547 1.398-4.364 19.267-14.553-1.167 4.37-19.498z"/><path fill="#fff" d="m856.616 486.879 14.547 1.398-4.364 19.267-14.553-1.167 4.37-19.498z" opacity=".7"/><path fill="#263238" d="M722.912 411.454c-11.645 35.068 37.597 73.224 49.93 83.309 12.334 10.087 85.553 14.324 85.553 14.324l3.857-23.041s-66.687-7.604-71.581-10.821c-4.895-3.217-36.753-43.13-44.985-55.751-8.229-12.618-22.774-8.02-22.774-8.02z"/><path fill="#797979" d="M862.056 338.352c-1.664 0-3.211-.288-4.64-.864a12.275 12.275 0 0 1-3.744-2.464 11.698 11.698 0 0 1-2.496-3.68c-.576-1.408-.864-2.923-.864-4.544 0-1.621.288-3.125.864-4.512a11.23 11.23 0 0 1 2.496-3.68 11.452 11.452 0 0 1 3.776-2.464c1.429-.597 2.965-.896 4.608-.896 1.173 0 2.315.16 3.424.48 1.131.299 2.165.736 3.104 1.312a10.28 10.28 0 0 1 2.496 2.08l-2.24 2.304a7.977 7.977 0 0 0-3.04-2.272 9.093 9.093 0 0 0-3.744-.8c-1.195 0-2.304.213-3.328.64a7.98 7.98 0 0 0-2.624 1.792 8.14 8.14 0 0 0-1.76 2.656c-.405 1.024-.608 2.144-.608 3.36 0 1.195.203 2.304.608 3.328a8.251 8.251 0 0 0 1.792 2.688 8.251 8.251 0 0 0 2.688 1.792c1.024.427 2.133.64 3.328.64a8.96 8.96 0 0 0 3.68-.768 8.38 8.38 0 0 0 2.976-2.24l2.208 2.24c-.747.789-1.6 1.483-2.56 2.08a12.437 12.437 0 0 1-3.072 1.344 12.5 12.5 0 0 1-3.328.448zm13.527-.352v-22.4h10.144c1.494 0 2.795.277 3.904.832 1.131.555 2.006 1.333 2.624 2.336.64.981.96 2.133.96 3.456 0 1.472-.416 2.741-1.248 3.808-.832 1.067-1.952 1.835-3.36 2.304l4.992 9.664h-3.712l-4.64-9.184h-6.304V338h-3.36zm3.36-12h6.528c1.323 0 2.379-.331 3.168-.992.811-.683 1.216-1.6 1.216-2.752 0-1.109-.405-2.005-1.216-2.688-.789-.683-1.845-1.024-3.168-1.024h-6.528V326zm19.014 12v-22.4h4.512l7.008 14.336 7.008-14.336h4.48V338h-3.168v-18.304l-8.352 16.704-8.352-16.704V338h-3.136z"/></g><defs><clipPath id="a"><path fill="#fff" d="M0 0h1800v1010H0z"/></clipPath></defs></svg>