<svg xmlns="http://www.w3.org/2000/svg" width="653" height="564" fill="none"><path fill="#F5F5F5" fill-opacity=".1" d="M598.958 555.976c0 4.43-122.137 8.011-272.785 8.011-150.647 0-272.784-3.594-272.784-8.011s122.137-8.011 272.784-8.011c150.648 0 272.785 3.594 272.785 8.011Z"/><path fill="#256FF2" d="m493.376 55.356-85.163-23.682a2.182 2.182 0 0 0-2.686 1.519l-14.749 53.11a2.183 2.183 0 0 0 1.518 2.688l85.163 23.681a2.18 2.18 0 0 0 2.685-1.519l14.749-53.11a2.182 2.182 0 0 0-1.517-2.687Z"/><path fill="#000" d="m493.376 55.356-85.163-23.682a2.182 2.182 0 0 0-2.686 1.519l-14.749 53.11a2.183 2.183 0 0 0 1.518 2.688l85.163 23.681a2.18 2.18 0 0 0 2.685-1.519l14.749-53.11a2.182 2.182 0 0 0-1.517-2.687Z" opacity=".2"/><path fill="#256FF2" d="m515.334 87.798-85.727 21.547a2.182 2.182 0 0 0-1.584 2.648l13.42 53.463a2.181 2.181 0 0 0 2.647 1.585l85.727-21.547a2.184 2.184 0 0 0 1.584-2.649l-13.42-53.462a2.182 2.182 0 0 0-2.647-1.585Z"/><path fill="#fff" d="m457.88 114.419-12.666 3.184a2.691 2.691 0 0 0-1.954 3.266l2.567 10.229a2.69 2.69 0 0 0 3.265 1.955l12.667-3.184a2.691 2.691 0 0 0 1.954-3.266l-2.568-10.229a2.69 2.69 0 0 0-3.265-1.955Z" opacity=".6"/><path fill="#000" d="M449.434 145.466c3.879-.98 7.744-1.947 11.623-2.927 1.319-.327.81-2.379-.509-2.052-3.879.98-7.745 1.947-11.624 2.927-1.319.327-.809 2.379.51 2.052Zm17.905-4.508c3.879-.981 7.745-1.948 11.623-2.928 1.319-.327.81-2.378-.509-2.052-3.879.981-7.744 1.948-11.623 2.928-1.319.326-.81 2.378.509 2.052Zm17.892-4.496c3.879-.98 7.745-1.947 11.624-2.927 1.319-.327.809-2.379-.51-2.052-3.878.98-7.744 1.947-11.623 2.927-1.319.327-.81 2.379.509 2.052Zm17.906-4.496c3.878-.98 7.744-1.947 11.623-2.927 1.319-.327.81-2.379-.509-2.052-3.879.98-7.745 1.947-11.624 2.928-1.319.326-.81 2.378.51 2.051ZM395.339 69.838c.144-.51 89.318 25.04 89.318 25.04l4.793-17.25-89.161-25.602-4.95 17.8v.012Z" opacity=".3"/><path fill="#000" d="m448.154 104.666-5.329-1.594 42.681-10.9-1.058 3.36-36.294 9.134Z" opacity=".3"/><path fill="#256FF2" d="M397.39 254.497c11.466-5.371 25.114-.431 30.482 11.043 5.367 11.474.431 25.131-11.036 30.502-11.467 5.371-25.114.431-30.482-11.043-5.368-11.474-.431-25.131 11.036-30.502Z"/><path fill="#fff" d="m409.157 276.792 1.737 4.927c1.92-1.019 2.442-2.274 2.024-3.476-.483-1.359-1.933-1.568-3.761-1.451Zm-7.34-4.574c.47 1.333 1.894 1.516 3.657 1.425l-1.75-4.953c-1.868 1.006-2.351 2.3-1.907 3.528Z" opacity=".3"/><path fill="#fff" d="M400.616 256.784c-10.174 3.594-15.516 14.768-11.924 24.961 3.591 10.181 14.758 15.526 24.944 11.932 10.174-3.594 15.516-14.768 11.924-24.961-3.591-10.181-14.758-15.526-24.944-11.932Zm11.349 27.954 1.097 3.123-2.286.81-1.084-3.084c-2.782.797-5.733.837-7.627.092l.261-3.254a11.27 11.27 0 0 0 6.308.157l-1.959-5.555c-3.343.34-7.013.497-8.371-3.358-1.006-2.836.196-5.999 4.362-7.998l-1.11-3.15 2.285-.81 1.097 3.097a12.796 12.796 0 0 1 6.243-.3l-.144 3.215a12.288 12.288 0 0 0-5.028.091l1.985 5.62c3.357-.34 7.066-.523 8.424 3.306.993 2.823-.222 6.011-4.414 8.037v-.039h-.039Z" opacity=".3"/><path fill="#256FF2" d="M115.019 246.591c10.997-5.162 24.096-.418 29.242 10.598 5.158 11.004.418 24.112-10.592 29.261-10.996 5.162-24.096.418-29.241-10.599-5.159-11.004-.418-24.111 10.591-29.26Z"/><path fill="#fff" d="m126.303 267.971 1.672 4.731c1.841-.98 2.351-2.183 1.946-3.333-.457-1.307-1.855-1.503-3.605-1.398h-.013Zm-7.039-4.391c.457 1.281 1.815 1.45 3.513 1.359l-1.672-4.757c-1.789.967-2.246 2.209-1.841 3.385v.013Z" opacity=".3"/><path fill="#fff" d="M118.115 248.786c-9.769 3.45-14.889 14.167-11.441 23.942 3.448 9.775 14.157 14.898 23.926 11.448 9.769-3.45 14.888-14.166 11.441-23.942-3.448-9.775-14.157-14.898-23.926-11.448Zm10.879 26.817 1.058 2.993-2.195.771-1.044-2.954c-2.665.758-5.499.81-7.314.092l.248-3.124c1.959.628 4.062.68 6.047.144l-1.881-5.332c-3.212.314-6.726.484-8.032-3.228-.966-2.718.183-5.75 4.193-7.671l-1.071-3.019 2.194-.771 1.045 2.967a12.246 12.246 0 0 1 5.994-.288l-.143 3.084a11.822 11.822 0 0 0-4.833.092l1.907 5.397c3.213-.327 6.778-.497 8.084 3.176.954 2.718-.222 5.776-4.244 7.71v-.039h-.013Z" opacity=".3"/><path fill="#256FF2" d="M438.947 326.217c6.869 5.607 7.888 15.735 2.272 22.596-5.603 6.874-15.724 7.893-22.581 2.274-6.869-5.606-7.888-15.735-2.272-22.596 5.603-6.874 15.724-7.893 22.581-2.274Z"/><path fill="#fff" d="m428.459 340.397-2.585 2.587c1.227.902 2.181.85 2.807.223.719-.719.405-1.699-.222-2.823v.013Zm.653-6.012c-.705.706-.378 1.647.209 2.745l2.599-2.601c-1.201-.876-2.168-.784-2.808-.144Z" opacity=".3"/><path fill="#fff" d="M438.49 328.949c-5.355-5.345-14.014-5.319-19.355.039-5.342 5.358-5.316 14.023.039 19.368 5.354 5.345 14.013 5.319 19.355-.04 5.341-5.358 5.315-14.022-.039-19.367Zm-14.197 15.643-1.632 1.633-1.202-1.202 1.62-1.62c-1.345-1.516-2.273-3.372-2.377-4.783l2.129-.824a7.822 7.822 0 0 0 1.815 4.025l2.912-2.927c-1.227-2.013-2.442-4.273-.418-6.312 1.489-1.49 3.84-1.699 6.361.34l1.645-1.66 1.202 1.202-1.62 1.621a8.744 8.744 0 0 1 2.077 3.855l-2.077.876a8.432 8.432 0 0 0-1.58-3.15l-2.938 2.954c1.227 2.012 2.468 4.312.47 6.325-1.476 1.49-3.866 1.686-6.413-.353h.026Z" opacity=".3"/><path fill="#256FF2" d="M296.645 399.284h-56.876a4.5 4.5 0 0 1-4.506-4.509 4.5 4.5 0 0 1 4.506-4.509h56.876a4.5 4.5 0 0 1 4.506 4.509 4.5 4.5 0 0 1-4.506 4.509Zm-4.258 17.682h-56.876a4.5 4.5 0 0 1-4.506-4.509 4.5 4.5 0 0 1 4.506-4.509h56.876a4.5 4.5 0 0 1 4.506 4.509 4.5 4.5 0 0 1-4.506 4.509Zm1.097-26.83h-56.876a4.5 4.5 0 0 1-4.506-4.509 4.5 4.5 0 0 1 4.506-4.508h56.876a4.499 4.499 0 0 1 4.506 4.508 4.5 4.5 0 0 1-4.506 4.509Z"/><path fill="#fff" d="M293.484 390.136h-56.876a4.5 4.5 0 0 1-4.506-4.509 4.5 4.5 0 0 1 4.506-4.508h56.876a4.499 4.499 0 0 1 4.506 4.508 4.5 4.5 0 0 1-4.506 4.509Z" opacity=".3"/><path fill="#256FF2" d="M291.29 408.066h-56.876a4.5 4.5 0 0 1-4.506-4.509 4.5 4.5 0 0 1 4.506-4.508h56.876a4.499 4.499 0 0 1 4.506 4.508 4.5 4.5 0 0 1-4.506 4.509Z"/><path fill="#fff" d="M291.29 408.066h-56.876a4.5 4.5 0 0 1-4.506-4.509 4.5 4.5 0 0 1 4.506-4.508h56.876a4.499 4.499 0 0 1 4.506 4.508 4.5 4.5 0 0 1-4.506 4.509Z" opacity=".3"/><path fill="#256FF2" d="M295.796 381.105H238.92a4.499 4.499 0 0 1-4.506-4.508 4.5 4.5 0 0 1 4.506-4.509h56.876a4.5 4.5 0 0 1 4.506 4.509 4.5 4.5 0 0 1-4.506 4.508Z"/><path fill="#000" d="M240.918 373.408v6.312c0 .627.979.627.979 0v-6.312c0-.627-.979-.627-.979 0Zm5.772 0v6.312c0 .627.98.627.98 0v-6.312c0-.627-.98-.627-.98 0Zm5.433 0v6.312c0 .627.98.627.98 0v-6.312c0-.627-.98-.627-.98 0Zm5.773 0v6.312c0 .627.979.627.979 0v-6.312c0-.627-.979-.627-.979 0Zm5.433 0v6.312c0 .627.979.627.979 0v-6.312c0-.627-.979-.627-.979 0Zm5.772 0v6.312c0 .627.98.627.98 0v-6.312c0-.627-.98-.627-.98 0Zm5.433 0v6.312c0 .627.98.627.98 0v-6.312c0-.627-.98-.627-.98 0Zm5.773 0v6.312c0 .627.979.627.979 0v-6.312c0-.627-.979-.627-.979 0Zm5.433 0v6.312c0 .627.979.627.979 0v-6.312c0-.627-.979-.627-.979 0Zm5.772 0v6.312c0 .627.98.627.98 0v-6.312c0-.627-.98-.627-.98 0Zm-52.632 9.122v6.312c0 .627.98.627.98 0v-6.312c0-.627-.98-.627-.98 0Zm5.786 0v6.312c0 .627.98.627.98 0v-6.312c0-.627-.98-.627-.98 0Zm5.42 0v6.312c0 .627.979.627.979 0v-6.312c0-.627-.979-.627-.979 0Zm5.786 0v6.312c0 .627.979.627.979 0v-6.312c0-.627-.979-.627-.979 0Zm5.419 0v6.312c0 .627.98.627.98 0v-6.312c0-.627-.98-.627-.98 0Zm5.786 0v6.312c0 .627.98.627.98 0v-6.312c0-.627-.98-.627-.98 0Zm5.42 0v6.312c0 .627.979.627.979 0v-6.312c0-.627-.979-.627-.979 0Zm5.786 0v6.312c0 .627.979.627.979 0v-6.312c0-.627-.979-.627-.979 0Zm5.419 0v6.312c0 .627.98.627.98 0v-6.312c0-.627-.98-.627-.98 0Zm5.786 0v6.312c0 .627.979.627.979 0v-6.312c0-.627-.979-.627-.979 0Zm-45.031 9.266v6.312c0 .627.98.627.98 0v-6.312c0-.628-.98-.628-.98 0Zm5.786 0v6.312c0 .627.979.627.979 0v-6.312c0-.628-.979-.628-.979 0Zm5.42 0v6.312c0 .627.979.627.979 0v-6.312c0-.628-.979-.628-.979 0Zm5.785 0v6.312c0 .627.98.627.98 0v-6.312c0-.628-.98-.628-.98 0Zm5.42 0v6.312c0 .627.98.627.98 0v-6.312c0-.628-.98-.628-.98 0Zm5.786 0v6.312c0 .627.979.627.979 0v-6.312c0-.628-.979-.628-.979 0Zm5.42 0v6.312c0 .627.979.627.979 0v-6.312c0-.628-.979-.628-.979 0Zm5.785 0v6.312c0 .627.98.627.98 0v-6.312c0-.628-.98-.628-.98 0Zm5.42 0v6.312c0 .627.98.627.98 0v-6.312c0-.628-.98-.628-.98 0Zm5.786 0v6.312c0 .627.979.627.979 0v-6.312c0-.628-.979-.628-.979 0Zm-59.123 8.664v6.312c0 .627.98.627.98 0v-6.312c0-.627-.98-.627-.98 0Zm5.786 0v6.312c0 .627.979.627.979 0v-6.312c0-.627-.979-.627-.979 0Zm5.42 0v6.312c0 .627.979.627.979 0v-6.312c0-.627-.979-.627-.979 0Zm5.785 0v6.312c0 .627.98.627.98 0v-6.312c0-.627-.98-.627-.98 0Zm5.42 0v6.312c0 .627.979.627.979 0v-6.312c0-.627-.979-.627-.979 0Zm5.786 0v6.312c0 .627.979.627.979 0v-6.312c0-.627-.979-.627-.979 0Zm5.419 0v6.312c0 .627.98.627.98 0v-6.312c0-.627-.98-.627-.98 0Zm5.786 0v6.312c0 .627.98.627.98 0v-6.312c0-.627-.98-.627-.98 0Zm5.42 0v6.312c0 .627.979.627.979 0v-6.312c0-.627-.979-.627-.979 0Zm5.785 0v6.312c0 .627.98.627.98 0v-6.312c0-.627-.98-.627-.98 0Zm-47.512 8.808v6.312c0 .628.98.628.98 0v-6.312c0-.627-.98-.627-.98 0Zm5.786 0v6.312c0 .628.979.628.979 0v-6.312c0-.627-.979-.627-.979 0Zm5.42 0v6.312c0 .628.979.628.979 0v-6.312c0-.627-.979-.627-.979 0Zm5.785 0v6.312c0 .628.98.628.98 0v-6.312c0-.627-.98-.627-.98 0Zm5.42 0v6.312c0 .628.98.628.98 0v-6.312c0-.627-.98-.627-.98 0Zm5.786 0v6.312c0 .628.979.628.979 0v-6.312c0-.627-.979-.627-.979 0Zm5.42 0v6.312c0 .628.979.628.979 0v-6.312c0-.627-.979-.627-.979 0Zm5.785 0v6.312c0 .628.98.628.98 0v-6.312c0-.627-.98-.627-.98 0Zm5.42 0v6.312c0 .628.98.628.98 0v-6.312c0-.627-.98-.627-.98 0Zm5.786 0v6.312c0 .628.979.628.979 0v-6.312c0-.627-.979-.627-.979 0Z" opacity=".3"/><path fill="#256FF2" d="M498.552 397.572h-56.876a4.5 4.5 0 0 1-4.506-4.509 4.5 4.5 0 0 1 4.506-4.508h56.876a4.499 4.499 0 0 1 4.506 4.508 4.5 4.5 0 0 1-4.506 4.509Zm-4.257 17.682h-56.876a4.5 4.5 0 0 1-4.506-4.509 4.5 4.5 0 0 1 4.506-4.509h56.876a4.5 4.5 0 0 1 4.506 4.509 4.5 4.5 0 0 1-4.506 4.509Zm1.097-26.83h-56.876a4.5 4.5 0 0 1-4.506-4.509 4.499 4.499 0 0 1 4.506-4.508h56.876a4.5 4.5 0 0 1 4.506 4.508 4.5 4.5 0 0 1-4.506 4.509Z"/><path fill="#fff" d="M495.392 388.424h-56.876a4.5 4.5 0 0 1-4.506-4.509 4.499 4.499 0 0 1 4.506-4.508h56.876a4.5 4.5 0 0 1 4.506 4.508 4.5 4.5 0 0 1-4.506 4.509Z" opacity=".3"/><path fill="#256FF2" d="M493.198 406.354h-56.876a4.5 4.5 0 0 1-4.506-4.509 4.499 4.499 0 0 1 4.506-4.508h56.876a4.5 4.5 0 0 1 4.506 4.508 4.5 4.5 0 0 1-4.506 4.509Z"/><path fill="#fff" d="M493.198 406.354h-56.876a4.5 4.5 0 0 1-4.506-4.509 4.499 4.499 0 0 1 4.506-4.508h56.876a4.5 4.5 0 0 1 4.506 4.508 4.5 4.5 0 0 1-4.506 4.509Z" opacity=".3"/><path fill="#256FF2" d="M497.704 379.393h-56.877a4.499 4.499 0 0 1-4.505-4.508 4.5 4.5 0 0 1 4.505-4.509h56.877a4.5 4.5 0 0 1 4.505 4.509 4.499 4.499 0 0 1-4.505 4.508Z"/><path fill="#000" d="M442.826 371.683v6.312c0 .627.979.627.979 0v-6.312c0-.627-.979-.627-.979 0Zm5.772 0v6.312c0 .627.98.627.98 0v-6.312c0-.627-.98-.627-.98 0Zm5.433 0v6.312c0 .627.979.627.979 0v-6.312c0-.627-.979-.627-.979 0Zm5.773 0v6.312c0 .627.979.627.979 0v-6.312c0-.627-.979-.627-.979 0Zm5.432 0v6.312c0 .627.98.627.98 0v-6.312c0-.627-.98-.627-.98 0Zm5.773 0v6.312c0 .627.979.627.979 0v-6.312c0-.627-.979-.627-.979 0Zm5.433 0v6.312c0 .627.979.627.979 0v-6.312c0-.627-.979-.627-.979 0Zm5.772 0v6.312c0 .627.98.627.98 0v-6.312c0-.627-.98-.627-.98 0Zm5.433 0v6.312c0 .627.98.627.98 0v-6.312c0-.627-.98-.627-.98 0Zm5.773 0v6.312c0 .627.979.627.979 0v-6.312c0-.627-.979-.627-.979 0Zm-52.632 9.135v6.325c0 .627.98.627.98 0v-6.325c0-.627-.98-.627-.98 0Zm5.786 0v6.325c0 .627.979.627.979 0v-6.325c0-.627-.979-.627-.979 0Zm5.42 0v6.325c0 .627.979.627.979 0v-6.325c0-.627-.979-.627-.979 0Zm5.785 0v6.325c0 .627.98.627.98 0v-6.325c0-.627-.98-.627-.98 0Zm5.42 0v6.325c0 .627.98.627.98 0v-6.325c0-.627-.98-.627-.98 0Zm5.786 0v6.325c0 .627.979.627.979 0v-6.325c0-.627-.979-.627-.979 0Zm5.42 0v6.325c0 .627.979.627.979 0v-6.325c0-.627-.979-.627-.979 0Zm5.785 0v6.325c0 .627.98.627.98 0v-6.325c0-.627-.98-.627-.98 0Zm5.42 0v6.325c0 .627.979.627.979 0v-6.325c0-.627-.979-.627-.979 0Zm5.786 0v6.325c0 .627.979.627.979 0v-6.325c0-.627-.979-.627-.979 0Zm-45.031 9.266v6.312c0 .627.979.627.979 0v-6.312c0-.628-.979-.628-.979 0Zm5.785 0v6.312c0 .627.98.627.98 0v-6.312c0-.628-.98-.628-.98 0Zm5.42 0v6.312c0 .627.98.627.98 0v-6.312c0-.628-.98-.628-.98 0Zm5.786 0v6.312c0 .627.979.627.979 0v-6.312c0-.628-.979-.628-.979 0Zm5.42 0v6.312c0 .627.979.627.979 0v-6.312c0-.628-.979-.628-.979 0Zm5.785 0v6.312c0 .627.98.627.98 0v-6.312c0-.628-.98-.628-.98 0Zm5.42 0v6.312c0 .627.98.627.98 0v-6.312c0-.628-.98-.628-.98 0Zm5.786 0v6.312c0 .627.979.627.979 0v-6.312c0-.628-.979-.628-.979 0Zm5.42 0v6.312c0 .627.979.627.979 0v-6.312c0-.628-.979-.628-.979 0Zm5.785 0v6.312c0 .627.98.627.98 0v-6.312c0-.628-.98-.628-.98 0Zm-59.122 8.664v6.312c0 .627.979.627.979 0v-6.312c0-.627-.979-.627-.979 0Zm5.785 0v6.312c0 .627.98.627.98 0v-6.312c0-.627-.98-.627-.98 0Zm5.42 0v6.312c0 .627.98.627.98 0v-6.312c0-.627-.98-.627-.98 0Zm5.786 0v6.312c0 .627.979.627.979 0v-6.312c0-.627-.979-.627-.979 0Zm5.42 0v6.312c0 .627.979.627.979 0v-6.312c0-.627-.979-.627-.979 0Zm5.785 0v6.312c0 .627.98.627.98 0v-6.312c0-.627-.98-.627-.98 0Zm5.42 0v6.312c0 .627.98.627.98 0v-6.312c0-.627-.98-.627-.98 0Zm5.786 0v6.312c0 .627.979.627.979 0v-6.312c0-.627-.979-.627-.979 0Zm5.42 0v6.312c0 .627.979.627.979 0v-6.312c0-.627-.979-.627-.979 0Zm5.785 0v6.312c0 .627.98.627.98 0v-6.312c0-.627-.98-.627-.98 0Zm-47.512 8.808v6.312c0 .628.979.628.979 0v-6.312c0-.627-.979-.627-.979 0Zm5.772 0v6.312c0 .628.98.628.98 0v-6.312c0-.627-.98-.627-.98 0Zm5.433 0v6.312c0 .628.98.628.98 0v-6.312c0-.627-.98-.627-.98 0Zm5.773 0v6.312c0 .628.979.628.979 0v-6.312c0-.627-.979-.627-.979 0Zm5.433 0v6.312c0 .628.979.628.979 0v-6.312c0-.627-.979-.627-.979 0Zm5.785 0v6.312c0 .628.98.628.98 0v-6.312c0-.627-.98-.627-.98 0Zm5.42 0v6.312c0 .628.98.628.98 0v-6.312c0-.627-.98-.627-.98 0Zm5.786 0v6.312c0 .628.979.628.979 0v-6.312c0-.627-.979-.627-.979 0Zm5.42 0v6.312c0 .628.979.628.979 0v-6.312c0-.627-.979-.627-.979 0Zm5.785 0v6.312c0 .628.98.628.98 0v-6.312c0-.627-.98-.627-.98 0Z" opacity=".3"/><path fill="#256FF2" d="M588.836 430.91H531.96a4.5 4.5 0 0 1-4.506-4.509 4.5 4.5 0 0 1 4.506-4.509h56.876a4.5 4.5 0 0 1 4.506 4.509 4.5 4.5 0 0 1-4.506 4.509Zm-4.27 17.681h-56.877a4.499 4.499 0 0 1-4.505-4.508 4.5 4.5 0 0 1 4.505-4.509h56.877a4.5 4.5 0 0 1 4.505 4.509 4.499 4.499 0 0 1-4.505 4.508Z"/><path fill="#256FF2" d="M583.482 430.674h-56.877a4.507 4.507 0 0 0-4.505 4.509 4.507 4.507 0 0 0 4.505 4.509h56.877a4.507 4.507 0 0 0 4.505-4.509 4.507 4.507 0 0 0-4.505-4.509Z"/><path fill="#fff" d="M583.482 430.674h-56.877a4.507 4.507 0 0 0-4.505 4.509 4.507 4.507 0 0 0 4.505 4.509h56.877a4.507 4.507 0 0 0 4.505-4.509 4.507 4.507 0 0 0-4.505-4.509Z" opacity=".3"/><path fill="#000" d="M536.648 423.421v6.313c0 .627.98.627.98 0v-6.313c0-.627-.98-.627-.98 0Zm5.773 0v6.313c0 .627.98.627.98 0v-6.313c0-.627-.98-.627-.98 0Zm5.433 0v6.313c0 .627.979.627.979 0v-6.313c0-.627-.979-.627-.979 0Zm5.773 0v6.313c0 .627.979.627.979 0v-6.313c0-.627-.979-.627-.979 0Zm5.432 0v6.313c0 .627.98.627.98 0v-6.313c0-.627-.98-.627-.98 0Zm5.786 0v6.313c0 .627.98.627.98 0v-6.313c0-.627-.98-.627-.98 0Zm5.42 0v6.313c0 .627.979.627.979 0v-6.313c0-.627-.979-.627-.979 0Zm5.785 0v6.313c0 .627.98.627.98 0v-6.313c0-.627-.98-.627-.98 0Zm5.42 0v6.313c0 .627.98.627.98 0v-6.313c0-.627-.98-.627-.98 0Zm5.786 0v6.313c0 .627.979.627.979 0v-6.313c0-.627-.979-.627-.979 0Zm-59.123 8.665v6.312c0 .627.98.627.98 0v-6.312c0-.627-.98-.627-.98 0Zm5.773 0v6.312c0 .627.979.627.979 0v-6.312c0-.627-.979-.627-.979 0Zm5.433 0v6.312c0 .627.979.627.979 0v-6.312c0-.627-.979-.627-.979 0Zm5.772 0v6.312c0 .627.98.627.98 0v-6.312c0-.627-.98-.627-.98 0Zm5.433 0v6.312c0 .627.98.627.98 0v-6.312c0-.627-.98-.627-.98 0Zm5.773 0v6.312c0 .627.979.627.979 0v-6.312c0-.627-.979-.627-.979 0Zm5.433 0v6.312c0 .627.979.627.979 0v-6.312c0-.627-.979-.627-.979 0Zm5.772 0v6.312c0 .627.98.627.98 0v-6.312c0-.627-.98-.627-.98 0Zm5.433 0v6.312c0 .627.98.627.98 0v-6.312c0-.627-.98-.627-.98 0Zm5.773 0v6.312c0 .627.979.627.979 0v-6.312c0-.627-.979-.627-.979 0Zm-47.512 8.821v6.312c0 .628.979.628.979 0v-6.312c0-.627-.979-.627-.979 0Zm5.785 0v6.312c0 .628.98.628.98 0v-6.312c0-.627-.98-.627-.98 0Zm5.42 0v6.312c0 .628.979.628.979 0v-6.312c0-.627-.979-.627-.979 0Zm5.786 0v6.312c0 .628.979.628.979 0v-6.312c0-.627-.979-.627-.979 0Zm5.419 0v6.312c0 .628.98.628.98 0v-6.312c0-.627-.98-.627-.98 0Zm5.786 0v6.312c0 .628.98.628.98 0v-6.312c0-.627-.98-.627-.98 0Zm5.433 0v6.312c0 .628.98.628.98 0v-6.312c0-.627-.98-.627-.98 0Zm5.773 0v6.312c0 .628.979.628.979 0v-6.312c0-.627-.979-.627-.979 0Zm5.432 0v6.312c0 .628.98.628.98 0v-6.312c0-.627-.98-.627-.98 0Zm5.773 0v6.312c0 .628.979.628.979 0v-6.312c0-.627-.979-.627-.979 0Z" opacity=".3"/><path fill="#256FF2" d="M76.022 332.543c-3.37-4.796-8.397-8.756-14.209-9.475-1.371-.17-3.03 0-3.683 1.202-.379.706-.3 1.555-.196 2.34.927 7.815 1.868 15.63 2.795 23.445l22.555-1.556c-1.92-5.541-3.88-11.16-7.249-15.969l-.013.013Z"/><path fill="#fff" d="M76.022 332.543c-3.37-4.796-8.397-8.756-14.209-9.475-1.371-.17-3.03 0-3.683 1.202-.379.706-.3 1.555-.196 2.34.927 7.815 1.868 15.63 2.795 23.445l22.555-1.556c-1.92-5.541-3.88-11.16-7.249-15.969l-.013.013Z" opacity=".2"/><path fill="#256FF2" d="M50.869 366.024s13.02-43.178 62.126-45.047c49.106-1.856 88.168 11.174 89.657 54.718 1.489 43.558-23.808 52.117-23.808 52.117l-.745 22.714h-24.931V437.13s-32.742 1.49-45.018-2.234v19.354H81.364l-.366-26.059s-19.72-9.683-26.042-26.424H41.191c-4.727-13.866-6.334-27.47-2.142-36.004l11.82.274v-.013Z"/><path fill="#fff" d="M50.869 366.024s13.02-43.178 62.126-45.047c49.106-1.856 88.168 11.174 89.657 54.718 1.489 43.558-23.808 52.117-23.808 52.117l-.745 22.714h-24.931V437.13s-32.742 1.49-45.018-2.234v19.354H81.364l-.366-26.059s-19.72-9.683-26.042-26.424H41.191c-4.727-13.866-6.334-27.47-2.142-36.004l11.82.274v-.013Z" opacity=".3"/><path fill="#256FF2" d="M94.463 323.107c-3.37-4.796-8.398-8.756-14.21-9.475-1.37-.169-3.03 0-3.682 1.203-.379.705-.3 1.555-.196 2.339.927 7.815 1.867 15.63 2.795 23.445l22.554-1.555c-1.92-5.541-3.879-11.161-7.248-15.97l-.013.013Z"/><path fill="#fff" d="M94.463 323.107c-3.37-4.796-8.398-8.756-14.21-9.475-1.37-.169-3.03 0-3.682 1.203-.379.705-.3 1.555-.196 2.339.927 7.815 1.867 15.63 2.795 23.445l22.554-1.555c-1.92-5.541-3.879-11.161-7.248-15.97l-.013.013Z" opacity=".3"/><path fill="#263238" d="M120.035 331.863a81.068 81.068 0 0 1 29.554 2.431c1.724.47 2.456-2.196.732-2.666a83.085 83.085 0 0 0-30.286-2.522c-1.751.183-1.777 2.94 0 2.77v-.013ZM73.58 361.411c.157 1.202.235 2.405.209 3.62a27.067 27.067 0 0 1-.105 1.777c-.013.144-.026.288-.052.419-.039.313.013-.092-.026.196-.052.326-.104.653-.17.98-.13.705.196 1.529.967 1.699.679.157 1.554-.209 1.698-.967.47-2.562.574-5.162.235-7.737-.053-.379-.118-.693-.405-.98-.235-.235-.627-.418-.98-.405-.666.026-1.488.614-1.384 1.385l.013.013Z"/><path fill="#256FF2" d="M203.292 375.159c2.429-4.051 8.293-3.803 11.506-.901 3.474 3.136 5.707 9.905 3.63 14.336-1.123 2.404-4.257 3.737-6.086 1.294-1.763-2.353-.809-5.62.092-8.116 1.645-4.535 4.754-8.952 9.299-10.925 4.531-1.961 10.604-.85 13.255 3.58.915 1.529 3.305.131 2.39-1.398-3.134-5.253-10.056-7.07-15.685-5.123-6.464 2.248-10.722 8.573-12.498 14.938-.901 3.241-.927 7.057 1.685 9.54 2.311 2.208 5.694 1.973 8.058-.013 5.25-4.418 2.873-14.01-.836-18.636-4.245-5.293-13.347-6.391-17.187 0-.914 1.529 1.476 2.914 2.39 1.398l-.013.026Z"/><path fill="#263238" d="M38.971 367.71c4.963 9.697 6.269 20.962 3.683 31.535-.418 1.725 2.246 2.47 2.664.731 2.769-11.317 1.345-23.301-3.957-33.664-.81-1.581-3.2-.183-2.39 1.398Z"/><path fill="#256FF2" d="m231.515 159.619-5.642-3.698s.522-43.479-.183-54.77c-.705-11.292-6.217-51.987-6.217-51.987l5.734-2.901 6.308 113.356Z"/><path fill="#000" d="m231.515 159.619-5.642-3.698s.522-43.479-.183-54.77c-.705-11.292-6.217-51.987-6.217-51.987l5.734-2.901 6.308 113.356Z" opacity=".3"/><path fill="#256FF2" d="m279.922 43.197-54.715 3.051 6.314 113.364 54.715-3.052-6.314-113.363Z"/><path fill="#fff" d="m265.693 99.57 3.225-.17.131 2.365-3.213.183c-.013 2.836-.783 5.632-2.037 7.188l-2.978-1.124a11.196 11.196 0 0 0 1.868-5.907l-5.786.326c-.6 3.241-1.449 6.744-5.472 6.992-2.938.157-5.629-1.83-6.308-6.299l-3.2.17-.13-2.365 3.2-.183a12.466 12.466 0 0 1 1.436-5.96l2.978 1.02a11.902 11.902 0 0 0-1.293 4.77l5.825-.327c.6-3.241 1.41-6.796 5.42-7.005 2.938-.157 5.602 1.869 6.321 6.352l.013-.027Zm-12.238 3.057-5.132.275c.444 2.025 1.515 2.836 2.795 2.77 1.267-.065 1.959-1.333 2.35-3.031v-.027l-.013.013Zm6.374-5.776c-1.411.079-1.998 1.385-2.39 3.11l5.106-.274c-.444-2-1.476-2.849-2.716-2.784v-.052Z" opacity=".3"/><path fill="#fff" d="m282.605 146.708-5.198-93.506a6.304 6.304 0 0 1-6.647-5.96l-35.902 2c.196 3.477-2.468 6.47-5.955 6.652l5.198 93.519a6.304 6.304 0 0 1 6.647 5.959l35.902-1.999c-.196-3.477 2.468-6.469 5.955-6.652v-.013Zm-47.107-78.033a1.456 1.456 0 0 1-1.528-1.372l-.353-6.312a1.457 1.457 0 0 1 1.372-1.529 1.456 1.456 0 0 1 1.528 1.36l.352 6.311a1.455 1.455 0 0 1-1.358 1.53l-.013.012Zm20.883 49.909c-9.586.536-17.788-6.809-18.323-16.401-.536-9.592 6.804-17.8 16.39-18.335 9.586-.536 17.788 6.809 18.323 16.401.536 9.592-6.804 17.799-16.377 18.335h-.013Zm20.138 24.556a1.458 1.458 0 0 1-1.528-1.372l-.365-6.338a1.45 1.45 0 0 1 1.293-1.582 1.45 1.45 0 0 1 1.58 1.294v.131l.353 6.312a1.443 1.443 0 0 1-1.32 1.542h-.039.013l.013.013Z" opacity=".3"/><path fill="#256FF2" d="m226.669 171.081-6.739-.249s-21.98-37.52-28.405-46.811c-6.426-9.305-32.141-41.323-32.141-41.323l3.409-5.437 63.876 93.833v-.013Z"/><path fill="#000" d="m226.669 171.081-6.739-.249s-21.98-37.52-28.405-46.811c-6.426-9.305-32.141-41.323-32.141-41.323l3.409-5.437 63.876 93.833v-.013Z" opacity=".3"/><path fill="#256FF2" d="m208.06 46.357-45.286 30.878 63.892 93.828 45.286-30.877-63.892-93.829Z"/><path fill="#fff" d="m224.959 101.987 2.677-1.816 1.332 1.947-2.651 1.816c1.449 2.444 2.233 5.228 1.959 7.214l-3.135.575a11.274 11.274 0 0 0-1.436-6.024l-4.78 3.267c1.162 3.084 2.233 6.521-1.084 8.808-2.429 1.66-5.76 1.333-8.659-2.143l-2.664 1.79-1.332-1.947 2.651-1.804a12.4 12.4 0 0 1-1.842-5.841l3.069-.654c.118 1.66.575 3.28 1.346 4.744l4.819-3.293c-1.163-3.084-2.299-6.547 1.032-8.795 2.429-1.66 5.759-1.294 8.698 2.169v-.013Zm-8.907 8.939-4.245 2.888c1.424 1.503 2.769 1.647 3.814.941 1.044-.706.992-2.156.457-3.816h-.026v-.013Zm2.481-8.246c-1.162.797-1.006 2.221-.444 3.907l4.231-2.875c-1.41-1.49-2.729-1.673-3.761-.98l-.026-.052Z" opacity=".3"/><path fill="#fff" d="m263.76 133.626-52.697-77.405a6.31 6.31 0 0 1-8.764-1.66l-29.711 20.256c1.959 2.889 1.215 6.81-1.659 8.77l52.697 77.405a6.309 6.309 0 0 1 8.764 1.659l29.711-20.256c-1.959-2.888-1.214-6.809 1.659-8.769Zm-80.593-42.499a1.458 1.458 0 0 1-2.012-.379l-3.552-5.227a1.459 1.459 0 0 1 .379-2.013 1.459 1.459 0 0 1 2.011.38l3.565 5.227a1.461 1.461 0 0 1-.378 2.012h-.013ZM226.8 123.08c-7.94 5.41-18.754 3.358-24.161-4.587-5.407-7.946-3.356-18.767 4.584-24.177 7.941-5.41 18.754-3.359 24.161 4.587 5.407 7.932 3.356 18.753-4.571 24.164l-.013.013Zm29.92 10.624a1.455 1.455 0 0 1-2.011-.379l-3.578-5.24a1.446 1.446 0 0 1 .3-2.026 1.444 1.444 0 0 1 2.024.301c.027.039.053.065.066.104l3.552 5.228c.457.64.3 1.542-.339 1.999 0 0-.027.013-.04.027h.013l.013-.014Z" opacity=".3"/><path fill="#256FF2" d="m213.165 188.684-6.373 2.209s-34.06-27.013-43.411-33.351c-9.351-6.339-44.901-26.882-44.901-26.882l1.215-6.313 93.483 64.337h-.013Z"/><path fill="#000" d="m213.165 188.684-6.373 2.209s-34.06-27.013-43.411-33.351c-9.351-6.339-44.901-26.882-44.901-26.882l1.215-6.313 93.483 64.337h-.013Z" opacity=".3"/><path fill="#256FF2" d="m150.739 79.183-31.055 45.18 93.487 64.342 31.055-45.18-93.487-64.342Z"/><path fill="#fff" d="m186.588 124.883 1.829-2.666 1.946 1.333-1.816 2.653c2.234 1.751 3.971 4.064 4.441 6.012l-2.717 1.672a11.018 11.018 0 0 0-3.526-5.083l-3.278 4.77c2.207 2.457 4.44 5.279 2.181 8.599-1.672 2.431-4.884 3.332-8.842 1.137l-1.828 2.64-1.946-1.333 1.815-2.64a12.435 12.435 0 0 1-3.826-4.783l2.625-1.725a11.876 11.876 0 0 0 2.978 3.933l3.304-4.822c-2.207-2.457-4.506-5.267-2.221-8.573 1.672-2.431 4.898-3.293 8.894-1.124h-.013Zm-5.067 11.566-2.912 4.234c1.867.889 3.173.536 3.892-.51.718-1.045.143-2.365-.954-3.724h-.026Zm-.666-8.586c-.797 1.163-.131 2.431 1.006 3.803l2.899-4.208c-1.855-.876-3.148-.575-3.853.444l-.052-.039Z" opacity=".3"/><path fill="#fff" d="m234.205 140.33-77.119-53.071a6.298 6.298 0 0 1-8.777 1.62l-20.373 29.64a6.306 6.306 0 0 1 1.619 8.782l77.12 53.084a6.296 6.296 0 0 1 8.776-1.62l20.373-29.653a6.306 6.306 0 0 1-1.619-8.782Zm-90.506-10.428a1.462 1.462 0 0 1-2.011.379l-5.198-3.581a1.464 1.464 0 0 1-.379-2.013 1.448 1.448 0 0 1 2.012-.366l5.211 3.581c.653.457.822 1.359.365 2.013v-.013Zm52.227 13.983c-5.446 7.919-16.26 9.919-24.174 4.469-7.914-5.449-9.912-16.27-4.466-24.19 5.446-7.919 16.259-9.919 24.174-4.469 7.914 5.436 9.912 16.27 4.479 24.177l-.013.013Zm31.736-.928a1.462 1.462 0 0 1-2.011.379l-5.224-3.594c-.679-.418-.875-1.32-.457-1.999.418-.68 1.319-.876 1.998-.458.039.026.065.053.104.066l5.198 3.58c.666.432.849 1.333.405 1.987 0 0-.013.026-.026.039h.013Z" opacity=".3"/><path fill="#256FF2" d="M327.832 204.915H136.529c-5.968 0-8.567-7.554-3.852-11.226l90.375-70.452 100.927-78.686a6.272 6.272 0 0 1 7.706 0l100.928 78.686 90.375 70.452c4.714 3.672 2.115 11.226-3.853 11.226H327.832Z"/><path fill="#256FF2" d="M210.253 204.915h-36.555v212.26h36.555v-212.26Zm82.84 0h-36.555v212.26h36.555v-212.26Zm112.198 0h-36.555v212.26h36.555v-212.26Zm81.377 0h-36.555v212.26h36.555v-212.26Z"/><path fill="#256FF2" d="M514.642 204.915H141.035a.81.81 0 0 0-.81.81v21.08c0 .447.363.81.81.81h373.607a.81.81 0 0 0 .81-.81v-21.08a.81.81 0 0 0-.81-.81ZM221.837 409.373h-59.736v9.801h59.736v-9.801Zm82.84 0H244.94v9.801h59.737v-9.801Zm112.198 0h-59.736v9.801h59.736v-9.801Zm81.377 0h-59.736v9.801h59.736v-9.801Z"/><g opacity=".7"><path fill="#fff" d="M327.832 204.915H136.529c-5.968 0-8.567-7.554-3.852-11.226l90.375-70.452 100.927-78.686a6.272 6.272 0 0 1 7.706 0l100.928 78.686 90.375 70.452c4.714 3.672 2.115 11.226-3.853 11.226H327.832Z"/><path stroke="#263238" stroke-miterlimit="10" d="M182.84 180.66 323.705 70.858a6.74 6.74 0 0 1 8.28 0L475.136 182.45c.783.614.352 1.882-.64 1.882H184.107c-1.946 0-2.795-2.47-1.254-3.672h-.013Z"/><path fill="#fff" d="M210.253 204.915h-36.555v212.26h36.555v-212.26Zm82.84 0h-36.555v212.26h36.555v-212.26Zm112.198 0h-36.555v212.26h36.555v-212.26Zm81.377 0h-36.555v212.26h36.555v-212.26Z"/><path fill="#fff" d="M514.642 204.915H141.035a.81.81 0 0 0-.81.81v21.08c0 .447.363.81.81.81h373.607a.81.81 0 0 0 .81-.81v-21.08a.81.81 0 0 0-.81-.81ZM221.837 409.373h-59.736v9.801h59.736v-9.801Zm82.84 0H244.94v9.801h59.737v-9.801Zm112.198 0h-59.736v9.801h59.736v-9.801Zm81.377 0h-59.736v9.801h59.736v-9.801Z"/></g><path fill="#000" d="M515.452 204.915H140.225v9.292h375.227v-9.292Z" opacity=".1"/><path fill="#256FF2" d="M218.011 227.615h-50.948v9.775h50.948v-9.775Zm82.604 0h-50.947v9.775h50.947v-9.775Zm111.872 0H361.54v9.775h50.947v-9.775Zm81.377 0h-50.947v9.775h50.947v-9.775Z"/><path fill="#fff" d="M412.487 227.615H361.54v9.775h50.947v-9.775Zm81.377 0h-50.947v9.775h50.947v-9.775Zm-275.853 0h-50.948v9.775h50.948v-9.775Zm82.604 0h-50.947v9.775h50.947v-9.775Z" opacity=".7"/><path fill="#000" d="M218.011 227.615h-50.948v2.928h50.948v-2.928Z" opacity=".1"/><path stroke="#263238" stroke-linecap="round" stroke-linejoin="round" d="M167.403 237.39h50.608"/><path fill="#000" d="M300.576 227.615h-50.947v2.928h50.947v-2.928Z" opacity=".1"/><path stroke="#263238" stroke-linecap="round" stroke-linejoin="round" d="M249.968 237.39h50.608"/><path fill="#000" d="M412.487 227.615H361.54v2.928h50.947v-2.928Z" opacity=".1"/><path stroke="#263238" stroke-linecap="round" stroke-linejoin="round" d="M361.88 237.39h50.607"/><path fill="#000" d="M493.864 227.615h-50.947v2.928h50.947v-2.928Z" opacity=".1"/><path stroke="#263238" stroke-linecap="round" stroke-linejoin="round" d="M443.256 237.39h50.608"/><path fill="#000" d="M162.101 416.952h59.736v-2.927h-59.736v2.927Z" opacity=".1"/><path stroke="#263238" stroke-linecap="round" stroke-linejoin="round" d="M221.445 409.373h-59.344"/><path fill="#000" d="M245.946 416.952h59.736v-2.927h-59.736v2.927Z" opacity=".1"/><path stroke="#263238" stroke-linecap="round" stroke-linejoin="round" d="M305.277 409.373h-59.344"/><path fill="#000" d="M357.139 416.952h59.736v-2.927h-59.736v2.927Z" opacity=".1"/><path stroke="#263238" stroke-linecap="round" stroke-linejoin="round" d="M416.483 409.373h-59.344"/><path fill="#000" d="M438.529 416.952h59.736v-2.927h-59.736v2.927Z" opacity=".1"/><path stroke="#263238" stroke-linecap="round" stroke-linejoin="round" d="M497.86 409.373h-59.344"/><path fill="#256FF2" d="M532.887 457.4H120.113l10.33-40.225h389.619l12.825 40.225Z"/><path fill="#fff" d="M532.887 457.4H120.113l10.33-40.225h389.619l12.825 40.225Z" opacity=".7"/><path fill="#000" d="M125.663 435.379h400.054l2.403 7.345H123.691l1.972-7.345Zm55.936-32.266a2.728 2.728 0 0 1-2.729-2.731V252.681a2.73 2.73 0 1 1 5.459 0v147.701a2.73 2.73 0 0 1-2.73 2.731Zm10.553 0a2.73 2.73 0 0 1-2.73-2.731V252.681a2.73 2.73 0 1 1 5.459 0v147.701a2.729 2.729 0 0 1-2.729 2.731Zm10.539 0a2.728 2.728 0 0 1-2.729-2.731V252.681a2.73 2.73 0 1 1 5.459 0v147.701a2.73 2.73 0 0 1-2.73 2.731Zm61.421 0a2.728 2.728 0 0 1-2.729-2.731V252.681a2.73 2.73 0 1 1 5.459 0v147.701a2.73 2.73 0 0 1-2.73 2.731Zm10.553 0a2.73 2.73 0 0 1-2.73-2.731V252.681a2.73 2.73 0 1 1 5.459 0v147.701a2.729 2.729 0 0 1-2.729 2.731Zm10.539 0a2.728 2.728 0 0 1-2.729-2.731V252.681a2.73 2.73 0 1 1 5.459 0v147.701a2.73 2.73 0 0 1-2.73 2.731Zm91.264 0a2.73 2.73 0 0 1-2.73-2.731V252.681a2.73 2.73 0 1 1 5.459 0v147.701a2.73 2.73 0 0 1-2.729 2.731Zm10.539 0a2.73 2.73 0 0 1-2.73-2.731V252.681a2.73 2.73 0 1 1 5.46 0v147.701a2.73 2.73 0 0 1-2.73 2.731Zm10.552 0a2.729 2.729 0 0 1-2.729-2.731V252.681a2.73 2.73 0 1 1 5.459 0v147.701a2.73 2.73 0 0 1-2.73 2.731Zm60.455 0a2.728 2.728 0 0 1-2.729-2.731V252.681a2.73 2.73 0 1 1 5.459 0v147.701a2.73 2.73 0 0 1-2.73 2.731Zm10.54 0a2.73 2.73 0 0 1-2.73-2.731V252.681a2.73 2.73 0 1 1 5.459 0v147.701a2.729 2.729 0 0 1-2.729 2.731Zm10.552 0a2.728 2.728 0 0 1-2.729-2.731V252.681a2.73 2.73 0 1 1 5.459 0v147.701a2.73 2.73 0 0 1-2.73 2.731Z" opacity=".1"/><path stroke="#263238" stroke-linecap="round" stroke-linejoin="round" d="M140.97 205.869c126.368 0 251.914-.431 378.282-.431"/><path fill="#000" d="M333.722 158.208v5.397l-3.957.013v-5.371c-4.741-.287-9.338-1.816-11.819-4.051l2.155-4.875a18.724 18.724 0 0 0 9.677 3.66v-9.684c-5.368-1.294-11.127-3.045-11.166-9.762 0-4.914 3.565-9.227 11.088-9.959v-5.358l3.97-.013v5.358a20.705 20.705 0 0 1 9.821 2.954l-1.972 4.874a19.829 19.829 0 0 0-7.836-2.587v9.762c5.381 1.294 11.219 2.98 11.205 9.684 0 4.914-3.617 9.187-11.166 9.984v-.026Zm-3.983-20.714v-8.599c-3.409.549-4.872 2.274-4.885 4.404 0 2.131 2.038 3.398 4.846 4.208h.039v-.013Zm9.064 11.174c0-2.365-2.129-3.476-4.976-4.273v8.546c3.382-.548 4.884-2.195 4.884-4.273h.092Z" opacity=".2"/><path fill="#256FF2" d="M560.888 275.407v22.988c0 1.385.248 3.227-1.463 3.593-.94.196-2.037.079-3.004.079h-15.424c-.626 0-.626.98 0 .98h9.247c2.912 0 5.955.248 8.868-.039 3.33-.327 2.768-3.908 2.768-6.391v-21.223c0-.627-.979-.627-.979 0l-.013.013Z"/><path fill="#256FF2" d="M542.552 302.563c0 .863-.706 1.569-1.568 1.569a1.572 1.572 0 0 1-1.567-1.569c0-.862.705-1.568 1.567-1.568s1.568.706 1.568 1.568Zm42.105-83.9h-52.514a3.802 3.802 0 0 0-3.801 3.803v49.138c0 2.1 1.702 3.803 3.801 3.803h52.514c2.099 0 3.8-1.703 3.8-3.803v-49.138c0-2.1-1.701-3.803-3.8-3.803Z"/><path fill="#fff" d="M584.657 218.663h-52.514a3.802 3.802 0 0 0-3.801 3.803v49.138c0 2.1 1.702 3.803 3.801 3.803h52.514c2.099 0 3.8-1.703 3.8-3.803v-49.138c0-2.1-1.701-3.803-3.8-3.803Z" opacity=".6"/><path fill="#256FF2" d="M548.886 254.693h-9.338v12.624h9.338v-12.624Zm14.183-6.639h-9.338v19.263h9.338v-19.263Zm14.366-8.011h-9.338v27.274h9.338v-27.274Zm-17.984 2.026v2.156h-1.58v-2.143c-1.894-.118-3.735-.732-4.728-1.62l.862-1.948a7.548 7.548 0 0 0 3.866 1.464v-3.868c-2.155-.523-4.454-1.216-4.467-3.908 0-1.973 1.424-3.685 4.441-3.986v-2.143h1.593v2.143a8.472 8.472 0 0 1 3.931 1.176l-.796 1.948a7.873 7.873 0 0 0-3.135-1.033v3.908c2.155.523 4.493 1.189 4.48 3.868 0 1.973-1.45 3.672-4.467 3.999v-.013Zm-1.593-8.285v-3.438c-1.371.223-1.946.915-1.946 1.765 0 .849.823 1.359 1.933 1.686h.013v-.013Zm3.618 4.469c0-.941-.849-1.385-1.999-1.712v3.424c1.359-.222 1.946-.876 1.959-1.712h.04Z"/><path fill="#fff" d="M572.759 218.663s4.793 7.854-1.737 15.134c-6.517 7.279-12.498 14.702-22.136 19.093-9.547 4.339-21.066 7.174-21.066 7.174l.509 11.514s18.924-8.795 26.786-12.154c7.862-3.372 15.15-8.86 19.329-19.446 4.179-10.586 10.866-21.236 10.866-21.236l-12.564-.066.013-.013Z" opacity=".3"/><path fill="#263238" d="M509.314 289.443c-.131.169-.274.339-.418.509 3.5 3.49-.94 6.966-2.22 7.423a10.89 10.89 0 0 1-3.017.68c-4.898.431-8.672-2.601-10.709-4.117-2.939-2.182-1.998-8.534-3.383-12.049-1.815-4.613-4.44-15.761.131-23.314 2.181-3.542 3.957-4.823 3.957-4.823 2.194-1.672 5.211-1.607 7.718-.431 2.508 1.176 4.454 3.319 6.112 5.62 2.991 4.103 4.95 8.808 5.708 13.774.666 4.678-.967 5.998-2.312 8.743v.091c.47 2.745.065 5.776-1.554 7.894h-.013Z"/><path fill="#263238" d="M500.511 296.996s-6.908-.784-14.117-.797c-4.154 0-2.965-4.548-7.941-1.072-1.802-3.306-.901-7.423 1.084-10.637a9.732 9.732 0 0 1 1.489-1.869 9.32 9.32 0 0 1 1.371-1.111c.274-.183.549-.34.836-.484a9.626 9.626 0 0 1 2.364-.914 9.988 9.988 0 0 1 4.218-.131 12.173 12.173 0 0 1 5.446 2.627c.758.614 1.437 1.32 2.051 2.078.313.366.6.771.875 1.189.352.536.679 1.098.953 1.673.013.052.026.117.039.17.692 1.855.954 3.842.758 5.815-.105 1.242.744 2.444.561 3.476l.013-.013Z"/><path fill="#B97964" d="M496.567 305.373c-1.462 1.516-2.808 1.006-4.754.209-11.636-4.182-8.188-9.814-8.188-9.814 2.207-2.588 2.298-5.698 1.502-10.416-.013-.144-.026-.274-.013-.418 0-.627.209-1.242.574-1.751a3.109 3.109 0 0 1 4.336-.811l5.211 1.49c.013.066.026.144.039.222.013 2.588-.065 4.587-.039 6.169.039.183 0 .392 0 .575.039.183.026.392.026.588.131 2.156 3.775 5.332 5.277 6.09.901.523 1.005 2.77-3.971 7.867Z"/><path fill="#000" d="M495.222 283.849c0 .079.013.157.052.235.013 2.588-.065 4.588-.039 6.169v.575c0 .196.039.405.079.601a19.998 19.998 0 0 1-10.122-6.495c0-.627.196-1.229.535-1.751a3.115 3.115 0 0 1 4.323-.863l5.172 1.529Z" opacity=".2"/><path fill="#B97964" d="M483.86 267.056c-.875 8.612-1.437 12.232 2.063 17.407 5.277 7.776 15.79 7.188 19.199-.954 3.016-7.331 3.983-20.151-3.618-25.104-7.601-4.953-16.756.039-17.644 8.651Z"/><path fill="#263238" d="M493.394 269.003a13.984 13.984 0 0 0-5.877 4.548l-.262.327c-.339.457-.666.915-.992 1.411a21.95 21.95 0 0 0-1.424 2.614c-.209.47-.418.915-.6 1.451-.17.535-.431 1.241-.614 1.881-.052.21-.118.419-.157.628a21.113 21.113 0 0 0 .327 11.004v.078l-.157-.105c-.523 4.404-2.625 1.83-2.625 1.83s-6.465 1.581-8.829 2.235c-8.698 2.417-10.396-5.75-6.099-11.252.392-.497 2.691-2.353 2.886-2.523-2.128-.287-3.63-2.234-3.343-4.364a3.96 3.96 0 0 1 .444-1.36c1.123-2.6 3.33-4.587 5.551-6.22.405-.301.849-.575 1.227-.837a2.249 2.249 0 0 1-.888.066 3.076 3.076 0 0 1-2.599-2.039c-1.149-4.3 6.243-1.516 13.099-14.245 2.612-4.874 7.405-2.757 11.924-1.202l.222.078c4.728 1.673 7.131 4.104 7.523 6.652.627 3.45-2.599 7.136-8.776 9.357l.039-.013Z"/><path fill="#263238" d="M486.955 267.657c1.62 1.085.34 9.135-3.748 8.273-4.101-.85-1.58-11.854 3.748-8.273Z"/><path fill="#B97964" d="M479.145 273.943c.64 1.961 2.038 3.411 3.461 4.104 2.142 1.045 4.075-2.34 3.775-4.77-.262-2.183-2.195-3.999-4.493-4.025-2.259-.027-3.487 2.443-2.756 4.691h.013Z"/><path stroke="#000" stroke-linecap="round" stroke-linejoin="round" stroke-width=".5" d="M484.017 274.152a3.196 3.196 0 0 0-.888-2.247 3.162 3.162 0 0 0-2.221-.968" opacity=".2"/><path fill="#263238" d="M489.28 255.608c-1.254 2.705-3.761 2.261-5.655 4.561-1.894 2.313-3.239 5.619-1.776 8.22a23.57 23.57 0 0 1 1.371 2.169c.914 2.196-.731 4.574-1.071 6.927-.313 2.195-.757 4.77.862 6.155a5.452 5.452 0 0 1 1.868 4.692c-.053.562-2.247 4.116-2.403 4.652-.222.784 2.324-1.424 3.108-1.202a1.444 1.444 0 0 0 1.541-.51c.052-.078.117-.157.157-.248a10.143 10.143 0 0 0 1.371-8.534c-.483-1.647-1.045-3.254-1.528-4.901a8.716 8.716 0 0 1-.222-5.07c1.214-3.738 11.375-11.226 5.002-19.133a.507.507 0 0 0-.34-.196 1.826 1.826 0 0 0-1.606.771 8.223 8.223 0 0 0-.692 1.634l.013.013Zm5.315 16.545c-.143.915.183 1.751.745 1.882.561.13 1.136-.51 1.28-1.412.143-.914-.183-1.751-.745-1.882-.561-.13-1.136.497-1.28 1.412Zm8.411 1.751c-.144.889.196 1.699.744 1.83.562.13 1.123-.484 1.267-1.359.144-.889-.196-1.699-.744-1.83-.562-.131-1.124.483-1.267 1.359Zm-9.534-5.28c.105.04.222.026.327-.039 1.567-.941 2.964-.196 2.977-.196.209.105.457.039.549-.183a.477.477 0 0 0-.196-.588c-.079-.039-1.816-.967-3.761.196-.196.118-.249.379-.131.588.052.105.144.17.248.209l-.013.013Zm13.269 1.595c.091 0 .183-.066.235-.144a.462.462 0 0 0-.091-.588c-1.711-1.503-3.344-.98-3.409-.954-.196.065-.287.3-.209.523.078.222.3.352.496.287.066-.026 1.332-.405 2.691.784a.36.36 0 0 0 .287.092Z"/><path fill="#A0634F" d="M500.799 273.002s.653 3.477 1.737 5.79c.196.405-.079.875-.523.941-1.136.17-2.298-.445-2.298-.445l1.071-6.273.013-.013Z"/><path fill="#263238" d="m495.536 270.702 2.05-.052s-1.384 1.228-2.05.052Zm8.528 1.804 2.05-.053s-1.384 1.229-2.05.053Z"/><path fill="#256FF2" d="M506.284 296.447a18.756 18.756 0 0 1 9.521 10.913c2.847 8.546 4.492 21.654 4.492 21.654l14.079-13.042 8.894 7.161s-20.766 27.444-23.286 28.124c-7.47 1.999-11.571-15.186-11.571-15.186l-2.625-39.859.509.248-.013-.013Zm-39.885 238.449.966 1.359 1.933-.836 1.202 5.959 8.136 11.383s3.095.497.653-5.972a6.205 6.205 0 0 1-.261-.981c-.719-3.868.875-11.291.875-11.291l-4.467-6.246s-.47-.001-1.254.143c-1.854.314-5.55 1.216-7.796 6.482h.013Z"/><path fill="#000" d="m466.399 534.896.966 1.359 1.933-.836 1.202 5.959 8.136 11.383s3.095.497.653-5.972a6.205 6.205 0 0 1-.261-.981c-.719-3.868.875-11.291.875-11.291l-4.467-6.246s-.47-.001-1.254.143c-1.854.314-5.55 1.216-7.796 6.482h.013Z" opacity=".2"/><path fill="#A0634F" d="m474.196 528.414-.014.013c1.502.157.183 6.822.784 10.573.549 3.332 1.985 6.482 4.088 6.809-.718-3.869 1.894-12.69 1.894-12.69l-3.592-5.018s-2.364.183-3.147.313h-.013Z"/><path fill="#256FF2" d="M478.871 552.343h1.659l.457-2.065 5.485 2.496h13.909s2.207-2.248-4.414-4.038a4.459 4.459 0 0 1-.941-.366c-3.539-1.673-8.567-7.318-8.567-7.318h-7.64s-.261.392-.627 1.11c-.836 1.699-2.273 5.254.653 10.168l.026.013Z"/><path fill="#B97964" d="M478.218 542.176v.026c1.006-1.137 5.59 3.842 8.959 5.541 3.004 1.503 6.373 2.169 7.862.64-3.539-1.673-9.142-9.344-9.142-9.344l-6.138.183s-1.188 2.235-1.541 2.954Z"/><path fill="#263238" d="M491.513 474.885c3.787-10.441 8.424-20.713 14-29.038-22.776-65.369-22.058-94.603-22.058-94.603l27.426-.026 2.925 10.925s6.857 27.209 8.855 42.839l5.72 34.736v.091a39.215 39.215 0 0 1-4.61 20.714c-3.722 6.926-10.317 15.16-13.935 22.622a798.295 798.295 0 0 0-13.086 28.581c-4.035 9.318-7.327 17.459-9.377 23.118-1.946.222-7.81-3.306-9.495-6.508 0 0 4.153-27.261 13.661-53.477l-.026.026Z"/><path fill="#000" d="M499.166 426.414c-3.343-11.108-7.078-17.446-8.776-25.693-.013-1.921 6.386-10.167 9.638-13.486 0 0 3.918 15.76-.862 39.179Zm-2.429 85.325c-4.035 9.318-7.327 17.459-9.377 23.118-1.946.222-7.81-3.306-9.495-6.508 0 0 4.153-27.261 13.661-53.477 1.933 10.821 4.088 24.504 5.224 36.854l-.013.013Z" opacity=".2"/><path fill="#263238" d="M503.946 351.845s-10.435 72.204-11.649 88.461c0 0-6.452 78.856-5.29 98.681l-14.379.705s-9.677-59.723-4.78-98.053c.418-4.992-4.035-37.585-4.727-50.562-1.698-31.234 10.97-39.807 10.97-39.807l29.868.601-.013-.026Z"/><path fill="#000" d="m485.741 352.93-2.286 35.86-20.504-2.444v-3.685l22.79-29.731Z" opacity=".2"/><path fill="#fff" d="M475.815 353.818c-.797-9.095-4.036-25.771-9.586-43.283-1.802-5.698 1.254-12.127 1.254-12.127s7.561-.196 8.332-.288a77.44 77.44 0 0 1 2.56-.261c6.491-.536 11.806-.928 17.605-.601 1.462.091 2.951.209 4.414.326.47.053 3.552.092 4.009.144 0 0 8.319 9.749 8.777 16.623.248 3.842 2.102 5.502 1.893 14.702-.039 6.247-4.571 15.343-4.976 24.125l-34.282.614v.026Z"/><path fill="#256FF2" d="m482.293 385.875-24.122-2.522 15.28-42.852s-1.267-.431-3.448-8.638a869.999 869.999 0 0 1-3.095-11.997c-1.358-5.436-2.377-9.945-2.455-11.409-.248-4.587 5.328-11.879 5.328-11.879l14.118-1.738s2.703 9.762 3.265 28.411c.575 18.636-4.871 62.624-4.871 62.624Zm13.791-92.107s12.133 14.65 15.111 25.223c1.959 6.952-1.907 26.986-1.45 32.279.744 8.73 4.597 19.42 9.599 35.076l3.304-.471-9.103-34.657s4.219-26.111 3.096-32.646c-1.124-6.534-10.853-22.373-10.853-22.373l-4.441-.301-5.263-2.13Z"/><path fill="#256FF2" d="M483.533 292.788s5.459 10.782 3.396 37.912l-9.064-19.498 3.278-5.332-4.362-8.704s4.663-2.993 6.622-4.587l.13.222v-.013Z"/><path fill="#000" d="M471.766 329.655c-.405 1.032-1.018 1.738-1.763 2.221a869.999 869.999 0 0 1-3.095-11.997c2.455-2.992 4.532-5.489 4.532-5.489s2.834 8.848.326 15.265Z" opacity=".2"/><path fill="#256FF2" d="M470.16 296.552c-5.315-.235-17.605 25.379-22.398 37.859-1.423 3.699 1.711 8.443 4.454 9.201 6.151 1.699 36.985 3.398 36.985 3.398l1.176-9.188-26.225-5.502 8.385-12.663s3.134-6.39 2.56-12.311c-.588-5.92-4.937-10.794-4.937-10.794Z"/><path fill="#263238" d="M498.879 281.562c-.81.706-1.972 2.209-1.972 2.209-.157-.079-.314-.157-.457-.249-2.064-1.15-2.638-2.352-2.664-3.358 0-.549.156-1.033.352-1.398.209-.432.457-.68.457-.68.732 1.255 2.573 2.47 3.579 3.084.418.261.692.405.692.405l.013-.013Z"/><path fill="#fff" d="m498.187 281.17-.601.64c-1.946-1.084-3.161-2.104-3.448-3.031.209-.432.457-.68.457-.68.732 1.255 2.573 2.47 3.579 3.084l.013-.013Z"/><path fill="#FF3F3E" d="M496.685 283.091c-2.129-1.176-2.717-2.431-2.743-3.45.705.431 1.515 1.033 2.103 1.777a3.06 3.06 0 0 1 .64 1.673Z"/><path fill="#000" d="M483.533 292.788s5.459 10.782 3.396 37.912l-9.064-19.498 3.278-5.332-4.362-8.704s4.663-2.993 6.622-4.587l.13.222v-.013Z" opacity=".3"/><path fill="#000" d="M464.152 332.32s-3.878-.601-6.347 1.451c0 0 2.664-4.26 7.431-3.084l-1.084 1.633Z" opacity=".2"/><path fill="#256FF2" d="M511.482 330.857s2.037-5.986 1.658-11.501a244.72 244.72 0 0 1-.457-9.644l-6.255-4.626.822-5.646s-3.016-1.856-5.824-3.751c-1.92-1.293-5.681-3.267-6.165-3.11 0 0 15.986 20.243 16.064 28.529.078 7.985.157 9.749.157 9.749Z"/><path fill="#000" d="M511.482 330.857s2.037-5.986 1.658-11.501a244.72 244.72 0 0 1-.457-9.644l-6.255-4.626.822-5.646s-3.016-1.856-5.824-3.751c-1.92-1.293-5.681-3.267-6.165-3.11 0 0 15.986 20.243 16.064 28.529.078 7.985.157 9.749.157 9.749Zm2.468 17.721 2.155-20.4v22.621s-1.345-1.123-2.155-2.221Z" opacity=".3"/><path fill="#000" d="m486.237 346.84-14.68-1.007-.862 2.431 15.268 1.947.274-3.371Z" opacity=".2"/><path fill="#fff" d="m499.284 297.976-4.297-5.907-2.05 3.516-6.204-4.574-3.343 1.568 3.017 8.847s7.535 3.085 7.927 3.085c.392 0 4.937-6.535 4.937-6.535h.013Z"/><path fill="#000" d="m499.48 298.251-1.75 4.352-4.375-4.352-2.978 5.11-4.441-2.183 4.728 3.764 2.743-5.607 5.015 4.731 1.058-5.815Z" opacity=".3"/><path fill="#B97964" d="m498.435 335.836-8.803 2.235-1.07 6.586c.848 4.195 9.168.993 9.168.993l1.867 1.046c1.515.849 5.12-.092 5.42-1.647l.209-3.999c.157-.81-1.045-2.378-1.789-2.888l-2.782-1.934a2.768 2.768 0 0 0-2.246-.392h.026Z"/><path fill="#256FF2" d="M531.725 324.871a2.087 2.087 0 0 1-1.189-2.718l6.086-16.636a2.574 2.574 0 0 1 3.056-1.594l5.903 1.607c.092.026.17.052.249.078 1.071.432 1.606 1.66 1.175 2.732l-6.086 16.636a2.619 2.619 0 0 1-3.056 1.581l-5.903-1.607-.235-.079Z"/><path fill="#263238" d="M532.391 325.067a2.098 2.098 0 0 1-1.189-2.718l6.086-16.636a2.6 2.6 0 0 1 3.069-1.581l5.891 1.607c.091.026.182.052.274.092a2.1 2.1 0 0 1 1.175 2.731l-6.086 16.636a2.585 2.585 0 0 1-3.056 1.581l-5.877-1.607c-.091-.026-.196-.052-.287-.092v-.013Z"/><path fill="#fff" d="m545.777 306.745.118.04c.64.248.953.954.718 1.594a1.481 1.481 0 0 1-1.789.902c-.065-.013-.118-.04-.183-.053a1.176 1.176 0 0 1-.64-1.555c.274-.719 1.045-1.124 1.776-.915v-.013Z" opacity=".3"/><path fill="#000" d="M545.503 307.451s.039 0 .065.013a.56.56 0 0 1 .314.719.691.691 0 0 1-.797.418c-.013 0-.026 0-.039-.013a.559.559 0 0 1-.34-.719.695.695 0 0 1 .81-.418h-.013Z" opacity=".3"/><path fill="#B97964" d="M545.96 313.528s-7.3-.288-8.632.81c-1.333 1.098.94 2.052.94 2.052s-2.573-.889-3.095.144c-.627 1.254 1.763 2.234 1.763 2.234s-2.129-.64-2.534.314c-.418.993 2.194 2.3 2.194 2.3s-1.58-.17-1.489.654c.092.823 5.59 3.698 7.745 3.437 2.142-.262 5.577-7.463 6.008-9.188.431-1.725.43-2.757-1.933-4.744l-.967 1.987Z"/><path fill="#000" d="m538.216 316.508 4.558 1.346s.13-.027.156-.092c.026-.065 0-.144-.065-.157l-4.558-1.346s-.131.026-.157.092c-.026.065 0 .13.066.157Zm-1.215 2.443 4.271 1.634s.13-.013.156-.078c.026-.066 0-.131-.065-.17l-4.271-1.634s-.13.013-.156.078c-.026.066 0 .144.052.157l.013.013Zm-.313 2.614 3.134 1.307s.131 0 .157-.079c.026-.065 0-.143-.052-.169l-3.135-1.307s-.131 0-.157.078c-.026.065 0 .144.053.17Z" opacity=".2"/><path fill="#D8A592" d="m267.025 335-6.739-1.229.405 9.619s2.363.967 7.457-2.196L267.012 335h.013Z"/><path fill="#D8A592" d="m252.293 336.921 1.228 5.92 7.261.536-.405-9.658-8.084 3.202Zm111.532 188.2-9.011-.549 2.912 20.596 9.012.549-2.913-20.596Z"/><path fill="#263238" d="m355.193 541.47 3.343-.497c.758-.117 1.515.144 2.077.667 2.377 2.208 3.656 1.058 5.315-1.608 1.306-.34 1.933 1.059 2.103 1.425l4.074 8.259c.353.693.053 1.503-.679 1.817-.13.052-.261.091-.405.117-4.048.601-5.968.889-11.022 1.634l-15.437 2.287c-4.205.627-5.812-3.28-4.153-3.908 7.496-2.783 12.616-5.776 14.627-8.298.379-.445-.131-.654.144-1.895h.013Z"/><path fill="#256FF2" d="M350.739 545.142a15.35 15.35 0 0 0 3.056-.849c.092-.053.118-.157.066-.236-.026-.052-.079-.078-.131-.091-.509-.144-5.015-1.385-5.942-.523a.579.579 0 0 0-.17.601c.078.405.366.758.757.954a4.02 4.02 0 0 0 2.351.157l.013-.013Zm2.364-.993c-1.188.405-3.422 1.032-4.492.496a1.071 1.071 0 0 1-.549-.692.218.218 0 0 1 .065-.248c.51-.471 3.122-.014 4.989.457l-.013-.013Z"/><path fill="#256FF2" d="M353.756 544.306s.092 0 .131-.013c.052-.053.052-.131.026-.196-.026-.17-1.724-3.921-3.97-3.333-.549.157-.666.444-.653.654.052 1.058 3.03 2.626 4.375 2.94l.091-.039v-.013Zm-3.526-3.267c1.45-.21 2.703 1.934 3.16 2.809-1.488-.483-3.696-1.829-3.682-2.47 0-.052-.04-.196.378-.3l.157-.039h-.013Z"/><path stroke="#256FF2" stroke-linecap="round" stroke-linejoin="round" stroke-width=".5" d="M353.312 544.253c1.175-.026 2.364.471 3.148 1.32m-4.95.471c1.175-.026 2.364.47 3.147 1.32m-5.498.313c1.175-.026 2.364.471 3.148 1.32"/><path fill="#D8A592" d="m328.59 525.265-9.012-.562 2.899 20.596 9.025.562-2.912-20.596Z"/><path fill="#263238" d="m319.944 541.6 3.343-.496c.758-.118 1.515.144 2.077.666 2.377 2.209 3.657 1.059 5.315-1.607 1.306-.34 1.933 1.059 2.103 1.424l4.075 8.26c.352.692.052 1.503-.68 1.816-.13.053-.261.092-.404.118-4.049.601-5.969.889-11.023 1.633l-15.437 2.287c-4.205.628-5.812-3.28-4.153-3.907 7.496-2.784 12.616-5.789 14.627-8.299.379-.444-.131-.653.144-1.895h.013Z"/><path fill="#256FF2" d="M315.503 545.273a15.353 15.353 0 0 0 3.056-.85.175.175 0 0 0 .066-.248c-.026-.052-.079-.078-.131-.091-.509-.144-5.015-1.386-5.942-.523a.579.579 0 0 0-.17.601c.078.405.366.758.758.954.757.287 1.58.34 2.35.157h.013Zm2.364-.993c-1.188.405-3.421 1.032-4.492.496a1.074 1.074 0 0 1-.549-.692.22.22 0 0 1 .065-.249c.51-.47 3.122-.013 4.989.458l-.013-.013Z"/><path fill="#256FF2" d="M318.52 544.449s.092 0 .131-.013c.052-.052.052-.13.026-.196-.026-.17-1.724-3.92-3.97-3.332-.549.157-.666.444-.653.666.052 1.059 3.03 2.627 4.375 2.941l.091-.039v-.027Zm-3.526-3.28c1.45-.209 2.703 1.934 3.161 2.81-1.489-.484-3.696-1.83-3.683-2.47 0-.052-.04-.196.378-.301l.157-.039h-.013Z"/><path stroke="#256FF2" stroke-linecap="round" stroke-linejoin="round" stroke-width=".5" d="M318.076 544.397c1.176-.026 2.364.471 3.148 1.32m-4.95.471c1.175-.027 2.364.47 3.147 1.319m-5.498.301c1.176-.026 2.364.47 3.148 1.32"/><path fill="#D8A592" d="m317.358 296.761-11.179-3.28s-11.389 27.078-15.241 28.868c-5.237 2.405-19.238 9.789-25.167 13.278-.405 1.333-.418 5.005.235 6.064 9.704-.771 29.607-7.358 33.447-11.043 8.737-8.39 17.905-33.887 17.905-33.887Z"/><path fill="#256FF2" d="M320.754 291.651c3.173 7.083-18.624 38.147-18.624 38.147l-10.579-10.99s9.364-23.511 14.432-32.528c5.171-9.266 11.323-2.431 14.771 5.371Z"/><path fill="#fff" d="M320.754 291.651c3.173 7.083-18.624 38.147-18.624 38.147l-10.579-10.99s9.364-23.511 14.432-32.528c5.171-9.266 11.323-2.431 14.771 5.371Z" opacity=".4"/><path fill="#256FF2" d="M290.781 317.827c-.666.393-2.09 2.98-2.403 4.274-.314 1.294 7.131 11.239 10.017 10.834 2.899-.405 6.203-3.228 6.804-4.744.601-1.516-13.021-11.187-14.418-10.364Z"/><path fill="#256FF2" d="M309.117 282.137s-7.64 30.894-6.661 78.804h53.05c.653-7.162-7.562-45.597.888-79.248-5.106-.993-8.828-1.66-14.026-1.987a172.073 172.073 0 0 0-19.773 0 89.17 89.17 0 0 0-13.478 2.418v.013Z"/><path fill="#256FF2" d="M335.172 356.131s-1.11 10.298-2.534 24.243c-1.632 15.813-3.67 36.343-4.95 51.973v.209c-.248 2.98-.47 5.777-.653 8.299-1.828 25.51 4.206 93.532 4.206 93.532h-16.234s-13.164-69.538-12.851-95.505c.301-24.961 1.855-84.75 1.855-84.75l31.174 1.999h-.013Z"/><path fill="#000" d="M332.69 380.387c-1.632 15.813-3.669 36.343-4.949 51.973v.209c-2.991-14.27-3.971-32.985-2.821-63.63l7.77 11.448Z" opacity=".2"/><path fill="#256FF2" d="M321.929 356.131s6.386 59.149 10.357 82.581c4.362 25.666 21.549 96.393 21.549 96.393l17.252-.901s-12.368-67.709-14.34-93.153c-2.129-27.588-2.743-84.92-2.743-84.92h-32.075Z"/><path fill="#000" d="M309.117 282.137s-7.64 30.894-6.661 78.804h53.05c.653-7.162-7.562-45.597.888-79.248-5.106-.993-8.828-1.66-14.026-1.987a172.073 172.073 0 0 0-19.773 0 89.17 89.17 0 0 0-13.478 2.418v.013Z" opacity=".3"/><path fill="#000" d="M346.325 289.377c-.966 5.215 2.952 18.78 7.235 33.181.523-12.363-.757-25.771 1.92-37.846v-.053c-2.899-.3-8.228-.169-9.155 4.731v-.013Z" opacity=".2"/><path fill="#D8A592" d="M338.685 280.308s-.092-5.764 4.427-15.16c0 0-.483-.327-.483-.34a67.806 67.806 0 0 1 1.841-3.567c.014-.027.014-.04.014-.04l-14.915 6.09c-.209 3.215-2.377 9.135-3.474 11.605 0 0-2.494 4.391 3.683 5.633 4.519.915 8.894-4.208 8.894-4.208l.013-.013Z"/><path fill="#000" d="m328.603 271.695 8.071-.444c-1.11 2.3-3.736 4.809-9.182 4.143 0 0 .993-2.614 1.111-3.685v-.014Z" opacity=".2"/><path fill="#263238" d="M322.921 241.259c-2.115 2.862-2.598 10.742 2.626 10.154 5.224-.601 1.005-15.068-2.626-10.154Z"/><path fill="#D8A592" d="M345.711 254.654c-2.351 8.416-3.5 13.212-8.75 16.636-7.888 5.136-17.37-.875-17.579-9.853-.196-8.077 3.683-20.492 12.76-22.021 8.933-1.503 15.92 6.822 13.569 15.238Z"/><path fill="#263238" d="M351.771 243.768c-1.711-7.946-14.706-6.678-18.519-4.979-.575.248 5.655 5.253 5.263 5.005l3.043 1.843c.536 0 1.398.797 1.58 2.483 0 0-3.186 8.769-.287 13.343 4.075-.915 4.858-2.17 6.465-5.058 2.377-4.299 3.356-8.847 2.455-12.637Z"/><path fill="#D8A592" d="M347.553 262.482c-1.15 2.052-3.148 3.372-5.015 3.842-2.821.719-4.18-1.829-3.37-4.469.732-2.379 3.082-5.607 5.89-5.162 2.769.444 3.801 3.437 2.495 5.776v.013Z"/><path fill="#263238" d="M332.978 254.497c-.183.876-.797 1.477-1.372 1.346-.574-.13-.875-.941-.692-1.816.183-.876.797-1.477 1.372-1.346.574.13.875.941.692 1.816Zm-8.594-1.66c-.183.876-.796 1.477-1.371 1.347-.575-.131-.875-.941-.692-1.817.183-.876.796-1.477 1.371-1.346s.875.941.692 1.816Z"/><path fill="#C29483" d="M327.27 252.942s-3.696 3.751-4.949 5.319c.979 1.359 3.173 1.294 3.173 1.294l1.776-6.626v.013Z"/><path fill="#263238" d="M335.995 250.838a.408.408 0 0 1-.392-.144c-1.202-1.437-2.73-1.28-2.743-1.28a.426.426 0 0 1-.47-.366.405.405 0 0 1 .366-.458c.078 0 1.998-.209 3.487 1.581.143.183.13.445-.053.589a.342.342 0 0 1-.195.091v-.013Z"/><path stroke="#000" stroke-linecap="round" stroke-linejoin="round" stroke-width=".5" d="M346.116 259.712c-.235-.589-.901-.863-1.528-.902-.875-.039-1.345.3-1.685.758-.457.601-.992 1.15-1.227 1.869" opacity=".2"/><path fill="#263238" d="M321.393 248.342a.532.532 0 0 1-.182-.157.419.419 0 0 1 .13-.575c1.946-1.241 3.683-.431 3.775-.405.209.091.3.353.209.562a.418.418 0 0 1-.549.209c-.065-.039-1.424-.64-2.978.353a.419.419 0 0 1-.391.026l-.014-.013Zm24.501-7.358c-.862-3.777-3.983-6.678-7.509-6.965-2.234-.183-4.454.588-6.687.967-2.233.392-4.702.313-6.373-1.255-.823-.771-1.672-1.96-2.743-1.607-.718.235-1.136 1.15-1.123 1.973 0 .823.339 1.581.666 2.3l-2.586-.549c-.052 2.771 1.371 5.332 3.304 6.992 1.933 1.66 4.323 2.561 6.726 3.215 2.873.784 5.877 1.281 8.855.771 2.977-.51 5.942-2.13 7.744-4.875l-.261-.98-.013.013Z"/><path fill="#263238" d="M343.53 235.404c-1.097-1.411-2.795-2.352-4.584-2.509-1.645-.157-3.278.327-4.91.51-1.646.183-3.474 0-4.637-1.177-.627-.64-1.306-1.62-2.142-1.32-.64.223-.796 1.072-.679 1.752.275 1.659 1.607 3.097 3.239 3.502l15.019 4.313a6.623 6.623 0 0 0-1.293-5.058l-.013-.013Z"/><path stroke="#263238" stroke-linecap="round" stroke-linejoin="round" stroke-width=".5" d="M327.427 263.371c1.633.248 3.383-.523 4.31-1.882"/><path fill="#256FF2" d="M328.733 284.555c2.26 1.072 3.174 4.169 3.174 4.169s9.364-4.078 9.129-9.723c-.771-.575-1.045-1.216-1.933-1.608 0 0-2.926 5.489-10.37 7.149v.013Zm0 0c-2.873.274-4.466 4.169-4.466 4.169s-2.638-3.921-.888-9.488c0 0 1.332-1.529 2.755-1.83-.039 0-.809 5.947 2.599 7.149Z"/><path fill="#D8A592" d="m361.044 292.736-10.331 6.26s11.545 25.026 11.48 29.234c-.196 7.854 3.187 24.883 2.272 33.848 1.267.457 4.806.562 5.93-.066 2.05-8.115 4.884-29.43 4.074-34.775-1.789-11.618-13.412-34.488-13.412-34.488l-.013-.013Z"/><path fill="#256FF2" d="M356.198 281.562c7.693 1.124 18.663 40.199 18.663 40.199l-14.235 5.397s-12.394-21.171-15.437-30.698c-3.265-9.932 2.768-16.126 11.009-14.911v.013Z"/><path fill="#fff" d="M356.198 281.562c7.693 1.124 18.663 40.199 18.663 40.199l-14.235 5.397s-12.394-21.171-15.437-30.698c-3.265-9.932 2.768-16.126 11.009-14.911v.013Z" opacity=".4"/><path fill="#263238" d="m389.097 369.982-49.172 6.417a3.934 3.934 0 0 0-3.39 4.409l4.187 32.125a3.931 3.931 0 0 0 4.406 3.392l49.173-6.417a3.934 3.934 0 0 0 3.39-4.409l-4.187-32.125a3.932 3.932 0 0 0-4.407-3.392Z"/><path fill="#000" d="m389.097 369.982-49.172 6.417a3.934 3.934 0 0 0-3.39 4.409l4.187 32.125a3.931 3.931 0 0 0 4.406 3.392l49.173-6.417a3.934 3.934 0 0 0 3.39-4.409l-4.187-32.125a3.932 3.932 0 0 0-4.407-3.392Z" opacity=".3"/><path fill="#263238" d="M362.206 380.596a3.689 3.689 0 0 1-2.272-.784 3.775 3.775 0 0 1-1.437-2.483l-.862-6.678c-.261-2.039 1.175-3.921 3.213-4.182l11.114-1.451a3.746 3.746 0 0 1 4.192 3.228l.875 6.678a3.748 3.748 0 0 1-3.226 4.195l-11.114 1.438a3.067 3.067 0 0 1-.496.039h.013Zm10.252-13.474h-.196l-11.114 1.451a1.552 1.552 0 0 0-1.345 1.751l.862 6.678c.052.418.274.784.601 1.045.326.249.744.366 1.149.314l11.114-1.437a1.583 1.583 0 0 0 1.358-1.765l-.836-6.599a1.543 1.543 0 0 0-.6-1.046 1.59 1.59 0 0 0-.993-.353v-.039Z"/><path fill="#263238" d="m393.785 369.368-49.173 6.416a3.934 3.934 0 0 0-3.389 4.41l4.186 32.125a3.932 3.932 0 0 0 4.407 3.392l49.172-6.417a3.933 3.933 0 0 0 3.39-4.409l-4.187-32.125a3.93 3.93 0 0 0-4.406-3.392Z"/><path fill="#D8A592" d="m364.923 360.718-3.135 6.117 9.194.418a7.339 7.339 0 0 0-1.188-8.26l-4.871 1.725Zm.378 10.847 5.485-.745.196-3.554-9.194-.418.144 1.986a2.97 2.97 0 0 0 3.173 2.758c.066 0 .131 0 .196-.027Z"/><path fill="#256FF2" d="M358.484 324.937c-.144.745.875 3.528 1.619 4.613.745 1.072 13.152 2.026 14.758-.418 1.593-2.444 1.659-6.796.901-8.246-.757-1.451-16.991 2.43-17.278 4.051Z"/><path fill="#FFBFB8" d="m253.024 332.935 5.982 3.084-.523 2.156-4.806 4.809s-3.461-2.692-3.382-6.442l2.742-3.607h-.013Z"/><path fill="#FFBFB8" d="m253.899 333.784 5.473-1.032 3.526 1.503-2.351.392-1.541 1.398-5.107-2.261ZM265 343.703l-5.942 1.281a2.883 2.883 0 0 1-1.841-.222l-3.566-1.738 4.806-4.81 3.187-.967 3.983 4.574c.405.51.327 1.242-.17 1.647-.13.105-.287.183-.444.222l-.013.013Z"/><path fill="#263238" d="M199.792 254.079c.143.68.601 1.15 1.005 1.019.405-.13.693-.718.562-1.398-.131-.68-.614-1.15-1.019-1.006-.392.143-.731.718-.561 1.398l.013-.013Z"/><path fill="#D8A592" d="M200.34 255.242a24.911 24.911 0 0 0 4.428 5.162c-1.006 1.372-3.122 1.268-3.122 1.268l-1.306-6.417v-.013Z"/><path fill="#263238" d="M196.592 250.799a.374.374 0 0 1-.274-.118.41.41 0 0 1 0-.575 4.03 4.03 0 0 1 3.461-1.346.4.4 0 0 1 .261.523.423.423 0 0 1-.405.287 3.234 3.234 0 0 0-2.729 1.098.376.376 0 0 1-.327.131h.013Z"/><path fill="#FFBFB8" d="M181.403 266.076c1.176 5.972 1.868 14.245-2.298 18.231 0 0 1.632 6.076 12.72 6.076 12.211 0 5.877-5.332 5.877-5.332-5.067-1.568-5.067-7.357-3.866-11.996l-12.433-6.992v.013Z"/><path fill="#256FF2" d="M177.838 288.502c-.967-1.516-.64-6.13.509-6.888 1.842-1.215 9.469-1.071 19.577 1.882-1.371 4.404.862 6.887.862 6.887l-20.935-1.881h-.013Z"/><path fill="#263238" d="M169.636 286.162s-29.476 33.848-26.172 49.87c3.291 16.022 24.683 24.896 24.683 24.896l4.545-7.985s-13.556-11.187-15.201-17.747c-1.646-6.561 12.668-23.955 12.668-23.955l-.523-25.092v.013Z"/><path fill="#000" d="M169.375 300.054c-3.604 3.555-4.649 10.86-4.257 15.826a106.895 106.895 0 0 1 2.794-4.495c1.45-2.261 3.004-4.47 4.558-6.678.431-.602.875-1.229 1.332-1.843.092-.392.17-.784.236-1.176l-4.663-1.647v.013Z" opacity=".2"/><path fill="#FFBFB8" d="m191.786 551.585 8.855-1.791.052-20.792-8.855 1.778-.052 20.805Z"/><path fill="#263238" d="m202.639 545.782-3.37-.026a2.53 2.53 0 0 0-1.959.941c-2.05 2.522-3.474 1.542-5.485-.862-1.345-.157-1.763 1.307-1.894 1.699l-2.899 8.729c-.248.732.157 1.49.914 1.712.131.04.275.053.418.053 4.101.039 6.034.052 11.14.104l15.607.144c4.258.039 5.316-4.038 3.579-4.443-7.81-1.738-13.295-3.999-15.633-6.208-.431-.392.039-.666-.405-1.856l-.013.013Z"/><path fill="#256FF2" d="M209.861 548.344c.366-.235.601-.627.614-1.046a.566.566 0 0 0-.248-.575c-1.032-.718-5.329 1.124-5.812 1.333-.052.013-.091.053-.118.105a.173.173 0 0 0 .105.235c1.032.248 2.077.379 3.147.418a4.06 4.06 0 0 0 2.312-.47Zm.091-1.32a.25.25 0 0 1 .105.248 1.045 1.045 0 0 1-.457.758c-.993.68-3.291.353-4.519.131 1.789-.719 4.31-1.529 4.871-1.137Z"/><path fill="#256FF2" d="M204.533 548.435c1.293-.496 4.035-2.457 3.931-3.515 0-.222-.17-.484-.732-.562-2.298-.275-3.461 3.685-3.474 3.855-.026.065 0 .144.053.196h.13l.092.026Zm3.108-3.75c.431.052.418.196.418.248.091.64-1.907 2.274-3.317 2.953.326-.927 1.279-3.228 2.742-3.214h.157v.013Z"/><path stroke="#256FF2" stroke-linecap="round" stroke-linejoin="round" stroke-width=".5" d="M204.872 548.292c-1.162.143-2.272.797-2.938 1.738m4.975-.223a4.288 4.288 0 0 0-2.938 1.739m5.498-.445c-1.162.144-2.272.797-2.938 1.738"/><path fill="#FFBFB8" d="m127.831 546.671 8.933 1.32 7.092-19.551-8.933-1.32-7.092 19.551Z"/><path fill="#263238" d="m140.003 544.894-3.16-1.176a2.532 2.532 0 0 0-2.168.222c-2.782 1.673-3.801.274-4.872-2.666-1.201-.601-2.102.627-2.351.967l-5.681 7.24c-.483.601-.352 1.463.288 1.921.117.078.235.144.378.196 3.84 1.424 5.668 2.091 10.448 3.868l14.628 5.424c3.983 1.476 6.36-2 4.858-2.967-6.752-4.273-11.153-8.259-12.603-11.134-.274-.51.261-.615.248-1.882l-.013-.013Z"/><path fill="#256FF2" d="M145.932 549.742c.431-.104.771-.392.941-.771a.576.576 0 0 0-.04-.627c-.718-1.033-5.393-.758-5.916-.706a.209.209 0 0 0-.143.065c-.066.079-.066.183.013.249a16.008 16.008 0 0 0 2.821 1.463c.718.34 1.541.458 2.337.34l-.013-.013Zm.523-1.202a.199.199 0 0 1 0 .261 1.047 1.047 0 0 1-.679.562c-1.163.301-3.213-.771-4.297-1.411 1.92-.079 4.571.026 4.976.588Z"/><path fill="#256FF2" d="M140.904 548.03c1.385-.026 4.624-.941 4.885-1.973.065-.209 0-.51-.497-.784-2.076-1.033-4.505 2.287-4.571 2.444-.052.052-.052.13-.026.196.04.026.079.039.118.052l.078.065h.013Zm4.193-2.47c.391.183.326.327.313.379-.131.641-2.56 1.49-4.114 1.66.614-.758 2.286-2.601 3.67-2.091l.144.065-.013-.013Z"/><path stroke="#256FF2" stroke-linecap="round" stroke-linejoin="round" stroke-width=".5" d="M141.27 548.004c-1.149-.261-2.416-.026-3.356.64m4.753 1.49c-1.149-.261-2.416-.026-3.356.641m5.315 1.437c-1.149-.261-2.416-.026-3.356.641"/><path fill="#263238" d="M195.782 353.871s-9.599 59.318-14.875 81.547c-5.772 24.334-36.699 104.902-36.699 104.902l-15.188-3.058s21.64-65.618 26.472-99.635c3.722-26.124 11.049-83.73 11.049-83.73h29.228l.013-.026Z"/><path fill="#fff" d="M195.782 353.871s-9.599 59.318-14.875 81.547c-5.772 24.334-36.699 104.902-36.699 104.902l-15.188-3.058s21.64-65.618 26.472-99.635c3.722-26.124 11.049-83.73 11.049-83.73h29.228l.013-.026Z" opacity=".1"/><path fill="#000" d="M190.219 375.002c-10.174 2-9.351 35.651-8.123 55.189 2.886-13.814 7.483-36.082 10.421-54.901a3.503 3.503 0 0 0-2.298-.275v-.013Z" opacity=".3"/><path fill="#263238" d="M214.68 353.871s1.228 58.037.261 81.704c-1.005 24.621-10.892 105.241-10.892 105.241h-15.188s-.549-79.182-1.228-103.359c-.731-26.359-4.427-83.586-4.427-83.586h31.487-.013Z"/><path fill="#fff" d="M214.68 353.871s1.228 58.037.261 81.704c-1.005 24.621-10.892 105.241-10.892 105.241h-15.188s-.549-79.182-1.228-103.359c-.731-26.359-4.427-83.586-4.427-83.586h31.487-.013Z" opacity=".1"/><path fill="#263238" d="M213.009 294.16c1.632 8.39 3.63 35.978 1.084 69.251l-47.905-.275c-.274-5.959 5.029-42.015.51-70.714-.523-3.385 1.88-6.547 5.367-7.044.04 0 .079 0 .118-.013 2.338-.313 5.067-.601 7.745-.719a162.836 162.836 0 0 1 18.192 0c1.985.183 3.97.458 5.733.758 4.637.798 8.267 4.3 9.142 8.782l.014-.026Z"/><path fill="#000" d="m212.787 302.498-7.562 1.882c-.575 7.07 4.075 15.068 8.737 21.171.052-7.697-.34-15.395-1.175-23.053Z" opacity=".2"/><path fill="#FFBFB8" d="M176.832 257.229c2.207 8.246 3.043 13.173 8.163 16.61 7.653 5.162 17.213-.758 17.474-9.501.261-7.854-3.396-20.021-12.224-21.681-6.308-1.228-12.407 2.901-13.635 9.213a11.692 11.692 0 0 0 .222 5.372v-.013Z"/><path fill="#263238" d="M193.954 257.333c1.959-2.888 2.716-7.318 1.332-9.462 1.28.536 10.553 1.177 6.922-5.423-3.631-6.6-10.918-8.429-17.265-6.6l3.082.889s-8.672-.627-12.89 2.888c1.279.066 2.403 0 2.403 0s-9.286 4.391-5.238 7.724c-6.53 4.979-2.102 11.866 8.646 22.125 1.868 1.686 7.17 1.071 8.346.065-.745-4.482 3.565-10.559 4.662-12.193v-.013Z"/><path fill="#263238" d="M195.051 251.714c1.92 1.411 4.297 5.554 5.407 7.619 1.11 2.064 2.272 1.803 2.821 2.626.561.824 2.834 14.702.392 16.911-2.443 2.222-9.782-1.281-10.736-3.842-.953-2.562.797-8.808 1.28-10.246.496-2.47.353-5.018-.431-7.41-.849-2.417 1.267-5.658 1.267-5.658Z"/><path fill="#FFBFB8" d="M190.715 257.725a7.854 7.854 0 0 0 3.696 4.822c2.233 1.02 2.508-1.594 2.077-4.051-.392-2.235-1.006-4.051-2.821-4.927-2.142-1.097-3.683 1.699-2.952 4.156Z"/><path fill="#263238" d="M197.141 294.121c.496 1.085 11.793 26.66 25.284 34.187 13.491 7.528 27.596 11.148 27.596 11.148l3.931-7.24s-21.393-11.945-25.729-17.172c-4.322-5.228-20.543-27.47-20.543-27.47l-10.539 6.547Z"/></svg>