<svg xmlns="http://www.w3.org/2000/svg" width="788" height="625" fill="none"><path fill="#F5F5F5" fill-opacity=".1" d="M394 559.761c168.762 0 305.571-7.979 305.571-17.821 0-9.843-136.809-17.822-305.571-17.822-168.762 0-305.57 7.979-305.57 17.822 0 9.842 136.808 17.821 305.57 17.821Z"/><path fill="#6493E5" d="M627.248 504.739s2.19-16.011 12.434-17.759c10.244-1.747 7.171-9.445 9.835-12.5 2.663-3.054 9.661 5.841 3.672 14.405-5.989 8.565-1.088 5.888-3.672 13.854-2.585 7.966-23.278 15.287-22.269 2Z"/><path fill="#fff" d="M627.248 504.739s2.19-16.011 12.434-17.759c10.244-1.747 7.171-9.445 9.835-12.5 2.663-3.054 9.661 5.841 3.672 14.405-5.989 8.565-1.088 5.888-3.672 13.854-2.585 7.966-23.278 15.287-22.269 2Z" opacity=".2"/><path fill="#6493E5" d="M630.589 515.68a.708.708 0 0 1-.662-.96c0-.173 6.304-17.018.252-42.68a108.775 108.775 0 0 0-7.88-21.347c-5.926-12.847-11.032-23.93-3.451-44.632 2.332-6.392 4.728-12.374 7.123-18.152 8.684-21.316 15.555-38.161 8.306-53.747a.721.721 0 0 1 .346-.944.69.69 0 0 1 .786.117.702.702 0 0 1 .16.229c7.502 16.137.536 33.234-8.274 54.881-2.348 5.762-4.728 11.728-7.123 18.104-7.376 20.151-2.617 30.463 3.419 43.545a111.431 111.431 0 0 1 8.038 21.616c6.225 26.117-.252 43.356-.315 43.529a.693.693 0 0 1-.725.441Z"/><path fill="#6493E5" d="M633.552 511.949s6.619-9.981-2.947-15.113c-9.567-5.133-11.474-1.008-17.336-4.723-5.863-3.716-10.402-12.595-11.41-6.911-1.009 5.683 5.831 8.989 3.404 11.602-2.427 2.614 16.012 19.569 28.289 15.145Zm4.728-170.009s4.87-20.057-9.803-19.301c-14.672.755 2.979 17.758 9.803 19.301Zm-11.458 16.042s-5.784-17.428-15.886-12.847c-10.102 4.582 5.548 14.012 15.886 12.847Zm17.762.126s-2.695-14.059 8.305-15.224c11.001-1.165 7.077 11.697-8.305 15.224Zm-5.028 29.518s13.743-14.358 19.858-4.975c6.115 9.383-10.212 12.736-19.858 4.975Zm-26.366-.236s-4.539-21.663-15.949-13.854c-11.41 7.808 5.705 16.892 15.949 13.854Zm-8.006 32.179s7.045-22.828-9.141-19.018c-16.185 3.81-2.868 14.578 9.141 19.018Zm25.799 5.872s12.529-17.412 23.53-13.083c11 4.33 3.656 21.206-23.53 13.083Zm-9.677 37.106s-13.9-25.189-23.64-15.554c-9.739 9.635 8.416 21.458 23.64 15.554Zm16.974-2.849s-4.728-20.057 7.06-19.364c11.789.692 9.787 13.318-7.06 19.364Z"/><path fill="#fff" d="M638.28 341.94s4.87-20.057-9.803-19.301c-14.672.755 2.979 17.758 9.803 19.301Zm-11.458 16.042s-5.784-17.428-15.886-12.847c-10.102 4.582 5.548 14.012 15.886 12.847Zm17.762.126s-2.695-14.059 8.305-15.224c11.001-1.165 7.077 11.697-8.305 15.224Zm-5.028 29.518s13.743-14.358 19.858-4.975c6.115 9.383-10.212 12.736-19.858 4.975Zm-26.366-.236s-4.539-21.663-15.949-13.854c-11.41 7.808 5.705 16.892 15.949 13.854Zm-8.006 32.179s7.045-22.828-9.141-19.018c-16.185 3.81-2.868 14.578 9.141 19.018Zm25.799 5.872s12.529-17.412 23.53-13.083c11 4.33 3.656 21.206-23.53 13.083Zm-9.677 37.106s-13.9-25.189-23.64-15.554c-9.739 9.635 8.416 21.458 23.64 15.554Zm16.974-2.849s-4.728-20.057 7.06-19.364c11.789.692 9.787 13.318-7.06 19.364Z" opacity=".2"/><path fill="#6493E5" d="M634.088 369.238h-.142a.739.739 0 0 1-.457-.315c0-.11-6.525-10.39-10.953-12.594a.711.711 0 1 1 .63-1.275c4.161 2.062 9.614 10.122 11.127 12.468a51.965 51.965 0 0 0 12.954-14.704.71.71 0 0 1 .969-.275.707.707 0 0 1 .276.968c-.236.409-5.736 10.075-14.01 15.601a.696.696 0 0 1-.394.126Zm-11.237 28.227a.674.674 0 0 1-.504-.299c0-.11-8.007-11.256-17.336-15.743a.725.725 0 0 1 .119-1.273.731.731 0 0 1 .511-.018c8.51 4.141 15.618 13.146 17.462 15.649 11.899-10.154 27.659-11.02 27.816-11.02a.724.724 0 0 1 .705.949.683.683 0 0 1-.359.402.705.705 0 0 1-.267.066c-.157 0-15.965.881-27.533 11.177a.719.719 0 0 1-.614.11Zm-5.674 36.572a.65.65 0 0 1-.394-.126c-9.456-6.298-17.572-23.41-17.903-24.135a.708.708 0 0 1 .331-.944.685.685 0 0 1 .785.117.687.687 0 0 1 .16.229c.079.158 8.117 16.924 17.037 23.284 2.758-1.857 18.219-11.933 30.606-13.161a.725.725 0 0 1 .772.63.72.72 0 0 1-.15.525.723.723 0 0 1-.48.262c-13.002 1.291-30.181 13.082-30.354 13.193a.668.668 0 0 1-.41.126Zm13.412 36.272a.671.671 0 0 1-.299-.061.657.657 0 0 1-.237-.191 39.104 39.104 0 0 0-20.488-11.021.687.687 0 0 1-.549-.571.709.709 0 0 1 .013-.279.688.688 0 0 1 .305-.443.689.689 0 0 1 .531-.092 40.707 40.707 0 0 1 20.803 11.02c6.052-4.723 13.159-21.757 13.238-21.93a.706.706 0 0 1 .384-.388.71.71 0 0 1 .546.01.703.703 0 0 1 .382.386.707.707 0 0 1-.004.543c-.315.756-7.738 18.498-14.184 22.922a.663.663 0 0 1-.441.095Zm1.923 39.247s5.689-9.037 12.103-10.312c6.415-1.275 9.188-8.674 11.552-4.235 2.364 4.44-4.16 19.16-23.655 14.547Z"/><path fill="#256FF2" d="M662.014 545.025h-62.062l-4.161-38.224h70.368l-4.145 38.224Z"/><path fill="#256FF2" d="M667.609 514.043h-73.268l-.93-8.108h75.128l-.93 8.108Z"/><path fill="#fff" d="M667.609 514.043h-73.268l-.93-8.108h75.128l-.93 8.108Z" opacity=".3"/><path fill="#256FF2" d="m107.857 299.745 192.48 233.578 112.941-92.87-192.479-233.578-112.942 92.87Z"/><path fill="#000" d="m413.306 440.475-31.693 26.039-59.668 49.072-21.575 17.742-22.616-27.472-40.204-48.772-129.657-157.352 22.348-18.387 30.479-25.032 60.125-49.433 18.329 22.26 163.431 198.347 10.701 12.988Z" opacity=".1"/><path fill="#fff" d="m272.9 356.927 4.303-3.542 2.616 3.148-4.287 3.527c2.884 3.951 4.728 8.627 4.571 12.059l-5.312 1.464a19.148 19.148 0 0 0-3.42-10.107l-7.706 6.297c2.474 5.117 4.87 10.847-.489 15.255-3.94 3.149-9.708 3.149-15.24-2.33l-4.349 3.574-2.601-3.149 4.271-3.526a21.323 21.323 0 0 1-4.129-9.635l5.185-1.574a20.694 20.694 0 0 0 3.058 7.95l7.785-6.407c-2.474-5.117-4.964-10.894.394-15.302 3.971-3.338 9.74-3.244 15.35 2.298ZM259 373.646l-6.84 5.636c2.663 2.393 5.012 2.409 6.698 1.008 1.686-1.401 1.324-3.873.142-6.644Zm2.994-14.483c-1.875 1.574-1.371 3.983-.126 6.832l6.824-5.604c-2.742-2.472-5.027-2.582-6.698-1.228Z" opacity=".3"/><path fill="#fff" d="M390.044 425.283 231.278 232.588a16.842 16.842 0 0 1-23.719-2.298l-74.072 60.925a16.816 16.816 0 0 1-2.301 23.615l158.798 192.774a16.86 16.86 0 0 1 23.64 2.298l74.072-60.925a16.834 16.834 0 0 1-3.741-12.333 16.82 16.82 0 0 1 6.089-11.361ZM165.48 331.958a3.858 3.858 0 0 1-4.272.421 3.857 3.857 0 0 1-1.165-.956l-10.717-13.004a3.853 3.853 0 0 1 1.865-6.141 3.85 3.85 0 0 1 2.943.289c.448.239.843.564 1.165.956l10.717 13.004a3.854 3.854 0 0 1-.536 5.431Zm115.631 63.083a32.368 32.368 0 0 1-35.757 3.577 32.32 32.32 0 0 1-13.298-13.242 32.276 32.276 0 0 1 3.468-35.729 32.34 32.34 0 0 1 15.597-10.444 32.37 32.37 0 0 1 18.776-.027 32.34 32.34 0 0 1 15.627 10.399 32.298 32.298 0 0 1-4.366 45.466h-.047Zm90.147 32.179a3.864 3.864 0 0 1-5.437-.535l-10.717-13.004a3.87 3.87 0 0 1-.866-2.824 3.861 3.861 0 0 1 5.656-3.04c.448.238.845.561 1.168.952l10.716 13.019a3.873 3.873 0 0 1-.472 5.432h-.048Z" opacity=".3"/><path fill="#000" d="m402.605 427.487-124.851 78.369-40.204-48.772-107.309-175.74 30.479-25.031 78.454-27.173 163.431 198.347Z" opacity=".1"/><path fill="#256FF2" d="m121.378 240.57 151.751 261.818 126.596-73.218-151.75-261.818-126.597 73.218Z"/><path fill="#000" d="m399.721 429.172-126.584 73.205-11.852-20.434-30.496-52.598L121.384 240.57l36.389-21.049 28.983-16.766 61.212-35.406 14.231 24.559 136.119 234.855 1.403 2.409Z" opacity=".1"/><path fill="#fff" d="m274.823 323.882 4.854-2.802 2.049 3.542-4.728 2.771c2.19 4.377 3.152 9.273 2.553 12.594l-5.5.583a19.057 19.057 0 0 0-1.718-10.532l-8.637 4.99c1.576 5.479 3.026 11.509-2.978 14.988-4.397 2.55-10.103 1.574-14.641-4.723l-4.886 2.818-2.049-3.527 4.728-2.786a21.447 21.447 0 0 1-2.443-10.28l5.39-.756a20.459 20.459 0 0 0 1.718 8.344l8.731-5.054c-1.576-5.463-3.152-11.555 2.884-15.019 4.382-2.597 10.055-1.527 14.673 4.849Zm-16.438 14.169-7.691 4.44c2.254 2.786 4.571 3.148 6.462 2.093 1.891-1.054 1.954-3.542 1.308-6.47l-.079-.063Zm5.327-13.807c-2.112 1.228-2.001 3.7-1.229 6.707l7.643-4.408c-2.301-2.818-4.554-3.306-6.414-2.236v-.063Z" opacity=".3"/><path fill="#fff" d="M379.249 410.406 254.067 194.427a16.847 16.847 0 0 1-18.675-1.206 16.836 16.836 0 0 1-4.335-4.934l-83.071 48.048a16.794 16.794 0 0 1-1.207 18.655 16.825 16.825 0 0 1-4.939 4.33l125.182 215.995a16.86 16.86 0 0 1 23.025 6.124l83.055-48.032a16.807 16.807 0 0 1-1.697-12.773 16.828 16.828 0 0 1 7.844-10.228ZM172.982 281.801a3.855 3.855 0 0 1-2.931.392 3.857 3.857 0 0 1-2.349-1.793l-8.447-14.578a3.845 3.845 0 0 1-.393-2.928 3.85 3.85 0 0 1 1.795-2.346 3.873 3.873 0 0 1 2.931-.392 3.857 3.857 0 0 1 2.349 1.793l8.447 14.594a3.828 3.828 0 0 1-.272 4.268 3.856 3.856 0 0 1-1.13.99Zm103.779 81.093a32.371 32.371 0 0 1-35.88-2.273 32.309 32.309 0 0 1-10.967-15.236 32.268 32.268 0 0 1-.638-18.755 32.294 32.294 0 0 1 9.905-15.945 32.359 32.359 0 0 1 35.643-4.702 32.315 32.315 0 0 1 13.71 12.83 32.294 32.294 0 0 1 3.199 24.433 32.327 32.327 0 0 1-14.972 19.585v.063Zm83.686 46.426a3.878 3.878 0 0 1-2.934.386 3.87 3.87 0 0 1-2.346-1.803l-8.447-14.641a3.847 3.847 0 0 1-.474-2.977 3.85 3.85 0 0 1 1.815-2.409 3.869 3.869 0 0 1 5.341 1.529l8.448 14.578a3.84 3.84 0 0 1 .423 2.963 3.86 3.86 0 0 1-1.826 2.374Z" opacity=".3"/><path fill="#000" d="m398.318 426.763-137.033 55.18-30.496-52.598-73.016-209.824 28.983-16.766 75.443-10.847 136.119 234.855Z" opacity=".1"/><path fill="#256FF2" d="m154.604 187.975 98.652 286.035 138.306-47.598-98.652-286.035-138.306 47.598Z"/><path fill="#000" d="m154.604 187.975 98.652 286.035 138.306-47.598-98.652-286.035-138.306 47.598Z" opacity=".1"/><path fill="#fff" d="m289.228 299.118 5.279-1.81 1.34 3.857-5.248 1.81c1.308 4.723 1.355 9.714 0 12.894l-5.485-.472a19.262 19.262 0 0 0 .331-10.674l-9.456 3.259c.536 5.667.757 11.87-5.8 14.169-4.806 1.653-10.212-.394-13.459-7.494l-5.248 1.779-1.339-3.857 5.232-1.811a21.443 21.443 0 0 1-.41-10.563l5.422.299a20.578 20.578 0 0 0 .094 8.517l9.535-3.291c-.536-5.667-.851-11.933 5.705-14.168 4.807-1.653 10.197.456 13.507 7.556Zm-18.912 10.832-8.401 2.881c1.687 3.148 3.862 3.998 5.942 3.29 2.08-.709 2.632-3.133 2.49-6.14l-.031-.031Zm7.88-12.595c-2.301.803-2.68 3.243-2.506 6.297l8.352-2.865c-1.67-3.117-3.782-4.03-5.815-3.337l-.031-.095Z" opacity=".3"/><path fill="#fff" d="m375.088 404.093-81.369-235.957a16.86 16.86 0 0 1-18.107-4.763 16.825 16.825 0 0 1-3.311-5.675l-90.746 31.219a16.81 16.81 0 0 1-.787 12.86 16.84 16.84 0 0 1-9.662 8.535l81.369 235.973a16.863 16.863 0 0 1 18.107 4.763 16.83 16.83 0 0 1 3.311 5.674l90.746-31.234a16.81 16.81 0 0 1 .788-12.86 16.837 16.837 0 0 1 9.661-8.535ZM197.362 238.287a3.88 3.88 0 0 1-4.917-2.393l-5.484-15.916a3.868 3.868 0 0 1 2.395-4.912 3.865 3.865 0 0 1 4.902 2.393l5.5 15.932a3.855 3.855 0 0 1-2.396 4.896Zm86.318 99.465a32.374 32.374 0 0 1-18.763.697 32.34 32.34 0 0 1-15.989-9.834 32.292 32.292 0 0 1-7.824-17.05 32.27 32.27 0 0 1 2.977-18.518 32.318 32.318 0 0 1 12.776-13.745 32.358 32.358 0 0 1 18.267-4.338 32.357 32.357 0 0 1 17.601 6.531 32.308 32.308 0 0 1 12.707 27.688 32.272 32.272 0 0 1-10.85 22.222 32.328 32.328 0 0 1-10.902 6.347Zm73.221 61.603a3.876 3.876 0 0 1-4.917-2.393l-5.532-15.98a3.845 3.845 0 0 1 .089-3.027 3.859 3.859 0 0 1 3.786-2.229 3.857 3.857 0 0 1 3.422 2.753l5.484 15.932a3.822 3.822 0 0 1-2.379 4.944h.047Z" opacity=".3"/><path fill="#000" d="M236.274 496.521a38.91 38.91 0 0 1-32.194-5.612 38.836 38.836 0 0 1-16.536-28.157 38.835 38.835 0 0 1 32.197 5.591 38.766 38.766 0 0 1 16.501 28.178h.032Zm63.749-68.848c18.903-10.103 26.027-33.6 15.913-52.482-10.114-18.882-33.637-25.998-52.539-15.895-18.902 10.103-26.026 33.6-15.912 52.482 10.114 18.882 33.636 25.999 52.538 15.895Zm81.59 38.841-59.668 49.072a38.774 38.774 0 0 1-8.726-13.449 38.728 38.728 0 0 1 1.549-31.323 38.793 38.793 0 0 1 10.011-12.523 38.829 38.829 0 0 1 14.226-7.41 38.868 38.868 0 0 1 16.011-1.03 38.828 38.828 0 0 1 26.597 16.663Z" opacity=".1"/><path fill="#256FF2" d="M291.56 535.406v7.195a2.353 2.353 0 0 1-.709 1.7c-.112.11-.234.21-.363.299a2.42 2.42 0 0 1-1.371.425h-75.254a2.252 2.252 0 0 1-.725-.315 2.713 2.713 0 0 1-.252-.189l-.189-.188a1.117 1.117 0 0 1-.173-.237l-.079-.126a.376.376 0 0 1-.11-.204v-.441a1.83 1.83 0 0 1 0-.331v-7.257a2.362 2.362 0 0 1 2.427-2.409h74.623c.163-.016.326-.016.489 0h.094c.127.023.249.065.363.126h.11l.252.142.284.236.11.094.158.221c.077.078.141.169.189.267a.26.26 0 0 0 0 .111c.052.095.094.195.126.299.06.118.098.246.11.378a3.348 3.348 0 0 1-.11.204Z"/><path fill="#fff" d="M291.56 535.406v7.195a2.424 2.424 0 0 1-.693 1.7 2.8 2.8 0 0 1-.363.299 2.42 2.42 0 0 1-1.371.425h-75.27a2.252 2.252 0 0 1-.725-.315 2.713 2.713 0 0 1-.252-.189l-.189-.188a1.38 1.38 0 0 1-.126-.189l-.079-.126v-.111a1.065 1.065 0 0 0-.094-.188v-.52a1.83 1.83 0 0 1 0-.331v-7.257a2.485 2.485 0 0 1 .362-1.921 2.45 2.45 0 0 1 1.734-.708h75.254c.11.028.216.07.315.126a.173.173 0 0 1 .11 0l.284.141.284.237.11.094.157.22c.077.079.141.169.19.268a.227.227 0 0 0 0 .11c.051.096.093.196.126.299.046.123.083.25.11.378.126.284.126.409.126.551Z" opacity=".3"/><path fill="#fff" d="M290.441 533.36h-59.116a1.472 1.472 0 0 0-1.053.439 1.485 1.485 0 0 0-.428 1.056v7.872a1.337 1.337 0 0 1-1.34 1.338h-15.949l-.079-.126v-.299a.754.754 0 0 1 0-.268 2.02 2.02 0 0 1 0-.33v-7.258a2.494 2.494 0 0 1 .284-2.094 2.45 2.45 0 0 1 1.734-.708h75.254c.11.028.216.07.315.126a.173.173 0 0 1 .11 0l.268.252Z" opacity=".2"/><path fill="#000" d="M291.56 535.406v7.195a2.424 2.424 0 0 1-.693 1.7c-.112.11-.234.21-.363.299a2.42 2.42 0 0 1-1.371.425h-75.27a2.252 2.252 0 0 1-.725-.315h59.116a1.48 1.48 0 0 0 1.482-1.479v-7.872a1.337 1.337 0 0 1 1.339-1.338h15.949c.077.078.141.169.189.267a.26.26 0 0 0 0 .111c.052.095.094.195.127.299.046.123.083.249.11.378.11.063.11.189.11.33Z" opacity=".1"/><path fill="#000" d="M216.117 543.656a.372.372 0 0 1-.267-.101.362.362 0 0 1-.111-.262v-8.58a.378.378 0 0 1 .756 0v8.58a.37.37 0 0 1-.111.262.372.372 0 0 1-.267.101Zm3.972 0a.372.372 0 0 1-.267-.101.365.365 0 0 1-.112-.262v-8.58a.387.387 0 0 1 .077-.315.384.384 0 0 1 .294-.139.375.375 0 0 1 .37.454v8.58a.363.363 0 0 1-.362.363Zm3.955 0a.367.367 0 0 1-.349-.22.37.37 0 0 1-.029-.143v-8.58a.378.378 0 0 1 .756 0v8.58a.362.362 0 0 1-.378.363Zm3.972 0a.372.372 0 0 1-.267-.101.362.362 0 0 1-.111-.262v-8.58a.372.372 0 0 1 .207-.417.37.37 0 0 1 .325 0 .375.375 0 0 1 .208.417v8.58a.363.363 0 0 1-.362.363Zm3.956 0a.372.372 0 0 1-.267-.101.37.37 0 0 1-.112-.262v-8.58a.378.378 0 0 1 .757 0v8.58a.37.37 0 0 1-.112.262.368.368 0 0 1-.266.101Zm3.971 0a.364.364 0 0 1-.378-.363v-8.58a.373.373 0 0 1 .208-.417.37.37 0 0 1 .325 0c.05.024.095.059.131.102a.387.387 0 0 1 .077.315v8.58a.363.363 0 0 1-.363.363Zm3.956 0a.372.372 0 0 1-.267-.101.362.362 0 0 1-.111-.262v-8.58a.377.377 0 0 1 .645-.267.378.378 0 0 1 .111.267v8.58a.37.37 0 0 1-.112.262.368.368 0 0 1-.266.101Zm3.971 0a.37.37 0 0 1-.266-.101.365.365 0 0 1-.112-.262v-8.58a.378.378 0 0 1 .757 0v8.58a.37.37 0 0 1-.112.262.368.368 0 0 1-.267.101Zm3.956 0a.364.364 0 0 1-.378-.363v-8.58a.378.378 0 0 1 .756 0v8.58a.362.362 0 0 1-.378.363Zm3.972 0a.372.372 0 0 1-.267-.101.37.37 0 0 1-.112-.262v-8.58a.378.378 0 0 1 .757 0v8.58a.37.37 0 0 1-.112.262.368.368 0 0 1-.266.101Zm3.955 0a.363.363 0 0 1-.362-.363v-8.58a.37.37 0 0 1 .1-.266.366.366 0 0 1 .262-.111.377.377 0 0 1 .379.377v8.58a.37.37 0 0 1-.112.262.368.368 0 0 1-.267.101Zm3.972 0a.372.372 0 0 1-.267-.101.362.362 0 0 1-.111-.262v-8.58a.377.377 0 0 1 .727-.144.378.378 0 0 1 .029.144v8.58a.37.37 0 0 1-.112.262.368.368 0 0 1-.266.101Zm3.956 0a.365.365 0 0 1-.363-.363v-8.58a.387.387 0 0 1 .077-.315.384.384 0 0 1 .294-.139.384.384 0 0 1 .293.139.387.387 0 0 1 .077.315v8.58a.37.37 0 0 1-.112.262.368.368 0 0 1-.266.101Zm3.971 0a.364.364 0 0 1-.378-.363v-8.58a.378.378 0 0 1 .756 0v8.58a.362.362 0 0 1-.378.363Zm3.956 0a.363.363 0 0 1-.363-.363v-8.58a.387.387 0 0 1 .077-.315.394.394 0 0 1 .131-.102.37.37 0 0 1 .325 0 .375.375 0 0 1 .208.417v8.58a.37.37 0 0 1-.112.262.368.368 0 0 1-.266.101Zm3.972 0a.372.372 0 0 1-.267-.101.37.37 0 0 1-.112-.262v-8.58a.378.378 0 0 1 .757 0v8.58a.37.37 0 0 1-.112.262.368.368 0 0 1-.266.101Zm3.971 0a.372.372 0 0 1-.267-.101.362.362 0 0 1-.111-.262v-8.58a.373.373 0 0 1 .208-.417.37.37 0 0 1 .325 0c.05.024.095.059.131.102a.387.387 0 0 1 .077.315v8.58a.363.363 0 0 1-.363.363Zm3.956 0a.372.372 0 0 1-.267-.101.362.362 0 0 1-.111-.262v-8.58a.377.377 0 0 1 .645-.267.378.378 0 0 1 .111.267v8.58a.37.37 0 0 1-.112.262.368.368 0 0 1-.266.101Zm3.971 0a.367.367 0 0 1-.349-.22.37.37 0 0 1-.029-.143v-8.58a.387.387 0 0 1 .077-.315.384.384 0 0 1 .293-.139.384.384 0 0 1 .294.139.387.387 0 0 1 .077.315v8.58a.365.365 0 0 1-.363.363Z" opacity=".2"/><path fill="#256FF2" d="M293.136 523.441v7.179a2.387 2.387 0 0 1-.725 1.716 2.447 2.447 0 0 1-1.733.709h-75.27a2.069 2.069 0 0 1-.678-.315 1.737 1.737 0 0 1-.362-.299 1.063 1.063 0 0 1-.221-.252v-.095a.613.613 0 0 1-.158-.251v-.158a.151.151 0 0 1 0-.079v-.094a.715.715 0 0 1 0-.173 2.611 2.611 0 0 1 0-.331v-7.257c.001-.484.149-.957.426-1.354.077-.138.178-.261.299-.362a2.247 2.247 0 0 1 1.072-.63 2.34 2.34 0 0 1 .583-.079h75.254a.13.13 0 0 1 .055-.013.13.13 0 0 1 .055.013.105.105 0 0 1 .079 0h-.252c.14.05.273.118.394.205.109.066.21.145.3.236l.126.126c.061.061.114.13.157.205l.205.267a.255.255 0 0 0 0 .11c0 .111.079.189.11.3.061.123.098.256.111.393.067.089.125.184.173.283Z"/><path fill="#fff" d="M293.042 523.441v7.179a2.423 2.423 0 0 1-1.51 2.245 2.425 2.425 0 0 1-.933.18h-75.191a2.069 2.069 0 0 1-.678-.315 1.737 1.737 0 0 1-.362-.299 1.063 1.063 0 0 1-.221-.252v-.095a.903.903 0 0 1-.11-.157 1.44 1.44 0 0 0-.079-.157v-.158a1.249 1.249 0 0 1 0-.173.627.627 0 0 1 0-.173 2.286 2.286 0 0 1 0-.331v-7.257c0-.484.149-.957.425-1.354.077-.138.179-.261.3-.362a2.242 2.242 0 0 1 1.072-.63 2.34 2.34 0 0 1 .583-.079h75.38c.14.049.273.118.394.205.109.066.209.145.299.236l.126.126c.061.061.114.13.158.205l.205.267a.255.255 0 0 0 0 .11c0 .111.079.189.11.3.046.128.083.259.11.393-.02.117-.046.232-.078.346Z" opacity=".3"/><path fill="#fff" d="M291.938 521.395h-59.1a1.493 1.493 0 0 0-1.109.398 1.493 1.493 0 0 0-.467 1.082v7.871c0 .352-.139.69-.386.941-.248.25-.585.393-.938.397h-15.886v-.094l-.078-.095a1.536 1.536 0 0 0-.079-.157v-.157a.133.133 0 0 1 0-.079.997.997 0 0 1-.079-.268 2.272 2.272 0 0 1 0-.33v-7.258c.001-.484.149-.956.426-1.354.077-.138.178-.26.299-.362a2.258 2.258 0 0 1 1.072-.63c.19-.05.386-.076.583-.078h75.474c.095.048.185.106.268.173Z" opacity=".2"/><path fill="#000" d="M293.042 523.441v7.179a2.423 2.423 0 0 1-1.51 2.245 2.425 2.425 0 0 1-.933.18h-75.191a2.069 2.069 0 0 1-.678-.315h59.021a1.492 1.492 0 0 0 1.053-.439 1.481 1.481 0 0 0 .429-1.057v-7.871a1.336 1.336 0 0 1 1.339-1.338h15.949l.205.267a.255.255 0 0 0 0 .11c0 .111.079.189.111.3.046.128.083.259.11.393.038.114.069.229.095.346Z" opacity=".1"/><path fill="#000" d="M217.614 531.675a.362.362 0 0 1-.362-.362v-8.643a.358.358 0 0 1 .003-.166.36.36 0 0 1 .074-.149.366.366 0 0 1 .293-.139.372.372 0 0 1 .293.139.375.375 0 0 1 .078.315v8.58a.37.37 0 0 1-.086.304.367.367 0 0 1-.293.121Zm3.972 0a.372.372 0 0 1-.267-.1.366.366 0 0 1-.111-.262v-8.643a.377.377 0 0 1 .645-.267.378.378 0 0 1 .111.267v8.58a.355.355 0 0 1-.086.304.363.363 0 0 1-.292.121Zm3.956 0a.362.362 0 0 1-.363-.362v-8.643a.387.387 0 0 1 .077-.315.366.366 0 0 1 .293-.139.38.38 0 0 1 .294.139.373.373 0 0 1 .077.315v8.58a.37.37 0 0 1-.086.304.368.368 0 0 1-.292.121Zm3.971 0a.372.372 0 0 1-.267-.1.366.366 0 0 1-.111-.262v-8.643a.378.378 0 0 1 .756 0v8.58a.355.355 0 0 1-.086.304.355.355 0 0 1-.292.121Zm3.956 0a.362.362 0 0 1-.363-.362v-8.643a.387.387 0 0 1 .077-.315.384.384 0 0 1 .294-.139.38.38 0 0 1 .367.288.358.358 0 0 1 .003.166v8.58a.355.355 0 0 1-.086.304.355.355 0 0 1-.292.121Zm3.971 0a.367.367 0 0 1-.349-.22.364.364 0 0 1-.029-.142v-8.643a.378.378 0 0 1 .757 0v8.58a.37.37 0 0 1-.086.304.367.367 0 0 1-.293.121Zm3.972 0a.372.372 0 0 1-.267-.1.366.366 0 0 1-.111-.262v-8.643a.358.358 0 0 1 .003-.166.36.36 0 0 1 .074-.149.366.366 0 0 1 .293-.139.376.376 0 0 1 .37.454v8.58a.364.364 0 0 1-.362.425Zm3.956 0a.372.372 0 0 1-.267-.1.364.364 0 0 1-.112-.262v-8.643a.378.378 0 0 1 .757 0v8.58a.37.37 0 0 1-.086.304.363.363 0 0 1-.292.121Zm3.971 0a.364.364 0 0 1-.378-.362v-8.643a.358.358 0 0 1 .003-.166.36.36 0 0 1 .074-.149.366.366 0 0 1 .293-.139.384.384 0 0 1 .294.139.387.387 0 0 1 .077.315v8.58a.367.367 0 0 1-.208.393.36.36 0 0 1-.155.032Zm3.956 0a.372.372 0 0 1-.267-.1.366.366 0 0 1-.111-.262v-8.643a.377.377 0 0 1 .645-.267.378.378 0 0 1 .111.267v8.58a.355.355 0 0 1-.086.304.355.355 0 0 1-.292.121Zm3.971 0a.37.37 0 0 1-.266-.1.37.37 0 0 1-.112-.262v-8.643a.379.379 0 0 1 .757 0v8.58a.37.37 0 0 1-.086.304.367.367 0 0 1-.293.121Zm3.956 0a.364.364 0 0 1-.378-.362v-8.643a.378.378 0 0 1 .756 0v8.58a.355.355 0 0 1-.086.304.355.355 0 0 1-.292.121Zm3.972 0a.372.372 0 0 1-.267-.1.364.364 0 0 1-.112-.262v-8.643a.378.378 0 0 1 .757 0v8.58a.355.355 0 0 1-.086.304.363.363 0 0 1-.292.121Zm3.955 0a.37.37 0 0 1-.266-.1.37.37 0 0 1-.112-.262v-8.643a.378.378 0 0 1 .757 0v8.58a.37.37 0 0 1-.086.304.372.372 0 0 1-.293.121Zm3.972 0a.372.372 0 0 1-.267-.1.366.366 0 0 1-.111-.262v-8.643a.38.38 0 0 1 .645-.267.378.378 0 0 1 .111.267v8.58a.355.355 0 0 1-.086.304.355.355 0 0 1-.292.121Zm3.956 0a.364.364 0 0 1-.363-.362v-8.643a.387.387 0 0 1 .077-.315.375.375 0 0 1 .456-.103.373.373 0 0 1 .208.418v8.58a.355.355 0 0 1-.086.304.363.363 0 0 1-.292.121Zm3.971 0a.367.367 0 0 1-.349-.22.364.364 0 0 1-.029-.142v-8.643a.378.378 0 0 1 .757 0v8.58a.366.366 0 0 1-.219.398.363.363 0 0 1-.16.027Zm3.956 0a.362.362 0 0 1-.362-.362v-8.643a.372.372 0 0 1 .207-.418.384.384 0 0 1 .456.103.36.36 0 0 1 .074.149.358.358 0 0 1 .003.166v8.58a.355.355 0 0 1-.086.304.355.355 0 0 1-.292.121Zm3.972 0a.372.372 0 0 1-.267-.1.364.364 0 0 1-.112-.262v-8.643a.379.379 0 0 1 .757 0v8.58a.37.37 0 0 1-.086.304.368.368 0 0 1-.292.121Z" opacity=".2"/><path fill="#256FF2" d="M291.56 511.445v7.195c.001.324-.063.645-.189.944a2.18 2.18 0 0 1-.504.756 2.5 2.5 0 0 1-1.151.63 2.25 2.25 0 0 1-.583.078h-74.655a2.497 2.497 0 0 1-.489 0 3.888 3.888 0 0 1-.457-.141 1.033 1.033 0 0 1-.362-.205l-.331-.252a1.956 1.956 0 0 1-.221-.283v-.079a.883.883 0 0 1-.173-.315.821.821 0 0 1-.079-.173.86.86 0 0 1 0-.268v-.125a2.878 2.878 0 0 1 0-.394v-7.195a2.423 2.423 0 0 1 1.844-2.361c.194-.017.389-.017.583 0h75.254a.13.13 0 0 1 .055-.013c.019 0 .038.005.056.013h-.174l.394.205.3.251.126.111c.158.143.282.321.362.519 0 .11.11.236.142.331.138.236.224.499.252.771Z"/><path fill="#fff" d="M291.56 511.461v7.179c.007.323-.052.644-.173.944a2.504 2.504 0 0 1-.505.756 2.406 2.406 0 0 1-1.103.63 2.039 2.039 0 0 1-.63.094h-74.671a1.67 1.67 0 0 1-.489 0 4.086 4.086 0 0 1-.457-.141 1.94 1.94 0 0 1-.394-.205l-.331-.252a1.882 1.882 0 0 1-.22-.283v-.079l-.095-.142a1.818 1.818 0 0 1-.157-.362.804.804 0 0 1 0-.268v-.125a2.591 2.591 0 0 1 0-.394v-7.195a2.425 2.425 0 0 1 1.843-2.361 3.35 3.35 0 0 1 .584 0h75.38l.394.205.299.251.126.111.158.22c.086.087.155.188.205.299 0 .11.11.236.142.331.076.255.108.521.094.787Z" opacity=".3"/><path fill="#fff" d="M290.441 509.414h-59.116a1.487 1.487 0 0 0-1.373.925c-.073.181-.11.375-.108.571v7.871a1.34 1.34 0 0 1-1.34 1.339h-15.949v-.362a.853.853 0 0 1-.079-.174.854.854 0 0 1 0-.267v-.126a2.878 2.878 0 0 1 0-.394v-7.194a2.429 2.429 0 0 1 1.844-2.362c.194-.017.389-.017.583 0h75.412l.126.173Z" opacity=".2"/><path fill="#000" d="M291.56 511.461v7.179c.007.323-.052.645-.173.944a2.52 2.52 0 0 1-.504.756 2.414 2.414 0 0 1-1.104.63 2.039 2.039 0 0 1-.63.094h-74.671a1.67 1.67 0 0 1-.489 0 4.086 4.086 0 0 1-.457-.141 1.94 1.94 0 0 1-.394-.205h59.116a1.482 1.482 0 0 0 1.482-1.48v-7.871a1.337 1.337 0 0 1 1.339-1.323h15.949c.086.087.156.188.205.299 0 .11.111.236.142.331.109.249.173.516.189.787Z" opacity=".1"/><path fill="#000" d="M216.117 519.695a.372.372 0 0 1-.267-.101.362.362 0 0 1-.111-.261v-8.58a.379.379 0 0 1 .645-.268.379.379 0 0 1 .111.268v8.58a.368.368 0 0 1-.111.261.372.372 0 0 1-.267.101Zm3.972 0a.372.372 0 0 1-.267-.101.365.365 0 0 1-.112-.261v-8.58a.387.387 0 0 1 .077-.316.384.384 0 0 1 .294-.139.375.375 0 0 1 .37.455v8.58a.373.373 0 0 1-.106.256.373.373 0 0 1-.256.106Zm3.955 0a.367.367 0 0 1-.349-.22.368.368 0 0 1-.029-.142v-8.58a.378.378 0 1 1 .756 0v8.58a.362.362 0 0 1-.378.362Zm3.972 0a.372.372 0 0 1-.267-.101.362.362 0 0 1-.111-.261v-8.58a.377.377 0 0 1 .663-.316.373.373 0 0 1 .077.316v8.58a.365.365 0 0 1-.106.256.373.373 0 0 1-.256.106Zm3.956 0a.372.372 0 0 1-.267-.101.368.368 0 0 1-.112-.261v-8.58a.378.378 0 1 1 .757 0v8.58a.368.368 0 0 1-.112.261.368.368 0 0 1-.266.101Zm3.971 0a.364.364 0 0 1-.378-.362v-8.58a.373.373 0 0 1 .208-.418.37.37 0 0 1 .325 0c.05.024.095.059.131.102.035.044.06.095.074.149a.392.392 0 0 1 .003.167v8.58a.366.366 0 0 1-.363.362Zm3.956 0a.372.372 0 0 1-.267-.101.362.362 0 0 1-.111-.261v-8.58a.377.377 0 1 1 .756 0v8.58a.368.368 0 0 1-.112.261.368.368 0 0 1-.266.101Zm3.971 0a.37.37 0 0 1-.266-.101.365.365 0 0 1-.112-.261v-8.58a.378.378 0 1 1 .757 0v8.58a.368.368 0 0 1-.112.261.368.368 0 0 1-.267.101Zm3.956 0a.364.364 0 0 1-.378-.362v-8.58a.378.378 0 1 1 .756 0v8.58a.362.362 0 0 1-.378.362Zm3.972 0a.372.372 0 0 1-.267-.101.368.368 0 0 1-.112-.261v-8.58a.378.378 0 1 1 .757 0v8.58a.368.368 0 0 1-.112.261.368.368 0 0 1-.266.101Zm3.955 0a.366.366 0 0 1-.362-.362v-8.58a.372.372 0 0 1 .1-.267.366.366 0 0 1 .262-.111.377.377 0 0 1 .379.378v8.58a.368.368 0 0 1-.112.261.368.368 0 0 1-.267.101Zm3.972 0a.372.372 0 0 1-.267-.101.362.362 0 0 1-.111-.261v-8.58a.378.378 0 0 1 .233-.35.378.378 0 0 1 .412.082.379.379 0 0 1 .111.268v8.58a.368.368 0 0 1-.112.261.368.368 0 0 1-.266.101Zm3.956 0a.367.367 0 0 1-.335-.224.366.366 0 0 1-.028-.138v-8.58a.387.387 0 0 1 .077-.316.384.384 0 0 1 .294-.139.384.384 0 0 1 .293.139.387.387 0 0 1 .077.316v8.58a.368.368 0 0 1-.112.261.368.368 0 0 1-.266.101Zm3.971 0a.364.364 0 0 1-.378-.362v-8.58a.379.379 0 0 1 .728-.145.378.378 0 0 1 .028.145v8.58a.362.362 0 0 1-.378.362Zm3.956 0a.367.367 0 0 1-.335-.224.366.366 0 0 1-.028-.138v-8.58a.392.392 0 0 1 .003-.167.401.401 0 0 1 .074-.149.394.394 0 0 1 .131-.102.37.37 0 0 1 .325 0 .375.375 0 0 1 .208.418v8.58a.368.368 0 0 1-.112.261.368.368 0 0 1-.266.101Zm3.972 0a.372.372 0 0 1-.267-.101.368.368 0 0 1-.112-.261v-8.58a.378.378 0 1 1 .757 0v8.58a.368.368 0 0 1-.112.261.368.368 0 0 1-.266.101Zm3.971 0a.372.372 0 0 1-.267-.101.362.362 0 0 1-.111-.261v-8.58a.373.373 0 0 1 .208-.418.37.37 0 0 1 .325 0c.05.024.095.059.131.102.035.044.06.095.074.149a.392.392 0 0 1 .003.167v8.58a.366.366 0 0 1-.363.362Zm3.956 0a.372.372 0 0 1-.267-.101.362.362 0 0 1-.111-.261v-8.58a.377.377 0 1 1 .756 0v8.58a.368.368 0 0 1-.112.261.368.368 0 0 1-.266.101Zm3.971 0a.367.367 0 0 1-.349-.22.368.368 0 0 1-.029-.142v-8.58a.387.387 0 0 1 .077-.316.384.384 0 0 1 .293-.139.384.384 0 0 1 .294.139.387.387 0 0 1 .077.316v8.58a.366.366 0 0 1-.363.362Z" opacity=".2"/><path fill="#256FF2" d="M288.534 499.465v7.194a2.445 2.445 0 0 1-1.844 2.362 3.524 3.524 0 0 1-.599 0h-74.986a.668.668 0 0 1-.252 0 2.388 2.388 0 0 1-.709-.315 1.886 1.886 0 0 1-.583-.583.136.136 0 0 1 0-.125.119.119 0 0 1 0-.079v-.095a.38.38 0 0 0 0-.126.13.13 0 0 1 0-.078v-.095a.834.834 0 0 1 0-.173 2.286 2.286 0 0 1 0-.331v-7.273a2.355 2.355 0 0 1 .709-1.7 2.534 2.534 0 0 1 1.324-.677 1.04 1.04 0 0 1 .315 0h74.624a1.08 1.08 0 0 1 .331 0h.173l.441.142h.111a.985.985 0 0 1 .252.157c.107.055.203.13.283.22.033.041.07.078.111.111a1 1 0 0 1 .157.204c.054.077.112.15.174.221.051.084.093.174.126.267a.133.133 0 0 1 0 .079.807.807 0 0 1 .094.252 2.265 2.265 0 0 1-.252.441Z"/><path fill="#fff" d="M288.534 499.465v7.194a2.445 2.445 0 0 1-1.844 2.362 3.524 3.524 0 0 1-.599 0h-74.986a.668.668 0 0 1-.252 0 2.388 2.388 0 0 1-.709-.315 1.886 1.886 0 0 1-.583-.583l-.126-.204a.379.379 0 0 1-.095-.173.38.38 0 0 0 0-.126 1.263 1.263 0 0 1 0-.174.834.834 0 0 1 0-.173 2.272 2.272 0 0 1 0-.33v-7.274a2.355 2.355 0 0 1 .709-1.7 2.403 2.403 0 0 1 1.277-.677 1.73 1.73 0 0 1 .394 0h75.128c.152.031.3.078.441.142a.173.173 0 0 1 .11 0c.103.037.199.09.284.157.108.056.204.13.284.221.033.04.069.077.11.11.061.061.114.13.158.205.054.076.112.15.173.22.051.085.094.174.126.268a.116.116 0 0 1 0 .078.855.855 0 0 1 .095.252 2.301 2.301 0 0 1-.095.52Z" opacity=".3"/><path fill="#fff" d="M287.431 497.481h-59.1a1.495 1.495 0 0 0-1.058.428 1.475 1.475 0 0 0-.439 1.052v7.872a1.338 1.338 0 0 1-1.324 1.322h-15.902a1.226 1.226 0 0 1-.11-.189.119.119 0 0 1 0-.079 1.34 1.34 0 0 1-.095-.22.151.151 0 0 1 0-.079 1.038 1.038 0 0 1-.079-.267 2.611 2.611 0 0 1 0-.331v-7.273a2.37 2.37 0 0 1 .71-1.701 2.397 2.397 0 0 1 1.276-.677 1.73 1.73 0 0 1 .394 0h75.128c.152.031.3.079.441.142a.176.176 0 0 1 .111 0h.047Z" opacity=".2"/><path fill="#000" d="M288.534 499.465v7.194a2.445 2.445 0 0 1-1.844 2.362 3.524 3.524 0 0 1-.599 0h-74.986a.668.668 0 0 1-.252 0 2.388 2.388 0 0 1-.709-.315h59.1a1.492 1.492 0 0 0 1.053-.439 1.468 1.468 0 0 0 .428-1.057v-7.871a1.354 1.354 0 0 1 1.34-1.338h15.949c.054.076.112.15.173.22.052.085.094.174.127.268a.13.13 0 0 1 0 .078.826.826 0 0 1 .094.252c.073.208.116.426.126.646Z" opacity=".1"/><path fill="#000" d="M213.107 507.714a.372.372 0 0 1-.267-.1.366.366 0 0 1-.111-.262v-8.58a.377.377 0 0 1 .645-.267.378.378 0 0 1 .111.267v8.58a.364.364 0 0 1-.378.362Zm3.971 0a.37.37 0 0 1-.266-.1.37.37 0 0 1-.112-.262v-8.58a.379.379 0 0 1 .757 0v8.58a.364.364 0 0 1-.379.362Zm3.956 0a.364.364 0 0 1-.378-.362v-8.58a.378.378 0 0 1 .756 0v8.58a.366.366 0 0 1-.111.262.36.36 0 0 1-.267.1Zm3.972 0a.372.372 0 0 1-.267-.1.364.364 0 0 1-.112-.262v-8.58a.378.378 0 0 1 .757 0v8.58a.364.364 0 0 1-.378.362Zm3.955 0a.362.362 0 0 1-.362-.362v-8.58a.387.387 0 0 1 .077-.315.366.366 0 0 1 .293-.139.384.384 0 0 1 .294.139.387.387 0 0 1 .077.315v8.58a.364.364 0 0 1-.379.362Zm3.972 0a.372.372 0 0 1-.267-.1.366.366 0 0 1-.111-.262v-8.58a.38.38 0 0 1 .645-.267.378.378 0 0 1 .111.267v8.58a.364.364 0 0 1-.378.362Zm3.956 0a.364.364 0 0 1-.363-.362v-8.58a.387.387 0 0 1 .077-.315.375.375 0 0 1 .456-.103.375.375 0 0 1 .208.418v8.58a.364.364 0 0 1-.378.362Zm3.971 0a.367.367 0 0 1-.349-.22.364.364 0 0 1-.029-.142v-8.58a.379.379 0 0 1 .757 0v8.58a.364.364 0 0 1-.379.362Zm3.972 0a.372.372 0 0 1-.267-.1.366.366 0 0 1-.111-.262v-8.58a.372.372 0 0 1 .207-.418.384.384 0 0 1 .456.103.36.36 0 0 1 .074.149.358.358 0 0 1 .003.166v8.58a.362.362 0 0 1-.362.362Zm3.956 0a.372.372 0 0 1-.267-.1.364.364 0 0 1-.112-.262v-8.58a.379.379 0 0 1 .757 0v8.58a.364.364 0 0 1-.378.362Zm3.971 0a.372.372 0 0 1-.267-.1.366.366 0 0 1-.111-.262v-8.58a.358.358 0 0 1 .003-.166.36.36 0 0 1 .074-.149.366.366 0 0 1 .293-.139.384.384 0 0 1 .294.139.387.387 0 0 1 .077.315v8.58a.363.363 0 0 1-.363.362Zm3.956 0a.372.372 0 0 1-.267-.1.366.366 0 0 1-.111-.262v-8.58a.377.377 0 0 1 .645-.267.378.378 0 0 1 .111.267v8.58a.364.364 0 0 1-.378.362Zm3.971 0a.367.367 0 0 1-.349-.22.364.364 0 0 1-.029-.142v-8.58a.387.387 0 0 1 .077-.315.375.375 0 0 1 .456-.103.375.375 0 0 1 .208.418v8.58a.362.362 0 0 1-.363.362Zm3.956 0a.372.372 0 0 1-.267-.1.366.366 0 0 1-.111-.262v-8.58a.378.378 0 0 1 .756 0v8.58a.364.364 0 0 1-.378.362Zm3.972 0a.372.372 0 0 1-.267-.1.364.364 0 0 1-.112-.262v-8.58a.378.378 0 0 1 .757 0v8.58a.364.364 0 0 1-.378.362Zm4.034 0a.364.364 0 0 1-.378-.362v-8.58a.378.378 0 0 1 .756 0v8.58a.366.366 0 0 1-.111.262.36.36 0 0 1-.267.1Zm3.893 0a.372.372 0 0 1-.267-.1.366.366 0 0 1-.111-.262v-8.58a.377.377 0 0 1 .645-.267.378.378 0 0 1 .111.267v8.58a.364.364 0 0 1-.378.362Zm3.987 0a.364.364 0 0 1-.378-.362v-8.58a.378.378 0 0 1 .756 0v8.58a.366.366 0 0 1-.111.262.36.36 0 0 1-.267.1Zm3.94 0a.364.364 0 0 1-.378-.362v-8.58a.379.379 0 0 1 .728-.145.378.378 0 0 1 .028.145v8.58a.366.366 0 0 1-.111.262.36.36 0 0 1-.267.1Z" opacity=".2"/><path fill="#256FF2" d="M288.534 487.5v7.179a2.389 2.389 0 0 1-.709 1.716 2.541 2.541 0 0 1-1.324.677 1.08 1.08 0 0 1-.331 0h-74.702a1.04 1.04 0 0 1-.315 0h-.174a2.546 2.546 0 0 1-.457-.158.746.746 0 0 1-.346-.189 1.803 1.803 0 0 1-.331-.251.924.924 0 0 1-.221-.284.133.133 0 0 1 0-.079.89.89 0 0 1-.142-.267.682.682 0 0 1-.079-.189 1.713 1.713 0 0 1 0-.268v-.126a2.864 2.864 0 0 1 0-.393v-7.195a2.428 2.428 0 0 1 2.427-2.424h75.412l.394.204c.11.072.21.156.299.252l.126.111c.058.064.111.132.158.204.067.083.125.173.173.268a.327.327 0 0 1 .095.157l.095.221a.227.227 0 0 1 0 .11.96.96 0 0 1 .078.283 1.985 1.985 0 0 1-.126.441Z"/><path fill="#fff" d="M288.534 487.5v7.179a2.42 2.42 0 0 1-.709 1.716 2.464 2.464 0 0 1-1.277.677h-75.08a1.73 1.73 0 0 1-.394 0h-.095a2.546 2.546 0 0 1-.457-.158 1.198 1.198 0 0 1-.378-.189 1.803 1.803 0 0 1-.331-.251.955.955 0 0 1-.221-.284l-.126-.189a1.584 1.584 0 0 1-.142-.346 1.713 1.713 0 0 1 0-.268v-.126a2.864 2.864 0 0 1 0-.393v-7.195a2.428 2.428 0 0 1 2.427-2.424h75.207-.126.079l.394.204c.11.072.21.156.299.252l.126.111c.058.064.111.132.158.204.067.083.125.173.173.268a.327.327 0 0 1 .095.157l.095.221a.227.227 0 0 1 0 .11.96.96 0 0 1 .078.283c.086.138.155.286.205.441Z" opacity=".3"/><path fill="#fff" d="M287.431 485.453h-59.1a1.49 1.49 0 0 0-1.388.921 1.492 1.492 0 0 0-.109.575v7.872a1.34 1.34 0 0 1-1.324 1.338h-15.902a.7.7 0 0 1-.094-.142l-.079-.11a1.388 1.388 0 0 1 0-.158.642.642 0 0 1-.079-.189 1.7 1.7 0 0 1 0-.267v-.126a2.878 2.878 0 0 1 0-.394v-7.194a2.426 2.426 0 0 1 2.427-2.425h75.207-.158.095l.504.299Z" opacity=".2"/><path fill="#000" d="M288.534 487.5v7.179a2.42 2.42 0 0 1-.709 1.716 2.464 2.464 0 0 1-1.277.677h-75.08a1.73 1.73 0 0 1-.394 0h-.095a2.546 2.546 0 0 1-.457-.158 1.198 1.198 0 0 1-.378-.189h59.1a1.477 1.477 0 0 0 1.481-1.479v-7.872a1.354 1.354 0 0 1 1.34-1.338h15.949c.067.083.125.173.173.268a.327.327 0 0 1 .095.157l.095.22a.232.232 0 0 1 0 .111c.04.089.067.185.078.283.042.138.068.281.079.425Z" opacity=".1"/><path fill="#000" d="M213.107 495.749a.377.377 0 0 1-.378-.377v-8.58a.377.377 0 1 1 .756 0v8.58a.378.378 0 0 1-.378.377Zm3.971 0a.377.377 0 0 1-.378-.377v-8.58a.379.379 0 0 1 .757 0v8.58a.378.378 0 0 1-.379.377Zm3.956 0a.377.377 0 0 1-.378-.377v-8.58a.378.378 0 1 1 .756 0v8.58a.377.377 0 0 1-.378.377Zm3.972 0a.378.378 0 0 1-.379-.377v-8.58a.378.378 0 1 1 .757 0v8.58a.378.378 0 0 1-.378.377Zm3.955 0a.366.366 0 0 1-.262-.111.365.365 0 0 1-.1-.266v-8.58a.373.373 0 0 1 .208-.418.38.38 0 0 1 .456.102c.035.044.06.095.074.149a.392.392 0 0 1 .003.167v8.58a.378.378 0 0 1-.379.377Zm3.972 0a.38.38 0 0 1-.268-.11.381.381 0 0 1-.11-.267v-8.58c0-.101.04-.197.11-.268a.383.383 0 0 1 .535 0 .378.378 0 0 1 .111.268v8.58a.378.378 0 0 1-.378.377Zm3.956 0a.352.352 0 0 1-.262-.111.353.353 0 0 1-.101-.266v-8.58a.387.387 0 0 1 .077-.316.384.384 0 0 1 .294-.139.38.38 0 0 1 .37.455v8.58a.378.378 0 0 1-.378.377Zm3.971 0a.377.377 0 0 1-.378-.377v-8.58a.379.379 0 0 1 .757 0v8.58a.378.378 0 0 1-.379.377Zm3.972 0a.377.377 0 0 1-.378-.377v-8.58a.377.377 0 0 1 .663-.316.373.373 0 0 1 .077.316v8.58a.352.352 0 0 1-.023.143.35.35 0 0 1-.197.205.347.347 0 0 1-.142.029Zm3.956 0a.377.377 0 0 1-.379-.377v-8.58a.379.379 0 0 1 .757 0v8.58a.378.378 0 0 1-.378.377Zm3.971 0a.377.377 0 0 1-.378-.377v-8.58a.373.373 0 0 1 .208-.418.377.377 0 0 1 .533.418v8.58a.37.37 0 0 1-.101.266.356.356 0 0 1-.262.111Zm3.956 0a.378.378 0 0 1-.35-.233.377.377 0 0 1-.028-.144v-8.58a.377.377 0 1 1 .756 0v8.58a.378.378 0 0 1-.378.377Zm3.971 0a.377.377 0 0 1-.378-.377v-8.58a.387.387 0 0 1 .077-.316.384.384 0 0 1 .293-.139.381.381 0 0 1 .368.288.392.392 0 0 1 .003.167v8.58a.37.37 0 0 1-.101.266.362.362 0 0 1-.262.111Zm3.956 0a.377.377 0 0 1-.378-.377v-8.58a.378.378 0 1 1 .756 0v8.58c0 .1-.04.196-.11.267a.38.38 0 0 1-.268.11Zm3.972 0a.377.377 0 0 1-.379-.377v-8.58a.378.378 0 1 1 .757 0v8.58a.378.378 0 0 1-.378.377Zm4.034 0a.377.377 0 0 1-.378-.377v-8.58a.378.378 0 1 1 .756 0v8.58a.377.377 0 0 1-.378.377Zm3.893 0a.377.377 0 0 1-.378-.377v-8.58a.377.377 0 1 1 .756 0v8.58a.378.378 0 0 1-.378.377Zm3.987 0a.377.377 0 0 1-.378-.377v-8.58a.378.378 0 1 1 .756 0v8.58a.377.377 0 0 1-.378.377Zm3.94 0a.377.377 0 0 1-.378-.377v-8.58a.378.378 0 1 1 .756 0v8.58a.377.377 0 0 1-.378.377Z" opacity=".2"/><path fill="#256FF2" d="M294.555 475.441v7.194a2.447 2.447 0 0 1-.721 1.716 2.446 2.446 0 0 1-1.722.709h-75.191a2.433 2.433 0 0 1-.741-.331 3.545 3.545 0 0 1-.378-.315.823.823 0 0 1-.205-.267v-.079a.685.685 0 0 1-.142-.252.807.807 0 0 1-.094-.252v-.094a.715.715 0 0 1 0-.173 2.286 2.286 0 0 1 0-.331v-7.525c0-.479.149-.947.425-1.338.086-.132.187-.253.3-.362.31-.314.704-.533 1.134-.63.191-.051.386-.077.583-.079h75.191l.394.126c.098.037.188.09.268.157a.99.99 0 0 1 .3.221.294.294 0 0 0 .094.11c.066.061.124.13.174.205l.189.267a.26.26 0 0 0 0 .111.97.97 0 0 1 .11.299c.063.122.1.256.11.393.001.177-.025.352-.078.52Z"/><path fill="#fff" d="M294.539 475.441v7.194a2.428 2.428 0 0 1-1.496 2.245 2.379 2.379 0 0 1-.931.18h-75.191a2.433 2.433 0 0 1-.741-.331 3.545 3.545 0 0 1-.378-.315.823.823 0 0 1-.205-.267v-.079l-.11-.157a.696.696 0 0 0 0-.158.785.785 0 0 1-.095-.252.554.554 0 0 1 0-.141.843.843 0 0 1 0-.174 2.272 2.272 0 0 1 0-.33v-7.415c.001-.479.149-.947.426-1.338.086-.132.186-.253.299-.362a2.13 2.13 0 0 1 1.087-.63 1.96 1.96 0 0 1 .631-.095h75.191l.394.126c.102.037.198.09.284.158a.966.966 0 0 1 .299.22.288.288 0 0 0 .095.11c.065.062.123.13.173.205l.189.268a.255.255 0 0 0 0 .11.97.97 0 0 1 .11.299c.048.128.085.259.111.394a3.4 3.4 0 0 1-.142.535Z" opacity=".3"/><path fill="#fff" d="M293.436 473.473h-59.1a1.48 1.48 0 0 0-1.482 1.48v7.871a1.34 1.34 0 0 1-1.34 1.323h-15.949v-.079l-.078-.094a.696.696 0 0 0 0-.158.785.785 0 0 1-.095-.252 1 1 0 0 1-.079-.267 2.286 2.286 0 0 1 0-.331v-7.525a2.33 2.33 0 0 1 .426-1.338c.086-.132.186-.253.299-.362.291-.315.67-.534 1.088-.63a1.95 1.95 0 0 1 .63-.095h75.191l.394.126c.05.104.082.216.095.331Z" opacity=".2"/><path fill="#000" d="M294.539 475.441v7.194a2.428 2.428 0 0 1-1.496 2.245 2.379 2.379 0 0 1-.931.18h-75.191a2.433 2.433 0 0 1-.741-.331h59.084a1.493 1.493 0 0 0 1.064-.433 1.487 1.487 0 0 0 .433-1.062v-7.872a1.339 1.339 0 0 1 1.324-1.338h15.965l.189.268a.255.255 0 0 0 0 .11.972.972 0 0 1 .111.299c.048.128.085.259.11.393.032.114.059.23.079.347Z" opacity=".1"/><path fill="#000" d="M219.064 483.769a.378.378 0 0 1-.378-.378v-8.58a.378.378 0 0 1 .756 0v8.58a.377.377 0 0 1-.378.378Zm4.019 0a.376.376 0 0 1-.378-.378v-8.58c0-.05.009-.099.028-.145a.388.388 0 0 1 .35-.233.379.379 0 0 1 .378.378v8.58a.378.378 0 0 1-.378.378Zm3.972 0a.378.378 0 0 1-.379-.378v-8.58a.378.378 0 0 1 .757 0v8.58a.378.378 0 0 1-.378.378Zm3.955 0a.378.378 0 0 1-.378-.378v-8.58a.379.379 0 0 1 .728-.145.378.378 0 0 1 .028.145v8.58a.377.377 0 0 1-.378.378Zm3.972 0a.378.378 0 0 1-.378-.378v-8.58a.377.377 0 0 1 .645-.267.378.378 0 0 1 .111.267v8.58a.378.378 0 0 1-.378.378Zm3.955 0a.368.368 0 0 1-.262-.112.365.365 0 0 1-.1-.266v-8.58a.387.387 0 0 1 .077-.315.366.366 0 0 1 .293-.139.38.38 0 0 1 .294.139.373.373 0 0 1 .077.315v8.58a.378.378 0 0 1-.379.378Zm3.972 0a.376.376 0 0 1-.378-.378v-8.58a.378.378 0 0 1 .756 0v8.58a.378.378 0 0 1-.378.378Zm3.956 0a.37.37 0 0 1-.262-.112.353.353 0 0 1-.101-.266v-8.58a.387.387 0 0 1 .077-.315.375.375 0 0 1 .456-.103.373.373 0 0 1 .208.418v8.58a.379.379 0 0 1-.378.378Zm3.971 0a.378.378 0 0 1-.378-.378v-8.58a.378.378 0 0 1 .757 0v8.58a.378.378 0 0 1-.379.378Zm3.972 0a.38.38 0 0 1-.378-.378v-8.58a.358.358 0 0 1 .003-.166.36.36 0 0 1 .074-.149.366.366 0 0 1 .293-.139.376.376 0 0 1 .37.454v8.58a.347.347 0 0 1-.023.143.35.35 0 0 1-.197.206.364.364 0 0 1-.142.029Zm3.956 0a.378.378 0 0 1-.379-.378v-8.58a.378.378 0 0 1 .757 0v8.58a.378.378 0 0 1-.378.378Zm3.971 0a.379.379 0 0 1-.378-.378v-8.58a.358.358 0 0 1 .003-.166.36.36 0 0 1 .074-.149.366.366 0 0 1 .293-.139.384.384 0 0 1 .294.139.387.387 0 0 1 .077.315v8.58a.364.364 0 0 1-.363.378Zm3.956 0a.38.38 0 0 1-.378-.378v-8.58a.377.377 0 0 1 .645-.267.378.378 0 0 1 .111.267v8.58a.378.378 0 0 1-.378.378Zm3.971 0a.378.378 0 0 1-.378-.378v-8.58a.387.387 0 0 1 .077-.315.375.375 0 0 1 .456-.103.375.375 0 0 1 .208.418v8.58a.364.364 0 0 1-.363.378Zm3.956 0a.378.378 0 0 1-.378-.378v-8.58a.378.378 0 0 1 .756 0v8.58a.377.377 0 0 1-.378.378Zm3.972 0a.378.378 0 0 1-.379-.378v-8.58a.379.379 0 0 1 .757 0v8.58a.378.378 0 0 1-.378.378Zm3.955 0a.378.378 0 0 1-.378-.378v-8.58a.378.378 0 0 1 .757 0v8.58a.378.378 0 0 1-.379.378Zm3.972 0a.38.38 0 0 1-.378-.378v-8.58a.378.378 0 0 1 .11-.267.39.39 0 0 1 .268-.111.379.379 0 0 1 .378.378v8.58a.378.378 0 0 1-.378.378Zm3.956 0a.37.37 0 0 1-.262-.112.353.353 0 0 1-.101-.266v-8.58a.387.387 0 0 1 .077-.315.375.375 0 0 1 .456-.103.375.375 0 0 1 .208.418v8.58a.379.379 0 0 1-.378.378Z" opacity=".2"/><path fill="#256FF2" d="M291.56 463.523v7.195c.005.325-.06.647-.189.944a2.006 2.006 0 0 1-.504.772 2.416 2.416 0 0 1-1.687.708h-75.317a2.252 2.252 0 0 1-.725-.315 2.487 2.487 0 0 1-.583-.566v-.079a.67.67 0 0 1-.173-.315.484.484 0 0 1-.079-.157.926.926 0 0 1 0-.268v-.126a3.22 3.22 0 0 1 0-.393v-7.195a2.425 2.425 0 0 1 2.427-2.44h75.254a.124.124 0 0 1 .111 0h-.111l.394.204.3.237.126.126c.153.142.276.313.362.503 0 .111.111.236.142.331.146.255.233.541.252.834Z"/><path fill="#fff" d="M291.56 463.539v7.179c.008.318-.051.635-.173.929a2.615 2.615 0 0 1-.504.771 2.414 2.414 0 0 1-1.104.63c-.19.051-.386.078-.583.079h-75.333a2.274 2.274 0 0 1-.725-.315 2.49 2.49 0 0 1-.583-.567v-.079l-.094-.141a1.79 1.79 0 0 1-.158-.362.926.926 0 0 1 0-.268v-.126a3.237 3.237 0 0 1 0-.394v-7.194a2.425 2.425 0 0 1 2.427-2.44h75.38l.394.204.3.236.126.126c.047.072.1.141.157.205.079.092.148.192.205.299 0 .11.111.236.142.331.102.287.145.593.126.897Z" opacity=".3"/><path fill="#fff" d="M290.441 461.492h-59.116c-.195 0-.389.039-.57.115a1.477 1.477 0 0 0-.911 1.381v7.872a1.34 1.34 0 0 1-1.34 1.338h-15.949v-.158a1.735 1.735 0 0 1 0-.204.52.52 0 0 1-.079-.158.995.995 0 0 1 0-.267v-.126a3.237 3.237 0 0 1 0-.394v-7.195a2.425 2.425 0 0 1 1.495-2.254c.296-.122.612-.186.933-.186h75.411l.126.236Z" opacity=".2"/><path fill="#000" d="M291.56 463.539v7.179c.008.318-.051.635-.173.929a2.615 2.615 0 0 1-.504.771 2.414 2.414 0 0 1-1.104.63c-.19.051-.386.078-.583.079h-75.333a2.274 2.274 0 0 1-.725-.315h59.116a1.482 1.482 0 0 0 1.482-1.48v-7.872a1.354 1.354 0 0 1 1.339-1.338h15.949c.079.092.148.193.205.299 0 .111.111.236.142.331.11.249.174.515.189.787Z" opacity=".1"/><path fill="#000" d="M216.117 471.788a.375.375 0 0 1-.378-.377v-8.565a.378.378 0 0 1 .756 0v8.58a.373.373 0 0 1-.116.257.37.37 0 0 1-.262.105Zm3.972 0a.378.378 0 0 1-.379-.377v-8.565a.387.387 0 0 1 .077-.315.38.38 0 0 1 .664.315v8.58a.358.358 0 0 1-.362.362Zm3.955 0a.377.377 0 0 1-.378-.377v-8.565a.378.378 0 0 1 .756 0v8.58a.373.373 0 0 1-.116.257.37.37 0 0 1-.262.105Zm3.972 0a.377.377 0 0 1-.378-.377v-8.565a.372.372 0 0 1 .207-.418.384.384 0 0 1 .456.103.373.373 0 0 1 .077.315v8.58a.36.36 0 0 1-.362.362Zm3.956 0a.377.377 0 0 1-.379-.377v-8.565a.378.378 0 0 1 .757 0v8.58a.377.377 0 0 1-.378.362Zm3.971 0a.377.377 0 0 1-.378-.377v-8.565a.373.373 0 0 1 .208-.418.38.38 0 0 1 .533.418v8.58a.367.367 0 0 1-.224.335.366.366 0 0 1-.139.027Zm3.956 0a.377.377 0 0 1-.378-.377v-8.565a.377.377 0 0 1 .645-.267.378.378 0 0 1 .111.267v8.58a.377.377 0 0 1-.378.362Zm3.971 0a.377.377 0 0 1-.378-.377v-8.565a.378.378 0 0 1 .757 0v8.58a.374.374 0 0 1-.117.257.37.37 0 0 1-.262.105Zm3.956 0a.377.377 0 0 1-.378-.377v-8.565a.378.378 0 0 1 .756 0v8.58a.373.373 0 0 1-.116.257.37.37 0 0 1-.262.105Zm3.972 0a.377.377 0 0 1-.379-.377v-8.565a.378.378 0 0 1 .757 0v8.58a.377.377 0 0 1-.378.362Zm3.955 0a.366.366 0 0 1-.262-.111.365.365 0 0 1-.1-.266v-8.565a.37.37 0 0 1 .1-.266.366.366 0 0 1 .262-.111.377.377 0 0 1 .379.377v8.58a.374.374 0 0 1-.117.257.37.37 0 0 1-.262.105Zm3.972 0a.38.38 0 0 1-.268-.11.381.381 0 0 1-.11-.267v-8.565a.377.377 0 0 1 .727-.144.378.378 0 0 1 .029.144v8.58a.377.377 0 0 1-.378.362Zm3.956 0a.352.352 0 0 1-.262-.111.353.353 0 0 1-.101-.266v-8.565a.387.387 0 0 1 .077-.315.38.38 0 0 1 .664.315v8.58a.377.377 0 0 1-.378.362Zm3.971 0a.377.377 0 0 1-.378-.377v-8.565a.378.378 0 0 1 .756 0v8.58a.373.373 0 0 1-.116.257.37.37 0 0 1-.262.105Zm3.956 0a.362.362 0 0 1-.363-.377v-8.565a.387.387 0 0 1 .077-.315.384.384 0 0 1 .587 0 .373.373 0 0 1 .077.315v8.58a.377.377 0 0 1-.378.362Zm3.972 0a.377.377 0 0 1-.379-.377v-8.565a.378.378 0 0 1 .757 0v8.58a.377.377 0 0 1-.378.362Zm3.971 0a.377.377 0 0 1-.378-.377v-8.565a.373.373 0 0 1 .208-.418.376.376 0 0 1 .325 0 .41.41 0 0 1 .131.103.387.387 0 0 1 .077.315v8.58a.367.367 0 0 1-.224.335.366.366 0 0 1-.139.027Zm3.956 0a.377.377 0 0 1-.378-.377v-8.565a.377.377 0 0 1 .645-.267.378.378 0 0 1 .111.267v8.58a.377.377 0 0 1-.378.362Zm3.971 0a.377.377 0 0 1-.378-.377v-8.565a.387.387 0 0 1 .077-.315.38.38 0 0 1 .664.315v8.58a.367.367 0 0 1-.224.335.366.366 0 0 1-.139.027Z" opacity=".2"/><path fill="#256FF2" d="M198.907 532.982h-74.608a2.441 2.441 0 0 0-2.443 2.44v7.179a2.442 2.442 0 0 0 2.443 2.44h74.608a2.442 2.442 0 0 0 2.443-2.44v-7.179a2.441 2.441 0 0 0-2.443-2.44Z"/><path fill="#fff" d="M201.366 535.422v7.179a2.418 2.418 0 0 1-.717 1.72 2.426 2.426 0 0 1-1.726.704h-74.624a2.375 2.375 0 0 1-1.371-.315 2.467 2.467 0 0 1-.806-.877 2.463 2.463 0 0 1-.297-1.153v-7.258a2.439 2.439 0 0 1 2.427-2.456h74.624a2.345 2.345 0 0 1 1.922.976c.358.411.559.935.568 1.48Z" opacity=".3"/><path fill="#fff" d="M121.872 542.585v-7.179a2.424 2.424 0 0 1 2.427-2.44h74.624a2.5 2.5 0 0 1 1.339.409h-59.115a1.482 1.482 0 0 0-1.482 1.48v7.872a1.337 1.337 0 0 1-1.339 1.322h-15.95a2.271 2.271 0 0 1-.504-1.464Z" opacity=".2"/><path fill="#000" d="M201.366 535.422v7.179a2.422 2.422 0 0 1-1.51 2.244 2.425 2.425 0 0 1-.933.18h-74.624a2.375 2.375 0 0 1-1.371-.315h59.1a1.473 1.473 0 0 0 1.053-.439 1.469 1.469 0 0 0 .429-1.056v-7.872a1.339 1.339 0 0 1 1.339-1.338h15.949c.344.395.544.894.568 1.417Z" opacity=".1"/><path fill="#000" d="M125.938 543.656a.367.367 0 0 1-.349-.22.37.37 0 0 1-.029-.143v-8.58a.378.378 0 0 1 .757 0v8.58a.37.37 0 0 1-.112.262.368.368 0 0 1-.267.101Zm3.956 0a.363.363 0 0 1-.362-.363v-8.58a.372.372 0 0 1 .208-.417.363.363 0 0 1 .162-.037.375.375 0 0 1 .37.454v8.58a.37.37 0 0 1-.111.262.372.372 0 0 1-.267.101Zm3.972 0a.372.372 0 0 1-.267-.101.37.37 0 0 1-.112-.262v-8.58a.378.378 0 0 1 .757 0v8.58a.37.37 0 0 1-.112.262.368.368 0 0 1-.266.101Zm3.955 0a.363.363 0 0 1-.362-.363v-8.58a.373.373 0 0 1 .208-.417.37.37 0 0 1 .325 0c.05.024.095.059.131.102a.387.387 0 0 1 .077.315v8.58a.37.37 0 0 1-.112.262.368.368 0 0 1-.267.101Zm4.019 0a.364.364 0 0 1-.378-.363v-8.58a.378.378 0 0 1 .756 0v8.58a.362.362 0 0 1-.378.363Zm3.924 0a.37.37 0 0 1-.266-.101.365.365 0 0 1-.112-.262v-8.58a.387.387 0 0 1 .077-.315.384.384 0 0 1 .294-.139.384.384 0 0 1 .293.139.387.387 0 0 1 .077.315v8.58a.363.363 0 0 1-.363.363Zm3.956 0a.364.364 0 0 1-.378-.363v-8.58a.378.378 0 0 1 .756 0v8.58a.362.362 0 0 1-.378.363Zm3.972 0a.372.372 0 0 1-.267-.101.37.37 0 0 1-.112-.262v-8.58a.387.387 0 0 1 .077-.315.394.394 0 0 1 .131-.102.37.37 0 0 1 .325 0 .375.375 0 0 1 .208.417v8.58a.36.36 0 0 1-.224.335.366.366 0 0 1-.138.028Zm3.908 0a.364.364 0 0 1-.378-.363v-8.58a.378.378 0 0 1 .756 0v8.58a.362.362 0 0 1-.378.363Zm4.019 0a.372.372 0 0 1-.267-.101.362.362 0 0 1-.111-.262v-8.58a.373.373 0 0 1 .208-.417.363.363 0 0 1 .162-.037.375.375 0 0 1 .37.454v8.58a.363.363 0 0 1-.362.363Zm3.956 0a.372.372 0 0 1-.267-.101.37.37 0 0 1-.112-.262v-8.58a.378.378 0 0 1 .757 0v8.58a.37.37 0 0 1-.112.262.368.368 0 0 1-.266.101Zm3.971 0a.364.364 0 0 1-.378-.363v-8.58a.378.378 0 0 1 .756 0v8.58a.362.362 0 0 1-.378.363Zm3.956 0a.372.372 0 0 1-.267-.101.362.362 0 0 1-.111-.262v-8.58a.378.378 0 0 1 .756 0v8.58a.37.37 0 0 1-.111.262.372.372 0 0 1-.267.101Zm3.971 0a.37.37 0 0 1-.266-.101.365.365 0 0 1-.112-.262v-8.58a.378.378 0 0 1 .757 0v8.58a.37.37 0 0 1-.112.262.368.368 0 0 1-.267.101Zm3.956 0a.363.363 0 0 1-.362-.363v-8.58a.373.373 0 0 1 .208-.417.363.363 0 0 1 .162-.037.375.375 0 0 1 .37.454v8.58a.362.362 0 0 1-.378.363Zm3.972 0a.372.372 0 0 1-.267-.101.362.362 0 0 1-.111-.262v-8.58a.377.377 0 0 1 .645-.267.378.378 0 0 1 .111.267v8.58a.37.37 0 0 1-.112.262.368.368 0 0 1-.266.101Zm3.956 0a.363.363 0 0 1-.363-.363v-8.58a.387.387 0 0 1 .077-.315.384.384 0 0 1 .293-.139.384.384 0 0 1 .294.139.387.387 0 0 1 .077.315v8.58a.37.37 0 0 1-.112.262.368.368 0 0 1-.266.101Zm3.971 0a.364.364 0 0 1-.378-.363v-8.58a.378.378 0 0 1 .756 0v8.58a.37.37 0 0 1-.111.262.372.372 0 0 1-.267.101Zm3.956 0a.365.365 0 0 1-.363-.363v-8.58a.387.387 0 0 1 .077-.315.394.394 0 0 1 .131-.102.37.37 0 0 1 .325 0 .375.375 0 0 1 .208.417v8.58a.37.37 0 0 1-.112.262.368.368 0 0 1-.266.101Z" opacity=".2"/><path fill="#256FF2" d="M188.395 521.001h-74.608a2.442 2.442 0 0 0-2.443 2.44v7.179a2.441 2.441 0 0 0 2.443 2.44h74.608a2.441 2.441 0 0 0 2.443-2.44v-7.179a2.442 2.442 0 0 0-2.443-2.44Z"/><path fill="#fff" d="M190.838 523.441v7.179a2.426 2.426 0 0 1-2.427 2.425h-74.624a2.43 2.43 0 0 1-1.339-.394 2.452 2.452 0 0 1-1.103-2.031v-7.179a2.438 2.438 0 0 1 2.442-2.455h74.624a2.398 2.398 0 0 1 1.923.976c.334.42.513.943.504 1.479Z" opacity=".3"/><path fill="#fff" d="M111.344 530.542v-7.179a2.44 2.44 0 0 1 2.428-2.44h74.623a2.44 2.44 0 0 1 1.34.409h-59.1a1.49 1.49 0 0 0-1.11.398 1.49 1.49 0 0 0-.466 1.082v7.871a1.339 1.339 0 0 1-1.324 1.338h-15.839a2.349 2.349 0 0 1-.552-1.479Z" opacity=".2"/><path fill="#000" d="M190.838 523.441v7.179a2.426 2.426 0 0 1-2.427 2.425h-74.624a2.43 2.43 0 0 1-1.339-.394h59.1a1.488 1.488 0 0 0 1.115-.404 1.473 1.473 0 0 0 .461-1.091v-7.872a1.337 1.337 0 0 1 1.339-1.338h15.949c.311.434.461.963.426 1.495Z" opacity=".1"/><path fill="#000" d="M115.411 531.675a.372.372 0 0 1-.267-.1.364.364 0 0 1-.112-.262v-8.643a.378.378 0 0 1 .757 0v8.58a.37.37 0 0 1-.086.304.363.363 0 0 1-.292.121Zm3.971 0a.364.364 0 0 1-.378-.362v-8.643a.378.378 0 0 1 .756 0v8.58a.355.355 0 0 1-.086.304.355.355 0 0 1-.292.121Zm3.956 0a.362.362 0 0 1-.363-.362v-8.643a.387.387 0 0 1 .077-.315.384.384 0 0 1 .294-.139.38.38 0 0 1 .367.288.358.358 0 0 1 .003.166v8.58a.355.355 0 0 1-.086.304.355.355 0 0 1-.292.121Zm3.971 0a.367.367 0 0 1-.349-.22.364.364 0 0 1-.029-.142v-8.643a.378.378 0 0 1 .757 0v8.58a.37.37 0 0 1-.086.304.367.367 0 0 1-.293.121Zm3.956 0a.362.362 0 0 1-.362-.362v-8.643a.358.358 0 0 1 .003-.166.36.36 0 0 1 .074-.149.366.366 0 0 1 .293-.139.376.376 0 0 1 .37.454v8.58a.355.355 0 0 1-.086.304.355.355 0 0 1-.292.121Zm3.972 0a.372.372 0 0 1-.267-.1.364.364 0 0 1-.112-.262v-8.643a.378.378 0 0 1 .757 0v8.58a.355.355 0 0 1-.086.304.363.363 0 0 1-.292.121Zm3.955 0a.362.362 0 0 1-.362-.362v-8.643a.358.358 0 0 1 .003-.166.36.36 0 0 1 .074-.149.366.366 0 0 1 .293-.139.384.384 0 0 1 .294.139.387.387 0 0 1 .077.315v8.58a.37.37 0 0 1-.086.304.367.367 0 0 1-.293.121Zm3.972 0a.372.372 0 0 1-.267-.1.366.366 0 0 1-.111-.262v-8.643a.378.378 0 0 1 .756 0v8.58a.355.355 0 0 1-.086.304.355.355 0 0 1-.292.121Zm3.972 0a.372.372 0 0 1-.267-.1.37.37 0 0 1-.112-.262v-8.643a.387.387 0 0 1 .077-.315.375.375 0 0 1 .456-.103.373.373 0 0 1 .208.418v8.58a.366.366 0 0 1-.081.298.372.372 0 0 1-.281.127Zm3.955 0a.367.367 0 0 1-.349-.22.364.364 0 0 1-.029-.142v-8.643a.378.378 0 0 1 .756 0v8.58a.37.37 0 0 1-.007.162.366.366 0 0 1-.211.236.363.363 0 0 1-.16.027Zm3.972 0a.372.372 0 0 1-.267-.1.366.366 0 0 1-.111-.262v-8.643a.372.372 0 0 1 .207-.418.384.384 0 0 1 .456.103.36.36 0 0 1 .074.149.358.358 0 0 1 .003.166v8.58a.364.364 0 0 1-.362.425Zm3.955 0a.37.37 0 0 1-.266-.1.37.37 0 0 1-.112-.262v-8.643a.378.378 0 0 1 .757 0v8.58a.37.37 0 0 1-.086.304.372.372 0 0 1-.293.121Zm3.972 0a.372.372 0 0 1-.267-.1.366.366 0 0 1-.111-.262v-8.643a.378.378 0 0 1 .756 0v8.58a.355.355 0 0 1-.086.304.355.355 0 0 1-.292.121Zm3.956 0a.372.372 0 0 1-.267-.1.366.366 0 0 1-.111-.262v-8.643a.377.377 0 0 1 .645-.267.378.378 0 0 1 .111.267v8.58a.355.355 0 0 1-.086.304.363.363 0 0 1-.292.121Zm3.971 0a.367.367 0 0 1-.349-.22.364.364 0 0 1-.029-.142v-8.643a.378.378 0 0 1 .757 0v8.58a.366.366 0 0 1-.219.398.363.363 0 0 1-.16.027Zm4.019 0a.364.364 0 0 1-.378-.362v-8.643a.378.378 0 0 1 .756 0v8.58a.355.355 0 0 1-.086.304.355.355 0 0 1-.292.121Zm3.909 0a.372.372 0 0 1-.267-.1.364.364 0 0 1-.112-.262v-8.643a.378.378 0 0 1 .757 0v8.58a.37.37 0 0 1-.086.304.368.368 0 0 1-.292.121Zm3.971 0a.362.362 0 0 1-.362-.362v-8.643a.358.358 0 0 1 .003-.166.36.36 0 0 1 .074-.149.366.366 0 0 1 .293-.139.376.376 0 0 1 .37.454v8.58a.355.355 0 0 1-.086.304.355.355 0 0 1-.292.121Zm3.956 0a.372.372 0 0 1-.267-.1.366.366 0 0 1-.111-.262v-8.643a.38.38 0 0 1 .645-.267.378.378 0 0 1 .111.267v8.58a.355.355 0 0 1-.086.304.355.355 0 0 1-.292.121Z" opacity=".2"/><path fill="#256FF2" d="M198.907 509.021h-74.608a2.441 2.441 0 0 0-2.443 2.44v7.179a2.442 2.442 0 0 0 2.443 2.44h74.608a2.442 2.442 0 0 0 2.443-2.44v-7.179a2.441 2.441 0 0 0-2.443-2.44Z"/><path fill="#fff" d="M201.366 511.461v7.179a2.418 2.418 0 0 1-.717 1.72 2.432 2.432 0 0 1-1.726.704h-74.624a2.38 2.38 0 0 1-1.324-.393 2.458 2.458 0 0 1-1.103-2.031v-7.179a2.439 2.439 0 0 1 2.427-2.456h74.624c.375-.003.746.085 1.08.255.335.169.624.417.843.721.34.418.524.941.52 1.48Z" opacity=".3"/><path fill="#fff" d="M121.872 518.624v-7.179a2.424 2.424 0 0 1 2.427-2.44h74.624a2.5 2.5 0 0 1 1.339.409h-59.115a1.482 1.482 0 0 0-1.482 1.48v7.872a1.35 1.35 0 0 1-.397.941 1.35 1.35 0 0 1-.942.397h-15.949a2.344 2.344 0 0 1-.505-1.48Z" opacity=".2"/><path fill="#000" d="M201.366 511.461v7.179a2.418 2.418 0 0 1-.717 1.72 2.432 2.432 0 0 1-1.726.704h-74.624a2.38 2.38 0 0 1-1.324-.393h59.1a1.494 1.494 0 0 0 1.083-.467 1.473 1.473 0 0 0 .399-1.108v-7.871a1.34 1.34 0 0 1 1.34-1.338h15.949c.362.442.547 1.003.52 1.574Z" opacity=".1"/><path fill="#000" d="M125.938 519.695a.367.367 0 0 1-.349-.22.368.368 0 0 1-.029-.142v-8.58a.378.378 0 1 1 .757 0v8.58a.368.368 0 0 1-.112.261.368.368 0 0 1-.267.101Zm3.956 0a.367.367 0 0 1-.335-.224.365.365 0 0 1-.027-.138v-8.58a.377.377 0 0 1 .663-.316.373.373 0 0 1 .077.316v8.58a.368.368 0 0 1-.111.261.372.372 0 0 1-.267.101Zm3.972 0a.372.372 0 0 1-.267-.101.368.368 0 0 1-.112-.261v-8.58a.378.378 0 1 1 .757 0v8.58a.368.368 0 0 1-.112.261.368.368 0 0 1-.266.101Zm3.955 0a.366.366 0 0 1-.362-.362v-8.58a.373.373 0 0 1 .208-.418.37.37 0 0 1 .325 0c.05.024.095.059.131.102.035.044.06.095.074.149a.392.392 0 0 1 .003.167v8.58a.368.368 0 0 1-.112.261.368.368 0 0 1-.267.101Zm4.019 0a.364.364 0 0 1-.378-.362v-8.58a.378.378 0 1 1 .756 0v8.58a.362.362 0 0 1-.378.362Zm3.924 0a.37.37 0 0 1-.266-.101.365.365 0 0 1-.112-.261v-8.58a.387.387 0 0 1 .077-.316.384.384 0 0 1 .294-.139.384.384 0 0 1 .293.139.387.387 0 0 1 .077.316v8.58a.373.373 0 0 1-.106.256.373.373 0 0 1-.257.106Zm3.956 0a.364.364 0 0 1-.378-.362v-8.58a.378.378 0 1 1 .756 0v8.58a.362.362 0 0 1-.378.362Zm3.972 0a.372.372 0 0 1-.267-.101.368.368 0 0 1-.112-.261v-8.58a.392.392 0 0 1 .003-.167.401.401 0 0 1 .074-.149.394.394 0 0 1 .131-.102.37.37 0 0 1 .325 0 .375.375 0 0 1 .208.418v8.58a.365.365 0 0 1-.106.256.373.373 0 0 1-.256.106Zm3.908 0a.364.364 0 0 1-.378-.362v-8.58a.378.378 0 1 1 .756 0v8.58a.362.362 0 0 1-.378.362Zm4.019 0a.372.372 0 0 1-.267-.101.362.362 0 0 1-.111-.261v-8.58a.373.373 0 0 1 .208-.418.363.363 0 0 1 .162-.037.375.375 0 0 1 .37.455v8.58a.365.365 0 0 1-.106.256.358.358 0 0 1-.256.106Zm3.956 0a.372.372 0 0 1-.267-.101.368.368 0 0 1-.112-.261v-8.58a.378.378 0 1 1 .757 0v8.58a.368.368 0 0 1-.112.261.368.368 0 0 1-.266.101Zm3.971 0a.364.364 0 0 1-.378-.362v-8.58a.378.378 0 1 1 .756 0v8.58a.362.362 0 0 1-.378.362Zm3.956 0a.372.372 0 0 1-.267-.101.362.362 0 0 1-.111-.261v-8.58a.378.378 0 1 1 .756 0v8.58a.368.368 0 0 1-.111.261.372.372 0 0 1-.267.101Zm3.971 0a.37.37 0 0 1-.266-.101.365.365 0 0 1-.112-.261v-8.58a.378.378 0 1 1 .757 0v8.58a.368.368 0 0 1-.112.261.368.368 0 0 1-.267.101Zm3.956 0a.37.37 0 0 1-.256-.106.365.365 0 0 1-.106-.256v-8.58a.373.373 0 0 1 .208-.418.363.363 0 0 1 .162-.037.375.375 0 0 1 .37.455v8.58a.362.362 0 0 1-.378.362Zm3.972 0a.372.372 0 0 1-.267-.101.362.362 0 0 1-.111-.261v-8.58a.377.377 0 1 1 .756 0v8.58a.368.368 0 0 1-.112.261.368.368 0 0 1-.266.101Zm3.956 0a.367.367 0 0 1-.335-.224.348.348 0 0 1-.028-.138v-8.58a.387.387 0 0 1 .077-.316.384.384 0 0 1 .293-.139.384.384 0 0 1 .294.139.387.387 0 0 1 .077.316v8.58a.368.368 0 0 1-.112.261.368.368 0 0 1-.266.101Zm3.971 0a.364.364 0 0 1-.378-.362v-8.58a.378.378 0 1 1 .756 0v8.58a.368.368 0 0 1-.111.261.372.372 0 0 1-.267.101Zm3.956 0a.367.367 0 0 1-.335-.224.366.366 0 0 1-.028-.138v-8.58a.392.392 0 0 1 .003-.167.401.401 0 0 1 .074-.149.394.394 0 0 1 .131-.102.37.37 0 0 1 .325 0 .375.375 0 0 1 .208.418v8.58a.368.368 0 0 1-.112.261.368.368 0 0 1-.266.101Z" opacity=".2"/><path fill="#256FF2" d="M195.913 497.04h-74.608a2.442 2.442 0 0 0-2.443 2.441v7.178a2.442 2.442 0 0 0 2.443 2.441h74.608a2.442 2.442 0 0 0 2.443-2.441v-7.178a2.442 2.442 0 0 0-2.443-2.441Z"/><path fill="#fff" d="M198.356 499.48v7.179a2.44 2.44 0 0 1-2.428 2.44h-74.576a2.46 2.46 0 0 1-2.443-2.44v-7.179a2.437 2.437 0 0 1 1.505-2.268c.297-.124.616-.187.938-.187h74.624a2.475 2.475 0 0 1 2.427 2.455h-.047Z" opacity=".3"/><path fill="#fff" d="M118.862 506.644v-7.179a2.45 2.45 0 0 1 .732-1.743c.232-.227.507-.406.809-.525.302-.12.624-.179.949-.172h74.624c.477.002.942.145 1.339.409h-59.163a1.493 1.493 0 0 0-1.109.398 1.493 1.493 0 0 0-.467 1.082v7.871a1.35 1.35 0 0 1-1.339 1.338h-15.871a2.346 2.346 0 0 1-.504-1.479Z" opacity=".2"/><path fill="#000" d="M198.356 499.48v7.179a2.44 2.44 0 0 1-2.428 2.441h-74.576a2.446 2.446 0 0 1-1.339-.41h59.1a1.492 1.492 0 0 0 1.063-.433 1.472 1.472 0 0 0 .434-1.062v-7.872a1.339 1.339 0 0 1 1.324-1.338h15.964c.316.433.477.96.458 1.495Z" opacity=".1"/><path fill="#000" d="M122.928 507.714a.364.364 0 0 1-.378-.362v-8.58a.378.378 0 0 1 .756 0v8.58a.366.366 0 0 1-.111.262.36.36 0 0 1-.267.1Zm3.972 0a.372.372 0 0 1-.267-.1.364.364 0 0 1-.112-.262v-8.58a.387.387 0 0 1 .077-.315.384.384 0 0 1 .294-.139.38.38 0 0 1 .367.288.358.358 0 0 1 .003.166v8.58a.366.366 0 0 1-.027.139.372.372 0 0 1-.197.196.365.365 0 0 1-.138.027Zm3.908 0a.364.364 0 0 1-.378-.362v-8.58a.378.378 0 0 1 .756 0v8.58a.366.366 0 0 1-.111.262.36.36 0 0 1-.267.1Zm4.019 0a.372.372 0 0 1-.267-.1.366.366 0 0 1-.111-.262v-8.58a.378.378 0 0 1 .756 0v8.58a.364.364 0 0 1-.378.362Zm3.956 0a.372.372 0 0 1-.267-.1.366.366 0 0 1-.111-.262v-8.58a.377.377 0 0 1 .645-.267.378.378 0 0 1 .111.267v8.58a.364.364 0 0 1-.378.362Zm3.971 0a.364.364 0 0 1-.378-.362v-8.58a.378.378 0 0 1 .756 0v8.58a.366.366 0 0 1-.111.262.36.36 0 0 1-.267.1Zm3.956 0a.372.372 0 0 1-.267-.1.366.366 0 0 1-.111-.262v-8.58a.378.378 0 0 1 .756 0v8.58a.364.364 0 0 1-.378.362Zm3.972 0a.372.372 0 0 1-.267-.1.364.364 0 0 1-.112-.262v-8.58a.378.378 0 0 1 .757 0v8.58a.364.364 0 0 1-.378.362Zm3.955 0a.365.365 0 0 1-.335-.223.366.366 0 0 1-.027-.139v-8.58a.358.358 0 0 1 .003-.166.36.36 0 0 1 .074-.149.366.366 0 0 1 .293-.139.384.384 0 0 1 .294.139.387.387 0 0 1 .077.315v8.58a.364.364 0 0 1-.379.362Zm3.972 0a.372.372 0 0 1-.267-.1.366.366 0 0 1-.111-.262v-8.58a.377.377 0 0 1 .645-.267.378.378 0 0 1 .111.267v8.58a.364.364 0 0 1-.378.362Zm3.956 0a.362.362 0 0 1-.363-.362v-8.58a.387.387 0 0 1 .077-.315.375.375 0 0 1 .456-.103.375.375 0 0 1 .208.418v8.58a.364.364 0 0 1-.378.362Zm3.971 0a.364.364 0 0 1-.378-.362v-8.58a.378.378 0 0 1 .756 0v8.58a.364.364 0 0 1-.378.362Zm3.972 0a.372.372 0 0 1-.267-.1.364.364 0 0 1-.112-.262v-8.58a.387.387 0 0 1 .077-.315.384.384 0 0 1 .294-.139.38.38 0 0 1 .367.288.387.387 0 0 1 .003.166v8.58a.362.362 0 0 1-.362.362Zm3.955 0a.367.367 0 0 1-.349-.22.364.364 0 0 1-.029-.142v-8.58a.378.378 0 0 1 .757 0v8.58a.364.364 0 0 1-.379.362Zm3.972 0a.372.372 0 0 1-.267-.1.366.366 0 0 1-.111-.262v-8.58a.372.372 0 0 1 .208-.418.376.376 0 0 1 .324 0 .366.366 0 0 1 .131.103.36.36 0 0 1 .074.149.358.358 0 0 1 .003.166v8.58a.362.362 0 0 1-.362.362Zm3.956 0a.372.372 0 0 1-.267-.1.364.364 0 0 1-.112-.262v-8.58a.378.378 0 0 1 .757 0v8.58a.364.364 0 0 1-.378.362Zm3.971 0a.364.364 0 0 1-.378-.362v-8.58a.378.378 0 0 1 .756 0v8.58a.366.366 0 0 1-.111.262.36.36 0 0 1-.267.1Zm3.956 0a.372.372 0 0 1-.267-.1.366.366 0 0 1-.111-.262v-8.58a.38.38 0 0 1 .645-.267.378.378 0 0 1 .111.267v8.58a.364.364 0 0 1-.378.362Zm3.971 0a.37.37 0 0 1-.266-.1.37.37 0 0 1-.112-.262v-8.58a.378.378 0 0 1 .757 0v8.58a.364.364 0 0 1-.379.362Z" opacity=".2"/><path fill="#000" d="M268.724 461.083v.409c-.189 1.291-.378 2.724-.63 4.267-.253 1.543-.473 2.897-.757 4.471-.142.818-.315 1.653-.473 2.519-.007.105-.007.21 0 .315a.147.147 0 0 0 0 .078c0 .095 0 .205-.079.315-.078.362-.126.709-.204 1.071 0 .189 0 .346-.111.535a164.16 164.16 0 0 1-2.301 9.65c0 .095 0 .221-.078.331l-.095.331a167.1 167.1 0 0 1-2.758 9.099c-.126.394-.268.772-.394 1.181-.126.409-.221.645-.347.976l-.126.315c0 .094 0 .204-.094.315a130.115 130.115 0 0 1-2.979 7.556 40.621 40.621 0 0 1-.757 1.732c-.267.567-.583 1.307-.882 1.968a2.137 2.137 0 0 0-.158.331 2.16 2.16 0 0 1-.173.33 103.93 103.93 0 0 1-2.931 5.762 38.11 38.11 0 0 1-.741 1.354c-.804 1.401-1.576 2.771-2.49 4.14a3.323 3.323 0 0 1-.189.315v.079l-.189.315a78.698 78.698 0 0 1-2.758 3.999l-.741.992c-1.009 1.369-2.096 2.707-3.152 4.014-.237.283-.504.567-.757.85-.252.283-.819.945-1.26 1.401l-.3.315a.108.108 0 0 1-.079 0c-.078.124-.18.231-.299.315a41.418 41.418 0 0 1-2.758 2.739l-.757.709a81.29 81.29 0 0 1-3.152 2.692 7.989 7.989 0 0 1-.74.582 26.35 26.35 0 0 1-1.765 1.291c-.599.394-.962.693-1.45 1.008a8.952 8.952 0 0 1-.757.488c-.63.409-1.261.803-1.907 1.18-.315.189-.646.394-.977.567l-.741.41h-10.07a2.255 2.255 0 0 1-.725-.315 2.586 2.586 0 0 1-.252-.189l-.19-.189a1.146 1.146 0 0 1-.173-.236l-.079-.126v-.11a1.01 1.01 0 0 0-.094-.189v-.52c-.01-.11-.01-.22 0-.33v-7.258a2.486 2.486 0 0 1-.095-1.543 2.45 2.45 0 0 1 1.734-.708h.867a2.069 2.069 0 0 1-.678-.315 1.769 1.769 0 0 1-.363-.299 1.058 1.058 0 0 1-.22-.252v-.095a.966.966 0 0 1-.111-.157 1.433 1.433 0 0 0-.078-.157v-.158a1 1 0 0 1 0-.173.627.627 0 0 1 0-.173 2.286 2.286 0 0 1 0-.331v-7.257c0-.484.149-.957.425-1.354.077-.138.179-.261.3-.362a2.244 2.244 0 0 1 1.071-.63h-.866a1.67 1.67 0 0 1-.489 0 3.835 3.835 0 0 1-.457-.142 1.887 1.887 0 0 1-.394-.204l-.331-.252a2.021 2.021 0 0 1-.221-.284v-.078l-.094-.142a1.79 1.79 0 0 1-.158-.362.86.86 0 0 1 0-.268v-.126a2.864 2.864 0 0 1 0-.393v-7.195a2.423 2.423 0 0 1 1.844-2.361h-2.789a.673.673 0 0 1-.253 0 2.4 2.4 0 0 1-.709-.315 1.886 1.886 0 0 1-.583-.583l-.126-.204a.392.392 0 0 1-.095-.174.38.38 0 0 0 0-.126 1.249 1.249 0 0 1 0-.173.834.834 0 0 1 0-.173 2.595 2.595 0 0 1 0-.33v-7.274a2.373 2.373 0 0 1 .71-1.7 2.39 2.39 0 0 1 1.276-.677 2.624 2.624 0 0 1-.457-.157 1.242 1.242 0 0 1-.378-.189 1.808 1.808 0 0 1-.331-.252.943.943 0 0 1-.221-.284l-.126-.189a1.584 1.584 0 0 1-.142-.346 1.713 1.713 0 0 1 0-.268v-.125a2.878 2.878 0 0 1 0-.394v-7.195a2.424 2.424 0 0 1 2.427-2.424h5.438a2.422 2.422 0 0 1-.741-.331 3.449 3.449 0 0 1-.378-.315.823.823 0 0 1-.205-.267v-.079l-.111-.157a.597.597 0 0 0 0-.158.807.807 0 0 1-.094-.252.555.555 0 0 1 0-.141.834.834 0 0 1 0-.173 2.286 2.286 0 0 1 0-.331v-8.265a2.33 2.33 0 0 1 .425-1.338 2.13 2.13 0 0 1 .3-.362 2.13 2.13 0 0 1 1.087-.63h-2.994a2.264 2.264 0 0 1-.725-.315 2.49 2.49 0 0 1-.583-.567v-.078l-.095-.142a1.844 1.844 0 0 1-.157-.362.926.926 0 0 1 0-.268v-.126a2.864 2.864 0 0 1 0-.393v-7.195a2.425 2.425 0 0 1 2.427-2.44l52.386-.142Z" opacity=".1"/><path fill="#256FF2" d="M240.495 495.1c19.945-7.852 29.741-30.369 21.881-50.292-7.861-19.924-30.401-29.71-50.346-21.858-19.945 7.852-29.742 30.369-21.881 50.292 7.861 19.924 30.401 29.71 50.346 21.858Z"/><path fill="#fff" d="M245.383 492.758a38.849 38.849 0 0 1-43.026-3.167 38.78 38.78 0 0 1-12.977-18.414 38.741 38.741 0 0 1-.544-22.512 38.768 38.768 0 0 1 12.072-19.018 38.854 38.854 0 0 1 42.824-5.238 38.8 38.8 0 0 1 16.308 15.547 38.595 38.595 0 0 1-3.162 42.951 38.67 38.67 0 0 1-11.495 9.851Z" opacity=".5"/><path fill="#fff" d="m230.096 461.02 4.35 7.667c2.9-2.267 3.404-4.503 2.348-6.297-1.213-2.204-3.688-2.11-6.698-1.37Zm-13.601-5.447c1.182 2.094 3.594 1.984 6.525 1.291l-4.381-7.714c-2.727 2.22-3.231 4.518-2.144 6.423Z" opacity=".3"/><path fill="#fff" d="M209.908 430.258a33.075 33.075 0 0 0-13.226 13.909 33.04 33.04 0 0 0 4.524 36.438 33.103 33.103 0 0 0 16.227 10.26 33.131 33.131 0 0 0 19.199-.468 33.102 33.102 0 0 0 15.706-11.04 33.033 33.033 0 0 0-5.702-46.406 33.133 33.133 0 0 0-36.728-2.693Zm27.201 43.168 2.758 4.864-3.561 2.015-2.727-4.864c-4.413 2.141-9.33 3.148-12.687 2.409l-.536-5.479a19.346 19.346 0 0 0 10.56-1.574l-4.917-8.675c-5.485 1.575-11.537 2.913-14.957-3.148-2.521-4.424-1.497-10.107 4.917-14.594l-2.773-4.896 3.561-2.015 2.727 4.817a21.35 21.35 0 0 1 10.323-2.346l.693 5.384a20.995 20.995 0 0 0-8.368 1.575l4.98 8.769c5.484-1.575 11.599-3.007 15.019 3.022 2.506 4.518 1.418 10.186-5.012 14.736Z" opacity=".3"/><path fill="#256FF2" d="M194.991 546.035c20.795-5.354 33.308-26.533 27.948-47.306-5.359-20.772-26.561-33.271-47.356-27.918-20.795 5.354-33.308 26.534-27.948 47.306 5.359 20.773 26.561 33.272 47.356 27.918Z"/><path fill="#fff" d="M194.991 546.035c20.795-5.354 33.308-26.533 27.948-47.306-5.359-20.772-26.561-33.271-47.356-27.918-20.795 5.354-33.308 26.534-27.948 47.306 5.359 20.773 26.561 33.272 47.356 27.918Z" opacity=".5"/><path fill="#fff" d="m186.567 510.548-5.185 7.147c3.278 1.7 5.532 1.228 6.777-.504 1.434-1.983.331-4.203-1.592-6.643Zm-.709-14.641c-1.403 1.936-.315 4.077 1.576 6.455l5.201-7.179c-3.231-1.59-5.485-1.008-6.777.724Z" opacity=".3"/><path fill="#fff" d="M206.157 479.424a33.121 33.121 0 0 0-36.733-1.321 33.07 33.07 0 0 0-12.716 14.376 33.025 33.025 0 0 0-2.584 19.009 33.046 33.046 0 0 0 8.418 17.242 33.102 33.102 0 0 0 16.586 9.67 33.13 33.13 0 0 0 19.169-1.158 33.094 33.094 0 0 0 15.298-11.596 33.047 33.047 0 0 0 5.882-24.653 33.047 33.047 0 0 0-13.32-21.569Zm-27.959 42.679-3.262 4.534-3.31-2.393 3.247-4.486c-3.798-3.149-6.698-7.179-7.486-10.517l4.728-2.771a19.04 19.04 0 0 0 5.863 8.911l5.847-8.076c-3.704-4.33-7.455-9.273-3.389-14.877 2.979-4.125 8.574-5.558 15.319-1.575l3.31-4.565 3.309 2.393-3.246 4.487a21.15 21.15 0 0 1 6.43 8.391l-4.602 2.881a20.76 20.76 0 0 0-4.98-6.912l-5.91 8.171c3.703 4.329 7.58 9.273 3.514 14.893-2.884 4.093-8.558 5.463-15.382 1.511Z" opacity=".3"/><path fill="#256FF2" d="M279.138 423.726c21.333-2.108 36.917-21.093 34.806-42.404-2.11-21.311-21.116-36.878-42.449-34.77-21.334 2.109-36.918 21.094-34.807 42.405 2.11 21.311 21.116 36.877 42.45 34.769Z"/><path fill="#fff" d="M279.138 423.726c21.333-2.108 36.917-21.093 34.806-42.404-2.11-21.311-21.116-36.878-42.449-34.77-21.334 2.109-36.918 21.094-34.807 42.405 2.11 21.311 21.116 36.877 42.45 34.769Z" opacity=".5"/><path fill="#fff" d="M277.723 388.696v8.832c3.64-.551 5.185-2.251 5.185-4.392 0-2.44-2.191-3.589-5.185-4.44Zm-9.141-11.413c0 2.393 2.159 3.479 5.043 4.329v-8.879c-3.546.551-5.043 2.346-5.043 4.55Z" opacity=".3"/><path fill="#fff" d="M275.359 352.015a33.117 33.117 0 0 0-18.387 5.572 33.068 33.068 0 0 0-12.19 14.837 33.026 33.026 0 0 0-1.883 19.101 33.056 33.056 0 0 0 9.057 16.928 33.117 33.117 0 0 0 36.068 7.166 33.078 33.078 0 0 0 14.853-12.176 33.034 33.034 0 0 0-4.116-41.745 33.113 33.113 0 0 0-23.402-9.683Zm2.364 50.945v5.589h-4.098v-5.526c-4.885-.299-9.629-1.889-12.23-4.141l2.254-5.038a19.126 19.126 0 0 0 9.976 3.795v-9.966c-5.532-1.354-11.473-3.148-11.473-10.075 0-5.085 3.688-9.446 11.473-10.281v-5.636h4.098v5.542a21.473 21.473 0 0 1 10.134 3.038l-2.049 5.038a20.704 20.704 0 0 0-8.085-2.692v10.076c5.547 1.338 11.583 3.148 11.583 10.012 0 5.07-3.75 9.462-11.583 10.328v-.063Z" opacity=".3"/><path fill="#256FF2" d="M366.073 466.357a38.812 38.812 0 0 1 18.046 13.483 38.75 38.75 0 0 1 1.944 43.039 38.81 38.81 0 0 1-16.757 15.051 38.858 38.858 0 0 1-22.304 3.215 38.834 38.834 0 0 1-20.333-9.704 38.74 38.74 0 0 1-10.318-41.831 38.756 38.756 0 0 1 20.036-21.921 38.834 38.834 0 0 1 29.686-1.332Z"/><path fill="#fff" d="M366.073 466.357a38.812 38.812 0 0 1 18.046 13.483 38.75 38.75 0 0 1 1.944 43.039 38.81 38.81 0 0 1-16.757 15.051 38.858 38.858 0 0 1-22.304 3.215 38.834 38.834 0 0 1-20.333-9.704 38.74 38.74 0 0 1-10.318-41.831 38.756 38.756 0 0 1 20.036-21.921 38.834 38.834 0 0 1 29.686-1.332Z" opacity=".5"/><path fill="#fff" d="m357.027 501.81 8.306 3.007c.725-3.621-.331-5.636-2.364-6.376-2.286-.834-4.114.835-5.942 3.369Zm-13.853 4.676c2.254.819 4.019-.818 5.8-3.243l-8.353-3.038c-.693 3.573.489 5.541 2.553 6.281Z" opacity=".3"/><path fill="#fff" d="M321.693 491.53a33.023 33.023 0 0 0-1.003 19.159 33.06 33.06 0 0 0 9.817 16.49 33.126 33.126 0 0 0 36.339 5.528 33.075 33.075 0 0 0 14.286-12.822 33.03 33.03 0 0 0-1.63-36.683 33.092 33.092 0 0 0-15.367-11.508 33.131 33.131 0 0 0-35.757 8.778 33.07 33.07 0 0 0-6.685 11.058Zm48.762 15.129 5.248 1.905-1.387 3.857-5.217-1.889a21.857 21.857 0 0 1-8.053 10.076l-3.987-3.826a19.225 19.225 0 0 0 6.981-8.092l-9.44-3.337c-3.152 4.723-6.871 9.713-13.396 7.352-4.728-1.732-7.706-6.707-5.752-14.279l-5.296-1.921 1.387-3.841 5.217 1.873a21.303 21.303 0 0 1 6.304-8.47l4.034 3.637a20.48 20.48 0 0 0-5.295 6.675l9.456 3.432c3.152-4.723 6.856-9.824 13.38-7.462 4.886 1.669 7.738 6.706 5.816 14.31Z" opacity=".3"/><path fill="#263238" d="M270.678 111.335v407.872a5.963 5.963 0 0 1-4.198-1.767 5.934 5.934 0 0 1-1.712-4.216V117.27a5.935 5.935 0 0 1 5.91-5.935Z"/><path fill="#263238" d="M268.724 103.574h-4.082a2.094 2.094 0 0 0-2.096 2.093v20.797c0 1.156.938 2.094 2.096 2.094h4.082a2.096 2.096 0 0 0 2.096-2.094v-20.797a2.095 2.095 0 0 0-2.096-2.093Z"/><path fill="#fff" d="M270.836 105.683v20.797a2.095 2.095 0 0 1-2.097 2.078h-4.097a2.094 2.094 0 0 1-2.096-2.078v-20.797a2.106 2.106 0 0 1 2.096-2.109h4.097a2.114 2.114 0 0 1 2.097 2.109Z" opacity=".4"/><path fill="#fff" d="M267.825 105.683v20.797a2.09 2.09 0 0 1-.619 1.47 2.1 2.1 0 0 1-1.477.608h-1.087a2.094 2.094 0 0 1-2.096-2.078v-20.797a2.106 2.106 0 0 1 2.096-2.109h1.087a2.11 2.11 0 0 1 2.096 2.109Z" opacity=".2"/><path fill="#263238" d="M264.516 125.394h-4.476a7.367 7.367 0 0 1-2.827-.557 7.365 7.365 0 0 1-4.564-6.811v-4.156a7.376 7.376 0 0 1 2.17-5.211 7.397 7.397 0 0 1 5.221-2.157h4.555a1.227 1.227 0 0 1 1.229 1.244v2.015a1.221 1.221 0 0 1-.354.878 1.223 1.223 0 0 1-.875.365h-4.555a2.88 2.88 0 0 0-2.884 2.866v4.203a2.86 2.86 0 0 0 1.782 2.652c.349.143.724.215 1.102.213h4.555a1.245 1.245 0 0 1 1.229 1.244v2.031a1.235 1.235 0 0 1-.404.866 1.235 1.235 0 0 1-.904.315Z"/><path fill="#fff" d="M264.516 125.394h-4.476a7.367 7.367 0 0 1-2.827-.557 7.365 7.365 0 0 1-4.564-6.811v-4.156a7.376 7.376 0 0 1 2.17-5.211 7.397 7.397 0 0 1 5.221-2.157h4.555a1.227 1.227 0 0 1 1.229 1.244v2.015a1.221 1.221 0 0 1-.354.878 1.223 1.223 0 0 1-.875.365h-4.555a2.88 2.88 0 0 0-2.884 2.866v4.203a2.86 2.86 0 0 0 1.782 2.652c.349.143.724.215 1.102.213h4.555a1.245 1.245 0 0 1 1.229 1.244v2.031a1.235 1.235 0 0 1-.404.866 1.235 1.235 0 0 1-.904.315Z" opacity=".6"/><path fill="#263238" d="m257.298 501.464 9.377 3.353v6.455l-9.377 1.842v-11.65Zm0-18.293 9.377 3.369v6.439l-9.377 1.857v-11.665Zm0-18.278 9.377 3.353v6.439l-9.377 1.858v-11.65Zm0-18.294 9.377 3.354v6.454l-9.377 1.842v-11.65Zm0-18.293 9.377 3.369v6.439l-9.377 1.858v-11.666Zm0-18.278 9.377 3.354v6.454l-9.377 1.842v-11.65Zm0-18.293 9.377 3.369v6.439l-9.377 1.857v-11.665Zm0-18.278 9.377 3.353v6.439l-9.377 1.858v-11.65Zm0-18.293 9.377 3.353v6.455l-9.377 1.842v-11.65Zm0-18.294 9.377 3.369v6.439l-9.377 1.858V336.87Zm0-18.277 9.377 3.353v6.455l-9.377 1.841v-11.649Zm0-18.294 9.377 3.369v6.439l-9.377 1.842v-11.65Zm0-18.293 9.377 3.369v6.439l-9.377 1.857v-11.665Zm0-18.278 9.377 3.353v6.455l-9.377 1.842v-11.65Zm0-18.293 9.377 3.369v6.438l-9.377 1.858v-11.665Zm0-18.278 9.377 3.353v6.439l-9.377 1.858v-11.65Zm0-18.294 9.377 3.369v6.439l-9.377 1.842v-11.65Zm0-18.293 9.377 3.369v6.439l-9.377 1.858V190.57Zm0-18.278 9.377 3.353v6.455l-9.377 1.842v-11.65Zm0-18.293 9.377 3.369v6.439l-9.377 1.842v-11.65Zm0-18.278 9.377 3.353v6.439l-9.377 1.858v-11.65Zm1.718-64.295h-11.505c-.82 0-1.324.992-1.088 2.141l8.306 41.987c.205 1.055.961 1.874 1.702 1.874h7.612c.741 0 1.245-.819 1.135-1.874l-4.429-41.987c-.126-1.149-.914-2.14-1.733-2.14Zm.535 39.264c.066.421.011.852-.157 1.243a3.14 3.14 0 0 1-.52-1.243l-.473-3.149a2.315 2.315 0 0 1 .158-1.26c.263.377.44.807.52 1.26l.472 3.149Zm-5.705-35.39c.804 0 1.576.912 1.75 2.03l.472 3.07c.174 1.118-.346 2.03-1.134 2.03-.804 0-1.576-.912-1.75-2.03l-.472-3.07c-.174-1.118.346-2.03 1.134-2.03Z"/><path fill="#fff" d="M259.016 71.426h-11.505c-.82 0-1.324.992-1.088 2.141l8.306 41.987c.205 1.055.961 1.874 1.702 1.874h7.612c.741 0 1.245-.819 1.135-1.874l-4.429-41.987c-.126-1.149-.914-2.14-1.733-2.14Zm.535 39.264c.066.421.011.852-.157 1.243a3.14 3.14 0 0 1-.52-1.243l-.473-3.149a2.315 2.315 0 0 1 .158-1.26c.263.377.44.807.52 1.26l.472 3.149Zm-5.705-35.39c.804 0 1.576.912 1.75 2.03l.472 3.07c.174 1.118-.346 2.03-1.134 2.03-.804 0-1.576-.912-1.75-2.03l-.472-3.07c-.174-1.118.346-2.03 1.134-2.03Z" opacity=".4"/><path fill="#fff" d="M254.729 115.554c.205 1.055.961 1.874 1.702 1.874h5.437c.757 0 1.245-.819 1.135-1.874l-4.429-41.987c-.11-1.149-.914-2.14-1.733-2.14h-9.33c-.82 0-1.324.991-1.088 2.14l8.306 41.987Zm4.822-4.864c.158 1.102-.331 1.999-1.119 1.999s-1.576-.897-1.717-1.999l-.473-3.149c-.174-1.118.331-2.015 1.103-2.015s1.576.897 1.734 2.015l.472 3.149Zm-7.88-35.39h2.175c.804 0 1.576.912 1.75 2.03l.472 3.07c.174 1.118-.346 2.03-1.134 2.03h-2.175c-.804 0-1.576-.912-1.75-2.03l-.472-3.07c-.174-1.118.346-2.03 1.134-2.03Z" opacity=".2"/><path fill="#263238" d="M264.516 120.891h-4.476a2.858 2.858 0 0 1-2.038-.834 2.855 2.855 0 0 1-.846-2.031v-4.156a2.863 2.863 0 0 1 2.112-2.755v-1.386l-.237-.567v-.157c0-.142-.252-1.842-.252-1.984a1.672 1.672 0 0 1 0-.283 7.343 7.343 0 0 0-6.083 7.179v4.156a7.353 7.353 0 0 0 2.166 5.215 7.371 7.371 0 0 0 5.225 2.153h4.555a1.23 1.23 0 0 0 1.229-1.228v-2.031a1.242 1.242 0 0 0-1.355-1.291Z"/><path fill="#fff" d="M264.516 120.891h-4.476a2.858 2.858 0 0 1-2.038-.834 2.855 2.855 0 0 1-.846-2.031v-4.156a2.863 2.863 0 0 1 2.112-2.755v-1.386l-.237-.567v-.157c0-.142-.252-1.842-.252-1.984a1.672 1.672 0 0 1 0-.283 7.343 7.343 0 0 0-6.083 7.179v4.156a7.353 7.353 0 0 0 2.166 5.215 7.371 7.371 0 0 0 5.225 2.153h4.555a1.23 1.23 0 0 0 1.229-1.228v-2.031a1.242 1.242 0 0 0-1.355-1.291Z" opacity=".6"/><path fill="#263238" d="M506.132 92.317H284.358c-8.339 0-15.098 6.753-15.098 15.082v422.544c0 8.33 6.759 15.082 15.098 15.082h221.774c8.339 0 15.098-6.752 15.098-15.082V107.399c0-8.33-6.759-15.082-15.098-15.082Z"/><path fill="#fff" d="M506.132 92.317H284.358c-8.339 0-15.098 6.753-15.098 15.082v422.544c0 8.33 6.759 15.082 15.098 15.082h221.774c8.339 0 15.098-6.752 15.098-15.082V107.399c0-8.33-6.759-15.082-15.098-15.082Z" opacity=".3"/><path fill="#263238" d="M512.72 107.478v421.568a6.182 6.182 0 0 1-3.904 5.734 6.197 6.197 0 0 1-2.4.437H283.365a5.53 5.53 0 0 1-5.611-5.652V107.053a4.973 4.973 0 0 1 1.296-3.563 4.986 4.986 0 0 1 3.432-1.617h55.775a3.937 3.937 0 0 1 3.609 2.519l2.301 5.668a3.886 3.886 0 0 0 3.577 2.471h95.112a3.893 3.893 0 0 0 3.593-2.44l2.301-5.699a3.961 3.961 0 0 1 3.593-2.519h54.987a5.637 5.637 0 0 1 5.39 5.605Z"/><path fill="#fff" d="M395.198 102.33a3.14 3.14 0 0 1-.532 1.749 3.145 3.145 0 0 1-3.235 1.339 3.147 3.147 0 0 1 .615-6.237 3.23 3.23 0 0 1 3.152 3.149Zm6.524 0a2.06 2.06 0 0 1-1.274 1.905 2.068 2.068 0 0 1-2.815-1.503 2.058 2.058 0 0 1 .878-2.117 2.068 2.068 0 0 1 1.147-.347 2.045 2.045 0 0 1 2.064 2.062Z" opacity=".6"/><path fill="#256FF2" d="M509.332 128.794H281.143v386.76h228.189v-386.76Z"/><path fill="#fff" d="M509.332 128.794H281.143v386.76h228.189v-386.76Z" opacity=".6"/><path fill="#256FF2" d="M496.929 428.936H293.546a6.206 6.206 0 0 0-6.21 6.203v34.666a6.207 6.207 0 0 0 6.21 6.203h203.383a6.207 6.207 0 0 0 6.209-6.203v-34.666a6.206 6.206 0 0 0-6.209-6.203Z"/><path fill="#fff" d="M496.929 361.004H293.546a6.206 6.206 0 0 0-6.21 6.203v47.513a6.207 6.207 0 0 0 6.21 6.203h203.383a6.207 6.207 0 0 0 6.209-6.203v-47.513a6.206 6.206 0 0 0-6.209-6.203Zm0-171.867H293.546a6.206 6.206 0 0 0-6.21 6.203v153.054a6.206 6.206 0 0 0 6.21 6.203h203.383a6.206 6.206 0 0 0 6.209-6.203V195.34a6.206 6.206 0 0 0-6.209-6.203Z"/><path fill="#256FF2" d="M496.929 136.162H293.546a6.206 6.206 0 0 0-6.21 6.203v34.666a6.206 6.206 0 0 0 6.21 6.203h203.383a6.206 6.206 0 0 0 6.209-6.203v-34.666a6.206 6.206 0 0 0-6.209-6.203Z"/><path fill="#000" d="m396.868 389.987 2.049 1.134-.693 1.212-2.096-1.212v2.314h-1.372v-2.298l-2.064 1.196-.725-1.212 2.064-1.134-2.064-1.149.725-1.228 2.064 1.212v-2.298h1.372v2.33l2.096-1.228.693 1.228-2.049 1.133Zm7.865 0 2.048 1.134-.709 1.212-2.08-1.212v2.314h-1.371v-2.298l-2.081 1.196-.709-1.212 2.065-1.134-2.065-1.149.709-1.228 2.081 1.212v-2.298h1.371v2.33l2.08-1.228.709 1.228-2.048 1.133Zm7.848 0 2.065 1.134-.71 1.212-2.096-1.212v2.314h-1.371v-2.298l-2.08 1.196-.725-1.212 2.08-1.134-2.033-1.133.725-1.228 2.08 1.212v-2.298h1.372v2.314l2.096-1.228.709 1.228-2.112 1.133Zm7.864 0 2.049 1.134-.693 1.212-2.096-1.212v2.314h-1.372v-2.298l-2.064 1.196-.725-1.212 2.065-1.134-2.065-1.149.725-1.228 2.064 1.212v-2.298h1.372v2.33l2.096-1.228.693 1.228-2.049 1.133Zm12.466 0 2.065 1.134-.709 1.212-2.096-1.212v2.314H430.8v-2.298l-2.081 1.196-.725-1.212 2.081-1.134-2.033-1.133.724-1.228 2.081 1.212v-2.298h1.371v2.314l2.096-1.228.709 1.228-2.112 1.133Zm7.865 0 2.048 1.134-.693 1.212-2.096-1.212v2.314h-1.371v-2.298l-2.065 1.196-.725-1.212 2.065-1.134-2.065-1.149.725-1.228 2.065 1.212v-2.298h1.371v2.33l2.096-1.228.693 1.228-2.048 1.133Zm7.848 0 2.065 1.134-.71 1.212-2.096-1.212v2.314h-1.371v-2.298l-2.08 1.196-.725-1.212 2.08-1.134-2.08-1.149.725-1.228 2.08 1.212v-2.298h1.371v2.314l2.096-1.228.71 1.228-2.065 1.149Zm7.864 0 2.065 1.134-.709 1.212-2.096-1.212v2.314h-1.371v-2.298l-2.065 1.196-.725-1.212 2.08-1.134-2.08-1.149.725-1.228 2.065 1.212v-2.298h1.371v2.33l2.096-1.228.709 1.228-2.065 1.133Zm12.467 0 2.064 1.134-.709 1.212-2.08-1.212v2.314h-1.371v-2.298l-2.081 1.196-.725-1.212 2.081-1.134-2.081-1.149.725-1.228 2.081 1.212v-2.298h1.371v2.33l2.08-1.228.709 1.228-2.064 1.133Zm7.864 0 2.064 1.134-.709 1.212-2.096-1.212v2.314h-1.371v-2.298l-2.065 1.196-.725-1.212 2.081-1.134-2.081-1.149.725-1.228 2.065 1.212v-2.298h1.371v2.33l2.096-1.228.709 1.228-2.064 1.133Zm7.864 0 2.049 1.134-.694 1.212-2.096-1.212v2.314h-1.371v-2.298l-2.064 1.196-.725-1.212 2.064-1.134-2.064-1.149.725-1.228 2.064 1.212v-2.298h1.371v2.33l2.096-1.228.694 1.228-2.049 1.133Z" opacity=".5"/><path fill="#256FF2" d="M338.178 377.267h-30.622a4.095 4.095 0 0 0-4.097 4.093v17.506a4.095 4.095 0 0 0 4.097 4.094h30.622a4.096 4.096 0 0 0 4.098-4.094V381.36a4.096 4.096 0 0 0-4.098-4.093Z"/><path fill="#000" d="M342.276 391.121h-38.817v6.407h38.817v-6.407Zm-3.121-4.581a1.94 1.94 0 1 1-3.731-.722 1.939 1.939 0 0 1 3.731.722Z" opacity=".5"/><path fill="#fff" d="M336.634 386.54a1.938 1.938 0 1 1-3.018-1.594 1.94 1.94 0 0 1 3.018 1.594Z"/><path fill="#000" d="m321.898 152.393-4.255 12.594h-1.403l-3.703-10.705-3.641 10.721h-1.403l-4.255-12.594h1.371l3.641 10.831 3.782-10.831h1.245l3.704 10.894 3.703-10.894 1.214-.016Z"/><path fill="#fff" d="M318.179 165.743h-2.475l-3.168-9.194-3.183 9.194h-2.459l-4.759-14.106h2.963l3.104 9.273 3.231-9.273h2.317l3.168 9.32 3.168-9.32h2.868l-4.775 14.106Z"/><path fill="#000" d="M330.487 159.131v5.872h-1.213v-1.48a3.584 3.584 0 0 1-3.278 1.575c-2.144 0-3.452-1.118-3.452-2.755 0-1.638.93-2.677 3.656-2.677h3.011v-.661c0-1.574-.915-2.503-2.68-2.503a4.934 4.934 0 0 0-3.152 1.118l-.567-.961a6.06 6.06 0 0 1 3.861-1.275 3.385 3.385 0 0 1 2.831.935 3.372 3.372 0 0 1 .983 2.812Zm-1.276 3.023v-1.575h-2.979c-1.828 0-2.427.725-2.427 1.701 0 .976.882 1.779 2.395 1.779a3.034 3.034 0 0 0 3.011-1.905Z"/><path fill="#fff" d="M325.996 165.838c-2.522 0-4.208-1.417-4.208-3.511 0-1.023.425-3.432 4.412-3.432h2.254c0-.772-.331-1.574-1.923-1.574a4.116 4.116 0 0 0-2.663.928l-.678.599-1.371-2.283.489-.409a6.78 6.78 0 0 1 4.349-1.465 4.113 4.113 0 0 1 4.587 4.44v6.612h-2.727v-.441a5.238 5.238 0 0 1-2.521.536Zm.236-4.487c-1.686 0-1.686.614-1.686.944 0 .898 1.04 1.039 1.576 1.039a2.31 2.31 0 0 0 2.253-1.338v-.645h-2.143Z"/><path fill="#000" d="M333.97 151.622h1.277v13.381h-1.277v-13.381Z"/><path fill="#fff" d="M336.003 150.882h-2.789v14.861h2.789v-14.861Z"/><path fill="#000" d="M338.84 151.622h1.292v13.381h-1.292v-13.381Z"/><path fill="#fff" d="M340.857 150.882h-2.789v14.861h2.789v-14.861Z"/><path fill="#000" d="M351.921 160.658h-7.88a3.486 3.486 0 0 0 1.179 2.425 3.502 3.502 0 0 0 2.556.865 3.715 3.715 0 0 0 2.9-1.243l.725.834a5.033 5.033 0 0 1-7.708-.54 5.018 5.018 0 0 1-.945-2.735 4.566 4.566 0 0 1 4.728-4.817 4.522 4.522 0 0 1 4.587 4.817c-.126.111-.142.315-.142.394Zm-7.88-.96h6.729a3.371 3.371 0 0 0-5.666-2.232 3.362 3.362 0 0 0-1.063 2.232Z"/><path fill="#fff" d="M347.681 165.838a5.472 5.472 0 0 1-5.689-5.574c-.04-.728.07-1.457.322-2.141a5.376 5.376 0 0 1 10.089 0c.251.684.361 1.413.321 2.141v1.134h-7.769a2.79 2.79 0 0 0 2.821 1.81 2.992 2.992 0 0 0 2.332-.991l.568-.646 1.702 1.952-.41.504a5.412 5.412 0 0 1-4.287 1.811Zm-2.758-6.833h4.949a2.52 2.52 0 0 0-2.443-1.574 2.486 2.486 0 0 0-2.506 1.574Z"/><path fill="#000" d="M359.549 164.421a3.014 3.014 0 0 1-2.002.661 2.518 2.518 0 0 1-2.049-.712 2.51 2.51 0 0 1-.725-2.043v-5.731h-1.749v-1.07h1.702v-2.078h1.277v2.078h2.884v1.07h-2.884v5.668a1.574 1.574 0 0 0 1.576 1.716 2.166 2.166 0 0 0 1.402-.472l.568.913Z"/><path fill="#fff" d="M357.547 165.838a3.275 3.275 0 0 1-2.58-.938 3.251 3.251 0 0 1-.95-2.573v-4.896h-1.702v-2.582h1.702v-2.141h2.789v2.078h2.884v2.645h-2.884v4.912c0 .802.347.976.883.976.326.012.645-.094.898-.299l.741-.662 1.15 2.315-.425.393a3.846 3.846 0 0 1-2.506.772ZM487.961 153.7h-15.555a1.58 1.58 0 0 1-1.874-.794 1.576 1.576 0 0 1 1.874-2.213h15.555a1.566 1.566 0 0 1 1.402.236 1.567 1.567 0 0 1 .642 1.267 1.579 1.579 0 0 1-2.044 1.504Zm0 15.003h-15.555a1.592 1.592 0 0 1-.735.06 1.585 1.585 0 0 1-1.161-.84 1.578 1.578 0 0 1 .48-1.991 1.572 1.572 0 0 1 1.416-.22h15.555a1.567 1.567 0 0 1 1.416.22 1.577 1.577 0 0 1 .652 1.275 1.578 1.578 0 0 1-1.333 1.556 1.593 1.593 0 0 1-.735-.06Zm0-7.494h-15.555a1.58 1.58 0 0 1-1.874-.793 1.579 1.579 0 0 1 .472-1.978 1.58 1.58 0 0 1 1.402-.236h15.555a1.58 1.58 0 0 1 1.874.793 1.57 1.57 0 0 1-1.145 2.263 1.58 1.58 0 0 1-.729-.049Z"/><path fill="#000" d="M372.803 287.894h-66.35a3.773 3.773 0 0 1-3.7-2.259 3.775 3.775 0 0 1 0-2.992 3.767 3.767 0 0 1 3.7-2.259h66.35a3.764 3.764 0 0 1 2.504 6.328 3.769 3.769 0 0 1-2.504 1.182Zm28.557 21.017h-94.907a3.773 3.773 0 0 1-3.7-2.259 3.775 3.775 0 0 1 0-2.992 3.767 3.767 0 0 1 3.7-2.259h94.907a3.769 3.769 0 0 1 3.523 3.755 3.76 3.76 0 0 1-3.523 3.755Zm82.661 0h-25.768a3.77 3.77 0 0 1-2.504-1.182 3.757 3.757 0 0 1 0-5.146 3.766 3.766 0 0 1 2.504-1.182h25.768a3.772 3.772 0 0 1 3.7 2.259 3.754 3.754 0 0 1 0 2.992 3.767 3.767 0 0 1-3.7 2.259Zm-133.755 15.018h-43.813a3.766 3.766 0 0 1-4.01-3.754 3.757 3.757 0 0 1 2.496-3.542c.485-.174 1-.246 1.514-.213h43.813a3.769 3.769 0 0 1 3.523 3.755 3.762 3.762 0 0 1-3.523 3.754Zm133.755 0h-36.248a3.762 3.762 0 0 1 0-7.509h36.248a3.772 3.772 0 0 1 3.7 2.259 3.754 3.754 0 0 1 0 2.992 3.778 3.778 0 0 1-2.185 2.046 3.771 3.771 0 0 1-1.515.212Zm-91.597 15.004h-85.892a3.75 3.75 0 0 1-3.751-3.747c0-.994.395-1.947 1.099-2.65a3.754 3.754 0 0 1 2.652-1.097h85.892c.995 0 1.949.395 2.652 1.097a3.744 3.744 0 0 1 0 5.299 3.75 3.75 0 0 1-2.652 1.098Zm91.597 0h-21.26a3.75 3.75 0 0 1-3.751-3.747c0-.994.395-1.947 1.099-2.65a3.754 3.754 0 0 1 2.652-1.097h21.26c.995 0 1.949.395 2.652 1.097a3.744 3.744 0 0 1 0 5.299 3.75 3.75 0 0 1-2.652 1.098Z" opacity=".3"/><path fill="#000" d="M464.542 450.362c0 2.676-1.955 4.298-5.154 4.298h-3.404v3.983h-1.324v-12.594h4.728c3.199-.016 5.154 1.605 5.154 4.313Zm-1.34 0c0-2.015-1.324-3.148-3.861-3.148h-3.357v6.297h3.357c2.537-.016 3.861-1.165 3.861-3.149Z"/><path fill="#fff" d="M456.74 459.399h-2.852V445.23h5.484c3.641 0 5.91 1.936 5.91 5.069s-2.269 5.054-5.91 5.054h-2.647l.015 4.046Zm0-6.66h2.601c2.064 0 3.152-.803 3.152-2.377 0-1.574-1.056-2.424-3.152-2.424h-2.601v4.801Z"/><path fill="#000" d="M474.707 455.274h-7.029l-1.576 3.369h-1.387l5.768-12.595h1.324l5.768 12.595h-1.402l-1.466-3.369Zm-.489-1.071-2.994-6.785-3.042 6.785h6.036Z"/><path fill="#fff" d="M478.789 459.399h-3.058l-1.576-3.369h-6.067l-1.576 3.369h-3.042l6.462-14.169h2.285l6.572 14.169Zm-9.456-5.951h3.735l-1.844-4.188-1.891 4.188Z"/><path fill="#000" d="M483.296 454.282v4.361h-1.308v-4.361l-5.059-8.249h1.434l4.318 7.084 4.334-7.084h1.34l-5.059 8.249Z"/><path fill="#fff" d="M484.053 459.399h-2.821v-4.896l-5.643-9.21h3.2l3.892 6.376 3.909-6.376h3.105l-5.642 9.21v4.896Zm-157.6 1.275H309.81a.804.804 0 0 1-.788-.63l-3.814-15.979a.786.786 0 0 1 .788-.992h24.271a.786.786 0 0 1 .63.299.81.81 0 0 1 .158.693l-3.814 15.979a.81.81 0 0 1-.788.63Zm-15.997-1.575h15.35l3.42-14.341h-22.19l3.42 14.341Z"/><path fill="#fff" d="M318.131 460.674a.818.818 0 0 1-.819-.819v-15.9a.82.82 0 0 1 1.576 0v15.9a.819.819 0 0 1-.757.819Zm4.508-.032h-.095a.818.818 0 0 1-.725-.897l1.876-15.948a.821.821 0 0 1 .861-.516.82.82 0 0 1 .715.705l-1.876 15.948a.818.818 0 0 1-.756.708Zm-9.015 0a.82.82 0 0 1-.804-.724l-1.875-15.963a.815.815 0 0 1 .166-.597.797.797 0 0 1 .543-.301.817.817 0 0 1 .914.709l1.875 15.932a.814.814 0 0 1-.724.897l-.095.047Z"/><path fill="#fff" d="M328.974 450.126H307.32a.82.82 0 0 1-.429-1.28.82.82 0 0 1 .429-.294h21.686a.82.82 0 0 1 .429 1.28.82.82 0 0 1-.429.294h-.032Zm-1.324 5.526h-19.038a.816.816 0 0 1-.819-.819.818.818 0 0 1 .819-.818h19.038a.832.832 0 0 1 .82.818.816.816 0 0 1-.82.819Zm-17.178 10.831a2.695 2.695 0 0 1-1.906-4.596 2.694 2.694 0 0 1 4.601 1.904 2.708 2.708 0 0 1-2.695 2.692Zm0-3.747a1.057 1.057 0 0 0-.747 1.801 1.057 1.057 0 0 0 1.494-1.492 1.057 1.057 0 0 0-.747-.309Zm15.256 3.747a2.7 2.7 0 0 1-2.49-1.662 2.688 2.688 0 0 1 .584-2.934 2.694 2.694 0 0 1 4.601 1.904 2.708 2.708 0 0 1-2.695 2.692Zm0-3.747a1.071 1.071 0 0 0-1.072 1.055 1.084 1.084 0 0 0 1.072 1.07c.281-.004.55-.118.747-.319.198-.2.309-.47.309-.751a1.055 1.055 0 0 0-1.056-1.055Zm-19.732-18.041a.804.804 0 0 1-.268 0l-3.877-1.339a.793.793 0 0 1-.473-.412.798.798 0 0 1-.031-.627.819.819 0 0 1 1.04-.503l3.877 1.338a.833.833 0 0 1 .504 1.039.786.786 0 0 1-.772.504Z"/><path fill="#256FF2" d="M417.972 259.21c12.555-12.542 12.555-32.877 0-45.419-12.556-12.542-32.912-12.542-45.468 0-12.555 12.542-12.555 32.877 0 45.419 12.556 12.542 32.912 12.542 45.468 0Z"/><path fill="#fff" d="M401.202 244.521a8.054 8.054 0 0 1-7.733-5.977 8.04 8.04 0 0 1-.147-3.468 8.341 8.341 0 0 1 3.003-4.786 8.358 8.358 0 0 1 5.366-1.779h8.888c.051 0 .099-.02.134-.056a.185.185 0 0 0 .056-.133v-4.723a2.015 2.015 0 0 0-2.018-2.015h-28.935c-.264 0-.526.052-.77.153a2.014 2.014 0 0 0-1.084 1.092 2.01 2.01 0 0 0-.148.77v25.913a2.016 2.016 0 0 0 2.002 2.015h28.841a2.016 2.016 0 0 0 2.017-2.015v-4.723a.211.211 0 0 0-.059-.13.211.211 0 0 0-.13-.059l-9.283-.079Z"/><path fill="#fff" d="M410.595 231.061h-9.456a5.457 5.457 0 0 0-5.038 3.363 5.442 5.442 0 0 0 2.951 7.117 5.475 5.475 0 0 0 2.087.414h9.456a2.02 2.02 0 0 0 2.018-2.015v-6.943a2 2 0 0 0-2.018-1.936Zm-9.062 7.478a2.049 2.049 0 0 1-2.008-2.452 2.047 2.047 0 0 1 3.719-.72c.224.339.341.736.338 1.141a2.031 2.031 0 0 1-2.049 2.031Z"/><path fill="#fff" d="M303.664 118.797h2.899v-3.857h-2.899v3.857Zm-4.744 0h2.9v-5.148h-2.9v5.148Zm-4.728 0h2.9v-6.439h-2.9v6.439Zm-4.728 0h2.9v-7.73h-2.9v7.73Zm196.653-5.274h-1.718v3.857h1.718v-3.857Zm1.182 5.274h13.711v-6.691h-13.711v6.691Z" opacity=".6"/><path fill="#fff" d="M500.553 101.81c-20.787 57.526-88.413 215.507-222.799 279.944V107.053a4.973 4.973 0 0 1 1.296-3.563 4.986 4.986 0 0 1 3.432-1.617h55.775a3.937 3.937 0 0 1 3.609 2.519l2.301 5.668a3.886 3.886 0 0 0 3.577 2.471h95.112a3.893 3.893 0 0 0 3.593-2.44l2.301-5.699a3.961 3.961 0 0 1 3.593-2.519l48.21-.063Zm12.167 206.754v220.561a6.182 6.182 0 0 1-3.903 5.733 6.188 6.188 0 0 1-2.401.438H283.365a5.53 5.53 0 0 1-5.611-5.652v-100.33c62.079-81.628 168.758-110.548 234.966-120.75Z" opacity=".1"/><path fill="#256FF2" d="M629.407 53.038h-45.278a13.942 13.942 0 0 0-9.857 4.082 13.911 13.911 0 0 0-4.075 9.851v39.358a13.905 13.905 0 0 0 4.075 9.851 13.931 13.931 0 0 0 9.857 4.081h13.175l-11.032 21.867 20.488-21.867h22.679c3.699 0 7.247-1.468 9.862-4.08a13.924 13.924 0 0 0 4.085-9.852V66.971a13.917 13.917 0 0 0-4.096-9.863 13.942 13.942 0 0 0-9.883-4.07Z"/><path fill="#fff" d="M629.407 53.038h-45.278a13.942 13.942 0 0 0-9.857 4.082 13.911 13.911 0 0 0-4.075 9.851v39.358a13.905 13.905 0 0 0 4.075 9.851 13.931 13.931 0 0 0 9.857 4.081h13.175l-11.032 21.867 20.488-21.867h22.679c3.699 0 7.247-1.468 9.862-4.08a13.924 13.924 0 0 0 4.085-9.852V66.971a13.917 13.917 0 0 0-4.096-9.863 13.942 13.942 0 0 0-9.883-4.07Z" opacity=".7"/><path fill="#fff" d="M604.412 96.505a2.063 2.063 0 0 1-1.576-.724l-8.81-10.375a2.075 2.075 0 0 1-.486-1.505 2.064 2.064 0 0 1 1.427-1.8 2.072 2.072 0 0 1 2.211.629l7.25 8.533 11.961-14.17a2.07 2.07 0 0 1 3.638 1.172 2.063 2.063 0 0 1-.486 1.505l-13.537 15.932a2.092 2.092 0 0 1-1.592.803Z"/><path fill="#256FF2" d="M622.661 102.351c8.777-8.767 8.777-22.982 0-31.749-8.776-8.767-23.006-8.767-31.782 0-8.777 8.767-8.777 22.982 0 31.749 8.776 8.767 23.006 8.767 31.782 0Z"/><path fill="#EBC0BB" d="M572.813 197.056c5.043 11.461 10.717 25.189 17.005 35.013a4.29 4.29 0 0 0-1.97-.646c-1.45 0-1.576.472-1.355.331 2.427-1.575 4.302-4.393 6.304-7.211a183.63 183.63 0 0 0 9.613-16.12 3.811 3.811 0 0 1 4.879-1.713 3.81 3.81 0 0 1 2.103 4.719 146.604 146.604 0 0 1-7.88 18.325c-3.152 6.172-9.882 17.648-18.581 12.186-4.476-3.401-6.982-8.344-9.834-12.595-5.17-8.454-9.803-17.034-14.279-25.866-4.397-9.446 9.456-15.963 13.932-6.423h.063Z"/><path fill="#263238" d="M568.353 191.877c6.871.425 18.36 22.04 18.36 22.04l-21.055 15.585s-3.751-31.895-3.751-31.942c0-.047 6.446-5.683 6.446-5.683Z"/><path fill="#fff" d="m586.713 213.964-10.48 7.761-7.297 5.369-3.31 2.456s-2.269-19.27-3.262-27.866a991.435 991.435 0 0 1-.489-4.077c0-.016 6.446-5.715 6.446-5.715 5.674.347 14.515 15.208 17.415 20.356.631 1.071.977 1.716.977 1.716Z" opacity=".7"/><path fill="#263238" d="m586.698 211.666 2.962 3.369-19.227 14.515-3.309-5.573 19.574-12.311Z"/><path fill="#fff" d="m589.645 215.035-12.734 9.619-6.478 4.896-1.465-2.456-1.844-3.117 8.116-5.117 10.528-6.612.93-.582 2.947 3.369Z" opacity=".8"/><path fill="#263238" d="M589.692 207.069a1.026 1.026 0 0 0 .141.855 1.045 1.045 0 0 0 .741.451l11.6 1.575a1.339 1.339 0 0 0 1.465-.992l5.737-22.481a1.184 1.184 0 0 0-.121-.923 1.189 1.189 0 0 0-.746-.557l-11.599-1.574a1.572 1.572 0 0 0-1.481 1.149l-5.737 22.497Z"/><path fill="#fff" d="M596.737 184.603 591 207.305a.882.882 0 0 0 .757 1.228l9.834 1.338c.662.094 1.907-.11 2.08-.74l5.8-22.796c.173-.645-.883-1.307-1.576-1.401l-9.834-1.354a1.2 1.2 0 0 0-1.324 1.023Z" opacity=".5"/><path fill="#EEC1BB" d="m609.707 210.674-1.45-13.067-8.494 9.855s-1.829 8.438 5.847 7.872l4.097-4.66Z"/><path fill="#EEC1BB" d="m599.999 195.151-2.805 9.603 2.569 2.708 8.494-9.855-8.258-2.456Z"/><path fill="#000" d="m580.488 221.977-9.976 7.573-1.466-2.456-3.309 2.456s-2.27-19.27-3.263-27.866c1.829 1.528 16.202 3.7 18.014 20.293Z" opacity=".1"/><path fill="#EEC1BB" d="m522.917 429.597 4.224 8.06s3.624-1.92 9.377-5.069a360.914 360.914 0 0 0 5.437-2.991 1844.318 1844.318 0 0 0 18.912-10.532l4.523-2.598c23.971-13.712 43.624-26.873 43.624-34.068 0-12.059-8.747-34.997-21.103-57.95a2519.384 2519.384 0 0 0-15.129-27.676l-29.346 17.947s9.992 13.35 20.236 28.054c11.946 17.144 24.223 36.099 21.418 37.988-2.143 1.433-13.065 9.965-25.137 19.506l-2.191 1.716c-6.509 5.148-13.238 10.469-19.038 15.081l-4.728 3.7-11.079 8.832Z"/><path fill="#000" d="M543.421 314.72s9.991 13.35 20.235 28.054l24.192-18.325c-8.258-15.334-15.13-27.676-15.13-27.676l-29.297 17.947Zm-9.393 106.045 2.49 11.823c7.218-3.936 17.777-9.761 28.856-16.121a1410.07 1410.07 0 0 0-5.437-16.199c-9.015 7.1-18.691 14.782-25.909 20.497Z" opacity=".2"/><path fill="#EEC1BB" d="m509.978 329.628 5.658 17.223 1.15 3.543 8.621 26.212.977 3.007 5.705 17.317 6.619 20.151 3.058 9.32c0 1.055.11 2.125.189 3.149 2.9 44.521 26.114 102.707 26.114 102.707l8.29-2.251c-2.947-34.965-9.235-75.724-15.508-110.988-1.04-5.857-2.064-11.572-3.152-17.082-.583-3.148-1.15-6.124-1.702-9.068-1.198-6.297-2.332-12.185-3.451-17.695-.52-2.613-1.025-5.116-1.498-7.557a1604.552 1604.552 0 0 0-3.293-15.963c-.977-4.597-1.75-8.391-2.38-11.304-.914-4.234-1.419-6.596-1.419-6.596l-33.978-4.125Z"/><path fill="#263238" d="M532.909 420.954c1.071 0 .425 13.224.425 13.224s-8.148 8.25-9.881 16.168c-1.734 7.919-6.541 3.574-6.683-5.242-.141-8.816-.236-15.539-.331-21.804-.094-6.266 5.312-2.44 16.47-2.346Z"/><path fill="#256FF2" d="M530.056 441.184c.21-1.913.743-3.776 1.576-5.51l.095-.11h.078a.312.312 0 0 1 .268 0c.126 0 3.231 1.102 4.003 2.881a2.033 2.033 0 0 1 0 1.716c-.268.598-.646.897-1.087.881-.694 0-1.403-.96-2.002-2.031.188.994.09 2.02-.283 2.96a1.39 1.39 0 0 1-.883.724 1.227 1.227 0 0 1-1.402-.299 1.808 1.808 0 0 1-.363-1.212Zm1.844-4.298c-.804 1.952-1.497 4.392-.977 5.006 0 0 .189.205.709.079a.835.835 0 0 0 .457-.394 8.786 8.786 0 0 0-.189-4.691Zm3.672 2.298a1.247 1.247 0 0 0-.126-.519 5.787 5.787 0 0 0-2.868-2.236c.772 1.953 1.828 3.826 2.427 3.857.173 0 .346-.299.425-.488.086-.177.134-.37.142-.566v-.048Z"/><path fill="#263238" d="M565.784 528.558c0-1.071 13.238-.236 13.238-.236s8.133 8.265 16.028 10.123c7.896 1.857 3.483 6.58-5.342 6.58h-21.907c-6.272 0-2.364-5.337-2.017-16.467Z"/><path fill="#256FF2" d="M585.894 531.707a16.562 16.562 0 0 1-5.469-1.669l-.126-.095v-.078a.398.398 0 0 1 0-.268c0-.126 1.166-3.149 2.963-3.952a2.03 2.03 0 0 1 1.702 0c.599.284.898.662.867 1.102 0 .693-.977 1.402-2.049 1.968a5.345 5.345 0 0 1 2.963.331 1.4 1.4 0 0 1 .709.882 1.287 1.287 0 0 1-.331 1.416 1.832 1.832 0 0 1-1.229.363Zm-4.271-1.905c1.954.834 4.381 1.574 4.996 1.054 0 0 .22-.189.094-.708a.696.696 0 0 0-.378-.457c-.961-.551-3.215-.204-4.712.111Zm2.38-3.621a1.25 1.25 0 0 0-.536.11 5.772 5.772 0 0 0-2.27 2.834c1.955-.74 3.846-1.779 3.877-2.362 0-.189-.283-.362-.473-.441a1.457 1.457 0 0 0-.598-.141Z"/><path fill="#fff" d="m556.328 339.169 1.923 1.794 28.525-19.332-3.656-8.785a28.534 28.534 0 0 1-1.34 9.131c-1.591 3.668-20.488 14.389-25.452 17.192Z" opacity=".7"/><path fill="#000" d="m509.978 329.628 5.658 17.223c15.586 3.7 25.673 4.896 32.166 4.849a1232.4 1232.4 0 0 0-2.38-11.303c-.914-4.235-1.418-6.597-1.418-6.597l-34.026-4.172Z" opacity=".2"/><path fill="#256FF2" d="m586.698 321.647-28.542 19.332-1.828-1.794-6.477-6.109v15.287l-39.4-7.053c-5.973-26.417-5.217-45.986-2.632-59.43a72.865 72.865 0 0 1 6.383-19.506l.504-4.991 53.3 5.526.52 3.48 2.569 17.207 11.994 29.282 3.609 8.769Z"/><path fill="#000" d="M549.772 333.076v-17.002s7.612 12.72 6.477 23.095l-6.477-6.093Z" opacity=".2"/><path fill="#256FF2" d="m554.957 339.169 30.448-22.072 2.585 4.235-30.653 21.442-2.38-3.605Z"/><path fill="#fff" d="m554.957 339.169 30.448-22.072 2.585 4.235-30.653 21.442-2.38-3.605Z" opacity=".7"/><path fill="#256FF2" d="m508.717 337.846 41.859 7.384v4.109l-40.598-6.565-1.261-4.928Z"/><path fill="#fff" d="m508.717 337.846 41.859 7.384v4.109l-40.598-6.565-1.261-4.928Z" opacity=".7"/><path fill="#000" d="M525.438 263.822s-3.924 14.421-17.682 18.058a72.83 72.83 0 0 1 6.383-19.506l11.299 1.448Zm45.657 19.742c-5.09-4.912-6.556-17.207-6.556-17.207h3.987l2.569 17.207Zm-19.668-18.073a1.67 1.67 0 1 1-2.852-1.18 1.67 1.67 0 0 1 2.852 1.18Z" opacity=".2"/><path fill="#263238" d="M515.257 259.257c-12.324-2.802-.157-2.629-4.16-58.249a24.76 24.76 0 0 1 .662-8.392 9.557 9.557 0 0 1 3.907-5.285 9.576 9.576 0 0 1 6.4-1.516c2.143.237 4.05.457 4.476.473 1.15 0 2.332.078 3.514.157a167.257 167.257 0 0 1 23.94 2.708c1.954.394 3.955.866 5.91 1.322.63.158 7.88 1.276 8.447 1.433 0 0 8.29 12.862 7.533 22.182-.425 5.195-2.19 9.021-2.332 21.489-.315 28.338 5.61 27.472-6.698 28.338l-51.599-4.66Z"/><path fill="#fff" d="M573.554 235.548c-.315 28.337 5.61 27.487-6.698 28.337l-51.598-4.581c-10.15-2.283-3.688-2.582-3.342-33.753 0-5.353 0-11.603-.441-18.892-.11-1.794-.236-3.668-.378-5.589a24.61 24.61 0 0 1 .662-8.375 9.545 9.545 0 0 1 10.307-6.817c2.143.237 4.05.457 4.476.457 1.134 0 2.332.094 3.514.173a172.16 172.16 0 0 1 23.94 2.692c1.954.425 3.94.866 5.925 1.338.631.158 7.88 1.276 8.432 1.449 0 0 8.29 12.846 7.549 22.15-.441 5.117-2.238 8.942-2.348 21.411Z" opacity=".7"/><path fill="#000" d="M541.309 224.764s-10.938 11.854-29.393.724c0-5.353 0-11.603-.441-18.892a103.844 103.844 0 0 1 22.064-5.258l7.77 23.426Z" opacity=".1"/><path fill="#EEC1BB" d="m564.949 199.937 11.489-6.533 4.05 10.815s-7.391 5.699-13.979 1.732l-1.56-6.014Z"/><path fill="#EEC1BB" d="m585.846 193.152 1.072 8.784-6.43 2.315-4.05-10.816 9.408-.283Z"/><path fill="#EBC0BB" d="M527.046 194.38a128.665 128.665 0 0 0 14.326 34.634l.331.551a4.75 4.75 0 0 0-1.261-1.259 4.512 4.512 0 0 0-4.003-.708c4.949-2.598 8.857-7.258 12.986-11.241 4.901-5.085 9.819-10.406 14.657-15.743a3.83 3.83 0 0 1 6.499 1.807c.204.903.073 1.85-.368 2.664a164.336 164.336 0 0 1-19.259 27.424 31.148 31.148 0 0 1-9.362 7.604 9.099 9.099 0 0 1-11.804-3.479 104.263 104.263 0 0 1-17.824-39.594c-1.576-10.123 12.97-12.815 15.082-2.771v.111Z"/><path fill="#263238" d="M520.837 185.768c-8.353-.992-13.46 8.722-10.828 31.03h26.115s-1.545-29.455-15.287-31.03Z"/><path fill="#fff" d="M520.837 185.768c-8.353-.992-13.46 8.722-10.828 31.03h26.115s-1.545-29.455-15.287-31.03Z" opacity=".7"/><path fill="#263238" d="m508.686 211.666 28.32 3.369.095 3.809h-27.785l-.63-7.178Z"/><path fill="#fff" d="m508.686 211.666 28.32 3.369.095 3.809h-27.785l-.63-7.178Z" opacity=".8"/><path fill="#263238" d="M541.971 122.103s6.004-4.329 16.154-1.007c10.149 3.321 20.693 14.247 16.043 29.912-4.649 15.664-4.066 25.661-4.066 25.661s-34.892-5.778-42.347-12.595c-7.454-6.816-6.272-46.001 14.216-41.971Z"/><path fill="#EEC1BB" d="M534.768 159.666c1.214 7.872 2.191 22.324-3.404 26.905a214.368 214.368 0 0 0 21.844 11.02c5.216-5.919 2.111-8.344 2.111-8.344-8.51-3.038-8.053-9.445-6.304-15.286l-14.247-14.295Z"/><path fill="#000" d="m540.568 165.507 8.416 8.454a24.63 24.63 0 0 0-.898 4.203c-3.263-.85-7.628-4.99-7.88-8.485a11.404 11.404 0 0 1 .362-4.172Z" opacity=".2"/><path fill="#EEC1BB" d="M536.47 139.499c-2.521 12.469-3.861 17.696.505 25.929 6.556 12.406 22.064 13.523 28.147 2.251 5.5-10.154 8.715-28.857-1.686-37.531a16.34 16.34 0 0 0-23.319 1.592 16.31 16.31 0 0 0-3.647 7.759Z"/><path fill="#263238" d="M550.497 147.45c-.252 1.039 0 2.046.709 2.251.709.205 1.387-.457 1.576-1.574.189-1.118 0-2.047-.709-2.267-.709-.221-1.308.551-1.576 1.59Zm12.734 3.683c-.252 1.04 0 2.047.709 2.267.709.221 1.371-.472 1.576-1.574.205-1.102 0-2.046-.709-2.251-.709-.205-1.324.504-1.576 1.558Z"/><path fill="#263238" d="M564.571 149.559h2.553s-1.702 1.574-2.553 0Z"/><path fill="#D4827D" d="M558.818 152.157a31.073 31.073 0 0 0 1.891 7.761 4.215 4.215 0 0 1-3.703-.441l1.812-7.32Z"/><path fill="#263238" d="M550.355 161.477c.505.269 1.033.495 1.576.677a.29.29 0 0 0 .117.018.27.27 0 0 0 .245-.223.316.316 0 0 0-.204-.394 8.93 8.93 0 0 1-5.611-5.274.307.307 0 0 0-.141-.192.301.301 0 0 0-.237-.028.312.312 0 0 0-.189.394 9.323 9.323 0 0 0 4.444 5.022Zm-.095-21.128a.555.555 0 0 0 .473 0 4.576 4.576 0 0 1 4.334.079.57.57 0 0 0 .82-.189.659.659 0 0 0-.221-.881 5.73 5.73 0 0 0-5.484-.174.647.647 0 0 0-.252.851.611.611 0 0 0 .33.314Zm19.842 5.605a.545.545 0 0 0 .442 0 .606.606 0 0 0 .362-.301.592.592 0 0 0 .032-.47 6.486 6.486 0 0 0-3.72-4.44.57.57 0 0 0-.457.033.57.57 0 0 0-.284.361.666.666 0 0 0 .41.803 5.267 5.267 0 0 1 2.9 3.557.654.654 0 0 0 .315.457Zm-18.266-.047h2.569s-1.718 1.606-2.569 0Z"/><path fill="#263238" d="M539.37 148.678s9.204-5.636 10.323-19.553c0 0 15.35-.488 20.74 13.098 0 0-1.923-19.537-23.829-20.356-21.906-.819-15.87 23.237-14.184 25.74s6.95 1.071 6.95 1.071Z"/><path fill="#EEC1BB" d="M529.835 148.3a10.155 10.155 0 0 0 4.524 6.297c2.978 1.763 5.295-1.008 5.153-4.55-.11-3.148-1.797-7.966-5.122-8.265-3.325-.299-5.343 3.18-4.555 6.518Z"/></svg>