<svg xmlns="http://www.w3.org/2000/svg" width="1800" height="964" fill="none"><path fill="#fff" d="M0 0h1800v964H0z"/><g clip-path="url(#a)"><path fill="#F5F8FF" d="M510.395 925.564c-50.087 0-261.972-169.427-185.522-331.445 66.564-141.107 210.401 64.544 166.41-223.597-18.453-120.855 118.464-254.388 253.734-175.849 76.449 44.456 209.248 78.869 252.745-7.738C1092.34-.604 1366.83 10.263 1447.73 204.223c86.66 207.791-104.96 191.82-32.63 299.667 41.36 61.744 68.87 57.793 111.71 157.572C1576.9 778.2 1515.12 927.21 1398.3 927.21l-887.905-1.646z"/><path fill="#E1ECFA" fill-rule="evenodd" d="m765.777 529.736-4.119 11.69c-1.977 5.434-7.909 8.233-13.346 6.257l-8.567-2.964c-4.12-1.646-9.062-.164-11.699 3.458a75.188 75.188 0 0 1-12.027 13.007c-3.46 3.129-4.449 8.068-2.472 12.185l4.284 9.055c2.472 5.105.33 11.361-4.943 13.831l-11.039 5.269c-5.272 2.47-11.368.329-13.84-4.939l-4.613-9.55c-1.977-4.117-6.261-6.586-10.874-6.092-6.097.988-12.358.988-18.619.494-4.613-.494-8.897 2.469-10.544 6.915l-2.637 7.409c-1.977 5.434-7.908 8.233-13.345 6.422l-11.534-4.117c-5.437-1.975-8.238-7.903-6.425-13.336l3.46-9.715c1.483-4.281.164-8.891-3.46-11.69-4.778-3.952-9.062-8.397-12.852-13.172-2.636-3.458-7.085-4.94-11.368-3.623l-10.71 3.293c-5.602 1.647-11.369-1.481-13.016-7.08l-3.625-11.69c-1.648-5.598 1.483-11.361 6.92-13.007l7.085-2.141c4.613-1.317 7.579-5.763 7.249-10.538a105.673 105.673 0 0 1-.164-10.208c.329-4.61-2.637-8.727-6.92-10.209l-8.403-2.963c-5.437-1.976-8.238-7.904-6.261-13.337l4.119-11.526c1.812-5.433 7.908-8.232 13.181-6.421l8.567 3.128c4.284 1.482 9.062.165 11.699-3.457 2.746-3.733 5.711-7.135 8.897-10.209 3.46-3.293 4.119-8.562 1.647-12.678l-5.437-9.221c-2.966-4.939-1.318-11.361 3.625-14.324l10.545-6.257c4.943-2.964 11.368-1.317 14.334 3.622l6.92 11.855c2.307 3.787 6.755 5.763 11.204 4.94a76.31 76.31 0 0 1 14.993-1.482c4.614 0 8.568-2.635 10.051-6.916l3.46-9.549c1.977-5.434 7.908-8.233 13.345-6.422l11.699 4.117c5.272 1.975 8.238 7.903 6.261 13.336l-2.637 7.574c-1.647 4.281-.164 9.386 3.79 12.02a71.926 71.926 0 0 1 14.169 12.184c3.131 3.293 8.239 4.116 12.358 2.141l9.391-4.446c5.108-2.47 11.369-.329 13.84 4.775l5.272 11.196c2.472 5.269.33 11.361-4.942 13.831l-8.898 4.281c-4.119 1.976-6.59 6.421-5.766 10.867a80.59 80.59 0 0 1 .988 17.782c-.164 4.446 2.637 8.562 6.92 10.044l8.568 2.964c5.272 1.976 8.238 7.903 6.261 13.337zm-88.972-73.764c-23.561-8.398-49.428 3.951-57.831 27.497-8.403 23.38 3.954 49.231 27.515 57.628 23.561 8.397 49.429-3.952 57.667-27.332 8.403-23.546-3.79-49.396-27.351-57.793z" clip-rule="evenodd"/><path fill="#E1ECFA" d="M1431.25 59.328c0 15.148-12.35 27.497-27.51 27.497-15.16 0-27.52-12.349-27.52-27.497s12.36-27.332 27.52-27.332 27.51 12.184 27.51 27.332zm-187.67 65.698c0 15.148-12.35 27.497-27.51 27.497-15.16 0-27.35-12.349-27.35-27.497s12.19-27.497 27.35-27.497c15.16 0 27.51 12.349 27.51 27.497z"/><path stroke="#E1ECFA" stroke-miterlimit="10" stroke-width="16.474" d="m1403.74 61.797-182.56 59.11-209.41 132.709"/><path fill="#E1ECFA" d="M1443.28 927.211h-74.97c-15.16 0-27.51-12.514-27.51-27.662V165.366c0-15.148 12.35-27.497 27.51-27.497h74.97c15.32 0 27.68 12.349 27.68 27.497v734.183c0 15.148-12.36 27.662-27.68 27.662zm-178.43 3.788h-74.97c-15.32 0-27.68-12.349-27.68-27.497V284.081c0-15.148 12.36-27.497 27.68-27.497h74.97c15.16 0 27.52 12.349 27.52 27.497v619.421c0 15.148-12.36 27.497-27.52 27.497zm-173.83-2.142h-74.8c-15.33 0-27.685-12.349-27.685-27.662V391.597c0-15.313 12.355-27.661 27.685-27.661h74.8c15.32 0 27.68 12.348 27.68 27.661v509.598c0 15.313-12.36 27.662-27.68 27.662z"/><path fill="#A8C5FA" d="M875.5 430.458c-125.384 4.445-238.411 56.64-321.781 138.801-5.437 5.434-5.272 14.325.33 19.594l201.01 186.551c4.942 4.774 12.686 4.939 17.959.494 28.998-25.192 66.563-40.34 107.26-44.127 6.92-.659 12.357-6.422 12.357-13.337V447.087c0-9.385-7.909-16.959-17.135-16.629z"/><path fill="#256FF2" d="M411.531 927.702h276.965c7.25 0 13.181-5.763 13.675-13.007 2.636-43.469 13.84-76.893 39.543-107.848 4.613-5.433 3.954-13.666-1.318-18.441l-199.033-184.41c-5.437-5.104-14.169-4.775-19.277.823-74.308 82.326-120.771 190.174-124.066 308.888-.329 7.574 5.932 13.995 13.511 13.995zM909.77 443.955v274.311c0 7.08 5.437 12.842 12.521 13.501 41.356 4.116 76.944 19.264 107.099 44.621 5.27 4.281 13.01 4.116 17.96-.659l201.01-186.551c5.76-5.268 5.93-14.324.33-19.758-84.03-82.984-198.21-135.344-324.916-138.966-7.579-.329-14.004 5.927-14.004 13.501z"/><path fill="#A8C5FA" d="M1402.41 913.541c-3.29-118.549-49.76-226.396-123.9-308.557-5.11-5.599-13.84-5.928-19.28-.824l-198.86 184.575c-5.28 4.775-5.94 12.678-1.65 18.277 26.2 33.753 35.09 60.921 40.04 108.341.65 6.915 6.42 12.184 13.51 12.184h276.63c7.58 0 13.84-6.257 13.51-13.996z"/><path fill="#BAD4EF" d="M899.722 746.254c-95.232 0-173.494 73.435-180.909 166.628-.659 7.903 5.602 14.818 13.511 14.818h334.636c7.9 0 14.17-6.915 13.51-14.818-7.42-93.193-85.515-166.628-180.748-166.628z"/><path fill="#315782" d="M919.823 831.873c-6.26-10.373-17.464-15.806-28.833-15.148L799.877 656.19a8.799 8.799 0 0 0-1.648-2.305l-73.319-84.632c-1.318-1.481-3.625-.164-2.966 1.647l41.685 103.402c.329.768.714 1.481 1.153 2.14l100.34 157.243c-4.942 9.385-4.942 20.91.989 30.625 8.897 14.819 28.174 19.594 43.168 10.702 14.828-9.056 19.442-28.32 10.544-43.139z"/><path fill="#FFBDA7" d="m1365.17 884.072.66 23.381 24.88-4.116v-19.265h-25.54z"/><path fill="#2F526E" d="M1390.71 903.339c-25.7-.329-34.1-.329-66.23 15.806-4.45 2.47-2.64 9.056 2.31 9.056l59.31-.329c8.57.494 4.61-24.533 4.61-24.533z"/><path fill="#FFBDA7" d="m1480.34 882.59.49 23.38 25.05 1.976-.17-24.039-25.37-1.317z"/><path fill="#315780" d="M1492.2 903.339c-3.13 0-13.51.658-18.94 5.927-6.92 6.916-5.94 18.771-3.13 18.771l43.99.164c2.14.165 1.48-10.208-3.46-16.959-4.45-5.927-8.08-8.068-18.46-7.903z"/><path fill="#315782" d="M1484.79 594.122c2.64 18.112 14.17 100.274 12.86 164.652v.659l14.99 128.264c.33 2.799-1.81 5.104-4.45 5.104h-29.33c-1.97 0-3.79-1.482-4.28-3.457-5.11-21.899-32.13-138.473-34.11-153.95-2.3-17.124-4.45-40.175-4.45-40.175l-18.61 75.575v.329l-20.6 119.538c-.49 2.305-2.31 3.787-4.61 3.787l-30.65-.494c-2.63 0-4.61-2.305-4.45-4.775l9.72-135.838v-.329l24.72-164.158c.33-2.47 2.31-4.117 4.78-3.952l84.35 5.433c1.98.165 3.79 1.812 4.12 3.787z"/><path stroke="#666" stroke-linecap="round" stroke-miterlimit="10" stroke-width="1.647" d="m1436.03 695.22-11.54-91.546m4.12 84.301-24.88 81.502-16.97 114.598m92.43-253.893 8.24 128.099 16.97 125.794m-92.44-273.649s4.28 30.954 16.64 30.46m27.85-37.212s4.62 20.087 18.95 37.211"/><path fill="#256FF2" d="M1482.65 528.756c-.16-1.647-1.15-15.477.5-15.642l25.53 3.622c.99-13.666-3.46-78.374-36.24-81.667-23.4-2.305-35.1-.823-53.39 0-13.18.494-25.54 7.08-33.28 17.947-9.56 13.501-21.75 32.601-25.54 47.914-5.6 22.886 19.12 32.93 26.53 35.4 1.15.494 1.98 1.482 1.98 2.799l.16 51.042c0 2.47 2.14 4.61 4.61 4.61l88.98-.988c1.64 0 2.8-1.481 2.8-2.963l-2.64-62.074z"/><path fill="#FFBDA7" d="M1421.03 426.834v10.374s2.47 14.654 18.78 14.983c16.32.494 17.63-17.289 17.63-17.289l-4.77-15.971v-17.618l6.42-26.838-66.89-23.051s-4.12 39.516 0 53.347c4.12 13.831 14.5 27.662 28.83 22.063z"/><path fill="#315782" d="M1390.54 361.798s24.88-6.915 31.8 9.714c6.92 16.63 6.59 12.843 9.4 9.715 2.96-3.293 12.85-2.305 11.69 6.421-1.31 11.032-3.79 20.417 9.23 31.284 0 0-.33-16.3 9.39-30.46 9.56-14.161 8.24-46.103-23.89-51.372-32.29-5.269-15.16-12.843-40.53-8.891s-23.73 32.272-7.09 33.589z"/><path stroke="#A8C5FA" stroke-linecap="round" stroke-miterlimit="10" stroke-width="1.647" d="m1402.74 471.787-6.92 30.131"/><path fill="#315782" d="m1324.81 476.233 66.56-4.446c1.48-.164 2.8.824 3.3 2.306l29.16 104.224c.66 1.976-.82 3.952-2.8 4.117l-66.73 3.951c-1.48.165-2.8-.823-3.3-2.305l-29.16-103.895c-.49-1.976.83-3.952 2.97-3.952z"/><path fill="#FFBDA7" d="m1479.84 502.576 1.16 17.947-64.75 1.317s-1.98-9.549-7.25-13.995c-5.28-4.61-7.58-4.116-7.91-2.47-.33 1.811 5.1 7.904 3.79 11.032-.5 7.903-25.87-12.349-27.02-7.245-2.31 1.811 2.3 6.586 2.3 6.586-2.8.165-5.43 4.775-1.97 6.586-2.81.988-2.64 6.751.32 7.41-7.08 6.586 17.47 22.063 35.92 9.879 0 0 78.27 11.361 84.53 5.927 6.09-5.433 6.42-35.4 6.42-35.4l-25.54-7.574z"/><path fill="#256FF2" d="m1472.44 457.959 3.79 54.17 32.46 4.611c1.15.164-2.97-9.385-3.3-10.538l-4.94-10.867-28.01-37.376z"/><path fill="#FFBDA7" d="M1328.44 530.236c-1.15-3.951-1.32-9.55 2.47-11.69 7.25-4.281 9.06-6.092 11.53-4.61 2.64 1.482 0 5.269 0 5.269 2.8-.165 5.94 4.116 2.64 6.256 2.97.659 3.46 6.422.66 7.41 4.12 3.128-.33 10.043-9.39 10.702-5.93.329-6.92-10.208-7.91-13.337z"/><path stroke="#A8C5FA" stroke-linecap="round" stroke-miterlimit="10" stroke-width="1.647" d="m1481.01 519.868-8.57-47.091m-72.17 113.607 75.13-1.482"/><path fill="#256FF2" d="M654.552 219.018c0 37.75-30.7 68.429-68.475 68.429-37.901 0-68.6-30.679-68.6-68.429 0-37.749 30.699-68.428 68.6-68.428 37.775 0 68.475 30.679 68.475 68.428z"/><path stroke="#256FF2" stroke-miterlimit="10" stroke-width="1.263" d="M661.878 219.019c0 41.915-33.984 75.751-75.801 75.751-41.944 0-75.929-33.836-75.929-75.751 0-41.916 33.985-75.751 75.929-75.751 41.817 0 75.801 33.835 75.801 75.751z"/><path stroke="#fff" stroke-miterlimit="10" stroke-width="2.526" d="m569.017 223.943-12.381 31.689c-.379 1.01.632 1.894 1.643 1.389l9.475-5.177c.505-.378 1.389-.126 1.516.632l3.285 10.226c.379 1.01 1.768 1.136 2.147.126l11.244-28.533c.253-.505 0-1.01-.379-1.262l-14.781-9.595c-.632-.379-1.39-.127-1.769.505zm33.981 1.386 12.381 31.69c.379 1.01-.632 2.02-1.516 1.515l-9.475-5.303c-.632-.379-1.39 0-1.643.631l-3.284 10.227c-.253 1.136-1.769 1.136-2.148.126l-11.244-28.407c-.126-.505 0-1.136.505-1.388l14.782-9.596c.505-.378 1.389-.126 1.642.505z"/><path fill="#256FF2" stroke="#fff" stroke-miterlimit="10" stroke-width="2.526" d="M619.681 206.772c0 18.559-15.034 33.583-33.605 33.583-18.572 0-33.732-15.024-33.732-33.583 0-18.559 15.16-33.71 33.732-33.71 18.571 0 33.605 15.151 33.605 33.71z"/><path fill="#fff" stroke="#256FF2" stroke-miterlimit="10" stroke-width="2.526" d="M601.871 206.771c0 8.711-7.075 15.782-15.792 15.782-8.844 0-15.919-7.071-15.919-15.782a15.847 15.847 0 0 1 15.919-15.908c8.717 0 15.792 7.07 15.792 15.908z"/><path fill="#256FF2" d="M583.049 212.583c-.632.632-1.642.505-2.021-.252l-2.401-4.798c-.379-.631-.126-1.389.506-1.641.631-.379 1.389-.126 1.642.505l1.769 3.283 8.97-8.333c.505-.505 1.263-.379 1.768.126a1.22 1.22 0 0 1 0 1.768l-10.233 9.342z"/><path stroke="#256FF2" stroke-miterlimit="10" stroke-width="1.263" d="M517.738 464.318c0 41.915-33.985 75.877-75.928 75.877-41.818 0-75.802-33.962-75.802-75.877 0-41.79 33.984-75.752 75.802-75.752 41.943 0 75.928 33.962 75.928 75.752z"/><path fill="#256FF2" d="M918.813 206.441c0 37.907-30.726 68.612-68.532 68.612s-68.531-30.705-68.531-68.612c0-37.781 30.725-68.486 68.531-68.486 37.806 0 68.532 30.705 68.532 68.486z"/><path stroke="#256FF2" stroke-miterlimit="10" stroke-width="1.264" d="M926.144 206.439c0 41.951-33.886 75.941-75.865 75.941-41.979 0-75.865-33.99-75.865-75.941 0-41.824 33.886-75.814 75.865-75.814 41.979 0 75.865 33.99 75.865 75.814z"/><path fill="#fff" d="M804.131 209.09h31.231c.253 0 .506.126.506.379 0 2.401-.633 15.289-16.185 15.289-15.173 0-16.058-12.636-16.058-15.289 0-.253.253-.379.506-.379z"/><path stroke="#fff" stroke-miterlimit="10" stroke-width="2.529" d="m804.755 208.083 14.668-28.178c.126-.126.253-.126.379 0l14.667 28.178c.253.379 0 1.011-.506 1.011h-28.702c-.506 0-.758-.632-.506-1.011z"/><path fill="#fff" d="M869.622 244.853h-38.944c-.885 0-1.391-.884-1.012-1.769l3.667-6.57a2.95 2.95 0 0 1 2.656-1.643h27.943c1.138 0 2.023.632 2.655 1.516l4.047 6.824c.379.758-.127 1.642-1.012 1.642zm-16.687-9.985h-5.564v-63.557h5.564v63.557z"/><path fill="#fff" d="M856.6 174.597c0 3.538-2.908 6.444-6.448 6.444-3.541 0-6.449-2.906-6.449-6.444s2.908-6.445 6.449-6.445c3.54 0 6.448 2.907 6.448 6.445z"/><path stroke="#fff" stroke-miterlimit="10" stroke-width="2.529" d="M819.938 179.903s18.966.379 25.541-6.065"/><path fill="#fff" d="M896.302 209.09h-30.978c-.38 0-.633.253-.633.505 0 2.78 1.012 15.163 16.185 15.163 15.047 0 16.058-12.383 16.058-15.163 0-.252-.253-.505-.632-.505z"/><path stroke="#fff" stroke-miterlimit="10" stroke-width="2.529" d="m895.671 208.084-14.162-27.42c-.252-.505-1.011-.505-1.264 0l-14.161 27.42c-.253.379 0 1.011.505 1.011h28.576c.379 0 .759-.632.506-1.011zm-14.79-27.802s-19.472 0-25.92-6.444"/><path fill="#256FF2" d="M1166.64 125.517c0 37.907-30.73 68.612-68.53 68.612-37.81 0-68.54-30.705-68.54-68.612 0-37.781 30.73-68.486 68.54-68.486 37.8 0 68.53 30.705 68.53 68.486z"/><path stroke="#256FF2" stroke-miterlimit="10" stroke-width="1.264" d="M1173.97 125.517c0 41.951-33.89 75.941-75.87 75.941-41.98 0-75.86-33.99-75.86-75.941 0-41.824 33.88-75.814 75.86-75.814s75.87 33.99 75.87 75.814z"/><path stroke="#315782" stroke-linecap="round" stroke-miterlimit="10" stroke-width="3.295" d="M265.711 928.855H1539.82"/><path fill="#256FF2" d="M510.542 464.581c0 37.875-30.573 68.555-68.474 68.555-37.775 0-68.474-30.68-68.474-68.555 0-37.749 30.699-68.429 68.474-68.429 37.901 0 68.474 30.68 68.474 68.429z"/><path fill="#fff" d="M1131.42 111.062c.06-.584.1-1.168.1-1.752 0-.583-.04-1.168-.1-1.751l3.72-3.377a2.7 2.7 0 0 0 .49-3.429l-2.89-4.694a2.708 2.708 0 0 0-3.01-1.195l-5.22 1.4a17.234 17.234 0 0 0-3.41-1.84l-1.43-4.848a2.712 2.712 0 0 0-2.6-1.941h-5.42c-1.2 0-2.26.79-2.6 1.94l-1.43 4.85a16.893 16.893 0 0 0-3.41 1.84l-5.22-1.401a2.7 2.7 0 0 0-3.01 1.195l-2.19 3.548c1.79.515 3.49 1.199 5.11 2.036l.63-1.022 4.56 1.222c.85.229 1.76.028 2.44-.537a11.866 11.866 0 0 1 4.1-2.209c.86-.269 1.54-.95 1.79-1.818l1.25-4.225h1.37l1.26 4.225c.25.868.93 1.55 1.79 1.818 1.54.48 2.92 1.224 4.1 2.209.67.565 1.58.764 2.44.537l4.56-1.222.65 1.057-3.15 2.856a2.697 2.697 0 0 0-.83 2.596c.16.721.24 1.455.24 2.18 0 .725-.08 1.46-.24 2.181-.21.951.1 1.94.83 2.595l3.15 2.857-.65 1.057-4.56-1.223a2.712 2.712 0 0 0-2.44.537 11.865 11.865 0 0 1-4.1 2.21c-.86.268-1.54.95-1.79 1.817l-1.26 4.226h-.75c.02.452.07.897.07 1.355 0 1.383-.13 2.733-.33 4.064h3.04c1.2 0 2.26-.79 2.6-1.941l1.43-4.849a17.217 17.217 0 0 0 3.41-1.84l5.22 1.401a2.71 2.71 0 0 0 3.01-1.196l2.89-4.694a2.7 2.7 0 0 0-.49-3.429l-3.72-3.376z"/><path fill="#fff" d="M1114.35 117.44c4.48 0 8.13-3.646 8.13-8.128s-3.65-8.128-8.13-8.128c-3.8 0-6.98 2.632-7.86 6.162a28.556 28.556 0 0 1 6.13 9.899 8.06 8.06 0 0 0 1.73.195zm-2.71-8.128a2.71 2.71 0 1 1 5.42 0 2.71 2.71 0 0 1-5.42 0z"/><path fill="#256FF2" d="M1085.91 109.311c-9.71 0-17.61 7.9-17.61 17.611s7.9 17.611 17.61 17.611c9.71 0 17.61-7.9 17.61-17.611s-7.9-17.611-17.61-17.611zm-1.76 25.7c.59.025 1.17.039 1.76.039.58 0 1.17-.014 1.75-.039-.56 2.113-1.26 3.451-1.75 3.958-.49-.507-1.19-1.845-1.76-3.958zm1.76-5.38c-.93 0-1.8-.034-2.62-.09a36.05 36.05 0 0 1-.09-2.619c0-.927.03-1.794.09-2.619.82-.056 1.69-.091 2.62-.091.92 0 1.79.035 2.62.091.05.825.09 1.692.09 2.619 0 .927-.04 1.794-.09 2.619-.83.056-1.7.09-2.62.09zm-8.09-.953c-2.11-.566-3.45-1.264-3.96-1.756.51-.492 1.85-1.191 3.96-1.756-.03.586-.04 1.172-.04 1.756 0 .583.01 1.17.04 1.756zm9.84-9.845c-.58-.025-1.17-.039-1.75-.039-.59 0-1.17.014-1.76.039.57-2.113 1.27-3.452 1.76-3.958.49.506 1.19 1.845 1.75 3.958zm6.34 6.333c2.11.565 3.45 1.264 3.95 1.756-.5.492-1.84 1.19-3.95 1.756.02-.586.04-1.173.04-1.756 0-.584-.02-1.17-.04-1.756zm2.03-5.035c-.86-.253-1.75-.47-2.68-.65-.18-.93-.4-1.825-.65-2.678a12.42 12.42 0 0 1 3.33 3.328zm-16.91-3.328c-.26.853-.47 1.748-.65 2.678-.93.18-1.83.397-2.68.65a12.139 12.139 0 0 1 3.33-3.328zm-3.33 16.91c.85.253 1.75.47 2.68.65.18.93.39 1.825.65 2.678a12.139 12.139 0 0 1-3.33-3.328zm16.91 3.328c.25-.853.47-1.748.65-2.678.93-.18 1.82-.397 2.68-.65a12.42 12.42 0 0 1-3.33 3.328z"/><path fill="#fff" d="M1112.21 143.974a2.706 2.706 0 0 0-3.83 0l-.8.794-1.67-1.676c3.58-4.423 5.74-10.046 5.74-16.169 0-14.193-11.55-25.739-25.74-25.739-14.2 0-25.74 11.546-25.74 25.739 0 14.193 11.54 25.74 25.74 25.74 6.12 0 11.74-2.157 16.16-5.74l1.68 1.676-.79.794a2.705 2.705 0 0 0 0 3.831l8.36 8.361a6.47 6.47 0 0 0 4.62 1.916c1.75 0 3.39-.68 4.63-1.916a6.514 6.514 0 0 0 1.91-4.625c0-1.748-.68-3.389-1.91-4.625l-8.36-8.361zm-26.3 3.27c-11.21 0-20.32-9.115-20.32-20.321 0-11.205 9.11-20.321 20.32-20.321 11.2 0 20.32 9.116 20.32 20.321 0 11.206-9.12 20.321-20.32 20.321zm30.83 10.51c-.58.571-1.02.571-1.59 0l-6.45-6.446 1.59-1.587 6.45 6.445c.28.286.32.621.32.794 0 .173-.04.508-.32.794zM457.553 439.25h-6.135a3.667 3.667 0 0 1-3.664-3.663v-6.135a.417.417 0 0 1 .714-.296l9.38 9.38a.419.419 0 0 1-.295.714z"/><path fill="#fff" d="M457.555 440.082h-6.136a4.505 4.505 0 0 1-4.496-4.497v-6.136c0-.145.022-.29.078-.424h-38.145a2.4 2.4 0 0 0-2.387 2.399v56.653a2.4 2.4 0 0 0 2.387 2.399h27.613c.067-.324.201-.636.402-.915l2.733-4.027a17.195 17.195 0 0 1-.725-1.741l-3.906-.734H411.86a.419.419 0 1 1 0-.837h20.972a2.372 2.372 0 0 1-.703-1.675v-4.102H411.86a.419.419 0 1 1 0-.836h20.269v-.351a2.39 2.39 0 0 1 1.941-2.342l4.809-.904c.212-.591.446-1.16.725-1.741l-.298-.439H411.86a.42.42 0 0 1 0-.837h26.878l-1.89-2.785c-.661-.914-.546-2.165.274-2.991H411.86a.419.419 0 1 1 0-.836h26.092l2.913-2.922a2.35 2.35 0 0 1 1.684-.703c.48 0 .949.145 1.339.413l4.039 2.766a20.757 20.757 0 0 1 1.751-.725l.865-4.607H411.86a.419.419 0 1 1 0-.837h38.95a2.384 2.384 0 0 1 2.115-1.294h5.043v-14.471a1.007 1.007 0 0 1-.413.079zm-45.695-4.154h30.766a.419.419 0 1 1 0 .837H411.86a.42.42 0 0 1 0-.837zm40.822 14.064H411.86a.419.419 0 1 1 0-.837h40.822a.419.419 0 0 1 0 .837zm0-6.614H411.86a.419.419 0 1 1 0-.836h40.822a.418.418 0 1 1 0 .836z"/><path fill="#fff" d="m476.913 473.742-4.884-.928a.68.68 0 0 1-.534-.462 16.165 16.165 0 0 0-.752-1.791.716.716 0 0 1 .056-.701l2.811-4.115a1.528 1.528 0 0 0-.183-1.951l-3.748-3.748a1.527 1.527 0 0 0-1.949-.184l-4.118 2.812a.694.694 0 0 1-.701.044 18.87 18.87 0 0 0-1.794-.742.69.69 0 0 1-.46-.541l-.926-4.887a1.54 1.54 0 0 0-1.517-1.243h-5.288a1.54 1.54 0 0 0-1.515 1.244l-.927 4.893a.7.7 0 0 1-.452.535c-.594.209-1.2.459-1.811.746a.693.693 0 0 1-.691-.049l-4.109-2.813a1.547 1.547 0 0 0-1.958.185l-3.733 3.743a1.5 1.5 0 0 0-.189 1.953l2.803 4.119a.717.717 0 0 1 .057.694 16.64 16.64 0 0 0-.756 1.8.68.68 0 0 1-.541.461l-4.874.926a1.54 1.54 0 0 0-1.257 1.515v5.29c0 .741.528 1.379 1.256 1.515l4.884.927a.68.68 0 0 1 .534.463c.215.612.461 1.199.749 1.786a.721.721 0 0 1-.054.706l-2.794 4.109a1.498 1.498 0 0 0 .177 1.956l3.738 3.75a1.553 1.553 0 0 0 1.96.183l4.102-2.809a.702.702 0 0 1 .705-.048c.597.282 1.203.53 1.801.741a.708.708 0 0 1 .454.542l.926 4.888a1.54 1.54 0 0 0 1.515 1.243h5.288a1.54 1.54 0 0 0 1.517-1.244l.927-4.893a.691.691 0 0 1 .463-.536 18.948 18.948 0 0 0 1.795-.743.697.697 0 0 1 .697.047l4.115 2.809a1.527 1.527 0 0 0 1.951-.18l3.748-3.75a1.526 1.526 0 0 0 .184-1.948l-2.813-4.119a.714.714 0 0 1-.058-.694c.293-.599.541-1.187.756-1.8a.682.682 0 0 1 .542-.46l4.874-.926a1.541 1.541 0 0 0 1.256-1.515v-5.29a1.54 1.54 0 0 0-1.255-1.515zm-21.34 13.94c-5.392 0-9.779-4.388-9.779-9.781 0-5.392 4.387-9.78 9.779-9.78s9.778 4.388 9.778 9.78c0 5.393-4.386 9.781-9.778 9.781z"/></g><defs><clipPath id="a"><path fill="#fff" d="M256 32h1288.44v899H256z"/></clipPath></defs></svg>