<svg xmlns="http://www.w3.org/2000/svg" width="710" height="469" fill="none"><mask id="a" width="50" height="49" x="71" y="0" maskUnits="userSpaceOnUse" style="mask-type:luminance"><path fill="#fff" d="M120.325 24.264c0 13.402-10.864 24.266-24.266 24.266-13.401 0-24.264-10.864-24.264-24.266C71.795 10.863 82.658 0 96.06 0c13.402 0 24.266 10.863 24.266 24.264Z"/></mask><g mask="url(#a)"><path fill="url(#b)" d="M120.325 24.264c0 13.402-10.864 24.266-24.266 24.266-13.401 0-24.264-10.864-24.264-24.266C71.795 10.863 82.658 0 96.06 0c13.402 0 24.266 10.863 24.266 24.264Z"/></g><path fill="#BED4FB" d="M66.167 160.405c0 18.271-14.812 33.084-33.083 33.084C14.812 193.489 0 178.676 0 160.405c0-18.272 14.812-33.084 33.084-33.084 18.27 0 33.083 14.812 33.083 33.084Zm519.736 179.839h123.186a.635.635 0 1 0 0-1.27H585.903a.635.635 0 0 0 0 1.27ZM379.356 43.34h123.186a.635.635 0 1 0 0-1.27H379.356a.634.634 0 1 0 0 1.27Zm215.608 147.675h-7.166v-7.166a1.894 1.894 0 0 0-3.79 0v7.166h-7.166a1.893 1.893 0 0 0 0 3.788h7.166v7.166a1.896 1.896 0 0 0 3.79 0v-7.166h7.166a1.893 1.893 0 1 0 0-3.788Zm16.395 99.958-8.285-14.35-8.286 14.35h5.621v24.023h5.33v-24.023h5.62ZM282.807 37.87l-8.286-14.35-8.285 14.35h5.621v24.023h5.33V37.87h5.62ZM88.726 252.017l-5.34-9.25-5.34 9.25h3.623V267.5h3.435v-15.483h3.622ZM45.11 308.583c2.478-1.859 4.663-4.497 6.41-7.707h5.599a27.975 27.975 0 0 1-12.01 7.707Zm-29.1-7.707h5.599c1.748 3.21 3.932 5.848 6.411 7.707a27.983 27.983 0 0 1-12.01-7.707Zm12.01-45.451c-2.479 1.859-4.663 4.496-6.411 7.707h-5.6a27.974 27.974 0 0 1 12.011-7.707Zm29.099 7.707h-5.6c-1.746-3.211-3.93-5.848-6.41-7.707a27.966 27.966 0 0 1 12.01 7.707Zm-1.43 24.042c.196-1.68.302-3.406.302-5.17 0-1.764-.106-3.49-.302-5.17h8.308c.316 1.676.487 3.403.487 5.17 0 1.766-.171 3.493-.487 5.17h-8.308Zm-.229 1.681h8.172a27.846 27.846 0 0 1-5.09 10.34h-6.176c1.44-3.066 2.505-6.562 3.094-10.34Zm-11.73 10.34c.631-3.157 1.075-6.692 1.32-10.34h8.718c-.616 3.821-1.735 7.326-3.236 10.34H43.73Zm-.362 1.681h6.26c-2.497 4.276-5.827 7.326-9.582 8.506 1.369-1.897 2.481-4.887 3.322-8.506Zm-11.89 0h10.173c-1.376 5.688-3.286 9.049-5.087 9.049-1.8 0-3.71-3.361-5.086-9.049Zm-1.717 0c.84 3.619 1.953 6.609 3.323 8.506-3.756-1.18-7.086-4.23-9.583-8.506h6.26Zm-10.4-12.021h8.717c.246 3.648.69 7.183 1.32 10.34h-6.802c-1.5-3.014-2.62-6.519-3.235-10.34Zm-1.922-12.021a44.828 44.828 0 0 0-.302 5.17c0 1.764.107 3.49.302 5.17H9.131a27.982 27.982 0 0 1-.488-5.17c0-1.767.173-3.494.488-5.17h8.308Zm.229-1.681h-8.17a27.828 27.828 0 0 1 5.09-10.34h6.175c-1.44 3.066-2.505 6.562-3.095 10.34Zm11.73-10.34c-.63 3.157-1.074 6.691-1.32 10.34H19.36c.615-3.821 1.734-7.326 3.235-10.34h6.802Zm.363-1.681h-6.26c2.497-4.276 5.827-7.326 9.583-8.506-1.37 1.897-2.482 4.886-3.323 8.506Zm11.89 0H31.478c1.376-5.688 3.286-9.05 5.086-9.05 1.8 0 3.711 3.362 5.087 9.05Zm1.717 0c-.841-3.62-1.953-6.609-3.322-8.506 3.755 1.18 7.085 4.23 9.582 8.506h-6.26Zm-13.614 12.021c.261-3.891.732-7.379 1.346-10.34h10.93c.612 2.961 1.084 6.449 1.344 10.34h-13.62Zm-10.935 6.851c0-1.767.11-3.494.31-5.17h8.85a102.058 102.058 0 0 0 0 10.34h-8.85c-.2-1.677-.31-3.404-.31-5.17Zm24.555 6.851c-.26 3.891-.732 7.378-1.345 10.34H31.1c-.613-2.962-1.084-6.449-1.345-10.34h13.62Zm-13.717-1.681a104.322 104.322 0 0 1 0-10.34h13.814a104.905 104.905 0 0 1 0 10.34H29.657Zm24.653-5.17c0 1.766-.11 3.493-.31 5.17h-8.85a101.304 101.304 0 0 0-.001-10.34H54c.2 1.676.31 3.403.31 5.17Zm-.542-6.851H45.05c-.247-3.649-.69-7.183-1.321-10.34h6.802c1.501 3.014 2.62 6.519 3.236 10.34Zm9.864 0H55.46c-.589-3.778-1.654-7.274-3.094-10.34h6.175a27.846 27.846 0 0 1 5.091 10.34ZM9.497 288.855h8.17c.59 3.778 1.656 7.274 3.096 10.34h-6.175a27.828 27.828 0 0 1-5.09-10.34Zm27.067-36.454c-16.322 0-29.603 13.279-29.603 29.603 0 16.323 13.28 29.603 29.603 29.603 16.324 0 29.603-13.28 29.603-29.603 0-16.324-13.28-29.603-29.603-29.603Z"/><mask id="c" width="104" height="105" x="358" y="52" maskUnits="userSpaceOnUse" style="mask-type:luminance"><path fill="#fff" d="M410.164 134.136c-16.49 0-29.839-13.375-29.839-29.866 0-16.465 13.349-29.84 29.839-29.84s29.839 13.375 29.839 29.84c0 16.491-13.349 29.866-29.839 29.866Zm51.751-23.489V97.909a2.255 2.255 0 0 0-2.255-2.256h-3.279c-.96 0-1.81-.652-2.024-1.588a45.098 45.098 0 0 0-5.676-13.772c-.519-.835-.421-1.912.275-2.606l2.306-2.306a2.257 2.257 0 0 0 0-3.192l-9.008-9.006a2.256 2.256 0 0 0-3.19-.001l-2.303 2.303c-.696.696-1.772.794-2.607.273a45.087 45.087 0 0 0-13.775-5.68c-.936-.214-1.587-1.064-1.587-2.024v-3.269a2.257 2.257 0 0 0-2.257-2.256h-12.739a2.257 2.257 0 0 0-2.256 2.256v3.269c0 .96-.652 1.808-1.588 2.023a45.129 45.129 0 0 0-13.777 5.68c-.834.52-1.911.422-2.607-.274l-2.301-2.3a2.255 2.255 0 0 0-3.19 0l-9.007 9.006a2.256 2.256 0 0 0 0 3.192l2.303 2.302c.696.696.794 1.773.274 2.607a45.113 45.113 0 0 0-5.676 13.775c-.215.936-1.063 1.588-2.024 1.588h-3.274a2.256 2.256 0 0 0-2.257 2.256v12.738a2.257 2.257 0 0 0 2.257 2.257h3.276c.96 0 1.809.651 2.023 1.587a45.14 45.14 0 0 0 5.678 13.773c.521.834.422 1.911-.274 2.607l-2.306 2.306a2.254 2.254 0 0 0 0 3.19l9.007 9.007c.88.882 2.309.882 3.19 0l2.309-2.308c.696-.695 1.771-.794 2.607-.275a45.126 45.126 0 0 0 13.769 5.672c.936.214 1.588 1.064 1.588 2.024v3.285a2.257 2.257 0 0 0 2.256 2.256h12.739a2.257 2.257 0 0 0 2.257-2.256v-3.286c0-.96.652-1.81 1.588-2.025a45.075 45.075 0 0 0 13.767-5.67c.836-.52 1.912-.421 2.607.273l2.31 2.31c.882.882 2.31.882 3.19 0l9.008-9.007c.881-.882.88-2.31 0-3.19l-2.309-2.308c-.696-.696-.793-1.772-.274-2.607a45.075 45.075 0 0 0 5.676-13.771c.215-.936 1.063-1.587 2.023-1.587h3.282a2.256 2.256 0 0 0 2.255-2.257Z"/></mask><g mask="url(#c)"><path fill="#4147A5" d="M410.164 134.136c-16.49 0-29.839-13.375-29.839-29.866 0-16.465 13.349-29.84 29.839-29.84s29.839 13.375 29.839 29.84c0 16.491-13.349 29.866-29.839 29.866Zm51.751-23.489V97.909a2.255 2.255 0 0 0-2.255-2.256h-3.279c-.96 0-1.81-.652-2.024-1.588a45.098 45.098 0 0 0-5.676-13.772c-.519-.835-.421-1.912.275-2.606l2.306-2.306a2.257 2.257 0 0 0 0-3.192l-9.008-9.006a2.256 2.256 0 0 0-3.19-.001l-2.303 2.303c-.696.696-1.772.794-2.607.273a45.087 45.087 0 0 0-13.775-5.68c-.936-.214-1.587-1.064-1.587-2.024v-3.269a2.257 2.257 0 0 0-2.257-2.256h-12.739a2.257 2.257 0 0 0-2.256 2.256v3.269c0 .96-.652 1.808-1.588 2.023a45.129 45.129 0 0 0-13.777 5.68c-.834.52-1.911.422-2.607-.274l-2.301-2.3a2.255 2.255 0 0 0-3.19 0l-9.007 9.006a2.256 2.256 0 0 0 0 3.192l2.303 2.302c.696.696.794 1.773.274 2.607a45.113 45.113 0 0 0-5.676 13.775c-.215.936-1.063 1.588-2.024 1.588h-3.274a2.256 2.256 0 0 0-2.257 2.256v12.738a2.257 2.257 0 0 0 2.257 2.257h3.276c.96 0 1.809.651 2.023 1.587a45.14 45.14 0 0 0 5.678 13.773c.521.834.422 1.911-.274 2.607l-2.306 2.306a2.254 2.254 0 0 0 0 3.19l9.007 9.007c.88.882 2.309.882 3.19 0l2.309-2.308c.696-.695 1.771-.794 2.607-.275a45.126 45.126 0 0 0 13.769 5.672c.936.214 1.588 1.064 1.588 2.024v3.285a2.257 2.257 0 0 0 2.256 2.256h12.739a2.257 2.257 0 0 0 2.257-2.256v-3.286c0-.96.652-1.81 1.588-2.025a45.075 45.075 0 0 0 13.767-5.67c.836-.52 1.912-.421 2.607.273l2.31 2.31c.882.882 2.31.882 3.19 0l9.008-9.007c.881-.882.88-2.31 0-3.19l-2.309-2.308c-.696-.696-.793-1.772-.274-2.607a45.075 45.075 0 0 0 5.676-13.771c.215-.936 1.063-1.587 2.023-1.587h3.282a2.256 2.256 0 0 0 2.255-2.257Z"/></g><path fill="#BED4FB" d="M339.737 77.94c-9.115 0-16.496-7.394-16.496-16.51 0-9.102 7.381-16.497 16.496-16.497 9.117 0 16.496 7.395 16.496 16.498 0 9.115-7.379 16.51-16.496 16.51Zm32.28-12.533v-7.945c0-.777-.631-1.408-1.408-1.408h-2.045a1.288 1.288 0 0 1-1.262-.99 28.13 28.13 0 0 0-3.539-8.59 1.31 1.31 0 0 1 .17-1.626l1.439-1.439a1.408 1.408 0 0 0 0-1.99l-5.618-5.618a1.409 1.409 0 0 0-1.99 0l-1.437 1.437a1.311 1.311 0 0 1-1.626.171 28.09 28.09 0 0 0-8.593-3.543 1.29 1.29 0 0 1-.989-1.264v-2.038c0-.777-.63-1.407-1.407-1.407h-7.946c-.777 0-1.407.63-1.407 1.407v2.038c0 .6-.407 1.13-.99 1.263a28.13 28.13 0 0 0-8.594 3.543 1.312 1.312 0 0 1-1.627-.172l-1.433-1.435a1.411 1.411 0 0 0-1.992 0l-5.616 5.618c-.55.55-.55 1.442 0 1.99l1.436 1.438c.434.433.495 1.105.17 1.625a28.132 28.132 0 0 0-3.539 8.593 1.29 1.29 0 0 1-1.262.989h-2.044c-.777 0-1.407.631-1.407 1.408v7.945c0 .777.63 1.407 1.407 1.407h2.044a1.29 1.29 0 0 1 1.262.99 28.16 28.16 0 0 0 3.542 8.59c.323.52.262 1.192-.172 1.627l-1.437 1.437c-.55.55-.55 1.442 0 1.99l5.616 5.62c.55.548 1.442.548 1.992 0l1.438-1.44a1.312 1.312 0 0 1 1.627-.172 28.108 28.108 0 0 0 8.589 3.537c.583.134.99.664.99 1.262v2.05c0 .777.63 1.407 1.407 1.407h7.946c.777 0 1.407-.63 1.407-1.407v-2.05c0-.6.406-1.129.991-1.262a28.138 28.138 0 0 0 8.587-3.537 1.31 1.31 0 0 1 1.625.17l1.442 1.442a1.41 1.41 0 0 0 1.99 0l5.618-5.618a1.41 1.41 0 0 0 0-1.992l-1.44-1.439a1.307 1.307 0 0 1-.171-1.625 28.132 28.132 0 0 0 3.54-8.59c.134-.582.664-.99 1.262-.99h2.046c.777 0 1.408-.63 1.408-1.407Z"/><mask id="d" width="436" height="300" x="114" y="104" maskUnits="userSpaceOnUse" style="mask-type:luminance"><path fill="#fff" d="M523.263 403.749H140.519c-14.543 0-26.331-11.789-26.331-26.332V130.628c0-14.543 11.788-26.332 26.331-26.332h382.744c14.543 0 26.331 11.789 26.331 26.332v246.789c0 14.543-11.788 26.332-26.331 26.332Z"/></mask><g mask="url(#d)"><path fill="#BED4FB" d="M523.263 403.749H140.519c-14.543 0-26.331-11.789-26.331-26.332V130.628c0-14.543 11.788-26.332 26.331-26.332h382.744c14.543 0 26.331 11.789 26.331 26.332v246.789c0 14.543-11.788 26.332-26.331 26.332Z"/></g><path fill="#EFF9FC" d="M538.826 131.777v222.166a7.384 7.384 0 0 1-7.384 7.385H132.168a7.386 7.386 0 0 1-7.385-7.385V131.777c0-9.751 7.906-17.657 17.657-17.657h378.729c9.752 0 17.657 7.906 17.657 17.657Z"/><path fill="#AEC3E9" d="M373.188 456.279h-83l.023-.136 8.693-52.168 2.284-13.696h61l2.284 13.696 8.693 52.168.023.136Zm-8.716-52.304-2.284-13.696h-61l-2.284 13.696h65.568Z"/><mask id="e" width="139" height="12" x="262" y="456" maskUnits="userSpaceOnUse" style="mask-type:luminance"><path fill="#fff" d="M400.863 467.644H262.735v-10.885h138.128v10.885Z"/></mask><g mask="url(#e)"><path fill="#BED4FB" d="M400.863 467.644H262.735v-10.885h138.128v10.885Z"/></g><mask id="f" width="260" height="115" x="202" y="182" maskUnits="userSpaceOnUse" style="mask-type:luminance"><path fill="#fff" d="M446.306 296.185v-.697H217.293a13.592 13.592 0 0 1-9.644-3.994 13.592 13.592 0 0 1-3.994-9.644v-84.717c0-3.769 1.525-7.174 3.994-9.643a13.602 13.602 0 0 1 9.644-3.996h229.013a13.601 13.601 0 0 1 9.643 3.996 13.586 13.586 0 0 1 3.994 9.643v84.717c0 3.768-1.525 7.174-3.994 9.644a13.591 13.591 0 0 1-9.643 3.994v1.395c8.302-.001 15.032-6.73 15.032-15.033v-84.717c0-8.302-6.73-15.032-15.032-15.033H217.293c-8.303.001-15.032 6.731-15.032 15.033v84.717c0 8.303 6.729 15.032 15.032 15.033h229.013v-.698Z"/></mask><g mask="url(#f)"><path fill="#87A1CF" d="M446.306 296.185v-.697H217.293a13.592 13.592 0 0 1-9.644-3.994 13.592 13.592 0 0 1-3.994-9.644v-84.717c0-3.769 1.525-7.174 3.994-9.643a13.602 13.602 0 0 1 9.644-3.996h229.013a13.601 13.601 0 0 1 9.643 3.996 13.586 13.586 0 0 1 3.994 9.643v84.717c0 3.768-1.525 7.174-3.994 9.644a13.591 13.591 0 0 1-9.643 3.994v1.395c8.302-.001 15.032-6.73 15.032-15.033v-84.717c0-8.302-6.73-15.032-15.032-15.033H217.293c-8.303.001-15.032 6.731-15.032 15.033v84.717c0 8.303 6.729 15.032 15.032 15.033h229.013v-.698Z"/></g><mask id="g" width="73" height="132" x="67" y="336" maskUnits="userSpaceOnUse" style="mask-type:luminance"><path fill="#fff" d="M132.61 467.051H75.117A7.117 7.117 0 0 1 68 459.934V343.13a7.117 7.117 0 0 1 7.118-7.118h57.493a7.118 7.118 0 0 1 7.118 7.118v116.804a7.118 7.118 0 0 1-7.118 7.117Z"/></mask><g mask="url(#g)"><path fill="#6976FA" d="M132.61 467.051H75.117A7.117 7.117 0 0 1 68 459.934V343.13a7.117 7.117 0 0 1 7.118-7.118h57.493a7.118 7.118 0 0 1 7.118 7.118v116.804a7.118 7.118 0 0 1-7.118 7.117Z"/></g><path fill="#BED4FB" d="M132.648 449.774H75.079a3.714 3.714 0 0 1-3.716-3.714v-98.185a3.714 3.714 0 0 1 3.716-3.714h57.569a3.713 3.713 0 0 1 3.714 3.714v98.185a3.713 3.713 0 0 1-3.714 3.714Z"/><mask id="h" width="15" height="15" x="96" y="451" maskUnits="userSpaceOnUse" style="mask-type:luminance"><path fill="#fff" d="M110.753 458.558a6.889 6.889 0 0 1-6.89 6.889 6.889 6.889 0 1 1 0-13.778 6.889 6.889 0 0 1 6.89 6.889Z"/></mask><g mask="url(#h)"><path fill="url(#i)" d="M110.753 458.558a6.889 6.889 0 0 1-6.89 6.889 6.889 6.889 0 1 1 0-13.778 6.889 6.889 0 0 1 6.89 6.889Z"/></g><path fill="#BED4FB" d="M109.801 458.558a5.938 5.938 0 1 1-11.875-.001 5.938 5.938 0 0 1 11.875.001Z"/><mask id="j" width="21" height="3" x="93" y="339" maskUnits="userSpaceOnUse" style="mask-type:luminance"><path fill="#fff" d="M112.647 341.673H95.08a1.322 1.322 0 1 1 0-2.645h17.567a1.323 1.323 0 0 1 0 2.645Z"/></mask><g mask="url(#j)"><path fill="url(#k)" d="M112.647 341.673H95.08a1.322 1.322 0 1 1 0-2.645h17.567a1.323 1.323 0 0 1 0 2.645Z"/></g><mask id="l" width="4" height="3" x="115" y="339" maskUnits="userSpaceOnUse" style="mask-type:luminance"><path fill="#fff" d="M118.583 340.351a1.322 1.322 0 1 1-2.645 0 1.323 1.323 0 1 1 2.645 0Z"/></mask><g mask="url(#l)"><path fill="url(#m)" d="M118.583 340.351a1.322 1.322 0 1 1-2.645 0 1.323 1.323 0 1 1 2.645 0Z"/></g><mask id="n" width="42" height="42" x="83" y="376" maskUnits="userSpaceOnUse" style="mask-type:luminance"><path fill="#fff" d="M124.34 396.968c0 11.308-9.167 20.477-20.477 20.477-11.308 0-20.477-9.169-20.477-20.477 0-11.31 9.169-20.478 20.477-20.478 11.31 0 20.477 9.168 20.477 20.478Z"/></mask><g mask="url(#n)"><path fill="url(#o)" d="M124.34 396.968c0 11.308-9.167 20.477-20.477 20.477-11.308 0-20.477-9.169-20.477-20.477 0-11.31 9.169-20.478 20.477-20.478 11.31 0 20.477 9.168 20.477 20.478Z"/></g><mask id="p" width="43" height="36" x="82" y="369" maskUnits="userSpaceOnUse" style="mask-type:luminance"><path fill="#fff" d="M103.863 404.071a2.536 2.536 0 0 1-1.761-.711l-18.72-18.022a2.54 2.54 0 1 1 3.523-3.659l16.441 15.83 16.409-26.82a2.54 2.54 0 0 1 4.333 2.652l-18.059 29.516a2.538 2.538 0 0 1-1.843 1.193l-.323.021Z"/></mask><g mask="url(#p)"><path fill="#7486D3" d="M103.863 404.071a2.536 2.536 0 0 1-1.761-.711l-18.72-18.022a2.54 2.54 0 1 1 3.523-3.659l16.441 15.83 16.409-26.82a2.54 2.54 0 0 1 4.333 2.652l-18.059 29.516a2.538 2.538 0 0 1-1.843 1.193l-.323.021Z"/></g><mask id="q" width="156" height="95" x="450" y="373" maskUnits="userSpaceOnUse" style="mask-type:luminance"><path fill="#fff" d="M577.865 411.26c-.414 0-.826.013-1.235.031v-.031c0-20.788-16.852-37.64-37.64-37.64-17.012 0-31.382 11.29-36.043 26.783a16.6 16.6 0 0 0-5.144-.821c-7.524 0-13.875 4.996-15.935 11.849a27.778 27.778 0 0 0-3.056-.171c-15.394 0-27.875 12.48-27.875 27.875 0 15.394 12.481 27.874 27.875 27.874h99.053c15.395 0 27.874-12.48 27.874-27.874 0-15.395-12.479-27.875-27.874-27.875Z"/></mask><g mask="url(#q)"><path fill="#3876E5" d="M577.865 411.26c-.414 0-.826.013-1.235.031v-.031c0-20.788-16.852-37.64-37.64-37.64-17.012 0-31.382 11.29-36.043 26.783a16.6 16.6 0 0 0-5.144-.821c-7.524 0-13.875 4.996-15.935 11.849a27.778 27.778 0 0 0-3.056-.171c-15.394 0-27.875 12.48-27.875 27.875 0 15.394 12.481 27.874 27.875 27.874h99.053c15.395 0 27.874-12.48 27.874-27.874 0-15.395-12.479-27.875-27.874-27.875Z"/></g><path fill="#BED4FB" d="M189.603 71.852c-.414 0-.825.012-1.235.031l.001-.031c0-20.789-16.852-37.64-37.64-37.64-17.012 0-31.382 11.289-36.043 26.782a16.6 16.6 0 0 0-5.144-.82c-7.524 0-13.875 4.995-15.935 11.848a28.253 28.253 0 0 0-3.057-.17c-15.394 0-27.874 12.479-27.874 27.874 0 15.394 12.48 27.875 27.874 27.875h99.053c15.395 0 27.875-12.481 27.875-27.875 0-15.395-12.48-27.874-27.875-27.874Z"/><mask id="r" width="158" height="97" x="61" y="32" maskUnits="userSpaceOnUse" style="mask-type:luminance"><path fill="#fff" d="M189.603 71.852v-1.27c-.44 0-.871.014-1.29.033l.055 1.268 1.27.03.001-.03v-.031c-.001-21.49-17.419-38.91-38.91-38.91-17.586.002-32.441 11.667-37.259 27.686l1.216.366.393-1.208a17.876 17.876 0 0 0-5.537-.881c-8.1.001-14.934 5.374-17.15 12.751l1.215.366.139-1.263a29.402 29.402 0 0 0-3.196-.177c-16.096 0-29.143 13.048-29.144 29.144.001 16.096 13.048 29.143 29.144 29.144h99.053c16.098-.001 29.145-13.048 29.145-29.144 0-16.096-13.047-29.143-29.145-29.144v2.54c7.352 0 13.995 2.975 18.813 7.792 4.817 4.818 7.792 11.462 7.792 18.812 0 7.35-2.975 13.993-7.792 18.813-4.818 4.815-11.461 7.79-18.813 7.792H90.55c-7.35-.002-13.993-2.977-18.812-7.792-4.816-4.82-7.79-11.463-7.792-18.813.001-7.35 2.977-13.994 7.792-18.812 4.82-4.817 11.462-7.793 18.812-7.793a26.9 26.9 0 0 1 2.92.163c.61.067 1.177-.31 1.354-.897 1.902-6.328 7.769-10.945 14.718-10.942 1.658 0 3.251.269 4.752.757.322.105.681.074.982-.083.299-.157.529-.434.627-.76 4.503-14.967 18.388-25.88 34.826-25.878 10.047.002 19.132 4.07 25.718 10.654 6.583 6.585 10.652 15.669 10.652 25.717h1.27l-1.27-.032v.032a1.27 1.27 0 0 0 1.325 1.3c.4-.018.793-.03 1.179-.03v-1.27Z"/></mask><g mask="url(#r)"><path fill="#7A83E9" d="M189.603 71.852v-1.27c-.44 0-.871.014-1.29.033l.055 1.268 1.27.03.001-.03v-.031c-.001-21.49-17.419-38.91-38.91-38.91-17.586.002-32.441 11.667-37.259 27.686l1.216.366.393-1.208a17.876 17.876 0 0 0-5.537-.881c-8.1.001-14.934 5.374-17.15 12.751l1.215.366.139-1.263a29.402 29.402 0 0 0-3.196-.177c-16.096 0-29.143 13.048-29.144 29.144.001 16.096 13.048 29.143 29.144 29.144h99.053c16.098-.001 29.145-13.048 29.145-29.144 0-16.096-13.047-29.143-29.145-29.144v2.54c7.352 0 13.995 2.975 18.813 7.792 4.817 4.818 7.792 11.462 7.792 18.812 0 7.35-2.975 13.993-7.792 18.813-4.818 4.815-11.461 7.79-18.813 7.792H90.55c-7.35-.002-13.993-2.977-18.812-7.792-4.816-4.82-7.79-11.463-7.792-18.813.001-7.35 2.977-13.994 7.792-18.812 4.82-4.817 11.462-7.793 18.812-7.793a26.9 26.9 0 0 1 2.92.163c.61.067 1.177-.31 1.354-.897 1.902-6.328 7.769-10.945 14.718-10.942 1.658 0 3.251.269 4.752.757.322.105.681.074.982-.083.299-.157.529-.434.627-.76 4.503-14.967 18.388-25.88 34.826-25.878 10.047.002 19.132 4.07 25.718 10.654 6.583 6.585 10.652 15.669 10.652 25.717h1.27l-1.27-.032v.032a1.27 1.27 0 0 0 1.325 1.3c.4-.018.793-.03 1.179-.03v-1.27Z"/></g><mask id="s" width="2" height="5" x="103" y="324" maskUnits="userSpaceOnUse" style="mask-type:luminance"><path fill="#fff" d="M104.498 327.378v-1.905a.635.635 0 0 0-1.27 0v1.905a.635.635 0 0 0 1.27 0Z"/></mask><g mask="url(#s)"><path fill="url(#t)" d="M104.498 327.378v-1.905a.635.635 0 0 0-1.27 0v1.905a.635.635 0 0 0 1.27 0Z"/></g><mask id="u" width="95" height="81" x="103" y="242" maskUnits="userSpaceOnUse" style="mask-type:luminance"><path fill="#fff" d="M104.498 321.629v-3.844a.635.635 0 0 0-1.27 0v3.844a.635.635 0 0 0 1.27 0Zm0-7.687v-3.844a.635.635 0 0 0-1.27 0v3.844a.635.635 0 1 0 1.27 0Zm0-7.688v-3.844a.635.635 0 0 0-1.27 0v3.844a.635.635 0 0 0 1.27 0Zm0-7.688v-3.843a.635.635 0 1 0-1.27 0v3.843a.635.635 0 0 0 1.27 0Zm0-7.687v-3.844a.636.636 0 0 0-1.27 0v3.844a.635.635 0 1 0 1.27 0Zm0-7.688v-3.844a.636.636 0 0 0-1.27 0v3.844a.635.635 0 1 0 1.27 0Zm0-7.687v-3.844a.636.636 0 0 0-1.27 0v3.844a.635.635 0 1 0 1.27 0Zm0-7.688v-3.844a.636.636 0 0 0-1.27 0v3.844a.635.635 0 1 0 1.27 0Zm0-7.688v-1.242c0-.847.068-1.678.199-2.487a.636.636 0 0 0-1.253-.204 16.714 16.714 0 0 0-.216 2.691v1.242a.635.635 0 1 0 1.27 0Zm1.216-7.269a15.546 15.546 0 0 1 1.83-3.197.635.635 0 0 0-1.02-.757 16.77 16.77 0 0 0-1.979 3.459.636.636 0 0 0 1.169.495Zm4.361-5.873a15.482 15.482 0 0 1 3.089-2.005.635.635 0 0 0-.56-1.141 16.737 16.737 0 0 0-3.342 2.171.634.634 0 1 0 .813.975Zm6.563-3.222a15.596 15.596 0 0 1 3.344-.362h.335a.635.635 0 0 0 0-1.27h-.335c-1.241 0-2.451.136-3.617.393a.635.635 0 1 0 .273 1.239Zm7.523-.362h3.844a.635.635 0 0 0 0-1.27h-3.844a.635.635 0 0 0 0 1.27Zm7.687 0h3.844a.635.635 0 0 0 0-1.27h-3.844a.635.635 0 0 0 0 1.27Zm7.688 0h3.844a.635.635 0 0 0 0-1.27h-3.844a.635.635 0 0 0 0 1.27Zm7.688 0h3.843a.635.635 0 1 0 0-1.27h-3.843a.635.635 0 0 0 0 1.27Zm7.687 0h3.844a.635.635 0 0 0 0-1.27h-3.844a.635.635 0 0 0 0 1.27Zm7.688 0h3.844a.635.635 0 0 0 0-1.27h-3.844a.635.635 0 0 0 0 1.27Zm7.688 0h3.842a.635.635 0 1 0 0-1.27h-3.842a.635.635 0 1 0 0 1.27Zm7.686 0h3.844a.635.635 0 1 0 0-1.27h-3.844a.636.636 0 0 0 0 1.27Zm7.688 0h3.844a.635.635 0 1 0 0-1.27h-3.844a.636.636 0 0 0 0 1.27Zm7.687 0h3.844a.635.635 0 1 0 0-1.27h-3.844a.636.636 0 0 0 0 1.27Z"/></mask><g mask="url(#u)"><path fill="#87A1CF" d="M104.498 321.629v-3.844a.635.635 0 0 0-1.27 0v3.844a.635.635 0 0 0 1.27 0Zm0-7.687v-3.844a.635.635 0 0 0-1.27 0v3.844a.635.635 0 1 0 1.27 0Zm0-7.688v-3.844a.635.635 0 0 0-1.27 0v3.844a.635.635 0 0 0 1.27 0Zm0-7.688v-3.843a.635.635 0 1 0-1.27 0v3.843a.635.635 0 0 0 1.27 0Zm0-7.687v-3.844a.636.636 0 0 0-1.27 0v3.844a.635.635 0 1 0 1.27 0Zm0-7.688v-3.844a.636.636 0 0 0-1.27 0v3.844a.635.635 0 1 0 1.27 0Zm0-7.687v-3.844a.636.636 0 0 0-1.27 0v3.844a.635.635 0 1 0 1.27 0Zm0-7.688v-3.844a.636.636 0 0 0-1.27 0v3.844a.635.635 0 1 0 1.27 0Zm0-7.688v-1.242c0-.847.068-1.678.199-2.487a.636.636 0 0 0-1.253-.204 16.714 16.714 0 0 0-.216 2.691v1.242a.635.635 0 1 0 1.27 0Zm1.216-7.269a15.546 15.546 0 0 1 1.83-3.197.635.635 0 0 0-1.02-.757 16.77 16.77 0 0 0-1.979 3.459.636.636 0 0 0 1.169.495Zm4.361-5.873a15.482 15.482 0 0 1 3.089-2.005.635.635 0 0 0-.56-1.141 16.737 16.737 0 0 0-3.342 2.171.634.634 0 1 0 .813.975Zm6.563-3.222a15.596 15.596 0 0 1 3.344-.362h.335a.635.635 0 0 0 0-1.27h-.335c-1.241 0-2.451.136-3.617.393a.635.635 0 1 0 .273 1.239Zm7.523-.362h3.844a.635.635 0 0 0 0-1.27h-3.844a.635.635 0 0 0 0 1.27Zm7.687 0h3.844a.635.635 0 0 0 0-1.27h-3.844a.635.635 0 0 0 0 1.27Zm7.688 0h3.844a.635.635 0 0 0 0-1.27h-3.844a.635.635 0 0 0 0 1.27Zm7.688 0h3.843a.635.635 0 1 0 0-1.27h-3.843a.635.635 0 0 0 0 1.27Zm7.687 0h3.844a.635.635 0 0 0 0-1.27h-3.844a.635.635 0 0 0 0 1.27Zm7.688 0h3.844a.635.635 0 0 0 0-1.27h-3.844a.635.635 0 0 0 0 1.27Zm7.688 0h3.842a.635.635 0 1 0 0-1.27h-3.842a.635.635 0 1 0 0 1.27Zm7.686 0h3.844a.635.635 0 1 0 0-1.27h-3.844a.636.636 0 0 0 0 1.27Zm7.688 0h3.844a.635.635 0 1 0 0-1.27h-3.844a.636.636 0 0 0 0 1.27Zm7.687 0h3.844a.635.635 0 1 0 0-1.27h-3.844a.636.636 0 0 0 0 1.27Z"/></g><mask id="v" width="4" height="2" x="200" y="242" maskUnits="userSpaceOnUse" style="mask-type:luminance"><path fill="#fff" d="M201.053 243.402h1.905a.635.635 0 0 0 0-1.27h-1.905a.635.635 0 0 0 0 1.27Z"/></mask><g mask="url(#v)"><path fill="url(#w)" d="M201.053 243.402h1.905a.635.635 0 0 0 0-1.27h-1.905a.635.635 0 0 0 0 1.27Z"/></g><mask id="x" width="8" height="7" x="199" y="239" maskUnits="userSpaceOnUse" style="mask-type:luminance"><path fill="#fff" d="M206.261 242.505a3.304 3.304 0 1 1-6.608-.002 3.304 3.304 0 0 1 6.608.002Z"/></mask><g mask="url(#x)"><path fill="#87A1CF" d="M206.261 242.505a3.304 3.304 0 1 1-6.608-.002 3.304 3.304 0 0 1 6.608.002Z"/></g><mask id="y" width="11" height="11" x="98" y="322" maskUnits="userSpaceOnUse" style="mask-type:luminance"><path fill="#fff" d="M108.784 327.378a4.922 4.922 0 1 1-9.844-.002 4.922 4.922 0 0 1 9.844.002Z"/></mask><g mask="url(#y)"><path fill="#8EA9DE" d="M108.784 327.378a4.922 4.922 0 1 1-9.844-.002 4.922 4.922 0 0 1 9.844.002Z"/></g><mask id="z" width="4" height="2" x="226" y="88" maskUnits="userSpaceOnUse" style="mask-type:luminance"><path fill="#fff" d="M227.001 89.5h1.905a.635.635 0 1 0 0-1.27h-1.905a.634.634 0 1 0 0 1.27Z"/></mask><g mask="url(#z)"><path fill="url(#A)" d="M227.001 89.5h1.905a.635.635 0 1 0 0-1.27h-1.905a.634.634 0 1 0 0 1.27Z"/></g><mask id="B" width="75" height="90" x="232" y="88" maskUnits="userSpaceOnUse" style="mask-type:luminance"><path fill="#fff" d="M232.665 89.5h3.76a.635.635 0 1 0 0-1.27h-3.76a.635.635 0 1 0 0 1.27Zm7.52 0h3.759a.634.634 0 1 0 0-1.27h-3.759a.634.634 0 1 0 0 1.27Zm7.519 0h3.759a.634.634 0 1 0 0-1.27h-3.759a.635.635 0 0 0 0 1.27Zm7.519 0h3.761a.635.635 0 1 0 0-1.27h-3.761a.635.635 0 0 0 0 1.27Zm7.52 0h3.76a.635.635 0 1 0 0-1.27h-3.76a.635.635 0 1 0 0 1.27Zm7.52 0h3.759a.635.635 0 1 0 0-1.27h-3.759a.634.634 0 1 0 0 1.27Zm7.519 0h3.759a.634.634 0 1 0 0-1.27h-3.759a.635.635 0 0 0 0 1.27Zm7.519 0h3.76a.634.634 0 1 0 0-1.27h-3.76a.635.635 0 0 0 0 1.27Zm7.358.355c1.193.26 2.333.655 3.406 1.172a.634.634 0 1 0 .551-1.144 16.646 16.646 0 0 0-3.688-1.27.636.636 0 0 0-.269 1.242Zm6.447 3.104c.936.76 1.781 1.625 2.516 2.579a.637.637 0 0 0 .892.115.638.638 0 0 0 .114-.891 16.871 16.871 0 0 0-2.72-2.79.636.636 0 0 0-.802.987Zm4.37 5.667a15.374 15.374 0 0 1 1.086 3.434.634.634 0 1 0 1.247-.239 16.57 16.57 0 0 0-1.176-3.717.634.634 0 1 0-1.157.522Zm1.362 7.055v3.76a.635.635 0 0 0 1.269 0v-3.76a.635.635 0 1 0-1.269 0Zm0 7.52v3.759a.634.634 0 1 0 1.269 0v-3.759a.634.634 0 1 0-1.269 0Zm0 7.519v3.76a.634.634 0 1 0 1.269 0v-3.76a.635.635 0 0 0-1.269 0Zm0 7.519V132a.635.635 0 0 0 1.269 0v-3.761a.635.635 0 0 0-1.269 0Zm0 7.519v3.761a.635.635 0 0 0 1.269 0v-3.761a.634.634 0 0 0-1.269 0Zm0 7.521v3.759a.635.635 0 0 0 1.269 0v-3.759a.635.635 0 1 0-1.269 0Zm0 7.519v3.76a.634.634 0 1 0 1.269 0v-3.76a.635.635 0 0 0-1.269 0Zm0 7.519v3.76a.634.634 0 1 0 1.269 0v-3.76a.635.635 0 0 0-1.269 0Zm0 7.521v3.759a.634.634 0 0 0 1.269 0v-3.759a.634.634 0 1 0-1.269 0Zm0 7.519v3.759a.634.634 0 1 0 1.269 0v-3.759a.635.635 0 1 0-1.269 0Z"/></mask><g mask="url(#B)"><path fill="#87A1CF" d="M232.665 89.5h3.76a.635.635 0 1 0 0-1.27h-3.76a.635.635 0 1 0 0 1.27Zm7.52 0h3.759a.634.634 0 1 0 0-1.27h-3.759a.634.634 0 1 0 0 1.27Zm7.519 0h3.759a.634.634 0 1 0 0-1.27h-3.759a.635.635 0 0 0 0 1.27Zm7.519 0h3.761a.635.635 0 1 0 0-1.27h-3.761a.635.635 0 0 0 0 1.27Zm7.52 0h3.76a.635.635 0 1 0 0-1.27h-3.76a.635.635 0 1 0 0 1.27Zm7.52 0h3.759a.635.635 0 1 0 0-1.27h-3.759a.634.634 0 1 0 0 1.27Zm7.519 0h3.759a.634.634 0 1 0 0-1.27h-3.759a.635.635 0 0 0 0 1.27Zm7.519 0h3.76a.634.634 0 1 0 0-1.27h-3.76a.635.635 0 0 0 0 1.27Zm7.358.355c1.193.26 2.333.655 3.406 1.172a.634.634 0 1 0 .551-1.144 16.646 16.646 0 0 0-3.688-1.27.636.636 0 0 0-.269 1.242Zm6.447 3.104c.936.76 1.781 1.625 2.516 2.579a.637.637 0 0 0 .892.115.638.638 0 0 0 .114-.891 16.871 16.871 0 0 0-2.72-2.79.636.636 0 0 0-.802.987Zm4.37 5.667a15.374 15.374 0 0 1 1.086 3.434.634.634 0 1 0 1.247-.239 16.57 16.57 0 0 0-1.176-3.717.634.634 0 1 0-1.157.522Zm1.362 7.055v3.76a.635.635 0 0 0 1.269 0v-3.76a.635.635 0 1 0-1.269 0Zm0 7.52v3.759a.634.634 0 1 0 1.269 0v-3.759a.634.634 0 1 0-1.269 0Zm0 7.519v3.76a.634.634 0 1 0 1.269 0v-3.76a.635.635 0 0 0-1.269 0Zm0 7.519V132a.635.635 0 0 0 1.269 0v-3.761a.635.635 0 0 0-1.269 0Zm0 7.519v3.761a.635.635 0 0 0 1.269 0v-3.761a.634.634 0 0 0-1.269 0Zm0 7.521v3.759a.635.635 0 0 0 1.269 0v-3.759a.635.635 0 1 0-1.269 0Zm0 7.519v3.76a.634.634 0 1 0 1.269 0v-3.76a.635.635 0 0 0-1.269 0Zm0 7.519v3.76a.634.634 0 1 0 1.269 0v-3.76a.635.635 0 0 0-1.269 0Zm0 7.521v3.759a.634.634 0 0 0 1.269 0v-3.759a.634.634 0 1 0-1.269 0Zm0 7.519v3.759a.634.634 0 1 0 1.269 0v-3.759a.635.635 0 1 0-1.269 0Z"/></g><mask id="C" width="3" height="4" x="304" y="180" maskUnits="userSpaceOnUse" style="mask-type:luminance"><path fill="#fff" d="M304.837 180.892v1.905a.635.635 0 1 0 1.27 0v-1.905a.635.635 0 0 0-1.27 0Z"/></mask><g mask="url(#C)"><path fill="url(#D)" d="M304.837 180.892v1.905a.635.635 0 1 0 1.27 0v-1.905a.635.635 0 0 0-1.27 0Z"/></g><mask id="E" width="7" height="8" x="302" y="179" maskUnits="userSpaceOnUse" style="mask-type:luminance"><path fill="#fff" d="M305.472 186.102a3.304 3.304 0 1 1 .003-6.609 3.304 3.304 0 0 1-.003 6.609Z"/></mask><g mask="url(#E)"><path fill="#6092A5" d="M305.472 186.102a3.304 3.304 0 1 1 .003-6.609 3.304 3.304 0 0 1-.003 6.609Z"/></g><mask id="F" width="10" height="11" x="222" y="83" maskUnits="userSpaceOnUse" style="mask-type:luminance"><path fill="#fff" d="M227.001 93.787a4.92 4.92 0 1 1 0-9.842 4.922 4.922 0 0 1 0 9.842Z"/></mask><g mask="url(#F)"><path fill="#BED4FB" d="M227.001 93.787a4.92 4.92 0 1 1 0-9.842 4.922 4.922 0 0 1 0 9.842Z"/></g><mask id="G" width="3" height="4" x="232" y="295" maskUnits="userSpaceOnUse" style="mask-type:luminance"><path fill="#fff" d="M232.968 296.185v1.905a.634.634 0 1 0 1.27 0v-1.905a.635.635 0 1 0-1.27 0Z"/></mask><g mask="url(#G)"><path fill="#8EA9DE" d="M232.968 296.185v1.905a.634.634 0 1 0 1.27 0v-1.905a.635.635 0 1 0-1.27 0Z"/></g><mask id="H" width="3" height="98" x="232" y="301" maskUnits="userSpaceOnUse" style="mask-type:luminance"><path fill="#fff" d="M232.968 301.931v3.84a.634.634 0 1 0 1.27 0v-3.84a.634.634 0 1 0-1.27 0Zm0 7.681v3.84a.635.635 0 1 0 1.27 0v-3.84a.635.635 0 1 0-1.27 0Zm0 7.68v3.84a.634.634 0 1 0 1.27 0v-3.84a.635.635 0 0 0-1.27 0Zm0 7.68v3.841a.635.635 0 1 0 1.27 0v-3.841a.634.634 0 0 0-1.27 0Zm0 7.681v3.841a.634.634 0 1 0 1.27 0v-3.841a.635.635 0 1 0-1.27 0Zm0 7.682v3.84a.635.635 0 1 0 1.27 0v-3.84a.635.635 0 1 0-1.27 0Zm0 7.68v3.84a.634.634 0 1 0 1.27 0v-3.84a.635.635 0 0 0-1.27 0Zm0 7.68v3.841a.635.635 0 1 0 1.27 0v-3.841a.635.635 0 0 0-1.27 0Zm0 7.681v3.841a.634.634 0 1 0 1.27 0v-3.841a.635.635 0 1 0-1.27 0Zm0 7.682v3.84a.635.635 0 1 0 1.27 0v-3.84a.634.634 0 1 0-1.27 0Zm0 7.68v3.84a.634.634 0 1 0 1.27 0v-3.84a.635.635 0 1 0-1.27 0Zm0 7.68v3.841a.635.635 0 1 0 1.27 0v-3.841a.635.635 0 0 0-1.27 0Zm0 7.681v3.84a.634.634 0 1 0 1.27 0v-3.84a.635.635 0 1 0-1.27 0Z"/></mask><g mask="url(#H)"><path fill="#87A1CF" d="M232.968 301.931v3.84a.634.634 0 1 0 1.27 0v-3.84a.634.634 0 1 0-1.27 0Zm0 7.681v3.84a.635.635 0 1 0 1.27 0v-3.84a.635.635 0 1 0-1.27 0Zm0 7.68v3.84a.634.634 0 1 0 1.27 0v-3.84a.635.635 0 0 0-1.27 0Zm0 7.68v3.841a.635.635 0 1 0 1.27 0v-3.841a.634.634 0 0 0-1.27 0Zm0 7.681v3.841a.634.634 0 1 0 1.27 0v-3.841a.635.635 0 1 0-1.27 0Zm0 7.682v3.84a.635.635 0 1 0 1.27 0v-3.84a.635.635 0 1 0-1.27 0Zm0 7.68v3.84a.634.634 0 1 0 1.27 0v-3.84a.635.635 0 0 0-1.27 0Zm0 7.68v3.841a.635.635 0 1 0 1.27 0v-3.841a.635.635 0 0 0-1.27 0Zm0 7.681v3.841a.634.634 0 1 0 1.27 0v-3.841a.635.635 0 1 0-1.27 0Zm0 7.682v3.84a.635.635 0 1 0 1.27 0v-3.84a.634.634 0 1 0-1.27 0Zm0 7.68v3.84a.634.634 0 1 0 1.27 0v-3.84a.635.635 0 1 0-1.27 0Zm0 7.68v3.841a.635.635 0 1 0 1.27 0v-3.841a.635.635 0 0 0-1.27 0Zm0 7.681v3.84a.634.634 0 1 0 1.27 0v-3.84a.635.635 0 1 0-1.27 0Z"/></g><mask id="I" width="3" height="4" x="232" y="401" maskUnits="userSpaceOnUse" style="mask-type:luminance"><path fill="#fff" d="M232.968 401.78v1.905a.634.634 0 1 0 1.27 0v-1.905a.635.635 0 1 0-1.27 0Z"/></mask><g mask="url(#I)"><path fill="url(#J)" d="M232.968 401.78v1.905a.634.634 0 1 0 1.27 0v-1.905a.635.635 0 1 0-1.27 0Z"/></g><mask id="K" width="11" height="11" x="228" y="398" maskUnits="userSpaceOnUse" style="mask-type:luminance"><path fill="#fff" d="M233.866 408.606a4.92 4.92 0 1 1 0-9.841 4.92 4.92 0 0 1 0 9.841Z"/></mask><g mask="url(#K)"><path fill="#87A1CF" d="M233.866 408.606a4.92 4.92 0 1 1 0-9.841 4.92 4.92 0 0 1 0 9.841Z"/></g><mask id="L" width="7" height="8" x="230" y="292" maskUnits="userSpaceOnUse" style="mask-type:luminance"><path fill="#fff" d="M233.603 299.489a3.303 3.303 0 1 1 0-6.606 3.303 3.303 0 0 1 0 6.606Z"/></mask><g mask="url(#L)"><path fill="#8EA9DE" d="M233.603 299.489a3.303 3.303 0 1 1 0-6.606 3.303 3.303 0 0 1 0 6.606Z"/></g><mask id="M" width="4" height="2" x="460" y="214" maskUnits="userSpaceOnUse" style="mask-type:luminance"><path fill="#fff" d="M460.64 215.603h1.905a.635.635 0 0 0 0-1.27h-1.905a.635.635 0 0 0 0 1.27Z"/></mask><g mask="url(#M)"><path fill="url(#N)" d="M460.64 215.603h1.905a.635.635 0 0 0 0-1.27h-1.905a.635.635 0 0 0 0 1.27Z"/></g><mask id="O" width="22" height="27" x="465" y="214" maskUnits="userSpaceOnUse" style="mask-type:luminance"><path fill="#fff" d="M466.303 215.603h3.757a.635.635 0 0 0 0-1.27h-3.757a.635.635 0 1 0 0 1.27Zm7.516 0h3.758a.636.636 0 0 0 0-1.27h-3.758a.635.635 0 1 0 0 1.27Zm7.353.136c1.1.268 2.055.914 2.714 1.795a.635.635 0 0 0 1.017-.762 6.093 6.093 0 0 0-3.431-2.266.634.634 0 1 0-.3 1.233Zm3.675 4.935v3.757a.635.635 0 0 0 1.27 0v-3.757a.635.635 0 1 0-1.27 0Zm0 7.515v3.758a.635.635 0 0 0 1.27 0v-3.758a.635.635 0 1 0-1.27 0Zm0 7.515v3.759a.635.635 0 0 0 1.27 0v-3.759a.635.635 0 0 0-1.27 0Z"/></mask><g mask="url(#O)"><path fill="#8EA9DE" d="M466.303 215.603h3.757a.635.635 0 0 0 0-1.27h-3.757a.635.635 0 1 0 0 1.27Zm7.516 0h3.758a.636.636 0 0 0 0-1.27h-3.758a.635.635 0 1 0 0 1.27Zm7.353.136c1.1.268 2.055.914 2.714 1.795a.635.635 0 0 0 1.017-.762 6.093 6.093 0 0 0-3.431-2.266.634.634 0 1 0-.3 1.233Zm3.675 4.935v3.757a.635.635 0 0 0 1.27 0v-3.757a.635.635 0 1 0-1.27 0Zm0 7.515v3.758a.635.635 0 0 0 1.27 0v-3.758a.635.635 0 1 0-1.27 0Zm0 7.515v3.759a.635.635 0 0 0 1.27 0v-3.759a.635.635 0 0 0-1.27 0Z"/></g><mask id="P" width="3" height="4" x="484" y="242" maskUnits="userSpaceOnUse" style="mask-type:luminance"><path fill="#fff" d="M484.847 243.236v1.905a.636.636 0 0 0 1.27 0v-1.905a.635.635 0 0 0-1.27 0Z"/></mask><g mask="url(#P)"><path fill="url(#Q)" d="M484.847 243.236v1.905a.636.636 0 0 0 1.27 0v-1.905a.635.635 0 0 0-1.27 0Z"/></g><mask id="R" width="11" height="11" x="480" y="240" maskUnits="userSpaceOnUse" style="mask-type:luminance"><path fill="#fff" d="M485.482 250.062a4.921 4.921 0 1 1 0-9.843 4.921 4.921 0 0 1 0 9.843Z"/></mask><g mask="url(#R)"><path fill="#8EA9DE" d="M485.482 250.062a4.921 4.921 0 1 1 0-9.843 4.921 4.921 0 0 1 0 9.843Z"/></g><mask id="S" width="7" height="8" x="457" y="211" maskUnits="userSpaceOnUse" style="mask-type:luminance"><path fill="#fff" d="M460.64 218.271a3.303 3.303 0 1 1 0-6.605 3.303 3.303 0 0 1 0 6.605Z"/></mask><g mask="url(#S)"><path fill="#8EA9DE" d="M460.64 218.271a3.303 3.303 0 1 1 0-6.605 3.303 3.303 0 0 1 0 6.605Z"/></g><mask id="T" width="2" height="4" x="403" y="295" maskUnits="userSpaceOnUse" style="mask-type:luminance"><path fill="#fff" d="M403.256 296.185v1.905a.634.634 0 1 0 1.27 0v-1.905a.635.635 0 0 0-1.27 0Z"/></mask><g mask="url(#T)"><path fill="url(#U)" d="M403.256 296.185v1.905a.634.634 0 1 0 1.27 0v-1.905a.635.635 0 0 0-1.27 0Z"/></g><mask id="V" width="36" height="140" x="403" y="301" maskUnits="userSpaceOnUse" style="mask-type:luminance"><path fill="#fff" d="M403.256 301.949v3.859a.635.635 0 1 0 1.27 0v-3.859a.635.635 0 0 0-1.27 0Zm0 7.718v3.86a.635.635 0 0 0 1.27 0v-3.86a.635.635 0 0 0-1.27 0Zm0 7.719v3.859a.635.635 0 1 0 1.27 0v-3.859a.635.635 0 0 0-1.27 0Zm0 7.718v3.858a.635.635 0 1 0 1.27 0v-3.858a.634.634 0 0 0-1.27 0Zm0 7.718v3.859a.635.635 0 1 0 1.27 0v-3.859a.635.635 0 0 0-1.27 0Zm0 7.718v3.86a.634.634 0 0 0 1.27 0v-3.86a.636.636 0 0 0-1.27 0Zm0 7.719v3.859a.635.635 0 1 0 1.27 0v-3.859a.635.635 0 1 0-1.27 0Zm0 7.717v3.859a.635.635 0 1 0 1.27 0v-3.859a.636.636 0 0 0-1.27 0Zm0 7.719v3.859a.635.635 0 0 0 1.27 0v-3.859a.635.635 0 0 0-1.27 0Zm0 7.718v3.859a.635.635 0 1 0 1.27 0v-3.859a.636.636 0 0 0-1.27 0Zm0 7.719v3.858a.634.634 0 1 0 1.27 0v-3.858a.635.635 0 1 0-1.27 0Zm0 7.717v3.859a.635.635 0 1 0 1.27 0v-3.859a.635.635 0 0 0-1.27 0Zm0 7.718v3.86a.635.635 0 0 0 1.27 0v-3.86a.636.636 0 0 0-1.27 0Zm0 7.719v3.859a.635.635 0 1 0 1.27 0v-3.859a.635.635 0 0 0-1.27 0Zm0 7.717v3.859a.635.635 0 1 0 1.27 0v-3.859a.636.636 0 0 0-1.27 0Zm0 7.718v3.86a.635.635 0 0 0 1.27 0v-3.86a.636.636 0 0 0-1.27 0Zm0 7.719v.273c0 1.276.158 2.518.457 3.703a.634.634 0 1 0 1.232-.31 13.79 13.79 0 0 1-.419-3.393v-.273a.635.635 0 0 0-1.27 0Zm1.951 7.706a15.207 15.207 0 0 0 2.423 3.201.635.635 0 1 0 .903-.893 13.973 13.973 0 0 1-2.221-2.934.634.634 0 1 0-1.105.626Zm5.602 5.655a15.072 15.072 0 0 0 3.713 1.529.636.636 0 0 0 .323-1.228 13.732 13.732 0 0 1-3.4-1.401.636.636 0 0 0-.636 1.1Zm7.692 2.021h3.859a.635.635 0 1 0 0-1.27h-3.859a.635.635 0 0 0 0 1.27Zm7.718 0h3.86a.635.635 0 0 0 0-1.27h-3.86a.636.636 0 0 0 0 1.27Zm7.719 0h3.858a.634.634 0 1 0 0-1.27h-3.858a.635.635 0 1 0 0 1.27Z"/></mask><g mask="url(#V)"><path fill="#87A1CF" d="M403.256 301.949v3.859a.635.635 0 1 0 1.27 0v-3.859a.635.635 0 0 0-1.27 0Zm0 7.718v3.86a.635.635 0 0 0 1.27 0v-3.86a.635.635 0 0 0-1.27 0Zm0 7.719v3.859a.635.635 0 1 0 1.27 0v-3.859a.635.635 0 0 0-1.27 0Zm0 7.718v3.858a.635.635 0 1 0 1.27 0v-3.858a.634.634 0 0 0-1.27 0Zm0 7.718v3.859a.635.635 0 1 0 1.27 0v-3.859a.635.635 0 0 0-1.27 0Zm0 7.718v3.86a.634.634 0 0 0 1.27 0v-3.86a.636.636 0 0 0-1.27 0Zm0 7.719v3.859a.635.635 0 1 0 1.27 0v-3.859a.635.635 0 1 0-1.27 0Zm0 7.717v3.859a.635.635 0 1 0 1.27 0v-3.859a.636.636 0 0 0-1.27 0Zm0 7.719v3.859a.635.635 0 0 0 1.27 0v-3.859a.635.635 0 0 0-1.27 0Zm0 7.718v3.859a.635.635 0 1 0 1.27 0v-3.859a.636.636 0 0 0-1.27 0Zm0 7.719v3.858a.634.634 0 1 0 1.27 0v-3.858a.635.635 0 1 0-1.27 0Zm0 7.717v3.859a.635.635 0 1 0 1.27 0v-3.859a.635.635 0 0 0-1.27 0Zm0 7.718v3.86a.635.635 0 0 0 1.27 0v-3.86a.636.636 0 0 0-1.27 0Zm0 7.719v3.859a.635.635 0 1 0 1.27 0v-3.859a.635.635 0 0 0-1.27 0Zm0 7.717v3.859a.635.635 0 1 0 1.27 0v-3.859a.636.636 0 0 0-1.27 0Zm0 7.718v3.86a.635.635 0 0 0 1.27 0v-3.86a.636.636 0 0 0-1.27 0Zm0 7.719v.273c0 1.276.158 2.518.457 3.703a.634.634 0 1 0 1.232-.31 13.79 13.79 0 0 1-.419-3.393v-.273a.635.635 0 0 0-1.27 0Zm1.951 7.706a15.207 15.207 0 0 0 2.423 3.201.635.635 0 1 0 .903-.893 13.973 13.973 0 0 1-2.221-2.934.634.634 0 1 0-1.105.626Zm5.602 5.655a15.072 15.072 0 0 0 3.713 1.529.636.636 0 0 0 .323-1.228 13.732 13.732 0 0 1-3.4-1.401.636.636 0 0 0-.636 1.1Zm7.692 2.021h3.859a.635.635 0 1 0 0-1.27h-3.859a.635.635 0 0 0 0 1.27Zm7.718 0h3.86a.635.635 0 0 0 0-1.27h-3.86a.636.636 0 0 0 0 1.27Zm7.719 0h3.858a.634.634 0 1 0 0-1.27h-3.858a.635.635 0 1 0 0 1.27Z"/></g><mask id="W" width="4" height="2" x="441" y="439" maskUnits="userSpaceOnUse" style="mask-type:luminance"><path fill="#fff" d="M441.67 440.822h1.905a.635.635 0 0 0 0-1.27h-1.905a.636.636 0 0 0 0 1.27Z"/></mask><g mask="url(#W)"><path fill="url(#X)" d="M441.67 440.822h1.905a.635.635 0 0 0 0-1.27h-1.905a.636.636 0 0 0 0 1.27Z"/></g><mask id="Y" width="8" height="8" x="400" y="292" maskUnits="userSpaceOnUse" style="mask-type:luminance"><path fill="#fff" d="M407.194 296.185a3.304 3.304 0 1 1-6.608 0 3.304 3.304 0 0 1 6.608 0Z"/></mask><g mask="url(#Y)"><path fill="#6092A5" d="M407.194 296.185a3.304 3.304 0 1 1-6.608 0 3.304 3.304 0 0 1 6.608 0Z"/></g><mask id="Z" width="11" height="11" x="438" y="435" maskUnits="userSpaceOnUse" style="mask-type:luminance"><path fill="#fff" d="M448.496 440.187a4.92 4.92 0 1 1-9.841 0 4.92 4.92 0 0 1 9.841 0Z"/></mask><g mask="url(#Z)"><path fill="#87A1CF" d="M448.496 440.187a4.92 4.92 0 1 1-9.841 0 4.92 4.92 0 0 1 9.841 0Z"/></g><mask id="aa" width="84" height="56" x="440" y="121" maskUnits="userSpaceOnUse" style="mask-type:luminance"><path fill="#fff" d="M500.947 174.864h-6.349a.635.635 0 1 0 0 1.27h6.349a.635.635 0 1 0 0-1.27Zm-12.699 0h-6.35a.634.634 0 0 0 0 1.27h6.35a.635.635 0 1 0 0-1.27Zm-12.699 0h-6.35a.635.635 0 0 0 0 1.27h6.35a.635.635 0 0 0 0-1.27Zm-12.699 0h-6.35a.635.635 0 0 0 0 1.27h6.35a.635.635 0 0 0 0-1.27Zm-12.655-.021a8.767 8.767 0 0 1-5.332-2.303.635.635 0 0 0-.86.934 10.032 10.032 0 0 0 6.103 2.635.634.634 0 1 0 .089-1.266Zm-8.068-7.427a8.926 8.926 0 0 1-.102-1.347v-4.9a.636.636 0 0 0-1.27 0v4.9c0 .523.039 1.037.116 1.54a.635.635 0 0 0 1.256-.193Zm-.102-12.596v-6.35a.636.636 0 0 0-1.27 0v6.35a.635.635 0 0 0 1.27 0Zm0-12.699v-6.35a.636.636 0 0 0-1.27 0v6.35a.635.635 0 0 0 1.27 0Zm.285-12.511a8.807 8.807 0 0 1 3.247-4.818.634.634 0 1 0-.76-1.018 10.083 10.083 0 0 0-3.716 5.514.635.635 0 1 0 1.229.322Zm8.808-6.565h6.35a.635.635 0 0 0 0-1.269h-6.35a.634.634 0 1 0 0 1.269Zm12.699 0h6.35a.635.635 0 0 0 0-1.269h-6.35a.634.634 0 1 0 0 1.269Zm12.7 0h6.349a.635.635 0 1 0 0-1.269h-6.349a.634.634 0 1 0 0 1.269Zm12.699 0h6.349a.635.635 0 1 0 0-1.269h-6.349a.634.634 0 1 0 0 1.269Zm12.699 0h6.349a.635.635 0 1 0 0-1.269h-6.349a.634.634 0 1 0 0 1.269Zm12.633.045a8.767 8.767 0 0 1 5.256 2.471.636.636 0 0 0 .89-.907 10.036 10.036 0 0 0-6.018-2.826.635.635 0 1 0-.128 1.262Zm7.829 7.679c.042.351.063.709.063 1.071v5.199a.636.636 0 0 0 1.27 0v-5.199c0-.414-.024-.822-.073-1.225a.634.634 0 1 0-1.26.154Zm.063 12.619v6.35a.636.636 0 0 0 1.27 0v-6.35a.635.635 0 1 0-1.27 0Zm0 12.699v6.35a.636.636 0 0 0 1.27 0v-6.35a.635.635 0 1 0-1.27 0Zm-.359 12.481a8.81 8.81 0 0 1-3.4 4.713.635.635 0 1 0 .729 1.04 10.083 10.083 0 0 0 3.889-5.392.635.635 0 0 0-1.218-.361Zm-8.435 6.296h-6.349a.635.635 0 1 0 0 1.27h6.349a.635.635 0 1 0 0-1.27Z"/></mask><g mask="url(#aa)"><path fill="#A8C0EC" d="M500.947 174.864h-6.349a.635.635 0 1 0 0 1.27h6.349a.635.635 0 1 0 0-1.27Zm-12.699 0h-6.35a.634.634 0 0 0 0 1.27h6.35a.635.635 0 1 0 0-1.27Zm-12.699 0h-6.35a.635.635 0 0 0 0 1.27h6.35a.635.635 0 0 0 0-1.27Zm-12.699 0h-6.35a.635.635 0 0 0 0 1.27h6.35a.635.635 0 0 0 0-1.27Zm-12.655-.021a8.767 8.767 0 0 1-5.332-2.303.635.635 0 0 0-.86.934 10.032 10.032 0 0 0 6.103 2.635.634.634 0 1 0 .089-1.266Zm-8.068-7.427a8.926 8.926 0 0 1-.102-1.347v-4.9a.636.636 0 0 0-1.27 0v4.9c0 .523.039 1.037.116 1.54a.635.635 0 0 0 1.256-.193Zm-.102-12.596v-6.35a.636.636 0 0 0-1.27 0v6.35a.635.635 0 0 0 1.27 0Zm0-12.699v-6.35a.636.636 0 0 0-1.27 0v6.35a.635.635 0 0 0 1.27 0Zm.285-12.511a8.807 8.807 0 0 1 3.247-4.818.634.634 0 1 0-.76-1.018 10.083 10.083 0 0 0-3.716 5.514.635.635 0 1 0 1.229.322Zm8.808-6.565h6.35a.635.635 0 0 0 0-1.269h-6.35a.634.634 0 1 0 0 1.269Zm12.699 0h6.35a.635.635 0 0 0 0-1.269h-6.35a.634.634 0 1 0 0 1.269Zm12.7 0h6.349a.635.635 0 1 0 0-1.269h-6.349a.634.634 0 1 0 0 1.269Zm12.699 0h6.349a.635.635 0 1 0 0-1.269h-6.349a.634.634 0 1 0 0 1.269Zm12.699 0h6.349a.635.635 0 1 0 0-1.269h-6.349a.634.634 0 1 0 0 1.269Zm12.633.045a8.767 8.767 0 0 1 5.256 2.471.636.636 0 0 0 .89-.907 10.036 10.036 0 0 0-6.018-2.826.635.635 0 1 0-.128 1.262Zm7.829 7.679c.042.351.063.709.063 1.071v5.199a.636.636 0 0 0 1.27 0v-5.199c0-.414-.024-.822-.073-1.225a.634.634 0 1 0-1.26.154Zm.063 12.619v6.35a.636.636 0 0 0 1.27 0v-6.35a.635.635 0 1 0-1.27 0Zm0 12.699v6.35a.636.636 0 0 0 1.27 0v-6.35a.635.635 0 1 0-1.27 0Zm-.359 12.481a8.81 8.81 0 0 1-3.4 4.713.635.635 0 1 0 .729 1.04 10.083 10.083 0 0 0 3.889-5.392.635.635 0 0 0-1.218-.361Zm-8.435 6.296h-6.349a.635.635 0 1 0 0 1.27h6.349a.635.635 0 1 0 0-1.27Z"/></g><mask id="ab" width="19" height="44" x="475" y="127" maskUnits="userSpaceOnUse" style="mask-type:luminance"><path fill="#fff" d="M476.959 170.455a1.633 1.633 0 0 1-1.531-2.207l14.797-39.584a1.635 1.635 0 0 1 3.063 1.144l-14.798 39.584a1.637 1.637 0 0 1-1.531 1.063Z"/></mask><g mask="url(#ab)"><path fill="#A8C0EC" d="M476.959 170.455a1.633 1.633 0 0 1-1.531-2.207l14.797-39.584a1.635 1.635 0 0 1 3.063 1.144l-14.798 39.584a1.637 1.637 0 0 1-1.531 1.063Z"/></g><mask id="ac" width="17" height="30" x="457" y="134" maskUnits="userSpaceOnUse" style="mask-type:luminance"><path fill="#fff" d="M470.915 163.615a1.9 1.9 0 0 1-1.349-.559l-10.968-10.966a4.274 4.274 0 0 1 0-6.034l11.205-11.203a1.907 1.907 0 1 1 2.697 2.696l-11.204 11.204a.453.453 0 0 0 0 .639l10.966 10.967a1.905 1.905 0 0 1 0 2.697 1.895 1.895 0 0 1-1.347.559Z"/></mask><g mask="url(#ac)"><path fill="#A8C0EC" d="M470.915 163.615a1.9 1.9 0 0 1-1.349-.559l-10.968-10.966a4.274 4.274 0 0 1 0-6.034l11.205-11.203a1.907 1.907 0 1 1 2.697 2.696l-11.204 11.204a.453.453 0 0 0 0 .639l10.966 10.967a1.905 1.905 0 0 1 0 2.697 1.895 1.895 0 0 1-1.347.559Z"/></g><mask id="ad" width="17" height="30" x="495" y="134" maskUnits="userSpaceOnUse" style="mask-type:luminance"><path fill="#fff" d="M497.564 163.615a1.907 1.907 0 0 1-1.348-3.256l11.204-11.203a.45.45 0 0 0 0-.639l-10.967-10.968a1.905 1.905 0 1 1 2.696-2.696l10.968 10.967a4.27 4.27 0 0 1 0 6.032l-11.204 11.204c-.372.373-.86.559-1.349.559Z"/></mask><g mask="url(#ad)"><path fill="#A8C0EC" d="M497.564 163.615a1.907 1.907 0 0 1-1.348-3.256l11.204-11.203a.45.45 0 0 0 0-.639l-10.967-10.968a1.905 1.905 0 1 1 2.696-2.696l10.968 10.967a4.27 4.27 0 0 1 0 6.032l-11.204 11.204c-.372.373-.86.559-1.349.559Z"/></g><path fill="#8EA9DE" d="M494.219 467.009h25.318s2.207-4.642-.95-10.393c0 0-2.099 1.683-8.384.544 0 0-2.622 2.227-4.434 3.099-1.821.881-12.253 2.929-11.55 6.75Zm71.378-11.315s-3.502 1.804-8.436.667c0 0-.479.655-1.129 2.433-.521 1.424-3.647 4.266-4.246 7.335a.746.746 0 0 0 .736.88h15.093c.35 0 .655-.241.725-.585.314-1.547.768-5.951-2.743-10.73Z"/><path fill="#F68690" d="m510.204 457.16-.299-8.863 9.327.198-.644 8.121s-1.934 2.304-8.384.544Zm46.957-.799-.943-8.064h9.048l.331 7.397s-2.413 2.344-8.436.667Z"/><mask id="ae" width="64" height="144" x="504" y="310" maskUnits="userSpaceOnUse" style="mask-type:luminance"><path fill="#fff" d="M563.645 384.877c-1.271-15.169-2.213-33.13-1.968-37.022.812-12.578-2.364-30.826-7.362-36.646 0 0-23.324 1.026-33.985 1.623-7.424.421-7.746-1.574-7.727-2.055-.273 1.742-4.704 30.381-7.57 75.566-.079 1.234-.148 4.647-.098 5.39.215 4.94.998 15.073 1.956 26.505.969 11.435 2.491 34.778 2.491 34.778 1.712.264 6.528.77 10.352.506 0 0 1.759-18.813 2.895-27.527 1.77-13.546 1.126-36.63.909-40.149 0 0 7.387-26.699 10.193-36.852l2.251.607c11.362 52.254 19.307 102.032 19.307 102.032 4.096.968 8.741.673 10.886-.121 0 0 3.143-35.728-2.53-66.635Z"/></mask><g mask="url(#ae)"><path fill="url(#af)" d="M563.645 384.877c-1.271-15.169-2.213-33.13-1.968-37.022.812-12.578-2.364-30.826-7.362-36.646 0 0-23.324 1.026-33.985 1.623-7.424.421-7.746-1.574-7.727-2.055-.273 1.742-4.704 30.381-7.57 75.566-.079 1.234-.148 4.647-.098 5.39.215 4.94.998 15.073 1.956 26.505.969 11.435 2.491 34.778 2.491 34.778 1.712.264 6.528.77 10.352.506 0 0 1.759-18.813 2.895-27.527 1.77-13.546 1.126-36.63.909-40.149 0 0 7.387-26.699 10.193-36.852l2.251.607c11.362 52.254 19.307 102.032 19.307 102.032 4.096.968 8.741.673 10.886-.121 0 0 3.143-35.728-2.53-66.635Z"/></g><mask id="ag" width="13" height="21" x="503" y="242" maskUnits="userSpaceOnUse" style="mask-type:luminance"><path fill="#fff" d="M510.633 242.505s-3.07 3.36-6.641 19.71h11.747l-5.106-19.71Z"/></mask><g mask="url(#ag)"><path fill="url(#ah)" d="M510.633 242.505s-3.07 3.36-6.641 19.71h11.747l-5.106-19.71Z"/></g><mask id="ai" width="52" height="86" x="508" y="232" maskUnits="userSpaceOnUse" style="mask-type:luminance"><path fill="#fff" d="M511.907 312.456c.294 3.222 10.828 4.573 17.697 4.573 7.73 0 20.863-3.351 24.711-5.82.963-.617-.818-6.168-.906-15.46-.12-12.351 1.291-27.173 1.889-28.935 2.634-7.76 5.068-14.412 4.019-20.608a27.883 27.883 0 0 0-3.811-5.126c-3.869-4.138-13.762-8.146-14.327-8.323-.039-.01-6.091.067-10.071-.061-3.538-.107-4.218-.207-6.755.061-4.09 1.996-10.916 5.539-13.72 9.748-2.448 3.675-2.382 9.05-.382 22.313.678 4.479 1.911 22.321 2.165 35.456.14 7.185-.638 10.782-.509 12.182Z"/></mask><g mask="url(#ai)"><path fill="#3876E5" d="M511.907 312.456c.294 3.222 10.828 4.573 17.697 4.573 7.73 0 20.863-3.351 24.711-5.82.963-.617-.818-6.168-.906-15.46-.12-12.351 1.291-27.173 1.889-28.935 2.634-7.76 5.068-14.412 4.019-20.608a27.883 27.883 0 0 0-3.811-5.126c-3.869-4.138-13.762-8.146-14.327-8.323-.039-.01-6.091.067-10.071-.061-3.538-.107-4.218-.207-6.755.061-4.09 1.996-10.916 5.539-13.72 9.748-2.448 3.675-2.382 9.05-.382 22.313.678 4.479 1.911 22.321 2.165 35.456.14 7.185-.638 10.782-.509 12.182Z"/></g><path fill="#F68690" d="M538.994 234.594c-.611-1.447.708-2.072.407-3.956-1.038-6.467-.657-14.846-.657-14.846l-7.958 6.691-3.751 3.157c-.406 1.881-1.069 4.286-1.624 6.237-.583 1.988.151 3.493.151 3.493l13.432-.776Z"/><path fill="#F25682" d="M535.707 222.49s-3.191 7.048-10.299 9.382c.56-1.947 1.218-4.349 1.626-6.231l3.752-3.158 4.921.007Z"/><path fill="#F68690" d="M518.605 208.291s-1.503 15.761 3.645 18.628c2.826 1.573 8.795.969 12.665-2.643 1.698-1.583 2.71-3.762 3.503-5.944 1.291-3.544 3.269-10.121 2.012-14.331-1.659-5.557-17.694-10.288-21.315.362-.286.841-.39 2.904-.51 3.928Z"/><path fill="#1D2C4C" d="M516.299 202.086c-2.047 2.253-.099 4.222 2.771 5.236 1.086.383 2.422.673 4.051.76 3.143.177 7.381-.375 8.919-.925-.546 2.258-.208 3.886.887 4.697 1.273.944 5.178.953 5.238 1.62.298 3.345.362 5.974.571 10.043l.688-.338c.115-1.369 7.405-17.215 4.969-23.58-1.3-3.397-5.176-2.08-5.176-2.08-2.9-7.476-19.114-9.56-24.011-4.583-3.033 3.084-.447 7.061 1.093 9.15Z"/><path fill="#F68690" d="M535.354 218.216c4.055 2.212 6.583-7.049 2.484-8.088-2.682-.679-3.303 3.106-3.303 3.106s-1.229 3.865.819 4.982Zm36.782 63.472-.007-.007c-.006-8.094-5.704-22.064-6.453-23.708-1.886-4.169-15.019 3.645-14.089 6.703 1.112 3.651 6.564 16.002 6.573 16.022-5.735 1.377-15.151 4.613-20.826 6.539 0 0-3.737 1.038-5.748.986-2.01-.054-4.762-1.054-5.978-1.348-1.218-.293-5.643 2.544-6.394 2.987-.804.474-.082 1.363 1.419 1.27.68-.042 1.817-.354 2.738-.638-.753.422-1.404.788-1.653.929-.741.424-2.212 4.24-2.477 4.665-.264.427 1.416.638 2.237-.181.446-.447 1.116-1.367 1.639-2.121-.509 1.095-.955 2.164-1.082 2.37-.264.426 1.218.505 2.037-.314.558-.557 1.619-1.919 2.252-2.744-.413 1.225-1.011 3.134-.783 3.266.337.194 1.151-.02 1.726-.814.243-.334.52-.827.76-1.285.438.268.925.504 1.48.677 3.72 1.164 6.652-1.461 8.801-1.762 4.072-.12 10.351-.313 15.1-.489 7.862-.289 12.661-1.86 15.853-3.252 3.995-1.743 2.875-7.751 2.875-7.751Z"/><path fill="#E67D87" d="M529.508 288.819c.19-.073.367-.149.543-.224l-.283.113-.26.111Z"/><path fill="#BED4FB" d="M541.179 232.757s.34.517-.517-.988c-.368-.645-1.378-1.904-1.378-1.904s-1.144 3.481-10.175 5.301l1.469 5.457s7.077-2.255 10.601-7.866Z"/><path fill="#BED4FB" d="M525.7 230.843s-.334 1.124 1.175 2.688c.835.866 2.234 1.635 2.234 1.635l-2.599 4.622s-2.157-2.165-2.157-7.031c0 0 .136-.366.548-.926.174-.236.799-.988.799-.988Zm8.459 67.986h-21.544v-2.644l21.572.608a1.017 1.017 0 0 1-.028 2.036Z"/><path fill="#BED4FB" d="M520.995 297.718h-48.16a3.715 3.715 0 0 1-3.648-3.02l-7.231-38.038a2.222 2.222 0 0 1 2.183-2.637h45.474a3.713 3.713 0 0 1 3.649 3.019l7.733 40.676Z"/><mask id="aj" width="60" height="44" x="460" y="255" maskUnits="userSpaceOnUse" style="mask-type:luminance"><path fill="#fff" d="M517.516 298.829H470.7a2.859 2.859 0 0 1-2.81-2.325l-7.482-39.356a1.697 1.697 0 0 1 1.667-2.014h46.817a2.86 2.86 0 0 1 2.809 2.325l7.482 39.357a1.696 1.696 0 0 1-1.667 2.013Z"/></mask><g mask="url(#aj)"><path fill="#BED4FB" d="M517.516 298.829H470.7a2.859 2.859 0 0 1-2.81-2.325l-7.482-39.356a1.697 1.697 0 0 1 1.667-2.014h46.817a2.86 2.86 0 0 1 2.809 2.325l7.482 39.357a1.696 1.696 0 0 1-1.667 2.013Z"/></g><mask id="ak" width="25" height="34" x="545" y="240" maskUnits="userSpaceOnUse" style="mask-type:luminance"><path fill="#fff" d="M555.506 241.08s7.216 6.987 10.156 14.971a3220.033 3220.033 0 0 1 3.968 10.808s-6.931 6.228-16.138 6.546c0 0-7.406-13.263-8.201-19.382-.794-6.12 3.18-16.924 10.215-12.943Z"/></mask><g mask="url(#ak)"><path fill="#3D6FC8" d="M555.506 241.08s7.216 6.987 10.156 14.971a3220.033 3220.033 0 0 1 3.968 10.808s-6.931 6.228-16.138 6.546c0 0-7.406-13.263-8.201-19.382-.794-6.12 3.18-16.924 10.215-12.943Z"/></g><path fill="#D96D7B" d="M482.188 298.829h-2.566s-.398.279-.198.722c.198.444 1.576.896 2.12 1 1.807.344 3.554.029 3.554.029l-2.91-1.751Z"/><path fill="#F68690" d="M493.149 298.073c-.794-.133-1.928-.318-1.928-.318l-1.577-1.714s-.155-.544-.822-1.828c-.793-1.53-2.105-1.612-1.903-.445.039.223.085.496.133.784-.178-.356-.38-.733-.607-1.12-.993-1.683-2.387-1.826-2.158-.504.037.208.079.458.122.721-.08-.147-.16-.293-.249-.443-1.026-1.739-2.467-1.887-2.23-.52.116.666.275 1.674.463 2.588a14.56 14.56 0 0 0-.221-.391c-.775-1.314-1.866-1.427-1.685-.393.179 1.033.494 3.158.853 3.517l.206.173h-.002s1.534 1.571 1.974 1.895c.744.547 1.708.688 1.708.688s1.054.621 1.718.582a5.96 5.96 0 0 0 1.345-.27s.432.193 1.225.299c.794.106 1.853-.374 1.853-.374s1.849.054 2.393-.29c1.148-.725 1.659-1.881 1.659-1.881s-1.476-.624-2.27-.756Z"/><mask id="al" width="69" height="5" x="103" y="81" maskUnits="userSpaceOnUse" style="mask-type:luminance"><path fill="#fff" d="M169.722 85.619h-63.766a2.093 2.093 0 1 1 0-4.186h63.766a2.094 2.094 0 0 1 0 4.186Z"/></mask><g mask="url(#al)"><path fill="#7A83E9" d="M169.722 85.619h-63.766a2.093 2.093 0 1 1 0-4.186h63.766a2.094 2.094 0 0 1 0 4.186Z"/></g><mask id="am" width="48" height="5" x="103" y="89" maskUnits="userSpaceOnUse" style="mask-type:luminance"><path fill="#fff" d="M148.451 93.714h-42.495a2.093 2.093 0 1 1 0-4.185h42.495a2.094 2.094 0 0 1 0 4.185Z"/></mask><g mask="url(#am)"><path fill="#7A83E9" d="M148.451 93.714h-42.495a2.093 2.093 0 1 1 0-4.185h42.495a2.094 2.094 0 0 1 0 4.185Z"/></g><mask id="an" width="14" height="5" x="103" y="97" maskUnits="userSpaceOnUse" style="mask-type:luminance"><path fill="#fff" d="M114.798 101.81h-8.842a2.093 2.093 0 1 1 0-4.186h8.842a2.093 2.093 0 0 1 0 4.186Z"/></mask><g mask="url(#an)"><path fill="#7A83E9" d="M114.798 101.81h-8.842a2.093 2.093 0 1 1 0-4.186h8.842a2.093 2.093 0 0 1 0 4.186Z"/></g><mask id="ao" width="52" height="5" x="120" y="97" maskUnits="userSpaceOnUse" style="mask-type:luminance"><path fill="#fff" d="M169.722 101.81h-47.304a2.093 2.093 0 1 1 0-4.186h47.304a2.093 2.093 0 0 1 0 4.186Z"/></mask><g mask="url(#ao)"><path fill="#7A83E9" d="M169.722 101.81h-47.304a2.093 2.093 0 1 1 0-4.186h47.304a2.093 2.093 0 0 1 0 4.186Z"/></g><mask id="ap" width="19" height="5" x="153" y="89" maskUnits="userSpaceOnUse" style="mask-type:luminance"><path fill="#fff" d="M169.722 93.714h-14.07a2.093 2.093 0 0 1 0-4.185h14.07a2.094 2.094 0 0 1 0 4.185Z"/></mask><g mask="url(#ap)"><path fill="#7A83E9" d="M169.722 93.714h-14.07a2.093 2.093 0 0 1 0-4.185h14.07a2.094 2.094 0 0 1 0 4.185Z"/></g><mask id="aq" width="70" height="49" x="262" y="335" maskUnits="userSpaceOnUse" style="mask-type:luminance"><path fill="#fff" d="M323.955 383.537h-53.178a8.042 8.042 0 0 1-8.042-8.042v-31.662c0-4.441 3.6-8.042 8.042-8.042h53.178a8.042 8.042 0 0 1 8.042 8.042v31.662c0 4.441-3.6 8.042-8.042 8.042Z"/></mask><g mask="url(#aq)"><path fill="#6976FA" d="M323.955 383.537h-53.178a8.042 8.042 0 0 1-8.042-8.042v-31.662c0-4.441 3.6-8.042 8.042-8.042h53.178a8.042 8.042 0 0 1 8.042 8.042v31.662c0 4.441-3.6 8.042-8.042 8.042Z"/></g><path fill="#BED4FB" d="m292.132 350.38 11.437 6.602c2.065 1.192 2.065 4.172 0 5.363l-11.437 6.603c-2.064 1.193-4.644-.297-4.644-2.681V353.06c0-2.383 2.58-3.873 4.644-2.68ZM178.004 201.022h-74.247c-5.523 0-10-4.478-10-10.001v-17.715c0-5.524 4.477-10.002 10-10.002h74.247c5.524 0 10.002 4.478 10.002 10.002v17.715c0 5.523-4.478 10.001-10.002 10.001Z"/><mask id="ar" width="7" height="6" x="105" y="169" maskUnits="userSpaceOnUse" style="mask-type:luminance"><path fill="#fff" d="M111.012 172.051a2.937 2.937 0 1 1-5.875.001 2.937 2.937 0 0 1 5.875-.001Z"/></mask><g mask="url(#ar)"><path fill="#99B2DF" d="M111.012 172.051a2.937 2.937 0 1 1-5.875.001 2.937 2.937 0 0 1 5.875-.001Z"/></g><mask id="as" width="7" height="7" x="105" y="179" maskUnits="userSpaceOnUse" style="mask-type:luminance"><path fill="#fff" d="M111.012 182.164a2.937 2.937 0 1 1-5.874-.002 2.937 2.937 0 0 1 5.874.002Z"/></mask><g mask="url(#as)"><path fill="#99B2DF" d="M111.012 182.164a2.937 2.937 0 1 1-5.874-.002 2.937 2.937 0 0 1 5.874.002Z"/></g><mask id="at" width="7" height="7" x="105" y="189" maskUnits="userSpaceOnUse" style="mask-type:luminance"><path fill="#fff" d="M111.012 192.275a2.937 2.937 0 1 1-5.874-.002 2.937 2.937 0 0 1 5.874.002Z"/></mask><g mask="url(#at)"><path fill="#99B2DF" d="M111.012 192.275a2.937 2.937 0 1 1-5.874-.002 2.937 2.937 0 0 1 5.874.002Z"/></g><mask id="au" width="60" height="2" x="115" y="171" maskUnits="userSpaceOnUse" style="mask-type:luminance"><path fill="#fff" d="M174.195 172.686h-57.939a.634.634 0 1 1 0-1.27h57.939a.635.635 0 0 1 0 1.27Z"/></mask><g mask="url(#au)"><path fill="#99B2DF" d="M174.195 172.686h-57.939a.634.634 0 1 1 0-1.27h57.939a.635.635 0 0 1 0 1.27Z"/></g><mask id="av" width="60" height="2" x="115" y="181" maskUnits="userSpaceOnUse" style="mask-type:luminance"><path fill="#fff" d="M174.195 182.797h-57.939a.634.634 0 1 1 0-1.27h57.939a.635.635 0 0 1 0 1.27Z"/></mask><g mask="url(#av)"><path fill="#99B2DF" d="M174.195 182.797h-57.939a.634.634 0 1 1 0-1.27h57.939a.635.635 0 0 1 0 1.27Z"/></g><mask id="aw" width="27" height="2" x="115" y="191" maskUnits="userSpaceOnUse" style="mask-type:luminance"><path fill="#fff" d="M140.86 192.91h-24.604a.635.635 0 0 1 0-1.27h24.604a.634.634 0 1 1 0 1.27Z"/></mask><g mask="url(#aw)"><path fill="#99B2DF" d="M140.86 192.91h-24.604a.635.635 0 0 1 0-1.27h24.604a.634.634 0 1 1 0 1.27Z"/></g><mask id="ax" width="101" height="25" x="151" y="440" maskUnits="userSpaceOnUse" style="mask-type:luminance"><path fill="#fff" d="M248.147 464.242h-93.335a3.48 3.48 0 0 1-3.481-3.481V444.11a3.481 3.481 0 0 1 3.481-3.481h93.335a3.481 3.481 0 0 1 3.481 3.481v16.651a3.48 3.48 0 0 1-3.481 3.481Z"/></mask><g mask="url(#ax)"><path fill="url(#ay)" d="M248.147 464.242h-93.335a3.48 3.48 0 0 1-3.481-3.481V444.11a3.481 3.481 0 0 1 3.481-3.481h93.335a3.481 3.481 0 0 1 3.481 3.481v16.651a3.48 3.48 0 0 1-3.481 3.481Z"/></g><mask id="az" width="10" height="14" x="157" y="445" maskUnits="userSpaceOnUse" style="mask-type:luminance"><path fill="#fff" d="M164.963 458.99h-6.166a1.642 1.642 0 0 1-1.642-1.642v-9.824c0-.907.735-1.642 1.642-1.642h6.166c.907 0 1.642.735 1.642 1.642v9.824c0 .906-.735 1.642-1.642 1.642Z"/></mask><g mask="url(#az)"><path fill="#BED4FB" d="M164.963 458.99h-6.166a1.642 1.642 0 0 1-1.642-1.642v-9.824c0-.907.735-1.642 1.642-1.642h6.166c.907 0 1.642.735 1.642 1.642v9.824c0 .906-.735 1.642-1.642 1.642Z"/></g><mask id="aA" width="10" height="14" x="169" y="445" maskUnits="userSpaceOnUse" style="mask-type:luminance"><path fill="#fff" d="M176.979 458.99h-6.166a1.642 1.642 0 0 1-1.642-1.642v-9.824c0-.907.734-1.642 1.642-1.642h6.166c.907 0 1.642.735 1.642 1.642v9.824c0 .906-.735 1.642-1.642 1.642Z"/></mask><g mask="url(#aA)"><path fill="#BED4FB" d="M176.979 458.99h-6.166a1.642 1.642 0 0 1-1.642-1.642v-9.824c0-.907.734-1.642 1.642-1.642h6.166c.907 0 1.642.735 1.642 1.642v9.824c0 .906-.735 1.642-1.642 1.642Z"/></g><path fill="#BED4FB" d="M214.452 458.99h-31.625a1.642 1.642 0 0 1-1.642-1.642v-9.824c0-.907.735-1.642 1.642-1.642h31.625c.906 0 1.642.735 1.642 1.642v9.824c0 .906-.736 1.642-1.642 1.642Z"/><mask id="aB" width="8" height="7" x="219" y="449" maskUnits="userSpaceOnUse" style="mask-type:luminance"><path fill="#fff" d="M226.206 452.456a3.37 3.37 0 1 1-6.74.002 3.37 3.37 0 0 1 6.74-.002Z"/></mask><g mask="url(#aB)"><path fill="url(#aC)" d="M226.206 452.456a3.37 3.37 0 1 1-6.74.002 3.37 3.37 0 0 1 6.74-.002Z"/></g><path fill="#BED4FB" d="M235.4 452.456a3.37 3.37 0 1 1-6.74.001 3.37 3.37 0 0 1 6.74-.001Z"/><mask id="aD" width="9" height="4" x="237" y="450" maskUnits="userSpaceOnUse" style="mask-type:luminance"><path fill="#fff" d="M244.717 453.901h-6.253c-.6 0-1.085-.486-1.085-1.085v-.76c0-.599.485-1.086 1.085-1.086h6.253c.601 0 1.086.487 1.086 1.086v.76c0 .599-.485 1.085-1.086 1.085Z"/></mask><g mask="url(#aD)"><path fill="url(#aE)" d="M244.717 453.901h-6.253c-.6 0-1.085-.486-1.085-1.085v-.76c0-.599.485-1.086 1.085-1.086h6.253c.601 0 1.086.487 1.086 1.086v.76c0 .599-.485 1.085-1.086 1.085Z"/></g><mask id="aF" width="10" height="4" x="161" y="464" maskUnits="userSpaceOnUse" style="mask-type:luminance"><path fill="#fff" d="M170.309 467.051h-8.429v-2.809h8.429v2.809Z"/></mask><g mask="url(#aF)"><path fill="url(#aG)" d="M170.309 467.051h-8.429v-2.809h8.429v2.809Z"/></g><mask id="aH" width="9" height="4" x="233" y="464" maskUnits="userSpaceOnUse" style="mask-type:luminance"><path fill="#fff" d="M241.592 467.051h-8.428v-2.809h8.428v2.809Z"/></mask><g mask="url(#aH)"><path fill="url(#aI)" d="M241.592 467.051h-8.428v-2.809h8.428v2.809Z"/></g><mask id="aJ" width="101" height="24" x="151" y="414" maskUnits="userSpaceOnUse" style="mask-type:luminance"><path fill="#fff" d="M248.147 437.82h-93.335a3.48 3.48 0 0 1-3.481-3.481v-16.65a3.48 3.48 0 0 1 3.481-3.481h93.335a3.48 3.48 0 0 1 3.481 3.481v16.65a3.48 3.48 0 0 1-3.481 3.481Z"/></mask><g mask="url(#aJ)"><path fill="url(#aK)" d="M248.147 437.82h-93.335a3.48 3.48 0 0 1-3.481-3.481v-16.65a3.48 3.48 0 0 1 3.481-3.481h93.335a3.48 3.48 0 0 1 3.481 3.481v16.65a3.48 3.48 0 0 1-3.481 3.481Z"/></g><mask id="aL" width="10" height="14" x="157" y="419" maskUnits="userSpaceOnUse" style="mask-type:luminance"><path fill="#fff" d="M164.963 432.568h-6.166a1.642 1.642 0 0 1-1.642-1.642v-9.824c0-.907.735-1.642 1.642-1.642h6.166c.907 0 1.642.735 1.642 1.642v9.824c0 .907-.735 1.642-1.642 1.642Z"/></mask><g mask="url(#aL)"><path fill="#BED4FB" d="M164.963 432.568h-6.166a1.642 1.642 0 0 1-1.642-1.642v-9.824c0-.907.735-1.642 1.642-1.642h6.166c.907 0 1.642.735 1.642 1.642v9.824c0 .907-.735 1.642-1.642 1.642Z"/></g><path fill="#BED4FB" d="M176.979 432.568h-6.166a1.641 1.641 0 0 1-1.642-1.642v-9.824c0-.907.734-1.642 1.642-1.642h6.166c.907 0 1.642.735 1.642 1.642v9.824c0 .907-.735 1.642-1.642 1.642Zm37.473 0h-31.625a1.642 1.642 0 0 1-1.642-1.642v-9.824c0-.907.735-1.642 1.642-1.642h31.625c.906 0 1.642.735 1.642 1.642v9.824c0 .907-.736 1.642-1.642 1.642Z"/><mask id="aM" width="8" height="8" x="219" y="422" maskUnits="userSpaceOnUse" style="mask-type:luminance"><path fill="#fff" d="M226.206 426.034a3.37 3.37 0 1 1-6.74.002 3.37 3.37 0 0 1 6.74-.002Z"/></mask><g mask="url(#aM)"><path fill="#434BA7" d="M226.206 426.034a3.37 3.37 0 1 1-6.74.002 3.37 3.37 0 0 1 6.74-.002Z"/></g><mask id="aN" width="8" height="8" x="228" y="422" maskUnits="userSpaceOnUse" style="mask-type:luminance"><path fill="#fff" d="M235.4 426.034a3.37 3.37 0 1 1-6.74.001 3.37 3.37 0 0 1 6.74-.001Z"/></mask><g mask="url(#aN)"><path fill="#434BA7" d="M235.4 426.034a3.37 3.37 0 1 1-6.74.001 3.37 3.37 0 0 1 6.74-.001Z"/></g><path fill="#BED4FB" d="M244.717 427.479h-6.253c-.6 0-1.085-.486-1.085-1.085v-.759c0-.6.485-1.086 1.085-1.086h6.253c.601 0 1.086.486 1.086 1.086v.759c0 .599-.485 1.085-1.086 1.085Z"/><mask id="aO" width="10" height="4" x="161" y="437" maskUnits="userSpaceOnUse" style="mask-type:luminance"><path fill="#fff" d="M170.309 440.629h-8.429v-2.809h8.429v2.809Z"/></mask><g mask="url(#aO)"><path fill="url(#aP)" d="M170.309 440.629h-8.429v-2.809h8.429v2.809Z"/></g><mask id="aQ" width="9" height="4" x="233" y="437" maskUnits="userSpaceOnUse" style="mask-type:luminance"><path fill="#fff" d="M241.592 440.629h-8.428v-2.809h8.428v2.809Z"/></mask><g mask="url(#aQ)"><path fill="url(#aR)" d="M241.592 440.629h-8.428v-2.809h8.428v2.809Z"/></g><path fill="#22202B" d="M1.94 468.279h659.718a.635.635 0 1 0 0-1.27H1.94a.634.634 0 1 0 0 1.27Z"/><path fill="#8EA9DE" d="m223.131 277.279 36.644-82.214h18.792l36.762 82.214h-19.967l-30.067-72.584h7.517l-30.185 72.584h-19.496Zm18.322-17.617 5.05-14.446h42.282l5.168 14.446h-52.5Zm82.405 17.617v-82.214h35.587c7.361 0 13.703 1.213 19.027 3.641 5.325 2.349 9.435 5.755 12.332 10.218 2.898 4.463 4.346 9.787 4.346 15.973 0 6.107-1.448 11.392-4.346 15.855-2.897 4.464-7.007 7.909-12.332 10.336-5.324 2.349-11.666 3.523-19.027 3.523h-25.016l8.456-8.573v31.241h-19.027Zm19.027-29.127-8.456-9.044h23.959c5.873 0 10.258-1.253 13.155-3.758 2.897-2.506 4.345-5.99 4.345-10.453 0-4.542-1.448-8.065-4.345-10.571-2.897-2.505-7.282-3.758-13.155-3.758h-23.959l8.456-9.044v46.628Zm65.849 29.127v-82.214h19.027v82.214h-19.027Z"/><path fill="#8EA9DE" d="m223.131 277.279 36.644-82.214h18.792l36.761 82.214h-19.966l-30.067-72.584h7.517l-30.185 72.584h-19.496Zm18.322-17.617 5.05-14.447h42.282l5.168 14.447h-52.5Zm82.405 17.617v-82.214h35.587c7.361 0 13.703 1.213 19.027 3.641 5.325 2.348 9.435 5.755 12.332 10.218 2.897 4.463 4.346 9.787 4.346 15.973 0 6.107-1.449 11.392-4.346 15.855-2.897 4.463-7.007 7.909-12.332 10.336-5.324 2.349-11.666 3.523-19.027 3.523h-25.016l8.456-8.573v31.241h-19.027Zm19.027-29.127-8.456-9.044h23.959c5.873 0 10.258-1.253 13.155-3.758 2.897-2.506 4.345-5.99 4.345-10.453 0-4.542-1.448-8.065-4.345-10.571-2.897-2.505-7.282-3.758-13.155-3.758h-23.959l8.456-9.044v46.628Zm65.849 29.127v-82.214h19.027v82.214h-19.027Z"/><defs><linearGradient id="b" x1="96.059" x2="96.059" y1="-421.713" y2="62.583" gradientUnits="userSpaceOnUse"><stop stop-color="#DFF2F5"/><stop offset="1" stop-color="#EAF8FE"/></linearGradient><linearGradient id="i" x1="103.863" x2="103.863" y1="465.621" y2="450.683" gradientUnits="userSpaceOnUse"><stop stop-color="#CBE6F6"/><stop offset="1" stop-color="#ACD8F3"/></linearGradient><linearGradient id="k" x1="103.863" x2="103.863" y1="458.663" y2="306.203" gradientUnits="userSpaceOnUse"><stop stop-color="#DFF2F5"/><stop offset="1" stop-color="#EAF8FE"/></linearGradient><linearGradient id="m" x1="117.261" x2="117.261" y1="458.663" y2="306.203" gradientUnits="userSpaceOnUse"><stop stop-color="#DFF2F5"/><stop offset="1" stop-color="#EAF8FE"/></linearGradient><linearGradient id="o" x1="103.863" x2="103.863" y1="425.541" y2="361.029" gradientUnits="userSpaceOnUse"><stop stop-color="#DFF2F5"/><stop offset="1" stop-color="#EAF8FE"/></linearGradient><linearGradient id="t" x1="103.228" x2="203.592" y1="326.425" y2="326.425" gradientUnits="userSpaceOnUse"><stop stop-color="#71D1F5"/><stop offset="1" stop-color="#5EBAEB"/></linearGradient><linearGradient id="w" x1="103.228" x2="203.592" y1="242.767" y2="242.767" gradientUnits="userSpaceOnUse"><stop stop-color="#71D1F5"/><stop offset="1" stop-color="#5EBAEB"/></linearGradient><linearGradient id="A" x1="227.953" x2="227.953" y1="88.231" y2="183.432" gradientUnits="userSpaceOnUse"><stop stop-color="#71D1F5"/><stop offset="1" stop-color="#5EBAEB"/></linearGradient><linearGradient id="D" x1="305.472" x2="305.472" y1="88.231" y2="183.432" gradientUnits="userSpaceOnUse"><stop stop-color="#71D1F5"/><stop offset="1" stop-color="#5EBAEB"/></linearGradient><linearGradient id="J" x1="233.603" x2="233.603" y1="295.55" y2="404.319" gradientUnits="userSpaceOnUse"><stop stop-color="#71D1F5"/><stop offset="1" stop-color="#5EBAEB"/></linearGradient><linearGradient id="N" x1="461.593" x2="461.593" y1="214.333" y2="245.776" gradientUnits="userSpaceOnUse"><stop stop-color="#71D1F5"/><stop offset="1" stop-color="#5EBAEB"/></linearGradient><linearGradient id="Q" x1="485.482" x2="485.482" y1="214.333" y2="245.776" gradientUnits="userSpaceOnUse"><stop stop-color="#71D1F5"/><stop offset="1" stop-color="#5EBAEB"/></linearGradient><linearGradient id="U" x1="403.891" x2="403.891" y1="295.55" y2="440.823" gradientUnits="userSpaceOnUse"><stop stop-color="#71D1F5"/><stop offset="1" stop-color="#5EBAEB"/></linearGradient><linearGradient id="X" x1="442.623" x2="442.623" y1="295.55" y2="440.823" gradientUnits="userSpaceOnUse"><stop stop-color="#71D1F5"/><stop offset="1" stop-color="#5EBAEB"/></linearGradient><linearGradient id="af" x1="535.982" x2="535.982" y1="315.949" y2="458.61" gradientUnits="userSpaceOnUse"><stop stop-color="#273674"/><stop offset="1" stop-color="#222456"/></linearGradient><linearGradient id="ah" x1="509.866" x2="509.866" y1="229.014" y2="261.819" gradientUnits="userSpaceOnUse"><stop stop-color="#5B9EDB"/><stop offset="1" stop-color="#4263B7"/></linearGradient><linearGradient id="ay" x1="153.295" x2="270.643" y1="452.436" y2="452.436" gradientUnits="userSpaceOnUse"><stop stop-color="#4147A5"/><stop offset="1" stop-color="#689DDA"/></linearGradient><linearGradient id="aC" x1="247.8" x2="160.046" y1="452.456" y2="452.456" gradientUnits="userSpaceOnUse"><stop stop-color="#CBE6F6"/><stop offset="1" stop-color="#ACD8F3"/></linearGradient><linearGradient id="aE" x1="247.8" x2="160.047" y1="452.436" y2="452.436" gradientUnits="userSpaceOnUse"><stop stop-color="#CBE6F6"/><stop offset="1" stop-color="#ACD8F3"/></linearGradient><linearGradient id="aG" x1="172.372" x2="162.382" y1="461.817" y2="467.912" gradientUnits="userSpaceOnUse"><stop stop-color="#252A65"/><stop offset="1" stop-color="#4147A5"/></linearGradient><linearGradient id="aI" x1="243.656" x2="233.666" y1="461.817" y2="467.912" gradientUnits="userSpaceOnUse"><stop stop-color="#252A65"/><stop offset="1" stop-color="#4147A5"/></linearGradient><linearGradient id="aK" x1="153.295" x2="270.643" y1="426.014" y2="426.014" gradientUnits="userSpaceOnUse"><stop stop-color="#4147A5"/><stop offset="1" stop-color="#689DDA"/></linearGradient><linearGradient id="aP" x1="172.372" x2="162.382" y1="435.395" y2="441.49" gradientUnits="userSpaceOnUse"><stop stop-color="#252A65"/><stop offset="1" stop-color="#4147A5"/></linearGradient><linearGradient id="aR" x1="243.656" x2="233.666" y1="435.395" y2="441.49" gradientUnits="userSpaceOnUse"><stop stop-color="#252A65"/><stop offset="1" stop-color="#4147A5"/></linearGradient></defs></svg>