<svg xmlns="http://www.w3.org/2000/svg" width="653" height="514" fill="none"><path fill="#F5F5F5" fill-opacity=".1" d="M326.5 480.812c139.85 0 253.22-6.612 253.22-14.768s-113.37-14.768-253.22-14.768-253.22 6.612-253.22 14.768 113.37 14.768 253.22 14.768Z"/><path fill="#256FF2" d="M233.852 40.35a13.56 13.56 0 0 1-.992 15.041 13.586 13.586 0 0 1-14.291 4.843 13.587 13.587 0 0 1-6.695-4.16 13.554 13.554 0 0 1-1.969-14.945 13.573 13.573 0 0 1 15.698-7.1 13.589 13.589 0 0 1 8.249 6.321Z"/><path fill="#fff" d="M233.852 40.35a13.56 13.56 0 0 1-.992 15.041 13.586 13.586 0 0 1-14.291 4.843 13.587 13.587 0 0 1-6.695-4.16 13.554 13.554 0 0 1-1.969-14.945 13.573 13.573 0 0 1 15.698-7.1 13.589 13.589 0 0 1 8.249 6.321Z" opacity=".6"/><path fill="#fff" d="M218.664 45.947c.418.73 1.306.678 2.285.43l-1.541-2.687c-.992.783-1.123 1.592-.744 2.257Zm4.767 1.865 1.554 2.61c1.005-.81 1.175-1.592.796-2.244-.378-.653-1.292-.64-2.35-.366Z" opacity=".3"/><path fill="#fff" d="M216.287 37.102a11.58 11.58 0 0 0-2.921 17.671 11.607 11.607 0 0 0 17.92-.586 11.573 11.573 0 0 0 .843-12.845 11.608 11.608 0 0 0-15.842-4.24Zm9.651 15.08.98 1.697-1.241.717-.98-1.683a7.632 7.632 0 0 1-4.427.887l-.209-1.917a6.654 6.654 0 0 0 3.696-.6l-1.737-3.014c-1.907.561-4.022 1.057-5.224-1.044-.901-1.539-.548-3.535 1.672-5.114l-.98-1.708 1.306-.718.967 1.67a7.711 7.711 0 0 1 3.565-.913l.261 1.891a7.057 7.057 0 0 0-2.925.6l1.763 3.053c1.92-.56 4.062-1.096 5.224 1.005.901 1.552.522 3.535-1.711 5.192Z" opacity=".3"/><path fill="#256FF2" d="M261.03 63.037a8.94 8.94 0 0 1-2.787 4.385 8.966 8.966 0 0 1-13.642-2.377 8.944 8.944 0 0 1 4.988-12.904 8.97 8.97 0 0 1 8.324 1.444 8.956 8.956 0 0 1 3.379 5.967 8.932 8.932 0 0 1-.262 3.485Z"/><path fill="#fff" d="M261.03 63.037a8.94 8.94 0 0 1-2.787 4.385 8.966 8.966 0 0 1-13.642-2.377 8.944 8.944 0 0 1 4.988-12.904 8.97 8.97 0 0 1 8.324 1.444 8.956 8.956 0 0 1 3.379 5.967 8.932 8.932 0 0 1-.262 3.485Z" opacity=".6"/><path fill="#fff" d="M251.366 58.484c-.144.535.261.9.862 1.304l.548-1.983c-.822-.117-1.266.183-1.41.679Zm1.332 3.105-.548 1.956c.849.105 1.306-.182 1.423-.652.118-.47-.209-.939-.875-1.304Z" opacity=".3"/><path fill="#fff" d="M254.435 53.279a7.66 7.66 0 0 0-8.077 2.659 7.632 7.632 0 0 0-.631 8.472 7.652 7.652 0 0 0 7.596 3.822 7.648 7.648 0 0 0 5.73-11.355 7.626 7.626 0 0 0-4.618-3.598Zm-2.612 11.48-.339 1.304-.915-.248.34-1.304a5.09 5.09 0 0 1-2.468-1.67l.822-.978a4.364 4.364 0 0 0 1.986 1.448l.613-2.218c-1.149-.64-2.364-1.396-1.933-2.948a2.514 2.514 0 0 1 2.213-1.707c.33-.022.661.022.974.128l.353-1.305.914.261-.353 1.227a4.963 4.963 0 0 1 2.077 1.304l-.771.992a4.79 4.79 0 0 0-1.632-1.096l-.627 2.244c1.149.639 2.39 1.396 1.959 2.935-.366 1.187-1.437 1.93-3.226 1.63h.013Z" opacity=".3"/><path fill="#256FF2" d="M240.448 81.392a6.085 6.085 0 0 1-1.16 6.687 6.104 6.104 0 0 1-9.42-.731 6.09 6.09 0 0 1-.112-6.786 6.098 6.098 0 0 1 2.712-2.288 6.092 6.092 0 0 1 7.98 3.118Z"/><path fill="#fff" d="M240.448 81.392a6.085 6.085 0 0 1-1.16 6.687 6.104 6.104 0 0 1-9.42-.731 6.09 6.09 0 0 1-.112-6.786 6.098 6.098 0 0 1 2.712-2.288 6.092 6.092 0 0 1 7.98 3.118Z" opacity=".6"/><path fill="#fff" d="M233.395 83.127c.144.352.523.378.993.313l-.562-1.304c-.47.326-.574.678-.431.991Zm2.025 1.07.561 1.304c.497-.313.614-.652.47-.965-.143-.313-.535-.404-1.031-.34Z" opacity=".3"/><path fill="#fff" d="M232.769 79.07a5.22 5.22 0 0 0-3.119 4.908 5.22 5.22 0 0 0 6.397 4.953 5.224 5.224 0 0 0 3.981-4.24 5.213 5.213 0 0 0-3.295-5.721 5.23 5.23 0 0 0-3.964.1Zm3.552 7.188.352.796-.587.26-.34-.795a3.399 3.399 0 0 1-2.024.17v-.861a3.126 3.126 0 0 0 1.685-.079l-.64-1.435c-.875.144-1.855.261-2.286-.73-.326-.73 0-1.605 1.006-2.205l-.353-.809.588-.26.353.795a3.175 3.175 0 0 1 1.645-.196v.848a3.162 3.162 0 0 0-1.306.13l.627 1.449c.888-.157 1.868-.287 2.312.704.339.757.052 1.605-.967 2.218h-.065Z" opacity=".3"/><path fill="#256FF2" d="M470.493 383.088c4.644-5.894 3.624-14.433-2.276-19.071-5.901-4.638-14.449-3.62-19.092 2.274-4.643 5.894-3.624 14.432 2.277 19.071 5.9 4.638 14.448 3.62 19.091-2.274Z"/><path fill="#fff" d="M470.493 383.088c4.644-5.894 3.624-14.433-2.276-19.071-5.901-4.638-14.449-3.62-19.092 2.274-4.643 5.894-3.624 14.432 2.277 19.071 5.9 4.638 14.448 3.62 19.091-2.274Z" opacity=".6"/><path fill="#fff" d="M458.576 371.332c-.3.783.274 1.409 1.11 2.035l1.11-2.896c-1.241-.261-1.946.144-2.22.861Zm1.58 4.866-1.097 2.884c1.306.273 1.985-.092 2.247-.796.261-.705-.288-1.435-1.15-2.088Z" opacity=".3"/><path fill="#fff" d="M463.917 363.883a11.607 11.607 0 0 0-12.55 2.91 11.573 11.573 0 0 0-2.114 12.696 11.59 11.59 0 0 0 10.932 6.812 11.589 11.589 0 0 0 10.484-7.48 11.595 11.595 0 0 0-.287-8.862 11.615 11.615 0 0 0-6.465-6.076Zm-5.511 17.051-.692 1.826-1.306-.508.679-1.814a7.606 7.606 0 0 1-3.487-2.857l1.306-1.383a6.734 6.734 0 0 0 2.808 2.479l1.228-3.261c-1.646-1.122-3.37-2.453-2.508-4.723.627-1.67 2.39-2.609 5.028-1.944l.705-1.839 1.306.496-.679 1.813a7.477 7.477 0 0 1 2.939 2.257l-1.306 1.396a7.218 7.218 0 0 0-2.312-1.879l-1.306 3.288c1.646 1.135 3.409 2.452 2.547 4.722-.536 1.592-2.338 2.57-4.95 1.931Z" opacity=".3"/><path fill="#256FF2" d="M483.037 404.69a8.963 8.963 0 0 1-12.381-6.242 8.933 8.933 0 0 1 .399-5.189 8.953 8.953 0 0 1 8.18-5.696 8.967 8.967 0 0 1 8.386 5.386 8.935 8.935 0 0 1 .128 6.813 8.95 8.95 0 0 1-4.712 4.928Z"/><path fill="#fff" d="M483.037 404.69a8.963 8.963 0 0 1-12.381-6.242 8.933 8.933 0 0 1 .399-5.189 8.953 8.953 0 0 1 8.18-5.696 8.967 8.967 0 0 1 8.386 5.386 8.935 8.935 0 0 1 .128 6.813 8.95 8.95 0 0 1-4.712 4.928Z" opacity=".6"/><path fill="#fff" d="M480.438 394.345c-.509.222-.535.783-.444 1.474l1.881-.835c-.457-.691-.967-.848-1.437-.639Zm-1.567 2.987-1.867.822c.457.718.966.887 1.423.692.457-.196.549-.796.444-1.514Z" opacity=".3"/><path fill="#fff" d="M486.42 393.419a7.658 7.658 0 0 0-14.14.307 7.635 7.635 0 0 0 1.844 8.294 7.66 7.66 0 0 0 8.378 1.47 7.66 7.66 0 0 0 3.918-10.071Zm-10.566 5.218-1.175.522-.379-.861 1.163-.522a4.996 4.996 0 0 1-.262-2.961h1.306a4.35 4.35 0 0 0 .131 2.465l2.103-.926c-.235-1.305-.405-2.727 1.057-3.366a2.534 2.534 0 0 1 1.929.058 2.51 2.51 0 0 1 1.323 1.403l1.189-.521.379.861-1.176.521c.308.77.411 1.606.301 2.427h-1.306a4.835 4.835 0 0 0-.183-1.957l-2.129.939c.235 1.305.431 2.74-1.045 3.379-1.084.522-2.325.144-3.226-1.435v-.026Z" opacity=".3"/><path fill="#256FF2" d="M211.846 404.638a6.096 6.096 0 0 1-6.816 6.514 6.09 6.09 0 0 1 .286-12.124 6.108 6.108 0 0 1 4.426 1.457 6.089 6.089 0 0 1 2.104 4.153Z"/><path fill="#fff" d="M211.846 404.638a6.096 6.096 0 0 1-6.816 6.514 6.09 6.09 0 0 1 .286-12.124 6.108 6.108 0 0 1 4.426 1.457 6.089 6.089 0 0 1 2.104 4.153Z" opacity=".6"/><path fill="#fff" d="M204.611 403.96c0 .378.379.521.836.626l-.104-1.396c-.549.13-.758.43-.732.77Zm1.567 1.683.17 1.382c.575-.13.797-.417.758-.743-.04-.326-.444-.561-.928-.639Z" opacity=".3"/><path fill="#fff" d="M205.356 399.915a5.224 5.224 0 0 0-4.635 6.614 5.22 5.22 0 0 0 4.414 3.772 5.235 5.235 0 0 0 2.988-.533 5.22 5.22 0 0 0 2.835-5.065 5.227 5.227 0 0 0-5.602-4.788Zm.992 7.958.079.887h-.64l-.079-.861a3.45 3.45 0 0 1-1.959-.495l.288-.822a2.87 2.87 0 0 0 1.606.469l-.118-1.565c-.888-.143-1.841-.352-1.919-1.435-.066-.796.457-1.539 1.671-1.748l-.065-.887h.64v.874a3.293 3.293 0 0 1 1.619.352l-.261.809a3.178 3.178 0 0 0-1.306-.313l.118 1.578c.888.144 1.854.34 1.946 1.422.143.783-.392 1.514-1.62 1.735Z" opacity=".3"/><path fill="#256FF2" d="M508.112 141.05v4.67l2.403.235a12.467 12.467 0 0 0 1.803 4.305l-1.555 1.866 3.318 3.3 1.867-1.539a12.494 12.494 0 0 0 4.31 1.8l.235 2.401h4.676l.222-2.401a12.575 12.575 0 0 0 4.323-1.748l1.867 1.539 3.304-3.3-1.541-1.866a12.409 12.409 0 0 0 1.789-4.305l2.417-.235v-4.67l-2.417-.222a12.488 12.488 0 0 0-1.789-4.318l1.541-1.865-3.343-3.353-1.868 1.539a12.534 12.534 0 0 0-4.322-1.787l-.223-2.413h-4.675l-.235 2.413a12.467 12.467 0 0 0-4.31 1.787l-1.867-1.539-3.318 3.301 1.554 1.865a12.55 12.55 0 0 0-1.763 4.383l-2.403.157Zm14.719-3.992a6.331 6.331 0 0 1 5.852 3.906 6.32 6.32 0 0 1-1.373 6.895 6.338 6.338 0 0 1-9.746-.959 6.319 6.319 0 0 1 .788-7.989 6.34 6.34 0 0 1 4.479-1.853Zm-10.226 42.19a10.902 10.902 0 0 0 3.696-1.54l1.593 1.305 2.834-2.818-1.306-1.605a10.412 10.412 0 0 0 1.541-3.692l2.064-.182v-3.992l-2.064-.196a10.42 10.42 0 0 0-1.541-3.679l1.306-1.604-2.834-2.818-1.593 1.304a10.88 10.88 0 0 0-3.696-1.539l-.196-2.048h-3.996l-.196 2.048c-1.318.278-2.571.8-3.696 1.539l-1.607-1.304-2.821 2.818 1.306 1.604a10.695 10.695 0 0 0-1.528 3.679l-2.063.196v4.005l2.063.183a10.64 10.64 0 0 0 1.528 3.691l-1.306 1.605 2.821 2.818 1.607-1.305a10.767 10.767 0 0 0 3.696 1.54l.196 2.048h3.996l.196-2.061Zm-7.614-10.528a5.413 5.413 0 0 1 3.346-5.002 5.421 5.421 0 0 1 7.39 3.946 5.412 5.412 0 0 1-2.305 5.557 5.423 5.423 0 0 1-3.011.913 5.396 5.396 0 0 1-2.076-.409 5.405 5.405 0 0 1-3.344-5.005Zm-3.931-13.711 1.306 1.109 2.377-2.375-1.11-1.304a8.89 8.89 0 0 0 1.306-3.092l1.724-.17v-3.352l-1.724-.17a8.89 8.89 0 0 0-1.306-3.092l1.11-1.304-2.377-2.375-1.306 1.109a8.901 8.901 0 0 0-3.095-1.304l-.17-1.722h-3.356l-.17 1.722a8.893 8.893 0 0 0-3.095 1.304l-1.306-1.109-2.377 2.375 1.11 1.304a8.89 8.89 0 0 0-1.306 3.092l-1.724.17v3.352l1.724.17a8.89 8.89 0 0 0 1.306 3.092l-1.11 1.304 2.377 2.375 1.306-1.109a9.14 9.14 0 0 0 3.095 1.304l.17 1.722h3.356l.17-1.722a9.148 9.148 0 0 0 3.095-1.304Zm-9.495-7.593c0-.9.268-1.781.769-2.529a4.555 4.555 0 0 1 7.012-.69 4.55 4.55 0 0 1-3.223 7.772 4.547 4.547 0 0 1-4.214-2.808 4.543 4.543 0 0 1-.344-1.745Z"/><path fill="#fff" d="M508.112 141.05v4.67l2.403.235a12.465 12.465 0 0 0 1.802 4.305l-1.554 1.866 3.317 3.3 1.868-1.539a12.486 12.486 0 0 0 4.31 1.8l.235 2.401h4.675l.222-2.401a12.567 12.567 0 0 0 4.323-1.748l1.868 1.539 3.304-3.3-1.541-1.866a12.409 12.409 0 0 0 1.789-4.305l2.416-.235v-4.67l-2.416-.222a12.488 12.488 0 0 0-1.789-4.318l1.541-1.865-3.343-3.353-1.868 1.539a12.539 12.539 0 0 0-4.323-1.787l-.222-2.413h-4.675l-.235 2.413a12.467 12.467 0 0 0-4.31 1.787l-1.868-1.539-3.317 3.301 1.554 1.865a12.531 12.531 0 0 0-1.763 4.383l-2.403.157Zm14.719-3.992a6.337 6.337 0 0 1 5.852 3.906 6.325 6.325 0 0 1-4.617 8.627 6.339 6.339 0 0 1-6.502-2.691 6.319 6.319 0 0 1 .788-7.989 6.34 6.34 0 0 1 4.479-1.853Zm-10.226 42.19a10.902 10.902 0 0 0 3.696-1.54l1.593 1.305 2.834-2.818-1.306-1.605a10.394 10.394 0 0 0 1.541-3.692l2.064-.182v-3.992l-2.064-.196a10.42 10.42 0 0 0-1.541-3.679l1.306-1.604-2.834-2.818-1.593 1.304a10.88 10.88 0 0 0-3.696-1.539l-.196-2.048h-3.996l-.196 2.048c-1.318.278-2.571.8-3.696 1.539l-1.606-1.304-2.821 2.818 1.306 1.604a10.656 10.656 0 0 0-1.528 3.679l-2.064.196v4.005l2.064.183a10.603 10.603 0 0 0 1.528 3.691l-1.306 1.605 2.821 2.818 1.606-1.305a10.767 10.767 0 0 0 3.696 1.54l.196 2.048h3.996l.196-2.061Zm-7.614-10.528a5.42 5.42 0 0 1 9.252-3.828 5.408 5.408 0 0 1-.821 8.329 5.423 5.423 0 0 1-3.011.913 5.397 5.397 0 0 1-5.42-5.414Zm-3.931-13.711 1.306 1.109 2.377-2.375-1.11-1.304a8.89 8.89 0 0 0 1.306-3.092l1.724-.17v-3.352l-1.724-.17a8.89 8.89 0 0 0-1.306-3.092l1.11-1.304-2.377-2.375-1.306 1.109a8.901 8.901 0 0 0-3.095-1.304l-.17-1.722h-3.356l-.17 1.722a8.893 8.893 0 0 0-3.095 1.304l-1.306-1.109-2.377 2.375 1.11 1.304a8.89 8.89 0 0 0-1.306 3.092l-1.724.17v3.352l1.724.17a8.89 8.89 0 0 0 1.306 3.092l-1.11 1.304 2.377 2.375 1.306-1.109a9.14 9.14 0 0 0 3.095 1.304l.17 1.722h3.356l.17-1.722a9.148 9.148 0 0 0 3.095-1.304Zm-9.495-7.593c0-.9.268-1.781.769-2.529a4.555 4.555 0 0 1 7.012-.69 4.55 4.55 0 0 1-3.223 7.772 4.547 4.547 0 0 1-4.214-2.808 4.543 4.543 0 0 1-.344-1.745Z" opacity=".6"/><path fill="#256FF2" d="m135.053 255.448-3.46 3.131 1.436 1.943a12.624 12.624 0 0 0-1.998 4.214l-2.416.117-.235 4.658 2.403.352a12.32 12.32 0 0 0 1.567 4.396l-1.646 1.788 3.148 3.457 1.933-1.435a12.578 12.578 0 0 0 4.231 1.996l.105 2.413 4.675.235.34-2.4a12.49 12.49 0 0 0 4.414-1.553l1.776 1.631 3.474-3.131-1.45-1.996a12.536 12.536 0 0 0 2.064-4.175l2.429-.104.235-4.657-2.403-.353a12.483 12.483 0 0 0-1.567-4.409l1.632-1.774-3.134-3.47-1.933 1.448a12.673 12.673 0 0 0-4.231-1.996l-.17-2.427-4.676-.222-.352 2.388a12.7 12.7 0 0 0-4.401 1.565l-1.79-1.63Zm12.838 8.231a6.32 6.32 0 0 1 1.019 6.957 6.333 6.333 0 0 1-9.503 2.358 6.316 6.316 0 0 1-2.358-6.624 6.317 6.317 0 0 1 1.896-3.147 6.312 6.312 0 0 1 2.122-1.269 6.303 6.303 0 0 1 2.446-.359 6.315 6.315 0 0 1 4.378 2.084Zm-27.922-4.07.078 1.735 3.357.17.248-1.722a8.844 8.844 0 0 0 3.161-1.122l1.306 1.174 2.494-2.244-1.032-1.396a9.018 9.018 0 0 0 1.437-3.039l1.737-.079.17-3.352-1.724-.248a9.137 9.137 0 0 0-1.123-3.157l1.175-1.305-2.259-2.492-1.398 1.044a8.85 8.85 0 0 0-3.03-1.435l-.078-1.748-3.357-.17-.248 1.722a9.156 9.156 0 0 0-3.173 1.122l-1.306-1.161-2.495 2.244 1.045 1.396a8.855 8.855 0 0 0-1.437 3.026l-1.737.079-.169 3.352 1.724.248a8.87 8.87 0 0 0 1.123 3.17l-1.176 1.305 2.26 2.492 1.384-1.044a8.812 8.812 0 0 0 3.043 1.435Zm-.77-12.093a4.55 4.55 0 0 1 4.995-.728 4.542 4.542 0 0 1 2.587 4.33 4.542 4.542 0 0 1-5.648 4.173 4.545 4.545 0 0 1-2.261-1.357 4.536 4.536 0 0 1 .327-6.444v.026Z"/><path fill="#fff" d="m135.053 255.448-3.46 3.13 1.436 1.944a12.624 12.624 0 0 0-1.998 4.214l-2.416.117-.235 4.658 2.403.352a12.32 12.32 0 0 0 1.567 4.396l-1.646 1.788 3.148 3.457 1.933-1.435a12.578 12.578 0 0 0 4.231 1.996l.105 2.413 4.675.235.34-2.4a12.49 12.49 0 0 0 4.414-1.553l1.776 1.631 3.474-3.131-1.45-1.996a12.536 12.536 0 0 0 2.064-4.175l2.429-.104.235-4.657-2.403-.353a12.483 12.483 0 0 0-1.567-4.409l1.632-1.774-3.134-3.47-1.933 1.448a12.673 12.673 0 0 0-4.231-1.996l-.17-2.427-4.676-.222-.352 2.388a12.7 12.7 0 0 0-4.401 1.565l-1.79-1.63Zm12.838 8.231a6.32 6.32 0 0 1 1.019 6.957 6.333 6.333 0 0 1-9.503 2.358 6.316 6.316 0 0 1-2.358-6.624 6.313 6.313 0 0 1 1.896-3.147 6.312 6.312 0 0 1 2.122-1.269 6.303 6.303 0 0 1 2.446-.359 6.315 6.315 0 0 1 4.378 2.084Zm-27.922-4.07.078 1.735 3.357.17.248-1.722a8.844 8.844 0 0 0 3.161-1.122l1.306 1.174 2.494-2.244-1.032-1.396a9.018 9.018 0 0 0 1.437-3.039l1.737-.079.17-3.352-1.724-.248a9.137 9.137 0 0 0-1.123-3.157l1.175-1.305-2.259-2.492-1.398 1.044a8.85 8.85 0 0 0-3.03-1.435l-.078-1.748-3.357-.17-.248 1.722a9.156 9.156 0 0 0-3.173 1.122l-1.306-1.161-2.495 2.244 1.045 1.396a8.855 8.855 0 0 0-1.437 3.026l-1.737.079-.169 3.352 1.724.248a8.87 8.87 0 0 0 1.123 3.17l-1.176 1.305 2.26 2.492 1.384-1.044a8.812 8.812 0 0 0 3.043 1.435Zm-.77-12.093a4.55 4.55 0 0 1 4.995-.728 4.542 4.542 0 0 1 2.587 4.33 4.542 4.542 0 0 1-5.648 4.173 4.545 4.545 0 0 1-2.261-1.357 4.536 4.536 0 0 1 .327-6.444v.026Z" opacity=".6"/><path fill="#256FF2" d="m326.97 71.06.078 1.748 3.357.17.248-1.722a9.158 9.158 0 0 0 3.174-1.122l1.306 1.16 2.494-2.243-1.045-1.396a8.84 8.84 0 0 0 1.437-3.027l1.737-.078.17-3.353-1.724-.248a8.88 8.88 0 0 0-1.123-3.17l1.175-1.304-2.259-2.492-1.385 1.044a8.804 8.804 0 0 0-3.043-1.435l-.078-1.735-3.357-.17-.326 1.8a8.834 8.834 0 0 0-3.161 1.122l-1.306-1.174-2.494 2.244 1.032 1.396a9.024 9.024 0 0 0-1.437 3.04l-1.737.078-.17 3.34 1.724.26a9.142 9.142 0 0 0 1.123 3.157l-1.162 1.305 2.246 2.492 1.398-1.044a8.858 8.858 0 0 0 3.108 1.357Zm-.757-12.093a4.545 4.545 0 0 1 4.995-.728 4.544 4.544 0 0 1 2.587 4.33 4.544 4.544 0 0 1-5.648 4.172 4.547 4.547 0 0 1-3.172-2.878 4.542 4.542 0 0 1 1.238-4.896Z"/><path fill="#fff" d="m326.97 71.06.078 1.748 3.357.17.248-1.722a9.158 9.158 0 0 0 3.174-1.122l1.306 1.16 2.494-2.243-1.045-1.396a8.84 8.84 0 0 0 1.437-3.027l1.737-.078.17-3.353-1.724-.248a8.88 8.88 0 0 0-1.123-3.17l1.175-1.304-2.259-2.492-1.385 1.044a8.804 8.804 0 0 0-3.043-1.435l-.078-1.735-3.357-.17-.326 1.8a8.834 8.834 0 0 0-3.161 1.122l-1.306-1.174-2.494 2.244 1.032 1.396a9.024 9.024 0 0 0-1.437 3.04l-1.737.078-.17 3.34 1.724.26a9.142 9.142 0 0 0 1.123 3.157l-1.162 1.305 2.246 2.492 1.398-1.044a8.858 8.858 0 0 0 3.108 1.357Zm-.757-12.093a4.545 4.545 0 0 1 4.995-.728 4.544 4.544 0 0 1 2.587 4.33 4.544 4.544 0 0 1-5.648 4.172 4.547 4.547 0 0 1-3.172-2.878 4.542 4.542 0 0 1 1.238-4.896Z" opacity=".6"/><path fill="#263238" d="M325.52 243.276a28.614 28.614 0 0 1-6.66-.783.783.783 0 0 1-.495-.36.797.797 0 0 1-.093-.605.803.803 0 0 1 .364-.49.804.804 0 0 1 .602-.097c2.058.495 4.166.745 6.282.743a27.103 27.103 0 0 0 19.59-8.375.766.766 0 0 1 1.123 0 .793.793 0 0 1 0 1.122 28.737 28.737 0 0 1-20.713 8.845Zm-16.886-6.471-.536.6a28.7 28.7 0 0 1-8.75-11.206.785.785 0 0 1 .405-1.044.797.797 0 0 1 1.045.405 26.815 26.815 0 0 0 8.254 10.567l-.418.678Zm39.271-4.761a.798.798 0 0 1-.64-1.266 26.912 26.912 0 0 0 5.015-12.419.808.808 0 0 1 .901-.692.798.798 0 0 1 .679.887 28.522 28.522 0 0 1-5.315 13.163.789.789 0 0 1-.64.261v.066Zm-49.014-8.637a.814.814 0 0 1-.771-.574 28.992 28.992 0 0 1-1.149-8.049 28.312 28.312 0 0 1 6.021-17.494c.614-.77 1.306-1.526 1.933-2.244a.796.796 0 0 1 1.123 0 .782.782 0 0 1 0 1.122 25.523 25.523 0 0 0-1.816 2.126 26.659 26.659 0 0 0-5.628 16.451 27.34 27.34 0 0 0 1.084 7.606.794.794 0 0 1-.063.601.778.778 0 0 1-.473.377l-.261.078Zm53.285-15.654a.8.8 0 0 1-.758-.574 27.04 27.04 0 0 0-7.282-11.89 27.096 27.096 0 0 0-12.242-6.688.791.791 0 0 1-.508-.933.794.794 0 0 1 .873-.606 28.57 28.57 0 0 1 12.982 7.068 28.518 28.518 0 0 1 7.705 12.605.81.81 0 0 1-.548.991l-.222.027Zm-37.208-17.808a.806.806 0 0 1-.745-.496.773.773 0 0 1 .005-.609.775.775 0 0 1 .439-.421 28.63 28.63 0 0 1 14.066-1.97.767.767 0 0 1 .534.289.781.781 0 0 1 .158.585.796.796 0 0 1-.875.704 27.046 27.046 0 0 0-13.282 1.853.889.889 0 0 1-.3 0v.065Z"/><path fill="#263238" d="M339.364 191.472a.766.766 0 0 1-.405-.105.796.796 0 0 1-.287-1.083l48.531-83.622a.794.794 0 0 1 1.277.293c.064.16.074.336.029.502l-48.531 83.623a.76.76 0 0 1-.614.392Zm125.572 84.431a.682.682 0 0 1-.314-.065l-114.327-48.269a.793.793 0 0 1-.418-1.044.795.795 0 0 1 .173-.259.806.806 0 0 1 .568-.226.778.778 0 0 1 .304.068l114.327 48.269a.798.798 0 0 1 .465.89.794.794 0 0 1-.778.636Z"/><path fill="#fff" d="M325.52 243.276a28.614 28.614 0 0 1-6.66-.783.783.783 0 0 1-.495-.36.797.797 0 0 1-.093-.605.803.803 0 0 1 .364-.49.804.804 0 0 1 .602-.097c2.058.495 4.166.745 6.282.743a27.103 27.103 0 0 0 19.59-8.375.766.766 0 0 1 1.123 0 .793.793 0 0 1 0 1.122 28.737 28.737 0 0 1-20.713 8.845Zm-16.886-6.471-.536.6a28.7 28.7 0 0 1-8.75-11.206.785.785 0 0 1 .405-1.044.797.797 0 0 1 1.045.405 26.815 26.815 0 0 0 8.254 10.567l-.418.678Zm39.271-4.761a.798.798 0 0 1-.64-1.266 26.912 26.912 0 0 0 5.015-12.419.808.808 0 0 1 .901-.692.798.798 0 0 1 .679.887 28.522 28.522 0 0 1-5.315 13.163.789.789 0 0 1-.64.261v.066Zm-49.014-8.637a.814.814 0 0 1-.771-.574 28.992 28.992 0 0 1-1.149-8.049 28.312 28.312 0 0 1 6.021-17.494c.614-.77 1.306-1.526 1.933-2.244a.796.796 0 0 1 1.123 0 .782.782 0 0 1 0 1.122 25.523 25.523 0 0 0-1.816 2.126 26.659 26.659 0 0 0-5.628 16.451 27.34 27.34 0 0 0 1.084 7.606.794.794 0 0 1-.063.601.778.778 0 0 1-.473.377l-.261.078Zm53.285-15.654a.8.8 0 0 1-.758-.574 27.04 27.04 0 0 0-7.282-11.89 27.096 27.096 0 0 0-12.242-6.688.791.791 0 0 1-.508-.933.794.794 0 0 1 .873-.606 28.57 28.57 0 0 1 12.982 7.068 28.518 28.518 0 0 1 7.705 12.605.81.81 0 0 1-.548.991l-.222.027Zm-37.208-17.808a.806.806 0 0 1-.745-.496.773.773 0 0 1 .005-.609.775.775 0 0 1 .439-.421 28.63 28.63 0 0 1 14.066-1.97.767.767 0 0 1 .534.289.781.781 0 0 1 .158.585.796.796 0 0 1-.875.704 27.046 27.046 0 0 0-13.282 1.853.889.889 0 0 1-.3 0v.065Z" opacity=".5"/><path fill="#fff" d="M339.364 191.472a.766.766 0 0 1-.405-.105.796.796 0 0 1-.287-1.083l48.531-83.622a.794.794 0 0 1 1.277.293c.064.16.074.336.029.502l-48.531 83.623a.76.76 0 0 1-.614.392Zm125.572 84.431a.682.682 0 0 1-.314-.065l-114.327-48.269a.793.793 0 0 1-.418-1.044.795.795 0 0 1 .173-.259.806.806 0 0 1 .568-.226.778.778 0 0 1 .304.068l114.327 48.269a.798.798 0 0 1 .465.89.794.794 0 0 1-.778.636Z" opacity=".5"/><path fill="#263238" d="M300.719 203.095a.96.96 0 0 1-.326-.065l-104.206-47.591a.799.799 0 0 1-.392-1.056.801.801 0 0 1 1.058-.392l104.193 47.591a.792.792 0 0 1 .163 1.331.798.798 0 0 1-.49.182Z"/><path fill="#fff" d="M300.719 203.095a.96.96 0 0 1-.326-.065l-104.206-47.591a.799.799 0 0 1-.392-1.056.801.801 0 0 1 1.058-.392l104.193 47.591a.792.792 0 0 1 .163 1.331.798.798 0 0 1-.49.182Z" opacity=".5"/><path fill="#263238" d="M192.112 326.99a.788.788 0 0 1-.6-.287.78.78 0 0 1-.192-.574.773.773 0 0 1 .283-.535l111.01-95.116a.8.8 0 0 1 1.102.097.795.795 0 0 1-.057 1.103l-111.01 95.116a.81.81 0 0 1-.536.196Z"/><path fill="#fff" d="M192.112 326.99a.788.788 0 0 1-.6-.287.78.78 0 0 1-.192-.574.773.773 0 0 1 .283-.535l111.01-95.116a.8.8 0 0 1 1.102.097.795.795 0 0 1-.057 1.103l-111.01 95.116a.81.81 0 0 1-.536.196Z" opacity=".5"/><path fill="#256FF2" d="m519.252 298.355-.078.182-9.233 23.365-3.474 8.793-6.504-11.78-12.812 4.161 12.786-32.34 8.11 3.209 10.709 4.227.496.183Z"/><path fill="#fff" d="m506.558 326.39-5.577-10.071-10.957 3.548 11.062-27.983 16.534 6.523-11.062 27.983Zm-5.368-10.593 5.303 9.588 10.565-26.743-15.672-6.197-10.565 26.744 10.369-3.392Z" opacity=".2"/><path fill="#000" d="m519.174 298.537-9.233 23.365a78.202 78.202 0 0 1-6.034-25.687l4.14-2.27 10.709 4.227.418.365Z" opacity=".2"/><path fill="#256FF2" d="m517.084 330.695 6.504-11.78 12.812 4.161-12.786-32.34-19.315 7.619 12.785 32.34Z"/><path fill="#fff" d="m505.931 298.407 16.521-6.523 11.062 27.983-10.957-3.548-5.564 10.071-11.062-27.983Zm26.917 20.782-10.566-26.744-15.737 6.197 10.579 26.743 5.302-9.588 10.422 3.392Z" opacity=".2"/><path fill="#256FF2" d="m511.769 252.591 2.285-1.788 1.933 2.166 2.573-1.344 1.502 2.466 2.769-.874 1.045 2.713 2.886-.365.548 2.844 2.9.156.026 2.897 2.821.678-.497 2.857 2.665 1.161-.993 2.727 2.403 1.617-1.463 2.505 2.077 2.022-1.894 2.205 1.685 2.361-2.246 1.827 1.227 2.622-2.533 1.396.744 2.804-2.756.914.236 2.896-2.874.417-.287 2.883-2.899-.104-.797 2.779-2.834-.613-1.293 2.596-2.677-1.109-1.724 2.322-2.442-1.566-2.116 1.983-2.116-1.983-2.429 1.566-1.737-2.322-2.677 1.109-1.28-2.596-2.834.613-.797-2.779-2.899.104-.287-2.883-2.874-.417.235-2.896-2.755-.914.744-2.804-2.533-1.396 1.227-2.622-2.246-1.827 1.672-2.361-1.881-2.205 2.076-2.022-1.462-2.505 2.403-1.617-.993-2.727 2.651-1.161-.483-2.857 2.821-.678.026-2.897 2.9-.156.548-2.844 2.873.365 1.045-2.713 2.769.874 1.515-2.466 2.573 1.344 1.919-2.166 2.286 1.788Z"/><path fill="#fff" d="m511.769 252.591 2.285-1.788 1.933 2.166 2.573-1.344 1.502 2.466 2.769-.874 1.045 2.713 2.886-.365.548 2.844 2.9.156.026 2.897 2.821.678-.497 2.857 2.665 1.161-.993 2.727 2.403 1.617-1.463 2.505 2.077 2.022-1.894 2.205 1.685 2.361-2.246 1.827 1.227 2.622-2.533 1.396.744 2.804-2.756.914.236 2.896-2.874.417-.287 2.883-2.899-.104-.797 2.779-2.834-.613-1.293 2.596-2.677-1.109-1.724 2.322-2.442-1.566-2.116 1.983-2.116-1.983-2.429 1.566-1.737-2.322-2.677 1.109-1.28-2.596-2.834.613-.797-2.779-2.899.104-.287-2.883-2.874-.417.235-2.896-2.755-.914.744-2.804-2.533-1.396 1.227-2.622-2.246-1.827 1.672-2.361-1.881-2.205 2.076-2.022-1.462-2.505 2.403-1.617-.993-2.727 2.651-1.161-.483-2.857 2.821-.678.026-2.897 2.9-.156.548-2.844 2.873.365 1.045-2.713 2.769.874 1.515-2.466 2.573 1.344 1.919-2.166 2.286 1.788Z" opacity=".3"/><path fill="#fff" d="M511.769 298.12c12.11 0 21.928-9.807 21.928-21.904s-9.818-21.903-21.928-21.903c-12.11 0-21.928 9.806-21.928 21.903s9.818 21.904 21.928 21.904Z" opacity=".3"/><path fill="#256FF2" d="M498.618 276.216s1.763-3.705 4.048-3.913c4.388-.431 8.881 8.858 8.881 8.858s4.715-10.58 14.444-15.303c0 0-5.642 5.414-10.448 19.699-.378 1.096-5.511 2.609-6.713 1.97-1.201-.639-5.393-10.215-10.212-11.311Z"/><path fill="#263238" d="M510.15 333.669a.794.794 0 0 1-.797-.795.797.797 0 0 1 .797-.796 45.969 45.969 0 0 0 22.894-6.132.778.778 0 0 1 .648-.219.794.794 0 0 1 .574.374.778.778 0 0 1 .06.681.782.782 0 0 1-.499.469 47.4 47.4 0 0 1-23.677 6.353v.065Zm-9.678-1.004h-.17a47.796 47.796 0 0 1-11.218-3.914.797.797 0 0 1 .094-1.474.805.805 0 0 1 .611.039 45.386 45.386 0 0 0 10.84 3.757.8.8 0 0 1 .614.94.78.78 0 0 1-.771.652Zm-13.608-5.218a.878.878 0 0 1-.405-.105 47.85 47.85 0 0 1-17.37-17.285.796.796 0 0 1-.084-.608.808.808 0 0 1 .371-.488.803.803 0 0 1 1.097.287 45.355 45.355 0 0 0 9.012 11.076 45.995 45.995 0 0 0 7.77 5.635.8.8 0 0 1-.391 1.488Zm49.053-1.592a.798.798 0 0 1-.774-.949.807.807 0 0 1 .33-.512 46.149 46.149 0 0 0 8.685-7.501l.078-.105a.798.798 0 0 1 1.123-.065.774.774 0 0 1 .271.547.767.767 0 0 1-.045.308.773.773 0 0 1-.16.267l-.092.104a47.513 47.513 0 0 1-8.972 7.828.879.879 0 0 1-.444.104v-.026Zm14.614-15.655a.73.73 0 0 1-.392-.104.788.788 0 0 1-.39-.791.768.768 0 0 1 .103-.292 45.721 45.721 0 0 0 6.047-22.712v-.17a.786.786 0 0 1 .192-.627.787.787 0 0 1 .598-.27.805.805 0 0 1 .598.27.794.794 0 0 1 .192.627v.17a47.164 47.164 0 0 1-6.256 23.482.782.782 0 0 1-.692.469v-.052Zm-84.72-8.662a.785.785 0 0 1-.758-.548 47.052 47.052 0 0 1-2.233-11.65.791.791 0 0 1 .418-.842.798.798 0 0 1 .93.143.795.795 0 0 1 .232.608c.25 3.824.978 7.602 2.168 11.245a.79.79 0 0 1-.238.852.792.792 0 0 1-.271.153.84.84 0 0 1-.248.091v-.052Zm-2.299-14.429a.735.735 0 0 1-.56-.198.732.732 0 0 1-.236-.545v-.092a47.254 47.254 0 0 1 6.295-23.573.8.8 0 0 1 .483-.427.807.807 0 0 1 .641.07.809.809 0 0 1 .379.522.796.796 0 0 1-.132.631 45.712 45.712 0 0 0-6.073 22.777.826.826 0 0 1-.212.611.816.816 0 0 1-.265.197.825.825 0 0 1-.32.08v-.053Zm93.079-3.104a.8.8 0 0 1-.797-.744 46.404 46.404 0 0 0-2.181-11.258.782.782 0 0 1 .042-.605.77.77 0 0 1 .468-.387.78.78 0 0 1 1.005.496 47.731 47.731 0 0 1 2.246 11.65.792.792 0 0 1-.731.848h-.052Zm-6.204-20.326a.809.809 0 0 1-.692-.391 45.977 45.977 0 0 0-16.847-16.633.824.824 0 0 1-.301-1.096.807.807 0 0 1 1.097-.287 47.952 47.952 0 0 1 8.098 5.87 46.988 46.988 0 0 1 9.285 11.402.796.796 0 0 1-.287 1.083.841.841 0 0 1-.353.105v-.053Zm-74.337-7.971-.64-.482-.562-.574a47.903 47.903 0 0 1 8.933-7.736.793.793 0 0 1 1.016.264.792.792 0 0 1-.128 1.04 46.082 46.082 0 0 0-8.619 7.541v-.053Zm10.657-8.884a.802.802 0 0 1-.772-1.005.798.798 0 0 1 .367-.482 47.604 47.604 0 0 1 23.678-6.379.786.786 0 0 1 .628.191.79.79 0 0 1 .27.598.79.79 0 0 1-.27.598.802.802 0 0 1-.628.191 45.931 45.931 0 0 0-22.842 6.236.844.844 0 0 1-.431.105v-.053Zm43.999-1.5a.83.83 0 0 1-.353-.078 45.446 45.446 0 0 0-10.853-3.731.798.798 0 0 1-.613-.94.807.807 0 0 1 .901-.534 47.485 47.485 0 0 1 11.231 3.913.79.79 0 0 1 .398.455.791.791 0 0 1-.045.602.77.77 0 0 1-.666.365v-.052Z"/><path fill="#fff" d="M510.15 333.669a.794.794 0 0 1-.797-.795.797.797 0 0 1 .797-.796 45.969 45.969 0 0 0 22.894-6.132.778.778 0 0 1 .648-.219.794.794 0 0 1 .574.374.778.778 0 0 1 .06.681.782.782 0 0 1-.499.469 47.4 47.4 0 0 1-23.677 6.353v.065Zm-9.678-1.004h-.17a47.796 47.796 0 0 1-11.218-3.914.797.797 0 0 1 .094-1.474.805.805 0 0 1 .611.039 45.386 45.386 0 0 0 10.84 3.757.8.8 0 0 1 .614.94.78.78 0 0 1-.771.652Zm-13.608-5.218a.878.878 0 0 1-.405-.105 47.85 47.85 0 0 1-17.37-17.285.796.796 0 0 1-.084-.608.808.808 0 0 1 .371-.488.803.803 0 0 1 1.097.287 45.355 45.355 0 0 0 9.012 11.076 45.995 45.995 0 0 0 7.77 5.635.8.8 0 0 1-.391 1.488Zm49.053-1.592a.798.798 0 0 1-.774-.949.807.807 0 0 1 .33-.512 46.149 46.149 0 0 0 8.685-7.501l.078-.105a.798.798 0 0 1 1.123-.065.774.774 0 0 1 .271.547.767.767 0 0 1-.045.308.773.773 0 0 1-.16.267l-.092.104a47.513 47.513 0 0 1-8.972 7.828.879.879 0 0 1-.444.104v-.026Zm14.614-15.655a.73.73 0 0 1-.392-.104.788.788 0 0 1-.39-.791.768.768 0 0 1 .103-.292 45.721 45.721 0 0 0 6.047-22.712v-.17a.786.786 0 0 1 .192-.627.787.787 0 0 1 .598-.27.805.805 0 0 1 .598.27.794.794 0 0 1 .192.627v.17a47.164 47.164 0 0 1-6.256 23.482.782.782 0 0 1-.692.469v-.052Zm-84.72-8.662a.785.785 0 0 1-.758-.548 47.052 47.052 0 0 1-2.233-11.65.791.791 0 0 1 .418-.842.798.798 0 0 1 .93.143.795.795 0 0 1 .232.608c.25 3.824.978 7.602 2.168 11.245a.79.79 0 0 1-.238.852.792.792 0 0 1-.271.153.84.84 0 0 1-.248.091v-.052Zm-2.299-14.429a.735.735 0 0 1-.56-.198.732.732 0 0 1-.236-.545v-.092a47.254 47.254 0 0 1 6.295-23.573.8.8 0 0 1 .483-.427.807.807 0 0 1 .641.07.809.809 0 0 1 .379.522.796.796 0 0 1-.132.631 45.712 45.712 0 0 0-6.073 22.777.826.826 0 0 1-.212.611.816.816 0 0 1-.265.197.825.825 0 0 1-.32.08v-.053Zm93.079-3.104a.8.8 0 0 1-.797-.744 46.404 46.404 0 0 0-2.181-11.258.782.782 0 0 1 .042-.605.77.77 0 0 1 .468-.387.78.78 0 0 1 1.005.496 47.731 47.731 0 0 1 2.246 11.65.792.792 0 0 1-.731.848h-.052Zm-6.204-20.326a.809.809 0 0 1-.692-.391 45.977 45.977 0 0 0-16.847-16.633.824.824 0 0 1-.301-1.096.807.807 0 0 1 1.097-.287 47.952 47.952 0 0 1 8.098 5.87 46.988 46.988 0 0 1 9.285 11.402.796.796 0 0 1-.287 1.083.841.841 0 0 1-.353.105v-.053Zm-74.337-7.971-.64-.482-.562-.574a47.903 47.903 0 0 1 8.933-7.736.793.793 0 0 1 1.016.264.792.792 0 0 1-.128 1.04 46.082 46.082 0 0 0-8.619 7.541v-.053Zm10.657-8.884a.802.802 0 0 1-.772-1.005.798.798 0 0 1 .367-.482 47.604 47.604 0 0 1 23.678-6.379.786.786 0 0 1 .628.191.79.79 0 0 1 .27.598.79.79 0 0 1-.27.598.802.802 0 0 1-.628.191 45.931 45.931 0 0 0-22.842 6.236.844.844 0 0 1-.431.105v-.053Zm43.999-1.5a.83.83 0 0 1-.353-.078 45.446 45.446 0 0 0-10.853-3.731.798.798 0 0 1-.613-.94.807.807 0 0 1 .901-.534 47.485 47.485 0 0 1 11.231 3.913.79.79 0 0 1 .398.455.791.791 0 0 1-.045.602.77.77 0 0 1-.666.365v-.052Z" opacity=".5"/><path fill="#256FF2" d="M380.738 83.57h6.739a1.672 1.672 0 0 1 1.672 1.67v3.314h-10.096V85.24a1.665 1.665 0 0 1 .495-1.185 1.667 1.667 0 0 1 1.19-.484Zm14.902-15.289h6.739a1.67 1.67 0 0 1 1.671 1.67v18.603h-10.095V69.951a1.667 1.667 0 0 1 1.685-1.67Zm14.914 3.314h6.739a1.672 1.672 0 0 1 1.672 1.67V88.54h-10.096V73.278a1.683 1.683 0 0 1 .49-1.194 1.675 1.675 0 0 1 1.195-.49Zm14.902-16.947h6.739a1.674 1.674 0 0 1 1.671 1.67v32.236h-10.095V56.318a1.666 1.666 0 0 1 1.041-1.546c.204-.083.423-.125.644-.124Z"/><path fill="#256FF2" d="m433.918 30.84-2.612.913-3.826 1.33 1.867 1.397-18.244 25.139-16.13-7.227-20.047 23.13 3.918 3.196 17.488-20.195 16.455 7.358 20.609-28.414 1.633 1.227.352-8.35-1.463.496Z"/><path fill="#fff" d="M380.738 83.57h6.739a1.672 1.672 0 0 1 1.672 1.67v3.314h-10.096V85.24a1.665 1.665 0 0 1 .495-1.185 1.667 1.667 0 0 1 1.19-.484Z" opacity=".6"/><path fill="#fff" d="M395.64 68.281h6.739a1.67 1.67 0 0 1 1.671 1.67v18.603h-10.095V69.951a1.667 1.667 0 0 1 1.685-1.67Z" opacity=".5"/><path fill="#fff" d="M410.554 71.595h6.739a1.672 1.672 0 0 1 1.672 1.67V88.54h-10.096V73.278a1.683 1.683 0 0 1 .49-1.194 1.675 1.675 0 0 1 1.195-.49Z" opacity=".3"/><path fill="#fff" d="M425.456 54.648h6.739a1.674 1.674 0 0 1 1.671 1.67v32.236h-10.095V56.318a1.666 1.666 0 0 1 1.041-1.546c.204-.083.423-.125.644-.124Z" opacity=".2"/><path fill="#000" d="m433.918 30.84-2.612.913-3.826 1.33 1.867 1.397-18.244 25.139-16.13-7.227-20.047 23.13 3.918 3.196 17.488-20.195 16.455 7.358 20.609-28.414 1.633 1.227.352-8.35-1.463.496Z" opacity=".1"/><path fill="#263238" d="M436.687 91.542H377.12a1.502 1.502 0 0 1-1.501-1.488 1.502 1.502 0 0 1 1.501-1.5h59.567a1.491 1.491 0 0 1 1.489 1.5 1.487 1.487 0 0 1-1.489 1.488Z"/><path fill="#fff" d="M436.687 91.542H377.12a1.502 1.502 0 0 1-1.501-1.488 1.502 1.502 0 0 1 1.501-1.5h59.567a1.491 1.491 0 0 1 1.489 1.5 1.487 1.487 0 0 1-1.489 1.488Z" opacity=".3"/><path fill="#263238" d="M409.039 112.95a47.174 47.174 0 0 1-10.383-1.162.802.802 0 0 1-.567-.327.79.79 0 0 1-.13-.642.793.793 0 0 1 .718-.616.797.797 0 0 1 .332.046 45.916 45.916 0 0 0 11.415 1.096.75.75 0 0 1 .587.197.736.736 0 0 1 .235.573.79.79 0 0 1-.468.743.788.788 0 0 1-.302.065c-.484.027-.954.027-1.437.027Zm4.336-.196a.788.788 0 0 1-.575-.206.81.81 0 0 1-.261-.551.802.802 0 0 1 .456-.759.792.792 0 0 1 .302-.076 46.575 46.575 0 0 0 9.416-1.891 46.062 46.062 0 0 0 12.812-6.327.788.788 0 0 1 .885-.02.782.782 0 0 1 .349.496.78.78 0 0 1-.32.815 47.481 47.481 0 0 1-22.986 8.506l-.078.013Zm-23.756-4.057a.771.771 0 0 1-.34-.079 47.475 47.475 0 0 1-18.884-15.654.787.787 0 0 1-.133-.595.805.805 0 0 1 .61-.638.787.787 0 0 1 .816.32 45.96 45.96 0 0 0 18.284 15.093.792.792 0 0 1 .163 1.332.804.804 0 0 1-.49.182l-.026.039Zm53.677-10.737a.772.772 0 0 1-.536-.209.77.77 0 0 1-.237-.56.778.778 0 0 1 .237-.562 45.7 45.7 0 0 0 6.661-9.34.796.796 0 0 1 1.071-.313.792.792 0 0 1 .388.466c.03.1.04.204.03.308a.789.789 0 0 1-.092.295 47.445 47.445 0 0 1-6.883 9.667.797.797 0 0 1-.639.248Zm-73.868-7.058a.798.798 0 0 1-.679-.378 47.476 47.476 0 0 1-4.924-10.789v-.13a.798.798 0 0 1 .523-1.005.798.798 0 0 1 .992.522v.144a45.916 45.916 0 0 0 4.767 10.436.803.803 0 0 1 .097.602.794.794 0 0 1-.358.494.81.81 0 0 1-.418.104Zm81.952-5.048a.808.808 0 0 1-.732-1.135 45.823 45.823 0 0 0 4.206-19.1c0-1.395 0-2.83-.196-4.226a.798.798 0 0 1 .718-.861.77.77 0 0 1 .862.718 48.79 48.79 0 0 1 .209 4.37 47.51 47.51 0 0 1-4.349 19.764.795.795 0 0 1-.718.47Zm-88.743-15.238a.796.796 0 0 1-.784-.717 47.912 47.912 0 0 1-.196-4.305 47.583 47.583 0 0 1 4.376-19.83.786.786 0 0 1 .44-.478.798.798 0 0 1 1.105.83.782.782 0 0 1-.109.314 45.99 45.99 0 0 0-4.231 19.164c0 1.383.065 2.779.196 4.161a.798.798 0 0 1-.719.861h-.078Zm90.114-18.603.757-.222-.783.17a45.421 45.421 0 0 0-4.715-10.437.794.794 0 0 1 .248-1.095.786.786 0 0 1 1.097.26 46.804 46.804 0 0 1 4.885 10.724l-.732.313-.757.287Zm-84.72-7.736a.8.8 0 0 1-.785-.876.787.787 0 0 1 .093-.298 47.486 47.486 0 0 1 6.895-9.64.797.797 0 0 1 1.123 0 .788.788 0 0 1 .238.56.777.777 0 0 1-.238.561 46.208 46.208 0 0 0-6.673 9.328.792.792 0 0 1-.627.365h-.026Zm79.039-4.762a.785.785 0 0 1-.653-.326 45.872 45.872 0 0 0-18.284-15.12.796.796 0 1 1 .666-1.448 47.497 47.497 0 0 1 18.859 15.655.8.8 0 0 1-.183 1.109.76.76 0 0 1-.379.13h-.026Zm-64.921-11.14a.792.792 0 0 1-.653-.34.772.772 0 0 1-.028-.873.772.772 0 0 1 .21-.223 47.37 47.37 0 0 1 13.204-6.523 47.853 47.853 0 0 1 9.808-1.956.797.797 0 0 1 .738 1.312.792.792 0 0 1-.581.266 46.171 46.171 0 0 0-22.202 8.18.758.758 0 0 1-.47.156h-.026Zm37.155-7.371h-.078a46.058 46.058 0 0 0-11.428-1.122.768.768 0 0 1-.809-.77.772.772 0 0 1 .215-.566.789.789 0 0 1 .555-.243 46.8 46.8 0 0 1 11.82 1.148.793.793 0 0 1 .335 1.358.797.797 0 0 1-.518.208l-.092-.013Z"/><path fill="#fff" d="M409.039 112.95a47.174 47.174 0 0 1-10.383-1.162.802.802 0 0 1-.567-.327.79.79 0 0 1-.13-.642.793.793 0 0 1 .718-.616.797.797 0 0 1 .332.046 45.916 45.916 0 0 0 11.415 1.096.75.75 0 0 1 .587.197.736.736 0 0 1 .235.573.79.79 0 0 1-.468.743.788.788 0 0 1-.302.065c-.484.027-.954.027-1.437.027Zm4.336-.196a.788.788 0 0 1-.575-.206.81.81 0 0 1-.261-.551.802.802 0 0 1 .456-.759.792.792 0 0 1 .302-.076 46.575 46.575 0 0 0 9.416-1.891 46.062 46.062 0 0 0 12.812-6.327.788.788 0 0 1 .885-.02.782.782 0 0 1 .349.496.78.78 0 0 1-.32.815 47.481 47.481 0 0 1-22.986 8.506l-.078.013Zm-23.756-4.057a.771.771 0 0 1-.34-.079 47.475 47.475 0 0 1-18.884-15.654.787.787 0 0 1-.133-.595.805.805 0 0 1 .61-.638.787.787 0 0 1 .816.32 45.96 45.96 0 0 0 18.284 15.093.792.792 0 0 1 .163 1.332.804.804 0 0 1-.49.182l-.026.039Zm53.677-10.737a.772.772 0 0 1-.536-.209.77.77 0 0 1-.237-.56.778.778 0 0 1 .237-.562 45.7 45.7 0 0 0 6.661-9.34.796.796 0 0 1 1.071-.313.792.792 0 0 1 .388.466c.03.1.04.204.03.308a.789.789 0 0 1-.092.295 47.445 47.445 0 0 1-6.883 9.667.797.797 0 0 1-.639.248Zm-73.868-7.058a.798.798 0 0 1-.679-.378 47.476 47.476 0 0 1-4.924-10.789v-.13a.798.798 0 0 1 .523-1.005.798.798 0 0 1 .992.522v.144a45.916 45.916 0 0 0 4.767 10.436.803.803 0 0 1 .097.602.794.794 0 0 1-.358.494.81.81 0 0 1-.418.104Zm81.952-5.048a.808.808 0 0 1-.732-1.135 45.823 45.823 0 0 0 4.206-19.1c0-1.395 0-2.83-.196-4.226a.798.798 0 0 1 .718-.861.77.77 0 0 1 .862.718 48.79 48.79 0 0 1 .209 4.37 47.51 47.51 0 0 1-4.349 19.764.795.795 0 0 1-.718.47Zm-88.743-15.238a.796.796 0 0 1-.784-.717 47.912 47.912 0 0 1-.196-4.305 47.583 47.583 0 0 1 4.376-19.83.786.786 0 0 1 .44-.478.798.798 0 0 1 1.105.83.782.782 0 0 1-.109.314 45.99 45.99 0 0 0-4.231 19.164c0 1.383.065 2.779.196 4.161a.798.798 0 0 1-.719.861h-.078Zm90.114-18.603.757-.222-.783.17a45.421 45.421 0 0 0-4.715-10.437.794.794 0 0 1 .248-1.095.786.786 0 0 1 1.097.26 46.804 46.804 0 0 1 4.885 10.724l-.732.313-.757.287Zm-84.72-7.736a.8.8 0 0 1-.785-.876.787.787 0 0 1 .093-.298 47.486 47.486 0 0 1 6.895-9.64.797.797 0 0 1 1.123 0 .788.788 0 0 1 .238.56.777.777 0 0 1-.238.561 46.208 46.208 0 0 0-6.673 9.328.792.792 0 0 1-.627.365h-.026Zm79.039-4.762a.785.785 0 0 1-.653-.326 45.872 45.872 0 0 0-18.284-15.12.796.796 0 1 1 .666-1.448 47.497 47.497 0 0 1 18.859 15.655.8.8 0 0 1-.183 1.109.76.76 0 0 1-.379.13h-.026Zm-64.921-11.14a.792.792 0 0 1-.653-.34.772.772 0 0 1-.028-.873.772.772 0 0 1 .21-.223 47.37 47.37 0 0 1 13.204-6.523 47.853 47.853 0 0 1 9.808-1.956.797.797 0 0 1 .738 1.312.792.792 0 0 1-.581.266 46.171 46.171 0 0 0-22.202 8.18.758.758 0 0 1-.47.156h-.026Zm37.155-7.371h-.078a46.058 46.058 0 0 0-11.428-1.122.768.768 0 0 1-.809-.77.772.772 0 0 1 .215-.566.789.789 0 0 1 .555-.243 46.8 46.8 0 0 1 11.82 1.148.793.793 0 0 1 .335 1.358.797.797 0 0 1-.518.208l-.092-.013Z" opacity=".5"/><path fill="#256FF2" d="M142.354 136.314c-2.991-5.322-8.777-7.749-12.943-5.427-4.166 2.323-5.132 8.532-2.142 13.855 2.991 5.323 8.777 7.827 12.943 5.44 4.166-2.387 5.119-8.532 2.142-13.868Zm33.851-18.668-10.252-18.838s-7.157 15.355-17.461 21.108l5.224 9.328.823 1.474 5.224 9.34c10.291-5.74 27.138-3.809 27.138-3.809l-10.696-18.603Z"/><path fill="#fff" d="M142.354 136.314c-2.991-5.322-8.777-7.749-12.943-5.427-4.166 2.323-5.132 8.532-2.142 13.855 2.991 5.323 8.777 7.827 12.943 5.44 4.166-2.387 5.119-8.532 2.142-13.868Zm33.851-18.668-10.252-18.838s-7.157 15.355-17.461 21.108l5.224 9.328.823 1.474 5.224 9.34c10.291-5.74 27.138-3.809 27.138-3.809l-10.696-18.603Z" opacity=".8"/><path fill="#256FF2" d="M141.648 147.416s7.419 10.724 14.366 14.651a1.161 1.161 0 0 0 1.463-.314l5.903-7.318a1.183 1.183 0 0 0 .217-.998 1.18 1.18 0 0 0-.648-.789c-2.925-1.305-9.729-4.593-13.647-9.224-5.133-6.079-7.654 3.992-7.654 3.992Z"/><path fill="#000" d="M141.648 147.416s7.419 10.724 14.366 14.651a1.161 1.161 0 0 0 1.463-.314l5.903-7.318a1.183 1.183 0 0 0 .217-.998 1.18 1.18 0 0 0-.648-.789c-2.925-1.305-9.729-4.593-13.647-9.224-5.133-6.079-7.654 3.992-7.654 3.992Z" opacity=".3"/><path fill="#fff" d="M186.758 136.797c-2.364 1.305-9.064-6.157-14.954-16.698-5.89-10.541-8.776-20.156-6.413-21.474 2.364-1.317 9.051 6.158 14.954 16.699 5.903 10.541 8.829 20.142 6.413 21.473Z"/><path fill="#000" d="M185.843 133.679c-1.763.992-6.987-4.892-11.91-13.346-.288-.482-.562-.978-.849-1.474-.288-.495-.666-1.2-.967-1.774-4.531-8.532-6.752-15.89-5.002-16.868 1.75-.978 7.614 5.584 12.786 14.833s7.823 17.585 5.942 18.629Z" opacity=".4"/><path fill="#256FF2" d="M139.245 152.139s-2.533-1.801-7.13-10.006c-4.963-8.884-4.833-11.376-4.833-11.376l22.999-12.837s.274 3.222 4.937 11.558c4.662 8.337 7.026 9.811 7.026 9.811l-22.999 12.85Z"/><path fill="#fff" d="M173.933 120.333c-.288-.482-.562-.978-.849-1.474-.287-.495-.666-1.2-.967-1.774l2.377-.757a1.112 1.112 0 0 1 1.306.601l.183.339a1.106 1.106 0 0 1-.17 1.435l-1.88 1.63Z"/><path fill="#000" d="M173.933 120.333c-.288-.482-.562-.978-.849-1.474-.287-.495-.666-1.2-.967-1.774l2.377-.757a1.112 1.112 0 0 1 1.306.601l.183.339a1.106 1.106 0 0 1-.17 1.435l-1.88 1.63Z" opacity=".2"/><path fill="#263238" d="M156.628 178.074a47.304 47.304 0 0 1-16.129-2.818.779.779 0 0 1-.45-.41.79.79 0 0 1-.02-.608.788.788 0 0 1 .405-.443.773.773 0 0 1 .601-.026 46.077 46.077 0 0 0 23.612 2.009.794.794 0 0 1 .799 1.234.795.795 0 0 1-.512.331 47.883 47.883 0 0 1-8.306.731Zm11.023-1.305a.796.796 0 0 1-.183-1.565 45.603 45.603 0 0 0 10.709-4.097l.144-.078a.794.794 0 0 1 .997.366.792.792 0 0 1-.253 1.03l-.13.078a48.353 48.353 0 0 1-11.088 4.253l-.196.013Zm-35.641-5.662a.72.72 0 0 1-.418-.13 46.687 46.687 0 0 1-9.233-7.462.79.79 0 0 1-.263-.58.791.791 0 0 1 .845-.806.804.804 0 0 1 .567.29 45.682 45.682 0 0 0 8.92 7.175.797.797 0 0 1-.418 1.474v.039Zm54.748-4.122a.754.754 0 0 1-.601-.287.774.774 0 0 1-.192-.574.772.772 0 0 1 .283-.535 45.828 45.828 0 0 0 13.452-19.477.791.791 0 0 1 1.046-.57.794.794 0 0 1 .526.782.793.793 0 0 1-.083.323 47.2 47.2 0 0 1-13.935 20.129.812.812 0 0 1-.496.209Zm-65.744-5.466a.815.815 0 0 1-.338-.069.81.81 0 0 1-.276-.205 47.652 47.652 0 0 1-10.448-22.178.781.781 0 0 1 .128-.595.795.795 0 0 1 1.439.308 46.11 46.11 0 0 0 10.082 21.421.79.79 0 0 1 .102.879.798.798 0 0 1-.193.243.778.778 0 0 1-.523.235l.027-.039Zm80.358-17.116a.689.689 0 0 1-.222 0 .794.794 0 0 1-.549-.979 45.679 45.679 0 0 0 1.789-11.323.768.768 0 0 1 .244-.564.77.77 0 0 1 .579-.206.79.79 0 0 1 .72.515.803.803 0 0 1 .051.307 47.662 47.662 0 0 1-1.855 11.741.794.794 0 0 1-.783.548l.026-.039Zm-91.329-14.351a.798.798 0 0 1-.72-.515.781.781 0 0 1-.05-.306 47.482 47.482 0 0 1 1.867-11.742.78.78 0 0 1 .379-.47.801.801 0 0 1 .601-.064.792.792 0 0 1 .563.672.79.79 0 0 1-.028.306 46.165 46.165 0 0 0-1.802 11.311.79.79 0 0 1-.513.77.775.775 0 0 1-.323.051l.026-.013Zm92.387-6.835a.783.783 0 0 1-.771-.653 45.731 45.731 0 0 0-4.688-13.398 46.89 46.89 0 0 0-5.446-8.01.775.775 0 0 1-.18-.576.806.806 0 0 1 .088-.295.803.803 0 0 1 .196-.238.775.775 0 0 1 .871-.104.764.764 0 0 1 .239.196 47.553 47.553 0 0 1 10.448 22.177.794.794 0 0 1-.351.812.797.797 0 0 1-.289.115l-.117-.026Zm-89.683-7.45a.822.822 0 0 1-.262 0 .806.806 0 0 1-.452-.408.792.792 0 0 1-.031-.609 47.355 47.355 0 0 1 13.974-20.117.798.798 0 0 1 1.31.672.795.795 0 0 1-.278.542 45.824 45.824 0 0 0-13.517 19.438.77.77 0 0 1-.744.482Zm77.432-16.49a.823.823 0 0 1-.574-.247 45.662 45.662 0 0 0-8.92-7.201.773.773 0 0 1-.364-.493.781.781 0 0 1 .103-.603.793.793 0 0 1 1.097-.248 47.002 47.002 0 0 1 9.233 7.449.797.797 0 0 1 0 1.122.825.825 0 0 1-.575.222Zm-55.583-8.78a.813.813 0 0 1-.718-.403.751.751 0 0 1-.098-.287.768.768 0 0 1 .385-.77l.379.704-.314-.73a47.18 47.18 0 0 1 11.023-4.24.798.798 0 0 1 .894.597.794.794 0 0 1-.515.942 45.895 45.895 0 0 0-10.644 4.097.824.824 0 0 1-.392.09Zm37.796-2.765a.681.681 0 0 1-.275 0 46.043 46.043 0 0 0-23.612-1.97.797.797 0 0 1-.927-.639.805.805 0 0 1 .653-.926c8.18-1.46 16.6-.754 24.422 2.048a.795.795 0 0 1-.261 1.54v-.053Z"/><path fill="#fff" d="M156.628 178.074a47.304 47.304 0 0 1-16.129-2.818.779.779 0 0 1-.45-.41.79.79 0 0 1-.02-.608.788.788 0 0 1 .405-.443.773.773 0 0 1 .601-.026 46.077 46.077 0 0 0 23.612 2.009.794.794 0 0 1 .799 1.234.795.795 0 0 1-.512.331 47.883 47.883 0 0 1-8.306.731Zm11.023-1.305a.796.796 0 0 1-.183-1.565 45.603 45.603 0 0 0 10.709-4.097l.144-.078a.794.794 0 0 1 .997.366.792.792 0 0 1-.253 1.03l-.13.078a48.353 48.353 0 0 1-11.088 4.253l-.196.013Zm-35.641-5.662a.72.72 0 0 1-.418-.13 46.687 46.687 0 0 1-9.233-7.462.79.79 0 0 1-.263-.58.791.791 0 0 1 .845-.806.804.804 0 0 1 .567.29 45.682 45.682 0 0 0 8.92 7.175.797.797 0 0 1-.418 1.474v.039Zm54.748-4.122a.754.754 0 0 1-.601-.287.774.774 0 0 1-.192-.574.772.772 0 0 1 .283-.535 45.828 45.828 0 0 0 13.452-19.477.791.791 0 0 1 1.046-.57.794.794 0 0 1 .526.782.793.793 0 0 1-.083.323 47.2 47.2 0 0 1-13.935 20.129.812.812 0 0 1-.496.209Zm-65.744-5.466a.815.815 0 0 1-.338-.069.81.81 0 0 1-.276-.205 47.652 47.652 0 0 1-10.448-22.178.781.781 0 0 1 .128-.595.795.795 0 0 1 1.439.308 46.11 46.11 0 0 0 10.082 21.421.79.79 0 0 1 .102.879.798.798 0 0 1-.193.243.778.778 0 0 1-.523.235l.027-.039Zm80.358-17.116a.689.689 0 0 1-.222 0 .794.794 0 0 1-.549-.979 45.679 45.679 0 0 0 1.789-11.323.768.768 0 0 1 .244-.564.77.77 0 0 1 .579-.206.79.79 0 0 1 .72.515.803.803 0 0 1 .051.307 47.662 47.662 0 0 1-1.855 11.741.794.794 0 0 1-.783.548l.026-.039Zm-91.329-14.351a.798.798 0 0 1-.72-.515.781.781 0 0 1-.05-.306 47.482 47.482 0 0 1 1.867-11.742.78.78 0 0 1 .379-.47.801.801 0 0 1 .601-.064.792.792 0 0 1 .563.672.79.79 0 0 1-.028.306 46.165 46.165 0 0 0-1.802 11.311.79.79 0 0 1-.513.77.775.775 0 0 1-.323.051l.026-.013Zm92.387-6.835a.783.783 0 0 1-.771-.653 45.731 45.731 0 0 0-4.688-13.398 46.89 46.89 0 0 0-5.446-8.01.775.775 0 0 1-.18-.576.806.806 0 0 1 .088-.295.803.803 0 0 1 .196-.238.775.775 0 0 1 .871-.104.764.764 0 0 1 .239.196 47.553 47.553 0 0 1 10.448 22.177.794.794 0 0 1-.351.812.797.797 0 0 1-.289.115l-.117-.026Zm-89.683-7.45a.822.822 0 0 1-.262 0 .806.806 0 0 1-.452-.408.792.792 0 0 1-.031-.609 47.355 47.355 0 0 1 13.974-20.117.798.798 0 0 1 1.31.672.795.795 0 0 1-.278.542 45.824 45.824 0 0 0-13.517 19.438.77.77 0 0 1-.744.482Zm77.432-16.49a.823.823 0 0 1-.574-.247 45.662 45.662 0 0 0-8.92-7.201.773.773 0 0 1-.364-.493.781.781 0 0 1 .103-.603.793.793 0 0 1 1.097-.248 47.002 47.002 0 0 1 9.233 7.449.797.797 0 0 1 0 1.122.825.825 0 0 1-.575.222Zm-55.583-8.78a.813.813 0 0 1-.718-.403.751.751 0 0 1-.098-.287.768.768 0 0 1 .385-.77l.379.704-.314-.73a47.18 47.18 0 0 1 11.023-4.24.798.798 0 0 1 .894.597.794.794 0 0 1-.515.942 45.895 45.895 0 0 0-10.644 4.097.824.824 0 0 1-.392.09Zm37.796-2.765a.681.681 0 0 1-.275 0 46.043 46.043 0 0 0-23.612-1.97.797.797 0 0 1-.927-.639.805.805 0 0 1 .653-.926c8.18-1.46 16.6-.754 24.422 2.048a.795.795 0 0 1-.261 1.54v-.053Z" opacity=".5"/><path fill="#263238" d="M172.666 361.861H145.71v11.702h26.956v-11.702Z"/><path fill="#fff" d="M172.666 361.861H145.71v11.702h26.956v-11.702Z" opacity=".6"/><path fill="#256FF2" d="M142.576 363.048s-6.635-9.275-6.635-14.128 3.918-7.501 6.635-5.74c0 0-1.306-9.354 0-12.615 1.306-3.262 7.953-1.305 7.953-1.305a5.565 5.565 0 0 1 5.081-3.066 6.07 6.07 0 0 1 5.302 3.066 5.823 5.823 0 0 1 5.524-1.304c3.54.861 3.096 2.778 3.096 2.778s5.08 0 6.19 1.579c1.11 1.578 3.317 22.543-1.306 29.17-4.623 6.627-24.775 8.845-31.84 1.565Z"/><path fill="#fff" d="M177.133 349.898c-.236 4.684-1.006 9.132-2.73 11.598-4.649 6.627-24.749 8.832-31.827 1.552 0 0-6.635-9.275-6.635-14.128s3.997-7.501 6.635-5.74c0 0-1.306-9.354 0-12.615 1.306-3.262 7.966-1.305 7.966-1.305a5.548 5.548 0 0 1 5.081-3.04 6.07 6.07 0 0 1 5.224 3.04 5.768 5.768 0 0 1 5.524-1.304c3.539.848 3.095 2.752 3.095 2.752s5.094 0 6.191 1.579c.757 1.03 1.959 9.667 1.476 17.611Z" opacity=".7"/><path fill="#000" d="M177.133 349.898c-.588-.234-3.723-1.435-4.611.313-.888 1.749-9.285 10.163-12.433 7.019-3.147-3.144-12.237-6.131-12.237-6.131a7.675 7.675 0 0 0 3.774-.992c3.827-2.152 3.161-5.466 1.11-5.309-.509 0-10.16-1.618-10.16-1.618s7.078-.196 7.836-1.187c.757-.992.157-9.758.836-9.589.679.17.313 8.936.483 10.437.17 1.5 6.334 1.565 7.157.73.823-.835.614-12.028 1.802-11.284 1.188.743-.692 11.545.496 12.197 1.189.653 3.762 1.305 4.885.64 1.123-.666 2.142-12.12 2.808-11.624.666.496-.248 10.802.091 11.624.34.822 2.312.861 3.814.522 1.501-.34 2.873-13.32 2.873-13.32.757.991 1.959 9.628 1.476 17.572Z" opacity=".1"/><path fill="#256FF2" d="M145.71 370.132s13.295 4.149 26.956 0l1.842.926v14.351a115.75 115.75 0 0 1-30.822 0l.914-14.233 1.11-1.044Z"/><path fill="#263238" d="M156.524 403.634c-.862 0-1.724 0-2.612-.079a.79.79 0 0 1-.712-.527.782.782 0 0 1 .79-1.051 46.5 46.5 0 0 0 23.208-4.84.797.797 0 0 1 .718 1.409 47.307 47.307 0 0 1-14.039 4.566 48.12 48.12 0 0 1-7.353.522Zm-5.446-.327h-.105a47.576 47.576 0 0 1-11.519-2.87.807.807 0 0 1-.444-1.03.807.807 0 0 1 .725-.511.805.805 0 0 1 .307.054 45.488 45.488 0 0 0 11.127 2.779.794.794 0 0 1 .434 1.374.795.795 0 0 1-.525.204Zm-19.982-7.266a.796.796 0 0 1-.444-.131 47.504 47.504 0 0 1-16.351-18.263.804.804 0 0 1 .107-.879.804.804 0 0 1 .542-.274.773.773 0 0 1 .574.191.769.769 0 0 1 .187.244 45.905 45.905 0 0 0 15.816 17.625.794.794 0 0 1-.431 1.461v.026Zm54.682-2.674a.817.817 0 0 1-.627-.301.788.788 0 0 1-.071-.875c.051-.09.12-.17.202-.233a46.385 46.385 0 0 0 7.967-8.258.807.807 0 0 1 1.451.351.809.809 0 0 1-.145.601 47.256 47.256 0 0 1-8.241 8.532.815.815 0 0 1-.536.183Zm9.782-10.789a.73.73 0 0 1-.431-.131.777.777 0 0 1-.352-.808.772.772 0 0 1 .117-.288 45.62 45.62 0 0 0 7.418-22.477.799.799 0 0 1 1.594.091 47.439 47.439 0 0 1-7.68 23.274.79.79 0 0 1-.666.339Zm-81.795-7.123a.814.814 0 0 1-.731-.483 47.64 47.64 0 0 1-3.265-11.389v-.169a.793.793 0 0 1 .666-.9.77.77 0 0 1 .591.143.789.789 0 0 1 .31.522v.156a46.258 46.258 0 0 0 3.161 11.076.796.796 0 0 1-.418 1.044.694.694 0 0 1-.314 0Zm-3.696-21.082a.794.794 0 0 1-.744-.835 47.293 47.293 0 0 1 7.718-23.247.774.774 0 0 1 .502-.341.79.79 0 0 1 .596.119.799.799 0 0 1 .235 1.096 45.619 45.619 0 0 0-7.458 22.464.787.787 0 0 1-.269.548.812.812 0 0 1-.27.156.815.815 0 0 1-.31.04Zm92.557-5.166-.797.065a45.785 45.785 0 0 0-3.134-10.971.795.795 0 0 1 1.024-1.023.79.79 0 0 1 .438.397 47.227 47.227 0 0 1 3.239 11.323l-.77.209Zm-4.428-13.072a.786.786 0 0 1-.705-.43 45.92 45.92 0 0 0-15.789-17.664.798.798 0 0 1-.117-1.023.796.796 0 0 1 .992-.282A47.319 47.319 0 0 1 198.904 335a.787.787 0 0 1-.353 1.07.821.821 0 0 1-.353.065Zm-78.856-7.005a.82.82 0 0 1-.483-.157.796.796 0 0 1-.157-1.109 47.759 47.759 0 0 1 8.254-8.519.795.795 0 0 1 .884-.081.79.79 0 0 1 .384.474.794.794 0 0 1-.262.847 45.87 45.87 0 0 0-7.993 8.231.784.784 0 0 1-.627.314Zm16.312-13.633a.795.795 0 0 1-.366-1.5 47.59 47.59 0 0 1 14.001-4.475 48.73 48.73 0 0 1 10.017-.496.798.798 0 0 1 .744.835.767.767 0 0 1-.524.719.767.767 0 0 1-.312.038 46.235 46.235 0 0 0-23.207 4.801.877.877 0 0 1-.353.078Zm37.874-1.787a.814.814 0 0 1-.287 0 45.446 45.446 0 0 0-11.127-2.792.8.8 0 0 1-.666-.884.8.8 0 0 1 .861-.695 47.044 47.044 0 0 1 11.519 2.896.796.796 0 0 1 .444 1.031.784.784 0 0 1-.783.444h.039Z"/><path fill="#fff" d="M156.524 403.634c-.862 0-1.724 0-2.612-.079a.79.79 0 0 1-.712-.527.782.782 0 0 1 .79-1.051 46.5 46.5 0 0 0 23.208-4.84.797.797 0 0 1 .718 1.409 47.307 47.307 0 0 1-14.039 4.566 48.12 48.12 0 0 1-7.353.522Zm-5.446-.327h-.105a47.576 47.576 0 0 1-11.519-2.87.807.807 0 0 1-.444-1.03.807.807 0 0 1 .725-.511.805.805 0 0 1 .307.054 45.488 45.488 0 0 0 11.127 2.779.794.794 0 0 1 .434 1.374.795.795 0 0 1-.525.204Zm-19.982-7.266a.796.796 0 0 1-.444-.131 47.504 47.504 0 0 1-16.351-18.263.804.804 0 0 1 .107-.879.804.804 0 0 1 .542-.274.773.773 0 0 1 .574.191.769.769 0 0 1 .187.244 45.905 45.905 0 0 0 15.816 17.625.794.794 0 0 1-.431 1.461v.026Zm54.682-2.674a.817.817 0 0 1-.627-.301.788.788 0 0 1-.071-.875c.051-.09.12-.17.202-.233a46.385 46.385 0 0 0 7.967-8.258.807.807 0 0 1 1.451.351.809.809 0 0 1-.145.601 47.256 47.256 0 0 1-8.241 8.532.815.815 0 0 1-.536.183Zm9.782-10.789a.73.73 0 0 1-.431-.131.777.777 0 0 1-.352-.808.772.772 0 0 1 .117-.288 45.62 45.62 0 0 0 7.418-22.477.799.799 0 0 1 1.594.091 47.439 47.439 0 0 1-7.68 23.274.79.79 0 0 1-.666.339Zm-81.795-7.123a.814.814 0 0 1-.731-.483 47.64 47.64 0 0 1-3.265-11.389v-.169a.793.793 0 0 1 .666-.9.77.77 0 0 1 .591.143.789.789 0 0 1 .31.522v.156a46.258 46.258 0 0 0 3.161 11.076.796.796 0 0 1-.418 1.044.694.694 0 0 1-.314 0Zm-3.696-21.082a.794.794 0 0 1-.744-.835 47.293 47.293 0 0 1 7.718-23.247.774.774 0 0 1 .502-.341.79.79 0 0 1 .596.119.799.799 0 0 1 .235 1.096 45.619 45.619 0 0 0-7.458 22.464.787.787 0 0 1-.269.548.812.812 0 0 1-.27.156.815.815 0 0 1-.31.04Zm92.557-5.166-.797.065a45.785 45.785 0 0 0-3.134-10.971.795.795 0 0 1 1.024-1.023.79.79 0 0 1 .438.397 47.227 47.227 0 0 1 3.239 11.323l-.77.209Zm-4.428-13.072a.786.786 0 0 1-.705-.43 45.92 45.92 0 0 0-15.789-17.664.798.798 0 0 1-.117-1.023.796.796 0 0 1 .992-.282A47.319 47.319 0 0 1 198.904 335a.787.787 0 0 1-.353 1.07.821.821 0 0 1-.353.065Zm-78.856-7.005a.82.82 0 0 1-.483-.157.796.796 0 0 1-.157-1.109 47.759 47.759 0 0 1 8.254-8.519.795.795 0 0 1 .884-.081.79.79 0 0 1 .384.474.794.794 0 0 1-.262.847 45.87 45.87 0 0 0-7.993 8.231.784.784 0 0 1-.627.314Zm16.312-13.633a.795.795 0 0 1-.366-1.5 47.59 47.59 0 0 1 14.001-4.475 48.73 48.73 0 0 1 10.017-.496.798.798 0 0 1 .744.835.767.767 0 0 1-.524.719.767.767 0 0 1-.312.038 46.235 46.235 0 0 0-23.207 4.801.877.877 0 0 1-.353.078Zm37.874-1.787a.814.814 0 0 1-.287 0 45.446 45.446 0 0 0-11.127-2.792.8.8 0 0 1-.666-.884.8.8 0 0 1 .861-.695 47.044 47.044 0 0 1 11.519 2.896.796.796 0 0 1 .444 1.031.784.784 0 0 1-.783.444h.039Z" opacity=".5"/><path fill="#263238" d="M380.974 186.423c-3.918.626-12.629 29.248-16.143 32.992-1.854 1.957-21.993-3.744-21.993-3.744l-2.377 7.41s22.033 9.132 28.027 6.875c10.056-3.705 15.019-24.356 15.019-24.356l-2.533-19.177Z"/><path fill="#fff" d="M383.507 205.587a67.783 67.783 0 0 1-2.991 9.041c-1.763 4.344-4.335 9.288-7.692 12.497a12.77 12.77 0 0 1-4.336 2.818c-5.981 2.27-28.027-6.862-28.027-6.862l2.377-7.397s20.139 5.701 21.993 3.744c3.514-3.744 12.264-32.366 16.129-32.992l2.547 19.151Z" opacity=".2"/><path fill="#EEC1BB" d="m342.002 215.789-7.666-6.875-3.918 9.132s8.202 5.309 10.344 3.118l1.24-5.375Z"/><path fill="#EEC1BB" d="m325.22 209.944-1.071 7.019 6.321 1.03 3.892-9.079-9.142 1.03Z"/><path fill="#256FF2" d="m345.463 215.71-2.86 9.08-3.67-1.617 2.599-8.532 3.931 1.069Z"/><path fill="#fff" d="m345.463 215.71-2.86 9.08-3.67-1.617 2.599-8.532 3.931 1.069Z" opacity=".7"/><path fill="#000" d="M380.516 214.628c-1.763 4.344-4.335 9.288-7.692 12.497-.823-12.08 6.765-21.668 6.765-21.668a29.964 29.964 0 0 1 .927 9.171Z" opacity=".2"/><path fill="#263238" d="M388.718 159.588a40.757 40.757 0 0 1 0 11.076s22.346 3.105 27.779-1.031c5.433-4.135 7.836-28.7-4.271-31.023-12.106-2.322-26.342 5.897-23.508 20.978Zm-17.631 307.187h-1.868l-.522-2.309-6.19 2.791h-15.672s-2.495-2.504 4.976-4.5a5.637 5.637 0 0 0 1.057-.405c3.984-1.865 9.652-8.166 9.652-8.166h8.606c.265.418.5.854.705 1.304.928 1.827 2.547 5.805-.744 11.285Z"/><path fill="#FFC2BC" d="M371.818 455.425c-1.136-1.305-6.308 4.292-10.095 6.184-3.382 1.682-7.183 2.426-8.868.717 3.984-1.865 10.252-10.006 10.252-10.006h6.922s1.385 2.296 1.789 3.105Z"/><path fill="#FFC2BC" d="m362.507 454.186 3.944-33.724 12.381 3.653-8.607 30.358"/><path fill="#263238" d="m416.105 247.607-33.826-1.578s-9.037 58.157-9.86 95.311c-2.612 24.944-5.785 67.525-8.815 93.59a17.208 17.208 0 0 0 6.425 2.401c1.872.389 3.794.481 5.694.273 7.836-22.373 16.978-59.475 16.391-95.337 23.873-57.962 23.991-94.66 23.991-94.66Z"/><path fill="#fff" d="M416.105 247.607s0 20.599-10.122 55.288c-2.612 9.132-6.007 19.242-10.213 30.214-1.162 2.987-2.363 6.04-3.656 9.132.64 35.862-8.581 72.964-16.404 95.337a18.04 18.04 0 0 1-5.668-.274 17.34 17.34 0 0 1-6.451-2.4c3.056-26.091 6.177-68.646 8.815-93.59.849-37.154 9.887-95.311 9.887-95.311l33.812 1.604Z" opacity=".4"/><path fill="#000" d="M405.983 302.895c-2.612 9.132-6.007 19.242-10.212 30.214-2.887-29.627 3.918-46.365 3.918-46.365 3.108 3.796 5.093 9.563 6.294 16.151Z" opacity=".2"/><path fill="#263238" d="M419.435 466.775h-1.867l-.523-2.309-6.19 2.791h-15.672s-2.495-2.504 4.976-4.5a5.673 5.673 0 0 0 1.058-.405c3.983-1.865 9.651-8.166 9.651-8.166h8.606c.265.418.5.854.706 1.304.927 1.827 2.559 5.805-.745 11.285Z"/><path fill="#FFC2BC" d="M420.167 455.425c-1.137-1.305-6.308 4.292-10.096 6.184-3.382 1.682-7.183 2.426-8.868.717 3.984-1.865 10.253-10.006 10.253-10.006h6.921s1.385 2.296 1.79 3.105Z"/><path fill="#FFC2BC" d="m410.855 454.186-.17-36.098 13.217.587-5.734 35.537-7.313-.026Z"/><path fill="#263238" d="M409.497 438.165a35.566 35.566 0 0 0 6.36 1.488 14.26 14.26 0 0 0 5.328-.209c6.034-25.413 12.198-66.35 5.224-90.994 13.191-79.67-4.297-100.96-4.297-100.96l-29.685-3.223s9.56 67.407 12.799 100.361c2.821 28.309 5.289 61.341 4.271 93.537Z"/><path fill="#fff" d="M409.497 438.165a35.566 35.566 0 0 0 6.36 1.488 14.26 14.26 0 0 0 5.328-.209c6.034-25.413 12.198-66.35 5.224-90.994 13.191-79.67-4.297-100.96-4.297-100.96l-29.685-3.223s9.56 67.407 12.799 100.361c2.821 28.309 5.289 61.341 4.271 93.537Z" opacity=".4"/><path fill="#256FF2" d="M416.379 183.031s-23.09 11.428-21.118.978c0 0-8.515-.078-14.118 3.34 0 0-3.317 13.894 0 51.244l-2.403 18.068 13.661 4.122 4.506-13.045 5.459 13.789 23.743-7.41-4.793-13.92s2.416-32.001 9.651-46.625c.013-.052-1.11-10.698-14.588-10.541Z"/><path fill="#fff" d="M416.379 183.031s-23.09 11.428-21.118.978c0 0-8.515-.078-14.118 3.34 0 0-3.03 15.003 0 51.244l-2.403 18.068 13.661 4.122 4.506-13.045 5.459 13.789 23.743-7.41-4.793-13.92s2.416-32.001 9.651-46.625c.013-.052-1.11-10.698-14.588-10.541Z" opacity=".7"/><path fill="#EEC1BB" d="M414.943 163.162c-1.594 5.884-3.553 16.686.274 20.613 0 0 5.224 4.187-10.331 3.718-1.306 3.235-6.53 10.162-6.53 10.162s-2.377-6.523-1.306-8.923c-10.017-.861-.235-4.957-.235-4.957 6.7-1.566 6.896-6.445 6.086-11.024l12.042-9.589Z"/><path fill="#000" d="m410.084 167.076-7.078 5.675c.207 1.07.312 2.158.313 3.248 2.547-.365 6.204-3.118 6.661-5.74a8.67 8.67 0 0 0 .104-3.183Z" opacity=".2"/><path fill="#EEC1BB" d="M419.971 151.33c-1.79 9.51-2.338 13.567-7.771 18.133-8.176 6.862-19.407 3.236-20.478-6.522-.967-8.728 2.116-22.817 11.937-25.961a12.42 12.42 0 0 1 12.4 2.361 12.386 12.386 0 0 1 3.912 11.989Z"/><path fill="#263238" d="M411.782 144.455c5.224 6.784-5.537 14.572 5.224 14.115 10.761-.456 6.412-15.654 0-19.138-6.412-3.483-5.224 5.023-5.224 5.023Zm-6.922 8.467c-.117.795-.627 1.421-1.136 1.382-.509-.039-.849-.717-.731-1.526.117-.809.627-1.422 1.149-1.383.522.039.862.718.718 1.527Zm-9.703-.574c-.105.795-.627 1.421-1.137 1.382-.509-.039-.848-.717-.731-1.526.118-.809.627-1.422 1.149-1.383.523.039.836.718.719 1.527Z"/><path fill="#263238" d="m394.66 150.873-1.815-.691s.757 1.578 1.815.691Z"/><path fill="#D4827D" d="M397.677 153.861a24.06 24.06 0 0 1-3.552 4.931 3.246 3.246 0 0 0 2.742.744l.81-5.675Z"/><path fill="#263238" d="M400.942 162.849a7.697 7.697 0 0 1-1.306 0 .195.195 0 0 1-.161-.074.2.2 0 0 1-.035-.174.254.254 0 0 1 .086-.163.25.25 0 0 1 .176-.058 6.778 6.778 0 0 0 5.459-2.114.234.234 0 0 1 .326 0 .25.25 0 0 1 0 .339 7.158 7.158 0 0 1-4.545 2.244Zm6.661-14.259a.429.429 0 0 1-.327-.143 3.424 3.424 0 0 0-3.082-1.174.441.441 0 0 1-.346-.072.43.43 0 0 1-.176-.307.505.505 0 0 1 .405-.561 4.4 4.4 0 0 1 3.918 1.449.494.494 0 0 1 0 .678.516.516 0 0 1-.392.13Zm-14.627-.874a.426.426 0 0 1-.327-.104.477.477 0 0 1-.102-.513.462.462 0 0 1 .102-.152 4.963 4.963 0 0 1 4.023-1.788.44.44 0 0 1 .307.176.425.425 0 0 1 .071.346.51.51 0 0 1-.548.418 3.922 3.922 0 0 0-3.174 1.448.463.463 0 0 1-.352.169Zm11.414 3.731-1.815-.691s.757 1.578 1.815.691Z"/><path fill="#263238" d="M408.099 139.184s1.868 11.22 9.325 13.046c7.457 1.827 1.41-11.519 1.41-11.519s-1.567-6.08-11.636-6.08c-10.069 0-21.706 10.215-18.48 24.918a16.214 16.214 0 0 1 1.685-8.767c2.233-3.835 4.532-.496 17.696-11.598Z"/><path fill="#263238" d="M414.877 136.354c10.657 4.252 14.536 11.219 13.622 18.955-.914 7.736-10.448 15.942-12.002 16.229l-4.793.678s7.365-10.228 5.942-13.698c-1.424-3.47-2.834-3.809-2.834-3.809l.065-18.355Z"/><path fill="#EEC1BB" d="M420.898 160.462a6.623 6.623 0 0 1-4.049 3.548c-2.207.587-3.173-1.957-2.442-4.487.666-2.283 2.612-5.336 4.793-4.788s2.821 3.535 1.698 5.727Z"/><path fill="#263238" d="M420.219 183.461c-7.209 6.693-11.088 41.968-10.056 53.357 1.031 11.389 10.056 41.877 10.056 41.877l14.222-1.161s-3.435-21.147-12.224-38.015c0 0 5.603-41.916 10.761-52.34 0 0-4.897-1.943-6.412-2.387-1.515-.443-6.347-1.331-6.347-1.331Z"/><path fill="#fff" d="m434.441 277.534-14.222 1.161s-3.03-10.189-5.747-20.991c-1.149-4.5-2.233-9.131-3.043-13.11a72 72 0 0 1-1.306-7.828c-.117-1.304-.182-2.909-.182-4.748.065-14.351 3.826-42.673 10.226-48.609l2.442.457c1.397.287 3.056.626 3.918.874 1.515.444 6.412 2.387 6.412 2.387a40.63 40.63 0 0 0-2.116 5.74c-.182.692-.404 1.422-.587 2.179-2.273 8.467-4.415 20.599-5.943 30.005-1.306 8.206-2.115 14.35-2.115 14.35a101.88 101.88 0 0 1 2.612 5.467 153.483 153.483 0 0 1 9.651 32.666Z" opacity=".2"/><path fill="#263238" d="M420.219 183.461s5.576 11.468 4.283 23.209l-8.397-6.523 4.78 6.197-10.722 19.568s.862-35.08 10.056-42.451Zm-27.714.601s-8.697 14.859-7.143 53.056l-5.224 38.707h-5.681l6.321-38.707s-6.752-29.248.143-50.695a33.705 33.705 0 0 1 11.584-2.361Z"/><path fill="#fff" d="M392.505 184.062s-8.697 14.859-7.143 53.056l-5.224 38.707h-5.681l6.321-38.707s-6.752-29.248.143-50.695a33.705 33.705 0 0 1 11.584-2.361Z" opacity=".2"/><path fill="#263238" d="M393.746 184.062s-1.306-.731-4.336.482c-3.03 1.214-10.252 17.129-10.252 17.129l5.512-3.183-3.096 3.183 3.696 19.086s4.206-34.362 8.476-36.697Z"/><path fill="#256FF2" d="M401.634 181.4s-5.132 3.575-4.518 7.332l-8.764 2.152s5.185-8.858 13.282-9.484Zm15.646 11.05-12.276-3.979s6.53-5.218 8.515-8.062l4.062 3.039c.104.235 1.306 3.21-.301 9.002Z"/><path fill="#fff" d="M401.634 181.4s-5.132 3.575-4.518 7.332l-8.764 2.152s5.185-8.858 13.282-9.484Zm15.646 11.05-12.276-3.979s6.53-5.218 8.515-8.062l4.062 3.039c.104.235 1.306 3.21-.301 9.002Z" opacity=".6"/><path fill="#000" d="M424.829 244.985h-1.789c-3.526 0-7.68-.183-11.611-.405a512.75 512.75 0 0 1-14.366-1.03l.549-9.458 7.614.104.379-.704a31.8 31.8 0 0 0 4.414-1.435c4.426-1.82 8.75-3.875 12.955-6.158l1.398-.77c-1.306 8.206-2.116 14.351-2.116 14.351a104.673 104.673 0 0 1 2.573 5.505Z" opacity=".2"/><path fill="#263238" d="M432.978 187.18c4.571 4.018 12.695 40.35 10.057 44.968-2.639 4.618-33.499 9.863-33.499 9.863l-2.965-7.828s24.435-6.731 24.435-9.393c0-2.661-4.27-13.45-4.27-13.45s-.993-12.406 2.455-18.486a33.378 33.378 0 0 1 3.787-5.674Z"/><path fill="#fff" d="M432.978 187.18c4.571 4.018 12.695 40.35 10.057 44.968-2.639 4.618-33.499 9.863-33.499 9.863l-2.965-7.828s24.435-6.731 24.435-9.393c0-2.661-4.27-13.45-4.27-13.45s-.993-12.406 2.455-18.486a33.378 33.378 0 0 1 3.787-5.674Z" opacity=".2"/><path fill="#EEC1BB" d="m407.237 234.888-10.2-1.305 1.999 9.667s9.768-.313 10.265-3.327l-2.064-5.035Zm-15.968 3.763a2.001 2.001 0 0 0-.476 2.388l1.584 3.216a2 2 0 0 0 2.657.921l4.001-1.913-1.998-9.667-5.768 5.055Z"/><path fill="#256FF2" d="m410.045 232.839 2.834 9.106-3.944.757-2.73-8.493 3.84-1.37Z"/><path fill="#fff" d="m410.045 232.839 2.834 9.106-3.944.757-2.73-8.493 3.84-1.37Z" opacity=".7"/><path fill="#FFB573" d="m304.977 252.904 6.164 11.741-12.655 1.931s-4.009-11.989-.575-13.959l7.066.287Zm2.443 21.489a2 2 0 0 1-2.075 1.273l-5.651-.589a2 2 0 0 1-1.785-2.172l.577-6.277 12.655-1.931-3.721 9.696Z"/><path fill="#256FF2" d="m303.397 247.059 2.808 7.254-10.213 2.53-2.926-7.201 10.331-2.583Z"/><path fill="#fff" d="m303.397 247.059 2.808 7.254-10.213 2.53-2.926-7.201 10.331-2.583Z" opacity=".7"/><path fill="#263238" d="M278.178 159.823c-3.461 3.418-.196 45.542-.092 50.565.105 5.022 14.863 42.281 14.863 42.281l11.923-3.653-12.185-38.85c-1.789-5.662-1.436-20.169-1.567-26.326-.104-4.788-.366-12.302-3.748-16.712a30.778 30.778 0 0 0-9.194-7.305Z"/><path fill="#000" d="M278.178 159.823c-3.461 3.418-.196 45.542-.092 50.565.105 5.022 14.863 42.281 14.863 42.281l11.923-3.653-12.185-38.85c-1.789-5.662-1.436-20.169-1.567-26.326-.104-4.788-.366-12.302-3.748-16.712a30.778 30.778 0 0 0-9.194-7.305Z" opacity=".3"/><path fill="#FFB573" d="m309.195 208.861 12.877-3.405-.901 12.759s-12.59 1.305-13.765-2.518l1.789-6.836Zm20.877 1.922a2.999 2.999 0 0 1 1.18 3.453l-1.248 3.714a3 3 0 0 1-3.765 1.9l-5.068-1.635.901-12.759 8 5.327Z"/><path fill="#256FF2" d="m277.381 174.59-1.201-12.563c-2.09-.352-3.187-4.187-5.538-4.409a200.417 200.417 0 0 0-22.411 0c-2.233.117-4.479.313-6.53.548l-6.674 26.744c.862 7.344 1.306 14.467 1.633 21.107.81 19.491-.274 23.052.091 27.762h52.763c-1.724-30.945-3.331-49.196-4.388-59.189h-7.745Z"/><path fill="#fff" d="m277.381 174.59-1.201-12.563c-2.09-.352-3.187-4.187-5.538-4.409a200.417 200.417 0 0 0-22.411 0c-1.397.078-2.795.183-4.179.3l-8.737 30.083a309.438 309.438 0 0 1 1.306 18.016c.81 19.491-.274 23.052.091 27.762h52.763c-1.476-30.723-3.135-49.091-4.284-59.189h-7.81Z" opacity=".7"/><path fill="#256FF2" d="M268.788 160.919a39.239 39.239 0 0 0-3.265 3.913l-.653 6.066s9.142 27.279 9.912 39.959l-3.369 3.223-5.89-5.127a342.243 342.243 0 0 0-2.612-37.989l-2.221-5.388s-5.733-2.479-8.136-5.218c-2.403-2.74 16.234.561 16.234.561Z"/><path fill="#FFB573" d="m248.701 135.01 6.008 4.97 8.162 6.771a27.062 27.062 0 0 0-.509 3.3c-.444 4.423 1.032 5.701 5.577 7.397a8.662 8.662 0 0 1-2.743 5.949c0 .718-1.959 1.879-1.959 1.879a13.25 13.25 0 0 0-1.672-1.566c-12.55-.222-14.209-6.027-14.209-6.027 4.885-4.814 3.017-15.485 1.345-22.673Z"/><path fill="#000" d="M262.871 146.751a27.257 27.257 0 0 0-.509 3.3c-3.056-.613-7.118-3.913-7.549-6.966a14.332 14.332 0 0 1-.104-3.105l8.162 6.771Z" opacity=".2"/><path fill="#263238" d="M273.15 108.71s5.354 12.719-.392 19.568c-5.747 6.849-11.963-17.768-11.963-17.768l12.355-1.8Z"/><path fill="#FFB573" d="M255.009 143.959a12.405 12.405 0 0 0 14.98 1.174 13.802 13.802 0 0 0 6.073-8.14c.131-.473.235-.952.313-1.435 1.411-8.963-1.057-23.378-10.957-26.522a13.462 13.462 0 0 0-12.895 2.57 13.42 13.42 0 0 0-4.54 12.328c1.345 9.654 1.672 15.42 7.026 20.025Z"/><path fill="#263238" d="M263.067 125.434c0 .796.523 1.409 1.058 1.305.536-.105.888-.731.823-1.527-.065-.795-.536-1.408-1.058-1.369-.522.039-.888.782-.823 1.591Zm9.012-.704c0 .796.535 1.409 1.058 1.304.522-.104.888-.717.822-1.513-.065-.796-.535-1.409-1.058-1.37-.522.039-.888.783-.822 1.579Z"/><path fill="#ED893E" d="M269.245 125.343a28.279 28.279 0 0 0 4.336 6.523 4.61 4.61 0 0 1-3.775 1.017l-.561-7.54Z"/><path fill="#263238" d="M275.082 120.777a.509.509 0 0 1-.496 0 3.803 3.803 0 0 0-3.369-.365.477.477 0 0 1-.36.018.454.454 0 0 1-.267-.24.445.445 0 0 1-.018-.353.45.45 0 0 1 .24-.26 4.598 4.598 0 0 1 4.257.404.472.472 0 0 1 .17.639.933.933 0 0 1-.157.157Zm-14.078 1.213a.378.378 0 0 1-.261 0 .465.465 0 0 1 0-.665 4.609 4.609 0 0 1 4.048-1.422.466.466 0 0 1 .3.196.454.454 0 0 1 .066.352.496.496 0 0 1-.562.365 3.748 3.748 0 0 0-3.173 1.174.488.488 0 0 1-.418 0Zm-6.791-10.893 1.084 1.735c-3.083 1.461-1.972 5.114-1.111 6.719 1.842 3.431.497 9.288-1.985 11.871 0 0-.287-1.552-1.567-1.017-1.28.535 0 7.266 0 7.266s-1.123 1.905-4.401-6.353c-3.03-7.658-4.127-14.207-2.886-17.468l10.866-2.753Z"/><path fill="#FFB573" d="M244.339 132.218a9.416 9.416 0 0 0 5.707 4.292c3.187.796 4.676-2.074 3.736-5.036-.875-2.609-3.566-6.275-6.726-5.727-3.161.548-4.232 3.836-2.717 6.471Z"/><path fill="#263238" d="M269.375 134.827a30.493 30.493 0 0 0-1.998 3.757l-.731-.195c-3.278-.888-4.493-2.388-4.859-3.784a4.604 4.604 0 0 1 .418-3.183 16.029 16.029 0 0 0 6.06 3.092c.679.209 1.11.313 1.11.313Z"/><path fill="#fff" d="m268.265 134.514-.614 1.083c-3.095-.848-5.145-1.866-5.864-3.053.087-.391.228-.769.418-1.122a16.029 16.029 0 0 0 6.06 3.092Z"/><path fill="#DE5753" d="M266.646 138.389c-3.278-.887-4.493-2.388-4.859-3.784 1.236.372 2.399.954 3.435 1.722a4.008 4.008 0 0 1 1.424 2.062Z"/><path fill="#263238" d="M271.413 113.132a11.205 11.205 0 0 0 2.612-8.271s-18.794-3.235-27.361 0c-8.567 3.236-3.252 17.142-3.252 17.142s8.815-7.266 11.937-9.132c3.121-1.865 12.812 1.527 12.812 1.527l3.252-1.266Z"/><path fill="#256FF2" d="M249.524 152.295s2.39 6.327 11.597 10.802l2.482 2.27-4.127-1.044-4.179 5.219-11.637-11.637s3.827-5.531 5.864-5.61Zm14.079 13.072.666-3.627a13.7 13.7 0 0 0-.914-6.862s-.575-.13-.902-1.683l1.555.392s8.227 3.235 9.416 13.893l-6.53-4.513-3.291 2.4Z"/><path fill="#fff" d="m263.603 165.367.666-3.627a13.7 13.7 0 0 0-.914-6.862s-.575-.13-.902-1.683l1.555.392s8.227 3.235 9.416 13.893l-6.53-4.513-3.291 2.4Zm-14.079-13.072s2.39 6.327 11.597 10.802l2.482 2.27-4.127-1.044-4.179 5.219-11.637-11.637s3.827-5.531 5.864-5.61Z" opacity=".6"/><path fill="#9F5B53" d="m284.773 457.082 11.088 1.161.562-6.419 1.528-17.481-11.101-1.174-1.685 19.308-.392 4.605Zm-55.387-1.409h10.748l.091-2.427.027-.3.535-15.589.013-.314.222-5.961h-10.761l-.875 24.591Z"/><path fill="#000" d="m286.85 433.169-1.685 19.308 11.258-.653 1.528-17.481-11.101-1.174Zm-57.399 21.147h.013l10.761-1.37h.026l.549-15.042h-.013l-10.775.861-.548 15.068-.013.483Z" opacity=".2"/><path fill="#263238" d="M241.61 455.033h-13.06a.93.93 0 0 0-.914.731l-2.129 9.576a1.591 1.591 0 0 0 1.227 1.878c.117.02.236.02.353 0 4.218-.065 7.301-.326 12.616-.326 3.265 0 13.06.339 17.644.339 4.584 0 5.106-4.448 3.265-4.866-8.293-1.8-14.536-4.305-17.187-6.679a2.618 2.618 0 0 0-1.815-.653Zm55.439-.339h-13.06a.928.928 0 0 0-.914.731L280.946 465a1.562 1.562 0 0 0 .317 1.345 1.558 1.558 0 0 0 1.264.56c4.231 0 7.3-.326 12.616-.326 3.265 0 13.138.339 17.644.339 4.505 0 5.106-4.449 3.265-4.866-8.293-1.8-14.536-4.305-17.187-6.679a2.612 2.612 0 0 0-1.816-.679Zm-69.048-3.118h15.581s12.537-47.473 17.5-81.64c.784-5.309 1.607-12.262 2.442-20.377 1.306-13.046 2.678-28.805 3.918-43.938 3.723 9.993 6.53 24.291 8.751 40.442a772.058 772.058 0 0 1 7.013 104.091h15.776c10.135-77.282.601-155.83-6.007-196.611-1.306-8.271-2.612-14.977-3.487-19.817h-52.776c0 1.096.353 9.132.823 20.782 1.058 26.613 2.612 72.365.98 99.03-1.372 23.221-10.514 98.038-10.514 98.038Z"/><path fill="#256FF2" d="M302.495 456.599c-.85.254-1.726.416-2.612.483a.237.237 0 0 1-.217-.118.228.228 0 0 1-.031-.125.228.228 0 0 1 .04-.123c.235-.313 2.298-2.987 3.591-2.909a.865.865 0 0 1 .718.457 1.299 1.299 0 0 1 .105 1.304 2.615 2.615 0 0 1-1.594 1.031Zm-2.115 0c1.789-.209 3.004-.652 3.304-1.239a.806.806 0 0 0-.105-.822.393.393 0 0 0-.339-.235c-.692-.104-1.998 1.187-2.86 2.296Z"/><path fill="#256FF2" d="M299.936 457.043h-.118a.207.207 0 0 1-.105-.048.206.206 0 0 1-.065-.096c0-.117-1.136-2.74-.483-3.914a1.19 1.19 0 0 1 .836-.613.92.92 0 0 1 1.006.405c.548.952-.222 3.365-.967 4.226l-.104.04Zm0-4.214a.642.642 0 0 0-.405.339 5.111 5.111 0 0 0 .352 3.183c.65-.993.893-2.198.68-3.366 0-.117-.183-.248-.523-.182l-.104.026Zm-52.867 3.77c-.851.256-1.726.418-2.612.483a.245.245 0 0 1-.127-.029.24.24 0 0 1-.095-.089.22.22 0 0 1 0-.248c.235-.313 2.298-2.987 3.591-2.909a.821.821 0 0 1 .706.457 1.306 1.306 0 0 1 .117 1.304 2.707 2.707 0 0 1-1.58 1.031Zm-2.103 0c1.776-.209 3.004-.652 3.304-1.239a.805.805 0 0 0-.104-.822.4.4 0 0 0-.34-.235c-.692-.104-1.998 1.187-2.86 2.296Z"/><path fill="#256FF2" d="M244.509 457.043h-.104a.21.21 0 0 1-.17-.144c0-.117-1.136-2.74-.483-3.914a1.174 1.174 0 0 1 .822-.613.901.901 0 0 1 1.006.405c.548.952-.209 3.365-.966 4.226l-.105.04Zm0-4.214a.638.638 0 0 0-.238.127.64.64 0 0 0-.167.212 5.111 5.111 0 0 0 .353 3.183 4.695 4.695 0 0 0 .679-3.366c-.065-.117-.196-.248-.522-.182l-.105.026Z"/><path fill="#000" d="M267.416 305.608c3.722 10.006 6.53 24.291 8.75 40.507 5.303-21.682-7.378-61.784-7.378-61.784l-1.372 21.277Z" opacity=".3"/><path fill="#263238" d="m290.911 243.158-.836-13.28h-52.109s-1.633 3.118-1.463 12.093l54.408 1.187Z"/><path fill="#000" d="M290.911 231.548h-5.576v3.848h5.576v-3.848Zm-7.144 0H260.22v3.848h23.547v-3.848Zm-25.127 0h-20.4v3.848h20.4v-3.848Z"/><path fill="#000" d="M236.712 233.779c0 1.095.353 9.132.823 20.781 10.069 2.61 32.389 1.736 32.389 1.736l2.063-1.579.771 1.579 20.191-2.701c-1.306-8.271-2.612-14.976-3.487-19.816h-52.75Z" opacity=".3"/><path fill="#fff" d="M270.642 235.67h4.937a.717.717 0 0 0 .718-.717v-2.936a.717.717 0 0 0-.718-.717h-4.937a.717.717 0 0 0-.718.717v2.936c0 .396.321.717.718.717Z"/><path fill="#263238" d="M272.118 241.75a61.678 61.678 0 0 1-2.207 11.375l-35.641-1.043s.705-28.035 1.006-39.437a205.435 205.435 0 0 0-1.659-21.943c-.627-5.688-1.306-11.533-2.011-16.581a8.113 8.113 0 0 1-.105-1.122 15.641 15.641 0 0 1 3.127-10.301 15.674 15.674 0 0 1 9.045-5.85l26.12 40.442v.104s.196.966.444 2.675a212.809 212.809 0 0 1 1.998 17.872c.65 7.925.61 15.891-.117 23.809Z"/><path fill="#263238" d="m245.528 155.57-3.278 1.37 1.462 9.392 6.073 5.219-1.907 6.653 22.098 19.177s-17.592-26.73-24.448-41.811Z"/><path fill="#fff" d="m245.528 155.57-3.278 1.37 1.462 9.392 6.073 5.219-1.907 6.653 22.098 19.177s-17.592-26.73-24.448-41.811Z" opacity=".1"/><path fill="#263238" d="m294.019 250.542-20.896 1.422-.979-10.214-2.325-24.474-1.515-15.851c.235-.587.47-1.161.666-1.735.327-.822.64-1.617.915-2.413 10.291-28.701-.836-39.959-.836-39.959a22.21 22.21 0 0 1 14.744 6.836c3.84 8.466 6.935 22.817 7.262 37.754.183 8.271.078 15.55 0 19.647 0 2.231-.092 3.522-.092 3.522l3.056 25.465Z"/><path fill="#263238" d="M269.036 157.305s8.28 4.057 11.532 11.428l-1.868 2.452 4.049 6.836-14.471 23.391s6.217-35.484.758-44.107Z"/><path fill="#fff" d="M269.036 157.305s8.28 4.057 11.532 11.428l-1.868 2.452 4.049 6.836-14.471 23.391s6.217-35.484.758-44.107Z" opacity=".1"/><path fill="#000" d="M291.016 221.542c-4.663-.705-11.754-1.905-18.663-3.627a85.076 85.076 0 0 1-2.612-.652 69.164 69.164 0 0 1-11.036-3.81c-8.841-4.161-19.59-16.111-25.14-22.751-.627-5.688-1.306-11.533-2.011-16.581a8.113 8.113 0 0 1-.105-1.122h13.661s20.125 24.408 23.782 26.678l.314.144a9.73 9.73 0 0 0 1.097.222c3.683.574 14.078 1.382 20.674 1.852.261 8.271.13 15.55.039 19.647Z" opacity=".3"/><path fill="#256FF2" d="m303.384 207.609 7.757.744-2.325 10.254-7.757-.614 2.325-10.384Z"/><path fill="#fff" d="m303.384 207.609 7.757.744-2.325 10.254-7.757-.614 2.325-10.384Z" opacity=".7"/><path fill="#263238" d="M232.18 167.48c-6.203 18.656 20.021 38.955 26.591 44.356 6.569 5.401 45.527 7.592 45.527 7.592l2.05-12.263s-35.51-4.044-38.122-5.753c-2.612-1.709-19.59-22.947-23.965-29.666-4.375-6.718-12.081-4.266-12.081-4.266Z"/></svg>